<?xml version="1.0" encoding="UTF-8" standalone="no"?>
<svg width="233px" height="97px" viewBox="0 0 233 97" version="1.1" xmlns="http://www.w3.org/2000/svg" xmlns:xlink="http://www.w3.org/1999/xlink">
    <!-- Generator: Sketch 48 (47235) - http://www.bohemiancoding.com/sketch -->
    <title>Page 1 Copy</title>
    <desc>Created with Sketch.</desc>
    <defs>
        <polygon id="path-1" points="173.49308 42.4167313 0.37061287 42.4167313 0.37061287 0.545438982 173.49308 0.545438982"></polygon>
    </defs>
    <g id="Mobile/HISTORY" stroke="none" stroke-width="1" fill="none" fill-rule="evenodd" transform="translate(-64.000000, -3333.000000)">
        <g id="Page-1-Copy" transform="translate(64.000000, 3333.000000)">
            <path d="M225.308776,38.6649597 C222.966149,39.6914239 221.042241,40.2931443 221.042241,41.1979371 C221.042241,41.4390677 221.163449,41.6801983 221.822382,41.6801983 C223.506077,41.6801983 224.588137,40.3528739 225.308776,38.6649597 Z M229.154388,27.3251849 C228.854673,28.2897073 228.914175,33.2362029 228.493251,35.0457885 C228.312541,35.8289099 228.072328,36.4925721 227.772612,37.1562343 C229.69652,36.0700405 231.558722,34.7449283 233,32.8734009 L233,33.4773335 C231.437514,35.3466487 229.454103,36.6739731 227.532399,37.6384955 C225.969913,40.4745453 223.265864,42.1027299 221.463165,42.1027299 C220.502313,42.1027299 220.200393,41.8018697 220.200393,41.5010095 C220.200393,40.3528739 222.604727,39.6294821 225.489487,38.3021577 C226.331334,36.0103109 226.571547,33.1145315 226.571547,31.1257571 C226.571547,30.7032255 226.509841,29.9178919 226.509841,29.9178919 C225.670198,30.8824143 223.565579,33.4773335 223.565579,33.4773335 L223.565579,32.8734009 C225.368279,30.7629551 226.150624,29.0130991 229.154388,27.3251849 Z M217.317837,30.4001531 C217.317837,29.9776215 217.137127,29.7984327 216.716203,29.7984327 C216.356985,29.7984327 215.995564,29.9178919 215.636346,29.9776215 C214.494784,31.4863469 212.811089,33.4773335 212.811089,33.4773335 L212.811089,32.8734009 C213.472226,32.0902795 214.133362,30.9443561 214.854001,29.9178919 C214.433078,29.6767613 214.252367,29.0728287 214.252367,28.6525093 C214.252367,27.6260451 215.034712,26.4801217 216.116772,26.4801217 C216.47599,26.4801217 217.018122,26.6615227 217.018122,27.0840543 C217.018122,27.6260451 216.47599,28.3494369 216.47599,28.7719685 C216.47599,29.5573021 219.241745,28.6525093 219.241745,31.0638153 C219.241745,33.0548019 216.235777,36.9151037 215.814853,39.6294821 C217.137127,39.0277617 220.081389,37.0965047 223.567783,32.8734009 L223.567783,33.4773335 C221.34416,36.1319823 216.837411,40.5962167 213.952652,41.5010095 C213.952652,41.5010095 213.351017,41.0165361 213.351017,39.6914239 C213.351017,37.8198965 217.317837,32.4508693 217.317837,30.4001531 Z M198.572408,37.7601669 C198.572408,38.0012975 198.572408,38.5432883 199.112336,38.5432883 C199.592762,38.5432883 204.099511,36.7337027 208.366047,29.4953603 C208.366047,29.4953603 210.289954,29.1945001 210.889385,29.1347705 C209.809528,30.8824143 206.684556,35.1652477 205.963917,39.4480811 C207.345692,38.8463607 209.388605,37.0965047 212.813293,32.8734009 L212.813293,33.4773335 C210.649172,36.1319823 207.043773,40.4148157 204.099511,41.3196085 C204.099511,41.3196085 203.50008,40.8970769 203.50008,39.5100229 C203.50008,38.1229689 204.941358,35.2271895 205.602495,34.0812661 C204.099511,36.0103109 199.293047,40.2334147 196.829211,40.2334147 C196.108572,40.2334147 196.046866,39.2069505 196.046866,38.7246893 C196.046866,33.7184641 201.155249,28.3494369 206.924769,28.3494369 C208.066331,28.3494369 208.967681,28.5905675 208.967681,28.5905675 C202.358518,28.5905675 198.572408,35.2271895 198.572408,37.7601669 Z M189.920333,31.9088785 L193.466229,31.6677479 C193.706442,31.1854867 194.367579,29.8581623 194.367579,29.1945001 C194.367579,28.8936399 194.24637,28.6525093 193.887153,28.6525093 C192.624382,28.6525093 191.183104,30.0395633 189.920333,31.9088785 Z M198.332195,32.8734009 L198.332195,33.4773335 C196.110776,36.1319823 191.361611,40.5342749 187.87742,40.5342749 C185.354082,40.5342749 184.81195,38.8463607 184.81195,37.5787659 C184.81195,34.3223967 189.68012,28.3494369 194.067863,28.3494369 C195.628146,28.3494369 196.110776,29.0728287 196.110776,29.9178919 C196.110776,30.5815541 195.808857,31.3668877 195.628146,31.9088785 L189.68012,32.3314101 C188.298344,34.5635273 187.275786,37.2779057 187.275786,39.0874913 C187.275786,39.9325545 187.515999,40.2334147 188.058131,40.2334147 C191.121398,40.2334147 196.04907,35.6497211 198.332195,32.8734009 Z M173.396323,38.7866311 C173.396323,39.6914239 174.057459,40.2334147 174.839804,40.2334147 C179.10634,40.2334147 182.711739,34.2007253 182.711739,30.3404235 C182.711739,29.4953603 182.40982,28.6525093 181.50847,28.6525093 C179.287051,28.6525093 177.001721,31.5460765 174.599591,35.5877793 C173.636536,37.1562343 173.396323,38.0012975 173.396323,38.7866311 Z M177.241934,30.8226847 C178.866127,29.1347705 180.1884,28.3494369 181.689181,28.3494369 C184.333727,28.3494369 184.814153,29.8581623 184.814153,31.0638153 C184.814153,34.8643875 179.225345,40.5342749 174.778098,40.5342749 C173.876749,40.5342749 172.735186,40.1736851 172.735186,38.6649597 C171.053695,41.3793381 167.748011,46.9894959 164.563536,52.2965812 L162.399415,52.2965812 C169.010782,41.8615993 171.774334,36.9151037 173.817246,33.0548019 C173.997957,32.6942121 174.119165,32.2716805 174.119165,32.0902795 L172.856394,33.4773335 L172.856394,32.8734009 C174.178668,31.4266173 175.199022,30.0395633 175.860159,29.1347705 L178.323995,28.9533695 L177.241934,30.8226847 Z M159.397855,38.7866311 C159.397855,39.6914239 160.058992,40.2334147 160.839133,40.2334147 C165.105668,40.2334147 168.711067,34.2007253 168.711067,30.3404235 C168.711067,29.4953603 168.411352,28.6525093 167.510002,28.6525093 C165.286379,28.6525093 163.003254,31.5460765 160.59892,35.5877793 C159.638068,37.1562343 159.397855,38.0012975 159.397855,38.7866311 Z M163.243467,30.8226847 C164.865455,29.1347705 166.187729,28.3494369 167.690713,28.3494369 C170.33526,28.3494369 170.815686,29.8581623 170.815686,31.0638153 C170.815686,34.8643875 165.226877,40.5342749 160.779631,40.5342749 C159.878281,40.5342749 158.736718,40.1736851 158.736718,38.6649597 C157.053023,41.3793381 153.749544,46.9894959 150.565069,52.2965812 L148.400948,52.2965812 C155.010111,41.8615993 157.775866,36.9151037 159.818779,33.0548019 C159.999489,32.6942121 160.118494,32.2716805 160.118494,32.0902795 L158.855723,33.4773335 L158.855723,32.8734009 C160.177996,31.4266173 161.200554,30.0395633 161.861691,29.1347705 L164.325527,28.9533695 L163.243467,30.8226847 Z M144.617042,37.7601669 C144.617042,38.0012975 144.617042,38.5432883 145.15697,38.5432883 C145.6396,38.5432883 150.146349,36.7337027 154.412884,29.4953603 C154.412884,29.4953603 156.334588,29.1945001 156.936223,29.1347705 C155.854162,30.8824143 152.729189,35.1652477 152.00855,39.4480811 C153.390326,38.8463607 155.433238,37.0965047 158.857927,32.8734009 L158.857927,33.4773335 C156.69601,36.1319823 153.090611,40.4148157 150.146349,41.3196085 C150.146349,41.3196085 149.544714,40.8970769 149.544714,39.5100229 C149.544714,38.1229689 150.985992,35.2271895 151.647129,34.0812661 C150.146349,36.0103109 145.337681,40.2334147 142.873845,40.2334147 C142.153206,40.2334147 142.093704,39.2069505 142.093704,38.7246893 C142.093704,33.7184641 147.202087,28.3494369 152.969402,28.3494369 C154.110965,28.3494369 155.012315,28.5905675 155.012315,28.5905675 C148.403152,28.5905675 144.617042,35.2271895 144.617042,37.7601669 Z M135.306033,20.5071619 C136.086175,20.5071619 136.566601,20.9916353 136.566601,21.7150271 C136.566601,22.7392791 135.546246,23.7657433 134.464186,23.7657433 C133.684045,23.7657433 133.201415,23.2834821 133.201415,22.5600903 C133.201415,21.5336261 134.223973,20.5071619 135.306033,20.5071619 Z M136.685605,38.6649597 C134.342978,39.6914239 132.41907,40.2931443 132.41907,41.1979371 C132.41907,41.4390677 132.540278,41.6801983 133.201415,41.6801983 C134.882906,41.6801983 135.964966,40.3528739 136.685605,38.6649597 Z M140.533421,27.3251849 C140.231502,28.2897073 140.293208,33.2362029 139.872284,35.0457885 C139.691574,35.8289099 139.451361,36.4925721 139.149441,37.1562343 C141.073349,36.0700405 142.935551,34.7449283 144.379033,32.8734009 L144.379033,33.4773335 C142.816546,35.3466487 140.833136,36.6739731 138.909228,37.6384955 C137.346742,40.4745453 134.642693,42.1027299 132.839994,42.1027299 C131.879142,42.1027299 131.579426,41.8018697 131.579426,41.5010095 C131.579426,40.3528739 133.981556,39.6294821 136.866316,38.3021577 C137.708163,36.0103109 137.948376,33.1145315 137.948376,31.1257571 C137.948376,30.7032255 137.888874,29.9178919 137.888874,29.9178919 C137.047027,30.8824143 134.944612,33.4773335 134.944612,33.4773335 L134.944612,32.8734009 C136.747311,30.7629551 137.527453,29.0130991 140.533421,27.3251849 Z M128.275947,33.0548019 C128.51616,32.6942121 128.575662,32.2716805 128.575662,32.0902795 L127.312891,33.4773335 L127.312891,32.8734009 C128.21424,31.7894193 129.417509,30.4620949 130.318859,29.1347705 L132.720989,29.1347705 C131.279711,31.6677479 128.635164,35.8289099 128.154738,39.4480811 C129.477012,38.8463607 131.519924,37.0965047 134.944612,32.8734009 L134.944612,33.4773335 C132.782695,36.1319823 129.177296,40.4148157 126.23083,41.3196085 C126.23083,41.3196085 125.6314,40.8970769 125.6314,39.5100229 C125.6314,37.8198965 127.674312,34.2604549 128.275947,33.0548019 Z M122.028205,30.8824143 L123.350478,28.6525093 C116.798613,28.7122389 113.07421,35.2271895 113.07421,37.7601669 C113.07421,38.0012975 113.07421,38.5432883 113.614138,38.5432883 C114.035062,38.5432883 118.301598,37.1562343 122.028205,30.8824143 Z M127.315095,32.8734009 L127.315095,33.4773335 C125.153178,36.1319823 121.547779,40.4148157 118.601313,41.3196085 C118.601313,41.3196085 118.001882,40.8970769 118.001882,39.5100229 C118.001882,37.8198965 119.864084,34.5635273 120.044795,34.1409957 C118.541811,36.1319823 113.735347,40.2334147 111.331013,40.2334147 C110.610374,40.2334147 110.550872,39.2069505 110.550872,38.7246893 C110.550872,33.7184641 115.657051,28.3494369 121.42657,28.3494369 C122.387422,28.3494369 123.169767,28.5308379 123.40998,28.5905675 L131.462625,15.0784052 L134.104968,15.0784052 C125.272182,29.0728287 120.465718,36.6739731 120.465718,39.4480811 C121.847494,38.8463607 123.890406,37.0965047 127.315095,32.8734009 Z M83.1533667,36.6142435 C85.9764204,32.7539417 90.3641643,28.5905675 92.4070767,28.5905675 C93.0682134,28.5905675 93.3084264,28.9533695 93.3084264,29.7364909 C90.3641643,30.7629551 88.0193328,32.2716805 86.0976288,34.0193243 C87.4199022,40.0520137 92.5260813,44.1534461 98.8972353,44.1534461 C101.120858,44.1534461 103.824908,43.1889237 105.565901,42.0430003 L105.687109,42.2244013 C103.644197,43.6711849 99.9792957,44.8790501 95.9529732,44.8790501 C91.0848033,44.8790501 85.9764204,42.1027299 84.413934,35.7691803 C82.8514476,37.5190363 81.7098849,39.2688923 80.8085352,40.7156759 C80.8085352,40.7156759 79.7881809,39.6914239 79.7881809,39.3883515 C79.7881809,38.0012975 82.011804,34.2604549 82.6112346,33.0548019 C82.8514476,32.6942121 82.9131537,32.2716805 82.9131537,32.0902795 L81.6503826,33.4773335 L81.6503826,32.8734009 C82.5517323,31.7894193 83.7527973,30.4620949 84.654147,29.1347705 C86.8182678,25.7567299 89.5223169,21.2327659 93.187218,15.0784052 L95.8317648,15.0784052 C91.505727,22.0158873 86.0976288,29.8581623 83.1533667,36.6142435 Z M73.23852,31.9088785 L76.7844165,31.6677479 C77.0246295,31.1854867 77.6857662,29.8581623 77.6857662,29.1945001 C77.6857662,28.8936399 77.5667616,28.6525093 77.2053402,28.6525093 C75.9425691,28.6525093 74.5012911,30.0395633 73.23852,31.9088785 Z M81.6525864,32.8734009 L81.6525864,33.4773335 C79.4289633,36.1319823 74.6820018,40.5342749 71.1956076,40.5342749 C68.6722691,40.5342749 68.1323408,38.8463607 68.1323408,37.5787659 C68.1323408,34.3223967 72.998307,28.3494369 77.3860509,28.3494369 C78.9485373,28.3494369 79.4289633,29.0728287 79.4289633,29.9178919 C79.4289633,30.5815541 79.129248,31.3668877 78.9485373,31.9088785 L72.998307,32.3314101 C71.6165313,34.5635273 70.5961769,37.2779057 70.5961769,39.0874913 C70.5961769,39.9325545 70.8363899,40.2334147 71.3763183,40.2334147 C74.4417888,40.2334147 79.369461,35.6497211 81.6525864,32.8734009 Z M56.7167138,38.7866311 C56.7167138,39.6914239 57.3778505,40.2334147 58.1579918,40.2334147 C62.4245273,40.2334147 66.0299261,34.2007253 66.0299261,30.3404235 C66.0299261,29.4953603 65.7302108,28.6525093 64.8288611,28.6525093 C62.605238,28.6525093 60.3221126,31.5460765 57.9177788,35.5877793 C56.9569268,37.1562343 56.7167138,38.0012975 56.7167138,38.7866311 Z M60.5623256,30.8226847 C62.1843143,29.1347705 63.5065877,28.3494369 65.0095718,28.3494369 C67.6519148,28.3494369 68.1345446,29.8581623 68.1345446,31.0638153 C68.1345446,34.8643875 62.5457357,40.5342749 58.0984895,40.5342749 C57.1971398,40.5342749 56.0555771,40.1736851 56.0555771,38.6649597 C54.3718823,41.3793381 51.0684026,46.9894959 47.8817237,52.2965812 L45.7198067,52.2965812 C52.3289699,41.8615993 55.0947251,36.9151037 57.1376375,33.0548019 C57.3161444,32.6942121 57.4373528,32.2716805 57.4373528,32.0902795 L56.1745817,33.4773335 L56.1745817,32.8734009 C57.4968551,31.4266173 58.5194132,30.0395633 59.1805499,29.1347705 L61.644386,28.9533695 L60.5623256,30.8226847 Z M41.935901,37.7601669 C41.935901,38.0012975 41.935901,38.5432883 42.4758293,38.5432883 C42.9584591,38.5432883 47.4652076,36.7337027 51.7317431,29.4953603 C51.7317431,29.4953603 53.6534471,29.1945001 54.2550815,29.1347705 C53.1730211,30.8824143 50.0480483,35.1652477 49.3274093,39.4480811 C50.709185,38.8463607 52.7520974,37.0965047 56.1767855,32.8734009 L56.1767855,33.4773335 C54.0148685,36.1319823 50.4094697,40.4148157 47.4652076,41.3196085 C47.4652076,41.3196085 46.8635732,40.8970769 46.8635732,39.5100229 C46.8635732,38.1229689 48.3048512,35.2271895 48.9659879,34.0812661 C47.4652076,36.0103109 42.65654,40.2334147 40.1927039,40.2334147 C39.4720648,40.2334147 39.4125625,39.2069505 39.4125625,38.7246893 C39.4125625,33.7184641 44.5187417,28.3494369 50.2882613,28.3494369 C51.429824,28.3494369 52.3311737,28.5905675 52.3311737,28.5905675 C45.7220105,28.5905675 41.935901,35.2271895 41.935901,37.7601669 Z M31.6618366,41.5010095 C29.7401326,41.5010095 28.1776462,39.6294821 26.1347338,39.6294821 L25.0526734,40.4745453 L24.7529581,40.1117433 L34.9675201,32.2716805 L34.8463117,32.0902795 C34.0661704,32.5128111 33.2860291,32.7539417 32.3846794,32.7539417 C31.2409129,32.7539417 30.4012693,32.3911397 28.8387829,31.4863469 L26.9743774,33.4773335 L26.9743774,32.8734009 C27.5165095,32.2097387 29.0789959,30.2209643 30.0398479,28.7719685 C31.542832,30.1590225 32.743897,31.2452163 34.5465964,31.2452163 C35.5074484,31.2452163 36.7702195,30.9443561 37.7927776,30.0992929 L38.0924929,30.5218245 L28.2371485,38.0610271 C30.2800609,38.1229689 31.4811259,39.8108831 33.4050337,39.8108831 C34.8463117,39.8108831 36.7107172,38.9658199 41.6978917,32.8734009 L41.6978917,33.4773335 C39.2340556,36.4925721 35.2077331,41.5010095 31.6618366,41.5010095 Z M41.3430817,41.7421401 C37.3762615,48.7990815 28.2415561,56.519685 17.725075,56.519685 L17.4253597,56.1590952 C27.4614148,56.1590952 36.1751965,49.8852753 41.2218733,41.7421401 L41.3430817,41.7421401 Z M48.9130969,3.73863039 C48.9130969,1.86931519 46.3897585,0.482261198 40.3205236,0.482261198 C31.7279503,0.482261198 23.3138839,4.82482418 16.5835123,11.3995044 C19.6489828,12.2445676 23.0736709,12.6051574 26.5005628,12.6051574 C39.1789609,12.6051574 48.9130969,7.29807198 48.9130969,3.73863039 Z M17.725075,56.519685 C5.40809822,56.519685 0,48.7990815 0,39.4480811 C0,30.1590225 5.76731582,19.1201079 14.6023059,11.0389146 C9.97434903,9.40851777 6.42845252,6.63440978 5.46760052,2.59270699 L5.70781352,2.53297739 C6.66866553,6.51273838 10.214562,9.28905857 14.8425189,10.8575136 C21.9321082,4.46202218 31.0073113,0 40.5607366,0 C47.7715342,0 50.9560093,1.80958559 50.9560093,4.10143239 C50.9560093,7.90200458 41.88301,13.027689 27.2807041,13.027689 C23.4945946,13.027689 19.7084851,12.6051574 16.3432993,11.640635 C8.05044123,19.8457119 2.40213001,31.3049459 2.40213001,41.9213289 C2.40213001,49.8852753 6.42845252,56.1590952 17.4253597,56.1590952 L17.725075,56.519685 Z" id="Fill-1" fill="#FFFFFF"></path>
            <g id="Group-5" transform="translate(38.706840, 54.228346)">
                <mask id="mask-2" fill="white">
                    <use xlink:href="#path-1"></use>
                </mask>
                <g id="Clip-4"></g>
                <path d="M139.190381,25.6089263 C137.023012,29.2921067 134.436295,33.0319179 131.487614,35.7654433 C143.282339,38.2005679 153.693215,40.6356925 159.771559,40.6356925 C168.61981,40.6356925 172.833158,36.9525121 172.833158,33.6265413 C172.833158,27.6280323 161.938928,24.896685 149.963221,24.896685 C146.412002,24.896685 142.7416,25.1340987 139.190381,25.6089263 M125.771233,24.5394753 C127.095491,23.94703 129.14147,22.2241466 132.571298,18.0661387 L132.571298,18.6607621 C130.403929,21.2723135 126.793119,25.4891303 123.844437,26.3799764 C123.844437,26.3799764 123.244107,25.966136 123.244107,24.5982842 C123.244107,22.9363879 125.290086,19.4318123 125.890416,18.2447435 C126.13099,17.8875339 126.192788,17.4715153 126.192788,17.2950885 L124.928122,18.6607621 L124.928122,18.0661387 C125.830824,16.9966877 127.033692,15.689823 127.938602,14.3829583 C130.103764,11.0569876 132.811872,6.60275697 136.482274,0.545438982 L139.13079,0.545438982 C135.579571,6.12792946 126.071398,19.789022 125.771233,24.5394753 M136.482274,26.0249449 C128.477134,27.3906185 121.73666,29.945539 119.450108,33.5089235 C123.001326,34.1013689 126.552545,34.8136101 129.982374,35.4670425 C132.330725,33.0319179 134.436295,29.5883293 136.482274,26.0249449 M129.260653,36.1814619 C125.950008,35.5280295 122.460588,34.8136101 119.028552,34.2211648 C118.728387,34.8745971 118.547405,35.5280295 118.547405,36.2402708 C118.547405,38.0807719 119.993053,39.5074326 122.339197,39.5074326 C124.866323,39.5074326 127.155083,38.2593768 129.260653,36.1814619 M117.227561,23.7684251 C114.87921,24.7768891 112.954622,25.3715125 112.954622,26.2623586 C112.954622,26.4997724 113.073805,26.7371861 113.735934,26.7371861 C115.422156,26.7371861 116.503633,25.4303214 117.227561,23.7684251 M121.078945,12.6012661 C120.776573,13.5530992 120.838371,18.4233484 120.416816,20.2050406 C120.235834,20.9760908 119.99526,21.6295232 119.695095,22.2829555 C121.619684,21.2135046 123.484681,19.9066399 124.930329,18.0661387 L124.930329,18.6607621 C123.365497,20.5012633 121.37911,21.808128 119.452315,22.7577831 C117.88969,25.5501173 115.179375,27.1532047 113.37397,27.1532047 C112.411676,27.1532047 112.111511,26.8569821 112.111511,26.5585813 C112.111511,25.4303214 114.519453,24.7180801 117.406336,23.4112154 C118.249447,21.1546957 118.49002,18.3035525 118.49002,16.3432554 C118.49002,15.9272368 118.430429,15.1561866 118.430429,15.1561866 C117.587318,16.1058416 115.481747,18.6607621 115.481747,18.6607621 L115.481747,18.0661387 C117.287153,15.9882238 118.068465,14.2653405 121.078945,12.6012661 M115.483955,18.0661387 L115.483955,18.6607621 C113.316585,21.2723135 109.705775,25.4891303 106.757094,26.3799764 C106.757094,26.3799764 106.154556,25.966136 106.154556,24.5982842 C106.154556,23.3524065 108.081352,19.9066399 109.105445,17.8287249 C106.275947,21.5119054 102.062599,25.4303214 99.6568633,25.4303214 C98.9947342,25.4303214 98.7541607,25.0752898 98.7541607,24.4806664 C98.7541607,23.1149927 100.978914,19.4318123 101.581452,18.2447435 C101.822025,17.8875339 101.881617,17.4715153 101.881617,17.2950885 L100.619157,18.6607621 L100.619157,18.0661387 C101.52186,16.9966877 102.724728,15.689823 103.62743,14.3829583 L106.216355,14.0867356 C104.470541,17.1164837 101.581452,22.1631596 101.581452,23.3524065 C101.581452,23.6486292 101.641043,23.7684251 101.881617,23.7684251 C102.965301,23.7684251 108.562499,18.77838 110.308313,14.6813591 L113.256994,14.4439453 C111.813553,17.4715153 108.683889,23.0540057 108.683889,24.5394753 C110.008147,23.94703 112.054126,22.2241466 115.483955,18.0661387 M88.5838585,25.3127036 C90.5106541,25.3127036 92.3160593,23.8860429 93.6403173,21.9257458 C93.0973715,21.808128 92.7972064,21.3921094 92.7972064,20.858473 C92.7972064,19.9676269 93.6403173,19.0157937 94.6622032,19.0157937 C94.7835935,19.0157937 94.9027767,19.0767808 95.0241671,19.0767808 C95.5053142,17.8875339 95.7458877,16.7004651 95.7458877,15.6310141 C95.7458877,14.9187728 95.6244974,13.9081308 94.4216296,13.9081308 C91.6539302,13.9081308 87.8025463,20.7386771 87.8025463,24.1844437 C87.8025463,25.0143028 88.0431198,25.3127036 88.5838585,25.3127036 M87.7429546,5.8905157 C88.5242669,5.8905157 89.0076211,6.36534321 89.0076211,7.0797626 C89.0076211,8.08822654 87.9835282,9.09886859 86.8998437,9.09886859 C86.1185314,9.09886859 85.6373843,8.62404108 85.6373843,7.9096217 C85.6373843,6.90115775 86.6592701,5.8905157 87.7429546,5.8905157 M85.335012,22.6989741 C85.335012,19.4906212 90.2082818,13.6119081 94.6026116,13.6119081 C97.0105542,13.6119081 97.7322748,14.9187728 97.7322748,16.1646505 C97.7322748,18.0073298 96.7699806,19.9066399 95.3839238,21.5707143 C96.4676084,21.5119054 98.2730136,20.858473 100.621365,18.0661387 L100.621365,18.6607621 C98.875551,20.7386771 96.7699806,22.1043507 94.9027767,22.1631596 C93.0377799,24.1844437 90.5106541,25.6089263 88.4028766,25.6089263 C85.8757507,25.6089263 85.335012,23.94703 85.335012,22.6989741 M80.7023158,18.2447435 C80.9428893,17.8875339 81.002481,17.4715153 81.002481,17.2950885 L79.7378145,18.6607621 L79.7378145,18.0661387 C80.6405171,16.9966877 81.8455919,15.689823 82.7482945,14.3829583 L85.1540301,14.3829583 C83.7105888,16.8790699 81.0620726,20.9760908 80.5809255,24.5394753 C81.9051836,23.94703 83.9511623,22.2241466 87.3809908,18.0661387 L87.3809908,18.6607621 C85.2158288,21.2723135 81.6050184,25.4891303 78.656337,26.3799764 C78.656337,26.3799764 78.0537996,25.966136 78.0537996,24.5982842 C78.0537996,22.9363879 80.0997784,19.4318123 80.7023158,18.2447435 M139.430955,25.2517166 C143.282339,24.7180801 147.314705,24.4218575 151.22568,24.4218575 C163.082205,24.4218575 173.49308,27.0943958 173.49308,33.3303187 C173.49308,37.1311169 168.49842,41.11052 157.546806,41.11052 C152.0092,41.11052 142.01988,38.7930132 130.704094,36.4776845 C128.176968,38.6165865 125.468861,39.9822601 122.520179,39.9822601 C118.849777,39.9822601 116.982573,38.4967905 116.982573,36.5953024 C116.982573,35.7044562 117.284946,34.8136101 117.766093,34.0425599 C109.941934,32.6768863 101.998593,31.7272313 94.8365638,31.7272313 C85.447574,31.7272313 78.4069351,34.7548012 74.6151428,39.9822601 L74.3149776,39.8624642 C78.4665267,33.983751 86.6526488,31.0737989 95.7392664,31.0737989 C102.839497,31.0737989 110.604063,32.0234539 118.306831,33.2715098 C121.13633,29.7669342 128.35795,27.0943958 136.663256,25.6677352 C138.047105,23.2326106 139.430955,20.6210592 140.755213,18.3035525 L140.574231,18.2447435 C137.74694,21.9257458 134.014739,25.4303214 131.606797,25.4303214 C130.944668,25.4303214 130.704094,25.0752898 130.704094,24.4806664 C130.704094,23.1149927 132.931055,19.4318123 133.533592,18.2447435 C133.774166,17.8875339 133.833758,17.4715153 133.833758,17.2950885 L132.571298,18.6607621 L132.571298,18.0661387 C133.474001,16.9966877 134.676869,15.689823 135.579571,14.3829583 L138.166289,14.0867356 C136.422682,17.1164837 133.533592,22.1631596 133.533592,23.3524065 C133.533592,23.6486292 133.593184,23.7684251 133.833758,23.7684251 C134.917442,23.7684251 140.033492,19.1943986 141.779306,15.0973777 L144.727987,14.8599639 C144.244633,16.1058416 143.463321,17.708929 142.7416,19.2532075 C141.779306,21.0958867 140.633823,23.1738017 139.430955,25.2517166 M73.480695,15.6310141 C73.480695,15.2149955 73.2997131,15.0363907 72.8803647,15.0363907 C72.5184008,15.0363907 72.1564369,15.1561866 71.7966801,15.2149955 C70.653404,16.7004651 68.967182,18.6607621 68.967182,18.6607621 L68.967182,18.0661387 C69.6293111,17.2950885 70.2914401,16.1646505 71.0131608,15.1561866 C70.5916053,14.9187728 70.4128304,14.3241494 70.4128304,13.9081308 C70.4128304,12.8996668 71.1941427,11.771407 72.2778272,11.771407 C72.637584,11.771407 73.1805298,11.9478337 73.1805298,12.3638523 C73.1805298,12.8996668 72.637584,13.6119081 72.637584,14.0279267 C72.637584,14.7989769 75.4074905,13.9081308 75.4074905,16.2844465 C75.4074905,18.2447435 72.3970105,22.0455418 71.9776621,24.7180801 C73.2997131,24.1234567 76.2506015,22.2241466 79.7400216,18.0661387 L79.7400216,18.6607621 C77.5130609,21.2723135 72.9995479,25.6677352 70.1104582,26.5585813 C70.1104582,26.5585813 69.5101278,26.0837538 69.5101278,24.7768891 C69.5101278,22.9363879 73.480695,17.6501201 73.480695,15.6310141 M60.5449005,17.1164837 L64.0939122,16.8790699 C64.3344858,16.4042424 64.9966148,15.0973777 64.9966148,14.4439453 C64.9966148,14.1455445 64.8774316,13.9081308 64.5154677,13.9081308 C63.2530083,13.9081308 61.8073599,15.2738044 60.5449005,17.1164837 M68.9693891,18.0661387 L68.9693891,18.6607621 C66.7424284,21.2723135 61.9883419,25.6089263 58.4989218,25.6089263 C55.9695888,25.6089263 55.4288501,23.94703 55.4288501,22.6989741 C55.4288501,19.4906212 60.304327,13.6119081 64.6964497,13.6119081 C66.2612813,13.6119081 66.7424284,14.3241494 66.7424284,15.1561866 C66.7424284,15.8096189 66.4422632,16.5806691 66.2612813,17.1164837 L60.304327,17.5325023 C58.9182702,19.7302131 57.8963844,22.4027515 57.8963844,24.1844437 C57.8963844,25.0143028 58.1369579,25.3127036 58.6776966,25.3127036 C61.7477683,25.3127036 66.6828368,20.797486 68.9693891,18.0661387 M42.1906834,20.3814674 C38.2201162,23.3524065 35.6907833,26.4997724 35.6907833,28.934897 C35.6907833,29.1723107 35.8121736,29.4097245 36.4743026,29.4097245 C39.6039659,29.4097245 41.5285544,24.3020615 42.1906834,20.3814674 M44.9605899,12.6012661 C44.7200164,13.2546984 44.8391996,15.8096189 44.7200164,17.8875339 C46.9447699,16.3432554 49.4741029,14.9775817 52.2418023,13.670717 C54.0472075,10.6431471 55.8526127,7.79200387 56.8767056,6.12792946 L59.4038315,6.12792946 L55.5524475,12.2462345 C59.7635883,10.6431471 64.3984916,9.39509126 69.2121698,8.97907266 L68.7310226,10.2271285 C64.0983264,10.5233511 59.2824412,11.7104199 54.7689282,13.4921122 C52.7229494,16.8790699 49.6550848,21.9867329 49.6550848,25.0752898 C49.6550848,25.6089263 49.8956584,26.0837538 49.8956584,26.0837538 C50.6173791,25.5501173 51.3986913,25.1929077 51.46049,25.2517166 C51.46049,25.3127036 49.8956584,26.4997724 48.2094364,28.3402735 C47.6686977,27.9852419 47.1257519,26.6783772 47.1257519,25.2517166 C47.1257519,23.1149927 49.1717306,18.8981759 51.5200817,14.8599639 C49.0525474,15.9882238 46.7659951,17.2950885 44.6582176,18.6607621 C44.6582176,19.2532075 44.598626,19.8478309 44.4794428,20.2050406 C42.8528124,26.4409635 38.4010982,29.945539 36.1123388,29.945539 C35.1500445,29.945539 34.8498794,29.5295204 34.8498794,29.2311196 C34.8498794,26.795995 37.6771704,23.1738017 42.3120737,19.6104172 C42.3716653,18.9569848 42.4312569,18.3035525 42.4312569,17.769916 C42.4312569,16.9378788 42.3716653,16.0470327 42.3120737,15.1561866 C41.4689627,16.1058416 39.3633924,18.6607621 39.3633924,18.6607621 L39.3633924,18.0661387 C41.1687976,15.9882238 41.9501098,14.2653405 44.9605899,12.6012661 M26.6659644,29.6471383 C21.7308959,33.922764 18.0604939,37.4273396 18.0604939,40.5747054 C18.0604939,40.8731062 18.1200855,41.5265386 18.4820494,41.5265386 C19.5657339,41.5265386 22.1524514,38.2005679 26.6659644,29.6471383 M31.0602941,25.5501173 C33.9471768,23.1738017 36.8362665,20.6798681 39.3038008,18.0661387 L39.3038008,18.6607621 C36.3551194,21.5119054 33.4064381,24.0646478 30.579147,26.3799764 C25.0415411,36.3578886 19.9254907,42.4173847 17.4579564,42.4173847 C17.036401,42.4173847 16.9768093,41.7029653 16.9768093,41.2891248 C16.9768093,37.6647533 21.6117127,33.4479365 27.1471115,28.815101 C28.6523515,25.9051489 30.4577567,22.4615604 32.4441438,18.3035525 L32.2631619,18.2447435 C29.4336638,21.9257458 25.7036702,25.4303214 23.2957275,25.4303214 C22.6335985,25.4303214 22.3930249,25.0752898 22.3930249,24.4806664 C22.3930249,23.1149927 24.6199856,19.4318123 25.2225231,18.2447435 C25.4630966,17.8875339 25.5226882,17.4715153 25.5226882,17.2950885 L24.2580217,18.6607621 L24.2580217,18.0661387 C25.1607243,16.9966877 26.3657992,15.689823 27.2685018,14.3829583 L29.8552193,14.0867356 C28.1116128,17.1164837 25.2225231,22.1631596 25.2225231,23.3524065 C25.2225231,23.6486292 25.2821147,23.7684251 25.5226882,23.7684251 C26.6063728,23.7684251 31.7224232,19.1943986 33.4660297,15.0973777 L36.2955278,14.8599639 C35.0308613,17.8287249 33.0444742,22.0455418 31.0602941,25.5501173 M24.2624359,18.0661387 L24.2624359,18.6607621 C22.0950669,21.2723135 17.7029442,26.0249449 14.5732809,26.3211675 C14.5732809,26.3211675 14.2731157,25.966136 14.2731157,25.1340987 C14.2731157,23.2935976 17.5219623,19.0767808 17.5219623,17.1752926 C17.5219623,16.8790699 17.4005719,16.759274 17.2217971,16.759274 C16.0785209,16.759274 11.3222273,21.808128 8.49493626,26.4997724 C8.49493626,26.4997724 7.35166011,26.0249449 7.35166011,24.896685 C7.35166011,23.2935976 11.0220621,17.708929 11.0220621,15.9272368 C11.0220621,15.6310141 10.9624705,15.5133963 10.721897,15.5133963 C9.5786208,15.5133963 3.43847745,22.2241466 1.3924987,25.7875311 C1.3924987,25.7875311 0.37061287,24.7768891 0.37061287,24.4806664 C0.37061287,23.1149927 2.59757356,19.4318123 3.19790389,18.2447435 C3.43847745,17.8875339 3.50027616,17.4715153 3.50027616,17.2950885 L2.23560968,18.6607621 L2.23560968,18.0661387 C3.13831228,16.9966877 4.34118005,15.689823 5.24388265,14.3829583 L7.65182528,14.3829583 C6.20838396,16.8790699 4.70314393,19.5516083 3.74084971,21.7493191 C6.56814074,17.9463428 10.9028789,13.8493219 12.8870589,13.8493219 C13.6109867,13.8493219 13.7897615,14.2065316 13.7897615,14.7989769 C13.7897615,16.5806691 12.046155,19.7302131 10.9624705,21.9867329 C13.8515602,18.6607621 17.2813887,15.0973777 19.3869591,15.0973777 C20.0490881,15.0973777 20.2896617,15.5133963 20.2896617,16.1058416 C20.2896617,18.3035525 17.1004068,23.3524065 16.7384429,24.8378761 C18.2436829,24.4806664 20.8326075,22.2241466 24.2624359,18.0661387" id="Fill-3" fill="#FFFFFF" mask="url(#mask-2)"></path>
            </g>
        </g>
    </g>
</svg>