<svg width="25" height="25" stroke-width=".7" stroke="black" fill="none" fill-rule="evenodd" viewBox="0 0 25 25" xmlns="http://www.w3.org/2000/svg"><g><path d="M16.835 8.562c0 2.245-1.82 4.064-4.064 4.064-2.245 0-4.065-1.82-4.065-4.064 0-2.245 1.82-4.064 4.066-4.064 2.245 0 4.065 1.82 4.065 4.064zM4.79 21.24C5.11 17.19 8.56 14 12.77 14c4.204 0 7.65 3.178 7.978 7.22"/><path d="M24.407 12.77c0-6.426-5.21-11.637-11.637-11.637-6.427 0-11.637 5.21-11.637 11.637 0 6.427 5.21 11.638 11.637 11.638 6.427 0 11.637-5.21 11.637-11.638z"/></g></svg>