<svg width="51" height="52" viewBox="0 0 51 52" xmlns="http://www.w3.org/2000/svg"><title>noun_554880_cc copy</title><path d="M5 .6c-.3 0-.6.3-.5.7v29.2C2 30.8 0 33 0 35.5s2 4.7 4.5 5v10.2c0 .3 0 .5.3.6h.6c.2 0 .3-.3.3-.6V40.5c2.5-.3 4.5-2.4 4.5-5s-2-4.7-4.5-5V1.3c0-.2 0-.4-.2-.5L5 .6zm20.4 0c-.3 0-.6.3-.5.7v10.2c-2.6.3-4.6 2.4-4.6 5s2 4.7 4.5 5v29.2c0 .3 0 .5.2.6h.6c.2 0 .3-.3.3-.6V21.5c2.6-.3 4.6-2.4 4.6-5s-2-4.7-4.5-5V1.3.8l-.6-.2zm20.4 0c-.3 0-.6.3-.5.7v29.2c-2.5.3-4.5 2.4-4.5 5s2 4.7 4.5 5v10.2c0 .3 0 .5.3.6h.6c.2 0 .3-.3.3-.6V40.5c2.5-.3 4.5-2.4 4.5-5s-2-4.7-4.5-5V1.3c0-.2 0-.4-.2-.5l-.5-.2zm-20.3 12c2 0 3.8 1.8 3.8 4 0 2-1.7 3.7-3.8 3.7-2 0-3.8-1.7-3.8-3.8 0-2 1.7-3.8 3.8-3.8zM5 31.7c2.2 0 4 1.8 4 4 0 2-1.8 3.7-4 3.7-2 0-3.7-1.7-3.7-3.8 0-2 1.7-3.8 3.8-3.8zm41 0c2 0 3.7 1.8 3.7 4 0 2-1.7 3.7-3.8 3.7-2.2 0-4-1.7-4-3.8 0-2 1.8-3.8 4-3.8z" fill-rule="nonzero" fill="#00223D"/></svg>