<?xml version="1.0" encoding="UTF-8" standalone="no"?>
<svg width="9px" height="15px" viewBox="0 0 9 15" version="1.1" xmlns="http://www.w3.org/2000/svg" xmlns:xlink="http://www.w3.org/1999/xlink">
    <!-- Generator: Sketch 47.1 (45422) - http://www.bohemiancoding.com/sketch -->
    <title>Fill 1</title>
    <desc>Created with Sketch.</desc>
    <defs></defs>
    <g id="Mobile" stroke="none" stroke-width="1" fill="none" fill-rule="evenodd">
        <g id="Mobile/CUSTOMER_CARE_POINTS_OF_SALE" transform="translate(-39.000000, -2564.000000)" fill="#656565">
            <g id="Group-4" transform="translate(21.000000, 1939.000000)">
                <g id="Group" transform="translate(18.000000, 623.000000)">
                    <g id="Group-13">
                        <g id="Group-4-Copy">
                            <path d="M4.58768923,9.31281851 C3.52797576,9.31281851 2.66197336,8.40167515 2.66197336,7.28672342 C2.66197336,6.17177168 3.51658099,5.26062833 4.58768923,5.26062833 C5.64740269,5.26062833 6.5134051,6.17177168 6.5134051,7.28672342 C6.5134051,8.40167515 5.64740269,9.31281851 4.58768923,9.31281851 M2.4682895,2.60796899 C0.244141722,3.79263599 -0.617715543,6.73236521 0.4665565,8.97006955 C1.55082854,11.2077739 3.90008463,16.0488205 3.90008463,16.0488205 C4.13640034,16.5607137 4.84534744,16.5607137 5.08166314,16.0488205 C5.08166314,16.0488205 7.87574879,10.3156172 8.51519128,8.97006955 C9.15463376,7.63914736 9.16853469,6.10346792 8.51519128,4.71404366 C7.38921646,2.3739607 4.69243728,1.43792751 2.4682895,2.60796899 Z" id="Fill-1"></path>
                        </g>
                    </g>
                </g>
            </g>
        </g>
    </g>
</svg>