<?xml version="1.0" encoding="UTF-8"?>
<svg width="51px" height="36px" viewBox="0 0 51 36" version="1.1" xmlns="http://www.w3.org/2000/svg" xmlns:xlink="http://www.w3.org/1999/xlink">
    <!-- Generator: Sketch 44.1 (41455) - http://www.bohemiancoding.com/sketch -->
    <title>Shape</title>
    <desc>Created with Sketch.</desc>
    <defs></defs>
    <g id="Page-1" stroke="none" stroke-width="1" fill="none" fill-rule="evenodd">
        <g id="check-light-gray" fill-rule="nonzero" fill="#000018">
            <path d="M49.1298449,0 C48.8686446,0.0103150427 48.6218646,0.122487763 48.4423449,0.3125 C28.8062449,19.68563 27.1085449,21.84903 15.1610449,33.65623 L1.78604491,21.53123 C1.539113,21.2174596 1.12920895,21.0806335 0.743314863,21.1831662 C0.357420773,21.285699 0.0694918886,21.6079407 0.0108700354,22.0028972 C-0.0477518178,22.3978538 0.134168033,22.7898333 0.47364491,23.00003 L14.5360449,35.75003 C14.9298772,36.1065015 15.5336783,36.0928885 15.9110449,35.71903 C28.5404449,23.25883 29.8072449,21.46113 49.8173449,1.719 C50.1091626,1.43664244 50.2012891,1.00586725 50.0504866,0.628850047 C49.8996841,0.251832839 49.5358905,0.00342036991 49.1298449,0.0002 L49.1298449,0 Z" id="Shape"></path>
        </g>
    </g>
</svg>