<?xml version="1.0" encoding="UTF-8"?>
<svg width="23px" height="20px" viewBox="0 0 23 20" version="1.1" xmlns="http://www.w3.org/2000/svg" xmlns:xlink="http://www.w3.org/1999/xlink">
  <g id="Symbols" stroke="none" stroke-width="1" fill="#bc0000" fill-rule="evenodd">
    <g id="Desktop-Header-Futura" transform="translate(-1245.000000, -47.000000)" stroke-width="2" stroke="#bc0000" fill-rule="nonzero">
      <g id="Desktop-Header">
        <g id="BB-Header" transform="translate(0.000000, 23.000000)">
          <g id="heart-shape-silhouette" transform="translate(1245.000000, 24.000000)">
            <path d="M11.644248,19.0602908 L11.6476369,19.0636078 C11.6465409,19.0624953 11.6454107,19.0613894 11.644248,19.0602908 Z M11.3676875,19.0486995 C11.3670562,19.0492894 11.366456,19.0498757 11.3658881,19.0504576 L11.3676875,19.0486995 Z M11.5001647,18.9192649 L19.3487186,11.2509661 C21.1384573,9.43549028 22,7.71792651 22,6.09368869 C22.000039,4.43645872 21.5503664,3.20089783 20.6662338,2.32510004 L20.6662173,2.32508373 C19.7797419,1.44692455 18.5327077,1 16.8648385,1 C16.4459869,1 16.012398,1.07473117 15.5615506,1.22714255 C15.0920763,1.38590257 14.6576252,1.59898751 14.2559534,1.867214 C13.8078853,2.16594075 13.423748,2.44551361 13.1057194,2.70336192 C12.7919872,2.95811161 12.4940596,3.22855705 12.2121481,3.51451362 L11.5001783,4.23669914 L10.7880506,3.51466947 C10.5055566,3.22824756 10.2076388,2.95781102 9.89465987,2.70370618 C9.57773468,2.44665095 9.19384056,2.16732095 8.74362485,1.86693265 C8.34225753,1.59904724 7.9078173,1.38602024 7.43841203,1.22720589 C6.98724233,1.07473527 6.55370968,1 6.13498168,1 C4.46734059,1 3.22017937,1.44700516 2.33375154,2.3251146 C1.44964095,3.20085435 1,4.43637926 1,6.09371223 C1,6.5666561 1.08311178,7.06151584 1.25241379,7.58047277 C1.43185029,8.13069823 1.63204463,8.58996353 1.84912338,8.95700634 C2.08284488,9.35221684 2.34857782,9.73877121 2.64638212,10.1164126 C2.95080142,10.5024851 3.17322972,10.7686619 3.29515471,10.8961481 C3.41899613,11.0252559 3.50999578,11.1125218 3.62589623,11.2120792 L11.5001647,18.9192649 Z M11.5001647,18.9192649 L11.644248,19.0602908 C11.6087476,19.0267473 11.5430023,19 11.4999775,19 C11.4569373,19 11.3910487,19.0268693 11.3676875,19.0486995 L11.5001647,18.9192649 Z" id="Shape"></path>
          </g>
        </g>
      </g>
    </g>
  </g>
</svg>