<svg xmlns="http://www.w3.org/2000/svg" viewBox="0 0 20.4 20.4"><path fill="#996017" d="M17 17h-3.4v-3.4H17V17zm-5.1-8.5H8.5v3.4h3.4V8.5zm5.1 0h-3.4v3.4H17V8.5zM6.8 13.6H3.4V17h3.4v-3.4zm5.1 0H8.5V17h3.4v-3.4zM6.8 8.5H3.4v3.4h3.4V8.5zm13.6-6.8v18.7H0V1.7h2.6v.9c0 .9.8 1.7 1.7 1.7S6 3.5 6 2.6v-.9h8.5v.9c0 .9.8 1.7 1.7 1.7.9 0 1.7-.8 1.7-1.7v-.9h2.5zm-1.7 5.1h-17v11.9h17V6.8zM17 .9c0-.5-.3-.9-.8-.9s-.9.3-.9.8v1.8c0 .5.3.9.8.9s.9-.3.9-.8V.9zM5.1 2.6c0 .5-.3.9-.8.9s-.9-.3-.9-.8V.9c0-.5.3-.9.8-.9s.9.3.9.8v1.8z"/></svg>