<?xml version="1.0" standalone="no"?>
<!DOCTYPE svg PUBLIC "-//W3C//DTD SVG 20010904//EN"
 "http://www.w3.org/TR/2001/REC-SVG-20010904/DTD/svg10.dtd">
<svg version="1.0" xmlns="http://www.w3.org/2000/svg"
 width="260.000000pt" height="260.000000pt" viewBox="0 0 260.000000 260.000000"
 preserveAspectRatio="xMidYMid meet">
<metadata>
Created by potrace 1.11, written by Peter Selinger 2001-2013
</metadata>
<g transform="translate(0.000000,260.000000) scale(0.100000,-0.100000)"
fill="#000000" stroke="none">
<path d="M1309 2530 c-1 -11 -2 -23 -3 -27 -1 -5 -6 -42 -10 -83 -4 -41 -10
-88 -12 -105 -1 -16 -6 -61 -9 -100 -4 -38 -8 -82 -10 -96 -2 -15 3 -39 10
-53 13 -25 13 -27 -9 -36 -18 -7 -26 -19 -31 -52 -9 -58 -15 -78 -24 -78 -4 0
-8 6 -9 13 0 6 -3 21 -6 32 -2 11 -5 23 -5 26 -1 3 -30 9 -66 13 -36 4 -72 9
-80 12 -23 9 -18 23 7 19 38 -8 128 -8 135 -2 3 4 1 26 -6 49 -9 30 -34 63
-83 113 -86 85 -114 128 -133 200 -7 30 -20 64 -28 76 -15 20 -15 20 -36 -9
-22 -31 -22 -52 -1 -167 5 -27 12 -66 15 -85 4 -19 14 -48 24 -65 17 -30 30
-36 105 -52 50 -10 59 -30 14 -31 -79 0 -73 5 -73 -77 0 -41 5 -79 11 -85 15
-15 -8 -83 -30 -86 -8 -1 -53 25 -98 58 -46 33 -107 71 -135 84 -29 13 -53 30
-53 39 0 18 -29 34 -72 39 -28 3 -30 2 -15 -9 9 -7 22 -28 29 -46 6 -19 43
-80 82 -136 75 -108 111 -172 102 -180 -6 -7 -45 17 -80 50 -16 15 -48 28 -87
35 -34 6 -65 15 -68 19 -3 4 -31 9 -61 10 -119 6 -191 27 -277 86 l-43 28 0
-30 c0 -53 28 -94 92 -136 84 -54 117 -71 169 -86 46 -13 99 -43 135 -75 23
-21 124 -141 124 -147 0 -3 -35 -7 -78 -11 -43 -4 -94 -9 -113 -11 -19 -2 -79
-7 -134 -10 -55 -4 -111 -8 -125 -10 -27 -3 -217 -18 -237 -18 -7 0 -13 -8
-13 -18 0 -18 22 -26 93 -35 23 -3 72 -14 109 -24 46 -12 89 -17 135 -14 168
10 310 12 322 5 11 -7 8 -12 -9 -21 l-24 -13 35 -18 c26 -14 30 -18 14 -19
-117 -7 -257 -75 -322 -158 -34 -42 -99 -74 -177 -86 -64 -10 -72 -20 -40 -45
27 -21 36 -23 124 -18 52 3 106 9 120 13 55 15 169 76 183 97 8 12 26 23 41
25 15 1 36 7 47 12 26 15 26 -11 -1 -35 -11 -10 -20 -21 -20 -25 0 -7 75 -3
115 5 21 5 130 -44 120 -53 -3 -3 -23 -5 -43 -4 -27 2 -43 -3 -56 -17 -35 -39
-206 -286 -206 -298 0 -32 72 -1 193 84 76 53 177 106 185 98 2 -2 -16 -32
-40 -67 -60 -85 -78 -136 -79 -220 -1 -38 1 -72 4 -75 12 -11 -23 -94 -62
-149 -22 -31 -41 -61 -41 -66 0 -4 14 -8 31 -8 80 0 165 81 194 182 9 35 28
83 40 108 30 58 174 200 203 200 14 0 20 -22 27 -105 3 -38 8 -83 10 -100 2
-16 7 -66 10 -110 3 -44 8 -91 10 -105 2 -14 7 -59 10 -100 9 -98 8 -93 25
-107 21 -17 28 -16 40 7 8 16 8 28 -3 49 -14 27 -13 30 8 41 24 13 23 40 -1
40 -18 0 -18 9 -1 29 13 16 38 121 42 171 0 14 -2 34 -6 45 -4 11 -1 31 6 45
12 24 19 55 31 145 11 79 34 62 48 -35 17 -120 42 -150 128 -150 61 0 71 -13
18 -25 -38 -8 -37 -15 1 -56 41 -44 66 -95 83 -170 8 -34 19 -66 24 -71 15
-15 52 28 53 62 1 17 2 45 3 63 3 55 -23 146 -67 236 -39 80 -42 91 -40 161 2
41 5 84 7 95 2 11 5 26 5 33 1 18 49 -11 171 -103 130 -98 187 -130 204 -116
11 9 -7 42 -90 168 -57 86 -104 159 -104 161 0 3 -7 14 -17 24 -32 36 -2 30
56 -10 134 -95 243 -111 374 -57 13 5 17 2 17 -14 l0 -20 35 20 c19 12 38 25
41 30 10 17 -40 48 -151 91 -102 40 -116 49 -192 122 -46 44 -83 85 -83 92 0
18 33 26 150 39 102 11 145 16 175 20 17 2 57 7 90 10 100 10 215 26 231 32
40 15 -11 38 -111 49 -33 3 -67 8 -75 9 -8 2 -46 6 -85 10 -38 4 -77 9 -85 10
-8 2 -44 6 -80 10 -36 4 -74 9 -85 11 -10 2 -37 6 -60 10 -84 12 -58 43 37 43
71 0 134 31 219 106 72 65 156 115 218 131 25 6 47 16 48 21 2 6 -16 19 -41
28 -78 30 -163 17 -287 -41 l-104 -49 -95 3 c-52 1 -104 4 -115 6 -11 3 -24 5
-28 5 -16 2 6 46 59 124 56 82 61 93 43 99 -6 2 6 15 27 28 40 27 68 62 79 98
5 19 3 22 -19 22 -28 0 -41 -15 -41 -45 0 -16 -6 -20 -32 -17 -30 2 -32 0 -23
-22 8 -23 7 -24 -44 -28 -38 -3 -66 -13 -100 -36 -58 -40 -106 -65 -112 -59
-11 11 39 99 77 135 l43 40 2 115 c2 127 12 167 60 244 19 29 30 55 24 58 -18
11 -85 -14 -124 -47 -35 -29 -90 -126 -101 -177 -7 -35 -48 -114 -75 -144 -15
-18 -55 -54 -88 -80 l-60 -47 -11 47 c-7 25 -19 62 -28 82 -14 32 -16 75 -8
151 1 14 -4 37 -11 51 -11 23 -11 29 1 39 20 17 2 48 -38 65 l-32 13 35 9 c31
8 34 12 35 47 1 22 -6 47 -16 59 -15 19 -15 24 -2 43 13 20 12 24 -16 43 -36
26 -41 26 -42 1z m324 -617 l32 -18 -74 -3 c-40 -2 -76 0 -79 3 -9 9 6 18 45
25 21 4 39 8 41 9 2 0 17 -7 35 -16z m150 -608 c4 -30 4 -30 83 -35 68 -5 76
-7 54 -17 -14 -6 -43 -10 -65 -10 -64 1 -82 -9 -88 -49 -16 -95 -113 -227
-204 -276 -65 -35 -156 -65 -223 -73 -48 -5 -62 -3 -98 18 l-43 24 38 7 c81
13 100 17 148 33 122 38 230 118 290 212 31 50 69 154 81 221 l7 45 8 -35 c4
-19 9 -48 12 -65z m-1293 -296 c0 -13 -22 -22 -52 -21 -15 0 -26 -3 -23 -8 2
-4 -1 -13 -9 -19 -24 -20 -61 31 -39 53 10 9 123 5 123 -5z"/>
</g>
</svg>
