<svg viewBox="0 0 19 10" xmlns="http://www.w3.org/2000/svg"><path d="m5.26.1a2.09 2.09 0 0 1 -.32 2.9l-.3.3a9.45 9.45 0 0 0 -.9 1 1.33 1.33 0 0 0 .11 2c.17.09.35.16.53.24a5.37 5.37 0 0 1 1.09.59 3.71 3.71 0 0 1 1.27 1.4 1 1 0 0 1 -.11 1 .88.88 0 0 1 -.74.39 1.13 1.13 0 0 1 -.44-.1 41.32 41.32 0 0 1 -4.53-2.53 1.08 1.08 0 0 1 -.34-1.43l.07-.19a4.45 4.45 0 0 1 .35-.82 23.76 23.76 0 0 1 4.26-4.75"/><path d="m17.76 4.22h.54.24a2.13 2.13 0 0 1 -1.54 1.35l-.67.19a13.88 13.88 0 0 1 -3.71.7c-2.09 0-4.16-.2-6.16-.39l-2.17-.19c.23-1 1-1.27 2.25-1.32h1.46a18 18 0 0 1 2.32.13 16.18 16.18 0 0 0 2.12.14 27.46 27.46 0 0 0 5-.56 1.32 1.32 0 0 1 .28 0"/></svg>