<svg id="Layer_1" data-name="Layer 1" xmlns="http://www.w3.org/2000/svg" viewBox="0 0 75 65"><defs><style>.cls-1{fill:#666463;}.cls-2{fill:#702052;}</style></defs><title>bhutan-footer</title><path class="cls-1" d="M25.34,61.68c0-.47,0-.62-.43-.64,0,0,0-.07,0-.07l.56,0c.23,0,.45,0,.7,0,.69,0,1,.38,1,.8a.9.9,0,0,1-.62.86c.66.11,1,.48,1,1,0,.68-.53,1-1.2,1-.27,0-.62,0-.79,0H25c-.05,0,0-.06,0-.06.34,0,.36-.14.38-.63,0-.29,0-.82,0-1C25.35,62.49,25.35,62.11,25.34,61.68Zm.66-.57c-.24,0-.24,0-.24.09s0,1.1,0,1.43h.28a.92.92,0,0,0,.33,0,.66.66,0,0,0,.36-.61C26.75,61.47,26.52,61.14,26,61.11Zm0,1.67h-.26c0,.27,0,.68,0,1s0,.37,0,.47,0,.14.1.19a1,1,0,0,0,.45.08.72.72,0,0,0,.75-.75A.93.93,0,0,0,26,62.78Z"/><path class="cls-1" d="M32.3,64.55a0,0,0,0,1,0,.06H31.14a0,0,0,0,1,0-.06c.3,0,.34-.13.35-.65,0-.19,0-.85,0-1.08h-1l-1.06,0c0,.24,0,.88,0,1.07,0,.52.07.63.36.65,0,0,.05.06,0,.06H28.64c-.05,0,0-.06,0-.06.34,0,.34-.15.36-.65,0-.2,0-.8,0-1,0-.45,0-1,0-1.23,0-.5,0-.58-.38-.63,0,0,0-.07,0-.07l.6,0,.56,0s0,.06,0,.07c-.29,0-.34.12-.35.63,0,.15,0,.55,0,.95H31.5c0-.42,0-.76,0-.94,0-.5-.07-.62-.36-.64a0,0,0,0,1,0-.07l.59,0,.57,0s0,.06,0,.07c-.35.05-.35.15-.37.64,0,.14,0,.81,0,1s0,.92,0,1.17C31.94,64.4,32,64.5,32.3,64.55Z"/><path class="cls-1" d="M35.35,64.7c-1.14,0-1.55-.52-1.55-1.71V61.68c0-.58-.11-.61-.44-.64,0,0,0-.07,0-.07L34,61l.58,0s0,.06,0,.07c-.26,0-.33.07-.34.64,0,.17,0,.78,0,1.28,0,.94.17,1.58,1.14,1.58s1.15-.79,1.15-1.64c0-.26,0-.85,0-1.4,0-.39-.1-.44-.35-.46,0,0,0-.07,0-.07l.5,0,.47,0a0,0,0,1,1,0,.07c-.21,0-.29.13-.3.46s0,1,0,1.36C36.81,64,36.4,64.7,35.35,64.7Z"/><path class="cls-1" d="M41.17,61.76a0,0,0,0,1-.06,0c0-.45-.18-.55-.46-.57s-.54,0-.88,0c0,.07,0,.33,0,.47V64c0,.53.11.56.45.6,0,0,.06.06,0,.06H38.91a0,0,0,0,1,0-.06c.23,0,.41,0,.41-.56s0-1.75,0-2.37c0-.12,0-.38,0-.45l-.78,0c-.47,0-.54.14-.58.56,0,0-.07,0-.07,0s0-.48,0-.56,0-.26.06-.26a.58.58,0,0,0,.17,0c.21,0,.64.05,1.47.05.68,0,1.22,0,1.45-.05s.12,0,.15,0,0,0,0,.18S41.18,61.62,41.17,61.76Z"/><path class="cls-1" d="M43.27,61c0-.09,0-.1.07-.1s0,0,.06.1c.17.49.72,2,1.17,3.11.13.34.23.39.5.43,0,0,0,.06,0,.06H43.92a0,0,0,0,1,0-.06c.23,0,.27-.09.19-.35s-.22-.66-.35-1H42.61a10,10,0,0,0-.34,1c-.1.32,0,.35.25.37a0,0,0,1,1,0,.06H41.45c-.05,0,0-.06,0-.06a.53.53,0,0,0,.47-.33,13.27,13.27,0,0,0,.56-1.29Zm-.07.67-.27.65-.26.69h1C43.55,62.57,43.39,62.15,43.2,61.68Z"/><path class="cls-1" d="M49.29,64.55c0,.1,0,.12,0,.13s-.05,0-.13-.1c-.38-.43-.77-.86-1.48-1.58s-1-1-1.26-1.26c0,.45,0,1.57.05,2.39,0,.23.11.38.47.42,0,0,0,.06,0,.06H45.83a0,0,0,0,1,0-.06c.22,0,.29-.09.32-.39,0-.65.05-1.59.05-2.07v-1c0-.09,0-.11,0-.12s0,0,.12.1c.44.48.91,1,1.5,1.57s.94.95,1.25,1.24c0-.69,0-1.45,0-2.26,0-.43-.07-.49-.4-.54,0,0,0-.07,0-.07l.54,0,.44,0s0,.07,0,.07c-.23,0-.28.19-.3.46C49.31,62.4,49.29,63.27,49.29,64.55Z"/><path class="cls-1" d="M.12,50c0-.09.13-.08.13,0C.31,51.15.9,51.89,2,51.89a1.45,1.45,0,0,0,1.64-1.42c0-1-.65-1.44-1.75-2A2.49,2.49,0,0,1,.21,46.14a1.93,1.93,0,0,1,2.17-1.87,3.45,3.45,0,0,1,1.12.16.56.56,0,0,1,.43.69c0,.17-.08.65-.11.9,0,.1-.13.06-.13,0a1.45,1.45,0,0,0-1.45-1.46A1.25,1.25,0,0,0,.86,45.88,2,2,0,0,0,2.2,47.62c1.51.76,2.13,1.41,2.1,2.57a2.16,2.16,0,0,1-2.41,2,3.42,3.42,0,0,1-1.38-.25.81.81,0,0,1-.5-.66A4.26,4.26,0,0,1,.12,50Z"/><path class="cls-1" d="M9.32,50.64c0,1,.14,1.17.86,1.23a.07.07,0,1,1,0,.13c-.44,0-.94,0-1.29,0S8,52,7.63,52c-.1,0-.08-.13,0-.13.6-.09.76-.16.78-1.23,0-.42,0-1.78,0-2.19,0-1,0-2.12,0-2.54,0-1.26-.23-1.26-.78-1.34-.08,0-.11-.13,0-.13.33,0,.9,0,1.26,0l1.1,0c.1,0,.09.12,0,.13-.52.1-.67.11-.69,1.34,0,.37,0,1.68,0,2.52C9.29,48.86,9.31,50.22,9.32,50.64Z"/><path class="cls-1" d="M16.15,48.6c-.48.76-1.13,1.88-1.47,2.51s-.28.68.37.76c.08,0,.11.13,0,.13L14,52l-1.14,0a.07.07,0,1,1,0-.13A1.34,1.34,0,0,0,14,51.16c.62-.86,1.36-2,2-2.93-.63-1-1.35-2.17-1.88-3-.34-.52-.5-.64-1-.69-.08,0-.11-.13,0-.13.38,0,.84,0,1.15,0s.8,0,1.24,0c.11,0,.08.13,0,.13-.55.06-.55.25-.34.64.38.69.83,1.49,1.33,2.33.45-.73.87-1.47,1.21-2.15s.27-.74-.17-.82c-.08,0-.11-.13,0-.13l1.05,0,.91,0a.07.07,0,1,1,0,.13c-.35,0-.58.08-1,.71-.65.92-1.28,1.85-1.74,2.6.61,1,1.56,2.5,2.13,3.3.35.5.58.65,1,.69a.07.07,0,0,1,0,.13c-.39,0-.84,0-1.15,0s-.72,0-1.16,0a.07.07,0,0,1,0-.13c.48,0,.47-.25.25-.64C17.42,50.66,16.72,49.55,16.15,48.6Z"/><path class="cls-1" d="M27.5,50c0-.09.14-.08.14,0,.06,1.18.64,1.92,1.69,1.92A1.45,1.45,0,0,0,31,50.47c0-1-.64-1.44-1.75-2a2.49,2.49,0,0,1-1.63-2.32,1.93,1.93,0,0,1,2.18-1.87,3.5,3.5,0,0,1,1.12.16.56.56,0,0,1,.42.69c0,.17-.08.65-.11.9,0,.1-.13.06-.13,0a1.45,1.45,0,0,0-1.45-1.46,1.24,1.24,0,0,0-1.37,1.32,2,2,0,0,0,1.33,1.74c1.51.76,2.14,1.41,2.1,2.57a2.16,2.16,0,0,1-2.41,2,3.46,3.46,0,0,1-1.38-.25.83.83,0,0,1-.5-.66A5,5,0,0,1,27.5,50Z"/><path class="cls-1" d="M36.68,50.82c0,.73.17.77.81.78h1c1,0,1.22-.67,1.36-1.44,0-.08.15-.1.15,0A11.18,11.18,0,0,1,40,51.65c-.05.26-.26.36-.72.36s-1.72,0-2.87,0L35,52c-.1,0-.08-.13,0-.13.65-.08.78-.19.8-1.23,0-.86,0-1.71,0-2.57s0-1.4,0-2.17c0-1,0-1.23-.84-1.33-.08,0-.11-.13,0-.13.41,0,1,0,1.43,0,.77,0,1.91,0,2.56,0,.35,0,.54,0,.52.3s-.07.76-.14,1.17c0,.09-.15.09-.14,0,0-.61-.21-1-.83-1.06a13.17,13.17,0,0,0-1.68,0c0,1,0,1.93,0,3a19.82,19.82,0,0,0,2,0c.35,0,.34-.14.43-.12s0,.06,0,.3a4.67,4.67,0,0,1-.13.74c0,.09-.14.09-.14,0,0-.48-.31-.48-.81-.51H36.66C36.65,48.86,36.66,50.05,36.68,50.82Z"/><path class="cls-1" d="M50.44,51.87c0,.22,0,.25,0,.26s-.09,0-.26-.2c-.78-.89-1.6-1.78-3.08-3.28C45.89,47.47,45,46.5,44.44,46c0,.94,0,3.27.11,5,0,.49.23.8,1,.88.09,0,.11.13,0,.13l-1.29,0-1,0a.07.07,0,1,1,0-.13c.44-.09.6-.2.64-.82.1-1.35.13-3.29.13-4.29,0-.65,0-1.46,0-2.16,0-.19,0-.23,0-.25s.09,0,.26.2c.9,1,1.89,2,3.1,3.26,1.06,1.06,2,2,2.61,2.58,0-1.43,0-3-.06-4.7,0-.89-.15-1-.83-1.12a.07.07,0,1,1,0-.13l1.11,0,.91,0c.1,0,.07.13,0,.13-.46.08-.58.41-.61,1C50.49,47.41,50.44,49.2,50.44,51.87Z"/><path class="cls-1" d="M54.86,50c0-.09.13-.08.13,0,.07,1.18.65,1.92,1.7,1.92a1.45,1.45,0,0,0,1.64-1.42c0-1-.64-1.44-1.75-2A2.49,2.49,0,0,1,55,46.14a1.93,1.93,0,0,1,2.17-1.87,3.58,3.58,0,0,1,1.13.16.56.56,0,0,1,.42.69c0,.17-.08.65-.11.9,0,.1-.13.06-.13,0A1.45,1.45,0,0,0,57,44.56a1.25,1.25,0,0,0-1.38,1.32,2,2,0,0,0,1.34,1.74c1.51.76,2.13,1.41,2.1,2.57a2.16,2.16,0,0,1-2.41,2,3.42,3.42,0,0,1-1.38-.25.83.83,0,0,1-.5-.66A4.6,4.6,0,0,1,54.86,50Z"/><path class="cls-1" d="M64,50.82c0,.73.17.77.8.78h1c1,0,1.21-.67,1.36-1.44,0-.08.15-.1.15,0a11.18,11.18,0,0,1-.06,1.49c0,.26-.26.36-.72.36s-1.72,0-2.88,0l-1.37,0a.07.07,0,1,1,0-.13c.64-.08.78-.19.8-1.23,0-.86,0-1.71,0-2.57s0-1.4,0-2.17c0-1,0-1.23-.84-1.33-.08,0-.11-.13,0-.13.4,0,1,0,1.43,0,.76,0,1.91,0,2.55,0,.36,0,.55,0,.53.3s-.08.76-.14,1.17c0,.09-.16.09-.14,0,0-.61-.21-1-.83-1.06a13.17,13.17,0,0,0-1.68,0c0,1,0,1.93,0,3a19.82,19.82,0,0,0,2,0c.35,0,.34-.14.43-.12s0,.06,0,.3a3.89,3.89,0,0,1-.12.74c0,.09-.14.09-.14,0,0-.48-.31-.48-.81-.51H64C64,48.86,64,50.05,64,50.82Z"/><path class="cls-1" d="M70.82,50c0-.09.14-.08.14,0,.06,1.18.64,1.92,1.69,1.92a1.45,1.45,0,0,0,1.64-1.42c0-1-.64-1.44-1.75-2a2.49,2.49,0,0,1-1.63-2.32,1.93,1.93,0,0,1,2.18-1.87,3.5,3.5,0,0,1,1.12.16.56.56,0,0,1,.42.69c0,.17-.08.65-.11.9,0,.1-.13.06-.13,0a1.45,1.45,0,0,0-1.45-1.46,1.25,1.25,0,0,0-1.38,1.32,2,2,0,0,0,1.34,1.74C74.41,48.38,75,49,75,50.19a2.16,2.16,0,0,1-2.41,2,3.46,3.46,0,0,1-1.38-.25.83.83,0,0,1-.5-.66A5,5,0,0,1,70.82,50Z"/><path class="cls-2" d="M59.55,34.31s0,0,.05,0S59.57,34.27,59.55,34.31Z"/><polygon class="cls-2" points="58.89 34.69 59 34.67 58.98 34.66 58.89 34.69"/><path class="cls-2" d="M58.73,34.81c-.08.08-.26.09-.28.18a4,4,0,0,1,.36-.18l-.07,0Z"/><path class="cls-2" d="M58.22,35.27l.06,0h0C58.14,35.28,58.23,35.24,58.22,35.27Z"/><path class="cls-2" d="M58.28,35.24s.06,0,0,0Z"/><path class="cls-2" d="M58,35.4s0,0,.06-.06H58S57.93,35.41,58,35.4Z"/><path class="cls-2" d="M57.93,35.32h0Z"/><path class="cls-2" d="M58,35.31s0,0,0,0H58S58,35.29,58,35.31Z"/><path class="cls-2" d="M58.08,35.22c.09,0,0,0,0,.06C58.24,35.22,58.24,35.17,58.08,35.22Z"/><path class="cls-2" d="M58.44,34.89l0,0s.08,0,.11,0Z"/><path class="cls-2" d="M57.47,35.54s.06,0,.09-.07h-.07S57.46,35.53,57.47,35.54Z"/><path class="cls-2" d="M57.39,35.46h.1S57.47,35.44,57.39,35.46Z"/><path class="cls-2" d="M57.85,35.25h0Z"/><path class="cls-2" d="M57.05,35.6l.11,0-.06,0Z"/><path class="cls-2" d="M56.85,35.63a.33.33,0,0,1-.19,0,.53.53,0,0,0,.18,0S56.89,35.66,56.85,35.63Z"/><path class="cls-2" d="M57.16,35.56a.11.11,0,0,0,.07-.06h0Z"/><polygon class="cls-2" points="57.11 35.53 57.19 35.51 57.19 35.51 57.11 35.53"/><path class="cls-2" d="M57.54,35.29c-.1.07,0,.06.08.07S57.59,35.31,57.54,35.29Z"/><path class="cls-2" d="M57.37,35.41l-.09,0h.11S57.37,35.42,57.37,35.41Z"/><polygon class="cls-2" points="57.24 35.45 57.27 35.44 57.23 35.44 57.24 35.45"/><path class="cls-2" d="M56.78,35.54l-.18,0a.68.68,0,0,1,.15,0C56.81,35.58,56.78,35.55,56.78,35.54Z"/><polygon class="cls-2" points="56.07 35.55 56.07 35.54 56.06 35.55 56.07 35.55"/><path class="cls-2" d="M56.78,35.53s0,0,0,0h.1A.16.16,0,0,0,56.78,35.53Z"/><path class="cls-2" d="M56.5,35.58l-.08,0S56.48,35.6,56.5,35.58Z"/><path class="cls-2" d="M57,35.55h-.07l.06,0Z"/><path class="cls-2" d="M56.16,35.6a.31.31,0,0,1,.15,0h-.24A.15.15,0,0,0,56.16,35.6Z"/><path class="cls-2" d="M56.5,35.58h0s-.06,0,0,0a.52.52,0,0,0-.18,0l.19,0Z"/><path class="cls-2" d="M56.5,35.57s0,0,0,0h0l.1,0h-.11c.14,0-.11-.06.09,0-.08,0,0,0-.16,0s0,.07.07.11Z"/><path class="cls-2" d="M57.42,35.24v0S57.4,35.23,57.42,35.24Z"/><path class="cls-2" d="M57.35,35.27a.52.52,0,0,0-.07.12.51.51,0,0,1,.14-.11h0c.08,0,0,0,0,0s0,0,0,0S57.37,35.27,57.35,35.27Z"/><path class="cls-2" d="M56.77,35.42h.16s0,0-.09,0v0Z"/><path class="cls-2" d="M56,35.54l.09.08,0,0Z"/><polygon class="cls-2" points="55.78 35.54 55.83 35.58 55.83 35.54 55.78 35.54"/><path class="cls-2" d="M52.1,32.06c-.05,0,0,.07.08.13a.21.21,0,0,1,0-.12Z"/><path class="cls-2" d="M53.7,34.62a.5.5,0,0,0,.13.07S53.77,34.64,53.7,34.62Z"/><path class="cls-2" d="M55.29,27h0S55.26,27,55.29,27Z"/><path class="cls-2" d="M53.7,34.62a.55.55,0,0,1-.11-.1h0A.22.22,0,0,0,53.7,34.62Z"/><path class="cls-2" d="M55,35.35Z"/><path class="cls-2" d="M55.08,35.38h0Z"/><path class="cls-2" d="M54.93,35.33l.06,0h0Z"/><path class="cls-2" d="M52.45,32.94l0,0Z"/><path class="cls-2" d="M55.43,35.47h-.09l.1,0S55.43,35.48,55.43,35.47Z"/><path class="cls-2" d="M56.34,35.35v0h0C56.24,35.32,56.28,35.34,56.34,35.35Z"/><path class="cls-2" d="M55.68,35.37h0c-.07,0-.12,0-.14,0S55.69,35.43,55.68,35.37Z"/><path class="cls-2" d="M55.77,35.39l-.06,0S55.77,35.41,55.77,35.39Z"/><path class="cls-2" d="M54.88,35.31s0,0,0-.05S54.9,35.38,54.88,35.31Z"/><polygon class="cls-2" points="55.58 35.24 55.61 35.29 55.64 35.24 55.58 35.24"/><path class="cls-2" d="M55.24,35.16l-.11,0s.07,0,.13,0S55.23,35.17,55.24,35.16Z"/><path class="cls-2" d="M55.26,35.19l.08,0Z"/><path class="cls-2" d="M54,34.58l.09.08s0,0,0-.06S54,34.56,54,34.58Z"/><polygon class="cls-2" points="59.7 34.18 59.74 34.1 59.71 34.12 59.7 34.18"/><path class="cls-2" d="M59.57,34.18s0,0,0,0h.08Z"/><path class="cls-2" d="M46.13,13.65s0,0,0-.05S46.09,13.65,46.13,13.65Z"/><polygon class="cls-2" points="46.86 13.85 46.77 13.79 46.78 13.81 46.86 13.85"/><path class="cls-2" d="M47.05,13.88c.12,0,.25.13.33.08-.1,0-.25-.1-.38-.13l0,.07Z"/><path class="cls-2" d="M47.75,13.93l-.06,0h0C47.81,14,47.72,14,47.75,13.93Z"/><path class="cls-2" d="M47.69,13.9c.05,0-.07,0,0,0Z"/><path class="cls-2" d="M48,14s0,0-.08,0L48,14C48,14,48,14,48,14Z"/><path class="cls-2" d="M48,14.13s0,0,0,0Z"/><path class="cls-2" d="M47.94,14.07c0,.06,0,0,0,0L47.9,14S47.94,14.1,47.94,14.07Z"/><path class="cls-2" d="M47.85,14c-.15-.08-.19,0-.05,0C47.73,14,47.8,14,47.85,14Z"/><path class="cls-2" d="M47.27,14l0,0h.06S47.29,14,47.27,14Z"/><path class="cls-2" d="M48.46,14.28s-.07,0-.11,0l0,.06S48.46,14.3,48.46,14.28Z"/><path class="cls-2" d="M48.46,14.39l-.06-.07S48.39,14.34,48.46,14.39Z"/><path class="cls-2" d="M48,14.22l-.14-.13.11.12Z"/><path class="cls-2" d="M48.79,14.54a1,1,0,0,0,0-.1l0,.06Z"/><path class="cls-2" d="M49.11,14.78a.39.39,0,0,0-.1-.16s-.07,0,0,0A.31.31,0,0,1,49.11,14.78Z"/><path class="cls-2" d="M48.69,14.49s-.07,0-.09,0l0,0Z"/><polygon class="cls-2" points="48.7 14.54 48.63 14.5 48.63 14.5 48.7 14.54"/><path class="cls-2" d="M48.23,14.4c.12,0,0-.06,0-.11S48.21,14.36,48.23,14.4Z"/><path class="cls-2" d="M48.44,14.44l.09.05-.08-.09S48.45,14.43,48.44,14.44Z"/><polygon class="cls-2" points="48.56 14.51 48.53 14.49 48.56 14.53 48.56 14.51"/><path class="cls-2" d="M48.94,14.78l.14.11a.94.94,0,0,1-.09-.12C48.94,14.73,49,14.76,48.94,14.78Z"/><polygon class="cls-2" points="49.44 15.28 49.43 15.28 49.45 15.28 49.44 15.28"/><path class="cls-2" d="M48.93,14.78h0l-.07-.08A.14.14,0,0,0,48.93,14.78Z"/><path class="cls-2" d="M49.17,15l.07,0S49.2,15,49.17,15Z"/><path class="cls-2" d="M48.84,14.64Z"/><path class="cls-2" d="M48.82,14.64l0,.06s0,0,0-.06Z"/><path class="cls-2" d="M49.42,15.18a.37.37,0,0,1-.14-.08l0,0v0l.14.16S49.45,15.24,49.42,15.18Z"/><path class="cls-2" d="M49.17,15l-.09-.06a.27.27,0,0,1,.07.08c-.12-.08,0,.12-.09,0,0,.06,0,.06.06.14s0-.07,0-.12v0h0s0,0,0,0h0s0,.05,0,0a.83.83,0,0,0,.12.13l-.11-.16Z"/><path class="cls-2" d="M48.28,14.53h0Z"/><path class="cls-2" d="M48.28,14.53s0,0,0,0,0,0,.05.05a.29.29,0,0,0,.14,0,.37.37,0,0,1-.18,0h0C48.22,14.45,48.26,14.51,48.28,14.53Z"/><path class="cls-2" d="M48.8,14.83l0,0,.08,0-.1-.12S48.72,14.78,48.8,14.83Z"/><path class="cls-2" d="M49.5,15.24l0,0,0,.07Z"/><polygon class="cls-2" points="49.63 15.43 49.6 15.46 49.64 15.49 49.63 15.43"/><path class="cls-2" d="M49.71,20.56s0-.07,0-.15a.18.18,0,0,1-.06.1Z"/><path class="cls-2" d="M50.43,17.63s0-.09,0-.15S50.4,17.56,50.43,17.63Z"/><path class="cls-2" d="M43.85,21.8s0,0,0,0S43.87,21.82,43.85,21.8Z"/><path class="cls-2" d="M50.43,17.63a.65.65,0,0,1,0,.14.1.1,0,0,0,0,0A.2.2,0,0,0,50.43,17.63Z"/><path class="cls-2" d="M50.05,16.19Z"/><path class="cls-2" d="M50,16.1l0,0S50,16.1,50,16.1Z"/><path class="cls-2" d="M50.08,16.25l0-.06h0A.21.21,0,0,1,50.08,16.25Z"/><path class="cls-2" d="M49.89,15.86l0-.1s0,0,0,0A.11.11,0,0,1,49.89,15.86Z"/><path class="cls-2" d="M49.67,15.77c0-.07-.05-.14-.09-.09h0C49.61,15.73,49.62,15.79,49.67,15.77Z"/><path class="cls-2" d="M49.53,15.61a.1.1,0,0,1,0,.05S49.55,15.59,49.53,15.61Z"/><path class="cls-2" d="M50.1,16.29s0,0,0,.06S50.14,16.24,50.1,16.29Z"/><polygon class="cls-2" points="49.58 15.79 49.52 15.8 49.56 15.85 49.58 15.79"/><path class="cls-2" d="M49.74,16.14l.07.09s0-.06-.06-.12S49.75,16.14,49.74,16.14Z"/><path class="cls-2" d="M49.75,16.11a.41.41,0,0,1,0-.08A.16.16,0,0,0,49.75,16.11Z"/><path class="cls-2" d="M50.13,17.35s0,.08,0,.06V17.3S50.14,17.33,50.13,17.35Z"/><polygon class="cls-2" points="45.94 13.63 45.84 13.65 45.88 13.66 45.94 13.63"/><path class="cls-2" d="M46.1,13.72,46,13.66l0,.06Z"/><path class="cls-2" d="M26.44,14.77s0,0-.05,0S26.42,14.8,26.44,14.77Z"/><polygon class="cls-2" points="27.1 14.38 26.99 14.4 27.01 14.41 27.1 14.38"/><path class="cls-2" d="M27.25,14.27c.08-.09.27-.09.28-.18a4,4,0,0,1-.36.18l.08,0Z"/><path class="cls-2" d="M27.77,13.8l-.06,0h0C27.85,13.8,27.76,13.84,27.77,13.8Z"/><path class="cls-2" d="M27.71,13.83s-.06,0,0,0Z"/><path class="cls-2" d="M28,13.68s0,0-.05.06H28S28.05,13.66,28,13.68Z"/><path class="cls-2" d="M28.05,13.76h.05A0,0,0,0,0,28.05,13.76Z"/><path class="cls-2" d="M28,13.76s0,0,0,0H28C28,13.77,28,13.78,28,13.76Z"/><path class="cls-2" d="M27.9,13.86c-.09,0,0,0,0-.06C27.75,13.85,27.75,13.91,27.9,13.86Z"/><path class="cls-2" d="M27.55,14.19l.05,0s-.08,0-.11,0Z"/><path class="cls-2" d="M28.52,13.54s-.06,0-.09.06h.07S28.53,13.55,28.52,13.54Z"/><path class="cls-2" d="M28.6,13.61h-.1S28.52,13.63,28.6,13.61Z"/><path class="cls-2" d="M28.14,13.82h0Z"/><path class="cls-2" d="M28.93,13.48l-.1,0,.06,0Z"/><path class="cls-2" d="M29.14,13.44a.32.32,0,0,1,.19,0,.59.59,0,0,0-.19-.05C29.19,13.39,29.09,13.42,29.14,13.44Z"/><path class="cls-2" d="M28.83,13.51s-.07.05-.07.06h0Z"/><polygon class="cls-2" points="28.88 13.55 28.8 13.56 28.8 13.57 28.88 13.55"/><path class="cls-2" d="M28.45,13.78c.09-.06,0-.06-.08-.07S28.4,13.76,28.45,13.78Z"/><path class="cls-2" d="M28.62,13.66l.09,0H28.6S28.62,13.65,28.62,13.66Z"/><polygon class="cls-2" points="28.75 13.62 28.71 13.63 28.76 13.64 28.75 13.62"/><path class="cls-2" d="M29.21,13.53l.18,0h-.15C29.18,13.5,29.21,13.52,29.21,13.53Z"/><polygon class="cls-2" points="29.91 13.53 29.91 13.54 29.92 13.53 29.91 13.53"/><path class="cls-2" d="M29.2,13.54s0,0,0,0h-.1A.14.14,0,0,0,29.2,13.54Z"/><path class="cls-2" d="M29.49,13.49l.08,0S29.51,13.48,29.49,13.49Z"/><path class="cls-2" d="M29,13.53h.08l-.06,0Z"/><path class="cls-2" d="M29.83,13.47l-.15,0h.23S29.9,13.5,29.83,13.47Z"/><path class="cls-2" d="M29.48,13.49h0s.06,0,0,0v0h0s0,0,0,0h0l-.1,0h.1c-.14,0,.11.06-.08.05.07,0,0,.06.16.06s0-.07-.07-.11h.18l-.19,0Z"/><path class="cls-2" d="M28.57,13.84h0S28.59,13.84,28.57,13.84Z"/><path class="cls-2" d="M28.64,13.81a.42.42,0,0,0,.07-.13s-.08.08-.15.11h0c-.08,0,0,0,0,.05s0,0,0,0A.09.09,0,0,1,28.64,13.81Z"/><path class="cls-2" d="M29.22,13.66h-.16s0,0,.08,0v0Z"/><path class="cls-2" d="M30,13.53l-.09-.07,0,0Z"/><polygon class="cls-2" points="30.21 13.53 30.16 13.5 30.16 13.54 30.21 13.53"/><path class="cls-2" d="M33.81,16.89a.35.35,0,0,1,0,.11l0,0S33.86,17,33.81,16.89Z"/><path class="cls-2" d="M32.29,14.46a.32.32,0,0,0-.13-.07S32.22,14.43,32.29,14.46Z"/><path class="cls-2" d="M30.7,22.08s0,0,0,0S30.73,22.08,30.7,22.08Z"/><path class="cls-2" d="M32.29,14.46a.36.36,0,0,1,.11.1h0A.22.22,0,0,0,32.29,14.46Z"/><path class="cls-2" d="M31,13.73Z"/><path class="cls-2" d="M30.91,13.7h0Z"/><path class="cls-2" d="M31.06,13.75l-.06,0h0Z"/><path class="cls-2" d="M30.56,13.6a.12.12,0,0,1,.08,0l-.09,0S30.56,13.59,30.56,13.6Z"/><path class="cls-2" d="M29.65,13.73v0h0C29.75,13.75,29.71,13.73,29.65,13.73Z"/><path class="cls-2" d="M30.31,13.71h0c.07,0,.12,0,.14,0S30.29,13.65,30.31,13.71Z"/><path class="cls-2" d="M30.22,13.69h.06S30.21,13.66,30.22,13.69Z"/><path class="cls-2" d="M31.1,13.76s0,.05,0,.05S31.09,13.7,31.1,13.76Z"/><polygon class="cls-2" points="30.41 13.84 30.38 13.79 30.35 13.84 30.41 13.84"/><path class="cls-2" d="M30.75,13.91l.1,0s-.06,0-.12,0Z"/><path class="cls-2" d="M30.73,13.89a.13.13,0,0,0-.08,0Z"/><path class="cls-2" d="M32,14.5l-.08-.08s0,0,0,.06S32,14.52,32,14.5Z"/><polygon class="cls-2" points="26.29 14.89 26.24 14.97 26.28 14.96 26.29 14.89"/><path class="cls-2" d="M26.42,14.9s0-.05,0-.06h-.08Z"/><path class="cls-2" d="M34.66,7.82s0,0,0-.06S34.62,7.76,34.66,7.82Z"/><polygon class="cls-2" points="34.31 7.21 34.32 7.19 34.29 7.11 34.31 7.21"/><path class="cls-2" d="M34,6.67a2.4,2.4,0,0,1,.18.36l0-.07h0C34.09,6.87,34.08,6.69,34,6.67Z"/><path class="cls-2" d="M33.71,6.44l0,0h0C33.7,6.36,33.74,6.44,33.71,6.44Z"/><path class="cls-2" d="M33.73,6.49s0,.07,0,0Z"/><path class="cls-2" d="M33.58,6.24s0,0,.06,0V6.2S33.57,6.15,33.58,6.24Z"/><path class="cls-2" d="M33.66,6.15V6.1S33.65,6.14,33.66,6.15Z"/><path class="cls-2" d="M33.66,6.15v.1s0-.07,0-.06S33.67,6.16,33.66,6.15Z"/><path class="cls-2" d="M33.7,6.29c.06.16.11.17.06,0C33.77,6.39,33.73,6.33,33.7,6.29Z"/><path class="cls-2" d="M34.09,6.65l-.05,0s.06.07.06.1Z"/><path class="cls-2" d="M33.51,5.77V5.7s-.06,0-.07,0S33.49,5.74,33.51,5.77Z"/><path class="cls-2" d="M33.51,5.7s0,0,0-.1Z"/><path class="cls-2" d="M33.73,6.06V6a1.28,1.28,0,0,0,0,.19Z"/><path class="cls-2" d="M33.37,5.31v0a.42.42,0,0,1,0,.1Z"/><path class="cls-2" d="M33.32,4.88a.48.48,0,0,0,0,.18s0,.05.07,0A.35.35,0,0,1,33.32,4.88Z"/><path class="cls-2" d="M33.47,5.44v0l0,0S33.46,5.44,33.47,5.44Z"/><polygon class="cls-2" points="33.45 5.33 33.47 5.41 33.47 5.41 33.45 5.33"/><path class="cls-2" d="M33.62,5.84c0-.09.05,0,.07-.08S33.62,5.77,33.62,5.84Z"/><path class="cls-2" d="M33.53,5.6s0,0,0,0l0-.1Z"/><polygon class="cls-2" points="33.53 5.45 33.54 5.49 33.54 5.44 33.53 5.45"/><path class="cls-2" d="M33.44,5a1.1,1.1,0,0,0,0-.18.61.61,0,0,1,0,.15C33.4,5,33.43,5,33.44,5Z"/><polygon class="cls-2" points="33.43 4.29 33.44 4.29 33.43 4.28 33.43 4.29"/><path class="cls-2" d="M33.45,5h0v.1A.13.13,0,0,0,33.45,5Z"/><path class="cls-2" d="M33.4,4.71l0-.07S33.38,4.69,33.4,4.71Z"/><path class="cls-2" d="M33.43,5.17a.19.19,0,0,0,0-.08.19.19,0,0,0,0,.07Z"/><path class="cls-2" d="M33.38,4.37a.56.56,0,0,1,0,.15v0h0a1.34,1.34,0,0,0,0-.2S33.4,4.3,33.38,4.37Z"/><path class="cls-2" d="M33.4,4.71a.3.3,0,0,0,0,.1.38.38,0,0,1,0-.1c0,.14.06-.11,0,.08,0-.07.05,0,.05-.15s-.07,0-.11.07h0s0,0,0,0h0s0-.07,0,0a.58.58,0,0,0,0-.19,1.36,1.36,0,0,0,0,.2Z"/><path class="cls-2" d="M33.74,5.63h0S33.75,5.62,33.74,5.63Z"/><path class="cls-2" d="M33.74,5.63s0,0,0,0a.08.08,0,0,1,0-.07.31.31,0,0,0-.12-.07s.07.07.11.14h0C33.73,5.73,33.74,5.66,33.74,5.63Z"/><path class="cls-2" d="M33.56,5v.16s0,0,0-.08h0Z"/><path class="cls-2" d="M33.44,4.19l-.08.08h0Z"/><polygon class="cls-2" points="33.43 3.99 33.4 4.05 33.44 4.05 33.43 3.99"/><path class="cls-2" d="M36.92.31s-.07,0-.13.08a.35.35,0,0,1,.12,0Z"/><path class="cls-2" d="M34.36,1.91a.91.91,0,0,0-.07.14S34.33,2,34.36,1.91Z"/><path class="cls-2" d="M42,3.51s0,0,0,0S42,3.47,42,3.51Z"/><path class="cls-2" d="M34.36,1.91l.1-.1,0,0A.19.19,0,0,0,34.36,1.91Z"/><path class="cls-2" d="M33.63,3.2s0,0,0,0Z"/><path class="cls-2" d="M33.6,3.3v0S33.59,3.3,33.6,3.3Z"/><path class="cls-2" d="M33.65,3.14l0,.06h0A.64.64,0,0,0,33.65,3.14Z"/><path class="cls-2" d="M33.51,3.65a.14.14,0,0,1,0-.09l0,.09S33.5,3.64,33.51,3.65Z"/><path class="cls-2" d="M33.63,4.55h0a.06.06,0,0,1,0,0C33.66,4.46,33.64,4.5,33.63,4.55Z"/><path class="cls-2" d="M33.62,3.78c0,.06-.07.13,0,.12h0C33.63,3.85,33.66,3.79,33.62,3.78Z"/><path class="cls-2" d="M33.61,3.93s0,.06,0,.06A.14.14,0,0,1,33.61,3.93Z"/><path class="cls-2" d="M33.71,3.07c.1-.15-.11,0,0,0S33.71,3.11,33.71,3.07Z"/><polygon class="cls-2" points="33.74 3.86 33.74 3.79 33.7 3.82 33.74 3.86"/><path class="cls-2" d="M33.84,3.35s0,.06-.05.12l0,0A.36.36,0,0,1,33.84,3.35Z"/><path class="cls-2" d="M33.76,3.55s0,0,0-.08A.34.34,0,0,1,33.76,3.55Z"/><path class="cls-2" d="M34.38,2.31s0-.06,0-.06l-.08.09S34.36,2.33,34.38,2.31Z"/><polygon class="cls-2" points="34.8 7.91 34.88 7.96 34.86 7.93 34.8 7.91"/><path class="cls-2" d="M34.74,7.73v.09l.06,0S34.76,7.75,34.74,7.73Z"/><path class="cls-2" d="M42,30.85s0,0,0,0S42,30.81,42,30.85Z"/><polygon class="cls-2" points="41.81 31.58 41.87 31.49 41.85 31.5 41.81 31.58"/><path class="cls-2" d="M41.79,31.78c0,.11-.13.24-.08.32a3.46,3.46,0,0,1,.13-.38l-.07,0Z"/><path class="cls-2" d="M41.75,32.47a.39.39,0,0,0,0-.06v0C41.7,32.53,41.73,32.44,41.75,32.47Z"/><path class="cls-2" d="M41.77,32.41c0,.05,0-.07,0,0Z"/><path class="cls-2" d="M41.7,32.62l-.07.07c0,.06,0,.08.07,0S41.7,32.64,41.7,32.62Z"/><path class="cls-2" d="M41.58,32.7l0,0S41.58,32.71,41.58,32.7Z"/><path class="cls-2" d="M41.61,32.67s0,0,0,0l.06-.08S41.58,32.66,41.61,32.67Z"/><path class="cls-2" d="M41.65,32.57c.08-.15,0-.19,0,0C41.67,32.46,41.66,32.52,41.65,32.57Z"/><path class="cls-2" d="M41.67,32l0,0v.07S41.65,32,41.67,32Z"/><path class="cls-2" d="M41.37,33.12s0,.06,0,.07,0-.08,0-.11Z"/><path class="cls-2" d="M41.3,33.19l.07-.07S41.34,33.12,41.3,33.19Z"/><path class="cls-2" d="M41.47,32.72v0l.13-.14Z"/><path class="cls-2" d="M41.15,33.52l.11-.05-.06,0Z"/><path class="cls-2" d="M41,33.69a.3.3,0,0,1-.11.15.47.47,0,0,0,.16-.1S41.08,33.68,41,33.69Z"/><path class="cls-2" d="M41.21,33.42c0-.05,0-.08,0-.09l0,0Z"/><polygon class="cls-2" points="41.14 33.43 41.19 33.37 41.19 33.36 41.14 33.43"/><path class="cls-2" d="M41.39,33c-.07.06-.06,0-.11,0S41.34,33,41.39,33Z"/><path class="cls-2" d="M41.25,33.17l0,.08.08-.07S41.26,33.17,41.25,33.17Z"/><polygon class="cls-2" points="41.18 33.29 41.2 33.26 41.16 33.29 41.18 33.29"/><path class="cls-2" d="M40.92,33.68a.76.76,0,0,0-.11.14.5.5,0,0,1,.11-.1S40.93,33.68,40.92,33.68Z"/><polygon class="cls-2" points="40.43 34.18 40.42 34.17 40.42 34.19 40.43 34.18"/><path class="cls-2" d="M40.92,33.67s0,0,0,0A.27.27,0,0,1,41,33.6.12.12,0,0,0,40.92,33.67Z"/><path class="cls-2" d="M40.75,33.9l0,.08S40.75,33.93,40.75,33.9Z"/><path class="cls-2" d="M41.05,33.57Z"/><path class="cls-2" d="M41.05,33.56l-.06,0a.09.09,0,0,0,.06,0Z"/><path class="cls-2" d="M40.52,34.16a.6.6,0,0,1,.07-.14l0,0h0l-.15.14S40.46,34.19,40.52,34.16Z"/><path class="cls-2" d="M40.75,33.9h0s-.06,0,0,0h0s0,0,0,0h0l.06-.08-.08.07c.08-.12-.12,0,0-.1-.06,0-.06,0-.15.07s.07,0,.13,0l-.14.13.16-.12Z"/><path class="cls-2" d="M41.15,33h0S41.14,33,41.15,33Z"/><path class="cls-2" d="M41.13,33.08a.57.57,0,0,0,0,.14.37.37,0,0,1,0-.18h0c0-.09,0,0-.06,0s.05,0,0,0A.18.18,0,0,1,41.13,33.08Z"/><path class="cls-2" d="M40.86,33.53v0l0,.09.12-.11S40.91,33.45,40.86,33.53Z"/><path class="cls-2" d="M40.35,34.25h.11l0,0Z"/><polygon class="cls-2" points="40.22 34.39 40.28 34.37 40.24 34.34 40.22 34.39"/><path class="cls-2" d="M35.15,34.52s.06,0,.14,0l-.1-.06Z"/><path class="cls-2" d="M38.09,35.2a.43.43,0,0,0,.14,0S38.16,35.17,38.09,35.2Z"/><path class="cls-2" d="M33.82,28.68s0,0,0,0S33.8,28.71,33.82,28.68Z"/><path class="cls-2" d="M38.09,35.2h-.18A.19.19,0,0,0,38.09,35.2Z"/><path class="cls-2" d="M39.52,34.81Z"/><path class="cls-2" d="M39.6,34.76l0,0S39.61,34.77,39.6,34.76Z"/><path class="cls-2" d="M39.46,34.83l.06,0s0,0,0,0Z"/><path class="cls-2" d="M39.92,34.58a.22.22,0,0,1-.07.06l.09,0S39.92,34.59,39.92,34.58Z"/><path class="cls-2" d="M40.47,33.85v0s0,0,0,0S40.43,33.89,40.47,33.85Z"/><path class="cls-2" d="M39.93,34.41c.07,0,.14,0,.09-.08h0C40,34.35,39.92,34.37,39.93,34.41Z"/><path class="cls-2" d="M40.1,34.28l-.05,0S40.12,34.29,40.1,34.28Z"/><path class="cls-2" d="M39.37,34.84c-.18,0,.1,0,.05,0S39.39,34.82,39.37,34.84Z"/><polygon class="cls-2" points="39.91 34.32 39.9 34.27 39.86 34.31 39.91 34.32"/><path class="cls-2" d="M39.59,34.5h0l-.09.06S39.54,34.53,39.59,34.5Z"/><path class="cls-2" d="M38.35,34.9s-.07,0-.05,0h.11S38.39,34.91,38.35,34.9Z"/><polygon class="cls-2" points="42 30.57 41.99 30.6 42.02 30.65 42 30.57"/><path class="cls-2" d="M41.93,30.82l.06-.06-.06,0A.11.11,0,0,1,41.93,30.82Z"/><path class="cls-2" d="M23.54,31.21s0,0,0,0S23.53,31.17,23.54,31.21Z"/><polygon class="cls-2" points="23.34 31.95 23.4 31.86 23.39 31.86 23.34 31.95"/><path class="cls-2" d="M23.32,32.14c0,.11-.13.25-.08.32,0-.09.1-.25.13-.38l-.07,0Z"/><path class="cls-2" d="M23.28,32.83l0-.06v0C23.23,32.89,23.26,32.8,23.28,32.83Z"/><path class="cls-2" d="M23.3,32.77s0-.06,0,0Z"/><path class="cls-2" d="M23.23,33l-.06.07c0,.06,0,.08.06,0S23.23,33,23.23,33Z"/><path class="cls-2" d="M23.11,33.06l0,0A0,0,0,0,0,23.11,33.06Z"/><path class="cls-2" d="M23.14,33c-.05,0,0,0,0,0l.06-.07S23.11,33,23.14,33Z"/><path class="cls-2" d="M23.18,32.93c.08-.15,0-.19,0,0C23.21,32.82,23.19,32.88,23.18,32.93Z"/><path class="cls-2" d="M23.2,32.36l0,0v.07S23.18,32.38,23.2,32.36Z"/><path class="cls-2" d="M22.9,33.49s0,.06,0,.06,0-.07,0-.11Z"/><path class="cls-2" d="M22.83,33.55l.07-.06S22.87,33.48,22.83,33.55Z"/><path class="cls-2" d="M23,33.08v0l.13-.14Z"/><path class="cls-2" d="M22.69,33.88l.1,0-.06,0Z"/><path class="cls-2" d="M22.57,34.05a.34.34,0,0,1-.12.16.7.7,0,0,0,.16-.1S22.62,34,22.57,34.05Z"/><path class="cls-2" d="M22.74,33.78a.16.16,0,0,0,0-.09l0,0Z"/><polygon class="cls-2" points="22.68 33.79 22.72 33.73 22.72 33.72 22.68 33.79"/><path class="cls-2" d="M22.92,33.32c-.07,0-.06,0-.1,0S22.87,33.35,22.92,33.32Z"/><path class="cls-2" d="M22.78,33.53l-.05.09.09-.08S22.79,33.53,22.78,33.53Z"/><polygon class="cls-2" points="22.71 33.65 22.73 33.62 22.69 33.65 22.71 33.65"/><path class="cls-2" d="M22.45,34a.76.76,0,0,0-.11.14.34.34,0,0,1,.12-.09C22.5,34,22.46,34,22.45,34Z"/><polygon class="cls-2" points="21.96 34.54 21.95 34.54 21.95 34.55 21.96 34.54"/><path class="cls-2" d="M22.45,34s0,0,0,0l.07-.08S22.47,34,22.45,34Z"/><path class="cls-2" d="M22.28,34.27l0,.07S22.28,34.29,22.28,34.27Z"/><path class="cls-2" d="M22.59,33.93h0S22.58,34,22.59,33.93Z"/><path class="cls-2" d="M22.58,33.92l-.06,0,.06,0Z"/><path class="cls-2" d="M22.06,34.52a.46.46,0,0,1,.07-.14l0,0h0l-.15.14S22,34.55,22.06,34.52Z"/><path class="cls-2" d="M22.29,34.26h0s-.05,0,0,0h0l.06-.09-.08.07c.08-.12-.12,0,0-.1-.06,0-.06,0-.15.08s.08,0,.13,0l-.13.13a1.67,1.67,0,0,0,.16-.12Z"/><path class="cls-2" d="M22.69,33.37h0S22.68,33.38,22.69,33.37Z"/><path class="cls-2" d="M22.66,33.44a.47.47,0,0,0,0,.14.38.38,0,0,1,0-.18h0c0-.08,0,0,0,0s0,0,0,0A.09.09,0,0,1,22.66,33.44Z"/><path class="cls-2" d="M22.39,33.89v0l0,.09a1.14,1.14,0,0,0,.11-.11S22.45,33.82,22.39,33.89Z"/><path class="cls-2" d="M21.88,34.61H22l-.05,0Z"/><polygon class="cls-2" points="21.75 34.75 21.81 34.73 21.78 34.71 21.75 34.75"/><path class="cls-2" d="M16.68,34.89s.07,0,.15,0l-.11-.06Z"/><path class="cls-2" d="M19.62,35.57l.15,0S19.69,35.53,19.62,35.57Z"/><path class="cls-2" d="M15.36,29.05s0,0,0,0S15.33,29.07,15.36,29.05Z"/><path class="cls-2" d="M19.62,35.57h-.18A.22.22,0,0,0,19.62,35.57Z"/><path class="cls-2" d="M23.43,30.52a.25.25,0,0,1,0,.08S23.44,30.53,23.43,30.52Z"/><path class="cls-2" d="M21.05,35.17Z"/><path class="cls-2" d="M21.14,35.12l0,0S21.15,35.13,21.14,35.12Z"/><path class="cls-2" d="M21,35.2l.06,0h0Z"/><path class="cls-2" d="M21.45,34.94s0,0-.07.06l.1,0S21.46,35,21.45,34.94Z"/><path class="cls-2" d="M21.46,34.78c.07,0,.14-.05.1-.09h0S21.45,34.74,21.46,34.78Z"/><path class="cls-2" d="M21.63,34.64a.05.05,0,0,1-.05,0S21.65,34.66,21.63,34.64Z"/><path class="cls-2" d="M20.9,35.2c-.18,0,.1,0,.05,0S20.92,35.18,20.9,35.2Z"/><polygon class="cls-2" points="21.44 34.69 21.43 34.63 21.39 34.67 21.44 34.69"/><path class="cls-2" d="M21,34.92s.06,0,.12-.06h0Z"/><path class="cls-2" d="M21.13,34.86l.08,0S21.16,34.85,21.13,34.86Z"/><path class="cls-2" d="M19.89,35.27s-.07,0-.06,0H20S19.92,35.27,19.89,35.27Z"/><polygon class="cls-2" points="23.53 30.93 23.52 30.96 23.55 31.02 23.53 30.93"/><path class="cls-2" d="M23.47,31.18l.06-.06-.07,0A.22.22,0,0,1,23.47,31.18Z"/><path class="cls-2" d="M33.76,18.32c.09-.16,0-.13.12-.32-.06.08-.07,0-.11,0a1,1,0,0,1,.09-.13l-.07,0a.33.33,0,0,0,0-.17s0,0,0,0,0-.28.09-.32,0-.17-.09-.2,0-.05,0-.07.08,0,.05,0v0h-.05a.61.61,0,0,0,0-.15l0,.05,0-.06v0h0a.18.18,0,0,1,0-.11.8.8,0,0,1-.09-.31.44.44,0,0,0-.13-.31s0,.07,0,.08c-.07-.17-.21-.29-.23-.41h0a1.2,1.2,0,0,0-.16-.32l.05,0a2.43,2.43,0,0,1-.19-.27C33,15,32.91,15,32.83,15s-.15-.15-.21-.22h0a.75.75,0,0,1-.18-.18c-.24-.09-.36-.28-.54-.39h0a1.09,1.09,0,0,0-.17-.13A.21.21,0,0,0,31.6,14a.43.43,0,0,0-.24-.09l-.12-.06c.13.09,0,.05-.06.09l-.06-.06s0,.05,0,0-.2-.1-.23-.16l.06,0h0a0,0,0,0,1,0,0c-.11,0-.07,0-.06,0s-.19,0-.29,0c.14-.07-.27-.06-.18-.13-.1,0-.06,0-.13,0a.63.63,0,0,1,.33.15l-.11,0c0,.09.22,0,.27.07s-.12,0-.13,0l0-.06a.65.65,0,0,1,.31.16c-.09,0,.1.08,0,.09l-.06,0s0,0,0,0l-.34-.1h-.06a2.29,2.29,0,0,0-.36-.07c0-.07-.16-.11-.11-.15s0,.05-.17,0,.1-.06.14-.08-.09,0-.1-.06-.16.19-.06.23a.17.17,0,0,1,.17,0A4.12,4.12,0,0,0,26.59,15l-.16.18c0-.08,0-.15-.07-.14l.06,0c-.07,0-.16.18-.25.18a2.34,2.34,0,0,0-.09.24s-.07,0-.06-.05-.07.09-.05,0a9.09,9.09,0,0,1-.39.83,2.37,2.37,0,0,0-.25.86s0,0,0,0-.05.1-.07.16,0,.12.07.17-.06,0-.07,0c-.06.3,0,.6,0,.84,0,.08.08,0,.09.08-.05-.07-.05,0-.05.09s0,.17,0,.13.08.36.21.29c0,.11,0,.11-.06.08a1.21,1.21,0,0,1,.07.36s.06.19.13.35a.63.63,0,0,0,.23.33c-.1,0,0,0,0,.11l-.08,0,.1.16a.11.11,0,0,0,0,0s0,0,.08,0a.43.43,0,0,1,.07.21h0l0,.07c0,.05-.08-.22.07-.07,0,0,0,.16.06.18s0-.1,0-.08l.1.12h-.09a4.42,4.42,0,0,0,1,.86c0-.05.27.17.29.06h0c-.09-.06.06-.05.13,0-.09,0,.11.17-.1.07l.05.05.52,0c1.29,0,3.59-.31,4.44-2.39l.1,0A5.31,5.31,0,0,1,31,22l.14-.08c.07,0,.05,0,0,.07s.4-.1.44-.15,0-.07,0-.11,0,.13.2,0c0,0-.07,0-.06,0s.09-.28.18-.29l0,.05c.14-.05.2-.3.28-.23l0,0c.15-.2.1,0,.25-.26h0c.09-.07.08-.15.18-.14l0,0a2,2,0,0,0,.19-.22.12.12,0,0,0,.07-.07c.06,0,.23-.24.26-.3s-.07,0-.07,0,.11-.06.12-.16.17.07.26-.09c0,0,0,.05-.06,0s0-.05,0-.06,0,0-.06,0,.1-.18.2-.33c0,0,0,0-.06,0s0-.25.11-.15c0-.17.09-.38.14-.56a1,1,0,0,0,0-.43s0-.12,0-.18Zm-7.95,1.82s0,0,0,0Zm4.24-6.35Zm1.4.17Zm.1.32.08,0a.42.42,0,0,1-.14-.09l.11,0c-.08,0-.16,0-.27-.1,0,0,0-.11.09-.12a.29.29,0,0,1,.2.13.46.46,0,0,0,.2.19s0-.09.1,0a.51.51,0,0,1,.16.28A6.18,6.18,0,0,0,31.55,14.28Zm1,.79h.06a.21.21,0,0,1,0,.12ZM33,20.29v-.08s0,0,0,0l0,0h0a.25.25,0,0,0,0-.07s0,0,0,0l0,0s.06,0,.06,0Zm.12-4.5L33,15.66l.06-.06-.07,0-.08-.12h0a2.06,2.06,0,0,1,.25.18S33.14,15.75,33.09,15.79Zm.39.88c0-.07,0-.14-.07-.21l.08-.23c0,.05,0,.1,0,.15l0,0A.52.52,0,0,1,33.48,16.67Zm.18,1.41s0-.07,0-.11a.15.15,0,0,0,.09,0Z"/><path class="cls-2" d="M42.11,4.9s0,0,0,0a.39.39,0,0,0,.07-.29h0V4.35c-.08,0-.06-.1-.06-.22s0-.27-.09-.29,0-.25,0-.33l0,0c.06-.12-.11-.27-.14-.37s0-.06.06,0-.09-.4-.14-.44-.08,0-.12,0,.14,0,0-.2c0,0,0,.06,0,0s-.28-.09-.3-.17l0,0c0-.14-.3-.2-.23-.28l0,0c-.21-.15,0-.09-.26-.25h0c-.06-.09-.15-.08-.13-.18l0,0a1.9,1.9,0,0,0-.21-.19s-.05-.07-.08-.07-.24-.22-.29-.25,0,.06,0,.07a.14.14,0,0,0-.15-.13.27.27,0,0,0,0-.13c-.16,0-.43,0-.75,0-1.29,0-3.59.31-4.44,2.38l-.1,0A5.5,5.5,0,0,1,36.19.74l0,0,.09,0,.2-.16-.13,0A.47.47,0,0,0,36,.7s.07,0,.09,0c-.17.07-.3.22-.42.24V.85a1.49,1.49,0,0,0-.31.16l0,0c-.06.05-.17.11-.27.18s-.17.15-.17.22-.16.16-.23.21v0a1,1,0,0,1-.18.18c-.09.23-.28.35-.39.53h0L34,2.52c.06,0,0,0-.06.08a.47.47,0,0,0-.1.24.61.61,0,0,0,0,.12c.08-.12,0,0,.08.06l-.06.06s.05,0,0,0-.1.2-.16.23,0,0,0-.06h0l0,0c0,.1,0,.06-.05.05s0,.19,0,.3c-.06-.15-.06.27-.13.17.06.1,0,.06,0,.13a.73.73,0,0,1,.15-.32l0,.1c.1,0,0-.22.07-.26s0,.12,0,.12l-.05,0a.57.57,0,0,1,.15-.31c0,.09.08-.09.1,0l0,.07h0c0,.12-.08.23-.11.35s0,0,0,0l0,.07h0c0,.12-.05.24-.07.36s-.11.17-.15.11.06,0,0,.17-.06-.1-.07-.14,0,.1-.07.1.2.16.23.07a.26.26,0,0,1,0-.18,4.18,4.18,0,0,0,1.18,3.43l.18.16c-.07,0-.15,0-.13.07l-.05-.06c0,.07.18.17.17.25l.24.1s0,.07-.05,0,.1.07,0,.05c.29.11.55.26.82.39a2.24,2.24,0,0,0,.86.25s0,0,0,.05.1.05.16.07l.16-.07c.07,0,0,.06,0,.08.31.06.6,0,.84,0,.08,0,0-.07.08-.09-.06.05,0,.06.09.05s.17,0,.13,0,.36-.08.29-.21c.12,0,.11,0,.08.06a1,1,0,0,1,.37-.06s.19-.07.34-.14a.68.68,0,0,0,.34-.22c0,.09,0,0,.11,0l0,.09.16-.1,0,0s0,0,0-.08a.3.3,0,0,1,.2-.06h0l.07,0c.06,0-.21.08-.06-.06,0,0,.15,0,.17-.07s-.09,0-.07,0l.11-.1v.09a4.69,4.69,0,0,0,.86-1c-.06,0,.17-.27.06-.29v0c-.07.09-.05-.06,0-.13,0,.09.16-.1.07.1l.12-.13c.11,0,.16-.12.2-.25A1.94,1.94,0,0,1,42,6s0,0,0,0a1.52,1.52,0,0,0,.12-.58l0,0A.62.62,0,0,0,42.11,4.9ZM35.59,1a.22.22,0,0,1,.1.11l-.13.07-.06-.06,0,.07-.11.09s0,0,0,0A1.08,1.08,0,0,1,35.59,1Zm-.51.55-.1.09s0,0,0,0Zm-1.22,1.2h0S33.88,2.68,33.86,2.76ZM33.7,4.15h0v0Zm.49-1.49a.92.92,0,0,0,0-.09.36.36,0,0,1-.1.14l0-.11c0,.08,0,.16-.11.27,0,0-.11,0-.12-.09a.29.29,0,0,1,.13-.2.46.46,0,0,0,.2-.2s-.09,0,0-.1a.55.55,0,0,1,.28-.16A3.84,3.84,0,0,0,34.19,2.66Zm5.86,5.73s0,0,0,0Zm.06-7.15,0,0,0,0v0l-.07,0a0,0,0,0,1,0,0l0,0s0-.06,0-.06l.12.13A.11.11,0,0,0,40.11,1.24Z"/><path class="cls-2" d="M60.78,31.73a8,8,0,0,0,0-.84c0-.07-.07,0-.09-.07.06.06.06,0,.06-.09s0-.17,0-.13-.08-.36-.21-.29c0-.12,0-.11.05-.08a1.68,1.68,0,0,1-.06-.37,2.79,2.79,0,0,1-.13-.34.76.76,0,0,0-.23-.34c.1.05,0,0,0-.11l.09,0a1.4,1.4,0,0,0-.1-.16s0-.05,0,0,0,0-.08,0,0-.12-.06-.2h0L60,28.6c0-.05.09.22-.06.07,0,0,0-.16-.07-.17s0,.09,0,.07l-.09-.11h.09a5.27,5.27,0,0,0-1-.86c0,.06-.28-.16-.29-.06h0c.09.07-.07,0-.14,0,.1,0-.1-.16.11-.07l-.05,0-.52,0c-1.3,0-3.59.31-4.44,2.38l-.1,0A5.37,5.37,0,0,1,55,27.09a.42.42,0,0,1-.13.07c-.07,0,0,0,0-.06s-.4.09-.43.14,0,.08,0,.12,0-.14-.2,0h.06c-.07.06-.1.29-.18.3l0-.05c-.15,0-.2.3-.28.23l0-.05c-.16.21-.1.05-.25.26h0c-.09.06-.09.15-.18.13l0,0a1.34,1.34,0,0,0-.2.21s-.06.06-.06.08-.23.24-.26.3c.07-.09.06,0,.07,0s-.11.06-.13.15-.16-.06-.26.1c0,0,.06-.06.06,0s0,.05,0,.06,0,0,.06,0-.1.18-.2.34c0,0,0,0,0,0s0,.26-.1.15c0,.18-.1.38-.14.57a1,1,0,0,0,0,.43s0,.12,0,.18h0c-.09.16,0,.12-.12.32,0-.08.07,0,.11,0l-.09.14.07,0a.23.23,0,0,0,0,.18s0,0,0,0-.05.27-.08.32,0,.16.09.19a.19.19,0,0,0,0,.08s-.08,0-.05,0h.05a.7.7,0,0,0,0,.16l0-.05,0,.06v0a.25.25,0,0,1,0,.12.62.62,0,0,1,.08.31.6.6,0,0,0,.11.26.08.08,0,0,1,0,0c.07.17.22.3.24.42h0a1.49,1.49,0,0,0,.15.31l0,0a2.51,2.51,0,0,1,.18.27c.07.09.15.17.23.17s.15.16.21.23l0,0a1,1,0,0,1,.18.19c.24.09.36.28.54.39h0l.16.13c0-.06,0,0,.09.06a.44.44,0,0,0,.23.1l.13.05c-.13-.08,0-.05.06-.09l.06.07s0,0,0,0,.2.1.24.16h-.06s0,0,0,0,.06,0,.05,0,.2,0,.3,0c-.14.06.27.06.18.13.1-.06.06,0,.13,0a.84.84,0,0,1-.33-.15l.11,0c-.05-.1-.22,0-.27-.07a.16.16,0,0,0,.13,0l0,0a.54.54,0,0,1-.32-.16c.1,0-.09-.07,0-.09l.06,0s0,0,0,0l.34.11h0l.07,0h0l.37.07c0,.06.16.11.11.15s0-.05.17,0-.11.06-.14.07.09.05.09.07.16-.2.07-.23a.2.2,0,0,1-.17,0,4.15,4.15,0,0,0,3.42-1.18l.16-.18c0,.07,0,.15.08.13l-.06,0c.06,0,.16-.18.24-.17a2.44,2.44,0,0,0,.1-.24s.07,0,.05,0,.08-.1.06,0c.11-.29.25-.55.38-.83a2.33,2.33,0,0,0,.26-.85s0,0,0,0,.06-.1.07-.15l-.06-.18S60.77,31.74,60.78,31.73Zm-8.46-.63s-.07,0-.09,0a.47.47,0,0,1,.1-.1S52.32,31.07,52.32,31.1Zm.18,1.74a.59.59,0,0,0,0-.14l0,0a.41.41,0,0,1,.07-.26,1.72,1.72,0,0,0,.07.21ZM53,28.79v.08l0,0,0,0h0A.16.16,0,0,0,53,29s0,0,0,0l0,0s-.07,0-.06,0Zm0,4.77a1.08,1.08,0,0,1-.25-.18s.06-.06.11-.09l.08.13-.06.06.07,0a.83.83,0,0,0,.08.12Zm.34.46a.27.27,0,0,1,0-.12l.08.1S53.39,34,53.38,34Zm1.16,1.1Zm0-.06a.27.27,0,0,1-.2-.13.47.47,0,0,0-.2-.2s0,.09-.1,0a.59.59,0,0,1-.17-.27,4.51,4.51,0,0,0,.54.35l-.09,0a.3.3,0,0,1,.14.1l-.1,0c.07.05.16,0,.27.1S54.68,35.05,54.57,35.06Zm1.34.22h0Zm4.24-6.37,0,0S60.17,29,60.15,28.91Z"/><path class="cls-2" d="M50.45,18.36s0-.22,0-.3l0,0a.75.75,0,0,1,0-.26,3.22,3.22,0,0,1-.1-.65h0a1.49,1.49,0,0,0,0-.21c0,.06,0-.05,0-.11a.5.5,0,0,0-.1-.24s0-.08,0-.12c0,.15-.06,0-.11,0v-.09s0,.06,0,0-.07-.21,0-.28l0,0h0a0,0,0,0,1,0,0C50,16,50,16,50,16s-.11-.16-.23-.2c.14.06-.15-.23,0-.22-.11,0,0,0-.12-.06a.64.64,0,0,1,.12.34l-.09-.06c0,.09.14.17.14.24s-.06-.12-.08-.11h.07a.65.65,0,0,1,.11.34c-.06-.08,0,.12-.06.07l0-.07h0c0-.11-.11-.21-.17-.32l0,0,0-.06h0c-.06-.11-.13-.21-.19-.31s0-.19,0-.18-.07,0-.13-.11.12,0,.15.05,0-.1,0-.12-.25,0-.21.11l-.11-.11s0,0,0,0h0l0,0a4.21,4.21,0,0,0-1.38-1h-.17c-1.29,0-3.59.31-4.44,2.39l-.1,0A5.4,5.4,0,0,1,44.55,14h0a2.41,2.41,0,0,0-.79.42s0,0,0,0-.11,0-.16.06l-.08.16c-.07,0,0,0-.06,0-.25.17-.41.44-.61.58,0,.08.07,0,0,.12,0-.08,0,0-.11,0s-.11.13-.11.07c0,.14-.2.31-.06.35-.06.11-.1.06-.09,0a1.46,1.46,0,0,1-.22.3s-.09.18-.16.34a.74.74,0,0,0-.08.4c0-.11,0,0-.09.06l0-.09c0,.06,0,.12,0,.18V17s0,0,0,.09-.06.12-.1.18v0l0,.09c0,.06.1-.21.1,0,0,0-.12.11-.09.18,0-.11.06-.09.07-.05s0,.1,0,.15l-.07-.06a5.37,5.37,0,0,0,.09,1.32c.06,0,.07.31.16.25h0c0-.11.08,0,.09.1-.06-.09-.05.18-.12,0a1.09,1.09,0,0,0,0,.18c-.08.07,0,.19,0,.32a1.6,1.6,0,0,1,.2.39,0,0,0,0,1,0,0c.06.24.32.44.32.5h.06a.54.54,0,0,0,.25.4s0,0,0,0a.39.39,0,0,0,.14.26v0l.19.19c.05-.06.11,0,.19.12s.18.19.26.14.17.19.24.25,0,0,0,0,.26.12.36.17,0,.06,0,.07c.16,0,.34.22.41.21s.06,0,.09-.07-.06.13.16.13c0,0-.07,0,0,0s.26-.13.33-.08h-.06c.14.08.35-.06.36,0l0,.05c.26,0,.11,0,.36,0h0c.11,0,.17-.05.22,0h0a1.34,1.34,0,0,0,.28,0s.09,0,.11,0,.33,0,.38,0c-.11,0-.06,0,0-.06a.17.17,0,0,0,.2,0c0,.08.06.16.25.12,0,0-.08,0-.07,0a.08.08,0,0,1,.08,0s-.05,0,0-.06.21,0,.39-.08c-.07,0,0,0,0-.07s.2-.16.18,0c.15-.1.34-.2.51-.29a1,1,0,0,0,.33-.27c0-.05.11-.07.16-.1l0,0a2,2,0,0,0,.31-.14c-.09,0-.08,0-.05-.1l.16,0,0-.06a.27.27,0,0,0,.13-.13s0,0,0,0,.24-.16.29-.16.12-.12.08-.2l.06-.05c0,.05,0,.08.06,0h0l0,0,.09-.12s0,0,0,.06,0-.05,0-.07,0,0,0,0h0a.18.18,0,0,1,.06-.1A.66.66,0,0,1,50,20a.45.45,0,0,0,.12-.31s0,.08,0,.08c.08-.16.06-.36.13-.46l0,0a1.28,1.28,0,0,0,.12-.32h0c0-.08.05-.2.07-.32A.36.36,0,0,0,50.45,18.36ZM41.84,17v0S41.87,16.91,41.84,17Zm5,5.21h-.17a.17.17,0,0,1,.06-.06h0l.08,0s0,0,0,0h0S46.91,22.16,46.89,22.18Zm1.89-1a.6.6,0,0,0,.08-.08.3.3,0,0,0,.07.08A.75.75,0,0,0,48.78,21.14Zm.44-5.74a.22.22,0,0,1,.11.13Zm.13.16h0v0Zm.85,1.11s0,.07,0,0Zm-.31,3.17,0,0a.47.47,0,0,1-.24.15l.1-.2.22-.11Zm.14-.71c0-.05,0-.1,0-.15h.08l-.08,0,0-.14h0a.94.94,0,0,1,0,.31A.37.37,0,0,1,50,19.13Zm.13-.75c0-.05,0-.09,0-.13s0,0,0,0A.6.6,0,0,1,50.16,18.38Zm0-.77A4.23,4.23,0,0,0,50,17s0,.06,0,.07a.26.26,0,0,1,0-.17.41.41,0,0,0,.05.09c0-.08-.09-.13-.11-.26s.06-.1.15,0a.26.26,0,0,1,0,.23.51.51,0,0,0,0,.28s0-.07.06.09A.52.52,0,0,1,50.15,17.61Z"/><path class="cls-2" d="M39.87,34.41c-.1,0-.17.14-.24.14a.14.14,0,0,0,.11-.08v.07a.59.59,0,0,1-.34.11c.05,0,0,0-.06,0a2.84,2.84,0,0,1-.54.43h.1a.5.5,0,0,0,.24-.1l.12-.05c-.15,0,0-.06,0-.1h.09s-.06,0,0,0,.21-.07.28,0l0,0h0c.1-.06.07,0,.08,0s.15-.12.19-.23c-.06.14.23-.15.21,0,0-.12.05,0,.06-.13a.62.62,0,0,1-.33.13ZM39,35Z"/><path class="cls-2" d="M41.84,30.16s0,0,.06,0,0-.12,0,0c-.13-.29-.21-.58-.31-.86a2.25,2.25,0,0,0-.43-.79s0,0,0,0,0-.11-.06-.16L41,28.21c0-.06,0,0,.05-.06-.17-.25-.44-.4-.59-.6-.08,0,0,.07-.12,0,.09,0,0,0,0-.1s-.13-.11-.07-.11c-.14,0-.32-.2-.35-.06-.11-.06-.06-.1,0-.09a1.46,1.46,0,0,1-.3-.22c-.05,0-.19-.09-.34-.15a.77.77,0,0,0-.4-.08c.1,0,0,0-.07-.08l.09,0-.18,0s0,0,0,0,0,0-.08,0-.13-.06-.19-.1H38.3c-.06,0,.22.09,0,.09,0,0-.1-.12-.17-.08.11,0,.09.05,0,.06H38l.06-.07a4.57,4.57,0,0,0-1.32.11c0,.06-.31.07-.25.16h0c.1,0,0,.07-.1.09.08-.06-.19,0,0-.12h-.18c-.07-.07-.19,0-.31.05a1.8,1.8,0,0,1-.39.2h0c-.25.06-.44.32-.5.33v.05a.56.56,0,0,0-.39.26s0,0,0,0a.34.34,0,0,0-.25.15h0l-.19.18c.06.06,0,.12-.12.21s-.19.18-.14.26-.18.17-.24.23,0,0,0,0-.11.27-.16.37-.06,0-.08,0c0,.15-.21.35-.2.41s0,.06.07.1-.13-.07-.13.15c0,0,0-.06,0,0s.13.26.08.33V30c-.07.14.07.36,0,.37l0,0c0,.25,0,.1,0,.36h0c0,.12.05.17,0,.23v0a1.41,1.41,0,0,0,0,.29s0,.08,0,.1,0,.33,0,.39c0-.11,0-.06.06,0a.15.15,0,0,0,0,.2c-.08,0-.16.07-.12.25,0,0,0-.08,0-.06s0,.06,0,.07,0-.05,0,0,0,.2.09.38c0-.06,0,0,.07,0s.16.2,0,.18c.1.15.2.34.3.5a1,1,0,0,0,.27.33c.05,0,.07.11.1.16l0,0a2.56,2.56,0,0,0,.14.31c0-.09,0-.08.1,0s0,.1,0,.16l.06,0c0,.06.08.09.13.12s0,0,0,0,.16.23.17.29.11.12.2.07a.16.16,0,0,0,0,.07s-.08,0,0,.06h0l.05,0,.11.09.38,0a.54.54,0,0,1,0-.11l.2.1h.2c1.3,0,3.59-.32,4.44-2.39l.1,0a5.63,5.63,0,0,1-1.17,2.28l.26-.14,0,0,.06,0h0l.3-.21s.19,0,.18,0,0-.07.11-.14,0,.12-.05.16.11,0,.12,0,0-.25-.12-.21a.22.22,0,0,1-.13.11,4.13,4.13,0,0,0,1.58-3.25,1.77,1.77,0,0,0,0-.24c.06.05.11.1.15,0v.08c.07,0,0-.25,0-.3Zm-8.31,1.57a0,0,0,0,0,0,0s0,.05,0,0v-.17l0,.06a0,0,0,0,1,0,0v.05l0,0a.19.19,0,0,0,0,.08S33.55,31.76,33.53,31.73Zm1,2v-.14l.07.08A.22.22,0,0,0,34.56,33.75Zm4.06-7.15h0S38.68,26.63,38.62,26.6Zm1.5,7.51,0,0h0Z"/><polygon class="cls-2" points="39.4 34.57 39.4 34.57 39.4 34.57 39.4 34.57"/><path class="cls-2" d="M23.36,30.52s.06,0,.07,0,0-.12,0,0c-.13-.29-.21-.58-.31-.86a2.43,2.43,0,0,0-.43-.79s0,0,0,0,0-.1-.06-.16l-.16-.07c0-.07,0,0,0-.06-.17-.26-.44-.41-.59-.61-.08,0,0,.07-.11,0,.08,0,0,0,0-.1s-.12-.11-.07-.11c-.14,0-.31-.2-.35-.06-.11,0-.05-.1,0-.09l-.21-.14-.54,0c-1.29,0-3.59.31-4.44,2.38l-.1,0a5.31,5.31,0,0,1,1.63-2.7c-.07,0-.16,0-.26.07a2.48,2.48,0,0,1-.39.21h0c-.24.06-.43.33-.5.33l0,.06a.6.6,0,0,0-.4.25s0,0,0,0a.36.36,0,0,0-.25.15h0a1.62,1.62,0,0,0-.18.19c.05,0,0,.11-.13.2s-.18.18-.13.26-.18.17-.24.24v0c-.12.05-.11.28-.16.37s-.06,0-.07,0c0,.16-.22.35-.21.41s.05.06.07.1-.13-.07-.12.16c0,0,0-.07,0-.05s.14.26.09.33l0-.05c-.07.13.07.35,0,.36l0,0c0,.25,0,.1,0,.36h0c0,.11,0,.17,0,.22v0a1.42,1.42,0,0,0,0,.29s0,.09,0,.1,0,.33,0,.39c0-.11,0-.06.06,0a.15.15,0,0,0,0,.2c-.08,0-.16.07-.12.25,0,0,0-.07,0-.06s0,.06,0,.07,0,0,.05,0,0,.2.09.38c0-.06,0,0,.07,0s.16.19,0,.17c.1.15.2.34.3.5a.89.89,0,0,0,.28.33s.06.12.1.16l0,0c.05.18.06.12.14.31,0-.09,0-.08.11,0l0,.16.06,0a.3.3,0,0,0,.13.12s0,0,0,0,.15.24.16.29.12.12.2.08a.21.21,0,0,0,0,.06s-.07.05,0,.06h0l.05,0,.12.1h0A.16.16,0,0,1,17,35a.72.72,0,0,1,.28.16.45.45,0,0,0,.32.12s-.08,0-.09,0c.17.07.36.06.46.12l0,0a1.21,1.21,0,0,0,.33.12v0a2.37,2.37,0,0,1,.31.06.38.38,0,0,0,.29,0s.22,0,.3,0l0,0a.74.74,0,0,1,.26,0,4.32,4.32,0,0,1,.66-.11h0l.21,0c-.06,0,.05,0,.1,0a.42.42,0,0,0,.24-.09l.12-.06c-.14,0,0,0,0-.1h.09s-.06,0,0,0,.21-.08.28-.06a.05.05,0,0,1,0,0s0,0,0,0h0c.09-.06.06,0,.07,0s.15-.11.19-.23c-.06.14.23-.15.21,0,0-.11.05,0,.06-.12a.61.61,0,0,1-.33.12l.06-.09c-.1,0-.17.14-.24.14a.16.16,0,0,0,.11-.07v.06a.59.59,0,0,1-.34.11c.08,0-.11,0-.07,0l.06,0s0,0,0,0l.33-.17,0,0,.05,0h0c.1-.07.2-.13.3-.21s.19,0,.18,0,0-.07.11-.14,0,.12,0,.16.1,0,.11,0,0-.26-.11-.22a.26.26,0,0,1-.14.12l.14-.12.11-.1s0,0,.05,0v0l0,0a4.17,4.17,0,0,0,1.33-3,1.94,1.94,0,0,0,0-.24c.06,0,.11.1.15,0v.08c.06,0,0-.25,0-.3A2.44,2.44,0,0,0,23.36,30.52Zm-8.3,1.57a0,0,0,0,0,0,0s0,.06-.05,0v-.18l.06.06v.08l0,0a.31.31,0,0,0,0,.08S15.08,32.12,15.06,32.09Zm1,2V34l.07.07A.16.16,0,0,0,16.09,34.12Zm1.31.94,0,0a.47.47,0,0,1-.15-.24l.2.1.11.21Zm1,.22a1.25,1.25,0,0,1-.3,0s0-.08,0-.14a.7.7,0,0,0,.14,0v.09l0-.08.14,0S18.42,35.28,18.41,35.28Zm.56.08a.34.34,0,0,1-.11,0H19S19,35.35,19,35.36Zm1.34,0a.42.42,0,0,0-.28,0s.08,0-.08.06a.5.5,0,0,1-.31-.08,6,6,0,0,0,.61-.12l-.07,0a.57.57,0,0,1,.18,0l-.1.06c.08,0,.13-.09.26-.12s.1.07,0,.15A.27.27,0,0,1,20.31,35.31Zm.26,0Zm1.08-.85,0,0h0Z"/></svg>