<svg viewBox="0 0 22 24" xmlns="http://www.w3.org/2000/svg"><path d="m7.74 11.08a2.21 2.21 0 0 0 -.35 0h-1.5a1 1 0 0 0 -.35.06.49.49 0 0 0 -.33.38.51.51 0 0 0 .19.48 1.1 1.1 0 0 0 .47.21c.62 0 1.24.05 1.85 0a.6.6 0 0 0 .5-.63.66.66 0 0 0 -.48-.56"/><path d="m12.61 15.4a.59.59 0 0 0 .2-.36c0-.16-.11-.27-.25-.32a1.52 1.52 0 0 0 -.51-.12c-.5 0-1 0-1.5 0a.54.54 0 0 0 -.25.06c-.09.06-.2.15-.22.24a.37.37 0 0 0 .11.31.77.77 0 0 0 .36.23c.34.08.69.13.83.16a1.86 1.86 0 0 0 1.23-.22"/><path d="m10.54 12.08c.52-.05 1-.09 1.56-.16a1.16 1.16 0 0 0 .4-.16.45.45 0 0 0 .06-.68 1 1 0 0 0 -.38-.19 5.12 5.12 0 0 0 -.61 0c-.32 0-.56 0-.79.06a3 3 0 0 0 -.59.14.5.5 0 0 0 -.36.54.53.53 0 0 0 .45.47.74.74 0 0 0 .26 0"/><path d="m7.78 18.18a.53.53 0 0 0 -.17 0c-.53 0-1.05 0-1.58 0a1.39 1.39 0 0 0 -.63.26.41.41 0 0 0 -.19.46.42.42 0 0 0 .37.32h1c.41 0 .82 0 1.23-.07a.57.57 0 0 0 .44-.49.61.61 0 0 0 -.43-.5"/><path d="m5.46 15.61a2.54 2.54 0 0 0 2 0 .64.64 0 0 0 .22-.14.52.52 0 0 0 .18-.47.53.53 0 0 0 -.45-.37h-.77c-.29.05-.72.1-1.15.18a.38.38 0 0 0 -.28.41.43.43 0 0 0 .25.43"/><path d="m12.81 18.06a3.55 3.55 0 0 0 -2 0 .44.44 0 0 0 -.12.73 1.05 1.05 0 0 0 .46.23 4.08 4.08 0 0 0 .7 0 2.25 2.25 0 0 0 .52 0 2.59 2.59 0 0 0 .64-.28.31.31 0 0 0 .05-.46c-.08-.08-.16-.19-.26-.22"/><path d="m15.18 11.59c.49.07 1 .12 1.49.18h.71a.58.58 0 0 0 .6-.42.71.71 0 0 0 -.43-.62h-.08a5.17 5.17 0 0 0 -2.28-.14.48.48 0 0 0 -.4.42.5.5 0 0 0 .39.6"/><path d="m17.55 17.62h-.09a8.52 8.52 0 0 0 -1.74.2h-.08a.52.52 0 0 0 -.31.57.5.5 0 0 0 .41.4h.71c.29-.05.75-.11 1.2-.21.28-.06.52-.38.48-.56a.71.71 0 0 0 -.58-.48"/><path d="m17.36 15.24a.59.59 0 0 0 .44-.59.66.66 0 0 0 -.62-.54h-.09l-1.58.17a.75.75 0 0 0 -.25.09.51.51 0 0 0 0 .92c.28.08.56.13.82.19.45-.08.86-.14 1.26-.24"/><path d="m19.93 18.3a3.9 3.9 0 0 0 -.24.73c-.1.54 0 .76-.37 1.12-.76.71-2.72.56-3.7.55a9.72 9.72 0 0 0 -2 .13h-.08c-.79 0-1.57.06-2.36.13a27.93 27.93 0 0 1 -4.29 0 8.67 8.67 0 0 0 -1.69 0 2.17 2.17 0 0 1 -.51 0 1.83 1.83 0 0 1 -1.3-.89.51.51 0 0 1 -.06-.21c-.13-.95-.24-1.86-.33-2.81-.09-1.13-.11-2.26-.21-3.39-.05-.59-.1-1.18-.11-1.77s0-1.38 0-2.07-.08-.7.67-.7a1.35 1.35 0 0 0 .29 0 25.24 25.24 0 0 1 3.69-.26c1.28 0 2.55 0 3.84-.07s2.55-.1 3.83-.2c1-.07 2-.17 2.95-.15.17 0 .34 0 .52-.05l1.17-.07c.21 0 .31.1.32.33s0 .34 0 .51v4.59.59a.14.14 0 0 0 0 .06c0 1.32 0 2.63-.15 3.94m-17.08-13.34a.22.22 0 0 1 .1-.09s.11 0 .12.06.09.33.13.49l.06.29a.6.6 0 0 0 .59.47.65.65 0 0 0 .6-.46c.06-.19.09-.39.13-.58a.2.2 0 0 1 .2-.18h.73.12 1.31a17.58 17.58 0 0 1 1.79 0h1c.31 0 .46 0 .48.39a1 1 0 0 0 .1.42.65.65 0 0 0 1 .32 1.46 1.46 0 0 0 .68-1c.05-.32.12-.36.43-.4s.22-.08.49-.11c.7-.12.21-.2.94-.2h.45a2.67 2.67 0 0 1 .38 0 11.68 11.68 0 0 1 2.05.07h.11c.31 0 .63.11.94.18.05 0 .11.1.12.16s0 .3.05.44a.74.74 0 0 0 1.46.07c0-.14.06-.29.11-.42a.23.23 0 0 1 .18-.09.26.26 0 0 1 .18.09.29.29 0 0 1 .07.2v1.48c0 .17-.08.26-.26.27a3.38 3.38 0 0 1 -.45 0 17.64 17.64 0 0 0 -3.12.13 6 6 0 0 1 -.74 0 19.22 19.22 0 0 0 -2.93.26 4 4 0 0 1 -.6 0h-3.84a17 17 0 0 0 -2.14.1 9.34 9.34 0 0 1 -1.4 0h-1.35c-.2 0-.29-.08-.29-.26 0-.74 0-1.48 0-2.22a.1.1 0 0 1 0-.07m18.79 8.92c0-1.28 0-2.56 0-3.84s.06-2.76.08-4.14c0-.4 0-.79 0-1.19 0-.23 0-.48-.2-.6-.35-.22-.53-.68-1-.71h-.89c-.37 0-.4 0-.48-.41s0-.5-.12-.73a.8.8 0 0 0 -.29-.41.94.94 0 0 0 -.7-.1.45.45 0 0 0 -.23.27 1.54 1.54 0 0 0 -.06.43v.74a.19.19 0 0 1 -.18.2h-.21-.3a1.07 1.07 0 0 1 -.52 0c-.66 0-1.33-.06-2-.11l-.4-.01c-.77.19-.36.29-1.15.26h-.7c-.2 0-.27-.06-.31-.24s-.07-.44-.13-.66-.15-.46-.24-.69a.46.46 0 0 0 -.47-.22 1.84 1.84 0 0 0 -1 .29.34.34 0 0 0 -.15.24 5.8 5.8 0 0 0 0 .59v.66a.2.2 0 0 1 -.13.15 1.53 1.53 0 0 1 -.37 0h-.59a14.37 14.37 0 0 1 -2.37.1c-.38 0-.76.05-1.13 0h-.62c-.25 0-.32 0-.32-.28a2.34 2.34 0 0 0 -.14-.87.73.73 0 0 0 -.7-.45.67.67 0 0 0 -.59.58 3.17 3.17 0 0 0 0 .44v.52a.17.17 0 0 1 -.2.17 10.84 10.84 0 0 0 -1.61.06.78.78 0 0 0 -.81 1 16.8 16.8 0 0 1 0 3.4c0 .66-.06 1.32-.07 2 0 1.08 0 2.16.12 3.24.06.81.1 1.63.18 2.44.13 1.27.25 2.54.28 3.83a4.17 4.17 0 0 0 .28 1.35 1.66 1.66 0 0 0 .79.86 3.79 3.79 0 0 0 2 .47h1.62 2.52 2.44a2.88 2.88 0 0 0 .59 0 8.83 8.83 0 0 1 1.54-.15q.66 0 1.32-.12a.19.19 0 0 0 .13-.05c1.63-.14 3.23.1 4.86.05.79 0 1.59-.09 2-.84a10.64 10.64 0 0 0 .77-3.53 10.7 10.7 0 0 0 -.16-4.07"/></svg>