<svg viewBox="0 0 210 20" xmlns="http://www.w3.org/2000/svg"><g fill="#666"><path d="m37.51 12.12c0-.1.16-.09.16 0 .08 1.44.79 2.34 2.06 2.34a1.76 1.76 0 0 0 2-1.73c0-1.23-.78-1.75-2.13-2.44a3 3 0 0 1 -2-2.82 2.36 2.36 0 0 1 2.66-2.28 4.55 4.55 0 0 1 1.36.19.69.69 0 0 1 .52.84c0 .21-.11.79-.14 1.1 0 .12-.16.08-.16 0a1.76 1.76 0 0 0 -1.76-1.78 1.51 1.51 0 0 0 -1.68 1.6 2.41 2.41 0 0 0 1.6 2.12c1.84.94 2.6 1.72 2.55 3.13s-1.27 2.43-2.93 2.43a4.17 4.17 0 0 1 -1.62-.31 1 1 0 0 1 -.6-.8 5.52 5.52 0 0 1 .13-1.59"/><path d="m48.72 12.94c0 1.26.16 1.42 1 1.5a.08.08 0 1 1 0 .16c-.53 0-1.14 0-1.57 0s-1 0-1.52 0a.08.08 0 1 1 0-.16c.72-.11.91-.2.94-1.5 0-.5 0-2.16 0-2.67 0-1.15 0-2.58 0-3.08 0-1.54-.28-1.54-.94-1.63-.11 0-.14-.16 0-.16h1.52 1.35c.12 0 .1.14 0 .16-.64.12-.81.13-.84 1.63v3.07 2.68"/><path d="m57 10.46c-.59.92-1.38 2.29-1.79 3.06-.33.6-.34.83.44.92.11 0 .14.16 0 .16-.44 0-1 0-1.32 0s-.87 0-1.39 0c-.1 0-.1-.15 0-.16a1.65 1.65 0 0 0 1.38-.86c.75-1.06 1.66-2.41 2.4-3.57-.72-1.25-1.62-2.64-2.27-3.62-.41-.62-.6-.77-1.18-.83-.11 0-.14-.16 0-.16h1.39s1 0 1.51 0c.13 0 .1.16 0 .16-.67.07-.67.29-.41.77.45.84 1 1.82 1.61 2.84.55-.88 1.07-1.79 1.48-2.62s.33-.9-.2-1c-.11 0-.14-.16 0-.16h1.27l1.08.01a.08.08 0 1 1 0 .16c-.43.06-.71.09-1.24.86-.76 1.12-1.53 2.25-2.09 3.17.74 1.18 1.89 3 2.59 4 .43.6.71.78 1.2.83a.08.08 0 1 1 0 .16c-.47 0-1 0-1.39 0s-.88 0-1.41 0a.08.08 0 1 1 0-.16c.58-.06.56-.3.3-.78-.39-.69-1.25-2-1.93-3.2"/><path d="m70.85 12.12c0-.1.16-.09.16 0 .08 1.44.79 2.34 2.06 2.34a1.76 1.76 0 0 0 2-1.73c0-1.23-.78-1.75-2.13-2.44a3 3 0 0 1 -2-2.82 2.36 2.36 0 0 1 2.66-2.28 4.58 4.58 0 0 1 1.4.19.69.69 0 0 1 .52.84c0 .21-.11.79-.14 1.1 0 .12-.16.08-.16 0a1.76 1.76 0 0 0 -1.76-1.78 1.51 1.51 0 0 0 -1.68 1.6 2.41 2.41 0 0 0 1.63 2.12c1.84.94 2.6 1.72 2.55 3.13s-1.3 2.43-2.96 2.43a4.17 4.17 0 0 1 -1.68-.31 1 1 0 0 1 -.6-.8 5.52 5.52 0 0 1 .13-1.59"/><path d="m82 13.16c0 .89.21.93 1 .95h1.25c1.24 0 1.48-.82 1.66-1.75 0-.1.18-.12.18 0a12.33 12.33 0 0 1 -.09 1.81c-.06.32-.31.44-.87.44-.74 0-2.09-.06-3.5-.06l-1.63.05a.08.08 0 0 1 0-.16c.79-.09 1-.23 1-1.5 0-1 0-2.08 0-3.13s0-1.7 0-2.64c0-1.22 0-1.49-1-1.61-.1 0-.13-.16 0-.16h1.73 3.12c.43 0 .66 0 .63.37s-.09.91-.16 1.42c0 .1-.19.1-.18 0 0-.74-.25-1.23-1-1.29a19.08 19.08 0 0 0 -2-.05v3.71a23.23 23.23 0 0 0 2.48 0c.43 0 .41-.16.52-.14s0 .07 0 .37a5.15 5.15 0 0 1 -.15.9c0 .1-.17.1-.17 0 0-.59-.37-.59-1-.62-.27 0-1.2 0-1.68 0v3.11"/><path d="m98.77 14.44v.32s-.12 0-.33-.25c-1-1.08-1.94-2.17-3.75-4-1.42-1.44-2.56-2.62-3.18-3.2 0 1.14 0 4 .13 6 0 .59.28 1 1.19 1.07.1 0 .13.16 0 .16h-1.57c-.25 0-.77 0-1.17 0a.08.08 0 1 1 0-.16c.53-.11.72-.24.78-1 .12-1.64.15-4 .15-5.21 0-.81 0-1.78 0-2.64 0-.22 0-.28 0-.3s.11 0 .31.24c1.1 1.21 2.3 2.49 3.78 4 1.29 1.29 2.37 2.4 3.18 3.14 0-1.75 0-3.66-.08-5.72-.06-1.08-.18-1.24-1-1.36a.08.08 0 1 1 0-.16h1.35 1.11c.12 0 .09.16 0 .16-.56.09-.71.49-.74 1.17-.09 2.28-.15 4.46-.15 7.71"/><path d="m104.16 12.12c0-.1.16-.09.16 0 .08 1.44.79 2.34 2.06 2.34a1.76 1.76 0 0 0 2-1.73c0-1.23-.78-1.75-2.13-2.44a3 3 0 0 1 -2-2.82 2.36 2.36 0 0 1 2.65-2.28 4.58 4.58 0 0 1 1.37.19.69.69 0 0 1 .52.84c0 .21-.11.79-.14 1.1 0 .12-.16.08-.16 0a1.76 1.76 0 0 0 -1.76-1.78 1.51 1.51 0 0 0 -1.68 1.6 2.41 2.41 0 0 0 1.63 2.12c1.84.94 2.6 1.72 2.55 3.13s-1.27 2.43-2.93 2.43a4.17 4.17 0 0 1 -1.68-.31 1 1 0 0 1 -.6-.8 5.52 5.52 0 0 1 .13-1.59"/><path d="m115.34 13.16c0 .89.2.93 1 .95h1.25c1.24 0 1.48-.82 1.66-1.75 0-.1.18-.12.18 0a12.33 12.33 0 0 1 -.08 1.81c-.06.32-.31.44-.87.44-.74 0-2.09-.06-3.5-.06h-1.67a.08.08 0 1 1 0-.16c.78-.09.94-.23 1-1.5 0-1 0-2.08 0-3.13s0-1.7 0-2.64c0-1.22 0-1.49-1-1.61-.1 0-.13-.16 0-.16h1.74 3.11c.43 0 .66 0 .63.37s-.08.91-.16 1.42c0 .1-.19.1-.18 0 0-.74-.25-1.23-1-1.29a19.34 19.34 0 0 0 -2.05-.05v3.71a23 23 0 0 0 2.47 0c.43 0 .42-.16.52-.14s0 .07 0 .37a6.33 6.33 0 0 1 -.15.9c0 .1-.18.1-.18 0 0-.59-.37-.59-1-.62-.27 0-1.2 0-1.67 0v3.11"/><path d="m123.59 12.12c0-.11.17-.09.17 0 .07 1.43.78 2.34 2.06 2.34a1.78 1.78 0 0 0 2-1.74c0-1.23-.79-1.74-2.14-2.44a3.05 3.05 0 0 1 -2-2.82 2.35 2.35 0 0 1 2.65-2.28 4.44 4.44 0 0 1 1.36.19.7.7 0 0 1 .52.85c0 .21-.1.78-.13 1.09a.08.08 0 0 1 -.16 0 1.77 1.77 0 0 0 -1.77-1.77 1.5 1.5 0 0 0 -1.67 1.6 2.41 2.41 0 0 0 1.63 2.12c1.83.93 2.59 1.72 2.55 3.12s-1.28 2.43-2.94 2.43a4 4 0 0 1 -1.67-.31 1 1 0 0 1 -.61-.8 5.82 5.82 0 0 1 .13-1.58"/></g><path d="m26.14 17.78c0-.18 0-.34 0-.48s0 0 0-.05 0 0 0-.05 0-.09 0-.07 0-.21-.11-.17 0-.06 0 0a.56.56 0 0 1 0-.21l-.07-.2c0-.08-.09-.17-.14-.19s0 0 0-.06h.05a.41.41 0 0 0 -.05-.09s0 0 0 0a.24.24 0 0 1 0-.12s.05.13 0 0 0-.09 0-.1 0 .06 0 .05a.18.18 0 0 0 -.05-.07h.05a2.68 2.68 0 0 0 -.57-.49s-.16-.1-.17 0c.05 0 0 0-.07 0s-.06-.09.05 0h-.3a2.58 2.58 0 0 0 -2.76 1.19h-.05a3 3 0 0 1 .91-1.53s-.06.05-.09.05 0 0 0 0-.22 0-.25.08 0 0 0 .07 0-.08-.11 0 0 0 0 0-.05.15-.1.16c-.08 0-.11.17-.16.13-.09.12-.06 0-.14.15-.05 0-.05.09-.1.08a.63.63 0 0 0 -.11.12.08.08 0 0 0 0 0s-.13.14-.14.17 0 0 0 0-.06 0-.07.09-.09 0-.14.05 0 0 0 0-.06.11-.12.2 0 0 0 0 0 .14-.06.08c0 .1-.06.22-.08.32a.65.65 0 0 0 0 .25s0 .07 0 .1a1.71 1.71 0 0 0 -.07.18s.05 0 .07 0a.35.35 0 0 0 -.05.08.16.16 0 0 0 0 .1c-.06 0 0 .15-.06.18s0 .09.06.11a.07.07 0 0 0 0 .05s-.05 0 0 0a.22.22 0 0 0 0 .09.14.14 0 0 1 0 .07.48.48 0 0 1 .05.17.25.25 0 0 0 .08.18s0 0 0 0 .12.17.13.24a1.31 1.31 0 0 0 .09.17l.1.16c0 .05.09.1.13.1s.09.08.12.12a.93.93 0 0 1 .1.1l.11.08h-.05.08a0 0 0 0 0 0 0l.18.14.09.07s0 0 .05 0a.22.22 0 0 0 .14 0h.07c-.08-.05 0 0 0-.05s0 0 0 0 .11.05.13.09.11 0 .17 0 .15 0 .1.08 0 0 .07 0a.41.41 0 0 1 -.19-.08h.06s-.12 0-.15 0 .07 0 .08 0a.44.44 0 0 1 -.18-.09c.05 0-.05 0 0-.05s0 0 0 0l.24.08h.2s.09.07.06.09 0 0 .1 0-.06 0-.09 0 .06 0 .06 0 .09-.11 0-.13a.08.08 0 0 1 -.1 0 2.33 2.33 0 0 0 2-.66l.09-.11c0 .05 0 .09 0 .08s.09-.1.14-.1l.06-.14s0 0 0 0 0-.05 0 0a3.38 3.38 0 0 1 .22-.47 1.44 1.44 0 0 0 .14-.49s0 0 0 0 0-.06 0-.09a.42.42 0 0 1 0-.1s0 0 0 0m-4.81-.36h-.06l.06-.06v.07m.1 1a.28.28 0 0 1 0-.09.37.37 0 0 1 .05-.17v.13a1.27 1.27 0 0 1 0 .14m.29-2.31a0 0 0 0 1 0 0l.07-.07m0 2.72a1.28 1.28 0 0 1 -.15-.1.22.22 0 0 1 .07-.06.25.25 0 0 0 0 .07v.06s0 0 0 0m.22.25a.31.31 0 0 1 0-.08l.07.08m.63.49h-.06a.77.77 0 0 1 .15.06s0 .06 0 .07a.17.17 0 0 1 -.11-.08.28.28 0 0 0 -.11-.11s0 .05-.06 0a.26.26 0 0 1 -.09-.16 2.73 2.73 0 0 0 .43.26.47.47 0 0 0 -.16-.07.17.17 0 0 1 .08.06m.82.24s0 0 0 0m2.4-3.63s0 0 0 0" fill="#673065"/><path d="m20.26 10.17s0-.13 0-.18a.37.37 0 0 1 0-.15.79.79 0 0 1 0-.13v.05s0-.05 0-.09 0 0 0 0a1.57 1.57 0 0 0 0-.24s0-.08 0-.12 0 0 0-.06a.28.28 0 0 0 -.06-.14s0-.05 0-.07 0 0-.06 0v-.04s0 0 0 0 0-.12 0-.16c0-.05 0 0 0 0s-.07-.09-.13-.11-.08-.13 0-.12 0 0-.07 0a.37.37 0 0 1 .07.19h-.05s.08.09.08.13 0-.06 0-.06a.3.3 0 0 1 -.04.13s0 .07 0 0 0 0 0 0l-.12-.22a.91.91 0 0 0 -.11-.16s0-.11 0-.11 0 0-.07-.06.06 0 .08 0a.1.1 0 0 1 0-.07c-.06 0-.14 0-.12.07a.11.11 0 0 1 .06.08 2.49 2.49 0 0 0 -.94-.73h-.06a2.57 2.57 0 0 0 -2.53 1.36h-.06a3.21 3.21 0 0 1 .88-1.49 1.28 1.28 0 0 0 -.45.23s0 0 0 0-.06 0-.09 0l-.18.1s0 0 0 0-.23.24-.35.33 0 0 0 .06 0 0-.06 0-.07.07-.06 0-.12.17 0 .2-.06 0 0 0-.08.12-.13.17-.05.1-.09.19a.6.6 0 0 0 -.05.23c0-.06 0 0 0 0v.1s0 0 0 .05 0 .07-.06.11.05-.12.05 0a.12.12 0 0 0 -.05.1c0-.06 0-.05 0 0s0 .06 0 .09a2.81 2.81 0 0 0 .05.76s0 .17.09.14c0-.06 0 0 .05.06s0 .1-.07 0v.1.18a1.27 1.27 0 0 1 .12.23c0 .14.18.25.19.28a.36.36 0 0 0 .14.23s0 0 0 0a.23.23 0 0 0 .09.14l.11.11s.07 0 .11.07.1.11.15.08.1.11.13.14c0 .07.15.06.21.09s0 0 0 0 .2.13.24.12 0 0 .05 0 0 .08.09.08 0 0 0 0 .15-.08.18-.05h.21.2.13.04s.19 0 .22 0 0 0 0 0a.07.07 0 0 0 .11 0c0 .05 0 .1.14.07s0 0 0 0 .12 0 .22 0 0 0 0 0 .11-.1.1 0 .2-.11.29-.17a.54.54 0 0 0 .19-.15s.06 0 .09-.06c.1 0 .07 0 .18-.08-.05 0 0 0 0-.06h.09a.19.19 0 0 0 .07-.08s0 0 0 0 .13-.08.16-.09.07-.06.05-.11 0 0 0 0l.05-.06a.06.06 0 0 1 0 0 .09.09 0 0 1 0-.06.37.37 0 0 1 .09-.16.24.24 0 0 0 .07-.18s0 0 0 0 0-.21.08-.26a.56.56 0 0 0 .07-.19.81.81 0 0 1 0-.19c0-.06 0-.13 0-.15m-4.9-.8s0 0 0 0m2.88 2.94s0 0 0 0h-.1.05a0 0 0 0 1 0 0m1.07-.57h.05s0 0 0 0h-.09m.81-2.54s0 0 0 0zm-.1 1.56a.26.26 0 0 1 -.15.09.75.75 0 0 0 .07-.12l.13-.06-.06.06m.08-.4s0-.06 0-.08a.22.22 0 0 1 0-.08 1.41 1.41 0 0 1 0 .18h-.01m.07-.42s0-.06 0-.09v.06m0-.45a2.73 2.73 0 0 0 -.1-.48.64.64 0 0 0 .07.16s0-.07 0-.1v.06c0-.05 0-.08-.06-.15s0-.06.08 0a.14.14 0 0 1 0 .13.28.28 0 0 0 0 .16s0 0 0 .05a.24.24 0 0 1 -.06.17" fill="#673065"/><path d="m10.76 10.14a1.71 1.71 0 0 0 .07-.18s0 0-.06 0a.35.35 0 0 1 .05-.08.17.17 0 0 0 0-.1c.05 0 0-.16.05-.18s0-.09-.05-.11a.43.43 0 0 0 0-.05s0 0 0 0 0-.06 0-.08a.08.08 0 0 1 0-.07.34.34 0 0 1 -.05-.17.3.3 0 0 0 -.08-.18s0 0 0 .05-.12-.17-.14-.24a.68.68 0 0 0 -.09-.17l-.1-.16c0-.05-.08-.1-.12-.1s-.09-.08-.13-.12a.46.46 0 0 1 -.11-.2l-.12-.07h.06-.08a2.31 2.31 0 0 0 -.19-.14l-.09-.07s0 0-.05 0a.19.19 0 0 0 -.13 0h-.07s0 0 0 0-.11 0-.13-.09c-.06 0 0 0 0 0s-.11 0-.17 0-.15 0-.1-.08 0 0-.08 0a.37.37 0 0 1 .15-.02h-.11c0 .06.12 0 .15 0s-.07 0-.07 0a.31.31 0 0 1 .18.09c-.05 0 .05 0 0 0s0 0 0 0l-.25-.01h-.2s-.09-.06 0-.08 0 0-.1 0 .06 0 .08 0-.06 0-.06 0-.09.11 0 .13a.08.08 0 0 1 .1 0 2.34 2.34 0 0 0 -2 .66l-.08.11c0-.05 0-.09 0-.08s-.1.1-.14.1a.59.59 0 0 0 -.06.14s0 0 0 0 0 .05 0 0a5.12 5.12 0 0 1 -.22.47 1.4 1.4 0 0 0 -.22.34s0 0 0 0 0 .06 0 .09v.1s0 0 0 0v.48s0 0 .05 0 0 0 0 .06 0 .09 0 .07.05.21.12.16 0 .07 0 0a.53.53 0 0 1 0 .21s0 .11.08.19a.49.49 0 0 0 .13.2c-.06 0 0 0 0 .06l.06.09s0 0 0 0a.15.15 0 0 1 0 .12s0-.12 0 0 0 .09 0 .1 0-.06 0 0v.07a2.74 2.74 0 0 0 .58.49s.15.1.16 0 0 0 .08 0 .06.09-.06 0h.29a2.57 2.57 0 0 0 2.51-1.2h.06a3.12 3.12 0 0 1 -.92 1.53s.06-.05.09-.05 0 0 0 0 .23-.05.25-.08 0 0 0-.07 0 .08.11 0 .05-.17.1-.17c.08 0 .11-.17.16-.13.08-.12.05 0 .14-.15s0-.08.11-.08a.63.63 0 0 0 .11-.12.08.08 0 0 0 0 0s.13-.14.15-.17 0 0 0 0 .06 0 .07-.09.09 0 .15 0 0 0 0 0 .07-.1.12-.18 0 0 0 0 0-.14.06-.08a2.25 2.25 0 0 1 .08-.33.54.54 0 0 0 0-.24s0-.07 0-.1zm-4.52 1s0 0 0 0zm3.14-3.35a.47.47 0 0 0 .16.07.24.24 0 0 1 -.08-.06h.06s-.09 0-.15-.06 0-.06 0-.07.09 0 .11.08a.26.26 0 0 0 .12.11s0 0 .06 0a.24.24 0 0 1 .08.16 2.26 2.26 0 0 0 -.42-.26m.68.49s0 0 0 .07 0 0-.07-.08m.25 3s0 0 0 0l-.07.07m.06-2.56v-.07l-.05-.07s.13.1.14.1a.22.22 0 0 1 -.07.06m.23.52a.5.5 0 0 0 0-.13 1.09 1.09 0 0 1 0-.14.28.28 0 0 0 0 .09.35.35 0 0 1 0 .17m.1.79s0 0 0-.07h.18" fill="#673065"/><path d="m15.49 2.5a.2.2 0 0 0 0-.16.76.76 0 0 0 0-.15s0-.06 0-.13 0-.15-.05-.16a.4.4 0 0 0 0-.19c0-.07-.06-.15-.08-.21s0 0 0 0-.05-.23-.08-.25 0 0-.06 0 .07 0 0-.12 0 0 0 0-.16-.06-.17-.1c0-.08-.17-.11-.13-.16-.11-.09 0-.06-.14-.14s-.08 0-.07-.1l-.06-.1a.08.08 0 0 0 0 0s-.14-.13-.17-.14 0 0 0 0 0-.07-.08-.07a.22.22 0 0 0 0-.08h-.43a2.58 2.58 0 0 0 -2.57 1.34h-.05a3.15 3.15 0 0 1 .81-1.44h-.05.07l.14-.14a.45.45 0 0 1 -.11 0 .3.3 0 0 0 -.21.11s0 0 .05 0-.17.12-.23.13a.6.6 0 0 0 -.18.09l-.15.11c-.06 0-.1.08-.1.12s-.09.09-.13.12a.47.47 0 0 1 -.11.1.52.52 0 0 1 -.07.11.43.43 0 0 0 0 0 .29.29 0 0 0 0 .08 0 0 0 0 0 0 0 1.33 1.33 0 0 0 -.14.19.39.39 0 0 0 -.08.1s0 0 0 0a.29.29 0 0 0 -.05.14v.07c.05-.07 0 0 .05 0s0 0 0 0 0 .12-.09.14a0 0 0 0 1 0 0s0 .11 0 .17 0 .15-.07.1 0 0 0 .07a.31.31 0 0 1 .09-.18v.06s0-.13 0-.16 0 .07 0 .08a.44.44 0 0 1 .09-.18c0 .06.05-.05.06 0s0 0 0 0a2.17 2.17 0 0 0 -.07.24 1.29 1.29 0 0 0 0 .19s-.07.09-.09.06 0 0 0 .1 0-.06 0-.08 0 0 0 0 .11.09.13 0a.11.11 0 0 1 0-.1 2.35 2.35 0 0 0 .66 2l.11.09s-.09 0-.08 0 .1.1.1.14l.14.06s0 0 0 0 .05 0 0 0a3.38 3.38 0 0 1 .47.22 1.44 1.44 0 0 0 .49.14s0 0 0 0 .06 0 .09 0h.1s0 0 0 0h.47s0 0 0 0 0 0 .05 0 .09 0 .07 0 .21 0 .17-.12.06 0 0 0a.86.86 0 0 1 .21 0l.2-.07a.51.51 0 0 0 .19-.13c0 .06 0 0 .06 0v.05l.09-.06s0 0 0 0a.24.24 0 0 1 .12 0s-.13 0 0 0 .09 0 .1 0-.06 0-.05 0l.07-.06a2.46 2.46 0 0 0 .49-.57s.1-.16 0-.17c0 .05 0 0 0-.08s.09-.06 0 .06l.07-.08c.06 0 .09-.06.11-.14a1 1 0 0 1 .07-.24c.08-.13.05-.31.07-.33a.34.34 0 0 0 0-.26s0 0 0 0m-3.74-2.14s0 0 0 .06h-.07-.06s0 0 0 0a.42.42 0 0 1 .11-.14m-.27.39-.07.06a0 0 0 0 0 0 0h.07m-.7.68s0 0 0 0m-.09.8s0 0 0 0m.27-.79a.73.73 0 0 0 0-.17.1.1 0 0 1 -.06.07s0 0 0-.06 0 .1-.06.16-.06 0-.07-.05a.17.17 0 0 1 .08-.12.28.28 0 0 0 .11-.11s0 0 0-.06a.24.24 0 0 1 .16-.08 2.26 2.26 0 0 0 -.26.42m3.39 3.14s0 0 0 0zm0-4.07s0 0 0 0a0 0 0 0 1 0 0s0 0 0 0l.07.08h-.05" fill="#673065"/><path d="m15.39 16.88s0-.07 0 0a4.68 4.68 0 0 1 -.18-.48 1.39 1.39 0 0 0 -.24-.45s0 0 0 0 0-.05 0-.09h-.09s0 0 0 0-.26-.23-.34-.35 0 0-.07 0 0 0 0-.06-.07-.06 0-.06-.18-.11-.2 0 0-.06 0-.06a.74.74 0 0 1 -.17-.12 1.27 1.27 0 0 1 -.2-.09.39.39 0 0 0 -.22 0h.05-.1s0 0 0 0-.07 0-.11-.06.12.05 0 .05-.06-.06-.1 0 .05 0 0 0h-.09a2.83 2.83 0 0 0 -.76.07s-.17 0-.14.09c.06 0 0 .05-.05.05s-.11 0 0-.07h-.1s-.11 0-.18 0a1.64 1.64 0 0 1 -.22.12c-.14 0-.24.18-.28.18a.35.35 0 0 0 -.23.15s0 0 0 0a.23.23 0 0 0 -.14.09l-.11.11s0 .07-.07.12-.1.1-.08.14a.6.6 0 0 0 -.13.14c-.07 0-.06.16-.09.22s0 0 0 0-.13.2-.12.24 0 0 0 .05-.07 0-.07.09 0 0 0 0 .07.14.05.18v.21.2.13a1 1 0 0 0 0 .17s0 .05 0 .06 0 .19 0 .22 0 0 0 0 0 .07 0 .11a.11.11 0 0 0 -.07.14s0 0 0 0 0 .12 0 .22 0 0 0 0 .1.11 0 .1.11.19.17.29a.59.59 0 0 0 .16.18s0 .07.05.09c0 .1 0 .06.08.17 0-.05 0 0 .06 0s0 .06 0 .09a.27.27 0 0 0 .08.07s0 0 0 0 .09.14.09.17.07.07.12 0a.05.05 0 0 0 0 0s0 0 0 0l.06.05h.23a.43.43 0 0 0 0-.07l.12.06h.11a2.56 2.56 0 0 0 2.53-1.35h.06a3.29 3.29 0 0 1 -.46.96l.18-.09.17-.11s.11 0 .1 0 0 0 .06-.08 0 .06 0 .09.06 0 .07 0 0-.15-.07-.13a.07.07 0 0 1 -.08.06 2.34 2.34 0 0 0 .91-1.85c0-.05 0-.09 0-.14s.06.07.09 0 0-.14 0-.16 0-.1-.05-.14 0 0 0 0m-4.76.89v-.1s0 0 0 .05 0 0 0 0m.59 1.15s0-.05 0-.08v.05s0 0 0 0m2.31-4.06s0 0 0 0" fill="#673065"/><path d="m4.89 17.08s0-.06 0 0c-.07-.16-.11-.32-.17-.49a1.34 1.34 0 0 0 -.24-.44s0 0 0 0 0-.06 0-.09h-.09s0 0 0 0-.26-.23-.34-.34 0 0-.07 0 0 0 0-.06-.07-.07 0-.07-.18-.11-.2 0 0-.06 0 0l-.11-.08h-.36a2.57 2.57 0 0 0 -2.53 1.15h-.05a3 3 0 0 1 .92-1.54.2.2 0 0 0 -.14 0 1.27 1.27 0 0 1 -.23.12c-.14 0-.25.18-.28.19a.33.33 0 0 0 -.23.14s0 0 0 0a.19.19 0 0 0 -.14.09l-.11.11s0 .06-.07.11-.1.11-.08.15a.6.6 0 0 0 -.13.14c-.07 0-.06.16-.09.21s0 0 0 0-.13.2-.12.23 0 0 0 .06-.07 0-.07.09 0 0 0 0 .14.24.12.24v.2h-.08v.21.12a1 1 0 0 0 0 .17.15.15 0 0 0 0 .06s0 .18 0 .22 0 0 0 0 0 .06 0 .11a.11.11 0 0 0 -.07.14s0 0 0 0 0 0 0 .05 0 0 0 0 0 .11.05.21 0 0 0 0 .1.11 0 .1.11.19.17.28a.55.55 0 0 0 .16.19s0 .06.05.09a.91.91 0 0 0 .08.18c0-.05 0-.05.06 0v.09a.13.13 0 0 0 .08.07s0 0 0 0 .09.14.09.17.07.06.12 0a.08.08 0 0 0 0 0s0 0 0 0l.07.05a.09.09 0 0 1 .06 0 .43.43 0 0 1 .16.09.24.24 0 0 0 .18.07s-.05 0-.05 0 .2 0 .26.07l.19.06h.18a.27.27 0 0 0 .16 0s.12 0 .17 0a.37.37 0 0 1 .15 0h.13.09a1.6 1.6 0 0 0 .23 0h.12s0 0 .06 0a.39.39 0 0 0 .14-.05s.05 0 .07 0 0 0 0-.06h.06s0 0 0 0 .12 0 .16 0 0 0 0 0 .09-.06.11-.13c0 .09.13-.08.12 0s0 0 0-.07-.13.06-.19.08c-.06 0-.1.07-.14.08s.07 0 .06-.05a.3.3 0 0 1 -.19.06s-.07 0-.05 0 0 0 0 0a1.19 1.19 0 0 0 .22-.12s0 0 0 0l.17-.11s.11 0 .1 0 0 0 .06-.08 0 .07 0 .09.06 0 .07 0 0-.14-.07-.12a.09.09 0 0 1 -.08.06 2.35 2.35 0 0 0 .91-1.85c0-.05 0-.09 0-.14s.06.06.09 0 0-.14 0-.17a.69.69 0 0 0 -.05-.13s0 0 0 0m-4.4.71s0 0 0 0v-.1a.06.06 0 0 0 0 0s0 0 0 0m.59 1.15s0-.06 0-.09l.05.06m.74.54a.24.24 0 0 1 -.09-.15l.12.07a.67.67 0 0 0 .06.12.18.18 0 0 1 -.07 0m.48.2h-.18a.28.28 0 0 1 0-.08h.08.1s0 0 0 0m.33 0s0 0 0 0 0 0-.06 0h.08m.75 0a.28.28 0 0 0 -.16 0s0 0-.05 0a.23.23 0 0 1 -.17-.06 2.57 2.57 0 0 0 .48-.11c-.08 0-.15.05-.16.07a.15.15 0 0 1 .09 0s.07-.05.15-.06 0 0 0 .08a.14.14 0 0 1 -.13 0" fill="#673065"/><path d="m144.28 5.32a.79.79 0 0 1 .59.86c0 .46-.07 1-.1 1.54 0 .12-.2.11-.2 0-.16-1.72-1.44-2.4-2.95-2.4-2.41 0-4 1.47-3.88 4.39.07 3.16 2 4.44 4.14 4.44 1.91 0 2.63-.91 2.84-2.33a.1.1 0 1 1 .19 0v1c0 1.07-.25 1.14-.74 1.37a6.17 6.17 0 0 1 -2.36.36c-3.26 0-5.28-1.86-5.28-4.7 0-3 1.91-4.94 5.13-4.94a7.38 7.38 0 0 1 2.6.39" fill="#5c5e5e"/><path d="m148.55 9.73c0 2.6 1.45 4.44 3.8 4.44a3.61 3.61 0 0 0 3.65-3.94c0-2.43-1.25-4.94-4.08-4.86-2.28.06-3.38 1.82-3.38 4.36m3.72 4.83c-2.83 0-4.81-1.54-4.92-4.6a4.81 4.81 0 0 1 5.13-5 4.52 4.52 0 0 1 4.69 4.64 4.83 4.83 0 0 1 -4.9 5" fill="#5c5e5e"/><path d="m168.72 14.19c0 .27 0 .31-.05.33s-.12 0-.33-.26c-1-1.08-1.94-2.16-3.75-4-1.42-1.44-2.56-2.62-3.19-3.2 0 1.14 0 4 .14 6 0 .59.28 1 1.18 1.07.11 0 .14.16 0 .16h-1.57-1.17a.08.08 0 1 1 0-.16c.53-.11.73-.24.79-1 .11-1.64.14-4 .14-5.21 0-.81 0-1.79 0-2.65 0-.22 0-.28.06-.29s.1 0 .31.23c1.1 1.22 2.3 2.5 3.78 4 1.29 1.29 2.37 2.4 3.18 3.14 0-1.75 0-3.66-.08-5.72-.06-1.08-.18-1.24-1-1.37a.08.08 0 1 1 0-.16l1.35.05c.23 0 .72 0 1.12-.05.11 0 .08.16 0 .16-.57.1-.72.49-.75 1.18-.09 2.28-.14 4.46-.14 7.71" fill="#5c5e5e"/><path d="m181.51 5.57a14.15 14.15 0 0 0 -2 0v4.76c0 1.5 0 2.53.06 3s0 .39.29.49a5.14 5.14 0 0 0 1.78.25c2.61 0 3.84-1.88 3.84-4.22a3.94 3.94 0 0 0 -4-4.26m.12 8.87c-1.19 0-2.14-.13-2.67-.13h-1.74c-.11 0-.1-.14 0-.16 1.19-.12 1.18-.46 1.22-2 0-.5 0-2.13 0-2.64 0-1.16 0-2.33 0-2.83 0-1.1-.3-1.35-1.08-1.43a.08.08 0 1 1 0-.16c.37 0 1.18.05 1.55.05.52 0 2-.05 2.56-.05 3.32 0 5.17 1.71 5.17 4.6a4.65 4.65 0 0 1 -5 4.7" fill="#5c5e5e"/><path d="m192.87 6.92c-.18.43-.43 1-.68 1.66l-.67 1.74h2.61c-.39-1.13-.79-2.21-1.26-3.4m.13-1.69c.09-.22.12-.25.18-.25s.09 0 .16.25c.42 1.23 1.83 5.06 2.95 7.88.34.84.6 1 1.28 1.08a.08.08 0 1 1 0 .16c-.57 0-1 0-1.6 0-.36 0-.95 0-1.31 0a.08.08 0 1 1 0-.16c.57-.06.67-.22.46-.89s-.55-1.66-.87-2.54h-2.91c-.22.6-.65 1.71-.88 2.49s.15.88.64.94a.08.08 0 1 1 0 .16h-1.33c-.4 0-.86 0-1.37 0-.12 0-.09-.16 0-.16a1.37 1.37 0 0 0 1.19-.83c.43-.79.93-2.06 1.42-3.26z" fill="#5c5e5e"/><path d="m200.34 9.73c0 2.6 1.45 4.44 3.79 4.44a3.61 3.61 0 0 0 3.67-3.94c0-2.43-1.25-4.94-4.08-4.86-2.28.06-3.38 1.82-3.38 4.36m3.72 4.83c-2.83 0-4.8-1.54-4.92-4.6a4.81 4.81 0 0 1 5.13-5 4.52 4.52 0 0 1 4.73 4.62 4.83 4.83 0 0 1 -4.9 5" fill="#5c5e5e"/></svg>