<svg id="Layer_1" data-name="Layer 1" xmlns="http://www.w3.org/2000/svg" viewBox="0 0 75 65"><defs><style>.cls-1{fill:#5c5e5e;}.cls-2{fill:#673065;}.cls-3{fill:#666;}</style></defs><title>Artboard 1</title><path class="cls-1" d="M.12,49.73a.07.07,0,0,1,.09,0l0,0C.32,50.91.9,51.65,2,51.65A1.46,1.46,0,0,0,3.63,50.4a.91.91,0,0,0,0-.17c0-1-.65-1.44-1.75-2A2.49,2.49,0,0,1,.21,45.91,1.92,1.92,0,0,1,2.15,44h.23a3.84,3.84,0,0,1,1.12.16.57.57,0,0,1,.44.66v0c0,.18-.09.65-.11.91,0,.09-.13.06-.13,0a1.45,1.45,0,0,0-1.43-1.47h0A1.25,1.25,0,0,0,.86,45.38a1.13,1.13,0,0,0,0,.26A2,2,0,0,0,2.2,47.38c1.51.77,2.13,1.41,2.09,2.57A2.14,2.14,0,0,1,2,52H1.88A3.37,3.37,0,0,1,.51,51.7.84.84,0,0,1,0,51a4.38,4.38,0,0,1,.11-1.3"/><path class="cls-1" d="M9.33,50.4c0,1,.13,1.17.85,1.23a.07.07,0,1,1,0,.14H7.63c-.09,0-.08-.14,0-.14.6-.08.76-.15.78-1.23V45.68c0-1.26-.23-1.26-.78-1.34-.08,0-.11-.13,0-.13H10c.09,0,.08.12,0,.13-.53.1-.67.11-.7,1.34V50.4"/><path class="cls-1" d="M16.15,48.37c-.48.76-1.13,1.87-1.47,2.51s-.28.68.37.75c.08,0,.11.14,0,.14H12.82c-.09,0-.09-.12,0-.14a1.3,1.3,0,0,0,1.13-.7c.62-.87,1.36-2,2-2.94l-1.88-3c-.34-.51-.5-.63-1-.68-.08,0-.11-.13,0-.13h2.39c.11,0,.08.13,0,.13-.55.06-.55.25-.34.63.37.7.82,1.5,1.32,2.34.45-.73.88-1.47,1.22-2.15s.27-.74-.17-.82c-.09,0-.11-.13,0-.13h2s.08,0,.09,0a.06.06,0,0,1,0,.09h-.05c-.35,0-.58.08-1,.71-.65.92-1.28,1.85-1.74,2.6.61,1,1.56,2.5,2.13,3.3.35.5.58.65,1,.68a.07.07,0,1,1,0,.14h-2.3c-.1,0-.08-.14,0-.14.48-.05.46-.24.25-.63-.32-.57-1-1.68-1.59-2.63"/><path class="cls-1" d="M27.5,49.73c0-.08.14-.07.14,0,.06,1.18.64,1.93,1.69,1.93A1.45,1.45,0,0,0,31,50.43a1.36,1.36,0,0,0,0-.2c0-1-.64-1.43-1.75-2a2.5,2.5,0,0,1-1.63-2.32A1.92,1.92,0,0,1,29.56,44h.21a3.53,3.53,0,0,1,1.12.16.57.57,0,0,1,.43.67v0c0,.17-.08.65-.11.9s-.13.06-.13,0a1.45,1.45,0,0,0-1.44-1.46h0a1.25,1.25,0,0,0-1.37,1.1,1.62,1.62,0,0,0,0,.22,2,2,0,0,0,1.33,1.74c1.51.76,2.13,1.41,2.1,2.56a2.16,2.16,0,0,1-2.3,2h-.11a3.29,3.29,0,0,1-1.38-.26.84.84,0,0,1-.5-.65,5.24,5.24,0,0,1,.11-1.31"/><path class="cls-1" d="M36.68,50.59c0,.73.17.76.8.77a8.34,8.34,0,0,0,1,0c1,0,1.22-.66,1.36-1.43,0-.09.15-.1.15,0a10.44,10.44,0,0,1,0,1.48c0,.27-.26.37-.72.37s-1.72-.05-2.87-.05H35a.07.07,0,1,1,0-.14h0c.65-.07.78-.18.8-1.23V45.63c0-1,0-1.23-.84-1.33-.08,0-.11-.13,0-.13h4c.36,0,.55,0,.53.3s-.08.76-.14,1.17c0,.09-.15.09-.14,0,0-.61-.21-1-.83-1.06a11.77,11.77,0,0,0-1.68,0v3h2c.35,0,.34-.14.43-.13s0,.07,0,.31a4.57,4.57,0,0,1-.12.74.07.07,0,0,1-.14,0c0-.49-.31-.49-.81-.51H36.66v2.56"/><path class="cls-1" d="M50.44,51.63v.27s-.09,0-.27-.21c-.77-.88-1.59-1.77-3.08-3.27-1.16-1.18-2.1-2.15-2.61-2.63,0,.94,0,3.26.11,5,0,.48.23.8,1,.87a.07.07,0,0,1,0,.14H43.3a.07.07,0,0,1,0-.14h0c.44-.08.6-.19.65-.81.09-1.35.12-3.29.12-4.29V44.15s.09,0,.26.2c.9,1,1.89,2,3.1,3.26,1.06,1.06,2,2,2.61,2.58,0-1.44,0-3-.06-4.7,0-.89-.15-1-.83-1.12,0,0-.08,0-.09,0a.06.06,0,0,1,0-.09,0,0,0,0,1,0,0h2c.1,0,.07.13,0,.13-.46.08-.59.4-.61,1-.07,1.88-.12,3.67-.12,6.33"/><path class="cls-1" d="M54.86,49.73c0-.08.14-.07.14,0,.06,1.18.64,1.93,1.69,1.93a1.46,1.46,0,0,0,1.63-1.27.86.86,0,0,0,0-.16c0-1-.64-1.43-1.75-2A2.5,2.5,0,0,1,55,45.91,1.92,1.92,0,0,1,56.94,44h.18a3.63,3.63,0,0,1,1.13.16.57.57,0,0,1,.43.67v0c0,.17-.08.65-.11.9s-.13.06-.13,0A1.45,1.45,0,0,0,57,44.33a1.26,1.26,0,0,0-1.38,1.11v.21A2,2,0,0,0,57,47.39c1.51.76,2.13,1.41,2.1,2.56a2.16,2.16,0,0,1-2.3,2h-.11a3.29,3.29,0,0,1-1.38-.26.82.82,0,0,1-.5-.65,5.24,5.24,0,0,1,.11-1.31"/><path class="cls-1" d="M64,50.59c0,.73.17.76.81.77a8.34,8.34,0,0,0,1,0c1,0,1.21-.66,1.36-1.43,0-.09.15-.1.15,0a12.21,12.21,0,0,1-.06,1.48c0,.27-.26.37-.72.37s-1.72-.05-2.87-.05H62.29a.07.07,0,1,1,0-.14h0c.65-.07.78-.18.8-1.23V45.63c0-1,0-1.23-.84-1.33-.08,0-.11-.13,0-.13h4c.36,0,.55,0,.53.3s-.08.76-.14,1.17c0,.09-.15.09-.14,0,0-.61-.21-1-.83-1.06a11.77,11.77,0,0,0-1.68,0v3h2c.35,0,.34-.14.43-.13s0,.07,0,.31a4.57,4.57,0,0,1-.12.74.07.07,0,0,1-.14,0c0-.49-.31-.49-.81-.51H64v2.56"/><path class="cls-1" d="M70.82,49.73c0-.08.14-.07.14,0,.06,1.18.64,1.93,1.69,1.93a1.46,1.46,0,0,0,1.63-1.25,1.09,1.09,0,0,0,0-.18c0-1-.64-1.43-1.75-2a2.5,2.5,0,0,1-1.63-2.32A1.93,1.93,0,0,1,72.84,44l.25,0a3.53,3.53,0,0,1,1.12.16.57.57,0,0,1,.43.67v0c0,.17-.08.65-.11.9s-.13.06-.13,0A1.45,1.45,0,0,0,73,44.29h0a1.25,1.25,0,0,0-1.37,1.1,1.62,1.62,0,0,0,0,.22,2,2,0,0,0,1.34,1.74C74.41,48.15,75,48.8,75,50a2.16,2.16,0,0,1-2.3,2h-.11a3.45,3.45,0,0,1-1.38-.26.84.84,0,0,1-.5-.65,5.24,5.24,0,0,1,.11-1.31"/><polygon class="cls-2" points="58.89 34.46 59 34.44 58.98 34.43 58.89 34.46"/><path class="cls-2" d="M58.73,34.57c-.08.09-.26.09-.28.18.08-.06.25-.11.36-.18h-.08Z"/><path class="cls-2" d="M58,35.16h0"/><path class="cls-2" d="M58.09,35h0c.16,0,.16-.11,0,0"/><path class="cls-2" d="M58.44,34.65v.05a.38.38,0,0,1,.11-.05Z"/><path class="cls-2" d="M57.47,35.3a.11.11,0,0,0,.09-.06h-.07v.06"/><path class="cls-2" d="M57.05,35.37h0Z"/><path class="cls-2" d="M56.85,35.4a.31.31,0,0,1-.19,0h.18v-.07"/><path class="cls-2" d="M57.16,35.33c.05,0,.07,0,.07-.06h0Z"/><polygon class="cls-2" points="57.11 35.29 57.19 35.28 57.19 35.28 57.11 35.29"/><path class="cls-2" d="M57.54,35.06c-.1.06,0,.06.08.07s0-.05-.08-.07"/><polygon class="cls-2" points="57.24 35.22 57.28 35.21 57.23 35.2 57.24 35.22"/><path class="cls-2" d="M56.78,35.31H56.6a.38.38,0,0,1,.15,0h0"/><path class="cls-2" d="M56.78,35.3h0"/><path class="cls-2" d="M56.16,35.37h-.09l.09.06"/><path class="cls-2" d="M56.51,35.34h0c.15,0-.1-.06.09,0-.07,0,0-.05-.16-.06s0,.07.07.12h0Z"/><path class="cls-2" d="M57.35,35a.54.54,0,0,0-.07.13.49.49,0,0,1,.14-.11h-.07"/><path class="cls-2" d="M56,35.31l.09.07v-.05Z"/><polygon class="cls-2" points="55.78 35.31 55.83 35.34 55.83 35.3 55.78 35.31"/><path class="cls-2" d="M52.1,31.83c-.05,0,0,.06.08.12a.21.21,0,0,1,0-.11Z"/><path class="cls-2" d="M53.7,34.39l.13.07a.41.41,0,0,0-.13-.07"/><path class="cls-2" d="M53.7,34.39a.57.57,0,0,1-.11-.11h0a.28.28,0,0,0,.14.12"/><path class="cls-2" d="M55.43,35.24h0"/><path class="cls-2" d="M55.68,35.13h-.14s.13.07.12,0"/><polygon class="cls-2" points="55.61 35.05 55.64 35.01 55.58 35 55.61 35.05"/><polygon class="cls-2" points="59.71 33.88 59.7 33.95 59.74 33.87 59.71 33.88"/><polygon class="cls-2" points="46.78 13.58 46.86 13.62 46.77 13.56 46.78 13.58"/><polygon class="cls-2" points="48.63 14.26 48.7 14.31 48.63 14.26 48.63 14.26"/><polygon class="cls-2" points="48.56 14.29 48.56 14.27 48.53 14.26 48.56 14.29"/><polygon class="cls-2" points="49.43 15.05 49.45 15.05 49.44 15.04 49.43 15.05"/><polygon class="cls-2" points="49.6 15.23 49.64 15.25 49.63 15.2 49.6 15.23"/><polygon class="cls-2" points="49.52 15.57 49.56 15.61 49.58 15.56 49.52 15.57"/><polygon class="cls-2" points="45.84 13.42 45.88 13.43 45.94 13.39 45.84 13.42"/><polygon class="cls-2" points="26.99 14.17 27.01 14.18 27.1 14.15 26.99 14.17"/><polygon class="cls-2" points="28.8 13.33 28.8 13.33 28.88 13.31 28.8 13.33"/><polygon class="cls-2" points="28.71 13.4 28.77 13.4 28.75 13.39 28.71 13.4"/><polygon class="cls-2" points="29.91 13.29 29.91 13.3 29.92 13.29 29.91 13.29"/><polygon class="cls-2" points="30.16 13.3 30.21 13.3 30.16 13.27 30.16 13.3"/><polygon class="cls-2" points="30.35 13.6 30.41 13.6 30.38 13.55 30.35 13.6"/><polygon class="cls-2" points="26.24 14.74 26.27 14.72 26.29 14.66 26.24 14.74"/><polygon class="cls-2" points="34.31 6.98 34.32 6.96 34.29 6.87 34.31 6.98"/><polygon class="cls-2" points="33.53 5.22 33.54 5.25 33.54 5.2 33.53 5.22"/><polygon class="cls-2" points="33.43 4.05 33.44 4.05 33.43 4.04 33.43 4.05"/><polygon class="cls-2" points="33.4 3.81 33.44 3.81 33.44 3.76 33.4 3.81"/><polygon class="cls-2" points="33.7 3.59 33.74 3.62 33.74 3.56 33.7 3.59"/><polygon class="cls-2" points="34.88 7.72 34.86 7.69 34.79 7.68 34.88 7.72"/><polygon class="cls-2" points="41.85 31.27 41.81 31.35 41.87 31.26 41.85 31.27"/><polygon class="cls-2" points="41.15 33.2 41.19 33.13 41.19 33.13 41.15 33.2"/><polygon class="cls-2" points="41.16 33.05 41.18 33.05 41.2 33.02 41.16 33.05"/><polygon class="cls-2" points="40.42 33.95 40.43 33.94 40.42 33.94 40.42 33.95"/><polygon class="cls-2" points="40.22 34.15 40.28 34.14 40.24 34.11 40.22 34.15"/><polygon class="cls-2" points="39.86 34.08 39.91 34.09 39.9 34.03 39.86 34.08"/><polygon class="cls-2" points="41.99 30.36 42.02 30.42 42 30.33 41.99 30.36"/><polygon class="cls-2" points="23.39 31.63 23.34 31.71 23.4 31.62 23.39 31.63"/><polygon class="cls-2" points="22.68 33.56 22.72 33.49 22.72 33.49 22.68 33.56"/><polygon class="cls-2" points="22.69 33.41 22.71 33.41 22.73 33.38 22.69 33.41"/><polygon class="cls-2" points="21.95 34.32 21.96 34.31 21.95 34.3 21.95 34.32"/><polygon class="cls-2" points="21.75 34.51 21.81 34.5 21.78 34.47 21.75 34.51"/><polygon class="cls-2" points="21.39 34.44 21.44 34.45 21.43 34.4 21.39 34.44"/><polygon class="cls-2" points="23.52 30.73 23.55 30.78 23.53 30.69 23.52 30.73"/><path class="cls-2" d="M23.47,30.94l.06-.05h-.07V31"/><path class="cls-2" d="M33.76,18.09c.08-.17,0-.13.12-.32-.05.08-.07,0-.11,0l.09-.14h-.07a.54.54,0,0,0,0-.18h0a2.44,2.44,0,0,1,.09-.33.15.15,0,0,0-.09-.19c-.09,0,0-.05,0-.08s.08,0,.05,0h-.05a.43.43,0,0,0,0-.16v0h0a.24.24,0,0,1,0-.12.85.85,0,0,1-.09-.31.43.43,0,0,0-.13-.3V16c-.06-.17-.21-.3-.23-.42h0a1.77,1.77,0,0,0-.15-.31h0L33,15c-.07-.09-.14-.17-.22-.17s-.15-.16-.21-.23h0a.81.81,0,0,1-.18-.19c-.24-.09-.36-.28-.54-.38h0l-.17-.13c0,.06,0,0-.08-.06a.43.43,0,0,0-.24-.1l-.12,0c.13.08,0,0-.06.09l-.06-.07h0c0-.06-.19-.1-.23-.16H30.6c.14-.06-.27-.06-.18-.13-.1.06-.06,0-.13,0a.81.81,0,0,1,.33.14h-.11c0,.1.22,0,.27.07a.15.15,0,0,0-.13,0v-.05a.52.52,0,0,1,.31.16c-.09,0,.1.07,0,.09H30.9l-.34-.11h-.07l-.37-.07c0-.06-.16-.11-.11-.14s0,.05-.17,0,.1,0,.14-.07-.09,0-.09-.07-.17.2-.07.23a.25.25,0,0,1,.17,0,4.19,4.19,0,0,0-3.43,1.18L26.4,15c0-.07,0-.15-.07-.13h.06c-.07,0-.16.18-.25.17l-.09.24s-.07,0-.06,0-.07.1,0,0c-.11.29-.26.55-.39.83a2.26,2.26,0,0,0-.25.85h0a1.65,1.65,0,0,0-.07.16.87.87,0,0,1,.07.17c0,.06-.06,0-.07,0a3.92,3.92,0,0,0,0,.84c0,.07.08,0,.09.08s-.05,0-.05.09v.12s.08.36.21.29c0,.12,0,.11-.06.08a1.51,1.51,0,0,1,.07.37,3.31,3.31,0,0,0,.13.34.63.63,0,0,0,.23.34c-.1,0,0,0,0,.11h-.08a.86.86,0,0,0,.1.16h0c0-.05,0,0,.08,0a.48.48,0,0,1,.07.2h0v.08c0,.05-.08-.22.07-.07,0,0,0,.16.06.18s0-.1,0-.08l.09.11h-.09a4.84,4.84,0,0,0,1,.86c0-.06.27.17.29.06h0c-.09-.07.06,0,.13,0-.09,0,.11.17-.1.07l.05.05H28c1.29,0,3.59-.31,4.44-2.38h.1A5.36,5.36,0,0,1,31,21.75l.14-.07c.07,0,.05,0,0,.07.11-.12.4-.1.44-.15s0-.08,0-.12,0,.14.2,0h-.06c.07,0,.09-.28.18-.3v.06c.14,0,.2-.31.28-.24v.05c.15-.21.1-.05.25-.26h0c.09-.06.08-.15.18-.13h0a1.29,1.29,0,0,0,.19-.21s.07-.05.07-.08.23-.24.26-.29-.07,0-.07,0a.21.21,0,0,0,.12-.15c0-.1.17.06.26-.1,0,0,0,.06-.06,0s0,0,0-.06h-.06c-.06,0,.1-.18.2-.33h-.06c-.06,0,0-.26.11-.15a2.63,2.63,0,0,1,.14-.57,1,1,0,0,0,0-.42v-.19Zm-7.95,1.82Zm4.24-6.35h0m1.4.17h0m.1.32h.09a.4.4,0,0,1-.15-.1h.11a.34.34,0,0,1-.27-.1s0-.12.09-.13a.25.25,0,0,1,.2.14.52.52,0,0,0,.2.19s0-.09.1,0a.5.5,0,0,1,.16.28,2.75,2.75,0,0,0-.53-.36m1,.79h.06a.21.21,0,0,1,0,.11l-.09-.1M33,20.05V20h0v-.06h.06l-.12.12m.12-4.5L33,15.43l.06-.06H33l-.08-.12h0a2.2,2.2,0,0,1,.25.17.59.59,0,0,1-.11.1m.39.89a1.72,1.72,0,0,0-.07-.21l.08-.23v.14h0a.52.52,0,0,1-.07.27m.18,1.4v-.1s.07,0,.09,0a.47.47,0,0,1-.1.1"/><path class="cls-2" d="M42.11,4.67h0a.35.35,0,0,0,.07-.28h0V4.12c-.08,0-.06-.11-.06-.23s0-.26-.09-.28,0-.25,0-.34h0c.06-.12-.11-.27-.14-.38s0-.06.06,0-.09-.41-.14-.44-.08,0-.12,0,.14,0,0-.2v.06s-.28-.09-.3-.18h0c0-.15-.29-.2-.23-.28h0c-.21-.15,0-.1-.26-.25h0c-.06-.09-.15-.09-.13-.18h0l-.21-.2s-.05-.06-.08-.06S40.24.93,40.19.9s0,.07,0,.07A.28.28,0,0,0,40,.84a.24.24,0,0,0,0-.12q-.37,0-.75,0C38,.66,35.74,1,34.89,3.05h-.1A5.67,5.67,0,0,1,36.19.5h.09l.2-.17h-.13A.51.51,0,0,0,36,.46s.07-.05.09,0c-.17.06-.3.21-.41.23h0a1.77,1.77,0,0,0-.31.15h0A2.2,2.2,0,0,1,35,.91c-.1.07-.18.15-.18.23s-.16.15-.23.21h0a.77.77,0,0,1-.18.18c-.09.23-.28.36-.39.54h0l0,.21c.06,0,0,0-.06.09a.52.52,0,0,0-.1.23v.13c.08-.13,0,0,.08.06l-.06.06h0s-.1.2-.16.24,0,0,0-.06h0c0,.11,0,.06-.05.06s0,.18,0,.29c-.06-.14-.06.27-.13.18.06.1,0,.06,0,.13a1,1,0,0,1,.15-.33v.11c.1,0,0-.22.07-.27a.15.15,0,0,0,0,.13h-.05A.66.66,0,0,1,33.81,3c0,.09.08-.09.1,0v.06h0s-.08.23-.11.35h0v.07h0a2.66,2.66,0,0,1-.07.37c0,.13-.11.16-.15.11s.06,0,0,.17S33.52,4,33.51,4s0,.09-.07.09.2.16.23.07a.25.25,0,0,1,0-.17,4.14,4.14,0,0,0,1.18,3.42l.18.16c-.07,0-.15,0-.13.08l0-.06c0,.06.18.16.17.24l.24.1s0,.07,0,.05.09.08,0,.06a6.81,6.81,0,0,1,.82.39,2.58,2.58,0,0,0,.86.25h0l.16.08.17-.07c.06,0,0,.06,0,.07h.84c.08,0,0-.07.08-.09s0,.06.1.06h.12s.36-.08.29-.21h.08a2.2,2.2,0,0,1,.37-.06l.34-.13c.16-.07.31-.15.34-.23,0,.1,0,0,.11,0v.09l.16-.1h0V8c0-.08.13,0,.2-.07V8h.07c.06,0-.21.09-.06-.06s.16,0,.17-.07-.09,0-.07,0l.11-.09v.09a4.84,4.84,0,0,0,.86-1c-.06,0,.17-.27.06-.29h0c-.07.09,0-.07,0-.14,0,.1.16-.1.07.11l.12-.14c.11,0,.16-.11.2-.25A1.75,1.75,0,0,1,42,5.73h0c.14-.21.09-.53.12-.58h0a.58.58,0,0,0,.1-.46M35.59.77a.27.27,0,0,1,.1.11L35.56,1,35.5.9V1l-.12.08h0A.85.85,0,0,1,35.55.8M35,1.35l-.1.1V1.39h.12m-1.22,1.2h0M33.68,4h0m.49-1.5V2.4a.4.4,0,0,1-.1.15V2.44a.35.35,0,0,1-.1.27s-.12,0-.13-.09a.25.25,0,0,1,.14-.2.52.52,0,0,0,.19-.2s-.09,0,0-.1A.53.53,0,0,1,34.45,2a4.41,4.41,0,0,0-.35.53M40,8.23ZM40.11,1h0L40,.93h0V.87l.12.12H40"/><path class="cls-2" d="M60.79,31.5a4.7,4.7,0,0,0,0-.84c0-.08-.07,0-.09-.08.06.07.06,0,.06-.09v-.13s-.08-.36-.21-.28c0-.12,0-.12.05-.08a2.2,2.2,0,0,1-.06-.37l-.13-.34c-.06-.15-.15-.31-.23-.34.1,0,0,0,0-.11h.09a.86.86,0,0,0-.1-.16h-.09a.51.51,0,0,1-.06-.21h0l0-.1c0-.05.09.22-.06.07,0,0,0-.16-.07-.18s0,.1,0,.08l-.09-.12h.09a4.84,4.84,0,0,0-1-.86c0,.05-.28-.17-.29-.06h0c.09.06-.07.05-.14,0,.1,0-.1-.17.11-.07l0-.05H58c-1.3,0-3.59.31-4.44,2.39h-.1A5.31,5.31,0,0,1,55,26.85l-.14.08c-.07,0,0,0,0-.07s-.4.1-.43.15,0,.07,0,.12,0-.14-.2,0h.06s-.1.28-.18.29v-.05c-.15.05-.2.3-.28.23h0c-.16.2-.1,0-.25.26h0c-.09.07-.09.15-.18.14h0a2.09,2.09,0,0,0-.2.22s-.06.05-.06.08-.23.23-.26.29.06,0,.07,0a.17.17,0,0,0-.13.16c-.07,0-.16-.06-.25.09h0v.06c0,.06,0,0,.06,0s-.1.18-.2.33h0s0,.25-.1.15a3.37,3.37,0,0,1-.14.57,1,1,0,0,0,0,.42v.19h0c-.09.16,0,.13-.12.32,0-.08.07,0,.11,0l-.09.14h.07a.28.28,0,0,0,0,.18h0a2,2,0,0,1-.09.32.16.16,0,0,0,.09.2.11.11,0,0,0,0,.08h0a.38.38,0,0,0,0,.15v0h0a.24.24,0,0,1,0,.12.61.61,0,0,1,.08.3.64.64,0,0,0,.11.27h0c.07.17.22.29.24.41h0a1.77,1.77,0,0,0,.15.31h0c0,.06.12.17.19.27s.14.18.22.18.15.15.21.23h0a.81.81,0,0,1,.18.19c.24.08.36.28.54.38h0l.16.14c0-.06,0,0,.09.06a.52.52,0,0,0,.23.1h.13c-.13-.08,0,0,.06-.09l.06.07h0c0,.06.2.09.24.16h.29c-.14.07.27.06.18.13h.13a.67.67,0,0,1-.33-.15h.11c0-.09-.22,0-.27-.06s.12,0,.13,0V35a.65.65,0,0,1-.32-.16c.1,0-.09-.07,0-.09H55l.34.1h0l.37.08c0,.06.16.1.11.14s0,0,.17,0-.11.06-.14.08.09,0,.09.07.16-.2.07-.24a.17.17,0,0,1-.17,0,4.1,4.1,0,0,0,3.42-1.18,1.29,1.29,0,0,0,.16-.17c0,.07,0,.14.08.13l-.06.05c.06,0,.16-.18.24-.18a2.44,2.44,0,0,0,.1-.24h0s.08-.09.06,0a6.94,6.94,0,0,1,.39-.83,2.53,2.53,0,0,0,.25-.85h0a1.11,1.11,0,0,0,.08-.16.87.87,0,0,1-.07-.17c0-.06.06,0,.08,0m-8.47-.63h-.09l.1-.11v.11m.18,1.74v-.15h0a.42.42,0,0,1,.07-.27,1.72,1.72,0,0,0,.07.21l-.08.23m.57-4v.09h0v.07h-.06l.12-.13m0,4.78a1.44,1.44,0,0,1-.25-.18l.11-.1.08.13-.06.06H53l.08.12h0m.34.45a.21.21,0,0,1,0-.11l.08.1h0m1.16,1.1h0m0-.06a.22.22,0,0,1-.2-.13.52.52,0,0,0-.2-.19s0,.09-.1,0a.62.62,0,0,1-.17-.28,5.07,5.07,0,0,0,.54.36.14.14,0,0,0-.09,0,.21.21,0,0,1,.14.1h-.1a.35.35,0,0,1,.27.1c.11.1,0,.12-.09.12m1.34.23Zm4.24-6.37h0"/><path class="cls-2" d="M50.45,18.13v-.31h0a.57.57,0,0,1,0-.26,3,3,0,0,1-.1-.66h0v-.31a.43.43,0,0,0-.1-.24v-.13c0,.15-.06,0-.11,0v-.09h0c0-.06-.07-.21,0-.27h0c-.06-.09,0-.06,0-.07a.47.47,0,0,0-.23-.19c.14.05-.14-.24,0-.22-.11,0,0-.05-.12-.06a.66.66,0,0,1,.12.33l-.09-.06c0,.1.14.17.14.24s-.06-.11-.08-.1H50a.65.65,0,0,1,.11.33c-.06-.07,0,.12-.06.08v-.07h0l-.17-.32h0v-.06h0c-.06-.1-.12-.2-.19-.3s0-.2,0-.18-.07,0-.13-.11.12,0,.15.05,0-.11,0-.12-.25,0-.21.11L49.11,15h0a3.92,3.92,0,0,0-1.38-1h-.17c-1.29,0-3.59.31-4.44,2.39H43a5.42,5.42,0,0,1,1.53-2.62h0a2.38,2.38,0,0,0-.79.41h0a.24.24,0,0,0-.16.06.65.65,0,0,0-.08.17c0,.06,0,0-.06,0-.25.17-.41.44-.61.58,0,.08.07,0,0,.12,0-.08,0,0-.11,0s-.11.12-.11.07c0,.14-.2.31-.06.35-.06.1-.1,0-.09,0a1.29,1.29,0,0,1-.22.3l-.16.33a.78.78,0,0,0-.08.4c0-.1,0,0-.09.07v.09h0v.08a.26.26,0,0,1-.1.19h0v.08c0,.07.1-.21.09,0,0,0-.11.11-.08.17,0-.1.06-.08.07,0a.63.63,0,0,1,0,.14l-.07-.05a5.83,5.83,0,0,0,.09,1.32c.06,0,.07.31.16.25h0c0-.11.08,0,.09.1-.06-.08,0,.19-.12,0v.19c-.08.07,0,.19,0,.31a1.87,1.87,0,0,1,.2.4h0c.06.25.32.45.32.5h.06a.56.56,0,0,0,.25.41h0a.35.35,0,0,0,.14.25h0l.19.18c.05-.06.11,0,.2.13s.17.19.25.14.17.18.24.25h0s.26.11.36.17,0,.06,0,.07c.16,0,.34.22.41.21s.06-.05.09-.07-.06.13.16.13h0c.07,0,.26-.13.33-.08H45.2c.14.07.35-.07.36,0h1.32c-.1,0-.06,0,0-.06a.18.18,0,0,0,.2,0c0,.07.06.16.25.11h0s.21,0,.39-.09c-.07,0,0,0,0-.07s.2-.16.18,0c.15-.1.34-.2.51-.3a1.09,1.09,0,0,0,.33-.27c0-.05.11-.06.16-.1h0A2.71,2.71,0,0,0,49,21c-.09,0-.08,0,0-.1h.16v-.07a.25.25,0,0,0,.13-.12h0a2.35,2.35,0,0,1,.29-.16.16.16,0,0,0,.08-.2h.06s0,.08.06,0h0V20.3l.09-.11v0h0a.17.17,0,0,1,.06-.1A.61.61,0,0,1,50,19.8a.54.54,0,0,0,.13-.32v.09c.08-.17.06-.36.13-.46h0a.93.93,0,0,0,.12-.33h0a2.71,2.71,0,0,1,.07-.32.34.34,0,0,0,0-.28m-8.61-1.39h0m5,5.2h-.17l.06-.06h.16V22m1.9-1,.07-.07A.23.23,0,0,0,49,21h-.14m.43-5.74a.19.19,0,0,1,.11.14l-.11-.14m.13.16h0m.85,1.12h0m-.31,3.16h0a.49.49,0,0,1-.24.14,1.24,1.24,0,0,0,.1-.2l.22-.1a.52.52,0,0,1-.1.11m.14-.71v-.14h0v-.14h0a.76.76,0,0,1,0,.3h-.14m.13-.75v-.13h0a.21.21,0,0,1-.06.1m0-.77a4.1,4.1,0,0,0-.11-.61.06.06,0,0,0,0,.06.25.25,0,0,1,0-.17.31.31,0,0,0,.05.1c0-.09-.09-.14-.11-.26s.06-.1.15,0a.24.24,0,0,1,0,.23A.45.45,0,0,0,50,17s0-.08.06.08a.49.49,0,0,1-.09.31"/><path class="cls-2" d="M39.87,34.18c-.1,0-.17.13-.24.14a.15.15,0,0,0,.11-.08v.07a.68.68,0,0,1-.34.11h-.06a2.54,2.54,0,0,1-.54.44h.1a.5.5,0,0,0,.24-.09h.12c-.15,0,0-.06,0-.11h.09c.06,0,.21-.07.28,0v0h0c.09-.06.06,0,.07,0a.52.52,0,0,0,.19-.23c-.06.15.23-.14.21,0,0-.11,0,0,.06-.12a.79.79,0,0,1-.33.13Zm-.83.54h0"/><path class="cls-2" d="M41.84,29.93s0-.05.06,0,0-.12,0,0c-.13-.28-.21-.57-.31-.85a2.18,2.18,0,0,0-.43-.79h0a.25.25,0,0,0-.06-.16L41,28v-.06c-.17-.25-.44-.4-.59-.6-.08,0,0,.06-.12,0,.09,0,0,0,0-.11s-.13-.11-.07-.11c-.14,0-.31-.19-.35-.05-.11-.06-.06-.11,0-.1a1.05,1.05,0,0,1-.3-.22,2,2,0,0,1-.34-.14.69.69,0,0,0-.4-.08c.1,0,0,0-.07-.09h-.17a.34.34,0,0,1-.19-.09h-.09c-.06,0,.22.1,0,.09,0,0-.1-.11-.17-.07.11,0,.09.05,0,.06H38l.06-.06a4.5,4.5,0,0,0-1.32.1c0,.06-.31.08-.25.16h0c.1,0,0,.08-.1.1.08-.06-.19-.05,0-.13H36.2c-.07-.07-.19,0-.31,0a2.42,2.42,0,0,1-.39.21h0c-.25.06-.44.32-.5.32v.06a.59.59,0,0,0-.39.26h0a.42.42,0,0,0-.25.16h0l-.19.19c.06.05,0,.12-.12.2s-.19.18-.14.26-.18.17-.24.24h0c-.12.05-.11.27-.16.37s-.06,0-.08,0c0,.16-.21.35-.2.42s0,.05.07.09-.13-.06-.13.16h0c0,.06.13.27.08.34v-.06c-.07.14.07.35,0,.36h0v.36h0c0,.11,0,.17,0,.22h0a1.41,1.41,0,0,0,0,.29v.5c0-.12,0-.07.06,0a.15.15,0,0,0,0,.2c-.08,0-.16.07-.12.25v-.07a.11.11,0,0,1,0,.08h0a.93.93,0,0,0,.09.38c0-.06,0,0,.07,0s.16.19,0,.18c.1.14.2.34.3.5a.79.79,0,0,0,.28.32l.09.17h0a1.83,1.83,0,0,0,.14.32c0-.09,0-.08.1-.06s0,.11,0,.16h.06a.27.27,0,0,0,.13.13h0a1.71,1.71,0,0,1,.17.29.14.14,0,0,0,.2.07v.07s-.08,0,0,.06h0l.11.09h.38v-.1l.2.09h.19c1.3,0,3.59-.31,4.44-2.38h.1a5.64,5.64,0,0,1-1.17,2.28l.26-.14h.06l.3-.2h.18s0-.07.11-.13,0,.11-.05.15.11,0,.12,0,0-.25-.12-.21a.17.17,0,0,1-.13.1,4.1,4.1,0,0,0,1.59-3.25v-.24c.06.05.11.1.15,0v.08c.07,0,0-.24,0-.29l-.09-.24m-8,1.29h0v-.12h0v.08h0m1,2v-.14l.07.08s-.05,0-.07.06m4.06-7.15h0m1.5,7.5Z"/><path class="cls-2" d="M23.36,30.29h.07s0-.11,0,0c-.13-.28-.21-.57-.31-.85a2.18,2.18,0,0,0-.43-.79h0a.24.24,0,0,0-.06-.16l-.16-.08v-.06c-.17-.25-.44-.4-.59-.6-.08,0,0,.07-.11,0,.08,0,0-.05,0-.1s-.12-.12-.07-.12c-.14,0-.32-.19-.35,0-.11-.06-.05-.1,0-.1l-.21-.14H20.6c-1.3,0-3.59.31-4.44,2.39h-.1A5.25,5.25,0,0,1,17.69,27a.41.41,0,0,0-.26.07,2.42,2.42,0,0,1-.39.21h0c-.24.06-.44.32-.5.33v.05a.61.61,0,0,0-.4.26h0a.37.37,0,0,0-.25.15h0l-.18.19c0,.05,0,.12-.13.2s-.18.19-.13.27-.18.17-.24.23h0c-.12.05-.11.27-.16.37s-.06,0-.07,0c0,.16-.22.35-.21.41s.05.06.07.1-.13-.07-.12.15h0c0,.06.14.26.09.33v-.06c-.07.14.07.36,0,.36h0V31h0v.23h0a1.41,1.41,0,0,0,0,.29.17.17,0,0,0,0,.1c-.07,0,0,.33,0,.39,0-.11,0-.07.06,0a.15.15,0,0,0,0,.2c-.08,0-.16.07-.12.25v0s0-.05.05,0,0,.2.09.38c0-.07,0,0,.07,0s.16.19,0,.18c.1.15.2.34.3.5a1.22,1.22,0,0,0,.27.33l.11.16h0A2.19,2.19,0,0,0,16,34c0-.09,0-.08.11,0v.15h.06a.37.37,0,0,0,.13.12h0a1.78,1.78,0,0,1,.16.29.15.15,0,0,0,.2.07v.07s-.07,0,0,.06h.05l.12.09h0a.21.21,0,0,1,.1.06.78.78,0,0,1,.28.16.47.47,0,0,0,.32.12h-.09c.17.08.36.06.46.13h0a1.28,1.28,0,0,0,.33.11h0l.31.07a.37.37,0,0,0,.29,0h.55a5,5,0,0,1,.66-.1h.31a.43.43,0,0,0,.24-.1h.12c-.14,0,0-.06,0-.1h.09c.06,0,.21-.07.28,0v0h0c.09-.06.06,0,.07,0a.58.58,0,0,0,.19-.24c-.06.15.23-.14.21,0,0-.11.05,0,.06-.12a.79.79,0,0,1-.33.13l.06-.09c-.1,0-.17.14-.24.14a.15.15,0,0,0,.11-.08V35a.6.6,0,0,1-.34.11c.08-.06-.11,0-.07-.06h.06l.33-.17h0l.3-.2h.18s0-.06.11-.13,0,.11,0,.15.11,0,.12,0,0-.25-.12-.21a.16.16,0,0,1-.13.11l.13-.11L22,34s0,0,.05,0h0a4.12,4.12,0,0,0,1.33-3v-.24c.06,0,.11.11.15,0v.08c.06,0,0-.25,0-.3a2.44,2.44,0,0,0-.1-.24m-8.3,1.57h0s0,0-.05,0v-.17l.06.06v.08h0a.11.11,0,0,0,0,.08h0m1,2v-.14l.07.08s-.05,0-.07.06m1.31,1h0a.44.44,0,0,1-.15-.23l.2.1.11.21-.12-.09m1,.22a1,1,0,0,1-.3,0,.2.2,0,0,1,0-.15h.14v0h.14m.56.08-.11-.06H19v0m1.34-.06a.66.66,0,0,0-.28,0s.08.05-.08.06a.49.49,0,0,1-.31-.09,3.14,3.14,0,0,0,.61-.12h-.07a.28.28,0,0,1,.18,0l-.1.05c.09,0,.13-.09.26-.11s.1.06,0,.15a.24.24,0,0,1-.23,0m.26,0h0m1.08-.86Z"/><polygon class="cls-2" points="58.89 34.46 59 34.44 58.98 34.43 58.89 34.46"/><polygon class="cls-2" points="57.11 35.29 57.19 35.28 57.19 35.28 57.11 35.29"/><polygon class="cls-2" points="57.24 35.22 57.28 35.21 57.23 35.2 57.24 35.22"/><polygon class="cls-2" points="55.78 35.31 55.83 35.34 55.83 35.3 55.78 35.31"/><polygon class="cls-2" points="55.61 35.05 55.64 35.01 55.58 35 55.61 35.05"/><polygon class="cls-2" points="59.71 33.88 59.7 33.95 59.74 33.87 59.71 33.88"/><polygon class="cls-2" points="46.78 13.58 46.86 13.62 46.77 13.56 46.78 13.58"/><polygon class="cls-2" points="48.63 14.26 48.7 14.31 48.63 14.26 48.63 14.26"/><polygon class="cls-2" points="48.56 14.29 48.56 14.27 48.53 14.26 48.56 14.29"/><polygon class="cls-2" points="49.43 15.05 49.45 15.05 49.44 15.04 49.43 15.05"/><polygon class="cls-2" points="49.6 15.23 49.64 15.25 49.63 15.2 49.6 15.23"/><polygon class="cls-2" points="49.52 15.57 49.56 15.61 49.58 15.56 49.52 15.57"/><polygon class="cls-2" points="45.84 13.42 45.88 13.43 45.94 13.39 45.84 13.42"/><path class="cls-3" d="M12.58,60.05a4.19,4.19,0,0,1,.5,0,1.91,1.91,0,0,1,.47.12.56.56,0,0,1,.17.11.41.41,0,0,1,0,.21,2.72,2.72,0,0,1,0,.28l0,.3s0,0,0,0a0,0,0,0,1,0,0,.86.86,0,0,0-.12-.41.73.73,0,0,0-.24-.28,1,1,0,0,0-.34-.16,1.84,1.84,0,0,0-.41,0,1.7,1.7,0,0,0-.61.1,1.17,1.17,0,0,0-.47.31,1.53,1.53,0,0,0-.29.52,2.53,2.53,0,0,0-.09.72,2.39,2.39,0,0,0,.14.76,1.36,1.36,0,0,0,.35.51,1.44,1.44,0,0,0,.49.3,1.81,1.81,0,0,0,.58.09,1.56,1.56,0,0,0,.46-.06.73.73,0,0,0,.31-.18.68.68,0,0,0,.2-.27,1.36,1.36,0,0,0,.1-.36s0,0,0,0,0,0,0,0,0,.13,0,.2V63a1.44,1.44,0,0,1,0,.24.53.53,0,0,1-.06.13.2.2,0,0,1-.08.08l-.12.06-.32.1a3,3,0,0,1-.57,0,2.68,2.68,0,0,1-.83-.12,2,2,0,0,1-.62-.36,1.49,1.49,0,0,1-.39-.56,1.65,1.65,0,0,1-.14-.72,2.11,2.11,0,0,1,.13-.77,1.54,1.54,0,0,1,.38-.58,1.71,1.71,0,0,1,.61-.38A2.55,2.55,0,0,1,12.58,60.05Z"/><path class="cls-3" d="M15.4,62.93c0-.2,0-.39,0-.59v-1.4a2.81,2.81,0,0,1,0-.3.59.59,0,0,0-.09-.33.52.52,0,0,0-.3-.12s0,0,0,0,0,0,0,0h.54l.33,0c.13,0,.25,0,.37,0a1.48,1.48,0,0,1,.58.1.78.78,0,0,1,.49.53,1.49,1.49,0,0,1,0,.28.92.92,0,0,1-.16.55,1.3,1.3,0,0,1-.46.4l.2.3.33.44.34.4a1.75,1.75,0,0,0,.29.26.41.41,0,0,0,.21.1l.19,0a0,0,0,0,1,0,0s0,0,0,0h-.41l-.12,0a.82.82,0,0,1-.25-.07.62.62,0,0,1-.22-.15,1.94,1.94,0,0,1-.23-.25c-.08-.1-.18-.24-.29-.4l-.23-.33a3.31,3.31,0,0,1-.18-.29,2.71,2.71,0,0,1-.57,0v.5c0,.15,0,.26,0,.35a2.41,2.41,0,0,0,0,.31.38.38,0,0,0,.06.17.21.21,0,0,0,.11.08l.2,0s0,0,0,0,0,0,0,0l-.33,0h-.51l-.31,0s0,0,0,0,0,0,0,0a.61.61,0,0,0,.17,0,.14.14,0,0,0,.11-.07.38.38,0,0,0,.06-.17A2.33,2.33,0,0,0,15.4,62.93ZM17,61.17a1,1,0,0,0-.18-.62.74.74,0,0,0-.57-.27h-.43V61.9l.31,0a2.3,2.3,0,0,0,.36,0,.36.36,0,0,0,.23-.08.52.52,0,0,0,.16-.17.85.85,0,0,0,.09-.24A1.09,1.09,0,0,0,17,61.17Z"/><path class="cls-3" d="M20.37,60.17a.27.27,0,0,1,0-.08l0,0a0,0,0,0,1,0,0,.27.27,0,0,1,0,.08c0,.11.09.28.18.5l.27.75.32.86c.12.3.23.58.34.84a1.14,1.14,0,0,0,.09.19.4.4,0,0,0,.1.12.23.23,0,0,0,.12.06l.16,0s0,0,0,0,0,0,0,0H21a0,0,0,1,1,0-.06c.11,0,.18,0,.2-.08s0-.13,0-.26-.09-.28-.15-.44l-.18-.51H19.75a2.07,2.07,0,0,0-.08.2l-.09.24-.09.26c0,.08,0,.16-.07.24a.74.74,0,0,0,0,.18.19.19,0,0,0,.05.1.19.19,0,0,0,.09,0l.13,0a0,0,0,0,1,0,.06h-1a0,0,0,0,1,0,0s0,0,0,0l.11,0,.11,0,.12-.09a1.18,1.18,0,0,0,.11-.15c.08-.15.17-.34.26-.56l.27-.67Zm.41,1.9c-.07-.21-.15-.42-.22-.62s-.16-.43-.25-.65a2.93,2.93,0,0,1-.12.28c0,.11-.09.22-.14.34l-.25.65h1Z"/><path class="cls-3" d="M26.31,60.63c0,.22,0,.43,0,.65s0,.43,0,.66,0,.48,0,.74,0,.54,0,.85v.1s0,0,0,0,0,0,0,0l-.08-.08-.28-.31c-.09-.11-.2-.22-.31-.34l-.37-.39-.45-.46c-.27-.27-.51-.51-.71-.73s-.37-.37-.49-.47v.42c0,.18,0,.37,0,.58s0,.43,0,.65,0,.42,0,.62a.46.46,0,0,0,.1.27.52.52,0,0,0,.35.13,0,0,0,0,1,0,0,0,0,0,0,1,0,0H23s0,0,0,0a0,0,0,0,1,0,0,.35.35,0,0,0,.21-.1.46.46,0,0,0,.08-.28c0-.15,0-.32,0-.5s0-.36,0-.54v-.5c0-.16,0-.3,0-.41v-.49c0-.17,0-.34,0-.51v-.08l0,0h0l.08.08.66.71c.23.24.48.51.76.78l.66.67.53.51v-1c0-.35,0-.73,0-1.11a1.57,1.57,0,0,0,0-.25.34.34,0,0,0-.06-.15.31.31,0,0,0-.11-.08l-.19,0s0,0,0,0a0,0,0,0,1,0,0h.93a0,0,0,0,1,0,.06.3.3,0,0,0-.22.14A1,1,0,0,0,26.31,60.63Z"/><path class="cls-3" d="M28,63.25c0-.09,0-.19,0-.3a2,2,0,0,1,0-.29s0,0,0,0,0,0,0,0a1.11,1.11,0,0,0,.22.64.68.68,0,0,0,.56.24.74.74,0,0,0,.55-.19.61.61,0,0,0,.2-.46.85.85,0,0,0-.05-.3.78.78,0,0,0-.16-.24,1.26,1.26,0,0,0-.25-.19L28.84,62a1.75,1.75,0,0,1-.29-.18,1.26,1.26,0,0,1-.24-.22,1,1,0,0,1-.16-.29,1.06,1.06,0,0,1-.06-.37.84.84,0,0,1,.28-.62,1,1,0,0,1,.72-.24,1.39,1.39,0,0,1,.3,0,.81.81,0,0,1,.21.05.37.37,0,0,1,.16.1.41.41,0,0,1,0,.21,1.78,1.78,0,0,0,0,.2,2,2,0,0,0,0,.22s0,0,0,0,0,0,0,0a.7.7,0,0,0-.05-.25.54.54,0,0,0-.13-.22.62.62,0,0,0-.2-.15.78.78,0,0,0-.28-.05.66.66,0,0,0-.45.15.55.55,0,0,0-.18.45.65.65,0,0,0,.18.48,1.53,1.53,0,0,0,.43.31c.18.09.32.18.45.26a1.59,1.59,0,0,1,.3.27.85.85,0,0,1,.17.29,1,1,0,0,1,0,.36.79.79,0,0,1-.09.38.89.89,0,0,1-.23.28,1,1,0,0,1-.35.19,1.44,1.44,0,0,1-.43.06,2,2,0,0,1-.37,0l-.26-.08a.37.37,0,0,1-.15-.13A.3.3,0,0,1,28,63.25Z"/><path class="cls-3" d="M31.12,62.05h1.3v.31h-1.3Z"/><path class="cls-3" d="M36.38,62l-.2.41c-.07.13-.13.25-.19.38l-.16.36c-.06.12-.11.25-.16.38s0,.06-.05.06,0,0,0-.05-.08-.18-.15-.32-.14-.28-.23-.44-.17-.34-.27-.52l-.27-.51-.24-.43-.17-.3,0,.49c0,.17,0,.35,0,.53l0,.54c0,.18,0,.35,0,.51a.75.75,0,0,0,0,.23.19.19,0,0,0,.07.12.33.33,0,0,0,.12.05l.17,0s0,0,0,0,0,0,0,0h-1s0,0,0,0a0,0,0,0,1,0,0l.16,0a.41.41,0,0,0,.11-.07.67.67,0,0,0,.06-.12c0-.06,0-.13,0-.22.06-.49.11-1,.17-1.45s.09-1,.13-1.46c0-.07,0-.11.05-.11a.05.05,0,0,1,0,0l0,.07.14.28.21.42.26.49c.09.18.19.36.29.54s.19.35.28.52.18.33.26.47c.05-.09.13-.24.22-.43l.33-.66c.07-.13.14-.28.21-.43l.21-.44.21-.42.17-.36,0-.07s0,0,0,0l0,0s0,0,0,.1,0,.27,0,.44,0,.34.06.53l.06.57c0,.2,0,.39.07.57s.05.34.07.49,0,.27.05.37l0,.18.06.11.09.06.14,0s0,0,0,0,0,0,0,0H37s0,0,0,0,0,0,0,0a.19.19,0,0,0,.11-.05.37.37,0,0,0,0-.21c0-.13,0-.29,0-.49s0-.42-.07-.64,0-.43-.07-.64,0-.37-.06-.5l-.09.18-.12.24-.14.28Z"/><path class="cls-3" d="M42.62,61.8a2,2,0,0,1-.14.74,1.9,1.9,0,0,1-.39.59,1.74,1.74,0,0,1-.58.39,1.8,1.8,0,0,1-.73.15,2.38,2.38,0,0,1-.73-.11,1.59,1.59,0,0,1-.58-.33,1.43,1.43,0,0,1-.38-.54,2.08,2.08,0,0,1-.16-.75,1.85,1.85,0,0,1,.12-.75,1.8,1.8,0,0,1,.4-.6,1.72,1.72,0,0,1,.62-.39,2,2,0,0,1,.79-.15,1.79,1.79,0,0,1,.75.15,1.71,1.71,0,0,1,.55.39,1.62,1.62,0,0,1,.34.56A1.78,1.78,0,0,1,42.62,61.8Zm-2-1.58a1.25,1.25,0,0,0-.56.13,1,1,0,0,0-.39.34,1.34,1.34,0,0,0-.24.51,2.63,2.63,0,0,0-.08.65,2.43,2.43,0,0,0,.1.68,1.46,1.46,0,0,0,.29.52,1.24,1.24,0,0,0,.44.35,1.46,1.46,0,0,0,.6.12,1.32,1.32,0,0,0,.57-.11,1.22,1.22,0,0,0,.43-.31,1.42,1.42,0,0,0,.28-.46,1.89,1.89,0,0,0,.09-.6,2.57,2.57,0,0,0-.09-.67,2,2,0,0,0-.27-.6,1.46,1.46,0,0,0-.48-.41A1.35,1.35,0,0,0,40.65,60.22Z"/><path class="cls-3" d="M47.18,60.63l0,.65c0,.21,0,.43,0,.66s0,.48,0,.74v1l0,0s0,0,0,0L47,63.56l-.27-.31-.31-.34L46,62.52l-.46-.46-.71-.73a6.5,6.5,0,0,0-.48-.47v.42c0,.18,0,.37,0,.58s0,.43,0,.65,0,.42,0,.62a.41.41,0,0,0,.1.27.52.52,0,0,0,.34.13s0,0,0,0,0,0,0,0h-1a0,0,0,0,1,0-.06.41.41,0,0,0,.22-.1.46.46,0,0,0,.08-.28c0-.15,0-.32,0-.5s0-.36,0-.54,0-.34,0-.5V60.12l0,0h0l.09.08c.2.23.42.47.65.71s.49.51.77.78l.66.67.53.51v-1c0-.35,0-.73,0-1.11,0-.1,0-.19,0-.25a.25.25,0,0,0-.05-.15l-.11-.08-.19,0a0,0,0,0,1,0-.06h.93a0,0,0,0,1,0,0l0,0a.3.3,0,0,0-.22.14A.75.75,0,0,0,47.18,60.63Z"/><path class="cls-3" d="M51.54,60.25v.13c0,.06,0,.12,0,.18v.18c0,.06,0,.1,0,.14a0,0,0,0,1,0,0,0,0,0,0,1,0,0,1.56,1.56,0,0,0,0-.27.48.48,0,0,0-.08-.16.39.39,0,0,0-.14-.08.48.48,0,0,0-.18,0h-.83a.19.19,0,0,0,0,.08v.12a.57.57,0,0,0,0,.13V63a2.11,2.11,0,0,0,0,.3.34.34,0,0,0,.08.16.24.24,0,0,0,.13.08l.2,0a0,0,0,0,1,0,0s0,0,0,0H49.38s0,0,0,0,0,0,0,0l.14,0a.31.31,0,0,0,.13-.06.35.35,0,0,0,.08-.15,1.08,1.08,0,0,0,0-.3V61.9c0-.21,0-.42,0-.62V60.4a.19.19,0,0,0,0-.08h-.41l-.33,0-.27,0a.35.35,0,0,0-.16.09.27.27,0,0,0-.08.16,1.45,1.45,0,0,0,0,.25s0,0,0,0,0,0,0,0,0-.06,0-.11v-.43a.71.71,0,0,1,0-.19s0,0,0,0l.06,0,.11,0h.47l.4,0h1.37l.52,0a.17.17,0,0,0,.1,0l0,0s0,0,0,0S51.54,60.18,51.54,60.25Z"/><path class="cls-3" d="M53.68,60.17l0-.08,0,0,0,0,0,.08.18.5.27.75.32.86c.12.3.23.58.34.84a1.14,1.14,0,0,0,.09.19.4.4,0,0,0,.1.12.23.23,0,0,0,.12.06l.17,0s0,0,0,0a0,0,0,0,1,0,0H54.3a0,0,0,0,1,0,0s0,0,0,0,.18,0,.2-.08,0-.13,0-.26-.09-.28-.15-.44l-.18-.51H53.06a2.07,2.07,0,0,0-.08.2l-.09.24-.09.26c0,.08,0,.16-.07.24a.74.74,0,0,0,0,.18.19.19,0,0,0,0,.1.19.19,0,0,0,.09,0l.13,0a0,0,0,0,1,0,.06H52a0,0,0,0,1,0,0s0,0,0,0l.11,0,.11,0,.12-.09a.65.65,0,0,0,.11-.15c.08-.15.17-.34.26-.56l.27-.67Zm.41,1.9c-.07-.21-.15-.42-.22-.62s-.16-.43-.25-.65a2.93,2.93,0,0,1-.12.28c0,.11-.09.22-.14.34l-.25.65h1Z"/><path class="cls-3" d="M59.62,60.63c0,.22,0,.43,0,.65s0,.43,0,.66,0,.48,0,.74v.85s0,.08,0,.1,0,0,0,0,0,0,0,0l-.08-.08c-.09-.1-.18-.21-.28-.31s-.2-.22-.31-.34l-.37-.39L58,62.06c-.27-.27-.51-.51-.71-.73s-.37-.37-.49-.47v.42c0,.18,0,.37,0,.58s0,.43,0,.65,0,.42,0,.62a.46.46,0,0,0,.1.27.55.55,0,0,0,.35.13,0,0,0,0,1,0,0,0,0,0,0,1,0,0h-1s0,0,0,0a0,0,0,0,1,0,0,.35.35,0,0,0,.21-.1.46.46,0,0,0,.08-.28c0-.15,0-.32,0-.5s0-.36,0-.54v-.5c0-.16,0-.3,0-.41v-.49c0-.17,0-.34,0-.51v-.08l0,0h0l.08.08.66.71c.23.24.48.51.76.78l.67.67c.19.2.37.37.52.51v-1c0-.35,0-.73,0-1.11a1.57,1.57,0,0,0,0-.25.34.34,0,0,0-.06-.15.24.24,0,0,0-.11-.08l-.18,0s0,0,0,0,0,0,0,0h.92a0,0,0,0,1,0,.06.3.3,0,0,0-.22.14A1,1,0,0,0,59.62,60.63Z"/><path class="cls-3" d="M62.61,60.17a.45.45,0,0,1,0-.08l0,0,0,0a.16.16,0,0,1,0,.08l.18.5c.08.22.17.47.28.75l.32.86q.16.45.33.84a1.09,1.09,0,0,0,.1.19l.09.12a.31.31,0,0,0,.13.06l.16,0a0,0,0,0,1,0,.06H63.23a0,0,0,0,1,0-.06.27.27,0,0,0,.2-.08.44.44,0,0,0,0-.26c0-.13-.09-.28-.15-.44a5.17,5.17,0,0,0-.18-.51H62c0,.06,0,.12-.07.2l-.09.24-.09.26c0,.08,0,.16-.08.24a.41.41,0,0,0,0,.18.18.18,0,0,0,0,.1.31.31,0,0,0,.1,0l.12,0a0,0,0,0,1,0,.06h-1a0,0,0,1,1,0-.06l.1,0,.12,0,.11-.09a.45.45,0,0,0,.11-.15,4.29,4.29,0,0,0,.26-.56c.09-.22.19-.44.28-.67Zm.41,1.9c-.08-.21-.15-.42-.23-.62s-.16-.43-.25-.65l-.11.28c0,.11-.09.22-.14.34l-.25.65h1Z"/></svg>