<svg id="Layer_1" data-name="Layer 1" xmlns="http://www.w3.org/2000/svg" viewBox="0 0 181 20"><defs><style>.cls-1{fill:#673065;}.cls-2{fill:#666;}</style></defs><title>Artboard 1</title><path class="cls-1" d="M26.38,17.78V17.3c0-.14,0,0-.05-.05s0,0,0-.05v-.07s0-.21-.12-.17,0-.06,0,0a.74.74,0,0,1,0-.21,1.19,1.19,0,0,1-.08-.2.5.5,0,0,0-.13-.19c.06,0,0,0,0-.06h.05L26,16.21h0A.17.17,0,0,1,26,16h0v-.12h0a2.74,2.74,0,0,0-.58-.49s-.15-.1-.16,0h-.08c-.08,0-.06-.09.06,0H25a2.57,2.57,0,0,0-2.53,1.36h-.06a3.1,3.1,0,0,1,.92-1.53h-.09s-.23,0-.25.08,0,0,0,.07,0-.08-.11,0h0s0,.15-.1.16-.11.17-.16.13c-.08.12-.05,0-.14.15s-.05.09-.11.08l-.11.12-.15.17h0s-.06,0-.07.09-.09,0-.15.05h0l-.12.2h0s0,.14-.06.08a1.16,1.16,0,0,1-.08.32,1,1,0,0,0,0,.25v.1a1.34,1.34,0,0,0-.07.18h.06c.06,0,0,0,0,.08a.17.17,0,0,0,0,.1c-.05,0,0,.15-.05.18s0,.09.05.11V18h0v.09h0a.09.09,0,0,1,0,.07.34.34,0,0,1,.05.17.3.3,0,0,0,.08.18c0,.1.12.17.14.24a.56.56,0,0,0,.09.17l.1.16s.08.1.13.1.08.08.12.12a.47.47,0,0,1,.1.1l.12.08h0a1.33,1.33,0,0,0,.19.14l.1.07h0a.15.15,0,0,0,.13,0h0c-.07-.05,0,0,0-.05h0s.11.05.13.09.11,0,.17,0,.16,0,.1.08,0,0,.07,0a.37.37,0,0,1-.18-.08h0a.51.51,0,0,1-.18-.09s-.05,0,0-.05h0l.24.08h.19s.1.07.07.09,0,0,.09,0h0s.09-.11,0-.13a.11.11,0,0,1-.11,0,2.32,2.32,0,0,0,2-.66l.09-.11V19s.09-.1.14-.1,0-.09.05-.14h0c.07-.16.14-.32.22-.47a1.4,1.4,0,0,0,.15-.49h0v-.19h.05m-4.82-.36.06-.06v.07m.1,1v-.09a.25.25,0,0,1,0-.17v.13a.58.58,0,0,1-.05.14M22,16.1h0m0,2.72a.71.71,0,0,1-.14-.1l.07-.06v.13h0m.23.25v0a.27.27,0,0,1,.07.08m.62.49h-.06a.47.47,0,0,1,.15.06s0,.06-.05.07a.15.15,0,0,1-.11-.08.25.25,0,0,0-.12-.11s0,0-.06,0a.25.25,0,0,1-.08-.16,2.34,2.34,0,0,0,.43.26.46.46,0,0,0-.16-.07.16.16,0,0,1,.08.06M26,16.17h0"/><path class="cls-1" d="M20.5,10.17V10a.38.38,0,0,1,0-.15V9.67h0a1,1,0,0,0,0-.24V9.25a.33.33,0,0,0,0-.14V9c0,.09,0,0-.06,0h0V8.83h0a.28.28,0,0,0-.13-.11c.09,0-.08-.13,0-.12h-.07a.44.44,0,0,1,.07.19h0a.57.57,0,0,1,.08.13s0-.06-.05-.06a.33.33,0,0,1,.06.19h0a1.53,1.53,0,0,0-.4-.26c0-.06-.07-.11-.1-.16a.11.11,0,0,1,0-.11l-.08-.06c-.08-.06.07,0,.09,0s0-.06,0-.07-.15,0-.13.07a.09.09,0,0,1,.06.08,2.3,2.3,0,0,0-.93-.73h-.07a2.59,2.59,0,0,0-2.53,1.36h0a3,3,0,0,1,.88-1.49,1.28,1.28,0,0,0-.45.23h-.1V8h0a3.61,3.61,0,0,1-.35.33c-.12.09,0,0,0,.06s0,0-.06,0-.06.07-.06,0-.11.17,0,.2-.05,0-.05,0a.66.66,0,0,1-.12.17L15.73,9a.37.37,0,0,0-.05.23h0v.15a.24.24,0,0,1-.06.11s.06-.12.06,0-.07.06,0,.1,0-.05,0,0v.09a3.22,3.22,0,0,0,0,.76s0,.17.09.14v.06c0,.06,0,.1-.07,0v.28a1.63,1.63,0,0,1,.11.23c0,.14.18.25.18.28a.43.43,0,0,0,.14.23h0a.19.19,0,0,0,.09.14l.1.11a.15.15,0,0,1,.12.07.11.11,0,0,0,.15.08c.05,0,.09.11.13.14s.16.06.21.09h0s.2.13.23.12h.06c.06,0,0,.08.08.08h0s.15-.08.19-.05h1.07c.05,0,0,.1.14.07h.21s.11-.1.1,0,.19-.11.29-.17.17-.11.18-.15.07,0,.1-.06.06,0,.18-.08c-.06,0-.05,0,0-.06h.09a.18.18,0,0,0,.07-.08h0l.17-.09a.07.07,0,0,0,0-.11h0l.06-.06h0v-.06a.51.51,0,0,1,.09-.16.29.29,0,0,0,.07-.18h0s0-.21.07-.26a.6.6,0,0,0,.06-.19v-.19a.19.19,0,0,0,0-.15m-4.9-.8h0m2.87,2.94h-.1m1.07-.6Zm.81-1a.29.29,0,0,1-.15.09L20.1,11l.13-.06Zm.07-.4v-.16a.54.54,0,0,1,0,.18h-.09m.07-.42h0m0-.45a2.73,2.73,0,0,0-.1-.48.44.44,0,0,0,.06.16.17.17,0,0,1,0-.1v.06a.41.41,0,0,1-.07-.15c0-.07,0-.06.09,0a.15.15,0,0,1,0,.13.22.22,0,0,0,0,.16v.05a.27.27,0,0,1-.06.17"/><path class="cls-1" d="M11,10.14l.06-.18H11a.22.22,0,0,0,.05-.08.17.17,0,0,0,0-.1V9.49m0-.05h0a.11.11,0,0,0,0-.08.09.09,0,0,1,0-.07A.48.48,0,0,1,11,9.12a.25.25,0,0,0-.08-.18V9a1,1,0,0,1-.13-.24.89.89,0,0,0-.08-.17l-.11-.16s-.08-.1-.12-.1-.09-.08-.12-.12a.47.47,0,0,1-.1-.1L10.15,8h0A1.33,1.33,0,0,0,10,7.86l-.09-.07H9.79a.17.17,0,0,0-.14,0H9.58s-.11,0-.13-.09H9.28c-.06,0-.15,0-.1-.08s0,0-.07,0a.46.46,0,0,1,.19.08H9.13c0,.06.12,0,.15,0H9.2a.31.31,0,0,1,.18.09h0l-.24-.07H9s-.09-.06-.06-.08,0,0-.1,0h.08s-.09.11,0,.13a.09.09,0,0,1,.1,0,2.32,2.32,0,0,0-2,.66l-.09.11v0s-.09.1-.14.1l-.06.14h0a2.86,2.86,0,0,1-.22.47,1.38,1.38,0,0,0-.14.49h0v.19h0v.48h0v.13s0,.21.12.16,0,.07,0,0a.74.74,0,0,1,0,.21l.07.19a.39.39,0,0,0,.13.2v.15h0a.24.24,0,0,1,0,.12h0v.1h0v.07a3,3,0,0,0,.57.49s.16.1.17,0,0,0,.07,0,.06.09-.06,0h.3a2.59,2.59,0,0,0,2.53-1.36h.05a3.08,3.08,0,0,1-.91,1.53H9.5a1.13,1.13,0,0,0,.24-.08V12.2c0-.07,0,.08.12,0s.05-.2.14-.2.11-.17.16-.13c.09-.12.06,0,.14-.15s0-.08.1-.08l.11-.12h0a1.15,1.15,0,0,0,.14-.17h0s.06,0,.07-.09.09,0,.14,0h0l.12-.18h0s0-.14.06-.08c0-.11.05-.22.08-.33a.49.49,0,0,0,0-.24v-.1ZM9.61,7.79a.46.46,0,0,0,.16.07.16.16,0,0,1-.08-.06h.06a.2.2,0,0,1-.15-.06c-.06-.06,0-.06.05-.07s.09,0,.11.08a.29.29,0,0,0,.11.11h.06A.27.27,0,0,1,10,8a2.26,2.26,0,0,0-.42-.26m.69.49a.09.09,0,0,1,0,.07l-.06-.08m.25,3h0l-.07.07m.06-2.56V8.61h0l.15.1-.07.06m.22.52V9.11a.49.49,0,0,1,0,.17m.11.79V9.94H11l-.06.07"/><path class="cls-1" d="M15.73,2.5a.22.22,0,0,0,0-.16V2.06c0-.07,0-.15-.05-.16s0-.14,0-.19a.9.9,0,0,0-.08-.21h0s0-.23-.08-.25,0,0-.07,0,.08,0,0-.12h0s-.16-.06-.17-.1-.17-.11-.13-.16C15,.78,15.15.81,15,.73s0,0,0-.1l-.11-.1h-.05c-.05,0-.13-.13-.16-.14h0s0-.07-.09-.07a.11.11,0,0,0,0-.08h-.42A2.57,2.57,0,0,0,11.64,1.6h-.06A3.3,3.3,0,0,1,12.39.14h.07l.1-.09h-.11a.38.38,0,0,0-.17.08h.05c.05,0-.17.12-.24.13a.76.76,0,0,0-.18.09l-.15.11s-.1.08-.1.12-.09.09-.13.12a.47.47,0,0,1-.1.1.44.44,0,0,1-.08.11h0a.11.11,0,0,0,0,.08h0a.85.85,0,0,0-.14.19l-.08.1h0a.35.35,0,0,0-.06.14v.07h0a.42.42,0,0,1-.09.14h0V1.8c0,.06,0,.15-.08.1s0,0,0,.07a.4.4,0,0,1,.1-.18v-.1a.11.11,0,0,0,0,.08.2.2,0,0,1,0-.21c0,.05,0-.06.05,0h0A1.16,1.16,0,0,0,11,1.8h0A.67.67,0,0,0,11,2s-.06.09-.08.06,0,0,0,.1,0-.06-.05-.08h0s.12.09.14,0A.08.08,0,0,1,11,2a2.32,2.32,0,0,0,.66,2,.31.31,0,0,0,.11.09h-.09s.1.1.1.14l.13.06h0a4,4,0,0,1,.47.22,1.33,1.33,0,0,0,.48.14h.79s.2,0,.16-.12.06,0,0,0H14l.19-.07a.26.26,0,0,0,.19-.13h.07v0l.1-.06h.22l.06-.06a3,3,0,0,0,.49-.57s.09-.16,0-.17v-.1c0-.08.1-.06,0,.06l.07-.08c.06,0,.09-.06.11-.14A2.15,2.15,0,0,1,15.66,3c.08-.13,0-.31.07-.33a.34.34,0,0,0,.06-.26h0M12,.29l.06.06L12,.39h0a.38.38,0,0,1,0-.15M11.76.6l-.08.06h.08m-.7.68h0m.12.07c0-.08.07-.14.07-.16a.13.13,0,0,1-.06.07V1.26c0-.06,0,.1-.06.16s-.07,0-.07,0a.14.14,0,0,1,.07-.12.2.2,0,0,0,.11-.11V1.08A.21.21,0,0,1,11.41,1a3,3,0,0,0-.27.42ZM14.54.49h0l.07.08h0"/><path class="cls-1" d="M15.63,16.88h0c-.07-.17-.12-.33-.18-.49a1.22,1.22,0,0,0-.24-.45h0v-.09h-.1a3.51,3.51,0,0,1-.33-.34c-.08-.11,0,0-.07,0s0,0,0-.06-.07-.06-.05-.06-.17-.11-.19,0,0-.06,0-.06a.57.57,0,0,1-.18-.12L14.12,15a.37.37,0,0,0-.23-.05h-.06a.13.13,0,0,1-.11-.06h0c-.12,0-.06-.06-.09,0h-.08a2.38,2.38,0,0,0-.75.06s-.18,0-.14.09,0,.05-.06.05-.11,0,0-.07h-.29a.94.94,0,0,1-.22.12c-.14,0-.25.18-.28.18a.34.34,0,0,0-.22.15h0a.24.24,0,0,0-.15.09l-.1.1a.15.15,0,0,1-.07.12c-.07.05-.11.1-.08.15s-.1.09-.14.13h0c-.07,0-.07.16-.1.22h0s-.12.2-.11.24,0,0,0,.05-.08,0-.08.09h0s.08.14.05.18v1h0a.08.08,0,0,0,0,.11s-.09,0-.06.14h0v.22h0s.09.11,0,.1l.17.29a.65.65,0,0,0,.15.18.11.11,0,0,0,.06.1,1.42,1.42,0,0,0,.08.18c0-.06,0,0,.06,0s0,.06,0,.08a.23.23,0,0,0,.07.07h0a.86.86,0,0,1,.1.16s.06.07.11,0-.05,0,0,0l.06.06h.23v-.07l.11.06h.12A2.58,2.58,0,0,0,14.6,18.2h.05A3.15,3.15,0,0,1,14,19.49l.17-.09.16-.11h.11l.06-.08c.06-.08,0,.07,0,.09s.06,0,.07,0,0-.15-.07-.13a.09.09,0,0,1-.08.06,2.35,2.35,0,0,0,.91-1.85v-.14s.07.07.09,0a.43.43,0,0,0,0-.16l-.06-.14h0m-4.76.9h0v-.05m.58,1.15v-.09h0m2.31-4.07h0"/><path class="cls-1" d="M5.12,17.08h0c-.07-.16-.12-.32-.18-.49a1.26,1.26,0,0,0-.24-.44h0v-.09H4.6a3.51,3.51,0,0,1-.33-.34c-.08-.11,0,0-.07,0s0,0,0-.06-.07-.07,0-.07-.18-.11-.21,0,0-.06,0,0l-.11-.08H3.54A2.57,2.57,0,0,0,1,16.66a3.08,3.08,0,0,1,.93-1.54.2.2,0,0,0-.15,0,.94.94,0,0,1-.22.12c-.14,0-.25.18-.28.19a.43.43,0,0,0-.23.14h0a.19.19,0,0,0-.14.09.52.52,0,0,0-.1.11.14.14,0,0,1-.07.11c-.07,0-.11.11-.08.15s-.1.1-.14.14h0c-.08,0-.07.16-.1.21h0a1,1,0,0,0-.12.23v.06c0,.06-.08,0-.08.09s.08.15,0,.19v.7a.06.06,0,0,0,0,.06v.22h0V18c0,.05-.09,0-.06.14h0v.05h0a.39.39,0,0,0,.06.21h0s.09.11,0,.1.12.19.18.28A.38.38,0,0,0,.55,19a.11.11,0,0,0,.06.09c0,.1,0,.07.08.18,0-.05,0-.05.06,0v.09a.12.12,0,0,0,.07.07h0a1,1,0,0,1,.1.17.07.07,0,0,0,.11,0c.05-.06-.05,0,0,0l.06,0h.06a.51.51,0,0,1,.16.09.24.24,0,0,0,.18.07H1.44a.33.33,0,0,1,.27.07.64.64,0,0,0,.18.06h.18a.22.22,0,0,0,.16,0H3.42a.29.29,0,0,0,.13-.05h.07c-.08,0,0,0,0-.06h.21a.28.28,0,0,0,.11-.13c0,.09.13-.08.12,0s0,0,0-.07-.13.06-.19.08-.09.07-.13.08a.1.1,0,0,0,.06-.05.33.33,0,0,1-.19.06h0a.94.94,0,0,0,.22-.12h0l.17-.1h.1l.07-.08c.07-.08,0,.07,0,.09s.06,0,.06,0,0-.14-.06-.12a.11.11,0,0,1-.09.06A2.34,2.34,0,0,0,5,17.46v-.14s.07.06.09,0a.49.49,0,0,0,0-.17L5,17H5M.36,18h0v-.1h0m.58,1.15h0m.75.54a.38.38,0,0,1-.09-.15l.12.07.06.12H1.72m.57.13H2.12v-.08h.14Zm1-.08a.22.22,0,0,0-.16,0h0a.25.25,0,0,1-.18.1,2.68,2.68,0,0,0,.49-.11l-.16.07h0l.15-.06c.07,0,.06,0,0,.08a.17.17,0,0,1-.14,0"/><path class="cls-2" d="M36.5,12a2,2,0,0,1,0-.49,3.4,3.4,0,0,1,.07-.46s0-.05,0-.05,0,0,0,.05a1.76,1.76,0,0,0,.36,1,1.08,1.08,0,0,0,.88.37,1.19,1.19,0,0,0,.9-.3,1,1,0,0,0,.31-.74A1.32,1.32,0,0,0,39,11a.94.94,0,0,0-.25-.37,1.76,1.76,0,0,0-.4-.32l-.54-.3a3.52,3.52,0,0,1-.46-.28A1.67,1.67,0,0,1,37,9.34a1.75,1.75,0,0,1-.26-.46,1.54,1.54,0,0,1-.09-.6,1.33,1.33,0,0,1,.44-1,1.62,1.62,0,0,1,1.15-.38,2.63,2.63,0,0,1,.49,0l.34.08a.59.59,0,0,1,.25.17.5.5,0,0,1,.06.34,1,1,0,0,1,0,.31c0,.14,0,.26,0,.35s0,.05-.05,0,0,0,0,0a1.44,1.44,0,0,0-.09-.4,1.14,1.14,0,0,0-.19-.34,1.13,1.13,0,0,0-1.5-.08.93.93,0,0,0-.28.72,1.06,1.06,0,0,0,.29.77,2.3,2.3,0,0,0,.7.5,8.1,8.1,0,0,1,.7.42,2.79,2.79,0,0,1,.49.42,1.28,1.28,0,0,1,.26.47,1.68,1.68,0,0,1,.08.59,1.52,1.52,0,0,1-.15.6,1.5,1.5,0,0,1-.37.46,1.61,1.61,0,0,1-.55.29,2.08,2.08,0,0,1-.7.1,2.88,2.88,0,0,1-.59-.05l-.41-.13a.62.62,0,0,1-.25-.2A.5.5,0,0,1,36.5,12Z"/><path class="cls-2" d="M42.94,10v1.61A3.44,3.44,0,0,0,43,12a.92.92,0,0,0,.08.27.35.35,0,0,0,.19.12,1.12,1.12,0,0,0,.31.05s.06,0,.06,0v0s0,0-.06,0H41.69s0,0,0,0,0-.06,0-.06l.27-.05a.36.36,0,0,0,.18-.12.62.62,0,0,0,.09-.26,3.71,3.71,0,0,0,0-.47V8.11a3.23,3.23,0,0,0,0-.53.79.79,0,0,0-.1-.28A.3.3,0,0,0,42,7.18l-.26,0a0,0,0,0,1,0,0s0,0,0,0h1.73s.06,0,0,0a.06.06,0,0,1,0,.06.86.86,0,0,0-.23.06.23.23,0,0,0-.15.12A.66.66,0,0,0,43,7.6a4.36,4.36,0,0,0,0,.51V10Z"/><path class="cls-2" d="M48.77,12l-.22-.39-.3-.48-.32-.53-.33-.53c-.08.13-.17.29-.28.45L47,11l-.28.48-.22.41a.6.6,0,0,0-.12.39c0,.08.15.14.38.15,0,0,.05,0,.06.06s0,0-.06,0H45.16s0,0,0,0,0,0,0-.06a1.08,1.08,0,0,0,.43-.1A1.21,1.21,0,0,0,46,12l.73-1.05.72-1.1c-.12-.18-.24-.38-.36-.59l-.36-.6-.34-.5-.31-.48c-.06-.1-.12-.17-.16-.23a.75.75,0,0,0-.16-.15l-.16-.08-.23,0a0,0,0,0,1,0,0s0,0,0,0h1.75s.06,0,0,0a0,0,0,0,1,0,0c-.2,0-.32.07-.34.14a.46.46,0,0,0,.09.32l.45.82.52.89c.17-.27.33-.53.48-.8s.29-.53.41-.78a1.39,1.39,0,0,0,.12-.28.43.43,0,0,0,0-.16.12.12,0,0,0-.07-.11l-.19,0a0,0,0,0,1,0,0s0,0,0,0H50s0,0,.06,0h0s0,0-.06,0h-.18a.49.49,0,0,0-.17.06.93.93,0,0,0-.18.16,2,2,0,0,0-.22.27l-.68,1-.6.91.38.6.39.69.41.63c.13.2.25.38.36.53a1.37,1.37,0,0,0,.35.37.63.63,0,0,0,.37.12.05.05,0,0,1,.05.06c0,.05,0,0-.05,0H48.58s-.06,0,0,0,0-.06,0-.06.26-.06.28-.13A.57.57,0,0,0,48.77,12Z"/><path class="cls-2" d="M55.12,12a4,4,0,0,1,0-.49,3.4,3.4,0,0,1,.07-.46.06.06,0,0,1,.06-.05s0,0,0,.05a1.69,1.69,0,0,0,.35,1,1.1,1.1,0,0,0,.89.37,1.18,1.18,0,0,0,.89-.3,1,1,0,0,0,.31-.74,1.13,1.13,0,0,0-.08-.48,1.21,1.21,0,0,0-.25-.37,1.81,1.81,0,0,0-.41-.32l-.54-.3A3.52,3.52,0,0,1,56,9.7a1.85,1.85,0,0,1-.38-.36,1.43,1.43,0,0,1-.27-.46,1.54,1.54,0,0,1-.09-.6,1.33,1.33,0,0,1,.44-1,1.69,1.69,0,0,1,1.16-.38,2.74,2.74,0,0,1,.49,0l.33.08a.53.53,0,0,1,.25.17.5.5,0,0,1,.06.34v.31a2.43,2.43,0,0,1,0,.35c0,.1,0,.05,0,0s0,0,0,0a2.88,2.88,0,0,0-.09-.4,1.24,1.24,0,0,0-.22-.34.86.86,0,0,0-.33-.23.87.87,0,0,0-.45-.09,1,1,0,0,0-.72.24.89.89,0,0,0-.28.72,1.05,1.05,0,0,0,.28.77,2.3,2.3,0,0,0,.7.5c.24.13.48.27.71.42a2.79,2.79,0,0,1,.49.42,1.66,1.66,0,0,1,.26.47,2,2,0,0,1,.07.59,1.39,1.39,0,0,1-.14.6,1.51,1.51,0,0,1-.93.75,2,2,0,0,1-.69.1,3,3,0,0,1-.6-.05l-.41-.13a.69.69,0,0,1-.25-.2A.5.5,0,0,1,55.12,12Z"/><path class="cls-2" d="M61.55,9.84v1.87a1.75,1.75,0,0,0,0,.32.26.26,0,0,0,.09.16.37.37,0,0,0,.18.08h1a1.52,1.52,0,0,0,.46-.1.77.77,0,0,0,.28-.23,1.26,1.26,0,0,0,.16-.33c0-.12.07-.26.1-.4a.06.06,0,0,1,.06-.05h0s0,0,0,.05v.88a.74.74,0,0,1,0,.21.26.26,0,0,1-.14.21,1,1,0,0,1-.38.05h-3.1s0,0,0,0,0-.06,0-.06a.93.93,0,0,0,.29-.05.27.27,0,0,0,.17-.13.62.62,0,0,0,.09-.26c0-.15,0-.3,0-.46V7.66a1,1,0,0,0-.07-.29.35.35,0,0,0-.21-.15,1.05,1.05,0,0,0-.35-.08,0,0,0,0,1,0,0s0,0,0,0h2.92a.77.77,0,0,1,.3,0c.06,0,.09.09.08.19a2.07,2.07,0,0,1,0,.4c0,.15,0,.31-.05.45s0,.05-.07.05,0,0,0-.05a1.14,1.14,0,0,0-.14-.54.58.58,0,0,0-.47-.23H61.56v2.2H63.2l.08,0,0,0h0V9.7a.74.74,0,0,1,0,.32.58.58,0,0,0,0,.23.08.08,0,0,1-.07,0,0,0,0,0,1,0,0,.52.52,0,0,0,0-.21.35.35,0,0,0-.11-.1.45.45,0,0,0-.19,0H61.55Z"/><path class="cls-2" d="M71.4,7.84l-.06,1c0,.34,0,.7,0,1.07s0,.76,0,1.19v1.55a0,0,0,0,1-.07,0l-.13-.13-.44-.5-.49-.54-.6-.6-.73-.74L67.71,9c-.33-.34-.6-.59-.78-.76v2.64a7.79,7.79,0,0,0,0,1,.73.73,0,0,0,.16.43.83.83,0,0,0,.56.21.05.05,0,0,1,0,.05c0,.06,0,0,0,0H66s-.06,0-.06,0,0-.05.06-.05a.58.58,0,0,0,.34-.15.78.78,0,0,0,.13-.44c0-.25,0-.52,0-.81s0-.59,0-.86V7a0,0,0,0,1,0,0h0l.14.12q.5.55,1,1.14c.37.39.77.8,1.22,1.25l1.07,1.07c.31.32.59.6.84.82V9.75c0-.57,0-1.2-.05-1.79a1.11,1.11,0,0,0,0-.39.5.5,0,0,0-.09-.24.52.52,0,0,0-.17-.13,1.59,1.59,0,0,0-.3-.06s0,0,0,0h0s0,0,0,0h1.47s.06,0,0,0,0,0,0,0h0a.42.42,0,0,0-.34.22A1.29,1.29,0,0,0,71.4,7.84Z"/><path class="cls-2" d="M74.08,12a4,4,0,0,1,0-.49c0-.16,0-.31.07-.46a.07.07,0,0,1,.06-.05s0,0,0,.05a1.75,1.75,0,0,0,.35,1,1.1,1.1,0,0,0,.89.37,1.2,1.2,0,0,0,.89-.3,1,1,0,0,0,.32-.74,1.32,1.32,0,0,0-.09-.48,1.05,1.05,0,0,0-.25-.37,1.81,1.81,0,0,0-.41-.32l-.54-.3A4.34,4.34,0,0,1,75,9.7a1.85,1.85,0,0,1-.38-.36,1.92,1.92,0,0,1-.27-.46,1.54,1.54,0,0,1-.09-.6,1.3,1.3,0,0,1,.45-1,1.61,1.61,0,0,1,1.15-.38,2.69,2.69,0,0,1,.49,0l.33.08a.49.49,0,0,1,.25.17.5.5,0,0,1,.06.34,1.61,1.61,0,0,1,0,.31,1.54,1.54,0,0,1,0,.35c0,.1,0,.05,0,0s0,0,0,0a1.3,1.3,0,0,0-.29-.74,1.08,1.08,0,0,0-.32-.24,1.22,1.22,0,0,0-.46-.09,1.1,1.1,0,0,0-.72.24.89.89,0,0,0-.28.72,1.06,1.06,0,0,0,.24.78,2.3,2.3,0,0,0,.7.5c.24.13.48.27.71.42a2.41,2.41,0,0,1,.48.42,1.47,1.47,0,0,1,.27.47,2,2,0,0,1,.07.59,1.56,1.56,0,0,1-.15.6,1.47,1.47,0,0,1-.36.46,1.76,1.76,0,0,1-.56.29,2,2,0,0,1-.7.1,2.94,2.94,0,0,1-.59-.05l-.41-.13a.62.62,0,0,1-.25-.2A.63.63,0,0,1,74.08,12Z"/><path class="cls-2" d="M80.51,9.84v1.87c0,.11,0,.21,0,.32a.27.27,0,0,0,.1.16.38.38,0,0,0,.17.08h1a1.46,1.46,0,0,0,.46-.1.7.7,0,0,0,.28-.23.84.84,0,0,0,.16-.33,3.89,3.89,0,0,0,.1-.4.06.06,0,0,1,.06-.05h0a0,0,0,0,1,0,.05V12.3a.3.3,0,0,1-.15.21,1,1,0,0,1-.38.05h-3.1s0,0,0,0,0-.06,0-.06a1,1,0,0,0,.29-.05.27.27,0,0,0,.17-.13.62.62,0,0,0,.09-.26,3.42,3.42,0,0,0,0-.46V7.66a1,1,0,0,0-.07-.29.33.33,0,0,0-.18-.15,1.05,1.05,0,0,0-.35-.08.05.05,0,0,1,0,0s0,0,0,0h2.92a.77.77,0,0,1,.3,0c.07,0,.09.09.08.19a2.07,2.07,0,0,1,0,.4,3.64,3.64,0,0,0,0,.45s0,.05-.07.05,0,0,0-.05a1.14,1.14,0,0,0-.14-.54.57.57,0,0,0-.47-.23H80.58v2.2h1.64l.08,0,0,0h0V9.7a.74.74,0,0,1,0,.32c0,.1,0,.18,0,.23a.08.08,0,0,1-.07,0,0,0,0,0,1,0,0,.39.39,0,0,0,0-.21.22.22,0,0,0-.11-.1.45.45,0,0,0-.19,0l-.32-.05Z"/><path class="cls-2" d="M85.06,12a2,2,0,0,1,0-.49,3.4,3.4,0,0,1,.07-.46,0,0,0,0,1,.05-.05c.06,0,0,0,0,.05a1.69,1.69,0,0,0,.35,1,1.1,1.1,0,0,0,.88.37,1.19,1.19,0,0,0,.9-.3,1,1,0,0,0,.31-.74,1.14,1.14,0,0,0-.09-.48.94.94,0,0,0-.25-.37,1.76,1.76,0,0,0-.4-.32l-.54-.3a3.52,3.52,0,0,1-.46-.28,1.67,1.67,0,0,1-.39-.36,1.75,1.75,0,0,1-.26-.46,1.54,1.54,0,0,1-.09-.6,1.33,1.33,0,0,1,.44-1,1.63,1.63,0,0,1,1.16-.38,2.58,2.58,0,0,1,.48,0l.34.08a.53.53,0,0,1,.25.17.5.5,0,0,1,.06.34,1,1,0,0,1,0,.31,2.62,2.62,0,0,1,0,.35c0,.1,0,.05,0,0s-.05,0-.05,0a1.44,1.44,0,0,0-.09-.4,1.54,1.54,0,0,0-.17-.34A1.13,1.13,0,0,0,86,7.37a.9.9,0,0,0-.29.72,1.06,1.06,0,0,0,.29.77,2.26,2.26,0,0,0,.69.5c.25.13.48.27.71.42a2.41,2.41,0,0,1,.48.42,1.31,1.31,0,0,1,.27.47,1.68,1.68,0,0,1,.07.59,1.24,1.24,0,0,1-.15.6,1.47,1.47,0,0,1-.36.46,1.71,1.71,0,0,1-.55.29,2.08,2.08,0,0,1-.7.1,3,3,0,0,1-.6-.05l-.41-.13a.79.79,0,0,1-.25-.2A.5.5,0,0,1,85.06,12Z"/><path class="cls-2" d="M97,6.91a7.31,7.31,0,0,1,.8,0,3.36,3.36,0,0,1,.76.18.61.61,0,0,1,.26.19.49.49,0,0,1,.09.33V8.1a2.07,2.07,0,0,1,0,.49s0,.05-.06.05,0,0,0-.05a1.69,1.69,0,0,0-.2-.66,1.3,1.3,0,0,0-.39-.45,1.4,1.4,0,0,0-.54-.25A2.37,2.37,0,0,0,97,7.14a3.08,3.08,0,0,0-1,.17,1.92,1.92,0,0,0-.74.49,2.37,2.37,0,0,0-.52.84,3.66,3.66,0,0,0-.12,1.14A3.62,3.62,0,0,0,94.85,11a2.28,2.28,0,0,0,.55.82,2,2,0,0,0,.78.48,3,3,0,0,0,.93.15,2.64,2.64,0,0,0,.74-.1,1.28,1.28,0,0,0,.51-.28,1.25,1.25,0,0,0,.31-.44,2,2,0,0,0,.15-.6s0,0,.06-.06.06,0,.06.06v.62a1.25,1.25,0,0,1,0,.38.58.58,0,0,1-.08.22.41.41,0,0,1-.14.12c-.06,0-.12.06-.19.1l-.51.15a5.49,5.49,0,0,1-.91.07,4.29,4.29,0,0,1-1.33-.2,3,3,0,0,1-1-.59,2.4,2.4,0,0,1-.64-.9,3.06,3.06,0,0,1-.21-1.16,3.28,3.28,0,0,1,.19-1.2,2.59,2.59,0,0,1,.59-.93,2.68,2.68,0,0,1,1-.6A3.79,3.79,0,0,1,97,6.91Z"/><path class="cls-2" d="M101.5,11.52V7.85a.84.84,0,0,0-.15-.53.69.69,0,0,0-.47-.18.06.06,0,0,1-.06,0h0s0,0,.06,0h2a2.51,2.51,0,0,1,.94.16,1.52,1.52,0,0,1,.53.38,1.4,1.4,0,0,1,.24.47,3.47,3.47,0,0,1,.06.45,1.54,1.54,0,0,1-.26.88,2,2,0,0,1-.74.63c.06.11.17.27.32.49s.33.45.53.7a6.58,6.58,0,0,0,.55.64,3.05,3.05,0,0,0,.45.43.89.89,0,0,0,.34.16l.31.05s0,0,0,0h0s0,.05,0,.05h-.84a1.85,1.85,0,0,1-.42-.11,1.16,1.16,0,0,1-.34-.24,2.41,2.41,0,0,1-.37-.41,7.36,7.36,0,0,1-.47-.63l-.37-.53c-.11-.16-.2-.32-.29-.47a3.47,3.47,0,0,1-.91,0v1.36a3.91,3.91,0,0,0,0,.49.85.85,0,0,0,.1.28.31.31,0,0,0,.18.14,1.18,1.18,0,0,0,.31,0s.07,0,.07.05h0s0,0-.07,0h-1.84s-.06,0-.06,0,0-.05.06-.05l.28,0a.28.28,0,0,0,.18-.12.66.66,0,0,0,.09-.27A5.07,5.07,0,0,0,101.5,11.52ZM104,8.7a1.67,1.67,0,0,0-.29-1,1.15,1.15,0,0,0-.91-.44h-.68V9.88a4,4,0,0,0,.5.06h.59a.82.82,0,0,0,.37-.13,1.12,1.12,0,0,0,.25-.28,1.31,1.31,0,0,0,.15-.37,2.33,2.33,0,0,0,0-.46Z"/><path class="cls-2" d="M109.45,7.09a.83.83,0,0,1,.07-.13h.09a.69.69,0,0,1,0,.13c.06.18.16.46.29.82s.27.75.44,1.19.33.9.52,1.37.35.93.53,1.35a2.92,2.92,0,0,0,.14.31,1,1,0,0,0,.16.19.47.47,0,0,0,.2.1.75.75,0,0,0,.26.05s0,0,0,.06,0,0,0,0h-1.75s0,0,0,0,0-.06,0-.06a.37.37,0,0,0,.32-.12,1,1,0,0,0,0-.41c0-.2-.15-.44-.24-.72s-.19-.53-.29-.8h-1.74c0,.09-.08.19-.12.31s-.1.25-.14.39-.11.28-.15.41-.09.26-.12.38a.78.78,0,0,0,0,.3.33.33,0,0,0,.07.16.3.3,0,0,0,.15.07h.2a.05.05,0,0,1,0,.06c0,.05,0,.05,0,.05h-1.62s0,0,0-.05,0-.06,0-.06h.17a.36.36,0,0,0,.18-.07.49.49,0,0,0,.18-.14.88.88,0,0,0,.18-.25c.13-.24.27-.54.42-.89s.29-.71.44-1.08Zm.66,3.06-.36-1c-.12-.33-.26-.67-.4-1,0,.13-.12.28-.18.45l-.23.55-.4,1Z"/><path class="cls-2" d="M119,7.84l0,1v3.62a.43.43,0,0,1,0,.16,0,0,0,0,1,0,0s0,0-.06,0l-.13-.13-.44-.5-.5-.54-.59-.6-.73-.74L115.34,9c-.33-.34-.59-.59-.78-.76v2.64a7.79,7.79,0,0,0,0,1,.67.67,0,0,0,.16.43.81.81,0,0,0,.55.21.06.06,0,0,1,.06.05c0,.06,0,0-.06,0h-1.65s0,0,0,0,0-.05,0-.05a.58.58,0,0,0,.35-.15.77.77,0,0,0,.12-.44c0-.25,0-.52.05-.81s0-.59,0-.86V7s0,0,0,0h.05l.14.12q.5.55,1,1.14c.37.39.77.8,1.22,1.25l1.07,1.07c.31.32.59.6.84.82V9.75c0-.57,0-1.2,0-1.79a1.11,1.11,0,0,0,0-.39.36.36,0,0,0-.09-.24.4.4,0,0,0-.18-.13,1.36,1.36,0,0,0-.29-.06s-.05,0-.05,0h0s0,0,.05,0h1.48s0,0,0,0,0,0,0,0a.42.42,0,0,0-.35.22A1.32,1.32,0,0,0,119,7.84Z"/><path class="cls-2" d="M121.68,12a2,2,0,0,1,0-.49,3.4,3.4,0,0,1,.07-.46.06.06,0,0,1,.06-.05,0,0,0,0,1,0,0h0a1.69,1.69,0,0,0,.35,1,1.1,1.1,0,0,0,.89.37,1.17,1.17,0,0,0,.89-.3,1,1,0,0,0,.31-.74,1.13,1.13,0,0,0-.08-.48,1.34,1.34,0,0,0-.25-.37,2.44,2.44,0,0,0-.4-.32L123,10a3.52,3.52,0,0,1-.46-.28,1.63,1.63,0,0,1-.38-.36,1.51,1.51,0,0,1-.26-.46,1.54,1.54,0,0,1-.09-.6,1.26,1.26,0,0,1,.44-1,1.61,1.61,0,0,1,1.15-.38,2.53,2.53,0,0,1,.48,0l.34.08a.53.53,0,0,1,.25.17.5.5,0,0,1,.06.34,1.36,1.36,0,0,1,0,.31,1.82,1.82,0,0,0-.05.35c0,.1,0,.05,0,0s0,0,0,0a2.88,2.88,0,0,0-.09-.4,1.2,1.2,0,0,0-.21-.34.93.93,0,0,0-.32-.24,1.19,1.19,0,0,0-1.17.15.89.89,0,0,0-.28.72,1.06,1.06,0,0,0,.31.78,2.3,2.3,0,0,0,.7.5c.25.13.48.27.71.42a2.47,2.47,0,0,1,.49.42,1.47,1.47,0,0,1,.27.47,2,2,0,0,1,.07.59,1.56,1.56,0,0,1-.15.6,1.5,1.5,0,0,1-.37.46,1.61,1.61,0,0,1-.55.29,2.12,2.12,0,0,1-.7.1,2.43,2.43,0,0,1-.6-.05,2.8,2.8,0,0,1-.41-.13.62.62,0,0,1-.25-.2A.47.47,0,0,1,121.68,12Z"/><path class="cls-2" d="M126.67,10.1h2.08v.5h-2.08Z"/><path class="cls-2" d="M135.12,10l-.33.66-.29.59-.27.6c-.08.2-.17.4-.25.59a.09.09,0,0,1-.07.1s0,0-.08-.09a4.32,4.32,0,0,0-.23-.5l-.37-.72-.46-.83c-.15-.28-.29-.56-.44-.81s-.26-.5-.38-.71l-.27-.48c0,.25,0,.51-.06.79s0,.56-.06.85,0,.59-.06.86,0,.57-.05.83a1.09,1.09,0,0,0,0,.36.35.35,0,0,0,.31.28l.28,0s.06,0,.06.05,0,.05-.06.05h-1.61s-.06,0-.05-.05,0-.05.05-.05a.7.7,0,0,0,.25,0,.32.32,0,0,0,.18-.1.75.75,0,0,0,.1-.2,2,2,0,0,0,.06-.34c.1-.79.19-1.57.27-2.33s.16-1.54.22-2.33c0-.12,0-.18.08-.18s0,0,.07.06l.05.12.22.44c.09.2.21.42.33.66l.42.8c.16.28.31.59.47.85s.31.6.46.85l.41.74.36-.68c.15-.31.33-.66.52-1.06.11-.21.21-.44.33-.68s.24-.47.34-.7.23-.46.33-.68l.28-.59s0-.09.06-.11,0,0,.07-.05h0a.38.38,0,0,1,0,.15c0,.2,0,.44.06.71s0,.55.09.85.07.6.11.93.08.59.11.9.07.54.1.78.07.44.1.6a1.57,1.57,0,0,0,.06.28.56.56,0,0,0,.09.17.23.23,0,0,0,.14.09.54.54,0,0,0,.22.05.06.06,0,0,1,.06.06h0s0,0-.07,0H136s-.07,0-.07,0a.07.07,0,0,1,.07-.06h0a.2.2,0,0,0,.16-.07.51.51,0,0,0,.05-.34c0-.2-.05-.46-.08-.79s-.07-.66-.11-1-.08-.69-.11-1-.07-.59-.1-.8l-.13.29-.19.38-.24.45Z"/><path class="cls-2" d="M145.08,9.7a3.09,3.09,0,0,1-.23,1.2,2.87,2.87,0,0,1-.59.94,2.79,2.79,0,0,1-.93.63,2.9,2.9,0,0,1-1.19.23,3.65,3.65,0,0,1-1.19-.17A2.57,2.57,0,0,1,140,12a2.47,2.47,0,0,1-.6-.86,3.25,3.25,0,0,1-.25-1.19A2.77,2.77,0,0,1,140,7.8a3.06,3.06,0,0,1,1-.6,3.27,3.27,0,0,1,1.27-.29,3,3,0,0,1,1.19.24,2.78,2.78,0,0,1,.89.63,2.69,2.69,0,0,1,.55.86A3.19,3.19,0,0,1,145.08,9.7Zm-3.15-2.53a2.17,2.17,0,0,0-.9.22,2,2,0,0,0-.63.53,2.49,2.49,0,0,0-.37.83,4.07,4.07,0,0,0-.14,1,3.28,3.28,0,0,0,.15,1.08,2.51,2.51,0,0,0,.46.85,2.12,2.12,0,0,0,.71.55,2.27,2.27,0,0,0,1,.2,2.38,2.38,0,0,0,.91-.18,2,2,0,0,0,.69-.49,2.35,2.35,0,0,0,.44-.75,2.83,2.83,0,0,0,.16-1A4.32,4.32,0,0,0,144.23,9a2.77,2.77,0,0,0-.45-.95,2.19,2.19,0,0,0-.76-.66A2.07,2.07,0,0,0,141.93,7.17Z"/><path class="cls-2" d="M152.39,7.84l0,1v3.81a0,0,0,0,1-.07,0l-.13-.13-.44-.5-.5-.54-.59-.6-.73-.74L148.76,9c-.33-.34-.6-.59-.78-.76v2.64a7.79,7.79,0,0,0,0,1,.67.67,0,0,0,.16.43.81.81,0,0,0,.55.21s.05,0,.06.05,0,0-.06,0h-1.64s-.06,0-.06,0,0-.05.06-.05a.53.53,0,0,0,.33-.15.72.72,0,0,0,.14-.44c0-.25,0-.52,0-.81a8.14,8.14,0,0,1,0-.86,7.29,7.29,0,0,0,0-.81V7s0,0,0,0,0,0,.05,0l.14.12q.5.55,1.05,1.14c.37.39.78.8,1.19,1.25l1.07,1.07c.31.32.59.6.84.82V9.75c0-.57,0-1.2,0-1.79a3.15,3.15,0,0,0,0-.39.85.85,0,0,0-.09-.24.46.46,0,0,0-.18-.13,1.59,1.59,0,0,0-.3-.06.05.05,0,0,1,0,0h0s0,0,0,0h1.48s0,0,0,0,0,0,0,0h0a.39.39,0,0,0-.34.22A1.12,1.12,0,0,0,152.39,7.84Z"/><path class="cls-2" d="M159.43,7.23v1s0,0-.05,0h0s0,0,0,0a1.54,1.54,0,0,0-.06-.43.6.6,0,0,0-.14-.26.45.45,0,0,0-.22-.13,1.26,1.26,0,0,0-.28,0H157.3v4.18a2.59,2.59,0,0,0,0,.48.68.68,0,0,0,.12.26.35.35,0,0,0,.21.12,1.64,1.64,0,0,0,.32.05,0,0,0,0,1,0,0c0,.05,0,.05,0,.05h-2s-.05,0,0-.05,0,0,0,0l.24,0a.47.47,0,0,0,.2-.1.72.72,0,0,0,.14-.24,1.54,1.54,0,0,0,.05-.47V7.34h-1.2l-.43,0a.64.64,0,0,0-.25.15.6.6,0,0,0-.13.25c0,.13-.05.27-.07.4a0,0,0,0,1,0,.05h0s0,0,0-.05V7.36a1.6,1.6,0,0,1,0-.31c0-.06,0-.09.05-.09l.09,0,.18,0h3.59a3.48,3.48,0,0,0,.83,0,.24.24,0,0,0,.15,0,.14.14,0,0,1,.09,0l0,0A1.13,1.13,0,0,1,159.43,7.23Z"/><path class="cls-2" d="M162.86,7.09a.75.75,0,0,1,.06-.13H163a.69.69,0,0,1,.05.13c.06.18.15.46.28.82l.45,1.19c.16.44.33.9.51,1.37s.36.93.53,1.35a3,3,0,0,0,.16.31.7.7,0,0,0,.15.19.54.54,0,0,0,.2.1.75.75,0,0,0,.26.05.05.05,0,0,1,.05.06c0,.05,0,0-.05,0h-1.74s-.06,0-.05,0,0-.06.05-.06a.36.36,0,0,0,.31-.12.58.58,0,0,0,0-.41l-.23-.72c-.1-.26-.19-.53-.29-.8h-1.76l-.11.31c-.05.12-.09.25-.15.39l-.14.41-.12.38a1,1,0,0,0,0,.3.37.37,0,0,0,.07.16.29.29,0,0,0,.16.07h.2s0,0,.05.06a.07.07,0,0,1,0,.05h-1.64s-.05,0-.05-.05,0-.06.05-.06h.17a.45.45,0,0,0,.18-.07.49.49,0,0,0,.18-.14.92.92,0,0,0,.19-.25,9,9,0,0,0,.41-.89l.44-1.08Zm.66,3.06c-.12-.34-.24-.67-.37-1s-.25-.67-.39-1l-.19.45-.22.55-.43,1h1.6Z"/><path class="cls-2" d="M172.37,7.84l0,1c0,.34,0,.7,0,1.07s0,.76,0,1.19v1.55s-.05,0-.06,0l-.14-.13-.44-.5-.49-.54-.6-.6-.73-.74L168.7,9c-.33-.34-.59-.59-.78-.76v2.64a6.25,6.25,0,0,0,.05,1,.67.67,0,0,0,.16.43.81.81,0,0,0,.55.21,0,0,0,0,1,0,.05c0,.06,0,0,0,0H167s-.05,0-.05,0,0-.05.05-.05a.53.53,0,0,0,.34-.15.71.71,0,0,0,.13-.44c0-.25,0-.52.05-.81s0-.59,0-.86V7a0,0,0,0,1,0,0h.06l.13.12q.49.55,1,1.14c.37.39.78.8,1.22,1.25l1.07,1.07c.32.32.6.6.84.82V9.75c0-.57,0-1.2,0-1.79a3.15,3.15,0,0,0,0-.39.85.85,0,0,0-.09-.24.46.46,0,0,0-.18-.13l-.3-.06a.05.05,0,0,1-.05,0h0s0,0,.05,0h1.48s.05,0,.05,0h0a.05.05,0,0,1-.05,0,.39.39,0,0,0-.34.22A1.12,1.12,0,0,0,172.37,7.84Z"/><path class="cls-2" d="M177.15,7.09l.06-.13h.09a.69.69,0,0,1,0,.13c.06.18.16.46.29.82l.44,1.19.52,1.37c.17.49.35.93.53,1.35a1.77,1.77,0,0,0,.15.31.49.49,0,0,0,.16.19.44.44,0,0,0,.19.1.8.8,0,0,0,.26.05s.05,0,.05.06,0,0-.05,0h-1.74s-.05,0-.05,0,0-.06.05-.06a.39.39,0,0,0,.31-.12.58.58,0,0,0,0-.41q-.09-.3-.24-.72c-.09-.27-.18-.53-.28-.8h-1.75c0,.09-.08.19-.12.31s-.1.25-.14.39l-.15.41-.12.38a1,1,0,0,0,0,.3.56.56,0,0,0,.07.16.33.33,0,0,0,.16.07h.2s0,0,0,.06,0,.05,0,.05h-1.62s-.06,0-.06-.05,0-.06.06-.06h.16a.36.36,0,0,0,.18-.07.85.85,0,0,0,.19-.14,1.44,1.44,0,0,0,.18-.25c.12-.24.27-.54.41-.89L176,10Zm.66,3.06-.36-1c-.12-.33-.26-.67-.4-1l-.19.45-.22.55-.43,1h1.6Z"/></svg>