<svg viewBox="0 0 22 24" xmlns="http://www.w3.org/2000/svg"><path d="m17.31 9.51a22.59 22.59 0 0 1 -6 12 32.22 32.22 0 0 1 -5.76-9.66 12 12 0 0 1 -.94-6 4.77 4.77 0 0 1 4.91-4.01h.18a.93.93 0 0 0 .3-.06h.28.17.67c2.39 0 4.09.63 5.18 1.93s1.38 3.2 1 5.84m-6.15-9.47q-.53 0-1.05 0h-.42a.75.75 0 0 0 -.33.07 6.46 6.46 0 0 0 -5.9 3.85c-1 2.24-.51 4.77-.07 6.49a30.71 30.71 0 0 0 6.38 11.73c-.4 0-.79 0-1.18 0l-1.94-.05a.83.83 0 0 0 -.9.79.86.86 0 0 0 .91.84l1.94.05c1.84.05 3.75.1 5.63.1h1.62a.85.85 0 0 0 .91-.83.83.83 0 0 0 -.92-.8h-2.95a24.37 24.37 0 0 0 6.17-13.32 8.79 8.79 0 0 0 -1.5-6.45c-1.27-1.65-3.43-2.47-6.4-2.47"/><path d="m14.56 7.28c-.2 1.45-1.93 2.34-3.43 2.34a2.81 2.81 0 0 1 -2.78-2.89 2.13 2.13 0 0 1 2.36-2.23h.29a4.34 4.34 0 0 1 3.1 1.15 2 2 0 0 1 .46 1.63m-3.56-4.58h-.14a4 4 0 0 0 -4.4 3.84c-.18 2.7 2.26 4.7 4.65 4.88h.32a5 5 0 0 0 4.91-4 3.54 3.54 0 0 0 -.86-2.9 6.09 6.09 0 0 0 -4.48-1.82"/></svg>