<svg id="Layer_1" data-name="Layer 1" xmlns="http://www.w3.org/2000/svg" viewBox="0 0 75 65"><defs><style>.cls-1{fill:#5d5e5e;}.cls-2{fill:#6d2158;}</style></defs><title>duxton-footer</title><path class="cls-1" d="M26.28,64.65c-.46,0-.84-.05-1.05-.05h-.69s0,0,0-.06c.47,0,.47-.18.48-.79,0-.2,0-.84,0-1,0-.46,0-.92,0-1.12,0-.43-.11-.53-.42-.56,0,0,0-.07,0-.07l.61,0,1,0c1.31,0,2.05.68,2.05,1.82A1.84,1.84,0,0,1,26.28,64.65Zm0-3.51a4.76,4.76,0,0,0-.79,0V63c0,.59,0,1,0,1.18s0,.16.12.2a2,2,0,0,0,.7.1,1.49,1.49,0,0,0,1.52-1.67A1.56,1.56,0,0,0,26.24,61.14Z"/><path class="cls-1" d="M31.19,64.7c-1.14,0-1.54-.52-1.54-1.71,0-.49,0-1.11,0-1.31,0-.58-.11-.61-.43-.64,0,0-.05-.07,0-.07l.63,0,.57,0c.05,0,0,.06,0,.07-.25,0-.32.07-.34.64,0,.17,0,.78,0,1.28,0,.95.17,1.58,1.14,1.58s1.16-.79,1.16-1.64c0-.26,0-.85,0-1.4,0-.39-.11-.44-.36-.46,0,0,0-.07,0-.07l.51,0L33,61S33,61,33,61c-.22,0-.3.13-.31.46s0,1,0,1.36C32.66,64,32.24,64.7,31.19,64.7Z"/><path class="cls-1" d="M35.38,63c-.23.36-.54.9-.71,1.21s-.13.32.18.36c0,0,0,.06,0,.06H33.77s0,0,0-.06a.66.66,0,0,0,.55-.34c.3-.42.66-.95,1-1.41-.31-.49-.65-1-.91-1.43s-.24-.31-.47-.33c0,0,0-.07,0-.07l.55,0,.6,0c.05,0,0,.07,0,.07-.26,0-.26.12-.16.3.18.34.39.72.64,1.13.21-.35.42-.71.58-1s.13-.36-.08-.39C36,61,36,61,36,61l.5,0L37,61A0,0,0,1,1,37,61c-.17,0-.28,0-.49.34s-.62.89-.84,1.25c.29.47.75,1.2,1,1.59.17.24.28.31.47.33,0,0,0,.06,0,.06H36a0,0,0,1,1,0-.06c.23,0,.23-.12.12-.31S35.65,63.44,35.38,63Z"/><path class="cls-1" d="M40.94,61.76s-.06,0-.06,0c0-.45-.18-.55-.46-.57s-.54,0-.88,0c0,.07,0,.33,0,.47V64c0,.53.11.56.45.6,0,0,.06.06,0,.06H38.68a0,0,0,1,1,0-.06c.23,0,.41,0,.41-.56s0-1.75,0-2.37c0-.12,0-.38,0-.45l-.78,0c-.47,0-.54.14-.58.56,0,0-.07,0-.07,0v-.56c0-.21,0-.26,0-.26a.58.58,0,0,0,.17,0c.21,0,.64,0,1.47,0s1.22,0,1.45,0c.08,0,.12,0,.15,0s0,0,0,.18S41,61.62,40.94,61.76Z"/><path class="cls-1" d="M43.61,64.7a1.77,1.77,0,0,1-2-1.82,1.91,1.91,0,0,1,2-2,1.79,1.79,0,0,1,1.85,1.84A1.91,1.91,0,0,1,43.61,64.7Zm-1.47-1.91a1.54,1.54,0,0,0,1.5,1.75A1.43,1.43,0,0,0,45.08,63c0-1-.49-1.95-1.61-1.92C42.57,61.09,42.14,61.78,42.14,62.79Z"/><path class="cls-1" d="M50.11,64.55c0,.11,0,.12,0,.13s-.05,0-.13-.1c-.37-.43-.77-.86-1.48-1.58s-1-1-1.26-1.26c0,.45,0,1.57.05,2.39,0,.23.11.38.47.42,0,0,0,.06,0,.06H46.65a0,0,0,1,1,0-.06c.21,0,.29-.09.31-.39,0-.65.06-1.59.06-2.07v-1c0-.09,0-.11,0-.12s0,0,.12.1c.44.48.91,1,1.5,1.57s.94.95,1.25,1.24c0-.69,0-1.45,0-2.26,0-.43-.07-.49-.39-.54a0,0,0,1,1,0-.07L50,61l.44,0s0,.07,0,.07c-.22,0-.28.19-.3.46C50.13,62.4,50.11,63.27,50.11,64.55Z"/><path class="cls-1" d="M.12,50a.07.07,0,0,1,.13,0C.31,51.15.9,51.89,2,51.89a1.45,1.45,0,0,0,1.64-1.42c0-1-.65-1.44-1.75-2A2.51,2.51,0,0,1,.2,46.15a2,2,0,0,1,2.18-1.88,3.82,3.82,0,0,1,1.12.16.56.56,0,0,1,.43.69c0,.17-.09.65-.11.91,0,.09-.13.06-.13,0a1.45,1.45,0,0,0-1.45-1.47A1.24,1.24,0,0,0,.86,45.88,2,2,0,0,0,2.2,47.62c1.51.77,2.13,1.41,2.09,2.57a2.15,2.15,0,0,1-2.41,2,3.4,3.4,0,0,1-1.37-.25.83.83,0,0,1-.5-.66A4.6,4.6,0,0,1,.12,50Z"/><path class="cls-1" d="M9.32,50.64c0,1,.14,1.17.86,1.23a.07.07,0,1,1,0,.13c-.44,0-.94,0-1.29,0S8,52,7.63,52a.07.07,0,0,1,0-.13c.6-.09.76-.16.78-1.23,0-.42,0-1.78,0-2.19,0-1,0-2.12,0-2.53,0-1.27-.23-1.27-.78-1.34-.08,0-.11-.14,0-.14.33,0,.9,0,1.26,0l1.1,0c.1,0,.09.12,0,.14-.52.09-.67.11-.69,1.34,0,.36,0,1.67,0,2.51C9.29,48.86,9.31,50.22,9.32,50.64Z"/><path class="cls-1" d="M16.15,48.61c-.48.75-1.13,1.87-1.47,2.5s-.28.68.37.76c.08,0,.11.13,0,.13L14,52l-1.14,0a.07.07,0,1,1,0-.13A1.34,1.34,0,0,0,14,51.16c.62-.86,1.36-2,2-2.93-.63-1-1.35-2.17-1.88-3-.34-.51-.5-.63-1-.68-.08,0-.11-.14,0-.14.38,0,.84,0,1.15,0s.8,0,1.24,0c.11,0,.08.14,0,.14-.55.06-.55.24-.34.63.38.69.83,1.5,1.32,2.34.45-.73.88-1.48,1.22-2.16s.27-.74-.17-.81c-.08,0-.11-.14,0-.14l1.05,0,.91,0a.07.07,0,1,1,0,.14c-.35.05-.58.07-1,.7-.65.93-1.28,1.85-1.74,2.61.61,1,1.56,2.49,2.13,3.3.35.49.58.64,1,.68a.07.07,0,1,1,0,.13c-.39,0-.84,0-1.14,0s-.72,0-1.16,0a.07.07,0,0,1,0-.13c.48,0,.47-.25.25-.64C17.42,50.66,16.71,49.55,16.15,48.61Z"/><path class="cls-1" d="M27.5,50c0-.09.14-.07.14,0,.06,1.18.64,1.92,1.69,1.92A1.45,1.45,0,0,0,31,50.47c0-1-.64-1.44-1.75-2a2.49,2.49,0,0,1-1.63-2.31,1.94,1.94,0,0,1,2.18-1.88,3.82,3.82,0,0,1,1.12.16.56.56,0,0,1,.42.69c0,.17-.08.65-.11.91,0,.09-.13.06-.13,0a1.45,1.45,0,0,0-1.45-1.47,1.25,1.25,0,0,0-1.38,1.32,2,2,0,0,0,1.34,1.74c1.51.77,2.13,1.41,2.1,2.57a2.16,2.16,0,0,1-2.41,2,3.46,3.46,0,0,1-1.38-.25.83.83,0,0,1-.5-.66A5,5,0,0,1,27.5,50Z"/><path class="cls-1" d="M36.68,50.82c0,.73.17.77.81.78h1c1,0,1.21-.67,1.36-1.44,0-.08.15-.09.15,0A11.11,11.11,0,0,1,40,51.65c-.05.27-.26.36-.72.36s-1.72,0-2.87,0L35,52c-.1,0-.08-.13,0-.13.65-.08.78-.19.8-1.23,0-.85,0-1.71,0-2.57s0-1.4,0-2.17c0-1,0-1.23-.84-1.32-.08,0-.11-.14,0-.14.41,0,1,0,1.43,0,.76,0,1.91,0,2.55,0,.36,0,.55,0,.53.31s-.08.75-.14,1.17c0,.08-.15.08-.14,0,0-.61-.21-1-.83-1.06a15.2,15.2,0,0,0-1.68,0c0,1,0,1.94,0,3a17.31,17.31,0,0,0,2,0c.35,0,.34-.13.43-.12s0,.06,0,.3a4.18,4.18,0,0,1-.12.75c0,.08-.14.08-.14,0,0-.49-.31-.49-.81-.52H36.66C36.65,48.86,36.66,50.05,36.68,50.82Z"/><path class="cls-1" d="M50.44,51.87c0,.22,0,.25,0,.26s-.1,0-.27-.2c-.78-.89-1.59-1.78-3.08-3.28C45.89,47.47,45,46.5,44.44,46c0,.93,0,3.26.11,5,0,.49.23.8,1,.88.09,0,.11.13,0,.13l-1.29,0-1,0a.07.07,0,1,1,0-.13c.44-.09.6-.2.65-.82.09-1.35.12-3.28.12-4.28,0-.66,0-1.46,0-2.17,0-.18,0-.23,0-.24s.09,0,.26.19c.9,1,1.89,2.05,3.1,3.26,1.06,1.06,2,2,2.61,2.58,0-1.43,0-3-.06-4.69,0-.89-.15-1-.83-1.12a.07.07,0,1,1,0-.14l1.11,0,.91,0c.1,0,.07.14,0,.14-.46.07-.59.4-.61,1C50.49,47.41,50.44,49.2,50.44,51.87Z"/><path class="cls-1" d="M54.86,50A.07.07,0,0,1,55,50c.07,1.18.65,1.92,1.7,1.92a1.45,1.45,0,0,0,1.64-1.42c0-1-.65-1.44-1.75-2A2.49,2.49,0,0,1,55,46.15a1.94,1.94,0,0,1,2.18-1.88,3.88,3.88,0,0,1,1.12.16.56.56,0,0,1,.42.69c0,.17-.08.65-.11.91,0,.09-.13.06-.13,0A1.45,1.45,0,0,0,57,44.56a1.25,1.25,0,0,0-1.38,1.32,2,2,0,0,0,1.34,1.74c1.51.77,2.13,1.41,2.1,2.57a2.16,2.16,0,0,1-2.41,2,3.46,3.46,0,0,1-1.38-.25.83.83,0,0,1-.5-.66A5,5,0,0,1,54.86,50Z"/><path class="cls-1" d="M64,50.82c0,.73.17.77.81.78h1c1,0,1.21-.67,1.36-1.44,0-.08.15-.09.15,0a11.11,11.11,0,0,1-.06,1.49c0,.27-.26.36-.72.36s-1.72,0-2.87,0l-1.38,0a.07.07,0,1,1,0-.13c.65-.08.78-.19.8-1.23,0-.85,0-1.71,0-2.57s0-1.4,0-2.17c0-1,0-1.23-.84-1.32-.08,0-.11-.14,0-.14.4,0,1,0,1.43,0,.76,0,1.91,0,2.55,0,.36,0,.55,0,.53.31s-.08.75-.14,1.17c0,.08-.16.08-.14,0,0-.61-.21-1-.83-1.06a15.2,15.2,0,0,0-1.68,0c0,1,0,1.94,0,3a17.31,17.31,0,0,0,2,0c.35,0,.34-.13.43-.12s0,.06,0,.3a4.18,4.18,0,0,1-.12.75c0,.08-.14.08-.14,0,0-.49-.31-.49-.81-.52H64C64,48.86,64,50.05,64,50.82Z"/><path class="cls-1" d="M70.82,50c0-.09.14-.07.14,0,.06,1.18.64,1.92,1.69,1.92a1.45,1.45,0,0,0,1.64-1.42c0-1-.64-1.44-1.75-2a2.49,2.49,0,0,1-1.63-2.31,1.94,1.94,0,0,1,2.18-1.88,3.82,3.82,0,0,1,1.12.16.56.56,0,0,1,.42.69c0,.17-.08.65-.11.91,0,.09-.13.06-.13,0a1.45,1.45,0,0,0-1.45-1.47,1.25,1.25,0,0,0-1.38,1.32,2,2,0,0,0,1.34,1.74C74.41,48.39,75,49,75,50.19a2.16,2.16,0,0,1-2.41,2,3.49,3.49,0,0,1-1.38-.25.83.83,0,0,1-.5-.66A5,5,0,0,1,70.82,50Z"/><path class="cls-2" d="M59.22,34.31s0,0,.05,0S59.24,34.27,59.22,34.31Z"/><polygon class="cls-2" points="58.56 34.69 58.67 34.67 58.65 34.66 58.56 34.69"/><path class="cls-2" d="M58.4,34.81c-.08.08-.26.09-.27.18a2.81,2.81,0,0,1,.35-.18l-.07,0Z"/><path class="cls-2" d="M57.89,35.27l.06,0h0C57.81,35.28,57.9,35.24,57.89,35.27Z"/><path class="cls-2" d="M58,35.24s.06,0,0,0Z"/><path class="cls-2" d="M57.69,35.4s.05,0,.06-.06h-.1S57.61,35.41,57.69,35.4Z"/><path class="cls-2" d="M57.61,35.32h0Z"/><path class="cls-2" d="M57.65,35.31s0,0,0,0h.09S57.64,35.29,57.65,35.31Z"/><path class="cls-2" d="M57.76,35.22c.09,0,0,0,0,.06C57.91,35.22,57.91,35.17,57.76,35.22Z"/><path class="cls-2" d="M58.11,34.89l0,0s.08,0,.11,0Z"/><path class="cls-2" d="M57.14,35.54s.06,0,.09-.07h-.07S57.13,35.53,57.14,35.54Z"/><path class="cls-2" d="M57.06,35.46h.1S57.14,35.44,57.06,35.46Z"/><path class="cls-2" d="M57.52,35.25h0Z"/><path class="cls-2" d="M56.72,35.6l.11,0-.06,0Z"/><path class="cls-2" d="M56.52,35.63a.33.33,0,0,1-.19,0,.58.58,0,0,0,.18,0S56.56,35.66,56.52,35.63Z"/><path class="cls-2" d="M56.83,35.56c.05,0,.07,0,.07-.06h0Z"/><polygon class="cls-2" points="56.78 35.53 56.86 35.51 56.86 35.51 56.78 35.53"/><path class="cls-2" d="M57.21,35.29c-.1.07,0,.06.08.07S57.26,35.31,57.21,35.29Z"/><path class="cls-2" d="M57,35.41l-.09,0h.11S57,35.42,57,35.41Z"/><polygon class="cls-2" points="56.91 35.45 56.95 35.44 56.9 35.44 56.91 35.45"/><path class="cls-2" d="M56.45,35.54l-.18,0a.68.68,0,0,1,.15,0C56.48,35.58,56.45,35.55,56.45,35.54Z"/><polygon class="cls-2" points="55.74 35.55 55.74 35.54 55.73 35.55 55.74 35.55"/><path class="cls-2" d="M56.45,35.53s0,0,0,0h.1A.15.15,0,0,0,56.45,35.53Z"/><path class="cls-2" d="M56.17,35.58l-.08,0S56.15,35.6,56.17,35.58Z"/><path class="cls-2" d="M56.63,35.55h-.08l.06,0Z"/><path class="cls-2" d="M55.83,35.6a.31.31,0,0,1,.15,0h-.24A.15.15,0,0,0,55.83,35.6Z"/><path class="cls-2" d="M56.17,35.58h0s-.06,0,0,0a.52.52,0,0,0-.18,0l.19,0Z"/><path class="cls-2" d="M56.18,35.57h0l.1,0h-.11c.15,0-.1-.06.09,0-.07,0,0,0-.16,0s0,.07.07.11h0Z"/><path class="cls-2" d="M57.09,35.24v0S57.07,35.23,57.09,35.24Z"/><path class="cls-2" d="M57,35.27a.52.52,0,0,0-.07.12l.14-.11h0c.08,0,0,0,0,0s0,0,0,0S57,35.27,57,35.27Z"/><path class="cls-2" d="M56.44,35.42h.16s0,0-.09,0v0Z"/><path class="cls-2" d="M55.64,35.54l.09.08,0,0Z"/><polygon class="cls-2" points="55.45 35.54 55.5 35.58 55.5 35.54 55.45 35.54"/><path class="cls-2" d="M51.77,32.06c-.05,0,0,.07.08.13a.21.21,0,0,1,0-.12Z"/><path class="cls-2" d="M53.37,34.62a.5.5,0,0,0,.13.07S53.44,34.64,53.37,34.62Z"/><path class="cls-2" d="M55,27h0S54.93,27,55,27Z"/><path class="cls-2" d="M53.37,34.62a.55.55,0,0,1-.11-.1h0A.22.22,0,0,0,53.37,34.62Z"/><path class="cls-2" d="M54.66,35.35Z"/><path class="cls-2" d="M54.75,35.38h0Z"/><path class="cls-2" d="M54.6,35.33l.06,0h0Z"/><path class="cls-2" d="M52.12,32.94l0,0Z"/><path class="cls-2" d="M55.1,35.47H55l.1,0S55.1,35.48,55.1,35.47Z"/><path class="cls-2" d="M56,35.35v0h0C55.91,35.32,56,35.34,56,35.35Z"/><path class="cls-2" d="M55.35,35.37h0c-.07,0-.12,0-.14,0S55.36,35.43,55.35,35.37Z"/><path class="cls-2" d="M55.44,35.39l-.06,0S55.45,35.41,55.44,35.39Z"/><path class="cls-2" d="M54.55,35.31s0,0,0-.05S54.57,35.38,54.55,35.31Z"/><polygon class="cls-2" points="55.25 35.24 55.28 35.29 55.31 35.24 55.25 35.24"/><path class="cls-2" d="M54.91,35.16l-.11,0s.07,0,.13,0S54.9,35.17,54.91,35.16Z"/><path class="cls-2" d="M54.93,35.19l.08,0Z"/><path class="cls-2" d="M53.71,34.58l.08.08s0,0,0-.06S53.71,34.56,53.71,34.58Z"/><polygon class="cls-2" points="59.37 34.18 59.41 34.1 59.38 34.12 59.37 34.18"/><path class="cls-2" d="M59.24,34.18s0,0-.05,0h.08Z"/><path class="cls-2" d="M45.8,13.65s0,0,0-.05S45.76,13.65,45.8,13.65Z"/><polygon class="cls-2" points="46.53 13.85 46.44 13.79 46.45 13.81 46.53 13.85"/><path class="cls-2" d="M46.73,13.88c.11,0,.24.13.32.08-.1,0-.25-.1-.38-.13l0,.06Z"/><path class="cls-2" d="M47.42,13.93l-.06,0h0C47.48,14,47.39,14,47.42,13.93Z"/><path class="cls-2" d="M47.36,13.9s-.07,0,0,0Z"/><path class="cls-2" d="M47.64,14s0,0-.07,0l.06,0C47.69,14,47.72,14,47.64,14Z"/><path class="cls-2" d="M47.69,14.13s0,0,0,0Z"/><path class="cls-2" d="M47.61,14.07c0,.06,0,0,0,0L47.57,14S47.61,14.1,47.61,14.07Z"/><path class="cls-2" d="M47.52,14c-.15-.07-.19,0-.05,0C47.4,14,47.47,14,47.52,14Z"/><path class="cls-2" d="M46.94,14,47,14h.06S47,14,46.94,14Z"/><path class="cls-2" d="M48.13,14.28s-.07,0-.11,0l0,.05S48.13,14.3,48.13,14.28Z"/><path class="cls-2" d="M48.13,14.39l-.06-.08S48.06,14.34,48.13,14.39Z"/><path class="cls-2" d="M47.69,14.22l-.14-.13.11.12Z"/><path class="cls-2" d="M48.46,14.54s0-.07,0-.11l0,.07Z"/><path class="cls-2" d="M48.78,14.78a.39.39,0,0,0-.1-.16s-.07,0,0,0A.31.31,0,0,1,48.78,14.78Z"/><path class="cls-2" d="M48.36,14.49s-.07,0-.09,0l0,0Z"/><polygon class="cls-2" points="48.37 14.54 48.3 14.5 48.3 14.5 48.37 14.54"/><path class="cls-2" d="M47.9,14.4c.12,0,0-.06,0-.11S47.88,14.36,47.9,14.4Z"/><path class="cls-2" d="M48.11,14.44l.09.05-.08-.09S48.12,14.43,48.11,14.44Z"/><polygon class="cls-2" points="48.23 14.51 48.2 14.49 48.23 14.53 48.23 14.51"/><path class="cls-2" d="M48.61,14.78l.14.11a.94.94,0,0,1-.09-.12S48.62,14.76,48.61,14.78Z"/><polygon class="cls-2" points="49.11 15.28 49.1 15.28 49.12 15.28 49.11 15.28"/><path class="cls-2" d="M48.6,14.78h0l-.07-.08A.14.14,0,0,0,48.6,14.78Z"/><path class="cls-2" d="M48.84,14.94l.07,0Z"/><path class="cls-2" d="M48.51,14.64Z"/><path class="cls-2" d="M48.49,14.64l0,.06s0,0,0-.06Z"/><path class="cls-2" d="M49.09,15.18A.47.47,0,0,1,49,15.1l0,0v0a1.07,1.07,0,0,1,.14.16S49.12,15.24,49.09,15.18Z"/><path class="cls-2" d="M48.84,14.94l-.09,0a.27.27,0,0,1,.07.08c-.12-.08,0,.12-.09,0,0,.07,0,.07.07.15s0-.07,0-.12v0h0s0,0,0,0h0s0,.05,0,0a.83.83,0,0,0,.12.13l-.11-.16Z"/><path class="cls-2" d="M48,14.53h0Z"/><path class="cls-2" d="M48,14.53s0,0,0,0,0,0,.05.05a.29.29,0,0,0,.14,0,.38.38,0,0,1-.18,0h0C47.89,14.45,47.93,14.51,48,14.53Z"/><path class="cls-2" d="M48.47,14.83l0,0,.08,0-.1-.12S48.39,14.78,48.47,14.83Z"/><path class="cls-2" d="M49.17,15.24l0,0,0,.07A.37.37,0,0,1,49.17,15.24Z"/><polygon class="cls-2" points="49.3 15.43 49.27 15.46 49.31 15.49 49.3 15.43"/><path class="cls-2" d="M49.38,20.56s0-.07,0-.15a.18.18,0,0,1-.06.1Z"/><path class="cls-2" d="M50.1,17.63s0-.09,0-.15S50.07,17.56,50.1,17.63Z"/><path class="cls-2" d="M43.52,21.8s0,0,0,0S43.54,21.82,43.52,21.8Z"/><path class="cls-2" d="M50.1,17.63a.65.65,0,0,1,0,.14.1.1,0,0,0,0,0A.2.2,0,0,0,50.1,17.63Z"/><path class="cls-2" d="M49.72,16.19Z"/><path class="cls-2" d="M49.68,16.1l0,0S49.68,16.1,49.68,16.1Z"/><path class="cls-2" d="M49.75,16.25l0-.06h0Z"/><path class="cls-2" d="M49.56,15.86l0-.1s0,0,0,0A.11.11,0,0,1,49.56,15.86Z"/><path class="cls-2" d="M49.34,15.77c0-.07-.05-.14-.09-.09h0C49.28,15.73,49.3,15.79,49.34,15.77Z"/><path class="cls-2" d="M49.2,15.6l0,.06S49.22,15.59,49.2,15.6Z"/><path class="cls-2" d="M49.77,16.29s0,0,0,.05C49.8,16.52,49.81,16.24,49.77,16.29Z"/><polygon class="cls-2" points="49.25 15.79 49.19 15.8 49.23 15.85 49.25 15.79"/><path class="cls-2" d="M49.42,16.14l.06.09s0-.06-.06-.12Z"/><path class="cls-2" d="M49.42,16.11a.41.41,0,0,1,0-.08A.16.16,0,0,0,49.42,16.11Z"/><path class="cls-2" d="M49.8,17.35s0,.08,0,.06V17.3S49.81,17.33,49.8,17.35Z"/><polygon class="cls-2" points="45.61 13.63 45.52 13.65 45.55 13.66 45.61 13.63"/><path class="cls-2" d="M45.77,13.72l-.06-.06,0,.06Z"/><path class="cls-2" d="M26.11,14.77s0,0-.05,0S26.09,14.8,26.11,14.77Z"/><polygon class="cls-2" points="26.77 14.38 26.66 14.4 26.68 14.41 26.77 14.38"/><path class="cls-2" d="M26.92,14.26c.09-.08.27-.08.28-.17a4,4,0,0,1-.36.18l.08,0Z"/><path class="cls-2" d="M27.44,13.8l-.06,0h0C27.52,13.8,27.43,13.84,27.44,13.8Z"/><path class="cls-2" d="M27.38,13.83s-.06,0,0,0Z"/><path class="cls-2" d="M27.63,13.68s0,0-.05.06h.09S27.72,13.66,27.63,13.68Z"/><path class="cls-2" d="M27.72,13.76h.05A0,0,0,0,0,27.72,13.76Z"/><path class="cls-2" d="M27.68,13.76s0,0,0,0h-.1C27.67,13.77,27.69,13.78,27.68,13.76Z"/><path class="cls-2" d="M27.57,13.86c-.09,0,0,0,0-.06C27.42,13.85,27.42,13.91,27.57,13.86Z"/><path class="cls-2" d="M27.22,14.19l.05,0s-.08,0-.11,0Z"/><path class="cls-2" d="M28.19,13.54s-.06,0-.09.06h.07S28.2,13.55,28.19,13.54Z"/><path class="cls-2" d="M28.27,13.61h-.1S28.19,13.63,28.27,13.61Z"/><path class="cls-2" d="M27.81,13.82h0Z"/><path class="cls-2" d="M28.61,13.48l-.11,0,.06,0Z"/><path class="cls-2" d="M28.81,13.44a.32.32,0,0,1,.19,0,.59.59,0,0,0-.19-.05C28.86,13.39,28.76,13.42,28.81,13.44Z"/><path class="cls-2" d="M28.5,13.51c-.05,0-.07.05-.07.06h0Z"/><polygon class="cls-2" points="28.55 13.55 28.47 13.56 28.47 13.56 28.55 13.55"/><path class="cls-2" d="M28.12,13.78c.1-.06,0-.06-.08-.07C28.13,13.73,28.07,13.76,28.12,13.78Z"/><path class="cls-2" d="M28.29,13.66l.09,0h-.11S28.29,13.65,28.29,13.66Z"/><polygon class="cls-2" points="28.42 13.62 28.38 13.63 28.43 13.64 28.42 13.62"/><path class="cls-2" d="M28.88,13.53l.18,0h-.15C28.85,13.5,28.88,13.52,28.88,13.53Z"/><polygon class="cls-2" points="29.58 13.53 29.59 13.54 29.59 13.53 29.58 13.53"/><path class="cls-2" d="M28.87,13.54s0,0,0,0h-.1A.14.14,0,0,0,28.87,13.54Z"/><path class="cls-2" d="M29.16,13.49l.08,0S29.18,13.47,29.16,13.49Z"/><path class="cls-2" d="M28.7,13.53h.08l-.06,0Z"/><path class="cls-2" d="M29.5,13.47l-.15,0h.23S29.57,13.5,29.5,13.47Z"/><path class="cls-2" d="M29.15,13.49h0s.06,0,0,0v0h0s0,0,0,0h0l-.1,0h.1c-.14,0,.11.06-.08.05.07,0,0,.06.16.06s0-.07-.07-.11h.18l-.19,0Z"/><path class="cls-2" d="M28.24,13.84h0S28.26,13.84,28.24,13.84Z"/><path class="cls-2" d="M28.31,13.81a.42.42,0,0,0,.07-.13s-.08.08-.15.11h0c-.08,0,0,0,0,.05s0,0,0,0A.09.09,0,0,1,28.31,13.81Z"/><path class="cls-2" d="M28.89,13.66h-.16s0,0,.08,0v0Z"/><path class="cls-2" d="M29.69,13.53l-.09-.07,0,0Z"/><polygon class="cls-2" points="29.88 13.53 29.82 13.5 29.83 13.54 29.88 13.53"/><path class="cls-2" d="M33.48,16.89a.18.18,0,0,1,0,.11l.05,0S33.53,17,33.48,16.89Z"/><path class="cls-2" d="M32,14.46a.32.32,0,0,0-.13-.07S31.89,14.43,32,14.46Z"/><path class="cls-2" d="M30.37,22.08s0,0,0,0S30.4,22.08,30.37,22.08Z"/><path class="cls-2" d="M32,14.46a.36.36,0,0,1,.11.1h0A.22.22,0,0,0,32,14.46Z"/><path class="cls-2" d="M30.67,13.73Z"/><path class="cls-2" d="M30.58,13.7h0Z"/><path class="cls-2" d="M30.73,13.75l-.06,0h0Z"/><path class="cls-2" d="M30.23,13.6a.16.16,0,0,1,.09,0l-.1,0S30.23,13.59,30.23,13.6Z"/><path class="cls-2" d="M29.32,13.73v0h0C29.42,13.75,29.38,13.73,29.32,13.73Z"/><path class="cls-2" d="M30,13.71h0c.07,0,.12.05.14,0S30,13.65,30,13.71Z"/><path class="cls-2" d="M29.89,13.69H30S29.88,13.66,29.89,13.69Z"/><path class="cls-2" d="M30.77,13.76s0,.05,0,.05S30.76,13.7,30.77,13.76Z"/><polygon class="cls-2" points="30.08 13.84 30.05 13.79 30.02 13.84 30.08 13.84"/><path class="cls-2" d="M30.42,13.91l.1,0s-.06,0-.12,0Z"/><path class="cls-2" d="M30.4,13.89a.13.13,0,0,0-.08,0Z"/><path class="cls-2" d="M31.62,14.5l-.08-.08s0,0,0,.06S31.62,14.52,31.62,14.5Z"/><polygon class="cls-2" points="25.96 14.89 25.91 14.97 25.95 14.96 25.96 14.89"/><path class="cls-2" d="M26.09,14.9s0-.05.05-.06h-.08Z"/><path class="cls-2" d="M34.33,7.82s0,0,0-.06S34.29,7.76,34.33,7.82Z"/><polygon class="cls-2" points="33.98 7.21 33.99 7.19 33.96 7.11 33.98 7.21"/><path class="cls-2" d="M33.66,6.67a2.4,2.4,0,0,1,.18.36l0-.07h0C33.76,6.87,33.75,6.69,33.66,6.67Z"/><path class="cls-2" d="M33.38,6.44l0,0h0C33.37,6.36,33.41,6.44,33.38,6.44Z"/><path class="cls-2" d="M33.4,6.49s0,.06,0,0Z"/><path class="cls-2" d="M33.26,6.24s0,0,.05,0V6.2S33.24,6.15,33.26,6.24Z"/><path class="cls-2" d="M33.33,6.15V6.1S33.32,6.14,33.33,6.15Z"/><path class="cls-2" d="M33.33,6.15v.1s0-.07,0-.06S33.34,6.16,33.33,6.15Z"/><path class="cls-2" d="M33.37,6.29c.06.16.11.17.06,0C33.44,6.39,33.4,6.33,33.37,6.29Z"/><path class="cls-2" d="M33.76,6.65l0,0s.06.07.06.1Z"/><path class="cls-2" d="M33.18,5.77V5.7s0,0-.07,0S33.16,5.74,33.18,5.77Z"/><path class="cls-2" d="M33.18,5.7s0,0,0-.1Z"/><path class="cls-2" d="M33.4,6.06V6a1.34,1.34,0,0,0,0,.2Z"/><path class="cls-2" d="M33,5.31v0a.42.42,0,0,1,0,.1Z"/><path class="cls-2" d="M33,4.88a.48.48,0,0,0,0,.18s0,.05.07,0A.35.35,0,0,1,33,4.88Z"/><path class="cls-2" d="M33.15,5.44v0l0,0C33.11,5.43,33.14,5.44,33.15,5.44Z"/><polygon class="cls-2" points="33.12 5.33 33.14 5.41 33.14 5.41 33.12 5.33"/><path class="cls-2" d="M33.29,5.84c0-.1.05,0,.07-.08S33.29,5.77,33.29,5.84Z"/><path class="cls-2" d="M33.2,5.6s0,0,0,0l0-.1Z"/><polygon class="cls-2" points="33.2 5.45 33.21 5.49 33.21 5.44 33.2 5.45"/><path class="cls-2" d="M33.11,5a1.1,1.1,0,0,0,0-.18.61.61,0,0,1,0,.15C33.07,5,33.1,5,33.11,5Z"/><polygon class="cls-2" points="33.1 4.29 33.11 4.29 33.1 4.28 33.1 4.29"/><path class="cls-2" d="M33.12,5h0v.1A.13.13,0,0,0,33.12,5Z"/><path class="cls-2" d="M33.07,4.71l0-.07S33.05,4.69,33.07,4.71Z"/><path class="cls-2" d="M33.1,5.17a.19.19,0,0,0,0-.08.19.19,0,0,0,0,.07Z"/><path class="cls-2" d="M33.05,4.37a.56.56,0,0,1,0,.15v0h0a1.34,1.34,0,0,0,0-.2S33.07,4.3,33.05,4.37Z"/><path class="cls-2" d="M33.07,4.71a.3.3,0,0,0,0,.1.38.38,0,0,1,0-.1c0,.14.06-.11,0,.08,0-.07.05,0,.05-.15s-.06,0-.11.07h0s0,0,0,0h0s0-.07,0,0a.58.58,0,0,0,0-.19,1.23,1.23,0,0,0,0,.2Z"/><path class="cls-2" d="M33.41,5.63h0S33.42,5.62,33.41,5.63Z"/><path class="cls-2" d="M33.41,5.63s0,0,0,0a.15.15,0,0,1,0-.07.31.31,0,0,0-.12-.07s.07.07.11.14h0C33.4,5.73,33.41,5.66,33.41,5.63Z"/><path class="cls-2" d="M33.23,5v.16s0,0,0-.08h0Z"/><path class="cls-2" d="M33.11,4.19,33,4.27h0Z"/><polygon class="cls-2" points="33.1 3.99 33.07 4.05 33.11 4.04 33.1 3.99"/><path class="cls-2" d="M36.59.31s-.07,0-.13.08a.35.35,0,0,1,.12,0Z"/><path class="cls-2" d="M34,1.91a.6.6,0,0,0-.07.14S34,2,34,1.91Z"/><path class="cls-2" d="M41.66,3.51s0,0,0,0S41.66,3.47,41.66,3.51Z"/><path class="cls-2" d="M34,1.91l.1-.11s0,0,0,0A.19.19,0,0,0,34,1.91Z"/><path class="cls-2" d="M33.3,3.2s0,0,0,0Z"/><path class="cls-2" d="M33.27,3.3v0S33.26,3.3,33.27,3.3Z"/><path class="cls-2" d="M33.32,3.14l0,.06h0A.64.64,0,0,0,33.32,3.14Z"/><path class="cls-2" d="M33.18,3.65a.14.14,0,0,1,0-.09l0,.09S33.17,3.64,33.18,3.65Z"/><path class="cls-2" d="M33.3,4.55h0a.06.06,0,0,1,0,0C33.33,4.46,33.31,4.49,33.3,4.55Z"/><path class="cls-2" d="M33.29,3.78c0,.06-.07.13,0,.12h0C33.3,3.85,33.33,3.79,33.29,3.78Z"/><path class="cls-2" d="M33.28,3.93s0,.06,0,.06A.14.14,0,0,1,33.28,3.93Z"/><path class="cls-2" d="M33.38,3.07c.1-.15-.11,0,0,0S33.38,3.11,33.38,3.07Z"/><polygon class="cls-2" points="33.41 3.85 33.41 3.79 33.37 3.82 33.41 3.85"/><path class="cls-2" d="M33.51,3.35s0,.06,0,.12l0,0S33.5,3.38,33.51,3.35Z"/><path class="cls-2" d="M33.43,3.55s0,0,0-.08A.34.34,0,0,1,33.43,3.55Z"/><path class="cls-2" d="M34.05,2.31s0-.06,0-.06L34,2.34S34,2.33,34.05,2.31Z"/><polygon class="cls-2" points="34.47 7.91 34.55 7.96 34.53 7.93 34.47 7.91"/><path class="cls-2" d="M34.41,7.73v.09l.06,0S34.43,7.75,34.41,7.73Z"/><path class="cls-2" d="M41.67,30.85s0,0,0,0S41.67,30.81,41.67,30.85Z"/><polygon class="cls-2" points="41.48 31.58 41.54 31.49 41.52 31.5 41.48 31.58"/><path class="cls-2" d="M41.46,31.78c0,.11-.13.24-.08.32a3.46,3.46,0,0,1,.13-.38l-.07,0Z"/><path class="cls-2" d="M41.42,32.47a.39.39,0,0,0,0-.06v0C41.37,32.53,41.4,32.44,41.42,32.47Z"/><path class="cls-2" d="M41.44,32.41c0,.05,0-.07,0,0Z"/><path class="cls-2" d="M41.37,32.62l-.06.07c0,.06,0,.08.06,0S41.37,32.64,41.37,32.62Z"/><path class="cls-2" d="M41.25,32.7l0,0S41.25,32.71,41.25,32.7Z"/><path class="cls-2" d="M41.28,32.67c-.05,0,0,0,0,0l.06-.08S41.25,32.66,41.28,32.67Z"/><path class="cls-2" d="M41.32,32.57c.08-.15,0-.19,0,0C41.34,32.46,41.33,32.52,41.32,32.57Z"/><path class="cls-2" d="M41.34,32l0,0v.07S41.32,32,41.34,32Z"/><path class="cls-2" d="M41,33.12s0,.06,0,.07,0-.08,0-.11Z"/><path class="cls-2" d="M41,33.19l.07-.07S41,33.12,41,33.19Z"/><path class="cls-2" d="M41.14,32.72v0l.13-.14Z"/><path class="cls-2" d="M40.82,33.52l.11-.05-.06,0Z"/><path class="cls-2" d="M40.7,33.69a.3.3,0,0,1-.11.15.47.47,0,0,0,.16-.1S40.75,33.68,40.7,33.69Z"/><path class="cls-2" d="M40.88,33.42c0-.05,0-.08,0-.09l0,0Z"/><polygon class="cls-2" points="40.81 33.43 40.86 33.37 40.86 33.36 40.81 33.43"/><path class="cls-2" d="M41.06,33c-.07.06-.06,0-.1,0S41,33,41.06,33Z"/><path class="cls-2" d="M40.92,33.17l-.05.08.09-.07S40.93,33.17,40.92,33.17Z"/><polygon class="cls-2" points="40.85 33.29 40.87 33.26 40.83 33.29 40.85 33.29"/><path class="cls-2" d="M40.59,33.68a.76.76,0,0,0-.11.14.5.5,0,0,1,.11-.1S40.6,33.68,40.59,33.68Z"/><polygon class="cls-2" points="40.1 34.18 40.09 34.17 40.09 34.19 40.1 34.18"/><path class="cls-2" d="M40.59,33.67s0,0,0,0l.07-.08A.15.15,0,0,0,40.59,33.67Z"/><path class="cls-2" d="M40.42,33.9l0,.08S40.42,33.93,40.42,33.9Z"/><path class="cls-2" d="M40.72,33.57Z"/><path class="cls-2" d="M40.72,33.56l-.06,0a.09.09,0,0,0,.06,0Z"/><path class="cls-2" d="M40.19,34.16a.58.58,0,0,1,.08-.14l0,0h0l-.15.14S40.13,34.19,40.19,34.16Z"/><path class="cls-2" d="M40.42,33.9h0s-.05,0,0,0h0s0,0,0,0h0l.06-.08-.08.07c.08-.12-.12,0,0-.1-.06,0-.06,0-.15.07s.07,0,.13,0a.76.76,0,0,0-.13.13l.15-.12Z"/><path class="cls-2" d="M40.82,33h0S40.81,33,40.82,33Z"/><path class="cls-2" d="M40.8,33.08a.57.57,0,0,0,0,.14.37.37,0,0,1,0-.18h0c0-.09,0,0-.06,0s0,0,0,0S40.81,33.07,40.8,33.08Z"/><path class="cls-2" d="M40.53,33.53v0l0,.09.12-.11S40.58,33.45,40.53,33.53Z"/><path class="cls-2" d="M40,34.25h.11l0,0Z"/><polygon class="cls-2" points="39.88 34.39 39.95 34.37 39.91 34.34 39.88 34.39"/><path class="cls-2" d="M34.82,34.52s.06,0,.15,0a.3.3,0,0,1-.11-.06Z"/><path class="cls-2" d="M37.76,35.2a.56.56,0,0,0,.15,0S37.83,35.17,37.76,35.2Z"/><path class="cls-2" d="M33.49,28.68s0,0,0,0S33.47,28.71,33.49,28.68Z"/><path class="cls-2" d="M37.76,35.2h-.18A.19.19,0,0,0,37.76,35.2Z"/><path class="cls-2" d="M39.19,34.81Z"/><path class="cls-2" d="M39.28,34.76l0,0S39.28,34.77,39.28,34.76Z"/><path class="cls-2" d="M39.13,34.83l.06,0s0,0,0,0Z"/><path class="cls-2" d="M39.59,34.58a.22.22,0,0,1-.07.06l.09,0S39.59,34.59,39.59,34.58Z"/><path class="cls-2" d="M40.14,33.85v0s0,0,0,0S40.1,33.89,40.14,33.85Z"/><path class="cls-2" d="M39.6,34.41c.07,0,.14,0,.09-.08h0C39.64,34.35,39.59,34.37,39.6,34.41Z"/><path class="cls-2" d="M39.77,34.28l-.05,0S39.79,34.29,39.77,34.28Z"/><path class="cls-2" d="M39,34.84c-.18,0,.1,0,.05,0S39.06,34.82,39,34.84Z"/><polygon class="cls-2" points="39.58 34.32 39.57 34.27 39.53 34.31 39.58 34.32"/><path class="cls-2" d="M39.26,34.5h0l-.08.06Z"/><path class="cls-2" d="M38,34.9c-.05,0-.08,0-.06,0h.11S38.06,34.91,38,34.9Z"/><polygon class="cls-2" points="41.67 30.57 41.66 30.6 41.69 30.65 41.67 30.57"/><path class="cls-2" d="M41.6,30.82l.06-.06-.06,0A.11.11,0,0,1,41.6,30.82Z"/><path class="cls-2" d="M23.21,31.21s0,0,0,0S23.2,31.17,23.21,31.21Z"/><polygon class="cls-2" points="23.01 31.95 23.07 31.86 23.05 31.86 23.01 31.95"/><path class="cls-2" d="M23,32.14c0,.11-.13.25-.08.32,0-.09.1-.25.13-.38l-.07,0Z"/><path class="cls-2" d="M23,32.83l0-.06v0C22.9,32.89,22.93,32.8,23,32.83Z"/><path class="cls-2" d="M23,32.77s0-.06,0,0Z"/><path class="cls-2" d="M22.9,33l-.06.07c0,.06,0,.08.06,0S22.9,33,22.9,33Z"/><path class="cls-2" d="M22.78,33.06l0,0A0,0,0,0,0,22.78,33.06Z"/><path class="cls-2" d="M22.81,33s0,0,0,0l.06-.07S22.78,33,22.81,33Z"/><path class="cls-2" d="M22.85,32.93c.08-.15,0-.19,0,0C22.88,32.82,22.86,32.88,22.85,32.93Z"/><path class="cls-2" d="M22.87,32.36l0,0v.07S22.85,32.38,22.87,32.36Z"/><path class="cls-2" d="M22.57,33.49s0,.06,0,.06,0-.07,0-.11Z"/><path class="cls-2" d="M22.5,33.55l.07-.06S22.54,33.48,22.5,33.55Z"/><path class="cls-2" d="M22.67,33.08v0l.13-.14Z"/><path class="cls-2" d="M22.36,33.88l.1,0-.06,0Z"/><path class="cls-2" d="M22.24,34.05a.34.34,0,0,1-.12.16.7.7,0,0,0,.16-.1S22.29,34,22.24,34.05Z"/><path class="cls-2" d="M22.41,33.78a.16.16,0,0,0,0-.09l0,0Z"/><polygon class="cls-2" points="22.35 33.79 22.39 33.73 22.39 33.73 22.35 33.79"/><path class="cls-2" d="M22.59,33.32c-.07,0-.06,0-.1,0S22.54,33.35,22.59,33.32Z"/><path class="cls-2" d="M22.45,33.53l-.05.09.09-.08S22.46,33.53,22.45,33.53Z"/><polygon class="cls-2" points="22.38 33.65 22.4 33.62 22.36 33.65 22.38 33.65"/><path class="cls-2" d="M22.12,34a.76.76,0,0,0-.11.14.34.34,0,0,1,.12-.09C22.17,34,22.13,34,22.12,34Z"/><polygon class="cls-2" points="21.63 34.54 21.62 34.54 21.62 34.55 21.63 34.54"/><path class="cls-2" d="M22.12,34s0,0,0,0l.07-.08S22.14,34,22.12,34Z"/><path class="cls-2" d="M22,34.27l0,.07S22,34.29,22,34.27Z"/><path class="cls-2" d="M22.26,33.93h0S22.25,34,22.26,33.93Z"/><path class="cls-2" d="M22.25,33.92l-.06,0,.06,0Z"/><path class="cls-2" d="M21.73,34.52a.46.46,0,0,1,.07-.14l0,0h0l-.15.14S21.66,34.55,21.73,34.52Z"/><path class="cls-2" d="M22,34.26h0s-.05,0,0,0h0l.06-.09-.08.07c.08-.12-.12,0,0-.1-.06,0-.06,0-.15.08s.08,0,.13,0l-.13.13a1.67,1.67,0,0,0,.16-.12Z"/><path class="cls-2" d="M22.36,33.37h0S22.35,33.38,22.36,33.37Z"/><path class="cls-2" d="M22.33,33.44a.47.47,0,0,0,0,.14.38.38,0,0,1,0-.18h0c0-.08,0,0-.05,0s0,0,0,0A.09.09,0,0,1,22.33,33.44Z"/><path class="cls-2" d="M22.06,33.89v0L22,34l.11-.11S22.12,33.82,22.06,33.89Z"/><path class="cls-2" d="M21.55,34.61h.12l-.05,0Z"/><polygon class="cls-2" points="21.42 34.75 21.48 34.73 21.45 34.71 21.42 34.75"/><path class="cls-2" d="M16.35,34.89s.07,0,.15,0l-.11-.06Z"/><path class="cls-2" d="M19.29,35.57l.15,0S19.36,35.53,19.29,35.57Z"/><path class="cls-2" d="M15,29.05s0,0,0,0S15,29.07,15,29.05Z"/><path class="cls-2" d="M19.29,35.57h-.18A.22.22,0,0,0,19.29,35.57Z"/><path class="cls-2" d="M23.1,30.52a.25.25,0,0,1,0,.08S23.11,30.53,23.1,30.52Z"/><path class="cls-2" d="M20.72,35.17Z"/><path class="cls-2" d="M20.81,35.12l0,0S20.82,35.13,20.81,35.12Z"/><path class="cls-2" d="M20.66,35.2l.06,0h0Z"/><path class="cls-2" d="M21.12,34.94s0,0-.07.06l.1,0S21.13,35,21.12,34.94Z"/><path class="cls-2" d="M21.13,34.78c.07,0,.14-.05.1-.09h0C21.18,34.71,21.12,34.74,21.13,34.78Z"/><path class="cls-2" d="M21.3,34.64a.05.05,0,0,1-.05,0S21.32,34.66,21.3,34.64Z"/><path class="cls-2" d="M20.57,35.2c-.18,0,.1,0,.05,0S20.59,35.18,20.57,35.2Z"/><polygon class="cls-2" points="21.11 34.69 21.1 34.63 21.06 34.67 21.11 34.69"/><path class="cls-2" d="M20.68,34.92s.06,0,.12-.06h0Z"/><path class="cls-2" d="M20.8,34.86l.08,0S20.83,34.85,20.8,34.86Z"/><path class="cls-2" d="M19.56,35.27s-.07,0-.06,0h.12S19.59,35.27,19.56,35.27Z"/><polygon class="cls-2" points="23.2 30.93 23.19 30.96 23.23 31.02 23.2 30.93"/><path class="cls-2" d="M23.14,31.18l.06-.06-.07,0A.22.22,0,0,1,23.14,31.18Z"/><path class="cls-2" d="M33.43,18.32c.09-.16,0-.13.12-.32,0,.08-.07,0-.11,0l.09-.13-.07,0a.36.36,0,0,0,0-.18s0,0,0,0,.06-.28.09-.32,0-.17-.09-.2,0-.05,0-.07.08,0,0,0v0h0a.61.61,0,0,0,0-.15l0,.05,0-.06v0h0a.18.18,0,0,1,0-.11.8.8,0,0,1-.09-.31.44.44,0,0,0-.13-.31s0,.06,0,.08c-.06-.17-.21-.29-.23-.41l0,0a1.29,1.29,0,0,0-.16-.31l0,0a2.43,2.43,0,0,1-.19-.27c-.07-.1-.14-.18-.22-.18s-.15-.15-.21-.22h0a1,1,0,0,1-.18-.18c-.24-.09-.36-.28-.54-.39h0a1.09,1.09,0,0,0-.17-.13.21.21,0,0,0-.08-.07.44.44,0,0,0-.24-.1l-.12-.05c.13.09,0,.05-.06.09l-.06-.06s0,.05,0,0-.19-.09-.23-.15l.06,0h0v0c-.11,0-.07,0-.06,0s-.19,0-.29,0c.14-.07-.27-.06-.18-.13-.1,0-.06,0-.13,0a.63.63,0,0,1,.33.15l-.11,0c.05.09.22,0,.27.06s-.12,0-.13,0l0-.06a.61.61,0,0,1,.31.16c-.09,0,.1.08,0,.09l-.06,0s0,0,0,0l-.34-.1h0a2.41,2.41,0,0,0-.37-.07c0-.07-.16-.11-.11-.15s0,.05-.17,0,.1-.06.14-.08-.09,0-.09-.06-.17.19-.07.23a.17.17,0,0,1,.17,0A4.09,4.09,0,0,0,26.27,15l-.17.18c0-.08,0-.15-.07-.14l.06,0c-.06,0-.16.18-.25.18l-.09.24s-.07,0-.06-.05-.07.09-.05,0a9.09,9.09,0,0,1-.39.83A2.37,2.37,0,0,0,25,17s0,0-.05,0-.05.1-.07.16.05.12.07.17-.06,0-.07,0c-.06.3,0,.6,0,.84,0,.08.08,0,.09.08-.05-.07-.05,0-.05.09s0,.17,0,.13.08.36.21.29c0,.11,0,.11-.06.08a1.21,1.21,0,0,1,.07.36s.07.19.13.35.15.3.23.33c-.1,0,0,0,0,.11l-.08,0,.1.16,0,0s0,0,.08,0a.43.43,0,0,1,.07.21l0,0,0,.08c0,.05-.09-.22.06-.07,0,0,0,.16.06.18s0-.1,0-.08l.09.12h-.09a4.42,4.42,0,0,0,1,.86c0-.05.27.17.29.06h0c-.09-.06.07-.05.13,0s.11.17-.1.07l0,.05.52,0c1.29,0,3.59-.31,4.44-2.39l.1,0A5.31,5.31,0,0,1,30.62,22l.14-.08c.07,0,0,0,0,.07s.4-.1.44-.15,0-.07,0-.11,0,.13.2,0c0,0-.07,0-.06,0s.09-.28.18-.29l0,.05c.14-.05.2-.3.28-.23l0,0c.15-.2.1,0,.25-.26h0c.09-.07.09-.15.18-.14l0,0a2,2,0,0,0,.19-.22.12.12,0,0,0,.07-.07c.06,0,.23-.24.26-.3s-.07,0-.07,0,.11-.06.12-.16.17.07.26-.09c0,0,0,.05-.06,0s0-.06.05-.07-.05,0-.06,0,.1-.18.2-.33c0,0,0,0-.06,0s0-.25.11-.15c0-.17.09-.38.14-.56a1,1,0,0,0,0-.43s0-.13,0-.19Zm-7.95,1.82s0,0,0,0Zm4.24-6.35Zm1.4.17h0S31.19,14,31.12,14Zm.1.32.09,0a.38.38,0,0,1-.15-.09l.11,0c-.08,0-.16,0-.27-.1s0-.12.09-.12a.29.29,0,0,1,.2.13.46.46,0,0,0,.2.19s0-.09.1,0a.51.51,0,0,1,.16.28A4.93,4.93,0,0,0,31.22,14.28Zm1,.79h.06a.2.2,0,0,1,0,.11Zm.42,5.22V20.2l0,0,0,0h0a.25.25,0,0,0,0-.07s0,0,0,0l0,0s.07,0,.06,0Zm.12-4.51-.08-.12.06-.06-.07,0-.08-.12h0a2.06,2.06,0,0,1,.25.18S32.81,15.75,32.76,15.78Zm.39.89c0-.07,0-.14-.07-.21l.08-.23c0,.05,0,.1,0,.15l0,0A.52.52,0,0,1,33.15,16.67Zm.18,1.41s0-.07,0-.11a.15.15,0,0,0,.09,0Z"/><path class="cls-2" d="M41.78,4.9s0,0,0,0a.39.39,0,0,0,.07-.29h0V4.35c-.08,0-.06-.1-.06-.23s0-.26-.09-.28,0-.25,0-.33l0,0c.06-.12-.11-.27-.14-.38s0,0,.06,0-.09-.4-.14-.44-.07,0-.12,0,.14,0,0-.2c0,0,0,.06,0,0S41,2.39,41,2.31l.05,0c0-.14-.29-.2-.23-.28l.05,0c-.21-.15-.05-.1-.26-.25h0c-.06-.09-.15-.08-.13-.18l0,0a1.9,1.9,0,0,0-.21-.19s-.05-.07-.08-.07-.24-.23-.29-.25,0,.06,0,.07a.14.14,0,0,0-.15-.13.27.27,0,0,0,0-.13A6.94,6.94,0,0,0,39,.9c-1.29,0-3.59.31-4.44,2.38l-.1,0A5.61,5.61,0,0,1,35.86.74l0,0,.09,0,.2-.16L36,.56a.47.47,0,0,0-.31.14s.07,0,.09,0c-.17.07-.3.22-.41.24l0-.05A1.13,1.13,0,0,0,35,1l0,0-.27.18c-.09.07-.17.15-.17.22s-.16.16-.23.21v0a.69.69,0,0,1-.18.17c-.09.24-.28.36-.39.54h0l-.13.17c.06,0,0,0-.06.08a.47.47,0,0,0-.1.24.61.61,0,0,0-.05.12c.08-.12.05,0,.09.06l-.07.06s0,0,0,0-.1.2-.16.23,0,0,0-.06h0l0,0c0,.1,0,.06-.05.05s0,.19,0,.3c-.06-.15-.06.27-.13.17.06.1,0,.06,0,.13a.73.73,0,0,1,.15-.32l0,.1c.1,0,0-.22.07-.27a.17.17,0,0,0,0,.13l-.05,0a.57.57,0,0,1,.15-.31c0,.09.08-.09.1,0l0,.07h0l-.11.35s0,0,0,0l0,.07h0c0,.12-.05.24-.07.36s-.11.16-.15.11.06,0,0,.17-.06-.1-.07-.14,0,.1-.07.1.2.16.23.07a.26.26,0,0,1,0-.18,4.18,4.18,0,0,0,1.18,3.43l.18.16c-.07,0-.15,0-.13.07l-.05-.06c0,.07.18.17.17.25l.24.1s0,.07-.05,0,.1.07,0,.05c.29.11.55.26.82.39a2.24,2.24,0,0,0,.86.25s0,0,0,.05.1.05.16.07l.16-.07c.07,0,0,.06,0,.08.3.05.59,0,.83,0,.08,0,0-.07.08-.09-.06.05,0,.06.1.05s.16,0,.12,0,.36-.08.29-.21c.12,0,.11,0,.08.06a1,1,0,0,1,.37-.06s.19-.07.34-.14a.68.68,0,0,0,.34-.22c0,.09,0,0,.11,0l0,.09.16-.1,0,0s0,0,0-.08a.3.3,0,0,1,.2-.06h0l.07,0c.06,0-.21.08-.06-.06,0,0,.16,0,.17-.07s-.09,0-.07,0l.11-.1v.09a4.69,4.69,0,0,0,.86-1c-.06,0,.17-.27.06-.29v0c-.06.09,0-.06,0-.13,0,.09.16-.1.07.1l.12-.13c.11,0,.16-.12.2-.25A1.94,1.94,0,0,1,41.63,6s0,0,0,0c.14-.22.09-.54.12-.58l0,0A.62.62,0,0,0,41.78,4.9ZM35.26,1s.07.05.1.11l-.13.07-.06-.06,0,.07-.12.09s0,0,0,0A1.08,1.08,0,0,1,35.26,1Zm-.51.55-.1.09s0,0,0,0A.42.42,0,0,1,34.75,1.56Zm-1.22,1.2Zm-.16,1.39h0v0Zm.49-1.5a.41.41,0,0,0,0-.08.36.36,0,0,1-.1.14l0-.11c0,.08,0,.16-.11.27,0,0-.11,0-.12-.09a.29.29,0,0,1,.13-.2.46.46,0,0,0,.2-.2s-.09,0,0-.1a.55.55,0,0,1,.28-.16A4.41,4.41,0,0,0,33.86,2.65Zm5.86,5.74s0,0,0,0Zm.06-7.15,0,0,0,0v0l-.07,0a.06.06,0,0,1,.05,0s0,0,0,0,0-.06,0-.06l.12.13A.11.11,0,0,0,39.78,1.24Z"/><path class="cls-2" d="M60.46,31.73c0-.3,0-.59,0-.84,0-.07-.07,0-.09-.07.06.06.06,0,.06-.09s0-.17,0-.13-.08-.36-.21-.29c0-.12,0-.11.06-.08a1.27,1.27,0,0,1-.07-.37s-.07-.19-.13-.34-.15-.31-.23-.34c.1.05,0,0,0-.11l.09,0a1.4,1.4,0,0,0-.1-.16s0-.05,0,0,0,0-.09,0a.45.45,0,0,1-.06-.2h0l0-.08c0-.05.09.22-.06.07,0,0,0-.16-.06-.17s0,.09,0,.07l-.09-.11h.09a5.27,5.27,0,0,0-1-.86c0,.06-.28-.16-.29-.06h0c.09.07-.07,0-.14,0,.1,0-.1-.16.11-.07l0,0-.52,0c-1.3,0-3.59.31-4.44,2.38l-.1,0a5.34,5.34,0,0,1,1.59-2.66l-.14.07c-.07,0,0,0,0-.06s-.41.09-.44.14,0,.08,0,.12,0-.14-.2,0h.06c-.07.06-.09.29-.18.3l0-.05c-.15,0-.2.3-.28.23l0-.05c-.15.21-.1.05-.25.26h0c-.09.06-.09.15-.18.13l0,0a1.34,1.34,0,0,0-.2.21s-.06.06-.06.08-.23.24-.26.3c.07-.09.06,0,.07,0s-.11.06-.13.15-.16-.06-.25.1c0,0,.05-.06.05,0s0,.05,0,.06,0,0,.06,0-.1.18-.2.34c0,0,0,0,0,0s0,.26-.1.15c0,.18-.09.38-.14.57a1,1,0,0,0,0,.43s0,.12,0,.18h0c-.09.16,0,.12-.12.32,0-.08.07,0,.11,0l-.09.14.07,0a.28.28,0,0,0,0,.18s0,0,0,0-.06.27-.09.32,0,.16.09.19a.19.19,0,0,0,0,.08s-.08,0,0,0h0a.7.7,0,0,0,0,.16.1.1,0,0,0,0-.05l0,.06v0a.25.25,0,0,1,0,.12.62.62,0,0,1,.08.31.6.6,0,0,0,.11.26s0,0,0,0c.06.17.21.3.23.42h0a1.49,1.49,0,0,0,.15.31l0,0a2.43,2.43,0,0,1,.19.27c.06.09.14.17.22.17s.15.16.21.23l0,0a1,1,0,0,1,.18.19c.24.09.36.28.54.39h0L54,35c0-.06,0,0,.09.06a.44.44,0,0,0,.24.1l.12.05c-.13-.08,0-.05.06-.09l.06.07s0,0,0,0,.2.1.24.16h-.06s0,0,0,0,.06,0,.06,0,.19,0,.29,0c-.14.06.27.06.18.13.1-.06.06,0,.13,0a.84.84,0,0,1-.33-.15l.11,0c0-.1-.22,0-.27-.07a.16.16,0,0,0,.13,0l0,0a.57.57,0,0,1-.32-.16c.1,0-.09-.07,0-.09l.06,0s0,0,0,0l.34.11h0l.07,0h0l.36.07c0,.06.16.11.11.15s0-.05.17,0-.11.06-.14.07.09.05.09.07.16-.2.07-.23a.2.2,0,0,1-.17,0,4.15,4.15,0,0,0,3.42-1.18l.16-.18c0,.07,0,.15.08.13l-.06,0c.06,0,.16-.18.24-.17a2.44,2.44,0,0,0,.1-.24s.07,0,.05,0,.08-.1.06,0c.11-.29.26-.55.39-.83a2.53,2.53,0,0,0,.25-.85s0,0,0,0,.06-.1.08-.15a1.34,1.34,0,0,1-.07-.18S60.44,31.74,60.46,31.73ZM52,31.1s-.07,0-.09,0A.47.47,0,0,1,52,31S52,31.07,52,31.1Zm.18,1.74a.59.59,0,0,0,0-.14l0,0a.41.41,0,0,1,.07-.26,1.72,1.72,0,0,0,.07.21Zm.52-4.05v.08l0,0,0,0h0a.16.16,0,0,0,0,.07.06.06,0,0,1,0,0l0,0s-.07,0-.06,0Zm0,4.77a1.08,1.08,0,0,1-.25-.18s.06-.06.11-.09l.08.13-.06.06.07,0,.08.12Zm.34.46a.27.27,0,0,1,0-.12l.09.1S53.06,34,53.05,34Zm1.16,1.1Zm0-.06a.27.27,0,0,1-.2-.13.47.47,0,0,0-.2-.2s0,.09-.1,0a.49.49,0,0,1-.16-.27,4.41,4.41,0,0,0,.53.35l-.09,0a.4.4,0,0,1,.15.1l-.11,0c.07.05.16,0,.27.1S54.35,35.05,54.24,35.06Zm1.34.22h0Zm4.24-6.37,0,0S59.85,29,59.82,28.91Z"/><path class="cls-2" d="M50.12,18.36c.05,0,0-.22,0-.31l0,0a.75.75,0,0,1,0-.26,3.22,3.22,0,0,1-.1-.65h0a1.49,1.49,0,0,0,0-.21c0,.06,0-.05,0-.11a.42.42,0,0,0-.1-.24s0-.08,0-.12c0,.15-.06,0-.11,0v-.09s0,.06,0,0-.07-.21-.05-.28l.05,0h0v0c-.06-.09,0-.06,0-.07s-.11-.15-.23-.19c.14.06-.14-.23,0-.22-.11,0,0,0-.12-.06a.64.64,0,0,1,.12.34l-.09-.06c0,.09.14.17.14.24s-.06-.12-.08-.11h.07a.65.65,0,0,1,.11.34c-.06-.08,0,.11-.06.07l0-.07s0,0,0,0-.11-.21-.17-.32l0,0,0-.06h0l-.2-.31c0-.05,0-.19,0-.18s-.06,0-.13-.11.12,0,.15.05,0-.1,0-.12-.25,0-.21.11l-.11-.11s0,0,0,0h0l0,0a4.21,4.21,0,0,0-1.38-1h-.17c-1.29,0-3.59.31-4.44,2.39l-.1,0A5.4,5.4,0,0,1,44.22,14h0a2.41,2.41,0,0,0-.79.42s0,0,0,0-.11,0-.16,0l-.08.17c-.07,0,0,0-.06,0-.25.17-.41.44-.61.58,0,.08.07,0,0,.12,0-.08-.05,0-.11,0s-.11.13-.11.07c0,.14-.2.31-.06.35-.06.11-.1.06-.09,0a1.17,1.17,0,0,1-.22.3s-.09.18-.16.34a.74.74,0,0,0-.08.4c0-.11,0,0-.09.06l0-.09c0,.06,0,.12,0,.18V17s0,0,0,.09,0,.12-.1.18v0l0,.09c0,.06.1-.21.1,0,0,0-.12.11-.09.18,0-.11.06-.09.07-.05s0,.1,0,.15l-.07-.06a5.37,5.37,0,0,0,.09,1.32c.06,0,.07.31.16.25h0c0-.11.08,0,.09.1-.06-.09-.05.18-.12,0a1.09,1.09,0,0,0,0,.18c-.08.07,0,.19,0,.32a1.6,1.6,0,0,1,.2.39,0,0,0,0,1,0,0c.06.24.32.44.32.5h.06a.54.54,0,0,0,.25.4s0,0,0,0a.39.39,0,0,0,.14.26v0c.06.06.12.13.19.19s.11,0,.2.12.17.19.25.14.17.19.24.25,0,0,0,0,.26.12.36.17,0,.06,0,.07c.16,0,.35.22.41.21s.06,0,.09-.07-.06.13.16.13c0,0-.06,0,0,0s.26-.13.33-.08h-.06c.14.08.36-.06.36,0l0,.05c.26,0,.11,0,.36,0h0c.11,0,.17-.05.22,0h0a1.34,1.34,0,0,0,.28,0s.09,0,.11,0,.33,0,.39,0c-.11,0-.07,0,0-.05a.17.17,0,0,0,.2,0c0,.07.06.16.25.12,0,0-.08,0-.07,0s.06,0,.08,0,0,0,0-.05.21,0,.39-.08c-.07,0,0,0,0-.07s.2-.16.18,0c.15-.1.34-.2.51-.29a1,1,0,0,0,.33-.27c0-.05.11-.07.16-.1l0,0c.18-.05.12-.06.31-.14-.09,0-.08,0,0-.1l.16,0,0-.06a.33.33,0,0,0,.13-.13s0,0,0,0,.24-.16.29-.16.12-.12.08-.2l.07-.05c0,.05,0,.08.05,0h0l0,0,.09-.12s0,0,0,.06,0-.05,0-.07,0,0,0,0h0a.18.18,0,0,1,.06-.1.66.66,0,0,1,.16-.28.51.51,0,0,0,.13-.31s0,.08,0,.08c.08-.16.06-.36.13-.46l0,0A1.28,1.28,0,0,0,50,19h0c0-.08.05-.2.07-.32A.36.36,0,0,0,50.12,18.36ZM41.51,17v0S41.54,16.91,41.51,17Zm5.06,5.21h-.18l.06-.05h0l.08,0s0,0,0,0h0S46.58,22.16,46.57,22.18Zm1.89-1.05.07-.07a.22.22,0,0,0,.07.07A.65.65,0,0,1,48.46,21.13Zm.43-5.73a.22.22,0,0,1,.11.13Zm.13.16h0v0Zm.85,1.11s0,.07,0,0Zm-.31,3.17,0,0a.4.4,0,0,1-.24.14,1.74,1.74,0,0,0,.1-.19l.22-.11Zm.14-.71c0-.05,0-.1,0-.15h.08l-.08,0a.7.7,0,0,0,0-.14h0a.94.94,0,0,1,0,.31A.37.37,0,0,1,49.7,19.13Zm.13-.75c0-.05,0-.09,0-.13s0,0,0,0A.6.6,0,0,1,49.83,18.38Zm0-.77a4.23,4.23,0,0,0-.11-.62s0,.06,0,.07a.26.26,0,0,1,0-.17.41.41,0,0,0,.05.09c0-.08-.09-.13-.11-.26s.06-.1.15,0a.26.26,0,0,1,0,.23.51.51,0,0,0,0,.28s.06-.07.06.09A.52.52,0,0,1,49.82,17.61Z"/><path class="cls-2" d="M39.54,34.41c-.1,0-.17.14-.24.14a.14.14,0,0,0,.11-.08v.07a.59.59,0,0,1-.34.11c.05,0,0,0-.06,0a2.84,2.84,0,0,1-.54.43h.1a.5.5,0,0,0,.24-.1l.12-.05c-.15,0,0-.06,0-.1H39s-.06,0,0,0,.21-.07.28,0l0,0h0c.09-.06.06,0,.07,0s.15-.12.19-.23c-.06.14.23-.15.21,0,0-.12,0,0,.06-.13a.62.62,0,0,1-.33.13Zm-.83.55Z"/><path class="cls-2" d="M41.51,30.16s.05,0,.07,0,0-.12,0,0c-.13-.29-.21-.58-.31-.86a2.25,2.25,0,0,0-.43-.79s0,0,0,0,0-.11-.06-.16l-.17-.08c0-.06,0,0,0-.06-.17-.25-.44-.4-.59-.6-.08,0,0,.07-.12,0,.09,0,0,0,0-.1s-.13-.11-.07-.11c-.14,0-.31-.2-.35-.06-.11-.06-.06-.1,0-.09a1.46,1.46,0,0,1-.3-.22s-.19-.09-.34-.15a.77.77,0,0,0-.4-.08c.1,0,0,0-.07-.08l.09,0-.18,0s0,0,0,0,0,0-.08,0a.36.36,0,0,1-.19-.1H38c-.06,0,.22.09,0,.09,0,0-.1-.12-.17-.08.11,0,.09.05.05.06H37.7l.06-.07a4.57,4.57,0,0,0-1.32.11c0,.06-.31.07-.25.16h0c.1,0,0,.07-.1.09.08-.06-.19,0,0-.12H36c-.07-.07-.19,0-.31.05a1.8,1.8,0,0,1-.39.2h0c-.25.06-.44.32-.5.33v.05a.58.58,0,0,0-.39.26s0,0,0,0a.36.36,0,0,0-.25.15h0L34,28c.06.06,0,.12-.12.21s-.19.18-.14.26-.18.17-.24.23a0,0,0,0,1,0,0c-.12.05-.11.27-.16.37s-.06,0-.08,0c0,.15-.21.35-.2.41s0,.06.07.1-.13-.07-.13.15c0,0,0-.06,0,0s.13.26.08.33V30c-.07.14.07.36,0,.37l0,0c0,.25,0,.1,0,.36h0c0,.12.05.17,0,.23v0a1.41,1.41,0,0,0,0,.29s0,.08,0,.1,0,.33,0,.39c0-.11,0-.06.06,0a.15.15,0,0,0,0,.2c-.08,0-.16.07-.12.25,0,0,0-.08,0-.06s0,.06,0,.07,0-.05.05,0,0,.2.09.38c0-.06,0,0,.07,0s.16.2,0,.18c.1.15.2.34.3.5a.89.89,0,0,0,.28.33s.06.11.09.16l0,0a2.56,2.56,0,0,0,.14.31c0-.09,0-.08.1,0s0,.1,0,.16l.06,0c0,.06.08.09.13.12s0,0,0,0,.16.23.17.29.11.12.2.07a.16.16,0,0,0,0,.07s-.08,0,0,.06h0l0,0,.11.09.38,0a.54.54,0,0,1,0-.11l.2.1h.2c1.3,0,3.59-.32,4.44-2.39l.1,0a5.63,5.63,0,0,1-1.17,2.28l.26-.14,0,0,.06,0h0l.3-.21c.05,0,.19,0,.18,0s0-.07.11-.14,0,.12-.05.16.11,0,.12,0,0-.25-.12-.21a.2.2,0,0,1-.13.11,4.14,4.14,0,0,0,1.59-3.25,1.66,1.66,0,0,0,0-.24c.06.05.11.1.15,0v.08c.07,0,0-.25.05-.3ZM33.2,31.73a0,0,0,0,0,0,0s0,.05-.05,0v-.17l.05.06a0,0,0,0,1,0,0v.05l0,0a.19.19,0,0,0,0,.08S33.22,31.76,33.2,31.73Zm1,2v-.14l.07.08A.22.22,0,0,0,34.23,33.75Zm4.06-7.15h0S38.35,26.63,38.29,26.6Zm1.5,7.51,0,0h0Z"/><polygon class="cls-2" points="39.07 34.57 39.07 34.57 39.07 34.57 39.07 34.57"/><path class="cls-2" d="M23,30.52s.06,0,.07,0,0-.12,0,0c-.13-.29-.21-.58-.31-.86a2.43,2.43,0,0,0-.43-.79s0,0,0,0,0-.1-.06-.16l-.16-.07c0-.07,0,0,0-.06-.17-.26-.44-.41-.59-.61-.07,0,0,.07-.11,0,.08,0,0,0,0-.1s-.12-.11-.07-.11c-.14,0-.31-.2-.35-.06-.11,0-.05-.1,0-.09l-.21-.14-.54,0c-1.29,0-3.59.31-4.44,2.38l-.1,0a5.31,5.31,0,0,1,1.63-2.7c-.07,0-.16,0-.26.07a2.48,2.48,0,0,1-.39.21h0c-.24.06-.43.33-.5.33l0,.06a.6.6,0,0,0-.4.25s0,0,0,0a.36.36,0,0,0-.25.15h0a1.62,1.62,0,0,0-.18.19c.05,0,0,.11-.13.2s-.18.18-.13.26-.18.17-.24.24v0c-.12.05-.11.28-.16.37s-.06,0-.07,0c0,.16-.22.35-.21.41s.05.06.07.1-.13-.07-.12.16c0,0,0-.07,0-.05s.14.26.09.33l0-.05c-.07.13.07.35,0,.36l0,0c0,.25,0,.1,0,.36h0c0,.11,0,.17,0,.22v0a1.42,1.42,0,0,0,0,.29s0,.09,0,.1,0,.33,0,.39c0-.11,0-.06.06,0a.15.15,0,0,0,0,.2c-.08,0-.16.07-.12.25,0,0,0-.07,0-.06s0,.06,0,.07,0,0,.05,0,0,.2.09.38c0-.06,0,0,.07,0s.16.19,0,.17c.1.15.2.34.3.5a1,1,0,0,0,.28.33s.06.12.1.16l0,0c.05.18.06.12.14.31,0-.09,0-.08.11,0l0,.16.06,0a.3.3,0,0,0,.13.12s0,0,0,0,.15.24.16.29.12.12.2.08a.21.21,0,0,0,0,.06s-.07.05,0,.06h0l.05,0,.12.1h0a.16.16,0,0,1,.1.05.72.72,0,0,1,.28.16.45.45,0,0,0,.32.12s-.08,0-.09,0c.17.07.36.06.46.12l0,0a1.21,1.21,0,0,0,.33.12v0a2.37,2.37,0,0,1,.31.06.38.38,0,0,0,.29,0s.22,0,.3,0l0,0a.74.74,0,0,1,.26,0,4.32,4.32,0,0,1,.66-.11h0l.21,0c-.06,0,0,0,.1,0a.42.42,0,0,0,.24-.09l.12-.06c-.14,0,0,0,0-.1h.09s-.06,0,0,0,.21-.08.28-.06a.05.05,0,0,1,0,0s0,0,0,0h0c.09-.06.06,0,.07,0s.15-.11.19-.23c-.06.14.23-.15.21,0,0-.11,0,0,.06-.12a.61.61,0,0,1-.33.12l.06-.09c-.1,0-.17.14-.24.14a.16.16,0,0,0,.11-.07v.06a.59.59,0,0,1-.34.11c.08,0-.11,0-.07,0l.06,0s0,0,0,0l.33-.17,0,0,.05,0h0c.1-.07.2-.13.3-.21s.19,0,.18,0,0-.07.11-.14,0,.12,0,.16.1,0,.11,0,0-.26-.11-.22a.23.23,0,0,1-.14.12l.14-.12.11-.1s0,0,.05,0v0l0,0a4.17,4.17,0,0,0,1.33-3c0-.08,0-.16,0-.24s.1.1.14,0v.08c.06,0,0-.25,0-.3A2.44,2.44,0,0,0,23,30.52Zm-8.3,1.57a0,0,0,0,0,0,0s0,.06-.05,0v-.18l.06.06v.08l0,0a.31.31,0,0,0,0,.08S14.75,32.12,14.73,32.09Zm1,2V34l.07.07A.16.16,0,0,0,15.76,34.12Zm1.31.94,0,0a.47.47,0,0,1-.15-.24l.2.1.11.21Zm1,.22a1.25,1.25,0,0,1-.3,0s0-.08,0-.14a.7.7,0,0,0,.14,0v.09l0-.08.14,0S18.09,35.28,18.08,35.28Zm.56.08a.34.34,0,0,1-.11,0h.14S18.64,35.35,18.64,35.36Zm1.34,0a.42.42,0,0,0-.28,0s.08,0-.08.06a.5.5,0,0,1-.31-.08,6,6,0,0,0,.61-.12l-.07,0a.57.57,0,0,1,.18,0l-.1.06c.09,0,.13-.09.26-.12s.1.07,0,.15A.27.27,0,0,1,20,35.31Zm.26,0Zm1.08-.85,0,0h0Z"/></svg>