<svg id="Layer_1" data-name="Layer 1" xmlns="http://www.w3.org/2000/svg" viewBox="0 0 147.59 12"><defs><style>.cls-1{fill:#3ea3dc;}.cls-2{fill:#636569;}</style></defs><title>evason-hua-hin-sticky</title><path class="cls-1" d="M51.63,10.9A4.78,4.78,0,0,0,56.46,6,4.8,4.8,0,1,0,46.86,6a4.79,4.79,0,0,0,4.77,4.93m6-4.79A5.86,5.86,0,0,1,51.49,12a5.93,5.93,0,0,1-5.88-6.11,6,6,0,0,1,12,.22"/><path class="cls-1" d="M69.83.22h1.1A112.8,112.8,0,0,1,71,11.64a1.94,1.94,0,0,1-1.25.08L62.94,2v9.66a1.61,1.61,0,0,1-1.12.09V.23l.57-.05a.93.93,0,0,1,1,.49c.88,1.3,1.8,2.58,2.71,3.87l3.28,4.7.47.6Z"/><path class="cls-1" d="M24.23,7.39a20.88,20.88,0,0,0,4.6,0c-.75-1.85-1.48-3.7-2.3-5.73-.8,2-1.54,3.87-2.3,5.78M26,.21h1.2C28.77,4,30.35,7.85,32,11.75H30.62c-.44-1-.89-2.08-1.35-3.18H23.81l-.66,1.59-.66,1.57a2.29,2.29,0,0,1-.4.06c-.27,0-.54,0-.81,0C21.4,11,24.88,2.52,26,.21"/><path class="cls-1" d="M1.3,1.34V5.05a2.18,2.18,0,0,0,.08.35c1.62,0,3.25,0,4.89,0,.22.32.13.64.09,1.06h-5v4.14a16.33,16.33,0,0,0,2.52.07c.82,0,1.63,0,2.51,0v1.05H.17C0,11.08-.07,2.39.08.31a39.36,39.36,0,0,1,6.3,0c0,.28,0,.57.06.93-.28,0-.51.08-.73.09H2.24c-.29,0-.59,0-.94.06"/><path class="cls-1" d="M41.89,2.94H40.75c-.09-.2-.18-.45-.29-.69a2.1,2.1,0,0,0-4,1,1.64,1.64,0,0,0,.95,1.44c.43.22.89.38,1.34.56s1.19.46,1.76.73c2.33,1.07,2,4.3.22,5.42a4.08,4.08,0,0,1-4.31,0A3.26,3.26,0,0,1,35,8.63h1.17c.09.27.17.56.29.83a2.15,2.15,0,0,0,2,1.46,2.23,2.23,0,0,0,2.24-1.27,1.94,1.94,0,0,0-.62-2.57,9.78,9.78,0,0,0-1.65-.74c-.59-.25-1.2-.44-1.76-.72A3,3,0,0,1,36.22.83,3.85,3.85,0,0,1,40.57.55a2.94,2.94,0,0,1,1.32,2.39"/><path class="cls-1" d="M18.9.23h1.24L15.57,11.74H14.31L9.78.23h1.3c1.29,3.18,2.48,6.47,3.78,9.7H15a.15.15,0,0,0,.06-.05Q17,5.09,18.82.31A.57.57,0,0,1,18.9.23"/><path class="cls-2" d="M80.35,11.79V0h1.3V5.24h5.69V0h1.32V11.79H87.34V6.4H81.65v5.39Z"/><path class="cls-2" d="M93.51,0V7.47a3.57,3.57,0,0,0,.56,2.37,2.48,2.48,0,0,0,2.05,1,2.45,2.45,0,0,0,2-1,3.63,3.63,0,0,0,.55-2.39V0H100V7.47a4.17,4.17,0,0,1-1.34,3.64,3.9,3.9,0,0,1-2.55.89,4,4,0,0,1-2.6-.89,4.2,4.2,0,0,1-1.33-3.64V0Z"/><path class="cls-2" d="M103.39,11.79H102L106.89,0h1.28l4.88,11.79h-1.44l-1.37-3.31h-5.5Zm4.09-10.31-2.34,5.91h4.7Z"/><path class="cls-2" d="M121.33,11.79V0h1.31V5.24h5.69V0h1.32V11.79h-1.32V6.4h-5.69v5.39Z"/><path class="cls-2" d="M133.2,0h1.31V11.79H133.2Z"/><path class="cls-2" d="M146.34,9.84l0-9.84h1.27V11.79h-1.27l-7-9.93,0,9.93h-1.28V0h1.34Z"/></svg>