<svg id="Layer_1" data-name="Layer 1" xmlns="http://www.w3.org/2000/svg" viewBox="0 0 160.64 9"><defs><style>.cls-1{fill:#3ea3dc;}.cls-2{fill:#666463;}</style></defs><title>evason-ana-mandara-mobile</title><path class="cls-1" d="M38.72,8.17a3.58,3.58,0,0,0,3.62-3.65,3.6,3.6,0,1,0-7.2,0,3.6,3.6,0,0,0,3.58,3.69m4.52-3.59A4.4,4.4,0,0,1,38.62,9,4.47,4.47,0,0,1,34.2,4.42,4.41,4.41,0,0,1,38.78,0a4.35,4.35,0,0,1,4.46,4.58"/><path class="cls-1" d="M52.37.16h.82a82.07,82.07,0,0,1,.09,8.57,1.43,1.43,0,0,1-.94.06L47.2,1.49V8.74a1.28,1.28,0,0,1-.84.07V.17l.43,0a.7.7,0,0,1,.73.37c.67,1,1.36,1.94,2,2.91L52,6.93l.35.45Z"/><path class="cls-1" d="M18.17,5.54a16.19,16.19,0,0,0,3.45,0c-.56-1.39-1.11-2.78-1.72-4.3-.6,1.52-1.15,2.9-1.73,4.33M19.5.16h.9C21.58,3,22.76,5.89,24,8.81H23c-.32-.77-.66-1.56-1-2.38H17.86c-.17.4-.33.79-.49,1.19s-.34.79-.5,1.18a1.92,1.92,0,0,1-.3,0H16c.09-.56,2.7-6.95,3.54-8.68"/><path class="cls-1" d="M1,1V3.79A1.13,1.13,0,0,0,1,4.05c1.21,0,2.43,0,3.66,0,.17.24.1.48.07.8H1V8A11.91,11.91,0,0,0,2.9,8c.61,0,1.22,0,1.88,0v.78H.13C0,8.31,0,1.79.06.23A30.57,30.57,0,0,1,4.79.2c0,.2,0,.42,0,.69A4.14,4.14,0,0,1,4.28,1H1.68C1.46,1,1.24,1,1,1"/><path class="cls-1" d="M31.42,2.2h-.86c-.06-.15-.13-.33-.21-.51a1.58,1.58,0,0,0-3,.74,1.24,1.24,0,0,0,.72,1.08c.32.17.67.28,1,.42s.89.35,1.33.55a2.37,2.37,0,0,1,.16,4.06,3.08,3.08,0,0,1-3.24,0,2.45,2.45,0,0,1-1.07-2.06h.88c.07.21.13.42.21.63a1.63,1.63,0,0,0,1.51,1.09,1.68,1.68,0,0,0,1.68-.95,1.47,1.47,0,0,0-.47-1.93,7.33,7.33,0,0,0-1.24-.56c-.44-.18-.89-.33-1.32-.54A2.2,2.2,0,0,1,27.17.63,2.87,2.87,0,0,1,30.42.41a2.21,2.21,0,0,1,1,1.79"/><path class="cls-1" d="M14.17.17h.93L11.68,8.81h-.94C9.62,6,8.49,3.11,7.34.17h1c1,2.38,1.86,4.85,2.84,7.28h.1a.1.1,0,0,0,.05,0C12.24,5,13.17,2.62,14.11.24l.06-.07"/><path class="cls-2" d="M61.34,9H60.26L64,0h1l3.72,9H67.62L66.57,6.47H62.38Zm3.13-7.87L62.68,5.64h3.59Z"/><path class="cls-2" d="M76.92,7.52V0h1V9h-1L71.57,1.42l0,7.58h-1V0h1Z"/><path class="cls-2" d="M80.87,9H79.79l3.76-9h1l3.73,9h-1.1L86.1,6.47H81.91ZM84,1.13,82.21,5.64H85.8Z"/><path class="cls-2" d="M94.57,9V0H96l3.33,7.55L102.63,0H104V9h-.94l0-8L99.63,9H99l-3.5-8,0,8Z"/><path class="cls-2" d="M107,9H106l3.76-9h1l3.72,9h-1.1l-1-2.53h-4.2Zm3.12-7.87-1.79,4.51H112Z"/><path class="cls-2" d="M122.62,7.52l0-7.52h1V9h-1l-5.33-7.58,0,7.58h-1V0h1Z"/><path class="cls-2" d="M126.29,0H129a4.44,4.44,0,0,1,3.54,1.35,4.49,4.49,0,0,1,1.08,3.14C133.6,7.2,132.05,9,129,9h-2.74Zm1,8.11h1.78a3.25,3.25,0,0,0,3.52-3.59,3.8,3.8,0,0,0-.88-2.62,3.42,3.42,0,0,0-2.64-1h-1.78Z"/><path class="cls-2" d="M135.66,9h-1.09l3.76-9h1L143,9h-1.1l-1.05-2.53h-4.19Zm3.12-7.87L137,5.64h3.59Z"/><path class="cls-2" d="M144.85,0h2.35a4.64,4.64,0,0,1,2.53.46A2.85,2.85,0,0,1,151,2.88a2.91,2.91,0,0,1-.54,1.77,2.46,2.46,0,0,1-2,1L150.65,9h-1.09L147,5.07h.3a3,3,0,0,0,2-.46A2.17,2.17,0,0,0,150,3a2.11,2.11,0,0,0-.89-1.74,3.2,3.2,0,0,0-1.82-.33h-1.41V9h-1Z"/><path class="cls-2" d="M153.27,9h-1.09l3.76-9h1l3.72,9h-1.1l-1-2.53h-4.2Zm3.12-7.87L154.6,5.64h3.59Z"/></svg>