<svg id="Layer_1" data-name="Layer 1" xmlns="http://www.w3.org/2000/svg" viewBox="0 0 100 16.87"><defs><style>.cls-1{fill:#3ea3dc;}</style></defs><title>evason-main-color</title><path class="cls-1" d="M72.58,15.32a6.71,6.71,0,0,0,6.79-6.85,6.75,6.75,0,1,0-13.49-.08,6.75,6.75,0,0,0,6.7,6.93m8.48-6.73a8.25,8.25,0,0,1-8.66,8.28,8.35,8.35,0,0,1-8.28-8.59,8.47,8.47,0,0,1,16.94.31"/><path class="cls-1" d="M98.18.31h1.54c.28.92.38,11.52.16,16.05a2.77,2.77,0,0,1-1.76.12L88.48,2.79V16.38a2.25,2.25,0,0,1-1.57.13V.32l.8-.07a1.32,1.32,0,0,1,1.38.69c1.24,1.83,2.53,3.63,3.81,5.45L97.52,13c.16.23.35.44.66.84Z"/><path class="cls-1" d="M34.07,10.39a29.54,29.54,0,0,0,6.46-.07c-1.05-2.6-2.08-5.2-3.22-8.06l-3.24,8.13M36.55.29h1.68l6.71,16.22H43c-.61-1.44-1.24-2.91-1.89-4.46H33.48l-.93,2.23-.93,2.22c-.23,0-.4.07-.56.08-.38,0-.76,0-1.15,0,.18-1.06,5.07-13,6.64-16.29"/><path class="cls-1" d="M1.82,1.88c0,1.9,0,3.56,0,5.23A2.19,2.19,0,0,0,2,7.6c2.27.05,4.56,0,6.86,0,.32.45.19.9.14,1.49H1.89v5.82a22,22,0,0,0,3.54.1c1.14,0,2.29,0,3.52,0v1.47H.24C0,15.58-.09,3.36.12.44A55.79,55.79,0,0,1,9,.37c0,.39,0,.79.07,1.3a8.61,8.61,0,0,1-1,.12c-1.62,0-3.24,0-4.87,0-.41,0-.83.05-1.33.08"/><path class="cls-1" d="M58.89,4.13h-1.6c-.12-.28-.25-.63-.4-1A2.87,2.87,0,0,0,53.5,1.54a2.83,2.83,0,0,0-2.24,3,2.3,2.3,0,0,0,1.34,2c.6.31,1.25.53,1.88.79.83.34,1.67.65,2.48,1,3.27,1.51,2.8,6,.3,7.63a5.77,5.77,0,0,1-6.06,0,4.57,4.57,0,0,1-2-3.87h1.63c.14.39.25.79.41,1.17a3,3,0,0,0,2.82,2,3.14,3.14,0,0,0,3.15-1.78A2.75,2.75,0,0,0,56.33,10a13.89,13.89,0,0,0-2.32-1c-.82-.35-1.68-.62-2.48-1-2.65-1.31-2.6-5-.6-6.73A5.39,5.39,0,0,1,57,.77a4.14,4.14,0,0,1,1.86,3.36"/><path class="cls-1" d="M26.57.33h1.74L21.89,16.51H20.12C18,11.19,15.91,5.82,13.75.33h1.82C17.39,4.79,19.07,9.42,20.9,14h.18a.27.27,0,0,0,.1-.08L26.46.44s.05-.06.11-.11"/></svg>