<svg id="Layer_1" data-name="Layer 1" xmlns="http://www.w3.org/2000/svg" viewBox="0 0 214.18 12"><defs><style>.cls-1{fill:#3ea3dc;}.cls-2{fill:#666463;}</style></defs><title>evason-ana-mandara-sticky</title><path class="cls-1" d="M51.63,10.9A4.78,4.78,0,0,0,56.46,6,4.8,4.8,0,1,0,46.86,6a4.79,4.79,0,0,0,4.77,4.93m6-4.79A5.86,5.86,0,0,1,51.49,12a5.93,5.93,0,0,1-5.88-6.11,6,6,0,0,1,12,.22"/><path class="cls-1" d="M69.83.22h1.1A112.8,112.8,0,0,1,71,11.64a1.94,1.94,0,0,1-1.25.08L62.94,2v9.66a1.61,1.61,0,0,1-1.12.09V.23l.57-.05a.93.93,0,0,1,1,.49c.88,1.3,1.8,2.58,2.71,3.87l3.28,4.7.47.6Z"/><path class="cls-1" d="M24.23,7.39a20.88,20.88,0,0,0,4.6,0c-.75-1.85-1.48-3.7-2.3-5.73-.8,2-1.54,3.87-2.3,5.78M26,.21h1.2C28.77,4,30.35,7.85,32,11.75H30.62c-.44-1-.89-2.08-1.35-3.18H23.81l-.66,1.59-.66,1.57a2.29,2.29,0,0,1-.4.06c-.27,0-.54,0-.81,0C21.4,11,24.88,2.52,26,.21"/><path class="cls-1" d="M1.3,1.34V5.05a2.18,2.18,0,0,0,.08.35c1.62,0,3.25,0,4.89,0,.22.32.13.64.09,1.06h-5v4.14a16.33,16.33,0,0,0,2.52.07c.82,0,1.63,0,2.51,0v1.05H.17C0,11.08-.07,2.39.08.31a39.36,39.36,0,0,1,6.3,0c0,.28,0,.57.06.93-.28,0-.51.08-.73.09H2.24c-.29,0-.59,0-.94.06"/><path class="cls-1" d="M41.89,2.94H40.75c-.09-.2-.18-.45-.29-.69a2.1,2.1,0,0,0-4,1,1.64,1.64,0,0,0,.95,1.44c.43.22.89.38,1.34.56s1.19.46,1.76.73c2.33,1.07,2,4.3.22,5.42a4.08,4.08,0,0,1-4.31,0A3.26,3.26,0,0,1,35,8.63h1.17c.09.27.17.56.29.83a2.15,2.15,0,0,0,2,1.46,2.23,2.23,0,0,0,2.24-1.27,1.94,1.94,0,0,0-.62-2.57,9.78,9.78,0,0,0-1.65-.74c-.59-.25-1.2-.44-1.76-.72A3,3,0,0,1,36.22.83,3.85,3.85,0,0,1,40.57.55a2.94,2.94,0,0,1,1.32,2.39"/><path class="cls-1" d="M18.9.23h1.24L15.57,11.74H14.31L9.78.23h1.3c1.29,3.18,2.48,6.47,3.78,9.7H15a.15.15,0,0,0,.06-.05Q17,5.09,18.82.31A.57.57,0,0,1,18.9.23"/><path class="cls-2" d="M81.79,12H80.35l5-12h1.29l5,12H90.16l-1.4-3.37H83.17ZM86,1.51l-2.39,6h4.79Z"/><path class="cls-2" d="M102.56,10V0h1.29V12h-1.29L95.43,1.9l0,10.1h-1.3V0h1.36Z"/><path class="cls-2" d="M107.83,12h-1.44l5-12h1.3l5,12H116.2l-1.39-3.37h-5.6ZM112,1.51l-2.38,6h4.78Z"/><path class="cls-2" d="M126.09,12V0H128l4.45,10.07L136.84,0h1.89V12h-1.27l0-10.67L132.84,12H132L127.31,1.33l0,10.67Z"/><path class="cls-2" d="M142.72,12h-1.45l5-12h1.3l5,12h-1.46l-1.39-3.37h-5.6Zm4.16-10.49-2.38,6h4.78Z"/><path class="cls-2" d="M163.49,10l0-10h1.3V12h-1.3L156.35,1.9l0,10.1h-1.3V0h1.36Z"/><path class="cls-2" d="M168.39,0H172a5.9,5.9,0,0,1,4.72,1.8A6,6,0,0,1,178.13,6c0,3.62-2.06,6-6.1,6h-3.64Zm1.33,10.82h2.38c3.08,0,4.69-1.9,4.69-4.79a5.14,5.14,0,0,0-1.17-3.5,4.58,4.58,0,0,0-3.52-1.35h-2.38Z"/><path class="cls-2" d="M180.87,12h-1.44l5-12h1.3l5,12h-1.46l-1.39-3.37h-5.6ZM185,1.51l-2.38,6h4.78Z"/><path class="cls-2" d="M193.13,0h3.13a6.15,6.15,0,0,1,3.38.62,3.78,3.78,0,0,1,1.63,3.22,3.85,3.85,0,0,1-.71,2.35,3.32,3.32,0,0,1-2.68,1.32l3,4.49h-1.46L196,6.76h.39a4.07,4.07,0,0,0,2.66-.61A3,3,0,0,0,200,3.94a2.83,2.83,0,0,0-1.19-2.32,4.34,4.34,0,0,0-2.43-.44h-1.88V12h-1.35Z"/><path class="cls-2" d="M204.36,12h-1.45l5-12h1.3l5,12h-1.46l-1.39-3.37h-5.6Zm4.16-10.49-2.38,6h4.78Z"/></svg>