<svg id="Layer_1" data-name="Layer 1" xmlns="http://www.w3.org/2000/svg" viewBox="0 0 75 65"><defs><style>.cls-1{fill:#5d5e5e;}.cls-2{fill:#6d2158;}</style></defs><title>fiji-footer</title><path class="cls-1" d="M33.67,62.36a8.52,8.52,0,0,0,1,0c.17,0,.17-.09.21-.07s0,.15,0,.24l0,.28s-.07,0-.06,0c0-.24-.16-.24-.4-.25h-.68c0,.46,0,.94,0,1.23s.15.46.41.48c0,0,0,.06,0,.06l-.63,0-.58,0a0,0,0,0,1,0-.06c.27,0,.36-.09.37-.52,0-.2,0-.93,0-1.13,0-.46,0-1,0-1.22,0-.48,0-.6-.4-.64,0,0,0-.07,0-.07l.6,0c.57,0,.81,0,1.31,0,.28,0,.29,0,.25.31,0,.15,0,.32-.05.44s-.08,0-.07,0c0-.2,0-.5-.39-.54a6.93,6.93,0,0,0-.82,0C33.68,61.1,33.67,61.93,33.67,62.36Z"/><path class="cls-1" d="M37,63.66c0,.5.06.57.41.6,0,0,0,.06,0,.06l-.62,0-.61,0a0,0,0,0,1,0-.06c.29,0,.37-.08.38-.6,0-.2,0-.85,0-1,0-.46,0-1,0-1.22,0-.61-.11-.61-.38-.64,0,0,0-.07,0-.07l.61,0,.53,0c.05,0,0,.06,0,.07-.25,0-.32,0-.33.64,0,.18,0,.81,0,1.21C37,62.81,37,63.46,37,63.66Z"/><path class="cls-1" d="M39.72,60.75c-.3,0-.34.14-.36.64v1.27c0,1.17,0,1.43-.26,1.82a1.29,1.29,0,0,1-1,.51s0,0,0-.06a.85.85,0,0,0,.68-.62A6.12,6.12,0,0,0,39,62.67c0-.46,0-1.08,0-1.28,0-.49,0-.6-.43-.64,0,0,0-.07,0-.07l.64,0,.57,0C39.77,60.68,39.76,60.75,39.72,60.75Z"/><path class="cls-1" d="M41.73,63.66c0,.5.06.57.41.6a0,0,0,1,1,0,.06l-.62,0-.61,0s0-.06,0-.06c.29,0,.37-.08.38-.6,0-.2,0-.85,0-1,0-.46,0-1,0-1.22,0-.61-.11-.61-.38-.64,0,0,0-.07,0-.07l.61,0,.53,0c.05,0,0,.06,0,.07-.25,0-.32,0-.34.64V62.6C41.71,62.81,41.72,63.46,41.73,63.66Z"/><path class="cls-1" d="M.12,49.67c0-.08.13-.07.13,0C.31,50.86.9,51.6,2,51.6a1.46,1.46,0,0,0,1.64-1.43c0-1-.65-1.43-1.75-2A2.51,2.51,0,0,1,.2,45.85,1.94,1.94,0,0,1,2.38,44a3.5,3.5,0,0,1,1.12.16.56.56,0,0,1,.43.69c0,.17-.09.65-.11.9s-.13.06-.13,0a1.45,1.45,0,0,0-1.45-1.46A1.24,1.24,0,0,0,.86,45.59,2,2,0,0,0,2.2,47.33c1.51.76,2.13,1.41,2.09,2.56a2.15,2.15,0,0,1-2.41,2,3.21,3.21,0,0,1-1.37-.26A.82.82,0,0,1,0,51,4.71,4.71,0,0,1,.12,49.67Z"/><path class="cls-1" d="M9.32,50.34c0,1,.14,1.17.86,1.23a.07.07,0,0,1,0,.14c-.44,0-.94,0-1.29,0s-.87,0-1.26,0c-.09,0-.08-.14,0-.14.6-.08.76-.15.78-1.23,0-.41,0-1.77,0-2.19,0-.95,0-2.11,0-2.53,0-1.26-.23-1.26-.78-1.34-.08,0-.11-.13,0-.13.33,0,.9,0,1.26,0l1.1,0c.1,0,.09.12,0,.13-.52.1-.67.11-.69,1.34,0,.37,0,1.68,0,2.52C9.29,48.57,9.31,49.93,9.32,50.34Z"/><path class="cls-1" d="M16.15,48.31c-.48.76-1.13,1.88-1.47,2.51s-.28.68.37.75c.08,0,.11.14,0,.14l-1.09,0-1.14,0c-.09,0-.09-.12,0-.14a1.31,1.31,0,0,0,1.13-.7c.62-.87,1.36-2,2-2.94-.63-1-1.35-2.16-1.88-3-.34-.51-.5-.63-1-.68-.08,0-.11-.13,0-.13.38,0,.84,0,1.15,0s.8,0,1.24,0c.11,0,.08.13,0,.13-.55.06-.55.25-.34.64.38.69.83,1.49,1.32,2.33.45-.73.88-1.47,1.22-2.15s.27-.74-.17-.82c-.08,0-.11-.13,0-.13l1.05,0,.91,0a.07.07,0,1,1,0,.13c-.35,0-.58.08-1,.71-.65.92-1.28,1.85-1.74,2.6.61,1,1.56,2.5,2.13,3.3.35.5.58.65,1,.68a.07.07,0,1,1,0,.14c-.39,0-.84,0-1.14,0s-.72,0-1.16,0c-.09,0-.08-.14,0-.14.48,0,.47-.24.25-.63C17.42,50.37,16.71,49.26,16.15,48.31Z"/><path class="cls-1" d="M27.5,49.67c0-.08.14-.07.14,0,.06,1.19.64,1.93,1.69,1.93A1.46,1.46,0,0,0,31,50.17c0-1-.64-1.43-1.75-2a2.49,2.49,0,0,1-1.63-2.32A1.93,1.93,0,0,1,29.77,44a3.5,3.5,0,0,1,1.12.16.56.56,0,0,1,.42.69c0,.17-.08.65-.11.9s-.13.06-.13,0a1.45,1.45,0,0,0-1.45-1.46,1.25,1.25,0,0,0-1.38,1.32,2,2,0,0,0,1.34,1.74c1.51.76,2.13,1.41,2.1,2.56a2.16,2.16,0,0,1-2.41,2,3.26,3.26,0,0,1-1.38-.26.82.82,0,0,1-.5-.65A5.12,5.12,0,0,1,27.5,49.67Z"/><path class="cls-1" d="M36.68,50.53c0,.73.17.76.81.78h1c1,0,1.21-.67,1.36-1.44,0-.09.15-.1.15,0A11,11,0,0,1,40,51.35c-.05.27-.26.37-.72.37s-1.72,0-2.87,0l-1.38,0c-.1,0-.08-.14,0-.14.65-.07.78-.18.8-1.23,0-.85,0-1.7,0-2.56s0-1.4,0-2.17c0-1,0-1.23-.84-1.33-.08,0-.11-.13,0-.13.41,0,1,0,1.43,0,.76,0,1.91,0,2.55,0,.36,0,.55,0,.53.3s-.08.76-.14,1.17c0,.09-.15.09-.14,0,0-.61-.21-1-.83-1.06a13.17,13.17,0,0,0-1.68,0c0,1,0,1.93,0,3a19.82,19.82,0,0,0,2,0c.35,0,.34-.14.43-.12s0,.06,0,.3a3.89,3.89,0,0,1-.12.74c0,.09-.14.09-.14,0,0-.48-.31-.48-.81-.51H36.66C36.65,48.57,36.66,49.76,36.68,50.53Z"/><path class="cls-1" d="M50.44,51.57c0,.22,0,.26,0,.27s-.1,0-.27-.21c-.78-.88-1.59-1.77-3.07-3.27-1.17-1.18-2.11-2.15-2.62-2.63,0,.94,0,3.26.11,5,0,.48.23.8,1,.87a.07.07,0,1,1,0,.14l-1.29,0-1,0a.07.07,0,1,1,0-.14c.44-.08.6-.19.65-.81.09-1.35.12-3.29.12-4.29,0-.65,0-1.46,0-2.16,0-.18,0-.23,0-.25s.09,0,.26.2c.9,1,1.89,2,3.1,3.26,1.06,1.06,2,2,2.61,2.58,0-1.44,0-3-.06-4.7,0-.89-.15-1-.83-1.12a.07.07,0,1,1,0-.13l1.11,0,.91,0c.1,0,.07.13,0,.13-.46.08-.59.41-.61,1C50.49,47.12,50.44,48.91,50.44,51.57Z"/><path class="cls-1" d="M54.86,49.67c0-.08.13-.07.13,0,.07,1.19.65,1.93,1.7,1.93a1.46,1.46,0,0,0,1.64-1.43c0-1-.65-1.43-1.75-2A2.49,2.49,0,0,1,55,45.85,1.93,1.93,0,0,1,57.13,44a3.55,3.55,0,0,1,1.12.16.56.56,0,0,1,.42.69c0,.17-.08.65-.11.9s-.13.06-.13,0A1.45,1.45,0,0,0,57,44.27a1.25,1.25,0,0,0-1.38,1.32,2,2,0,0,0,1.34,1.74c1.51.76,2.13,1.41,2.1,2.56a2.16,2.16,0,0,1-2.41,2,3.26,3.26,0,0,1-1.38-.26.82.82,0,0,1-.5-.65A5.12,5.12,0,0,1,54.86,49.67Z"/><path class="cls-1" d="M64,50.53c0,.73.17.76.81.78h1c1,0,1.21-.67,1.36-1.44,0-.09.15-.1.15,0a11,11,0,0,1-.06,1.48c0,.27-.26.37-.72.37s-1.72,0-2.87,0l-1.38,0a.07.07,0,1,1,0-.14c.65-.07.78-.18.8-1.23,0-.85,0-1.7,0-2.56s0-1.4,0-2.17c0-1,0-1.23-.84-1.33-.08,0-.11-.13,0-.13.4,0,1,0,1.43,0,.76,0,1.91,0,2.55,0,.36,0,.55,0,.53.3s-.08.76-.14,1.17c0,.09-.16.09-.14,0,0-.61-.21-1-.83-1.06a13.17,13.17,0,0,0-1.68,0c0,1,0,1.93,0,3a19.82,19.82,0,0,0,2,0c.35,0,.34-.14.43-.12s0,.06,0,.3a3.89,3.89,0,0,1-.12.74c0,.09-.14.09-.14,0,0-.48-.31-.48-.81-.51H64C64,48.57,64,49.76,64,50.53Z"/><path class="cls-1" d="M70.82,49.67c0-.08.14-.07.14,0,.06,1.19.64,1.93,1.69,1.93a1.45,1.45,0,0,0,1.64-1.43c0-1-.64-1.43-1.75-2a2.49,2.49,0,0,1-1.63-2.32A1.93,1.93,0,0,1,73.09,44a3.5,3.5,0,0,1,1.12.16.56.56,0,0,1,.42.69c0,.17-.08.65-.11.9s-.13.06-.13,0a1.45,1.45,0,0,0-1.45-1.46,1.24,1.24,0,0,0-1.37,1.32,2,2,0,0,0,1.33,1.74c1.51.76,2.13,1.41,2.1,2.56a2.16,2.16,0,0,1-2.41,2,3.3,3.3,0,0,1-1.38-.26.82.82,0,0,1-.5-.65A5.12,5.12,0,0,1,70.82,49.67Z"/><path class="cls-2" d="M59.22,34s0,0,.05,0S59.24,34,59.22,34Z"/><polygon class="cls-2" points="58.56 34.4 58.67 34.38 58.65 34.37 58.56 34.4"/><path class="cls-2" d="M58.4,34.51c-.08.09-.26.09-.27.18s.24-.11.35-.18l-.07,0Z"/><path class="cls-2" d="M57.89,35,58,35h0C57.81,35,57.9,35,57.89,35Z"/><path class="cls-2" d="M58,35s.06,0,0,0Z"/><path class="cls-2" d="M57.69,35.1s.05,0,.06-.05h-.1C57.62,35.1,57.61,35.12,57.69,35.1Z"/><path class="cls-2" d="M57.61,35h0Z"/><path class="cls-2" d="M57.65,35s0,0,0,0l.09,0S57.64,35,57.65,35Z"/><path class="cls-2" d="M57.76,34.93c.08,0,0,0,0,.06C57.91,34.93,57.91,34.87,57.76,34.93Z"/><path class="cls-2" d="M58.11,34.59l0,0s.08,0,.11,0Z"/><path class="cls-2" d="M57.14,35.24s.06,0,.09-.06h-.07S57.13,35.23,57.14,35.24Z"/><path class="cls-2" d="M57.06,35.17h.1S57.14,35.15,57.06,35.17Z"/><path class="cls-2" d="M57.52,35h0Z"/><path class="cls-2" d="M56.72,35.31l.11,0-.06,0Z"/><path class="cls-2" d="M56.52,35.34a.33.33,0,0,1-.19,0,.58.58,0,0,0,.18,0S56.56,35.36,56.52,35.34Z"/><path class="cls-2" d="M56.83,35.27c.05,0,.07-.05.07-.06h0Z"/><polygon class="cls-2" points="56.78 35.23 56.86 35.22 56.86 35.22 56.78 35.23"/><path class="cls-2" d="M57.21,35c-.1.06,0,.06.08.07S57.26,35,57.21,35Z"/><path class="cls-2" d="M57,35.12l-.09,0h.11S57,35.13,57,35.12Z"/><polygon class="cls-2" points="56.91 35.16 56.95 35.15 56.9 35.14 56.91 35.16"/><path class="cls-2" d="M56.45,35.25l-.18,0a.36.36,0,0,1,.15,0C56.48,35.28,56.45,35.26,56.45,35.25Z"/><polygon class="cls-2" points="55.74 35.26 55.74 35.25 55.73 35.26 55.74 35.26"/><path class="cls-2" d="M56.45,35.24s0,0,0,0h.1A.15.15,0,0,0,56.45,35.24Z"/><path class="cls-2" d="M56.17,35.29l-.08,0S56.15,35.31,56.17,35.29Z"/><path class="cls-2" d="M56.63,35.25h-.08l.06,0Z"/><path class="cls-2" d="M55.83,35.31l.15-.05h-.24S55.76,35.28,55.83,35.31Z"/><path class="cls-2" d="M56.17,35.29h0s-.06,0,0,0H56l.19,0Z"/><path class="cls-2" d="M56.18,35.28h0l.1,0h-.11c.15,0-.1-.06.09,0-.07,0,0-.05-.16-.06s0,.07.07.12h0Z"/><path class="cls-2" d="M57.09,34.94h0S57.07,34.94,57.09,34.94Z"/><path class="cls-2" d="M57,35a.56.56,0,0,0-.07.13S57,35,57.09,35h0c.08,0,0,0,0-.05s0,0,0,0A.08.08,0,0,1,57,35Z"/><path class="cls-2" d="M56.44,35.13h.16s0,0-.09,0v0Z"/><path class="cls-2" d="M55.64,35.25l.09.07,0,0Z"/><polygon class="cls-2" points="55.45 35.25 55.5 35.28 55.5 35.24 55.45 35.25"/><path class="cls-2" d="M51.77,31.77c-.05,0,0,.06.08.12a.16.16,0,0,1,0-.11Z"/><path class="cls-2" d="M53.37,34.33a.5.5,0,0,0,.13.07S53.44,34.35,53.37,34.33Z"/><path class="cls-2" d="M55,26.7s0,0,0,0S54.93,26.7,55,26.7Z"/><path class="cls-2" d="M53.37,34.33l-.11-.1,0,0A.24.24,0,0,0,53.37,34.33Z"/><path class="cls-2" d="M54.66,35.06Z"/><path class="cls-2" d="M54.75,35.08h0S54.76,35.09,54.75,35.08Z"/><path class="cls-2" d="M54.6,35l.06,0s0,0,0,0Z"/><path class="cls-2" d="M52.12,32.65l0,0Z"/><path class="cls-2" d="M55.1,35.18a.16.16,0,0,1-.09,0l.1,0S55.1,35.19,55.1,35.18Z"/><path class="cls-2" d="M56,35.05v0h0C55.91,35,56,35.05,56,35.05Z"/><path class="cls-2" d="M55.35,35.07h0c-.07,0-.12,0-.14,0S55.36,35.14,55.35,35.07Z"/><path class="cls-2" d="M55.44,35.09h-.06S55.45,35.12,55.44,35.09Z"/><path class="cls-2" d="M54.55,35s0-.05,0-.05S54.57,35.08,54.55,35Z"/><polygon class="cls-2" points="55.25 34.95 55.28 34.99 55.31 34.95 55.25 34.95"/><path class="cls-2" d="M54.91,34.87l-.11,0s.07,0,.13,0S54.9,34.88,54.91,34.87Z"/><path class="cls-2" d="M54.93,34.89l.08,0A.2.2,0,0,0,54.93,34.89Z"/><path class="cls-2" d="M53.71,34.28a.3.3,0,0,0,.08.08s0,0,0-.06S53.71,34.26,53.71,34.28Z"/><polygon class="cls-2" points="59.37 33.89 59.41 33.81 59.38 33.83 59.37 33.89"/><path class="cls-2" d="M59.24,33.88s0,0-.05.06h.08Z"/><path class="cls-2" d="M45.8,13.36s0,0,0,0S45.76,13.36,45.8,13.36Z"/><polygon class="cls-2" points="46.53 13.56 46.44 13.5 46.45 13.52 46.53 13.56"/><path class="cls-2" d="M46.73,13.59c.11,0,.24.13.32.08a3.06,3.06,0,0,1-.38-.14l0,.07Z"/><path class="cls-2" d="M47.42,13.64l-.06,0h0C47.48,13.68,47.39,13.65,47.42,13.64Z"/><path class="cls-2" d="M47.36,13.61s-.07,0,0,0Z"/><path class="cls-2" d="M47.64,13.69s0,0-.07,0l.06.06C47.69,13.75,47.72,13.74,47.64,13.69Z"/><path class="cls-2" d="M47.69,13.84s0,0,0,0Z"/><path class="cls-2" d="M47.61,13.78c0,.05,0,0,0,0l-.08-.06S47.61,13.8,47.61,13.78Z"/><path class="cls-2" d="M47.52,13.73c-.15-.08-.19,0-.05,0C47.4,13.71,47.47,13.73,47.52,13.73Z"/><path class="cls-2" d="M46.94,13.71l.05,0h.07S47,13.73,46.94,13.71Z"/><path class="cls-2" d="M48.13,14s-.07,0-.11,0l0,0Z"/><path class="cls-2" d="M48.13,14.1,48.07,14S48.06,14.05,48.13,14.1Z"/><path class="cls-2" d="M47.69,13.93l-.14-.13.11.11Z"/><path class="cls-2" d="M48.46,14.25s0-.07,0-.11l0,.06Z"/><path class="cls-2" d="M48.78,14.48a.47.47,0,0,0-.1-.16s-.07,0,0,0A.37.37,0,0,1,48.78,14.48Z"/><path class="cls-2" d="M48.36,14.19a.16.16,0,0,0-.09,0l0,0Z"/><polygon class="cls-2" points="48.37 14.25 48.3 14.21 48.3 14.21 48.37 14.25"/><path class="cls-2" d="M47.9,14.11c.12,0,0-.06,0-.11S47.88,14.06,47.9,14.11Z"/><path class="cls-2" d="M48.11,14.15l.09,0-.08-.09S48.12,14.14,48.11,14.15Z"/><polygon class="cls-2" points="48.23 14.21 48.2 14.2 48.23 14.24 48.23 14.21"/><path class="cls-2" d="M48.61,14.48l.14.11a.87.87,0,0,1-.09-.11C48.61,14.43,48.62,14.47,48.61,14.48Z"/><polygon class="cls-2" points="49.11 14.98 49.1 14.99 49.12 14.99 49.11 14.98"/><path class="cls-2" d="M48.6,14.48h0l-.07-.08A.1.1,0,0,0,48.6,14.48Z"/><path class="cls-2" d="M48.84,14.65l.07,0Z"/><path class="cls-2" d="M48.51,14.35Z"/><path class="cls-2" d="M48.49,14.35l0,.06s0,0,0-.06Z"/><path class="cls-2" d="M49.09,14.88,49,14.81l0,0h0l.14.15S49.12,15,49.09,14.88Z"/><path class="cls-2" d="M48.84,14.65l-.09-.06.07.09c-.12-.09,0,.12-.09,0,0,.07,0,.06.07.15s0-.07,0-.13h0s0,.05,0,0l.12.14-.11-.16Z"/><path class="cls-2" d="M48,14.24h0Z"/><path class="cls-2" d="M48,14.24s0,0,0,0a.18.18,0,0,1,.05.06.21.21,0,0,0,.14,0s-.11,0-.18,0v0C47.89,14.16,47.93,14.21,48,14.24Z"/><path class="cls-2" d="M48.47,14.54h0l.08,0-.1-.12S48.39,14.49,48.47,14.54Z"/><path class="cls-2" d="M49.17,15l0,0,0,.07A.45.45,0,0,1,49.17,15Z"/><polygon class="cls-2" points="49.3 15.13 49.27 15.17 49.31 15.2 49.3 15.13"/><path class="cls-2" d="M49.38,20.27s0-.07,0-.15a.18.18,0,0,1-.06.1Z"/><path class="cls-2" d="M50.1,17.33a1,1,0,0,0,0-.14S50.07,17.27,50.1,17.33Z"/><path class="cls-2" d="M43.52,21.51s0,0,0,0S43.54,21.53,43.52,21.51Z"/><path class="cls-2" d="M50.1,17.33a.74.74,0,0,1,0,.15s0,0,0,0A.23.23,0,0,0,50.1,17.33Z"/><path class="cls-2" d="M49.72,15.9Z"/><path class="cls-2" d="M49.68,15.81l0,0S49.68,15.81,49.68,15.81Z"/><path class="cls-2" d="M49.75,16l0-.06h0A.25.25,0,0,1,49.75,16Z"/><path class="cls-2" d="M49.56,15.56l0-.09s0,0,0,0A.22.22,0,0,1,49.56,15.56Z"/><path class="cls-2" d="M49.34,15.48c0-.07-.05-.14-.09-.09h0C49.28,15.44,49.3,15.5,49.34,15.48Z"/><path class="cls-2" d="M49.2,15.31l0,0S49.22,15.29,49.2,15.31Z"/><path class="cls-2" d="M49.77,16s0,0,0,.05S49.81,16,49.77,16Z"/><polygon class="cls-2" points="49.25 15.5 49.19 15.51 49.23 15.55 49.25 15.5"/><path class="cls-2" d="M49.42,15.85l.06.09s0-.06-.06-.12Z"/><path class="cls-2" d="M49.42,15.82a.41.41,0,0,1,0-.08A.16.16,0,0,0,49.42,15.82Z"/><path class="cls-2" d="M49.8,17.06s0,.07,0,.06V17S49.81,17,49.8,17.06Z"/><polygon class="cls-2" points="45.61 13.33 45.52 13.36 45.55 13.37 45.61 13.33"/><path class="cls-2" d="M45.77,13.42l-.06-.06,0,.07Z"/><path class="cls-2" d="M26.11,14.47s0-.05-.05,0S26.09,14.51,26.11,14.47Z"/><polygon class="cls-2" points="26.77 14.09 26.66 14.11 26.68 14.12 26.77 14.09"/><path class="cls-2" d="M26.92,14c.09-.08.27-.08.28-.17a4,4,0,0,1-.36.18l.08,0Z"/><path class="cls-2" d="M27.44,13.51l-.06,0h0C27.52,13.5,27.43,13.54,27.44,13.51Z"/><path class="cls-2" d="M27.38,13.54s-.06,0,0,0Z"/><path class="cls-2" d="M27.63,13.39s0,0-.05,0h.09S27.72,13.37,27.63,13.39Z"/><path class="cls-2" d="M27.72,13.46h.05S27.73,13.45,27.72,13.46Z"/><path class="cls-2" d="M27.68,13.47s0,0,0,0l-.1,0C27.67,13.48,27.69,13.49,27.68,13.47Z"/><path class="cls-2" d="M27.57,13.56c-.09,0,0,0,0-.06C27.42,13.56,27.42,13.62,27.57,13.56Z"/><path class="cls-2" d="M27.22,13.9l.05-.05s-.08.05-.11.05Z"/><path class="cls-2" d="M28.19,13.24s-.06,0-.09.07h.07S28.2,13.26,28.19,13.24Z"/><path class="cls-2" d="M28.27,13.32h-.1S28.19,13.34,28.27,13.32Z"/><path class="cls-2" d="M27.81,13.53h0Z"/><path class="cls-2" d="M28.61,13.18l-.11,0,.06,0Z"/><path class="cls-2" d="M28.81,13.15a.33.33,0,0,1,.19,0,.58.58,0,0,0-.19,0C28.86,13.09,28.76,13.12,28.81,13.15Z"/><path class="cls-2" d="M28.5,13.22c-.05,0-.07,0-.07.06h0Z"/><polygon class="cls-2" points="28.55 13.25 28.47 13.27 28.47 13.27 28.55 13.25"/><path class="cls-2" d="M28.12,13.49c.1-.07,0-.06-.08-.07C28.13,13.43,28.07,13.47,28.12,13.49Z"/><path class="cls-2" d="M28.29,13.37l.09,0h-.11S28.29,13.36,28.29,13.37Z"/><polygon class="cls-2" points="28.42 13.33 28.38 13.34 28.43 13.35 28.42 13.33"/><path class="cls-2" d="M28.88,13.24l.18,0a.36.36,0,0,1-.15,0C28.85,13.2,28.88,13.23,28.88,13.24Z"/><polygon class="cls-2" points="29.58 13.23 29.59 13.24 29.59 13.23 29.58 13.23"/><path class="cls-2" d="M28.87,13.25s0,0,0,0h-.1A.13.13,0,0,0,28.87,13.25Z"/><path class="cls-2" d="M29.16,13.2l.08,0S29.18,13.18,29.16,13.2Z"/><path class="cls-2" d="M28.7,13.24h.08l-.06,0Z"/><path class="cls-2" d="M29.5,13.18l-.15.05h.23S29.57,13.2,29.5,13.18Z"/><path class="cls-2" d="M29.15,13.2h0s.06,0,0,0h0s0,0,0,0h0l-.1,0h.1c-.14,0,.11.06-.08,0,.07,0,0,.05.16.06s0-.07-.07-.12h.18a1.25,1.25,0,0,0-.19,0Z"/><path class="cls-2" d="M28.24,13.55h0S28.26,13.55,28.24,13.55Z"/><path class="cls-2" d="M28.31,13.51a.52.52,0,0,0,.07-.12.67.67,0,0,1-.15.11h0c-.08,0,0,0,0,.05s0,0,0,0Z"/><path class="cls-2" d="M28.89,13.36h-.16s0,0,.08,0v0Z"/><path class="cls-2" d="M29.69,13.24l-.09-.07,0,0Z"/><polygon class="cls-2" points="29.88 13.24 29.82 13.21 29.83 13.25 29.88 13.24"/><path class="cls-2" d="M33.48,16.6a.16.16,0,0,1,0,.11h.05S33.53,16.65,33.48,16.6Z"/><path class="cls-2" d="M32,14.16a.5.5,0,0,0-.13-.07S31.89,14.14,32,14.16Z"/><path class="cls-2" d="M30.37,21.79s0,0,0,0S30.4,21.79,30.37,21.79Z"/><path class="cls-2" d="M32,14.16a.55.55,0,0,1,.11.1l0,0A.21.21,0,0,0,32,14.16Z"/><path class="cls-2" d="M30.67,13.43Z"/><path class="cls-2" d="M30.58,13.4l0,0Z"/><path class="cls-2" d="M30.73,13.46l-.06,0h0Z"/><path class="cls-2" d="M30.23,13.31h.09l-.1,0S30.23,13.3,30.23,13.31Z"/><path class="cls-2" d="M29.32,13.44v0h0C29.42,13.46,29.38,13.44,29.32,13.44Z"/><path class="cls-2" d="M30,13.42h0c.07,0,.12.05.14,0S30,13.35,30,13.42Z"/><path class="cls-2" d="M29.89,13.4H30S29.88,13.37,29.89,13.4Z"/><path class="cls-2" d="M30.77,13.47s0,0,0,0S30.76,13.41,30.77,13.47Z"/><polygon class="cls-2" points="30.08 13.54 30.05 13.5 30.02 13.54 30.08 13.54"/><path class="cls-2" d="M30.42,13.62l.1,0s-.06,0-.12,0S30.43,13.61,30.42,13.62Z"/><path class="cls-2" d="M30.4,13.6l-.08,0Z"/><path class="cls-2" d="M31.62,14.2l-.08-.07s0,0,0,.06S31.62,14.22,31.62,14.2Z"/><polygon class="cls-2" points="25.96 14.6 25.91 14.68 25.95 14.66 25.96 14.6"/><path class="cls-2" d="M26.09,14.61s0,0,.05-.06h-.08Z"/><path class="cls-2" d="M34.33,7.52s0,0,0,0S34.29,7.47,34.33,7.52Z"/><polygon class="cls-2" points="33.98 6.92 33.99 6.9 33.96 6.81 33.98 6.92"/><path class="cls-2" d="M33.66,6.38a2.4,2.4,0,0,1,.18.36l0-.08h0C33.76,6.58,33.75,6.39,33.66,6.38Z"/><path class="cls-2" d="M33.38,6.14l0,.06h0C33.37,6.06,33.41,6.15,33.38,6.14Z"/><path class="cls-2" d="M33.4,6.2s0,.06,0,0Z"/><path class="cls-2" d="M33.26,6s0,0,.05,0V5.91S33.24,5.85,33.26,6Z"/><path class="cls-2" d="M33.33,5.86V5.81S33.32,5.85,33.33,5.86Z"/><path class="cls-2" d="M33.33,5.86V6s0-.06,0,0S33.34,5.86,33.33,5.86Z"/><path class="cls-2" d="M33.37,6c.06.16.11.16.06,0C33.44,6.1,33.4,6,33.37,6Z"/><path class="cls-2" d="M33.76,6.36l0-.05s.06.08.06.11Z"/><path class="cls-2" d="M33.18,5.48V5.41s0,0-.07,0S33.16,5.45,33.18,5.48Z"/><path class="cls-2" d="M33.18,5.41s0,0,0-.1Z"/><path class="cls-2" d="M33.4,5.77v0a1.41,1.41,0,0,0,0,.2Z"/><path class="cls-2" d="M33,5V5a.49.49,0,0,1,0,.11Z"/><path class="cls-2" d="M33,4.58a.58.58,0,0,0,0,.18s0,.06.07,0A.33.33,0,0,1,33,4.58Z"/><path class="cls-2" d="M33.15,5.15v0l0,0S33.14,5.15,33.15,5.15Z"/><polygon class="cls-2" points="33.12 5.03 33.14 5.11 33.14 5.11 33.12 5.03"/><path class="cls-2" d="M33.29,5.54c0-.09.05,0,.07-.08S33.29,5.48,33.29,5.54Z"/><path class="cls-2" d="M33.2,5.31s0,0,0,0l0-.1Z"/><polygon class="cls-2" points="33.2 5.16 33.21 5.2 33.21 5.14 33.2 5.16"/><path class="cls-2" d="M33.11,4.7a1.1,1.1,0,0,0,0-.18.68.68,0,0,1,0,.15C33.07,4.73,33.1,4.71,33.11,4.7Z"/><polygon class="cls-2" points="33.1 3.99 33.11 3.99 33.1 3.98 33.1 3.99"/><path class="cls-2" d="M33.12,4.71s0,0,0,0v.1A.13.13,0,0,0,33.12,4.71Z"/><path class="cls-2" d="M33.07,4.42l0-.08S33.05,4.4,33.07,4.42Z"/><path class="cls-2" d="M33.1,4.88a.22.22,0,0,0,0-.08.14.14,0,0,0,0,.06Z"/><path class="cls-2" d="M33.05,4.08a.56.56,0,0,1,0,.15v0h0a1.48,1.48,0,0,0,0-.21A.15.15,0,0,0,33.05,4.08Z"/><path class="cls-2" d="M33.07,4.42a.36.36,0,0,0,0,.1.34.34,0,0,1,0-.1c0,.14.06-.11,0,.08,0-.07.05,0,.05-.16s-.06,0-.11.07h0s0-.06,0,0a.52.52,0,0,0,0-.18,1.23,1.23,0,0,0,0,.2Z"/><path class="cls-2" d="M33.41,5.34h0S33.42,5.33,33.41,5.34Z"/><path class="cls-2" d="M33.41,5.34s0,0,0,0a.2.2,0,0,1,0-.08.52.52,0,0,0-.12-.07.67.67,0,0,1,.11.15h0C33.4,5.44,33.41,5.37,33.41,5.34Z"/><path class="cls-2" d="M33.23,4.69v.16s0,0,0-.09h0Z"/><path class="cls-2" d="M33.11,3.89,33,4l0,0Z"/><polygon class="cls-2" points="33.1 3.7 33.07 3.75 33.11 3.75 33.1 3.7"/><path class="cls-2" d="M36.59,0s-.07,0-.13.08a.21.21,0,0,1,.12,0Z"/><path class="cls-2" d="M34,1.62a.5.5,0,0,0-.07.13S34,1.69,34,1.62Z"/><path class="cls-2" d="M41.66,3.21s0,0,0,0S41.66,3.18,41.66,3.21Z"/><path class="cls-2" d="M34,1.62a.36.36,0,0,1,.1-.11l0,0A.21.21,0,0,0,34,1.62Z"/><path class="cls-2" d="M33.3,2.91s0,0,0,0Z"/><path class="cls-2" d="M33.27,3V3S33.26,3,33.27,3Z"/><path class="cls-2" d="M33.32,2.85l0,.06h0S33.31,2.87,33.32,2.85Z"/><path class="cls-2" d="M33.18,3.35s0,0,0-.09l0,.1S33.17,3.35,33.18,3.35Z"/><path class="cls-2" d="M33.3,4.26h0a.08.08,0,0,1,0,0C33.33,4.16,33.31,4.2,33.3,4.26Z"/><path class="cls-2" d="M33.29,3.48c0,.07-.07.14,0,.13h0C33.3,3.55,33.33,3.5,33.29,3.48Z"/><path class="cls-2" d="M33.28,3.63s0,.07,0,.06A.14.14,0,0,1,33.28,3.63Z"/><path class="cls-2" d="M33.38,2.78c.1-.16-.11,0,0,0S33.38,2.82,33.38,2.78Z"/><polygon class="cls-2" points="33.41 3.56 33.41 3.5 33.37 3.53 33.41 3.56"/><path class="cls-2" d="M33.51,3.05s0,.07,0,.13,0,0,0,0S33.5,3.09,33.51,3.05Z"/><path class="cls-2" d="M33.43,3.26s0,0,0-.08Z"/><path class="cls-2" d="M34.05,2s0-.06,0-.06L34,2S34,2,34.05,2Z"/><polygon class="cls-2" points="34.47 7.62 34.55 7.67 34.53 7.63 34.47 7.62"/><path class="cls-2" d="M34.41,7.44v.08l.06,0S34.43,7.46,34.41,7.44Z"/><path class="cls-2" d="M41.67,30.56s0,0,0,0S41.67,30.52,41.67,30.56Z"/><polygon class="cls-2" points="41.48 31.29 41.54 31.2 41.52 31.21 41.48 31.29"/><path class="cls-2" d="M41.46,31.48c0,.12-.13.25-.08.33a2.87,2.87,0,0,1,.13-.38l-.07,0Z"/><path class="cls-2" d="M41.42,32.18a.39.39,0,0,0,0-.06v0C41.37,32.24,41.4,32.15,41.42,32.18Z"/><path class="cls-2" d="M41.44,32.12s0-.07,0,0Z"/><path class="cls-2" d="M41.37,32.32l-.06.08c0,.05,0,.08.06,0S41.37,32.35,41.37,32.32Z"/><path class="cls-2" d="M41.25,32.41l0,0S41.25,32.42,41.25,32.41Z"/><path class="cls-2" d="M41.28,32.37c-.05,0,0,0,0,0l.06-.08S41.25,32.37,41.28,32.37Z"/><path class="cls-2" d="M41.32,32.28c.08-.15,0-.2,0-.05C41.34,32.16,41.33,32.23,41.32,32.28Z"/><path class="cls-2" d="M41.34,31.7l0,.05v.06S41.32,31.73,41.34,31.7Z"/><path class="cls-2" d="M41,32.83s0,.06,0,.06,0-.07,0-.1Z"/><path class="cls-2" d="M41,32.9l.07-.07S41,32.82,41,32.9Z"/><path class="cls-2" d="M41.14,32.42v0l.13-.14Z"/><path class="cls-2" d="M40.83,33.23l.1,0-.06,0Z"/><path class="cls-2" d="M40.71,33.4a.38.38,0,0,1-.12.15.47.47,0,0,0,.16-.1S40.75,33.38,40.71,33.4Z"/><path class="cls-2" d="M40.88,33.13c0-.05,0-.08,0-.09l0,0Z"/><polygon class="cls-2" points="40.81 33.14 40.86 33.07 40.86 33.07 40.81 33.14"/><path class="cls-2" d="M41.06,32.66c-.07.05-.06,0-.1,0S41,32.7,41.06,32.66Z"/><path class="cls-2" d="M40.92,32.87l-.05.09.09-.07S40.93,32.88,40.92,32.87Z"/><polygon class="cls-2" points="40.85 33 40.87 32.96 40.83 33 40.85 33"/><path class="cls-2" d="M40.59,33.38l-.11.15a.5.5,0,0,1,.11-.1S40.6,33.39,40.59,33.38Z"/><polygon class="cls-2" points="40.1 33.88 40.09 33.88 40.09 33.9 40.1 33.88"/><path class="cls-2" d="M40.59,33.37s0,0,0,0l.07-.07A.13.13,0,0,0,40.59,33.37Z"/><path class="cls-2" d="M40.42,33.61l0,.07S40.42,33.64,40.42,33.61Z"/><path class="cls-2" d="M40.72,33.28Z"/><path class="cls-2" d="M40.72,33.26l-.06.05.06,0Z"/><path class="cls-2" d="M40.2,33.87a.37.37,0,0,1,.07-.14l0,0h0l-.15.14S40.13,33.9,40.2,33.87Z"/><path class="cls-2" d="M40.42,33.61h0s-.05,0,0,0h0s0,0,0,0h0l.06-.08-.08.06c.08-.12-.12,0,0-.09-.06,0-.06,0-.15.07s.08,0,.13,0a.76.76,0,0,0-.13.13l.15-.12Z"/><path class="cls-2" d="M40.83,32.71h0S40.82,32.72,40.83,32.71Z"/><path class="cls-2" d="M40.8,32.79a.4.4,0,0,0,0,.13.34.34,0,0,1,0-.17h0c0-.09,0,0-.05,0s0,0,0,0A.09.09,0,0,1,40.8,32.79Z"/><path class="cls-2" d="M40.53,33.24v0l0,.08.12-.1S40.58,33.16,40.53,33.24Z"/><path class="cls-2" d="M40,34h.11l0,0Z"/><polygon class="cls-2" points="39.89 34.09 39.95 34.08 39.91 34.05 39.89 34.09"/><path class="cls-2" d="M34.82,34.23s.06,0,.15,0a.27.27,0,0,1-.11,0Z"/><path class="cls-2" d="M37.76,34.91l.15,0S37.83,34.88,37.76,34.91Z"/><path class="cls-2" d="M33.49,28.39s0,0,0,0S33.47,28.41,33.49,28.39Z"/><path class="cls-2" d="M37.76,34.91a.38.38,0,0,1-.15,0l0,0A.22.22,0,0,0,37.76,34.91Z"/><path class="cls-2" d="M39.19,34.51Z"/><path class="cls-2" d="M39.28,34.47l0,0Z"/><path class="cls-2" d="M39.13,34.54l.06,0s0,0,0,0Z"/><path class="cls-2" d="M39.59,34.29a.22.22,0,0,1-.07.06l.09,0S39.6,34.3,39.59,34.29Z"/><path class="cls-2" d="M40.14,33.56v0s0,0,0,0S40.1,33.59,40.14,33.56Z"/><path class="cls-2" d="M39.6,34.12c.07,0,.14,0,.09-.09h0C39.64,34.06,39.59,34.08,39.6,34.12Z"/><path class="cls-2" d="M39.77,34l-.05,0S39.79,34,39.77,34Z"/><path class="cls-2" d="M39,34.54c-.18.05.1.06.05,0S39.06,34.52,39,34.54Z"/><polygon class="cls-2" points="39.58 34.03 39.57 33.98 39.53 34.02 39.58 34.03"/><path class="cls-2" d="M39.26,34.21h0l-.08.06Z"/><path class="cls-2" d="M38,34.61c-.05,0-.08,0-.06,0h.11S38.06,34.62,38,34.61Z"/><polygon class="cls-2" points="41.67 30.27 41.66 30.3 41.69 30.36 41.67 30.27"/><path class="cls-2" d="M41.6,30.52l.07-.05-.07,0A.08.08,0,0,1,41.6,30.52Z"/><path class="cls-2" d="M23.21,30.92s0,0,0,0S23.2,30.87,23.21,30.92Z"/><polygon class="cls-2" points="23.01 31.65 23.07 31.56 23.05 31.57 23.01 31.65"/><path class="cls-2" d="M23,31.85c0,.11-.13.24-.08.32,0-.1.1-.25.13-.38l-.07,0Z"/><path class="cls-2" d="M23,32.54a.39.39,0,0,0,0-.06v0C22.9,32.6,22.93,32.51,23,32.54Z"/><path class="cls-2" d="M23,32.48c0,.05,0-.06,0,0Z"/><path class="cls-2" d="M22.9,32.68l-.06.07c0,.06,0,.09.06,0S22.9,32.71,22.9,32.68Z"/><path class="cls-2" d="M22.78,32.77l0,0S22.78,32.78,22.78,32.77Z"/><path class="cls-2" d="M22.81,32.74s0,0,0,0l.06-.08S22.78,32.73,22.81,32.74Z"/><path class="cls-2" d="M22.85,32.64c.08-.15,0-.19,0,0C22.88,32.53,22.86,32.59,22.85,32.64Z"/><path class="cls-2" d="M22.87,32.07l0,0v.07S22.85,32.09,22.87,32.07Z"/><path class="cls-2" d="M22.57,33.19s0,.06,0,.07,0-.08,0-.11Z"/><path class="cls-2" d="M22.5,33.26l.07-.07S22.54,33.19,22.5,33.26Z"/><path class="cls-2" d="M22.67,32.78v0l.13-.14Z"/><path class="cls-2" d="M22.36,33.59l.1-.05-.06,0Z"/><path class="cls-2" d="M22.24,33.76a.31.31,0,0,1-.12.15.47.47,0,0,0,.16-.1S22.29,33.75,22.24,33.76Z"/><path class="cls-2" d="M22.41,33.49a.16.16,0,0,0,0-.09l0,0Z"/><polygon class="cls-2" points="22.35 33.5 22.39 33.43 22.39 33.43 22.35 33.5"/><path class="cls-2" d="M22.59,33c-.07.06-.06,0-.1,0S22.54,33.06,22.59,33Z"/><path class="cls-2" d="M22.45,33.23l-.05.1.09-.08S22.46,33.24,22.45,33.23Z"/><polygon class="cls-2" points="22.38 33.36 22.4 33.33 22.36 33.36 22.38 33.36"/><path class="cls-2" d="M22.12,33.75a.76.76,0,0,0-.11.14.38.38,0,0,1,.12-.1S22.13,33.75,22.12,33.75Z"/><polygon class="cls-2" points="21.63 34.25 21.62 34.24 21.62 34.26 21.63 34.25"/><path class="cls-2" d="M22.12,33.73s0,0,0,0l.07-.08A.19.19,0,0,0,22.12,33.73Z"/><path class="cls-2" d="M22,34l0,.08S22,34,22,34Z"/><path class="cls-2" d="M22.26,33.64h0S22.25,33.66,22.26,33.64Z"/><path class="cls-2" d="M22.25,33.62l-.06.05.06,0Z"/><path class="cls-2" d="M21.73,34.23a.37.37,0,0,1,.07-.14l0,0h0l-.15.14S21.66,34.26,21.73,34.23Z"/><path class="cls-2" d="M22,34h0s-.05,0,0,0h0s0,0,0,0h0l.06-.08-.08.07c.08-.12-.12,0,0-.1-.06,0-.06,0-.15.07s.08,0,.13,0l-.13.13L22,34Z"/><path class="cls-2" d="M22.36,33.08h0S22.35,33.09,22.36,33.08Z"/><path class="cls-2" d="M22.34,33.15a.32.32,0,0,0,0,.14.37.37,0,0,1,0-.18h0c0-.09,0,0-.05,0s0,0,0,0S22.35,33.14,22.34,33.15Z"/><path class="cls-2" d="M22.06,33.6v0l0,.09.11-.11S22.12,33.52,22.06,33.6Z"/><path class="cls-2" d="M21.55,34.32h.12l-.05,0Z"/><polygon class="cls-2" points="21.42 34.45 21.48 34.44 21.45 34.41 21.42 34.45"/><path class="cls-2" d="M16.35,34.59s.07,0,.15,0l-.11-.06Z"/><path class="cls-2" d="M19.29,35.27a.56.56,0,0,0,.15,0S19.36,35.24,19.29,35.27Z"/><path class="cls-2" d="M15,28.75a.05.05,0,0,0,0,0S15,28.78,15,28.75Z"/><path class="cls-2" d="M19.29,35.27h-.15l0,0A.19.19,0,0,0,19.29,35.27Z"/><path class="cls-2" d="M23.1,30.23a.22.22,0,0,1,0,.08S23.11,30.24,23.1,30.23Z"/><path class="cls-2" d="M20.72,34.88Z"/><path class="cls-2" d="M20.81,34.83l0,0S20.82,34.83,20.81,34.83Z"/><path class="cls-2" d="M20.66,34.9l.06,0a0,0,0,0,1,0,0Z"/><path class="cls-2" d="M21.12,34.65s0,0-.07.06l.1,0S21.13,34.66,21.12,34.65Z"/><path class="cls-2" d="M21.13,34.48c.07,0,.14,0,.1-.08h0C21.18,34.42,21.12,34.44,21.13,34.48Z"/><path class="cls-2" d="M21.3,34.35a.09.09,0,0,1-.05,0S21.32,34.36,21.3,34.35Z"/><path class="cls-2" d="M20.57,34.91c-.18,0,.1.05.05,0S20.59,34.88,20.57,34.91Z"/><polygon class="cls-2" points="21.11 34.39 21.1 34.34 21.06 34.38 21.11 34.39"/><path class="cls-2" d="M20.68,34.63l.12-.06h0Z"/><path class="cls-2" d="M20.8,34.57l.08,0A.13.13,0,0,0,20.8,34.57Z"/><path class="cls-2" d="M19.56,35s-.07,0-.06,0h.12S19.59,35,19.56,35Z"/><polygon class="cls-2" points="23.2 30.63 23.19 30.66 23.23 30.72 23.2 30.63"/><path class="cls-2" d="M23.14,30.88l.06-.05-.07,0A.2.2,0,0,1,23.14,30.88Z"/><path class="cls-2" d="M33.43,18c.09-.16,0-.13.12-.32,0,.08-.07,0-.11,0l.09-.14-.07,0a.37.37,0,0,0,0-.18s0,0,0,0,.06-.28.09-.32,0-.17-.09-.2,0,0,0-.08.08,0,0,0h0a.54.54,0,0,0,0-.15l0,.05a.43.43,0,0,0,0-.07h0a.21.21,0,0,1,0-.12.71.71,0,0,1-.09-.31.43.43,0,0,0-.13-.3s0,.06,0,.08c-.06-.17-.21-.3-.23-.41l0,0a1.29,1.29,0,0,0-.16-.31l0,0c-.06-.06-.12-.17-.19-.26s-.14-.18-.22-.18-.15-.15-.21-.23l0,0a.77.77,0,0,1-.18-.19c-.24-.08-.36-.28-.54-.38h0l-.17-.13c0,.06,0,0-.08-.06a.44.44,0,0,0-.24-.1l-.12-.05c.13.08,0,.05-.06.09l-.06-.07s0,.06,0,0-.19-.1-.23-.16h.06v0c-.11,0-.07,0-.06,0s-.19,0-.29,0c.14-.06-.27-.06-.18-.13-.1.06-.06,0-.13.05a.63.63,0,0,1,.33.15h-.11c.05.1.22,0,.27.07s-.12,0-.13,0l0-.06a.54.54,0,0,1,.31.16c-.09,0,.1.07,0,.09l-.06,0s0,0,0,0l-.34-.1h0l-.07,0h0l-.37-.07c0-.06-.16-.1-.11-.14s0,.05-.17,0,.1-.05.14-.07-.09-.05-.09-.07-.17.2-.07.24a.2.2,0,0,1,.17,0,4.15,4.15,0,0,0-3.42,1.18l-.17.18c0-.07,0-.15-.07-.13l.06-.05c-.06,0-.16.18-.25.17l-.09.24s-.07,0-.06,0-.07.09-.05,0c-.11.3-.26.55-.39.83a2.37,2.37,0,0,0-.25.85s0,0-.05,0-.05.1-.07.16A.87.87,0,0,1,25,17c0,.06-.06,0-.07,0-.06.3,0,.59,0,.84,0,.07.08,0,.09.08-.05-.07-.05,0-.05.09s0,.16,0,.13.08.35.21.28c0,.12,0,.11-.06.08a1.33,1.33,0,0,1,.07.37s.06.19.13.34.15.31.23.34c-.1,0,0,0,0,.11l-.08,0a.86.86,0,0,0,.1.16s0,.05,0,0,0,0,.08,0a.43.43,0,0,1,.07.2h0l0,.08c0,.05-.09-.22.06-.07,0,0,0,.16.06.18s0-.1,0-.08l.09.11h-.09a4.69,4.69,0,0,0,1,.86c0-.06.27.17.29.06h0c-.09-.07.07-.05.13,0s.11.17-.1.07l0,.05h.52c1.29,0,3.59-.31,4.44-2.38l.1,0a5.34,5.34,0,0,1-1.59,2.66.61.61,0,0,1,.14-.07c.07,0,0,0,0,.07.11-.12.4-.1.44-.15s0-.07,0-.12,0,.14.2,0h-.06c.07-.05.09-.28.18-.3l0,.06c.14-.05.2-.3.28-.24l0,.05c.15-.21.1-.05.25-.26h0c.09-.07.09-.16.18-.14l0,0a1.29,1.29,0,0,0,.19-.21s.07,0,.07-.08.23-.24.26-.29-.07,0-.07,0,.11-.05.12-.15.17.06.26-.1c0,0,0,.06-.06,0s0-.05.05-.06-.05,0-.06,0,.1-.18.2-.33c0,0,0,0-.06,0s0-.26.11-.15c0-.17.09-.38.14-.57a.93.93,0,0,0,0-.42s0-.13,0-.19Zm-7.95,1.82s0-.05,0,0Zm4.24-6.35h0Zm1.4.17h0S31.19,13.68,31.12,13.67Zm.1.32.09,0a.31.31,0,0,1-.15-.1l.11,0c-.08,0-.16,0-.27-.1s0-.12.09-.12a.24.24,0,0,1,.2.13.52.52,0,0,0,.2.19s0-.09.1,0a.51.51,0,0,1,.16.28A3.54,3.54,0,0,0,31.22,14Zm1,.79h.06a.2.2,0,0,1,0,.11ZM32.64,20v-.08l0,0,0,0h0l0-.07s0,0,0,0l0,0s.07,0,.06,0Zm.12-4.5-.08-.12.06-.06-.07,0-.08-.12h0a1.35,1.35,0,0,1,.25.18S32.81,15.46,32.76,15.49Zm.39.89c0-.07,0-.14-.07-.21l.08-.23c0,.05,0,.1,0,.15l0,0A.54.54,0,0,1,33.15,16.38Zm.18,1.4s0-.06,0-.1a.14.14,0,0,0,.09,0Z"/><path class="cls-2" d="M41.78,4.61s0,0,0,0a.35.35,0,0,0,.07-.28h0V4.06c-.08,0-.06-.1-.06-.23s0-.26-.09-.28,0-.25,0-.34h0c.06-.12-.11-.27-.14-.38s0,0,.06,0-.09-.4-.14-.44-.07,0-.12,0,.14,0,0-.2c0,0,0,.07,0,.06S41,2.1,41,2L41,2c0-.15-.29-.2-.23-.28l.05,0c-.21-.15-.05-.1-.26-.25h0c-.06-.09-.15-.09-.13-.18l0,0a1.24,1.24,0,0,0-.21-.19s-.05-.07-.08-.07S40,.85,39.9.82s0,.07,0,.07-.06-.11-.15-.13a.22.22,0,0,0,0-.12A6.44,6.44,0,0,0,39,.6C37.71.6,35.41.91,34.56,3l-.1,0A5.62,5.62,0,0,1,35.86.44h0l.09,0,.2-.17L36,.26a.52.52,0,0,0-.31.14s.07,0,.09,0c-.17.07-.3.21-.41.24l0,0A1.49,1.49,0,0,0,35,.71l0,0a2.62,2.62,0,0,1-.27.17c-.09.07-.17.15-.17.23s-.16.15-.23.21v0a.76.76,0,0,1-.18.18c-.09.23-.28.36-.39.54h0l-.13.16c.06,0,0,0-.06.09a.44.44,0,0,0-.1.23,1.12,1.12,0,0,0-.05.13c.08-.13.05,0,.09.06l-.07.06s0,0,0,0-.1.19-.16.23,0,0,0-.06h0c0,.11,0,.07-.05.06s0,.19,0,.29c-.06-.14-.06.27-.13.18.06.1,0,.06,0,.13a.84.84,0,0,1,.15-.33l0,.11c.1,0,0-.22.07-.27a.16.16,0,0,0,0,.13l-.05,0a.6.6,0,0,1,.15-.32c0,.1.08-.09.1,0l0,.06s0,0,0,0l-.11.35a0,0,0,0,1,0,0l0,.07h0c0,.12-.05.24-.07.36s-.11.16-.15.11.06,0,0,.17-.06-.1-.07-.14,0,.09-.07.09.2.16.23.07a.24.24,0,0,1,0-.17,4.15,4.15,0,0,0,1.18,3.42l.18.16c-.07,0-.15,0-.13.08l-.05-.06c0,.06.18.16.17.24l.24.1s0,.07-.05,0,.1.08,0,.06c.29.11.55.26.82.39a2.65,2.65,0,0,0,.86.25s0,0,0,0,.1.05.16.08l.16-.07c.07,0,0,.06,0,.07a7.83,7.83,0,0,0,.83,0c.08,0,0-.07.08-.09-.06.06,0,.06.1.06s.16,0,.12,0c.09-.11.36-.08.29-.21.12,0,.11,0,.08.06a1.33,1.33,0,0,1,.37-.07s.19-.06.34-.13a.63.63,0,0,0,.34-.23c0,.1,0,0,.11,0l0,.09.16-.09,0,0s0,0,0-.08A.4.4,0,0,1,40,8V8L40,7.93c.06,0-.21.09-.06-.06,0,0,.16,0,.17-.06s-.09,0-.07,0l.11-.1v.09a4.94,4.94,0,0,0,.86-1c-.06,0,.17-.27.06-.29v0c-.06.09,0-.07,0-.13,0,.09.16-.11.07.1l.12-.14c.11,0,.16-.11.2-.25a2.58,2.58,0,0,1,.12-.42l0,0c.14-.22.09-.54.12-.59l0,0A.59.59,0,0,0,41.78,4.61ZM35.26.71a.27.27,0,0,1,.1.11L35.23.9,35.17.84l0,.07A.5.5,0,0,0,35.1,1s0,0,0,0A1.08,1.08,0,0,1,35.26.71Zm-.51.56-.1.09s0-.05,0-.06A.24.24,0,0,1,34.75,1.27ZM33.53,2.46h0S33.55,2.39,33.53,2.46Zm-.16,1.4h0v0Zm.49-1.5a.47.47,0,0,0,0-.09.4.4,0,0,1-.1.15l0-.11c0,.08,0,.16-.11.27s-.11,0-.12-.09a.29.29,0,0,1,.13-.2.46.46,0,0,0,.2-.2s-.09,0,0-.1a.55.55,0,0,1,.28-.16A4.41,4.41,0,0,0,33.86,2.36ZM39.72,8.1s0,0,0,0ZM39.78.94l0,0,0,0v0l-.07,0s0,0,.05,0,0,0,0,0,0-.06,0-.06l.12.12Z"/><path class="cls-2" d="M60.46,31.44c0-.3,0-.6,0-.84,0-.07-.07,0-.09-.08.06.07.06,0,.06-.09s0-.16,0-.12-.08-.37-.21-.29c0-.12,0-.12.06-.08a1.33,1.33,0,0,1-.07-.37s-.07-.19-.13-.34a.63.63,0,0,0-.23-.34c.1,0,0,0,0-.11l.09,0a.86.86,0,0,0-.1-.16s0-.05,0,0,0,0-.09,0a.53.53,0,0,1-.06-.2h0l0-.08s.09.22-.06.07c0,0,0-.16-.07-.18s0,.1,0,.08a1.25,1.25,0,0,1-.09-.12h.09a4.94,4.94,0,0,0-1-.86c0,.06-.28-.17-.29-.06h0c.09.06-.07.05-.14,0,.1,0-.1-.17.11-.07,0,0,0,0,0-.05h-.52c-1.3,0-3.59.31-4.44,2.38l-.1,0a5.35,5.35,0,0,1,1.59-2.67.41.41,0,0,1-.14.08c-.07,0,0,0,0-.07-.11.12-.41.1-.44.15s0,.07,0,.12,0-.14-.2,0c0,0,.07,0,.06,0s-.09.28-.18.3l0-.06c-.15.05-.2.3-.28.23l0,0c-.15.2-.1,0-.25.26h0c-.09.07-.09.15-.18.14l0,0a2.09,2.09,0,0,0-.2.22s-.06.05-.06.08-.23.24-.26.29.06,0,.07,0a.17.17,0,0,0-.13.16c-.07,0-.16-.06-.25.1,0,0,.05-.06.05,0s0,.05,0,.06,0,0,.06,0-.1.18-.2.33c0,0,0,0,0,0s0,.25-.1.15c0,.17-.09.38-.14.57a1,1,0,0,0,0,.42s0,.13,0,.19h0c-.09.16,0,.13-.12.32,0-.08.07,0,.11,0L51.8,31l.07,0a.28.28,0,0,0,0,.18s0,0,0,0-.06.27-.09.31,0,.17.09.2a.19.19,0,0,0,0,.08s-.08,0,0,0h0a.54.54,0,0,0,0,.15l0-.05s0,0,0,.06v0h0a.21.21,0,0,1,0,.12.58.58,0,0,1,.08.3.64.64,0,0,0,.11.27s0,0,0,0c.06.17.21.3.23.41l0,0a1.79,1.79,0,0,0,.15.31l0,0c.06.06.12.18.19.27s.14.18.22.18.15.15.21.23l0,0a.77.77,0,0,1,.18.19c.24.08.36.28.54.38h0l.16.14c0-.06,0,0,.09.06a.44.44,0,0,0,.24.1l.12.05c-.13-.08,0-.05.06-.09l.06.07s0-.06,0,0,.2.1.24.16h-.06v0c.11,0,.06,0,.06.05s.19,0,.29,0c-.14.07.27.06.18.14.1-.06.06,0,.13-.05a.63.63,0,0,1-.33-.15l.11,0c0-.09-.22,0-.27-.06s.12,0,.13,0L55,35a.61.61,0,0,1-.32-.16c.1,0-.09-.07,0-.09l.06,0s0,0,0,0l.34.1h.06l.36.08c0,.06.16.1.11.14s0,0,.17,0-.11.06-.14.08.09,0,.09.07.16-.2.07-.24a.2.2,0,0,1-.17,0,4.13,4.13,0,0,0,3.42-1.19,1.29,1.29,0,0,0,.16-.17c0,.07,0,.14.08.13l-.06,0c.06,0,.16-.18.24-.17a2.44,2.44,0,0,0,.1-.24s.07,0,.05,0,.08-.09.06,0a9.09,9.09,0,0,1,.39-.83,2.53,2.53,0,0,0,.25-.85s0,0,0,0,.06-.1.08-.16a.87.87,0,0,1-.07-.17C60.41,31.39,60.44,31.44,60.46,31.44ZM52,30.81H51.9a.47.47,0,0,1,.1-.1S52,30.78,52,30.81Zm.18,1.74a.77.77,0,0,0,0-.15l0,0a.44.44,0,0,1,.07-.27,1.72,1.72,0,0,0,.07.21Zm.52-4v.08l0,0,0,0h0l0,.07s0,0,0,0l0,0s-.07,0-.06,0Zm0,4.77a1.48,1.48,0,0,1-.25-.18s.06-.06.11-.09l.08.12-.06.06.07,0,.08.12Zm.34.45a.2.2,0,0,1,0-.11l.09.1Zm1.16,1.1h0S54.14,34.81,54.21,34.82Zm0,0a.25.25,0,0,1-.2-.14.46.46,0,0,0-.2-.19s0,.09-.1,0a.51.51,0,0,1-.16-.28,4.5,4.5,0,0,0,.53.36.19.19,0,0,0-.09,0,.31.31,0,0,1,.15.1l-.11,0c.07,0,.16,0,.27.1S54.35,34.76,54.24,34.77Zm1.34.22h0Zm4.24-6.37,0,0S59.85,28.69,59.82,28.62Z"/><path class="cls-2" d="M50.12,18.07c.05,0,0-.22,0-.31l0,0a.74.74,0,0,1,0-.26,3.22,3.22,0,0,1-.1-.65h0a1.64,1.64,0,0,0,0-.22c0,.07,0,0,0-.1a.42.42,0,0,0-.1-.24s0-.08,0-.12c0,.15-.06,0-.11,0v-.09s0,.06,0,0-.07-.21-.05-.28l.05,0h0v0c-.06-.09,0-.06,0-.07s-.11-.15-.23-.19c.14,0-.14-.24,0-.22-.11,0,0-.05-.12-.06a.64.64,0,0,1,.12.33l-.09-.06c0,.1.14.18.14.24s-.06-.11-.08-.1h.07a.65.65,0,0,1,.11.33c-.06-.07,0,.12-.06.08l0-.07s0,0,0,0-.11-.21-.17-.32l0,0,0-.06h0l-.2-.31s0-.19,0-.18-.06,0-.13-.11.12,0,.15,0,0-.11,0-.12-.25,0-.21.11L48.78,15s0,0,0-.05l0,0s0,0,0,0a4.07,4.07,0,0,0-1.38-1h-.17c-1.29,0-3.59.31-4.44,2.39l-.1,0a5.48,5.48,0,0,1,1.53-2.62h0a2.59,2.59,0,0,0-.79.41s0,0,0,0-.11,0-.16.05l-.08.17c-.07,0,0,0-.06-.05-.25.17-.41.44-.61.58,0,.08.07,0,0,.12,0-.08-.05,0-.11,0s-.11.12-.11.07c0,.14-.2.31-.06.35-.06.11-.1,0-.09,0a1.17,1.17,0,0,1-.22.3s-.09.18-.16.33a.77.77,0,0,0-.08.4c0-.1,0,0-.09.07l0-.09c0,.06,0,.12,0,.18a.28.28,0,0,0,0,.05s0,0,0,.08a.26.26,0,0,1-.1.19v0l0,.08c0,.07.1-.21.1,0,0,0-.12.11-.09.17,0-.1.06-.08.07,0s0,.1,0,.15l-.07-.06a5.44,5.44,0,0,0,.09,1.32c.06,0,.07.31.16.25v0c0-.11.08,0,.09.1-.06-.08-.05.19-.12,0a1.21,1.21,0,0,0,0,.19c-.08.07,0,.19,0,.31a1.66,1.66,0,0,1,.2.4s0,0,0,0c.06.25.32.45.32.5h.06a.57.57,0,0,0,.25.41s0,0,0,0a.35.35,0,0,0,.14.25h0l.19.18c.05-.06.11,0,.2.13s.17.19.25.14.17.18.24.25,0,0,0,0,.26.11.36.17,0,.06,0,.07c.16,0,.35.22.41.21s.06-.05.09-.07-.06.13.16.13c0,0-.06,0,0,0s.26-.13.33-.08l-.06,0c.14.07.36-.06.36,0l0,.05c.26,0,.11,0,.36,0h0c.11,0,.17,0,.22,0h0A1.45,1.45,0,0,0,46,22a.12.12,0,0,0,.1,0c0,.07.33,0,.39,0-.11,0-.07,0,0-.06a.17.17,0,0,0,.2,0c0,.07.06.16.25.11,0,0-.08,0-.07,0s.06,0,.08,0,0,0,0-.05.21-.05.39-.09c-.07,0,0,0,0-.07s.2-.16.18,0c.15-.1.34-.2.51-.3a1,1,0,0,0,.33-.27s.11-.06.16-.1l0,0a2,2,0,0,0,.31-.14c-.09,0-.08,0,0-.1l.16,0,0-.07a.25.25,0,0,0,.13-.12s0,0,0,0,.24-.15.29-.16.12-.11.08-.2l.07,0s0,.08.05,0h0l0,0,.09-.11s0,0,0,.06a.64.64,0,0,1,0-.07s0,0,0,0h0a.15.15,0,0,1,.06-.1.66.66,0,0,1,.16-.28.54.54,0,0,0,.13-.32s0,.08,0,.09c.08-.17.06-.36.13-.46l0,0a1.21,1.21,0,0,0,.12-.33h0c0-.08.05-.2.07-.32A.35.35,0,0,0,50.12,18.07Zm-8.61-1.39v0S41.54,16.62,41.51,16.68Zm5.05,5.2a1,1,0,0,1-.17,0l.06-.06h.08l0,0,.08,0s0,0,0,.05h0S46.58,21.87,46.56,21.88Zm1.9-1,.07-.07a.45.45,0,0,0,.07.07Zm.43-5.74a.21.21,0,0,1,.11.14Zm.13.17h0v0Zm.85,1.11c0,.05,0,.07,0,0Zm-.31,3.17,0,0a.53.53,0,0,1-.24.14,1.24,1.24,0,0,0,.1-.2l.22-.1Zm.14-.72s0-.09,0-.14h.08l-.08,0,0-.14h0a.91.91,0,0,1,0,.3S49.76,18.85,49.7,18.83Zm.13-.74c0-.05,0-.09,0-.14s0,0,0,0A.6.6,0,0,1,49.83,18.09Zm0-.78a4.1,4.1,0,0,0-.11-.61.09.09,0,0,0,0,.06.25.25,0,0,1,0-.17.31.31,0,0,0,.05.1c0-.09-.09-.14-.11-.26s.06-.1.15,0a.26.26,0,0,1,0,.23.5.5,0,0,0,0,.28s.06-.08.06.09A.49.49,0,0,1,49.82,17.31Z"/><path class="cls-2" d="M39.54,34.12c-.1,0-.17.13-.24.14a.14.14,0,0,0,.11-.08v.07a.68.68,0,0,1-.34.11c.05,0,0,0-.06,0a2.88,2.88,0,0,1-.54.44h.1a.5.5,0,0,0,.24-.1l.12,0c-.15,0,0-.06,0-.1H39s-.06,0,0,0,.21-.07.28-.05,0,0,0,.05h0c.09-.06.06,0,.07,0s.15-.11.19-.23c-.06.15.23-.14.21,0,0-.11,0,0,.06-.12a.72.72,0,0,1-.33.13Zm-.83.54h0S38.64,34.71,38.71,34.66Z"/><path class="cls-2" d="M41.51,29.87s.05-.05.07,0,0-.11,0,0c-.13-.28-.21-.57-.31-.85a2.25,2.25,0,0,0-.43-.79s0,0,0,0,0-.1-.06-.16l-.16-.07c0-.07,0,0,0-.06-.17-.25-.44-.4-.59-.6-.08,0,0,.06-.12,0,.09,0,0-.05,0-.11s-.13-.11-.07-.11c-.14,0-.31-.19-.35-.05-.11-.06-.06-.11,0-.1a1,1,0,0,1-.3-.22,2.45,2.45,0,0,1-.34-.14.68.68,0,0,0-.4-.08c.1,0,0,0-.07-.09l.09,0-.18-.05h0s0,0-.08,0a.36.36,0,0,1-.19-.1h0l-.09,0c-.06,0,.22.1,0,.09,0,0-.1-.11-.17-.07.11,0,.09.05.05.06H37.7l.06-.07a4.56,4.56,0,0,0-1.32.1c0,.06-.31.08-.25.16h0c.1,0,0,.08-.1.1.08-.06-.19-.05,0-.13H36c-.07-.07-.19,0-.31,0a2.48,2.48,0,0,1-.39.21h0c-.25.06-.44.32-.5.33v0a.56.56,0,0,0-.39.26s0,0,0,0a.41.41,0,0,0-.25.16h0c-.07.06-.13.13-.19.19s0,.12-.12.2-.19.19-.14.26-.18.18-.24.24,0,0,0,0-.11.27-.16.37-.06,0-.08,0c0,.15-.21.34-.2.41s0,.06.07.09-.13-.06-.13.16c0,0,0-.06,0,0s.13.26.08.33v-.06c-.07.14.07.35,0,.36l0,0c0,.26,0,.11,0,.36h0c0,.11.05.17,0,.23v0a1.43,1.43,0,0,0,0,.29s0,.08,0,.1,0,.33,0,.39c0-.12,0-.07.06,0a.15.15,0,0,0,0,.2c-.08,0-.16.07-.12.25,0,0,0-.08,0-.07a.13.13,0,0,1,0,.08s0-.05.05,0,0,.21.09.38c0-.06,0,0,.07,0s.16.19,0,.18c.1.14.2.34.3.5a.89.89,0,0,0,.28.33s.06.11.09.16l0,0a2.56,2.56,0,0,0,.14.31c0-.09,0-.08.1-.05s0,.1,0,.15l.06,0a.3.3,0,0,0,.13.12s0,0,0,0,.16.23.17.29.11.11.2.07a.25.25,0,0,0,0,.07s-.08,0,0,.06h0l0,0,.11.09.38,0a.47.47,0,0,1,0-.1l.2.09v0h.19c1.3,0,3.59-.31,4.45-2.38l.09,0a5.63,5.63,0,0,1-1.17,2.28l.26-.14h0l.06,0h0l.3-.2c.05,0,.19,0,.18,0s0-.07.11-.13,0,.11-.05.15.11,0,.12,0,0-.25-.12-.21a.2.2,0,0,1-.13.11,4.13,4.13,0,0,0,1.59-3.26,1.94,1.94,0,0,0,0-.24c.06,0,.11.1.15,0v.08c.07,0,0-.24.05-.29ZM33.2,31.44s0,0,0,0,0,.06-.05,0v-.17l.05.06a0,0,0,0,1,0,0v0l0,0a.24.24,0,0,0,0,.08S33.22,31.46,33.2,31.44Zm1,2v-.14l.07.08A.22.22,0,0,0,34.23,33.46Zm4.06-7.15h0S38.35,26.34,38.29,26.31Zm1.5,7.5h0Z"/><polygon class="cls-2" points="39.07 34.28 39.07 34.28 39.07 34.28 39.07 34.28"/><path class="cls-2" d="M23,30.23s.06,0,.07,0,0-.12,0-.05c-.13-.28-.21-.57-.31-.85a2.25,2.25,0,0,0-.43-.79s0,0,0,0,0-.11-.06-.16l-.16-.08c0-.06,0,0,0-.06-.17-.25-.44-.4-.59-.6-.08,0,0,.07-.11,0,.08,0,0-.05,0-.1s-.12-.11-.07-.11c-.14,0-.31-.2-.35-.06-.11-.06-.05-.1,0-.1a1.1,1.1,0,0,1-.21-.14h-.54c-1.29,0-3.59.31-4.44,2.38l-.1,0a5.32,5.32,0,0,1,1.63-2.71.41.41,0,0,0-.26.07,1.49,1.49,0,0,1-.39.21h0c-.24.06-.43.32-.5.33l0,.05a.58.58,0,0,0-.4.26s0,0,0,0a.36.36,0,0,0-.25.15h0l-.18.19c.05.05,0,.12-.13.2s-.18.19-.13.27-.18.17-.24.23v0c-.12,0-.11.27-.16.37s-.06,0-.07,0c0,.16-.22.35-.21.41s.05.06.07.1-.13-.07-.12.15c0,0,0-.06,0,0s.14.26.09.33l0-.06c-.07.14.07.36,0,.36l0,0c0,.26,0,.11,0,.37h0c0,.11,0,.17,0,.23v0a1.42,1.42,0,0,0,0,.29.12.12,0,0,0,0,.1c-.07,0,0,.33,0,.39,0-.11,0-.07.06,0a.15.15,0,0,0,0,.2c-.08,0-.16.07-.12.25,0,0,0-.08,0-.06s0,.06,0,.07,0,0,.05,0,0,.2.09.38c0-.06,0,0,.07,0s.16.19,0,.18c.1.15.2.34.3.5a1,1,0,0,0,.28.33s.06.11.1.16l0,0a2,2,0,0,0,.14.31c0-.09,0-.08.11,0l0,.15.06,0a.37.37,0,0,0,.13.12s0,0,0,0,.15.23.16.29.12.11.2.07a.25.25,0,0,0,0,.07s-.07,0,0,.06h0l.05,0,.12.09h0a.18.18,0,0,1,.1.06.72.72,0,0,1,.28.16.5.5,0,0,0,.32.12.11.11,0,0,1-.09,0c.17.08.36.06.46.13l0,0a1.16,1.16,0,0,0,.33.11v.05l.31.07a.38.38,0,0,0,.29,0s.22,0,.3,0l0,0a2.21,2.21,0,0,1,.26,0,4.24,4.24,0,0,1,.66-.1h0l.21,0c-.06,0,0,0,.1,0a.43.43,0,0,0,.24-.1l.12-.05c-.14,0,0-.06,0-.1h.09s-.06,0,0,0,.21-.07.28,0a.09.09,0,0,1,0,0h0c.09-.06.06,0,.07,0s.15-.12.19-.23c-.06.14.23-.15.21,0,0-.11,0,0,.06-.12a.72.72,0,0,1-.33.13l.06-.09c-.1,0-.17.14-.24.14a.14.14,0,0,0,.11-.08v.07a.59.59,0,0,1-.34.11c.08-.06-.11,0-.07-.06l.06,0s0,0,0,0l.33-.17,0,0,.05,0h0l.3-.2s.19,0,.18,0,0-.06.11-.13,0,.12,0,.15.1,0,.11,0,0-.25-.11-.21a.24.24,0,0,1-.14.11l.14-.11.11-.11s0,0,.05,0v0s0,0,0,0a4.15,4.15,0,0,0,1.33-3,1.94,1.94,0,0,0,0-.24c.06.05.11.11.15.05v.08c.06,0,0-.25,0-.3A2.44,2.44,0,0,0,23,30.23Zm-8.3,1.57a0,0,0,0,0,0,0s0,.05-.05,0v-.17l.06.06v.08l0,0a.29.29,0,0,0,0,.09S14.75,31.83,14.73,31.8Zm1,2v-.14l.07.08A.22.22,0,0,0,15.76,33.82Zm1.31,1,0,0a.47.47,0,0,1-.15-.24l.2.1.11.21Zm1,.22a1.25,1.25,0,0,1-.3,0s0-.08,0-.15l.14,0V35l0-.07.14,0A0,0,0,0,1,18.08,35Zm.56.08L18.53,35h.14A.09.09,0,0,0,18.64,35.07ZM20,35a.54.54,0,0,0-.28,0s.08,0-.08.06a.58.58,0,0,1-.31-.08,4.13,4.13,0,0,0,.61-.13l-.07,0a.29.29,0,0,1,.18,0l-.1,0c.09,0,.13-.09.26-.11s.1.06,0,.15A.23.23,0,0,1,20,35Zm.26,0Zm1.08-.86h0Z"/></svg>