<svg viewBox="0 0 26 23" xmlns="http://www.w3.org/2000/svg"><path d="m11.49 12.64h-.16c-.09.09-.08.27-.07.45.23.39.67 1.09 1.21.69.1-.45-.16-.54-.3-.76s-.25-.46-.68-.38m-7.71.76c.16.08.13.34.39.31a1 1 0 0 0 .76-.92.73.73 0 0 0 -1.15.61m11.36-1a1.49 1.49 0 0 0 -.45-.15c0 .09-.12.08-.23.07a6.89 6.89 0 0 1 -.92.69s0 .12-.07.15-.13 0-.16 0-.06.2-.07.23a.48.48 0 0 0 -.08.31c.25.53.95.2 1.22-.08s.87-.41.84-1.07c-.06 0-.09-.06-.08-.15m-8.84-1.52c-.41.36-1 .49-1.07 1.22.3.36.74 0 1-.15s.53-.44.54-.91c-.14-.07-.2-.22-.46-.16m9.68.31c0 .28-.31.35-.23.76.09 0 .12.09.16.15.36.16.66-.19.91-.38a1.24 1.24 0 0 0 .61-.91c-.45-.57-1.1.14-1.45.38m-5.26-.46c0-.18-.21-.34-.3-.46s-.23-.37-.43-.38-.23.23-.38.31c0 .41.32.59.46.91s.32.65.76.69c0-.06.06-.09.15-.08.27-.29 0-.78-.23-1m-2.1-1.82c-.47.3-1.57.66-1.06 1.45a1 1 0 0 0 .91-.46c.36-.09.51-.4.61-.76-.12-.13-.19-.27-.46-.23m9.92-.07c-.32.36-1.15.56-.85 1.29.37.19.57-.18.85-.3s.55-.31.45-.84c-.16-.05-.22-.19-.45-.15m1.42-1.76c-.43-.44-.53-1.2-1.07-1.52-.46 0-.53.39-.61.76a5.51 5.51 0 0 0 .46 1.22 3.81 3.81 0 0 1 -1.53.31c-.2.26-.63.28-.61.76.12.14.17.24.38.3s.53 0 .76 0c.48-.13.93-.29 1.45-.38a4.36 4.36 0 0 1 .77 1.22c.28.38.34 1 1.14.84a2.85 2.85 0 0 1 .31-.38c-.13-.84-.65-1.29-.92-2a11.14 11.14 0 0 0 1.07-.31c.36-.1.68-.23.68-.68-.28-1.03-1.6-.21-2.28-.14m4.14 1.93c-.19 3.41 0 7.3-.15 10.82a23.12 23.12 0 0 1 -2.67-1.67c-1-.43-1.59-1.27-2.67-1.6-.64.11-.95.57-1.45.83s-.88.6-1.22 1a23 23 0 0 0 -2.51 2c-.3-.06-.34-.37-.54-.54s-.43-.27-.53-.53a13.52 13.52 0 0 0 -1.68-.91c-.58-.29-1.13-.6-1.75-.84-.18-.23-.48-.34-.61-.61a1.61 1.61 0 0 0 -.76-.38 1.38 1.38 0 0 0 -1.07.3c-.13.3-.55.31-.69.61s-.41.45-.68.61-.36.51-.69.61a17.56 17.56 0 0 0 -1.22 1.3 5.68 5.68 0 0 0 -.61.69c-.05.18-.25.2-.3.38-.09 0-.22.43-.23.08.22-.3-.1-.72-.08-1.07-.08-4.7-.22-9.33-.46-13.88 0-.24.28-.18.38-.3s.32-.1.39-.23c.32-.1.5-.36.83-.46.55-.31 1-.7 1.61-1s1.22-.51 1.67-.87c.39 0 .48-.39.92-.38a5.3 5.3 0 0 1 .76-.46c.77.57 1.65 1 2.44 1.6.39.3.86.51 1.22.84s.71.61 1.22.76a3.35 3.35 0 0 0 1.68-.76c.48-.34 1-.63 1.44-1 1-.59 1.83-1.38 2.83-2a.44.44 0 0 1 .23-.16 5.51 5.51 0 0 0 1.44 1.07 11.4 11.4 0 0 0 1.6.91 4.49 4.49 0 0 0 1.07.92 5.23 5.23 0 0 0 1.07.84c-.07 1.13-.17 2.28-.23 3.48m-22.26 12.56s.05-.1.07-.08-.05.1-.07.08m23.86-16.47a1.41 1.41 0 0 0 -.61-.76 7.53 7.53 0 0 0 -.84-.61c-.16-.21-.55-.33-.68-.46s-.07 0-.16-.08a4.6 4.6 0 0 0 -.91-.53c-.48-.46-1.08-.81-1.6-1.22a3.75 3.75 0 0 1 -.84-.53c-.32-.17-.41-.56-.84-.61 0 0 0-.09-.08-.08s-.14.11-.3.08c-.57.34-1 .85-1.53 1.22s-1.33.85-2 1.29a6.1 6.1 0 0 1 -1 .61.8.8 0 0 1 -.46.38c-.16.08-.28.4-.45.23a24.58 24.58 0 0 1 -2.6-1.52c-.34-.35-.91-.45-1.29-.76a5.48 5.48 0 0 0 -1.55-.54c-.49 0-.7.22-1.15.23-1.94 1.28-4.28 2.15-6.27 3.36-.1.27-.1.66-.3.84a27.78 27.78 0 0 0 0 3.65c.14 3.43-.28 7.36.23 10.91a8.32 8.32 0 0 0 .07 1.81c0 .15.21.15.31.22.19-.1.37.17.38 0 .17.21.14.63.61.54.48.08.58-.23.84-.38a2.94 2.94 0 0 0 .61-.61c.48-.33.85-.78 1.29-1.15s.85-.78 1.3-1.14c.23-.18.47-.34.69-.53s.44-.38.76-.46c1 .52 1.94 1.21 3 1.75a6.57 6.57 0 0 1 1.37 1 2.09 2.09 0 0 1 .76.38c.23 0 .24.18.46.16 0 .23.17.24.38.22a4.39 4.39 0 0 0 1.45-1 8.93 8.93 0 0 0 1.34-1c.6-.22.87-.76 1.45-1 .17-.24.52-.3.69-.54s.44-.37.76-.45a28 28 0 0 1 2.67 2.43c.26.15.35.46.69.54s.35.51.68.61.26.61.69.61c.28.14.35.51.84.46.29-.15.38-.39.46-.77s-.06-.82 0-1.22a3.89 3.89 0 0 0 .3-.91c.41-3.38.13-7.44.3-11.06a7.72 7.72 0 0 0 .08-1.83 11.3 11.3 0 0 0 0-1.75"/></svg>