<svg id="Layer_1" data-name="Layer 1" xmlns="http://www.w3.org/2000/svg" viewBox="0 0 75 65"><defs><style>.cls-1{fill:#5d5e5e;}.cls-2{fill:#6d2158;}.cls-3{fill:#666;}</style></defs><title>Artboard 1</title><path class="cls-1" d="M.12,50a.07.07,0,0,1,.09,0,.08.08,0,0,1,0,0C.31,51.15.9,51.89,2,51.89a1.46,1.46,0,0,0,1.63-1.25.91.91,0,0,0,0-.17c0-1-.65-1.44-1.75-2A2.51,2.51,0,0,1,.2,46.15a2,2,0,0,1,2.11-1.89h.07a3.84,3.84,0,0,1,1.12.16.57.57,0,0,1,.44.66v0c0,.17-.09.65-.11.91,0,.09-.13.06-.13,0a1.45,1.45,0,0,0-1.43-1.47h0A1.23,1.23,0,0,0,.87,45.65a.89.89,0,0,0,0,.23A2,2,0,0,0,2.2,47.62c1.51.77,2.13,1.41,2.09,2.57A2.14,2.14,0,0,1,2,52.2H1.88a3.37,3.37,0,0,1-1.37-.25.85.85,0,0,1-.5-.66A4.59,4.59,0,0,1,.12,50Z"/><path class="cls-1" d="M9.32,50.64c0,1,.14,1.17.86,1.23,0,0,.08,0,.09,0a.06.06,0,0,1,0,.09H7.63a.07.07,0,0,1,0-.09l0,0c.6-.09.76-.16.78-1.23V45.92c0-1.27-.23-1.27-.78-1.34-.08,0-.11-.14,0-.14H10c.1,0,.09.12,0,.14-.52.09-.67.11-.69,1.34v2.51C9.29,48.86,9.31,50.22,9.32,50.64Z"/><path class="cls-1" d="M16.15,48.61c-.48.75-1.13,1.87-1.47,2.5s-.28.68.37.76c.08,0,.11.13,0,.13H12.86s-.08,0-.09,0a.06.06,0,0,1,0-.09h0A1.36,1.36,0,0,0,14,51.16c.62-.86,1.36-2,2-2.93-.63-1-1.35-2.17-1.88-3-.34-.51-.5-.63-1-.68-.08,0-.11-.14,0-.14h2.39c.11,0,.08.14,0,.14-.55.06-.55.24-.34.63.38.69.83,1.5,1.32,2.34.45-.73.88-1.48,1.22-2.16s.27-.74-.17-.81c-.08,0-.11-.14,0-.14h2a.07.07,0,0,1,0,.14h0c-.35.05-.58.07-1,.7-.65.93-1.28,1.85-1.74,2.61.61,1,1.56,2.49,2.13,3.3.35.49.58.64,1,.68,0,0,.08,0,.09,0a.06.06,0,0,1,0,.09H17.59a.07.07,0,0,1,0-.09.08.08,0,0,1,0,0c.48,0,.47-.25.25-.64C17.42,50.66,16.71,49.55,16.15,48.61Z"/><path class="cls-1" d="M27.5,50c0-.09.14-.07.14,0,.06,1.18.64,1.92,1.69,1.92A1.45,1.45,0,0,0,31,50.71a1,1,0,0,0,0-.24c0-1-.64-1.44-1.75-2a2.5,2.5,0,0,1-1.63-2.31,1.93,1.93,0,0,1,2-1.89h.2a3.84,3.84,0,0,1,1.12.16.57.57,0,0,1,.43.67v0c0,.17-.08.65-.11.91,0,.09-.13.06-.13,0a1.45,1.45,0,0,0-1.43-1.47h0a1.26,1.26,0,0,0-1.38,1.11v.21a2,2,0,0,0,1.34,1.74c1.51.77,2.13,1.41,2.1,2.57a2.16,2.16,0,0,1-2.3,2H29.3A3.45,3.45,0,0,1,27.92,52a.85.85,0,0,1-.5-.66A5.06,5.06,0,0,1,27.5,50Z"/><path class="cls-1" d="M36.68,50.82c0,.73.17.77.81.78h1c1,0,1.22-.67,1.36-1.44,0-.08.15-.09.15,0a10.59,10.59,0,0,1,0,1.49c0,.27-.26.36-.72.36H35c-.1,0-.08-.13,0-.13.65-.08.78-.19.8-1.23V45.9c0-1,0-1.23-.84-1.32-.08,0-.11-.14,0-.14h4c.36,0,.55,0,.53.31s-.08.75-.14,1.17c0,.08-.15.08-.14,0,0-.61-.21-1-.83-1.06a15.69,15.69,0,0,0-1.68,0v3a16.68,16.68,0,0,0,2,0c.35,0,.34-.13.43-.12s0,.06,0,.3a4.88,4.88,0,0,1-.12.75c0,.08-.14.08-.14,0,0-.49-.31-.49-.81-.52H36.66C36.65,48.86,36.66,50.05,36.68,50.82Z"/><path class="cls-1" d="M50.44,51.87v.26s-.09,0-.27-.2c-.77-.89-1.59-1.78-3.08-3.28C45.89,47.47,45,46.5,44.44,46c0,.93,0,3.26.11,5,0,.49.23.8,1,.88.09,0,.11.13,0,.13H43.26c-.1,0-.08-.13,0-.13.44-.09.6-.2.65-.82.09-1.35.12-3.28.12-4.28V44.37s.09,0,.26.19c.9,1,1.89,2,3.1,3.26s2,2,2.61,2.58c0-1.43,0-3-.06-4.69,0-.89-.15-1-.83-1.12a.07.07,0,0,1,0-.14h2c.1,0,.07.14,0,.14-.46.07-.59.4-.61,1C50.49,47.41,50.44,49.2,50.44,51.87Z"/><path class="cls-1" d="M54.86,50c0-.09.14-.07.14,0,.06,1.18.64,1.92,1.69,1.92a1.46,1.46,0,0,0,1.63-1.25.91.91,0,0,0,0-.17c0-1-.64-1.44-1.75-2A2.5,2.5,0,0,1,55,46.15a1.93,1.93,0,0,1,2-1.89h.2a3.84,3.84,0,0,1,1.12.16.57.57,0,0,1,.43.67v0c0,.17-.08.65-.11.91,0,.09-.13.06-.13,0a1.45,1.45,0,0,0-1.43-1.47h0a1.26,1.26,0,0,0-1.38,1.11v.21A2,2,0,0,0,57,47.62c1.51.77,2.13,1.41,2.1,2.57a2.16,2.16,0,0,1-2.3,2h-.11a3.45,3.45,0,0,1-1.38-.25.85.85,0,0,1-.5-.66A5,5,0,0,1,54.86,50Z"/><path class="cls-1" d="M64,50.82c0,.73.17.77.81.78h1c1,0,1.21-.67,1.36-1.44,0-.08.15-.09.15,0a12.29,12.29,0,0,1-.06,1.49c0,.27-.26.36-.72.36H62.29c-.1,0-.08-.13,0-.13.64-.08.78-.19.8-1.23V45.91c0-1,0-1.23-.84-1.32-.08,0-.11-.14,0-.14h4c.36,0,.55,0,.53.31s-.08.75-.14,1.17c0,.08-.16.08-.14,0,0-.61-.21-1-.83-1.06a15.69,15.69,0,0,0-1.68,0v3a16.68,16.68,0,0,0,2,0c.35,0,.34-.13.43-.12s0,.06,0,.3a4.88,4.88,0,0,1-.12.75c0,.08-.14.08-.14,0,0-.49-.31-.49-.81-.52H64Z"/><path class="cls-1" d="M70.82,50c0-.09.14-.07.14,0,.06,1.18.64,1.92,1.69,1.92a1.46,1.46,0,0,0,1.63-1.25.91.91,0,0,0,0-.17c0-1-.64-1.44-1.75-2a2.5,2.5,0,0,1-1.63-2.31,1.93,1.93,0,0,1,2-1.89h.2a3.84,3.84,0,0,1,1.12.16.57.57,0,0,1,.43.67v0c0,.17-.08.65-.11.91,0,.09-.13.06-.13,0A1.45,1.45,0,0,0,73,44.6h0a1.25,1.25,0,0,0-1.37,1.1,1.62,1.62,0,0,0,0,.22,2,2,0,0,0,1.33,1.74c1.51.73,2.1,1.34,2.1,2.53a2.16,2.16,0,0,1-2.3,2h-.11a3.45,3.45,0,0,1-1.38-.25.85.85,0,0,1-.5-.66A5,5,0,0,1,70.82,50Z"/><path class="cls-2" d="M59.22,34.31h.05S59.24,34.27,59.22,34.31Z"/><polygon class="cls-2" points="58.56 34.69 58.67 34.67 58.65 34.66 58.56 34.69"/><path class="cls-2" d="M58.4,34.81c-.08.08-.26.09-.27.18a2.31,2.31,0,0,1,.35-.18H58.4Z"/><path class="cls-2" d="M57.89,35.27H58C57.81,35.28,57.9,35.24,57.89,35.27Z"/><path class="cls-2" d="M57.69,35.4a.06.06,0,0,0,.06-.06h-.1S57.6,35.41,57.69,35.4Z"/><path class="cls-2" d="M57.65,35.31h.1S57.64,35.29,57.65,35.31Z"/><path class="cls-2" d="M57.76,35.22c.08,0,0,0,0,.06S57.91,35.17,57.76,35.22Z"/><path class="cls-2" d="M57.14,35.54a.1.1,0,0,0,.09-.07h-.07S57.13,35.53,57.14,35.54Z"/><path class="cls-2" d="M57.06,35.46h.1S57.14,35.44,57.06,35.46Z"/><path class="cls-2" d="M56.52,35.63a.31.31,0,0,1-.19,0h.18S56.56,35.66,56.52,35.63Z"/><path class="cls-2" d="M56.83,35.56c.05,0,.07,0,.07-.06h0Z"/><polygon class="cls-2" points="56.78 35.53 56.86 35.51 56.86 35.51 56.78 35.53"/><path class="cls-2" d="M57.21,35.29c-.1.07,0,.06.08.07S57.26,35.31,57.21,35.29Z"/><path class="cls-2" d="M57,35.41h0S57,35.42,57,35.41Z"/><polygon class="cls-2" points="56.91 35.45 56.95 35.44 56.9 35.44 56.91 35.45"/><path class="cls-2" d="M56.45,35.54h0C56.48,35.58,56.45,35.55,56.45,35.54Z"/><polygon class="cls-2" points="55.74 35.55 55.74 35.54 55.73 35.55 55.74 35.55"/><path class="cls-2" d="M56.45,35.53Z"/><path class="cls-2" d="M56.17,35.58h-.08S56.15,35.6,56.17,35.58Z"/><path class="cls-2" d="M55.83,35.6h0Z"/><path class="cls-2" d="M56.17,35.58Z"/><path class="cls-2" d="M56.18,35.57h0c.15,0-.1-.06.09,0H56.1c-.16,0,0,.07.07.11h0Z"/><path class="cls-2" d="M57.09,35.24Z"/><path class="cls-2" d="M57,35.27a.75.75,0,0,0-.07.12l.14-.11H57Z"/><path class="cls-2" d="M55.64,35.54l.09.08h0Z"/><polygon class="cls-2" points="55.45 35.54 55.5 35.58 55.5 35.54 55.45 35.54"/><path class="cls-2" d="M51.77,32.06c-.05,0,0,.07.08.13a.24.24,0,0,1,0-.12Z"/><path class="cls-2" d="M53.37,34.62l.13.07A.41.41,0,0,0,53.37,34.62Z"/><path class="cls-2" d="M53.37,34.62a.52.52,0,0,1-.11-.1h0A.18.18,0,0,0,53.37,34.62Z"/><path class="cls-2" d="M55.1,35.47h0Z"/><path class="cls-2" d="M56,35.35h0C55.91,35.32,56,35.34,56,35.35Z"/><path class="cls-2" d="M55.35,35.37h-.14S55.36,35.43,55.35,35.37Z"/><path class="cls-2" d="M55.44,35.39h-.06S55.45,35.41,55.44,35.39Z"/><path class="cls-2" d="M54.55,35.31v-.05S54.57,35.38,54.55,35.31Z"/><polygon class="cls-2" points="55.25 35.24 55.28 35.29 55.31 35.24 55.25 35.24"/><path class="cls-2" d="M54.91,35.16h0C55,35.16,54.9,35.17,54.91,35.16Z"/><path class="cls-2" d="M53.71,34.58l.08.08V34.6C53.79,34.54,53.71,34.56,53.71,34.58Z"/><polygon class="cls-2" points="59.37 34.18 59.41 34.1 59.38 34.12 59.37 34.18"/><path class="cls-2" d="M45.8,13.65V13.6S45.76,13.65,45.8,13.65Z"/><polygon class="cls-2" points="46.53 13.85 46.44 13.79 46.45 13.81 46.53 13.85"/><path class="cls-2" d="M46.73,13.88c.11,0,.24.13.32.08a2.87,2.87,0,0,1-.38-.13v.06Z"/><path class="cls-2" d="M47.42,13.93h-.06C47.48,14,47.39,14,47.42,13.93Z"/><path class="cls-2" d="M47.61,14.07h0l0-.07S47.61,14.1,47.61,14.07Z"/><path class="cls-2" d="M47.52,14c-.15-.07-.19,0-.05,0Z"/><path class="cls-2" d="M48.13,14.28H48v.05S48.13,14.3,48.13,14.28Z"/><path class="cls-2" d="M48.13,14.39l-.06-.08S48.06,14.34,48.13,14.39Z"/><path class="cls-2" d="M47.69,14.22l-.14-.13.11.12Z"/><path class="cls-2" d="M48.78,14.78a.34.34,0,0,0-.1-.16h0A.34.34,0,0,1,48.78,14.78Z"/><polygon class="cls-2" points="48.37 14.54 48.3 14.5 48.3 14.5 48.37 14.54"/><path class="cls-2" d="M47.9,14.4c.12,0,0-.06,0-.11S47.88,14.36,47.9,14.4Z"/><path class="cls-2" d="M48.11,14.44l.09.05-.08-.09S48.12,14.43,48.11,14.44Z"/><polygon class="cls-2" points="48.23 14.51 48.2 14.49 48.23 14.53 48.23 14.51"/><path class="cls-2" d="M48.61,14.78l.14.11-.09-.12S48.62,14.76,48.61,14.78Z"/><path class="cls-2" d="M48.6,14.78h0l-.07-.08A.18.18,0,0,0,48.6,14.78Z"/><path class="cls-2" d="M49.09,15.18,49,15.1h0a1.07,1.07,0,0,1,.14.16A.34.34,0,0,1,49.09,15.18Z"/><path class="cls-2" d="M48.84,14.94h-.09a.27.27,0,0,1,.07.08c-.12-.08,0,.12-.09,0,0,.07,0,.07.07.15s0-.07,0-.12h0l.12.13L48.81,15Z"/><path class="cls-2" d="M48,14.53h0l0,.05h0C47.89,14.45,47.93,14.51,48,14.53Z"/><path class="cls-2" d="M48.47,14.83h.08l-.1-.12A.08.08,0,0,0,48.47,14.83Z"/><path class="cls-2" d="M49.17,15.24h0v0Z"/><polygon class="cls-2" points="49.3 15.43 49.27 15.46 49.31 15.49 49.3 15.43"/><path class="cls-2" d="M49.38,20.56v-.15a.21.21,0,0,1-.06.1Z"/><path class="cls-2" d="M50.1,17.63v-.15C50.1,17.42,50.07,17.56,50.1,17.63Z"/><path class="cls-2" d="M43.52,21.8Z"/><path class="cls-2" d="M50.1,17.63a.33.33,0,0,1,0,.14h0A.17.17,0,0,0,50.1,17.63Z"/><path class="cls-2" d="M49.56,15.86v-.1h0A.09.09,0,0,1,49.56,15.86Z"/><path class="cls-2" d="M49.34,15.77c0-.07-.05-.14-.09-.09h0C49.28,15.73,49.3,15.79,49.34,15.77Z"/><path class="cls-2" d="M49.2,15.6v.06S49.22,15.59,49.2,15.6Z"/><path class="cls-2" d="M49.77,16.29v.05C49.8,16.52,49.81,16.24,49.77,16.29Z"/><polygon class="cls-2" points="49.25 15.79 49.19 15.8 49.23 15.85 49.25 15.79"/><path class="cls-2" d="M49.42,16.14l.06.09a.19.19,0,0,0-.06-.12Z"/><path class="cls-2" d="M49.42,16.11V16A.11.11,0,0,0,49.42,16.11Z"/><path class="cls-2" d="M49.8,17.35V17.3A.08.08,0,0,1,49.8,17.35Z"/><polygon class="cls-2" points="45.61 13.63 45.52 13.65 45.55 13.66 45.61 13.63"/><path class="cls-2" d="M45.77,13.72l-.06-.06v.06Z"/><path class="cls-2" d="M26.11,14.77h-.05S26.09,14.8,26.11,14.77Z"/><polygon class="cls-2" points="26.77 14.38 26.66 14.4 26.68 14.41 26.77 14.38"/><path class="cls-2" d="M26.92,14.26c.09-.08.27-.08.28-.17a3,3,0,0,1-.36.18h.08Z"/><path class="cls-2" d="M27.44,13.8h-.06C27.52,13.8,27.43,13.84,27.44,13.8Z"/><path class="cls-2" d="M27.63,13.68l-.05.06h.09S27.73,13.66,27.63,13.68Z"/><path class="cls-2" d="M27.68,13.76h-.06C27.67,13.77,27.69,13.78,27.68,13.76Z"/><path class="cls-2" d="M27.57,13.86c-.09,0,0,0,0-.06S27.42,13.91,27.57,13.86Z"/><path class="cls-2" d="M28.19,13.54a.11.11,0,0,0-.09.06h.07S28.2,13.55,28.19,13.54Z"/><path class="cls-2" d="M28.27,13.61h-.1S28.19,13.63,28.27,13.61Z"/><path class="cls-2" d="M28.81,13.44a.31.31,0,0,1,.19,0,.59.59,0,0,0-.19,0C28.86,13.39,28.76,13.42,28.81,13.44Z"/><path class="cls-2" d="M28.5,13.51a.07.07,0,0,0-.07.06h0Z"/><polygon class="cls-2" points="28.55 13.55 28.47 13.56 28.47 13.56 28.55 13.55"/><path class="cls-2" d="M28.12,13.78c.1-.06,0-.06-.08-.07C28.13,13.73,28.07,13.76,28.12,13.78Z"/><path class="cls-2" d="M28.29,13.66h0Z"/><polygon class="cls-2" points="28.42 13.62 28.38 13.63 28.43 13.64 28.42 13.62"/><path class="cls-2" d="M28.88,13.53h0C28.85,13.5,28.88,13.52,28.88,13.53Z"/><polygon class="cls-2" points="29.58 13.53 29.59 13.54 29.59 13.53 29.58 13.53"/><path class="cls-2" d="M28.87,13.54h-.1A.17.17,0,0,0,28.87,13.54Z"/><path class="cls-2" d="M29.16,13.49h.08S29.18,13.47,29.16,13.49Z"/><path class="cls-2" d="M29.5,13.47h.08S29.57,13.5,29.5,13.47Z"/><path class="cls-2" d="M29.15,13.49h0c-.14,0,.11.06-.08,0,.07,0,0,.06.16.06s0-.07-.07-.11h0Z"/><path class="cls-2" d="M28.31,13.81a.54.54,0,0,0,.07-.13.61.61,0,0,1-.15.11h0c-.08,0,0,0,0,.05h0A.11.11,0,0,1,28.31,13.81Z"/><path class="cls-2" d="M29.69,13.53l-.09-.07h0Z"/><polygon class="cls-2" points="29.88 13.53 29.82 13.5 29.83 13.54 29.88 13.53"/><path class="cls-2" d="M33.48,16.89a.21.21,0,0,1,0,.11h.05Z"/><path class="cls-2" d="M32,14.46a.33.33,0,0,0-.13-.07S31.89,14.43,32,14.46Z"/><path class="cls-2" d="M32,14.46a.52.52,0,0,1,.11.1h0A.18.18,0,0,0,32,14.46Z"/><path class="cls-2" d="M30.23,13.6h0Z"/><path class="cls-2" d="M29.32,13.73h0C29.42,13.75,29.38,13.73,29.32,13.73Z"/><path class="cls-2" d="M30,13.71h0c.07,0,.12,0,.14,0S30,13.65,30,13.71Z"/><path class="cls-2" d="M29.89,13.69H30S29.88,13.66,29.89,13.69Z"/><path class="cls-2" d="M30.77,13.76v.05S30.76,13.7,30.77,13.76Z"/><polygon class="cls-2" points="30.08 13.84 30.05 13.79 30.02 13.84 30.08 13.84"/><path class="cls-2" d="M30.4,13.89h0Z"/><path class="cls-2" d="M31.62,14.5l-.08-.08v.06C31.54,14.54,31.62,14.52,31.62,14.5Z"/><polygon class="cls-2" points="25.96 14.89 25.91 14.97 25.95 14.96 25.96 14.89"/><path class="cls-2" d="M26.09,14.9a.06.06,0,0,1,.05-.06h-.08Z"/><path class="cls-2" d="M34.33,7.82V7.76C34.33,7.7,34.29,7.76,34.33,7.82Z"/><polygon class="cls-2" points="33.98 7.21 33.99 7.19 33.96 7.11 33.98 7.21"/><path class="cls-2" d="M33.66,6.67a2,2,0,0,1,.18.36V7h0C33.76,6.87,33.75,6.68,33.66,6.67Z"/><path class="cls-2" d="M33.38,6.43v.06h0C33.37,6.36,33.41,6.44,33.38,6.43Z"/><path class="cls-2" d="M33.26,6.24h.05v0S33.24,6.15,33.26,6.24Z"/><path class="cls-2" d="M33.33,6.15V6.1S33.32,6.14,33.33,6.15Z"/><path class="cls-2" d="M33.33,6.15v0S33.34,6.16,33.33,6.15Z"/><path class="cls-2" d="M33.37,6.29c.06.16.11.17.06,0C33.44,6.39,33.4,6.33,33.37,6.29Z"/><path class="cls-2" d="M33.76,6.65h0s.06.07.06.1Z"/><path class="cls-2" d="M33.18,5.77V5.7h-.07C33,5.7,33.16,5.74,33.18,5.77Z"/><path class="cls-2" d="M33.4,6.06v0Z"/><path class="cls-2" d="M33,5.31h0v0Z"/><path class="cls-2" d="M33,4.88a.54.54,0,0,0,0,.18s0,.05.07,0A.36.36,0,0,1,33,4.88Z"/><path class="cls-2" d="M33.15,5.44h0S33.14,5.44,33.15,5.44Z"/><polygon class="cls-2" points="33.12 5.33 33.14 5.41 33.14 5.41 33.12 5.33"/><path class="cls-2" d="M33.29,5.84c0-.1.05,0,.07-.08S33.29,5.77,33.29,5.84Z"/><polygon class="cls-2" points="33.2 5.45 33.21 5.49 33.21 5.44 33.2 5.45"/><path class="cls-2" d="M33.11,5V4.82a.38.38,0,0,1,0,.15S33.1,5,33.11,5Z"/><polygon class="cls-2" points="33.1 4.29 33.11 4.29 33.1 4.28 33.1 4.29"/><path class="cls-2" d="M33.12,5h0v.1A.17.17,0,0,0,33.12,5Z"/><path class="cls-2" d="M33.07,4.71V4.64S33.05,4.69,33.07,4.71Z"/><path class="cls-2" d="M33.1,5.17a.11.11,0,0,0,0-.08v.07Z"/><path class="cls-2" d="M33.05,4.37a.38.38,0,0,1,0,.15h0v-.2S33.07,4.3,33.05,4.37Z"/><path class="cls-2" d="M33.07,4.71a.17.17,0,0,0,0,.1v-.1c0,.14.06-.11,0,.08,0-.07,0,0,0-.15s-.06,0-.11.07h0a.61.61,0,0,0,0-.19.67.67,0,0,0,0,.2Z"/><path class="cls-2" d="M33.41,5.63Z"/><path class="cls-2" d="M33.41,5.63h0a.09.09,0,0,1,0-.07.29.29,0,0,0-.12-.07.8.8,0,0,1,.11.14h0C33.4,5.73,33.41,5.66,33.41,5.63Z"/><path class="cls-2" d="M33.11,4.19,33,4.27h0Z"/><polygon class="cls-2" points="33.1 3.99 33.07 4.05 33.11 4.04 33.1 3.99"/><path class="cls-2" d="M36.59.31a.18.18,0,0,0-.13.08.24.24,0,0,1,.12,0Z"/><path class="cls-2" d="M34,1.91a.61.61,0,0,0-.07.14A.18.18,0,0,0,34,1.91Z"/><path class="cls-2" d="M34,1.91l.1-.11h0A.18.18,0,0,0,34,1.91Z"/><path class="cls-2" d="M33.32,3.14V3.2h0Z"/><path class="cls-2" d="M33.18,3.65a.14.14,0,0,1,0-.09v.09Z"/><path class="cls-2" d="M33.3,4.55h0C33.33,4.46,33.31,4.49,33.3,4.55Z"/><path class="cls-2" d="M33.29,3.78c0,.06-.07.13,0,.12h0S33.33,3.79,33.29,3.78Z"/><path class="cls-2" d="M33.28,3.93v0Z"/><path class="cls-2" d="M33.38,3.07c.1-.15-.11,0,0,0S33.38,3.11,33.38,3.07Z"/><polygon class="cls-2" points="33.41 3.85 33.41 3.79 33.37 3.82 33.41 3.85"/><path class="cls-2" d="M33.51,3.35v.12h0A.47.47,0,0,1,33.51,3.35Z"/><path class="cls-2" d="M33.43,3.55v0Z"/><path class="cls-2" d="M34.05,2.31V2.25l0,.08Z"/><polygon class="cls-2" points="34.47 7.91 34.55 7.96 34.53 7.93 34.47 7.91"/><path class="cls-2" d="M34.41,7.73v.09h.06A.68.68,0,0,0,34.41,7.73Z"/><polygon class="cls-2" points="41.48 31.58 41.54 31.49 41.52 31.5 41.48 31.58"/><path class="cls-2" d="M41.46,31.78c0,.11-.13.24-.08.32,0-.13.08-.26.13-.38h-.07Z"/><path class="cls-2" d="M41.42,32.47v-.06h0C41.37,32.53,41.4,32.44,41.42,32.47Z"/><path class="cls-2" d="M41.37,32.62l-.07.07c0,.06,0,.08.07,0S41.37,32.64,41.37,32.62Z"/><path class="cls-2" d="M41.28,32.67h0l.06-.08S41.25,32.66,41.28,32.67Z"/><path class="cls-2" d="M41.32,32.57c.08-.15,0-.19,0,0Z"/><path class="cls-2" d="M41.34,32h0v.07S41.32,32,41.34,32Z"/><path class="cls-2" d="M41,33.19l.07-.07A.07.07,0,0,0,41,33.19Z"/><path class="cls-2" d="M41.14,32.72h0l.13-.14Z"/><path class="cls-2" d="M40.83,33.52l.1-.05h-.06Z"/><path class="cls-2" d="M40.71,33.69a.44.44,0,0,1-.12.15.54.54,0,0,0,.16-.1S40.75,33.68,40.71,33.69Z"/><polygon class="cls-2" points="40.81 33.43 40.86 33.36 40.86 33.36 40.81 33.43"/><path class="cls-2" d="M41.06,33c-.07.06-.06,0-.1,0Z"/><path class="cls-2" d="M40.92,33.17l-.05.08.09-.07Z"/><polygon class="cls-2" points="40.85 33.29 40.87 33.26 40.83 33.29 40.85 33.29"/><path class="cls-2" d="M40.59,33.68a.76.76,0,0,0-.11.14.52.52,0,0,1,.11-.1S40.6,33.68,40.59,33.68Z"/><polygon class="cls-2" points="40.1 34.18 40.09 34.17 40.09 34.19 40.1 34.18"/><path class="cls-2" d="M40.59,33.67h0l.07-.08A.18.18,0,0,0,40.59,33.67Z"/><path class="cls-2" d="M40.72,33.56h0Z"/><path class="cls-2" d="M40.19,34.16a.64.64,0,0,1,.08-.14h0l-.15.14S40.13,34.19,40.19,34.16Z"/><path class="cls-2" d="M40.42,33.9h0l.06-.08-.08.07c.08-.12-.12,0,0-.1-.06,0-.06,0-.15.07s.08,0,.13,0a.8.8,0,0,0-.13.13l.15-.12Z"/><path class="cls-2" d="M40.8,33.08a.33.33,0,0,0,0,.14.54.54,0,0,1,0-.18h0c0-.09,0,0,0,0h0S40.81,33.07,40.8,33.08Z"/><path class="cls-2" d="M40.53,33.53h0v.09l.12-.11A.08.08,0,0,0,40.53,33.53Z"/><polygon class="cls-2" points="39.89 34.39 39.95 34.37 39.91 34.34 39.89 34.39"/><path class="cls-2" d="M34.82,34.52H35a.24.24,0,0,1-.11-.06Z"/><path class="cls-2" d="M37.76,35.2h.15A.23.23,0,0,0,37.76,35.2Z"/><path class="cls-2" d="M33.49,28.68Z"/><path class="cls-2" d="M37.76,35.2h-.18A.19.19,0,0,0,37.76,35.2Z"/><path class="cls-2" d="M39.59,34.58s0,.05-.07.06h.09A.42.42,0,0,1,39.59,34.58Z"/><path class="cls-2" d="M40.14,33.85Z"/><path class="cls-2" d="M39.6,34.41c.07,0,.14,0,.09-.08h0S39.59,34.37,39.6,34.41Z"/><path class="cls-2" d="M39.77,34.28h0Z"/><path class="cls-2" d="M39,34.84h0S39.06,34.82,39,34.84Z"/><polygon class="cls-2" points="39.58 34.32 39.57 34.27 39.53 34.31 39.58 34.32"/><path class="cls-2" d="M39.26,34.5h0l-.08.06Z"/><path class="cls-2" d="M38,34.9h0Z"/><polygon class="cls-2" points="41.67 30.57 41.66 30.6 41.69 30.65 41.67 30.57"/><path class="cls-2" d="M41.6,30.82l.06-.06H41.6A.06.06,0,0,1,41.6,30.82Z"/><path class="cls-2" d="M23.21,31.21Z"/><polygon class="cls-2" points="23.01 31.94 23.07 31.86 23.05 31.86 23.01 31.94"/><path class="cls-2" d="M23,32.14c0,.11-.13.25-.08.32a3.46,3.46,0,0,1,.13-.38H23Z"/><path class="cls-2" d="M23,32.83v-.06h0C22.9,32.89,22.93,32.8,23,32.83Z"/><path class="cls-2" d="M22.9,33l-.06.07c0,.06,0,.08.06,0S22.9,33,22.9,33Z"/><path class="cls-2" d="M22.81,33h0l.06-.07S22.78,33,22.81,33Z"/><path class="cls-2" d="M22.85,32.93c.08-.15,0-.19,0,0C22.88,32.82,22.86,32.88,22.85,32.93Z"/><path class="cls-2" d="M22.87,32.36h0v.07S22.85,32.38,22.87,32.36Z"/><path class="cls-2" d="M22.5,33.55l.07-.06S22.54,33.48,22.5,33.55Z"/><path class="cls-2" d="M22.67,33.08h0l.13-.14Z"/><path class="cls-2" d="M22.24,34.05a.31.31,0,0,1-.12.16l.16-.1S22.29,34,22.24,34.05Z"/><path class="cls-2" d="M22.41,33.78a.14.14,0,0,0,0-.09h0Z"/><polygon class="cls-2" points="22.35 33.79 22.39 33.73 22.39 33.73 22.35 33.79"/><path class="cls-2" d="M22.59,33.32h-.1S22.54,33.35,22.59,33.32Z"/><path class="cls-2" d="M22.45,33.53l-.05.09.09-.08Z"/><polygon class="cls-2" points="22.38 33.65 22.4 33.62 22.36 33.65 22.38 33.65"/><path class="cls-2" d="M22.12,34a.76.76,0,0,0-.11.14.34.34,0,0,1,.12-.09S22.13,34,22.12,34Z"/><polygon class="cls-2" points="21.63 34.54 21.62 34.54 21.62 34.55 21.63 34.54"/><path class="cls-2" d="M22.12,34h0l.07-.08S22.14,34,22.12,34Z"/><path class="cls-2" d="M22.26,33.93Z"/><path class="cls-2" d="M21.73,34.52a.61.61,0,0,1,.07-.14h0l-.15.14S21.66,34.55,21.73,34.52Z"/><path class="cls-2" d="M22,34.26h0l.06-.09-.08.07c.08-.12-.12,0,0-.1-.06,0-.06,0-.15.08s.08,0,.13,0l-.13.13.16-.12Z"/><path class="cls-2" d="M22.36,33.37Z"/><path class="cls-2" d="M22.34,33.44a.33.33,0,0,0,0,.14.54.54,0,0,1,0-.18h0c0-.08,0,0-.05,0h0S22.35,33.43,22.34,33.44Z"/><path class="cls-2" d="M22.06,33.89h0L22,34l.11-.11S22.12,33.82,22.06,33.89Z"/><polygon class="cls-2" points="21.42 34.75 21.48 34.73 21.45 34.71 21.42 34.75"/><path class="cls-2" d="M16.35,34.89h.15l-.11-.06Z"/><path class="cls-2" d="M19.29,35.57h.15A.17.17,0,0,0,19.29,35.57Z"/><path class="cls-2" d="M19.29,35.57h-.18A.19.19,0,0,0,19.29,35.57Z"/><path class="cls-2" d="M23.1,30.52v.08S23.11,30.53,23.1,30.52Z"/><path class="cls-2" d="M20.81,35.12Z"/><path class="cls-2" d="M21.12,34.94a.11.11,0,0,1-.07.06h.1S21.13,35,21.12,34.94Z"/><path class="cls-2" d="M21.13,34.78c.07,0,.14-.05.1-.09h0C21.18,34.71,21.12,34.74,21.13,34.78Z"/><path class="cls-2" d="M21.3,34.64h-.05S21.32,34.66,21.3,34.64Z"/><path class="cls-2" d="M20.57,35.2h.05C20.57,35.2,20.59,35.18,20.57,35.2Z"/><polygon class="cls-2" points="21.11 34.69 21.1 34.63 21.06 34.67 21.11 34.69"/><path class="cls-2" d="M20.68,34.92a.19.19,0,0,0,.12-.06h0Z"/><path class="cls-2" d="M20.8,34.86h0Z"/><polygon class="cls-2" points="23.2 30.93 23.19 30.96 23.23 31.02 23.2 30.93"/><path class="cls-2" d="M23.14,31.18l.06-.06h-.07A.13.13,0,0,1,23.14,31.18Z"/><path class="cls-2" d="M33.43,18.32c.09-.16,0-.13.12-.32,0,.08-.07,0-.11,0l.09-.13h-.07a.28.28,0,0,0,0-.18h0a2,2,0,0,1,.09-.32.16.16,0,0,0-.09-.2c-.09,0,0-.05,0-.07s.08,0,0,0h0a.38.38,0,0,0,0-.15v0h0a.21.21,0,0,1,0-.11.85.85,0,0,1-.09-.31.44.44,0,0,0-.13-.31v.08c-.06-.17-.21-.29-.23-.41h0a1.77,1.77,0,0,0-.15-.31h0l-.19-.27c-.07-.1-.14-.18-.22-.18s-.15-.15-.21-.22h0a.77.77,0,0,1-.18-.18c-.24-.09-.36-.28-.54-.39h0a1.09,1.09,0,0,0-.17-.13.27.27,0,0,0-.08-.07A.52.52,0,0,0,31,14l-.13,0c.13.09,0,0-.06.09L30.79,14h0s-.19-.09-.23-.15h-.29c.14-.07-.27-.06-.18-.13H30a.67.67,0,0,1,.33.15h-.11c.05.09.22,0,.27.06s-.12,0-.13,0v-.06a.62.62,0,0,1,.31.16c-.09,0,.1.08,0,.09h-.06l-.34-.1h0a2.41,2.41,0,0,0-.37-.07c0-.07-.16-.11-.11-.15s0,0-.17,0,.1-.06.14-.08-.09,0-.09-.06-.17.19-.07.23a.17.17,0,0,1,.17,0A4.09,4.09,0,0,0,26.27,15l-.17.18c0-.08,0-.15-.07-.14h.06c-.06,0-.16.18-.25.18l-.09.24s-.07,0-.06-.05-.07.09-.05,0c-.12.28-.25.56-.39.83A2.27,2.27,0,0,0,25,17H25c-.05,0-.05.1-.07.16s.05.12.07.17-.06,0-.07,0a3.92,3.92,0,0,0,0,.84c0,.08.08,0,.09.08s0,0,0,.09v.13s.08.36.21.29c0,.11,0,.11-.06.08a1.15,1.15,0,0,1,.07.36l.13.35a.59.59,0,0,0,.23.33c-.1,0,0,0,0,.11h-.08l.1.16h.08a.4.4,0,0,1,.07.21h0v.08s-.09-.22.06-.07c0,0,0,.16.06.18s0-.1,0-.08l.09.12h-.09a4.55,4.55,0,0,0,1,.86c0-.05.27.17.29.06h0c-.09-.06.07-.05.13,0s.11.17-.1.07v.05h.52c1.29,0,3.59-.31,4.44-2.39h.1A5.23,5.23,0,0,1,30.62,22l.14-.08c.07,0,0,0,0,.07s.4-.1.44-.15,0-.07,0-.11,0,.13.2,0h-.06s.09-.28.18-.29v0c.14,0,.2-.3.28-.23h0c.15-.2.1,0,.25-.26h0c.09-.07.09-.15.18-.14h0a2,2,0,0,0,.19-.22.12.12,0,0,0,.07-.07c.06,0,.23-.24.26-.3s-.07,0-.07,0a.24.24,0,0,0,.12-.16c0-.1.17.07.26-.09,0,0,0,.05-.06,0s0-.06,0-.07H33a2.65,2.65,0,0,1,.2-.33h-.06c-.06,0,0-.25.11-.15a2.42,2.42,0,0,1,.14-.56,1,1,0,0,0,0-.43v-.19Zm-7.95,1.82ZM31.12,14h0s.07,0,0,0Zm.1.32h.09a.31.31,0,0,1-.15-.1h.11a1.48,1.48,0,0,1-.27-.1s0-.12.09-.12a.28.28,0,0,1,.2.13.52.52,0,0,0,.2.19s0-.09.1,0a.5.5,0,0,1,.16.28A5.36,5.36,0,0,0,31.22,14.28Zm1,.79h.06a.21.21,0,0,1,0,.11Zm.42,5.22V20.2h0v-.07h.06Zm.12-4.51-.08-.12.06-.06h-.07l-.08-.12h0a1.44,1.44,0,0,1,.25.18A.26.26,0,0,1,32.76,15.78Zm.39.89a1.72,1.72,0,0,0-.07-.21l.08-.23v.15h0A.57.57,0,0,1,33.15,16.67Zm.18,1.41V18a.14.14,0,0,0,.09,0Z"/><path class="cls-2" d="M41.78,4.9h0a.38.38,0,0,0,.07-.29h0V4.35c-.08,0-.06-.1-.06-.23s0-.26-.09-.28,0-.25,0-.33h0c.06-.12-.11-.27-.14-.38s0,0,.06,0-.09-.4-.14-.44-.07,0-.12,0,.14,0,0-.2h0c0-.06-.36-.1-.36-.18h0c0-.14-.29-.2-.23-.28h0c-.21-.15,0-.1-.26-.25h0c-.06-.09-.15-.08-.13-.18h0l-.21-.19s-.05-.07-.08-.07-.24-.23-.29-.25,0,.06,0,.07A.14.14,0,0,0,39.75,1h0a.29.29,0,0,0,0-.13q-.37,0-.75,0c-1.29,0-3.59.31-4.44,2.38h-.1A5.69,5.69,0,0,1,35.86.74H36l.2-.16L36,.56a.5.5,0,0,0-.31.14h.09c-.17.07-.3.22-.41.24v0A1.21,1.21,0,0,0,35,1h0l-.26.18c-.1.07-.18.15-.18.22s-.16.16-.23.21h0a.73.73,0,0,1-.18.17c-.09.24-.28.36-.39.54h0l-.13.17c.06,0,0,0-.06.08a.43.43,0,0,0-.1.24.61.61,0,0,0,0,.12c.08-.12,0,0,.09.06l-.07.06h0s-.1.2-.16.23,0,0,0-.06h0c0,.1,0,.06-.05,0s0,.19,0,.3c-.06-.15-.06.27-.13.17.06.1,0,.06,0,.13a.63.63,0,0,1,.15-.32v.1c.1,0,0-.22.07-.27a.15.15,0,0,0,0,.13h0a.6.6,0,0,1,.15-.31c0,.09.08-.09.1,0v.07h0l-.11.35h0V3.7h0a2.29,2.29,0,0,1-.07.36c0,.12-.11.16-.15.11s.06,0,0,.17-.06-.1-.07-.14,0,.1-.07.1.2.16.23.07a.28.28,0,0,1,0-.18,4.19,4.19,0,0,0,1.18,3.43l.18.16c-.07,0-.15,0-.13.07l0-.06c0,.07.18.17.17.25l.24.1s0,.07,0,0,.1.07,0,0c.29.11.55.26.82.39a2.19,2.19,0,0,0,.86.25v.05s.1,0,.16.07l.16-.07c.07,0,0,.06,0,.08a4.59,4.59,0,0,0,.83,0c.08,0,0-.07.08-.09s0,.06.1.05H38s.36-.08.29-.21c.12,0,.11,0,.08.06a1.15,1.15,0,0,1,.37-.06L39,8.57a.69.69,0,0,0,.34-.22c0,.09,0,0,.11,0v.09l.16-.1h0V8.26a.36.36,0,0,1,.2-.06h.07c.06,0-.21.08-.06-.06s.16,0,.17-.07-.09,0-.07,0l.11-.1v.09a4.84,4.84,0,0,0,.86-1c-.06,0,.17-.27.06-.29h0c-.07.09,0-.06,0-.13,0,.09.16-.1.07.1l.12-.13c.11,0,.16-.12.2-.25A1.83,1.83,0,0,1,41.63,6h0c.14-.22.09-.54.12-.58h0A.59.59,0,0,0,41.78,4.9ZM35.26,1a.37.37,0,0,1,.1.11l-.13.07-.06-.06v.07l-.12.08h0A1.39,1.39,0,0,1,35.26,1Zm-.51.55-.1.09h0a.39.39,0,0,1,.1-.08ZM33.37,4.14Zm.49-1.5V2.56a.45.45,0,0,1-.1.14V2.59a.32.32,0,0,1-.11.27s-.11,0-.12-.09a.25.25,0,0,1,.14-.2.52.52,0,0,0,.19-.2s-.09,0,0-.1a.56.56,0,0,1,.29-.16,3.5,3.5,0,0,0-.29.54Zm5.86,5.74Zm.06-7.15h-.07a0,0,0,0,1,0,0h0V1.17l.12.13a.11.11,0,0,0-.1-.06Z"/><path class="cls-2" d="M60.46,31.73v-.84c0-.07-.07,0-.09-.07s.06,0,.06-.09V30.6s-.08-.36-.21-.29c0-.12,0-.11.06-.08a1.16,1.16,0,0,1-.07-.37l-.13-.34c-.06-.15-.15-.31-.23-.34.1.05,0,0,0-.11h.09a.86.86,0,0,0-.1-.16h0c0,.05,0,0-.09,0a.36.36,0,0,1-.06-.2h0v-.08c0-.05.09.22-.06.07,0,0,0-.16-.07-.17s0,.09,0,.07l-.09-.11h.09a5.11,5.11,0,0,0-1-.86c0,.06-.28-.16-.29-.06h0c.09.07-.07,0-.14,0,.1,0-.1-.16.11-.07h-.52c-1.3,0-3.59.31-4.44,2.38h-.1a5.4,5.4,0,0,1,1.59-2.66l-.14.07c-.07,0,0,0,0-.06s-.4.09-.43.14,0,.08,0,.12,0-.14-.2,0h.06c-.07.06-.09.29-.18.3v-.05c-.15,0-.2.3-.28.23v0c-.15.21-.1,0-.25.26h0c-.09.07-.09.16-.18.14h0a1.34,1.34,0,0,0-.2.21s-.06.06-.06.08-.23.24-.26.3.06,0,.07,0-.11.06-.13.15-.16-.06-.25.1c0,0,0-.06,0,0v.06s0,0,.06,0-.1.18-.2.34h0s0,.26-.1.15a2.49,2.49,0,0,1-.14.57,1,1,0,0,0,0,.43v.18h0c-.09.16,0,.12-.12.32,0-.08.07,0,.11,0l-.09.14H52a.28.28,0,0,0,0,.18h0a2.37,2.37,0,0,1-.09.32A.15.15,0,0,0,52,32a.11.11,0,0,0,0,.08h0a.43.43,0,0,0,0,.16v0h0a.24.24,0,0,1,0,.12.65.65,0,0,1,.08.31.66.66,0,0,0,.11.26h0c.06.17.21.3.23.42h0a1.77,1.77,0,0,0,.15.31h0l.19.27c.06.09.14.17.22.17s.15.16.21.23h0a1.07,1.07,0,0,1,.18.19c.24.09.36.28.54.39h0L54,35c0-.06,0,0,.09.06a.52.52,0,0,0,.23.1l.13.05c-.13-.08,0-.05.06-.09l.06.07h0a1,1,0,0,1,.24.16h.29c-.14.06.27.06.18.13.1-.06.06,0,.13,0a1,1,0,0,1-.33-.15h.11c0-.1-.22,0-.27-.07a.15.15,0,0,0,.13,0h0a.58.58,0,0,1-.32-.16c.1,0-.09-.07,0-.09h.06l.34.11h.07l.37.07c0,.06.16.11.11.15s0-.05.17,0-.11.06-.14.07.09.05.09.07.16-.2.07-.23a.17.17,0,0,1-.17,0,4.14,4.14,0,0,0,3.42-1.18l.16-.18c0,.07,0,.15.08.13H59.3c.06,0,.16-.18.24-.17a2.44,2.44,0,0,0,.1-.24h0s.08-.1.06,0c.11-.29.26-.55.39-.83a2.53,2.53,0,0,0,.25-.85h0a1.55,1.55,0,0,0,.08-.15,1.34,1.34,0,0,1-.07-.18S60.44,31.74,60.46,31.73ZM52,31.1h-.09L52,31Zm.18,1.74a.33.33,0,0,0,0-.14h0a.41.41,0,0,1,.07-.26,1.72,1.72,0,0,0,.07.21Zm.52-4.05v.08h0a.09.09,0,0,0,0,.07h-.06Zm0,4.77a1.14,1.14,0,0,1-.25-.18.73.73,0,0,1,.11-.09l.08.13-.06.06h.07l.08.12ZM53,34a.24.24,0,0,1,0-.12l.09.1h-.08Zm1.16,1a.28.28,0,0,1-.2-.13.39.39,0,0,0-.2-.2s0,.09-.1,0a.5.5,0,0,1-.16-.28,2.75,2.75,0,0,0,.53.36H54a.28.28,0,0,1,.14.1H54c.07.05.16,0,.27.1s.06,0,0,.05Zm1.34.22Zm4.24-6.37h0s.07.09,0,0Z"/><path class="cls-2" d="M50.12,18.36c.05,0,0-.22,0-.31h0a.57.57,0,0,1,0-.26,2.84,2.84,0,0,1-.1-.65h0v-.32a.43.43,0,0,0-.1-.24v-.12c0,.15-.06,0-.11,0v-.09h0c0-.06-.07-.21-.05-.28h.05c-.06-.09,0-.06,0-.07a.52.52,0,0,0-.23-.19c.14.06-.14-.23,0-.22-.11,0,0,0-.12-.06a.7.7,0,0,1,.12.34l-.09-.06c0,.09.14.17.14.24s-.06-.12-.08-.11h.07a.6.6,0,0,1,.11.34c-.06-.08,0,.11-.06.07V16.3h0L49.5,16h0v-.06h0c-.06-.11-.13-.21-.19-.31a.16.16,0,0,1,0-.18s-.06,0-.13-.11.12,0,.15,0,0-.1,0-.12-.25,0-.21.11L49,15.25h0a4.4,4.4,0,0,0-1.38-1h-.17c-1.29,0-3.59.31-4.44,2.39h-.1A5.39,5.39,0,0,1,44.22,14h0a2.31,2.31,0,0,0-.79.42h-.16l-.08.17h-.06c-.25.17-.41.44-.61.58,0,.08.07,0,0,.12,0-.08-.05,0-.11,0s-.11.13-.11.07c0,.14-.2.31-.06.35-.06.11-.1.06-.09,0a1.29,1.29,0,0,1-.22.3s-.09.18-.16.34a.78.78,0,0,0-.08.4c0-.11,0,0-.09.06v.28c0,.09,0,.12-.1.18h0v.09c0,.06.1-.21.1,0,0,0-.12.11-.09.18,0-.11.06-.09.07-.05a.75.75,0,0,1,0,.15l-.07-.06a5.83,5.83,0,0,0,.09,1.32c.06,0,.07.31.16.25h0c0-.11.08,0,.09.1-.06-.09-.05.18-.12,0v.18c-.08.07,0,.19,0,.32a1.79,1.79,0,0,1,.2.39h0c.06.24.32.44.32.5h.06a.56.56,0,0,0,.25.4h0a.38.38,0,0,0,.14.26h0c.06.06.12.13.19.19s.11,0,.19.12.18.19.26.14.17.19.24.25h0l.36.17c.1,0,0,.06,0,.07.16,0,.34.22.41.21s.06,0,.09-.07-.06.13.16.13h0c.07,0,.26-.13.33-.08h-.06c.14.08.36-.06.36,0v.05h.36c.11,0,.17-.05.22,0h.77c-.11,0-.06,0,0-.05a.18.18,0,0,0,.2,0c0,.07.06.16.25.12h0s0,0,0-.05.21,0,.39-.08c-.07,0,0,0,0-.07s.2-.16.18,0c.15-.1.34-.2.51-.29a1.09,1.09,0,0,0,.33-.27c0-.05.11-.07.16-.1h0a1.73,1.73,0,0,0,.31-.14c-.09,0-.08,0,0-.1h.16v-.06a.4.4,0,0,0,.13-.13h0a1.5,1.5,0,0,1,.29-.16s.12-.12.08-.2l.07,0s0,.08.05,0h0l.09-.12v0h0a.21.21,0,0,1,.06-.1.61.61,0,0,1,.16-.28.51.51,0,0,0,.13-.31v.08c.08-.16.06-.36.13-.46h0A1.29,1.29,0,0,0,50,19h0a3.22,3.22,0,0,1,.07-.32A.36.36,0,0,0,50.12,18.36ZM41.51,17Zm5.05,5.21h-.17l.06-.05h.08s0,0,0,0Zm1.9-1.05.07-.07a.23.23,0,0,0,.07.07.35.35,0,0,1-.14,0Zm.43-5.73a.24.24,0,0,1,.11.13Zm.13.16Zm.85,1.11Zm-.31,3.17h0a.45.45,0,0,1-.24.14,1.14,1.14,0,0,0,.1-.19l.22-.11Zm.14-.71V19h0v-.14h0a.81.81,0,0,1,0,.31v0Zm.13-.75v-.13h0v.13Zm0-.77a4.23,4.23,0,0,0-.11-.62v.07a.25.25,0,0,1,0-.17.41.41,0,0,0,.05.09c0-.08-.09-.13-.11-.26s.06-.1.15,0a.24.24,0,0,1,0,.23.45.45,0,0,0,0,.28s.06-.07.06.09a.47.47,0,0,1,0,.26Z"/><path class="cls-2" d="M39.54,34.41c-.1,0-.17.14-.24.14a.15.15,0,0,0,.11-.08v.07a.6.6,0,0,1-.34.11H39a2.84,2.84,0,0,1-.54.43h.1a.51.51,0,0,0,.24-.1l.12,0c-.15,0,0-.06,0-.1H39c.06,0,.21-.07.28,0h0c.09-.06.06,0,.07,0a.6.6,0,0,0,.19-.23c-.06.14.23-.15.21,0,0-.12,0,0,.06-.13a.64.64,0,0,1-.33.13Z"/><path class="cls-2" d="M41.51,30.16h.07s0-.12,0,0c-.13-.29-.21-.58-.31-.86a2.18,2.18,0,0,0-.43-.79h0a.24.24,0,0,0-.06-.16l-.17-.08v-.06c-.17-.25-.44-.4-.59-.6-.08,0,0,.07-.12,0,.09,0,0,0,0-.1s-.13-.11-.07-.11c-.14,0-.31-.2-.35-.06-.11-.06-.06-.1,0-.09a1.29,1.29,0,0,1-.3-.22l-.34-.15a.78.78,0,0,0-.4-.08c.1,0,0,0-.07-.08H38.2a.35.35,0,0,1-.19-.1h0c-.06,0,.22.09,0,.09,0,0-.1-.12-.17-.08.11,0,.09.05.05.06H37.7l.06-.07a4.51,4.51,0,0,0-1.32.11c0,.06-.31.07-.25.16h0c.1,0,0,.07-.1.09.08-.06-.19,0,0-.12H36c-.07-.07-.19,0-.31.05a1.79,1.79,0,0,1-.39.2h0c-.25.06-.44.32-.5.33v0a.59.59,0,0,0-.39.26h0a.37.37,0,0,0-.25.15h0L34,28c.06.06,0,.12-.12.21s-.19.18-.14.26-.18.17-.24.23h0c-.12.05-.11.27-.16.37s-.06,0-.08,0-.21.35-.2.41,0,.06.07.1-.13-.07-.13.15h0c0,.06.13.26.08.33V30c-.07.14.07.36,0,.37h0v.36h0c0,.12.05.17,0,.23h0v.78c0-.11,0-.06.06,0a.15.15,0,0,0,0,.2c-.08,0-.16.07-.12.25v0s0-.05,0,0,0,.2.09.38c0-.06,0,0,.07,0s.16.2,0,.18c.1.15.2.34.3.5a.88.88,0,0,0,.28.33l.09.16h0a2.92,2.92,0,0,0,.14.31c0-.09,0-.08.1,0s0,.1,0,.16h.06c0,.06.08.09.13.12h0a1.71,1.71,0,0,1,.17.29.14.14,0,0,0,.2.07.09.09,0,0,0,0,.07s-.08,0,0,.06h0l.11.09h.38v-.11l.2.1h.2c1.3,0,3.59-.32,4.44-2.39h.1A5.64,5.64,0,0,1,39,34.8l.26-.14h.06l.3-.21h.18s0-.07.11-.14,0,.12,0,.16.11,0,.12,0,0-.25-.12-.21a.21.21,0,0,1-.13.11,4.12,4.12,0,0,0,1.58-3.25,1,1,0,0,0,0-.24c.06.05.11.1.15,0V31c.07,0,0-.25,0-.3ZM33.2,31.73h0s0,.05-.05,0v-.17l.05.06h0v.05h0a.11.11,0,0,0,0,.08S33.22,31.76,33.2,31.73Zm1,2v-.14l.07.08a.2.2,0,0,0,0,.08Zm4.06-7.15h0s.09.05,0,0Zm1.5,7.51Z"/><path class="cls-2" d="M23,30.52h.07s0-.12,0,0c-.13-.29-.21-.58-.31-.86a2.34,2.34,0,0,0-.43-.79h0a.25.25,0,0,0-.06-.16l-.16-.07v-.06c-.17-.26-.44-.41-.59-.61-.07,0,0,.07-.11,0,.08,0,0,0,0-.1s-.12-.11-.07-.11c-.14,0-.31-.2-.35-.06s0-.1,0-.09l-.21-.14h-.54c-1.29,0-3.59.31-4.44,2.38h-.1a5.36,5.36,0,0,1,1.63-2.7.41.41,0,0,0-.26.07,2.42,2.42,0,0,1-.39.21h0c-.24.06-.43.33-.5.33v.06a.63.63,0,0,0-.4.25h0a.37.37,0,0,0-.25.15h0a1.07,1.07,0,0,0-.18.19c.05,0,0,.11-.13.2s-.18.18-.13.26-.18.17-.24.24h0c-.12.05-.11.28-.16.37s-.06,0-.07,0c0,.16-.22.35-.21.41s.05.06.07.1-.13-.07-.12.16v0s.14.26.09.33v-.05c-.07.13.07.35,0,.36h0v.36h0v.22h0a1.41,1.41,0,0,0,0,.29v.49c0-.11,0-.06.06,0a.15.15,0,0,0,0,.2c-.08,0-.16.07-.12.25v0h0c.05,0,0,.2.09.38,0-.06,0,0,.07,0s.16.19,0,.17c.1.15.2.34.3.5a1,1,0,0,0,.28.33.89.89,0,0,0,.1.16h0c.05.18.06.12.14.31,0-.09,0-.08.11,0v.16h.06a.37.37,0,0,0,.13.12h0a2.35,2.35,0,0,1,.16.29.16.16,0,0,0,.2.08v.06s-.07.05,0,.06h.05l.12.1h0a.14.14,0,0,1,.1,0,.78.78,0,0,1,.28.16.47.47,0,0,0,.32.12h-.09c.17.07.36.06.46.12h0a.93.93,0,0,0,.33.12h0a1.7,1.7,0,0,1,.31.06.37.37,0,0,0,.29,0h.3a.61.61,0,0,1,.27,0,4.64,4.64,0,0,1,.65-.11h.31a.42.42,0,0,0,.24-.09l.12-.06c-.14,0,0,0,0-.1h.09c.06,0,.21-.07.28-.06h0c.09-.06.06,0,.07,0a.52.52,0,0,0,.19-.23c-.06.14.23-.15.21,0,0-.11,0,0,.06-.12a.66.66,0,0,1-.33.12l.06-.09c-.1,0-.17.14-.24.14a.19.19,0,0,0,.11-.07v.06a.6.6,0,0,1-.34.11h0l.33-.17h.05L21,35a.13.13,0,0,1,.18,0s0-.07.11-.14,0,.12,0,.16.1,0,.11,0,0-.26-.11-.22a.19.19,0,0,1-.14.11l.14-.11.11-.1h.05a4.18,4.18,0,0,0,1.33-3v-.24c0-.08.1.1.14,0v.08c.06,0,0-.25,0-.3A2.39,2.39,0,0,0,23,30.52Zm-8.3,1.57h0s0,.06,0,0v-.18l.06.06v.08h0v.08s0,0,0,0Zm1,2V34l.07.07a.09.09,0,0,0,0,0ZM17,35h0a.47.47,0,0,1-.15-.24l.2.1.11.21Zm1,.22h-.3v-.14h.14v0H18a1.29,1.29,0,0,1,.09.16Zm.56.08a.21.21,0,0,1-.11,0h.14l0,0Zm1.34,0a.45.45,0,0,0-.28,0s.08,0-.08.06a.48.48,0,0,1-.31-.08,6,6,0,0,0,.61-.12H20l-.1.06c.09,0,.13-.09.26-.12s.1.07,0,.15l-.12,0Zm.26,0h0s0,0,.07,0Zm1.08-.85Z"/><path class="cls-3" d="M16.42,61.19v.27c0,.12,0,.25,0,.39v.81h.44l.53,0,.1,0,.05,0s0,0,0,0h0s0,0,0,.09a.83.83,0,0,0,0,.15s0,.07,0,.1a.28.28,0,0,0,0,.09s0,.05,0,.08a0,0,0,1,1-.06,0,.23.23,0,0,0,0-.13.1.1,0,0,0-.07-.07.28.28,0,0,0-.13,0h-.82v.66c0,.22,0,.4,0,.54a1.19,1.19,0,0,0,0,.24.27.27,0,0,0,.08.14.24.24,0,0,0,.12.07l.17,0a0,0,0,0,1,0,.06H15.64s0,0,0,0,0,0,0,0l.16,0a.15.15,0,0,0,.11-.08.26.26,0,0,0,.06-.15A1.31,1.31,0,0,0,16,64v-.23c0-.1,0-.21,0-.32V62.21c0-.11,0-.21,0-.3v-.2c0-.12,0-.22,0-.3a.48.48,0,0,0,0-.18.23.23,0,0,0-.12-.1.76.76,0,0,0-.21-.06,0,0,0,0,1,0,0s0,0,0,0h2a.12.12,0,0,1,.09,0,.14.14,0,0,1,0,.09s0,.1,0,.18l0,.23a1.25,1.25,0,0,1,0,.21s0,0,0,0a0,0,0,0,1,0,0,.86.86,0,0,0,0-.16.33.33,0,0,0,0-.17.33.33,0,0,0-.11-.13.45.45,0,0,0-.23-.07l-.36,0Z"/><path class="cls-3" d="M22.7,62.73a2.15,2.15,0,0,1-.14.77,1.85,1.85,0,0,1-.4.61,1.81,1.81,0,0,1-1.36.55,2.27,2.27,0,0,1-.75-.11,1.6,1.6,0,0,1-.6-.33,1.76,1.76,0,0,1-.39-.56,2.08,2.08,0,0,1-.17-.78A1.83,1.83,0,0,1,19,62.1a1.77,1.77,0,0,1,.41-.62,1.83,1.83,0,0,1,.64-.4,2.16,2.16,0,0,1,.81-.15,1.9,1.9,0,0,1,.78.15,1.61,1.61,0,0,1,.57.41,1.72,1.72,0,0,1,.36.57A2.19,2.19,0,0,1,22.7,62.73Zm-2-1.63a1.34,1.34,0,0,0-.58.13,1.39,1.39,0,0,0-.41.35,1.72,1.72,0,0,0-.24.53,2.88,2.88,0,0,0-.08.68,2.17,2.17,0,0,0,.1.69,1.53,1.53,0,0,0,.3.55,1.37,1.37,0,0,0,.46.36,1.51,1.51,0,0,0,.61.12,1.38,1.38,0,0,0,.59-.11,1.23,1.23,0,0,0,.45-.32,1.27,1.27,0,0,0,.28-.48,1.75,1.75,0,0,0,.1-.62,2.72,2.72,0,0,0-.09-.69,1.72,1.72,0,0,0-.29-.61,1.35,1.35,0,0,0-.49-.43A1.33,1.33,0,0,0,20.67,61.1Z"/><path class="cls-3" d="M24.31,63.9c0-.2,0-.4,0-.6V61.84c0-.09,0-.19,0-.31a.57.57,0,0,0-.1-.34.47.47,0,0,0-.3-.12s0,0,0,0,0,0,0,0h.56l.34,0h.38a1.84,1.84,0,0,1,.6.11,1,1,0,0,1,.35.25.71.71,0,0,1,.15.3,1.06,1.06,0,0,1,0,.29,1,1,0,0,1-.17.57,1.31,1.31,0,0,1-.48.41l.21.31c.1.14.21.29.34.45l.35.42a1.83,1.83,0,0,0,.3.27.57.57,0,0,0,.22.11l.2,0a0,0,0,0,1,0,.06h-.55a.88.88,0,0,1-.26-.08.75.75,0,0,1-.23-.15L26,64.08l-.3-.41-.23-.35c-.07-.1-.13-.2-.19-.3a1.94,1.94,0,0,1-.59,0v.53c0,.15,0,.26,0,.35a2.33,2.33,0,0,0,0,.32.38.38,0,0,0,.06.18.24.24,0,0,0,.11.09l.21,0s0,0,0,0,0,0,0,0h-1.2a0,0,0,0,1,0,0,0,0,0,0,1,0,0l.19,0a.28.28,0,0,0,.11-.08.38.38,0,0,0,.06-.18A2.38,2.38,0,0,0,24.31,63.9Zm1.62-1.81a1.08,1.08,0,0,0-.18-.64.74.74,0,0,0-.59-.29h-.44a2.44,2.44,0,0,1,0,.27v1.42l.32,0a2.55,2.55,0,0,0,.38,0,.36.36,0,0,0,.23-.08.73.73,0,0,0,.17-.18.85.85,0,0,0,.09-.24A1.24,1.24,0,0,0,25.93,62.09Z"/><path class="cls-3" d="M30.91,62.94l-.21.43c-.06.13-.13.26-.18.39l-.18.37c-.05.13-.11.26-.16.4s0,.06-.05.06,0,0,0-.06l-.16-.32-.24-.47c-.08-.17-.18-.34-.27-.53l-.29-.52-.24-.45-.18-.31c0,.16,0,.33,0,.51s0,.36,0,.54l0,.56c0,.19,0,.36,0,.53a.78.78,0,0,0,0,.23.32.32,0,0,0,.07.13l.13.06.18,0s0,0,0,0,0,0,0,0h-1s0,0,0,0,0,0,0,0l.16,0a.26.26,0,0,0,.11-.07.4.4,0,0,0,.07-.13c0-.05,0-.13,0-.22.06-.51.12-1,.17-1.5s.1-1,.14-1.51c0-.07,0-.11.05-.11a.05.05,0,0,1,.05,0,.2.2,0,0,0,0,.08c0,.07.07.17.13.29s.14.27.22.43l.27.51.3.55.3.55.26.48.23-.44.34-.68.22-.44c.07-.16.14-.31.22-.46l.21-.43c.06-.14.12-.27.18-.38a.21.21,0,0,1,0-.07s0,0,0,0l0,0a.58.58,0,0,1,0,.1c0,.13,0,.28,0,.45s0,.36.06.55,0,.39.07.6.05.39.07.58,0,.35.07.51,0,.28.06.39a.61.61,0,0,0,0,.17.2.2,0,0,0,.15.18l.14,0s0,0,0,0,0,0,0,0h-.89s-.05,0-.05,0a0,0,0,0,1,.05,0,.12.12,0,0,0,.1,0s0-.1,0-.22,0-.3-.05-.51,0-.43-.07-.65,0-.45-.07-.66,0-.39-.06-.52a1.14,1.14,0,0,0-.09.19l-.13.24-.14.29C31,62.74,31,62.84,30.91,62.94Z"/><path class="cls-3" d="M37.36,62.73a2,2,0,0,1-.15.77,1.7,1.7,0,0,1-.4.61,1.94,1.94,0,0,1-.6.41,1.86,1.86,0,0,1-.75.14,2.29,2.29,0,0,1-.76-.11,1.56,1.56,0,0,1-1-.89,2.3,2.3,0,0,1-.16-.78,1.83,1.83,0,0,1,.13-.78,1.64,1.64,0,0,1,.41-.62,1.83,1.83,0,0,1,.64-.4,2.12,2.12,0,0,1,.81-.15,1.94,1.94,0,0,1,.78.15,1.74,1.74,0,0,1,.92,1A1.93,1.93,0,0,1,37.36,62.73Zm-2-1.63a1.31,1.31,0,0,0-.58.13,1.39,1.39,0,0,0-.41.35,1.51,1.51,0,0,0-.24.53,2.44,2.44,0,0,0-.08.68,2.17,2.17,0,0,0,.1.69,1.69,1.69,0,0,0,.29.55,1.4,1.4,0,0,0,.47.36,1.48,1.48,0,0,0,.61.12,1.38,1.38,0,0,0,.59-.11,1.31,1.31,0,0,0,.73-.8,1.75,1.75,0,0,0,.1-.62,2.72,2.72,0,0,0-.09-.69,1.72,1.72,0,0,0-.29-.61,1.36,1.36,0,0,0-1.2-.58Z"/><path class="cls-3" d="M38.67,64.24a1.71,1.71,0,0,1,0-.32,2.34,2.34,0,0,1,0-.3s0,0,0,0,0,0,0,0a1.14,1.14,0,0,0,.23.67.69.69,0,0,0,.57.24.81.81,0,0,0,.58-.19.66.66,0,0,0,.2-.48.75.75,0,0,0-.06-.31.63.63,0,0,0-.16-.24,1.06,1.06,0,0,0-.26-.2,3.63,3.63,0,0,0-.35-.2,2.38,2.38,0,0,1-.3-.18A1.75,1.75,0,0,1,39,62.5a.9.9,0,0,1-.17-.3.8.8,0,0,1-.06-.38.89.89,0,0,1,.28-.65,1.11,1.11,0,0,1,.75-.24l.31,0,.22,0a.5.5,0,0,1,.16.11.35.35,0,0,1,0,.22c0,.05,0,.11,0,.2s0,.17,0,.23,0,0,0,0,0,0,0,0a.75.75,0,0,0,0-.26.8.8,0,0,0-.13-.22.51.51,0,0,0-.21-.15.65.65,0,0,0-.29-.06.72.72,0,0,0-.47.15.6.6,0,0,0-.18.47.71.71,0,0,0,.18.5,1.83,1.83,0,0,0,.45.32,3.74,3.74,0,0,1,.46.27,1.71,1.71,0,0,1,.31.27,1,1,0,0,1,.18.31,1.05,1.05,0,0,1,0,.37.86.86,0,0,1-.09.39,1,1,0,0,1-.24.29.89.89,0,0,1-.36.19,1.33,1.33,0,0,1-.45.07,1.43,1.43,0,0,1-.38,0,1.46,1.46,0,0,1-.27-.08.4.4,0,0,1-.16-.13A.29.29,0,0,1,38.67,64.24Z"/><path class="cls-3" d="M43.44,61s0-.06,0-.08h.06l0,.08a4.74,4.74,0,0,0,.18.53l.28.77.34.89c.12.31.23.6.34.87,0,.08.07.15.1.2a.4.4,0,0,0,.1.12l.13.07.17,0a0,0,0,0,1,0,0,0,0,0,0,1,0,0H44.09s0,0,0,0a0,0,0,0,1,0,0c.11,0,.18,0,.2-.08s0-.13,0-.26l-.16-.47-.18-.52H42.8l-.08.21c0,.07-.06.16-.09.25l-.09.26c0,.09-.06.17-.08.25a.81.81,0,0,0,0,.19.19.19,0,0,0,0,.1l.1,0,.13,0a0,0,0,0,1,0,.06H41.66a0,0,0,0,1,0-.06l.11,0a.22.22,0,0,0,.11,0,.47.47,0,0,0,.12-.09.74.74,0,0,0,.12-.16l.27-.57c.09-.23.19-.46.28-.7Zm.43,2c-.08-.22-.16-.44-.23-.65s-.17-.44-.26-.67c0,.09-.08.18-.12.29s-.1.23-.15.36l-.25.67h1Z"/><path class="cls-3" d="M48.5,62.9v-.59c0-.2,0-.4,0-.61a2.33,2.33,0,0,0,0-.29.43.43,0,0,0,0-.18.24.24,0,0,0-.13-.11.89.89,0,0,0-.23,0s0,0,0,0,0,0,0,0h1.25a1.33,1.33,0,0,1,.43.07.87.87,0,0,1,.3.17.74.74,0,0,1,.17.25.93.93,0,0,1,0,.29.78.78,0,0,1,0,.31.72.72,0,0,1-.14.24,1.07,1.07,0,0,1-.19.18.8.8,0,0,1-.23.11,1.22,1.22,0,0,1,.72.34,1,1,0,0,1,.24.61,1,1,0,0,1-.09.44.87.87,0,0,1-.25.32.91.91,0,0,1-.38.19,1.39,1.39,0,0,1-.46.07l-.42,0a2.57,2.57,0,0,0-.36,0h-.54a0,0,0,0,1,0-.06.54.54,0,0,0,.2,0,.21.21,0,0,0,.11-.1.56.56,0,0,0,0-.18,2.36,2.36,0,0,0,0-.3c0-.07,0-.15,0-.25V62.9ZM49.86,62a.94.94,0,0,0-.16-.61.7.7,0,0,0-.57-.25h-.2s0,0,0,.08v.25c0,.13,0,.26,0,.4v.76h.27a.92.92,0,0,0,.33,0,.49.49,0,0,0,.24-.21A.69.69,0,0,0,49.86,62Zm.33,1.72a.84.84,0,0,0-.06-.39.79.79,0,0,0-.2-.3.89.89,0,0,0-.33-.19,1.43,1.43,0,0,0-.43-.07h-.26v.47c0,.18,0,.35,0,.49s0,.17,0,.26a1.22,1.22,0,0,0,0,.21.27.27,0,0,0,0,.11s0,.05.08.07a1,1,0,0,0,.44.08.73.73,0,0,0,.52-.19A.75.75,0,0,0,50.19,63.73Z"/><path class="cls-3" d="M53.27,61s0-.06,0-.08h.06l0,.08c0,.12.1.3.18.53l.28.77.34.89c.11.31.23.6.34.87a1.23,1.23,0,0,0,.1.2.4.4,0,0,0,.1.12l.13.07.17,0a0,0,0,0,1,0,0,0,0,0,0,1,0,0H53.92s0,0,0,0a0,0,0,0,1,0,0c.11,0,.18,0,.2-.08s0-.13,0-.26l-.16-.47-.18-.52H52.63l-.08.21c0,.07-.06.16-.09.25l-.09.26c0,.09-.06.17-.08.25a.81.81,0,0,0,0,.19.19.19,0,0,0,.05.1l.1,0,.13,0a0,0,0,1,1,0,.06h-1a0,0,0,1,1,0-.06l.11,0a.27.27,0,0,0,.11,0,.47.47,0,0,0,.12-.09A.74.74,0,0,0,52,64.2l.27-.57c.09-.23.19-.46.28-.7Zm.43,2c-.08-.22-.16-.44-.23-.65s-.17-.44-.26-.67c0,.09-.08.18-.12.29l-.15.36-.25.67h1Z"/><path class="cls-3" d="M59.42,61.13a0,0,0,0,1,0,0h0a.6.6,0,0,0-.2,0,.81.81,0,0,0-.52.2,2.33,2.33,0,0,0-.49.5l-.24.39a3.68,3.68,0,0,0-.23.44,4.28,4.28,0,0,0-.17.46,1.88,1.88,0,0,0-.06.46V64a1.85,1.85,0,0,0,0,.29.26.26,0,0,0,.06.15.17.17,0,0,0,.13,0l.19,0s0,0,0,0,0,0,0,0H56.7a0,0,0,0,1,0-.06l.16,0a.3.3,0,0,0,.11-.07.35.35,0,0,0,.07-.15,1.65,1.65,0,0,0,0-.27v-.38a1.89,1.89,0,0,0-.05-.38,3.71,3.71,0,0,0-.12-.41c0-.14-.1-.28-.16-.41a3.07,3.07,0,0,0-.2-.36,3,3,0,0,0-.58-.68,1,1,0,0,0-.56-.21.74.74,0,0,0-.15,0,.33.33,0,0,0-.13,0s0,0,0,0,0,0,0,0l.2-.11a.86.86,0,0,1,.37-.06,1,1,0,0,1,.39.07,1.35,1.35,0,0,1,.33.19,1.53,1.53,0,0,1,.29.28c.08.11.16.21.23.32a4.15,4.15,0,0,1,.29.6,6,6,0,0,1,.21.64,1.22,1.22,0,0,1,0-.22c0-.09.06-.2.1-.32a2.66,2.66,0,0,1,.17-.4,2.32,2.32,0,0,1,.25-.42,2,2,0,0,1,.31-.37,1.71,1.71,0,0,1,.29-.22.9.9,0,0,1,.28-.11,1,1,0,0,1,.24,0,.6.6,0,0,1,.2,0A.27.27,0,0,1,59.42,61.13Z"/></svg>