<svg id="Layer_1" data-name="Layer 1" xmlns="http://www.w3.org/2000/svg" viewBox="0 0 254 20"><defs><style>.cls-1{fill:#673065;}.cls-2{fill:#666;}.cls-3{fill:#5d5e5e;}</style></defs><title>fortbarwara-sticky</title><path class="cls-1" d="M26.14,17.78c0-.18,0-.34,0-.48s0,0,0-.05,0,0,0-.05,0-.09,0-.07,0-.21-.11-.17,0-.06,0,0a.56.56,0,0,1,0-.21l-.07-.2c0-.08-.09-.17-.14-.19s0,0,0-.06l.05,0a.41.41,0,0,0-.05-.09l0,0s0,0,0,0a.24.24,0,0,1,0-.12h0l0,0s.05.13,0,0,0-.09,0-.1,0,.06,0,.05a.18.18,0,0,0-.05-.07h.05a2.68,2.68,0,0,0-.57-.49s-.16-.1-.17,0h0c.05,0,0,0-.07,0s-.06-.09.05,0l0,0h-.3A2.58,2.58,0,0,0,22,16.67l-.05,0a3,3,0,0,1,.91-1.53s-.06.05-.09.05,0,0,0,0-.22,0-.25.08,0,0,0,.07,0-.08-.11,0,0,0,0,0-.05.15-.1.16l0,0c-.08,0-.11.17-.16.13v0c-.09.12-.06,0-.14.15h0c-.05,0-.05.09-.1.08v0a.63.63,0,0,0-.11.12.08.08,0,0,0,0,0s-.13.14-.14.17,0,0,0,0-.06,0-.07.09-.09,0-.14.05,0,0,0,0,0,0,0,0,0,0,0,0-.06.11-.12.2,0,0,0,0,0,.14-.06.08c0,.1-.06.22-.08.32a.65.65,0,0,0,0,.25s0,.07,0,.1h0a1.71,1.71,0,0,0-.07.18s.05,0,.07,0a.35.35,0,0,0-.05.08h0a.16.16,0,0,0,0,.1h0c-.06,0,0,.15-.06.18s0,.09.06.11a.07.07,0,0,0,0,.05s-.05,0,0,0h0a.22.22,0,0,0,0,.09l0,0,0,0h0a.14.14,0,0,1,0,.07.48.48,0,0,1,.05.17.25.25,0,0,0,.08.18s0,0,0,0,.12.17.13.24h0a1.31,1.31,0,0,0,.09.17l0,0,.1.16c0,.05.09.1.13.1s.09.08.12.12h0a.93.93,0,0,1,.1.1l.11.08-.05,0,.08,0a0,0,0,0,0,0,0l.18.14h0l.09.07s0,0,.05,0a.22.22,0,0,0,.14,0l.07,0c-.08-.05,0,0,0-.05l0,0s0,0,0,0,.11.05.13.09h0c.06,0,0,0,0,0s.11,0,.17,0,.15,0,.1.08,0,0,.07,0a.41.41,0,0,1-.19-.08l.06,0s-.12,0-.15,0,.07,0,.08,0l0,0a.44.44,0,0,1-.18-.09c.05,0-.05,0,0-.05h0s0,0,0,0l.24.08h0l.2,0s.09.07.06.09,0,0,.1,0-.06,0-.09,0,.06,0,.06,0,.09-.11,0-.13a.08.08,0,0,1-.1,0,2.33,2.33,0,0,0,2-.66l.09-.11c0,.05,0,.09,0,.08l0,0s.09-.1.14-.1l.06-.14s0,0,0,0,0-.05,0,0a3.38,3.38,0,0,1,.22-.47,1.44,1.44,0,0,0,.14-.49s0,0,0,0,0-.06,0-.09a.42.42,0,0,1,0-.1s0,0,0,0m-4.81-.36h-.06l.06-.06v.07m.1,1a.28.28,0,0,1,0-.09h0a.37.37,0,0,1,.05-.17l0,.13a1.27,1.27,0,0,1,0,.14m.29-2.31v0h0l0,0h0l0,0a0,0,0,0,1,0,0h0l.07-.07m0,2.72a1.28,1.28,0,0,1-.15-.1.22.22,0,0,1,.07-.06.25.25,0,0,0,0,.07l0,0,0,0,0,.06s0,0,0,0m.22.25h0a.31.31,0,0,1,0-.08l.07.08h0m.63.63h0m0-.14-.06,0a.77.77,0,0,1,.15.06s0,.06,0,.07a.17.17,0,0,1-.11-.08.28.28,0,0,0-.11-.11s0,.05-.06,0a.26.26,0,0,1-.09-.16,2.73,2.73,0,0,0,.43.26h0a.47.47,0,0,0-.16-.07.17.17,0,0,1,.08.06m.82.24h0s0,0,0,0m2.4-3.63h0s0,0,0,0"/><path class="cls-1" d="M20.26,10.17s0-.13,0-.18h0a.37.37,0,0,1,0-.15.79.79,0,0,1,0-.13l0,.05s0-.05,0-.09,0,0,0,0a1.57,1.57,0,0,0,0-.24h0s0-.08,0-.12,0,0,0-.06a.28.28,0,0,0-.06-.14s0-.05,0-.07,0,0-.06,0V9s0,0,0,0,0-.12,0-.16l0,0v0c0-.05,0,0,0,0s-.07-.09-.13-.11-.08-.13,0-.12,0,0-.07,0a.37.37,0,0,1,.07.19l-.05,0s.08.09.08.13,0-.06,0-.06h0A.3.3,0,0,1,20,9s0,.07,0,0V9s0,0,0,0l-.12-.22,0,0,0,0h0a.91.91,0,0,0-.11-.16s0-.11,0-.11,0,0-.07-.06.06,0,.08,0a.1.1,0,0,1,0-.07c-.06,0-.14,0-.12.07a.11.11,0,0,1,.06.08,2.49,2.49,0,0,0-.94-.73h-.06a2.57,2.57,0,0,0-2.53,1.36l-.06,0a3.21,3.21,0,0,1,.88-1.49h0a1.28,1.28,0,0,0-.45.23s0,0,0,0-.06,0-.09,0L16.29,8s0,0,0,0-.23.24-.35.33,0,0,0,.06,0,0-.06,0-.07.07-.06,0-.12.17,0,.2-.06,0,0,0-.08.12-.13.17-.05.1-.09.19a.6.6,0,0,0-.05.23c0-.06,0,0,0,0v0l0,.1v0s0,0,0,.05,0,.07-.06.11v0s.05-.12.05,0a.12.12,0,0,0-.05.1c0-.06,0-.05,0,0s0,.06,0,.09l0,0a2.81,2.81,0,0,0,.05.76s0,.17.09.14h0c0-.06,0,0,.05.06s0,.1-.07,0v.1c0,.05,0,.11,0,.18a1.27,1.27,0,0,1,.12.23v0c0,.14.18.25.19.28h0a.36.36,0,0,0,.14.23s0,0,0,0a.23.23,0,0,0,.09.14h0l.11.11s.07,0,.11.07.1.11.15.08.1.11.13.14h0c0,.07.15.06.21.09s0,0,0,0,.2.13.24.12,0,0,.05,0,0,.08.09.08,0,0,0,0,.15-.08.18-.05h0c.08,0,.2,0,.21,0v0c.14,0,.06,0,.2,0h0c.06,0,.1,0,.13,0H18s.19,0,.22,0,0,0,0,0a.07.07,0,0,0,.11,0c0,.05,0,.1.14.07s0,0,0,0h0s0,0,0,0,.12,0,.22,0,0,0,0,0,.11-.1.1,0,.2-.11.29-.17a.54.54,0,0,0,.19-.15s.06,0,.09-.06h0c.1,0,.07,0,.18-.08-.05,0,0,0,0-.06l.09,0v0a.19.19,0,0,0,.07-.08s0,0,0,0,.13-.08.16-.09.07-.06.05-.11l0,0s0,0,0,0h0v0l.05-.06v0a.06.06,0,0,1,0,0h0a.09.09,0,0,1,0-.06.37.37,0,0,1,.09-.16.24.24,0,0,0,.07-.18s0,0,0,0,0-.21.08-.26h0a.56.56,0,0,0,.07-.19h0a.81.81,0,0,1,0-.19c0-.06,0-.13,0-.15m-4.9-.8h0s0,0,0,0m2.88,2.94h0s0,0,0,0h-.1l0,0h0l.05,0a0,0,0,0,1,0,0m1.07-.57.05,0s0,0,0,0h-.09m.32-3.17h0l0,0,0,0m.49.63s0,0,0,0h0M19.94,11v0a.26.26,0,0,1-.15.09.75.75,0,0,0,.07-.12l.13-.06-.06.06m.08-.4s0-.06,0-.08h0a.22.22,0,0,1,0-.08h0a1.41,1.41,0,0,1,0,.18H20m.07-.42s0-.06,0-.09h0l0,0,0,.06m0-.45a2.73,2.73,0,0,0-.1-.48h0a.64.64,0,0,0,.07.16s0-.07,0-.1l0,.06c0-.05,0-.08-.06-.15s0-.06.08,0a.14.14,0,0,1,0,.13.28.28,0,0,0,0,.16s0,0,0,.05a.24.24,0,0,1-.06.17"/><path class="cls-1" d="M10.76,10.14a1.71,1.71,0,0,0,.07-.18s0,0-.06,0a.35.35,0,0,1,.05-.08h0a.17.17,0,0,0,0-.1h0c.05,0,0-.16.05-.18s0-.09-.05-.11a.43.43,0,0,0,0-.05s0,0,0,0h0s0-.06,0-.08l0,0,0,0h0a.08.08,0,0,1,0-.07.34.34,0,0,1-.05-.17.3.3,0,0,0-.08-.18s0,0,0,.05-.12-.17-.14-.24h0a.68.68,0,0,0-.09-.17l0,0-.1-.16c0-.05-.08-.1-.12-.1s-.09-.08-.13-.12h0A.46.46,0,0,1,10,8l-.12-.07h.06l-.08,0,0,0a2.31,2.31,0,0,0-.19-.14h0l-.09-.07s0,0-.05,0a.19.19,0,0,0-.13,0l-.07,0c.07,0,0,0,0,0l0,0s0,0,0,0-.11,0-.13-.09h0c-.06,0,0,0,0,0s-.11,0-.17,0-.15,0-.1-.08,0,0-.08,0A.37.37,0,0,1,9,7.53H8.89c0,.06.12,0,.15,0s-.07,0-.07,0l0,0a.31.31,0,0,1,.18.09c-.05,0,.05,0,0,0h0s0,0,0,0L8.9,7.61h0l-.2,0s-.09-.06,0-.08,0,0-.1,0,.06,0,.08,0-.06,0-.06,0-.09.11,0,.13a.08.08,0,0,1,.1,0,2.34,2.34,0,0,0-2,.66l-.08.11c0-.05,0-.09,0-.08l0,0s-.1.1-.14.1a.59.59,0,0,0-.06.14s0,0,0,0,0,.05,0,0a5.12,5.12,0,0,1-.22.47A1.4,1.4,0,0,0,6,9.4s0,0,0,0,0,.06,0,.09l0,.1s0,0,0,0c0,.18,0,.34,0,.48s0,0,.05,0,0,0,0,.06,0,.09,0,.07.05.21.12.16,0,.07,0,0a.53.53,0,0,1,0,.21s0,.11.08.19a.49.49,0,0,0,.13.2c-.06,0,0,0,0,.06l0,0,.06.09v0s0,0,0,0a.15.15,0,0,1,0,.12h0l0,0s0-.12,0,0,0,.09,0,.1,0-.06,0,0l0,.07h0a2.74,2.74,0,0,0,.58.49s.15.1.16,0h0s0,0,.08,0,.06.09-.06,0l0,0h.29A2.57,2.57,0,0,0,10,10.69l.06,0a3.12,3.12,0,0,1-.92,1.53s.06-.05.09-.05,0,0,0,0,.23-.05.25-.08,0,0,0-.07,0,.08.11,0h0s.05-.17.1-.17v0c.08,0,.11-.17.16-.13v0c.08-.12.05,0,.14-.15h0s0-.08.11-.08l0,0a.63.63,0,0,0,.11-.12.08.08,0,0,0,0,0s.13-.14.15-.17,0,0,0,0,.06,0,.07-.09.09,0,.15,0l0,0s0,0,0,0,0,0,0,0,.07-.1.12-.18,0,0,0,0,0-.14.06-.08a2.25,2.25,0,0,1,.08-.33.54.54,0,0,0,0-.24s0-.07,0-.1Zm-4.52,1s0,0,0,0ZM8.65,7.57h0m.8.09h0m-.07.13h0a.47.47,0,0,0,.16.07.24.24,0,0,1-.08-.06l.06,0s-.09,0-.15-.06,0-.06,0-.07.09,0,.11.08a.26.26,0,0,0,.12.11s0,0,.06,0a.24.24,0,0,1,.08.16,2.26,2.26,0,0,0-.42-.26m.68.49h0s0,0,0,.07,0,0-.07-.08m.25,3v0h0l0,0h0l0,0s0,0,0,0h0l-.07.07m.06-2.56,0-.07,0,0,0,0-.05-.07h0s.13.1.14.1a.22.22,0,0,1-.07.06m.23.52a.5.5,0,0,0,0-.13,1.09,1.09,0,0,1,0-.14.28.28,0,0,0,0,.09h0a.35.35,0,0,1,0,.17m.1.79s0,0,0-.07h0L10.7,10"/><path class="cls-1" d="M15.49,2.5a.2.2,0,0,0,0-.16h0a.76.76,0,0,0,0-.15s0-.06,0-.13,0-.15-.05-.16a.4.4,0,0,0,0-.19h0c0-.07-.06-.15-.08-.21s0,0,0,0-.05-.23-.08-.25,0,0-.06,0,.07,0,0-.12,0,0,0,0-.16-.06-.17-.1h0c0-.08-.17-.11-.13-.16h0c-.11-.09,0-.06-.14-.14h0s-.08,0-.07-.1h0L14.65.53a.08.08,0,0,0,0,0s-.14-.13-.17-.14,0,0,0,0,0-.07-.08-.07a.22.22,0,0,0,0-.08l-.43,0A2.58,2.58,0,0,0,11.4,1.58l-.05,0A3.15,3.15,0,0,1,12.16.14l-.05,0h.07l0,0h0L12.32,0a.45.45,0,0,1-.11,0A.3.3,0,0,0,12,.11s0,0,.05,0-.17.12-.23.13v0a.6.6,0,0,0-.18.09l0,0-.15.11c-.06,0-.1.08-.1.12s-.09.09-.13.12v0a.47.47,0,0,1-.11.1.52.52,0,0,1-.07.11.43.43,0,0,0,0,0,.29.29,0,0,0,0,.08,0,0,0,0,0,0,0,1.33,1.33,0,0,0-.14.19h0a.39.39,0,0,0-.08.1s0,0,0,0a.29.29,0,0,0-.05.14l0,.07c.05-.07,0,0,.05,0s0,0,0,0,0,0,0,0,0,.12-.09.14v0h0a0,0,0,0,1,0,0c0,.06,0,0,0,0s0,.11,0,.17,0,.15-.07.1,0,0,0,.07a.31.31,0,0,1,.09-.18v.06s0-.13,0-.16,0,.07,0,.08l0,0a.44.44,0,0,1,.09-.18c0,.06.05-.05.06,0l0,0s0,0,0,0a2.17,2.17,0,0,0-.07.24v0a1.29,1.29,0,0,0,0,.19s-.07.09-.09.06,0,0,0,.1,0-.06,0-.08,0,0,0,0,.11.09.13,0a.11.11,0,0,1,0-.1,2.35,2.35,0,0,0,.66,2l.11.09s-.09,0-.08,0l0,0s.1.1.1.14l.14.06s0,0,0,0,.05,0,0,0a3.38,3.38,0,0,1,.47.22,1.44,1.44,0,0,0,.49.14s0,0,0,0,.06,0,.09,0l.1,0s0,0,0,0c.17,0,.33,0,.47,0s0,0,0,0,0,0,.05,0,.09,0,.07,0,.21,0,.17-.12.06,0,0,0a.86.86,0,0,1,.21,0l.2-.07a.51.51,0,0,0,.19-.13c0,.06,0,0,.06,0l0,.05.09-.06,0,0s0,0,0,0a.24.24,0,0,1,.12,0h0l0,0s-.13,0,0,0,.09,0,.1,0-.06,0-.05,0l.07-.06v0a2.46,2.46,0,0,0,.49-.57s.1-.16,0-.17v0c0,.05,0,0,0-.08s.09-.06,0,.06l.07-.08c.06,0,.09-.06.11-.14a1,1,0,0,1,.07-.24h0c.08-.13.05-.31.07-.33l0,0a.34.34,0,0,0,0-.26s0,0,0,0M11.81.29s0,0,0,.06l-.07,0,0,0,0,0-.06,0s0,0,0,0a.42.42,0,0,1,.11-.14M11.52.6l-.07.06h0a0,0,0,0,0,0,0l.07,0m-.7.68h0s0,0,0,0m-.09.8h0l0,0s0,0,0,0M11,1.35h0A.73.73,0,0,0,11,1.18a.1.1,0,0,1-.06.07s0,0,0-.06,0,.1-.06.16-.06,0-.07-.05a.17.17,0,0,1,.08-.12A.28.28,0,0,0,11,1.07s0,0,0-.06a.24.24,0,0,1,.16-.08,2.26,2.26,0,0,0-.26.42m3.39,3.14s0,0,0,0Zm0-4.07v0l0,0v0l0,0s0,0,0,0a0,0,0,0,1,0,0s0,0,0,0l.07.08h-.05"/><path class="cls-1" d="M15.39,16.88s0-.07,0,0a4.68,4.68,0,0,1-.18-.48,1.39,1.39,0,0,0-.24-.45s0,0,0,0,0-.05,0-.09l-.09,0s0,0,0,0-.26-.23-.34-.35,0,0-.07,0,0,0,0-.06-.07-.06,0-.06-.18-.11-.2,0,0-.06,0-.06a.74.74,0,0,1-.17-.12,1.27,1.27,0,0,1-.2-.09.39.39,0,0,0-.22,0c.06,0,0,0,0,0l.05,0-.1,0h0s0,0,0,0-.07,0-.11-.06h0s.12.05,0,.05-.06-.06-.1,0,.05,0,0,0h-.09l0,0a2.83,2.83,0,0,0-.76.07s-.17,0-.14.09h0c.06,0,0,.05-.05.05s-.11,0,0-.07h-.1s-.11,0-.18,0a1.64,1.64,0,0,1-.22.12h0c-.14,0-.24.18-.28.18v0a.35.35,0,0,0-.23.15s0,0,0,0a.23.23,0,0,0-.14.09h0l-.11.11s0,.07-.07.12-.1.1-.08.14a.6.6,0,0,0-.13.14h0c-.07,0-.06.16-.09.22s0,0,0,0-.13.2-.12.24,0,0,0,.05-.07,0-.07.09,0,0,0,0,.07.14.05.18v0c0,.08,0,.2,0,.21h0c0,.14,0,.06,0,.2h0c0,.06,0,.1,0,.13v0a1,1,0,0,0,0,.17s0,.05,0,.06,0,.19,0,.22,0,0,0,0,0,.07,0,.11a.11.11,0,0,0-.07.14s0,0,0,0,0,0,0,0,0,0,0,0,0,.12,0,.22,0,0,0,0,.1.11,0,.1.11.19.17.29a.59.59,0,0,0,.16.18s0,.07.05.09h0c0,.1,0,.06.08.17,0-.05,0,0,.06,0s0,.06,0,.09h0a.27.27,0,0,0,.08.07s0,0,0,0,.09.14.09.17.07.07.12,0a.05.05,0,0,0,0,0s0,0,0,0h0l0,0,.06.05.23,0a.43.43,0,0,0,0-.07l.12.06h.11a2.56,2.56,0,0,0,2.53-1.35h.06A3.29,3.29,0,0,1,14,19.35l.18-.09,0,0,0,0h0l.17-.11s.11,0,.1,0,0,0,.06-.08,0,.06,0,.09.06,0,.07,0,0-.15-.07-.13a.07.07,0,0,1-.08.06,2.34,2.34,0,0,0,.91-1.85c0-.05,0-.09,0-.14s.06.07.09,0v0s0-.14,0-.16,0-.1-.05-.14,0,0,0,0m-4.76.89v0l0,0v-.1l0,0v0h0s0,0,0,.05,0,0,0,0m.59,1.15s0-.05,0-.08l0,.05s0,0,0,0m2.31-4.06h0s0,0,0,0m.83,4.28,0,0h0Z"/><path class="cls-1" d="M4.89,17.08s0-.06,0,0c-.07-.16-.11-.32-.17-.49a1.34,1.34,0,0,0-.24-.44s0,0,0,0,0-.06,0-.09l-.09,0s0,0,0,0-.26-.23-.34-.34,0,0-.07,0,0,0,0-.06-.07-.07,0-.07-.18-.11-.2,0,0-.06,0,0l-.11-.08H3.31A2.57,2.57,0,0,0,.78,16.66H.73a3,3,0,0,1,.92-1.54.2.2,0,0,0-.14,0,1.27,1.27,0,0,1-.23.12h0c-.14,0-.25.18-.28.19v0a.33.33,0,0,0-.23.14s0,0,0,0a.19.19,0,0,0-.14.09h0l-.11.11s0,.06-.07.11-.1.11-.08.15a.6.6,0,0,0-.13.14h0c-.07,0-.06.16-.09.21s0,0,0,0-.13.2-.12.23,0,0,0,.06-.07,0-.07.09,0,0,0,0S.1,17,.08,17v0c0,.08,0,.2,0,.2H0c0,.15,0,.06,0,.21H0c0,.06,0,.09,0,.12v0a1,1,0,0,0,0,.17.15.15,0,0,0,0,.06s0,.18,0,.22,0,0,0,0,0,.06,0,.11a.11.11,0,0,0-.07.14s0,0,0,0,0,0,0,.05,0,0,0,0,0,.11.05.21,0,0,0,0,.1.11,0,.1.11.19.17.28a.55.55,0,0,0,.16.19s0,.06.05.09l0,0a.91.91,0,0,0,.08.18c0-.05,0-.05.06,0l0,.09,0,0a.13.13,0,0,0,.08.07s0,0,0,0,.09.14.09.17.07.06.12,0a.08.08,0,0,0,0,0s0,0,0,0h0l0,0,.07.05h0a.09.09,0,0,1,.06,0,.43.43,0,0,1,.16.09.24.24,0,0,0,.18.07s-.05,0-.05,0,.2,0,.26.07v0l.19.06v0l.18,0a.27.27,0,0,0,.16,0s.12,0,.17,0v0a.37.37,0,0,1,.15,0l.13,0,0,0,.09,0h0a1.6,1.6,0,0,0,.23,0h.12s0,0,.06,0a.39.39,0,0,0,.14-.05s.05,0,.07,0,0,0,0-.06h.06s0,0,0,0,.12,0,.16,0l0,0h0s0,0,0,0,.09-.06.11-.13c0,.09.13-.08.12,0s0,0,0-.07-.13.06-.19.08l0,0c-.06,0-.1.07-.14.08s.07,0,.06-.05v0a.3.3,0,0,1-.19.06s-.07,0-.05,0h0s0,0,0,0a1.19,1.19,0,0,0,.22-.12s0,0,0,0l0,0v0l.17-.11s.11,0,.1,0,0,0,.06-.08,0,.07,0,.09.06,0,.07,0,0-.14-.07-.12a.09.09,0,0,1-.08.06,2.35,2.35,0,0,0,.91-1.85c0-.05,0-.09,0-.14s.06.06.09,0v0s0-.14,0-.17a.69.69,0,0,0-.05-.13s0,0,0,0M.12,18v0s0,0,0,0v-.1l0,0v0h0a.06.06,0,0,0,0,0s0,0,0,0m.59,1.15s0-.06,0-.09l.05.06,0,0m.74.54h0a.24.24,0,0,1-.09-.15l.12.07a.67.67,0,0,0,.06.12.18.18,0,0,1-.07,0M2,19.8l-.18,0a.28.28,0,0,1,0-.08l.08,0v0H2s0,0,0,0m.33,0s0,0,0,0,0,0-.06,0h.08m.75,0a.28.28,0,0,0-.16,0s0,0-.05,0a.23.23,0,0,1-.17-.06,2.57,2.57,0,0,0,.48-.11h0c-.08,0-.15.05-.16.07a.15.15,0,0,1,.09,0l0,0s.07-.05.15-.06,0,0,0,.08a.14.14,0,0,1-.13,0m.15,0h0m.59-.48,0,0h0Z"/><path class="cls-2" d="M37.51,12.12c0-.11.16-.09.16,0,.08,1.43.79,2.34,2.06,2.34a1.77,1.77,0,0,0,2-1.74c0-1.23-.78-1.75-2.13-2.44a3,3,0,0,1-2-2.82,2.36,2.36,0,0,1,2.66-2.28,4.55,4.55,0,0,1,1.36.19.7.7,0,0,1,.52.85c0,.21-.11.78-.14,1.09,0,.12-.16.08-.16,0a1.76,1.76,0,0,0-1.76-1.77,1.51,1.51,0,0,0-1.68,1.6A2.42,2.42,0,0,0,40,9.26c1.84.93,2.6,1.71,2.55,3.12s-1.27,2.43-2.93,2.43A4,4,0,0,1,38,14.5a1,1,0,0,1-.6-.8,5.45,5.45,0,0,1,.13-1.58"/><path class="cls-2" d="M48.72,12.93c0,1.26.16,1.42,1,1.5a.08.08,0,1,1,0,.16c-.53,0-1.14,0-1.57,0s-1,0-1.52,0a.08.08,0,1,1,0-.16c.72-.11.91-.19.94-1.5,0-.5,0-2.16,0-2.67,0-1.15,0-2.57,0-3.08,0-1.54-.28-1.54-.94-1.63-.11,0-.14-.16,0-.16.4,0,1.09,0,1.52,0l1.35,0c.12,0,.1.15,0,.16-.64.12-.81.14-.84,1.63,0,.45,0,2.05,0,3.07,0,.52,0,2.18,0,2.68"/><path class="cls-2" d="M57,10.46c-.59.91-1.38,2.28-1.79,3-.33.61-.34.83.44.92.11,0,.14.16,0,.16l-1.32,0-1.39,0c-.1,0-.1-.15,0-.16a1.65,1.65,0,0,0,1.38-.86c.75-1.05,1.66-2.4,2.4-3.57C56,8.75,55.1,7.36,54.45,6.38c-.41-.62-.6-.77-1.18-.83-.11,0-.14-.16,0-.16.46,0,1,0,1.39,0s1,0,1.51,0c.13,0,.1.16,0,.16-.67.08-.67.3-.41.77.45.85,1,1.82,1.61,2.85.55-.89,1.07-1.8,1.48-2.63s.33-.9-.2-1c-.11,0-.14-.16,0-.16l1.27,0,1.11,0a.08.08,0,1,1,0,.16c-.43.06-.71.09-1.24.86C59,7.54,58.23,8.66,57.67,9.58c.74,1.19,1.89,3,2.59,4,.43.6.71.78,1.2.83a.08.08,0,1,1,0,.16c-.47,0-1,0-1.39,0s-.88,0-1.41,0a.08.08,0,1,1,0-.16c.58-.06.56-.3.3-.77-.39-.7-1.25-2.05-1.93-3.2"/><path class="cls-2" d="M70.85,12.12c0-.11.16-.09.16,0,.08,1.43.79,2.34,2.06,2.34a1.77,1.77,0,0,0,2-1.74c0-1.23-.78-1.75-2.13-2.44a3,3,0,0,1-2-2.82A2.36,2.36,0,0,1,73.6,5.18,4.58,4.58,0,0,1,75,5.37a.7.7,0,0,1,.52.85c0,.21-.11.78-.14,1.09,0,.12-.16.08-.16,0a1.76,1.76,0,0,0-1.76-1.77,1.51,1.51,0,0,0-1.68,1.6,2.42,2.42,0,0,0,1.63,2.12c1.84.93,2.6,1.71,2.55,3.12S74.66,14.81,73,14.81a4,4,0,0,1-1.68-.31,1,1,0,0,1-.6-.8,5.45,5.45,0,0,1,.13-1.58"/><path class="cls-2" d="M82,13.15c0,.89.21.94,1,.95s.88,0,1.25,0c1.24,0,1.48-.81,1.66-1.75,0-.1.18-.12.18,0A12.26,12.26,0,0,1,86,14.16c-.06.33-.31.45-.87.45-.74,0-2.09-.06-3.5-.06l-1.68,0a.08.08,0,0,1,0-.16c.79-.09,1-.23,1-1.5,0-1,0-2.07,0-3.13,0-.9,0-1.7,0-2.63,0-1.23,0-1.5-1-1.62-.1,0-.13-.16,0-.16.49,0,1.25,0,1.73,0,.94,0,2.33,0,3.12,0,.43,0,.66,0,.63.37s-.09.92-.16,1.42c0,.11-.19.11-.18,0,0-.74-.25-1.23-1-1.29a16.88,16.88,0,0,0-2,0c0,1.23,0,2.35,0,3.7a22.92,22.92,0,0,0,2.48,0c.43,0,.41-.16.52-.15s0,.07,0,.37a4.82,4.82,0,0,1-.15.9c0,.11-.17.11-.17,0,0-.59-.37-.59-1-.62H82c0,.73,0,2.18,0,3.11"/><path class="cls-2" d="M98.77,14.43c0,.27,0,.31,0,.32s-.12,0-.33-.25c-1-1.08-1.94-2.16-3.75-4-1.42-1.43-2.56-2.62-3.18-3.2,0,1.15,0,4,.13,6.05,0,.59.28,1,1.19,1.07.1,0,.13.16,0,.16l-1.57,0-1.17,0a.08.08,0,1,1,0-.16c.53-.11.72-.24.78-1,.12-1.64.15-4,.15-5.21,0-.8,0-1.78,0-2.64,0-.22,0-.28,0-.3s.11,0,.31.24c1.1,1.22,2.3,2.49,3.78,4,1.29,1.29,2.37,2.4,3.18,3.14,0-1.75,0-3.65-.08-5.72-.06-1.08-.18-1.24-1-1.36a.08.08,0,1,1,0-.16l1.35,0,1.11,0c.12,0,.09.16,0,.16-.56.09-.71.49-.74,1.17-.09,2.29-.15,4.46-.15,7.71"/><path class="cls-2" d="M104.16,12.12c0-.11.16-.09.16,0,.08,1.43.79,2.34,2.06,2.34a1.77,1.77,0,0,0,2-1.74c0-1.23-.78-1.75-2.13-2.44a3,3,0,0,1-2-2.82,2.36,2.36,0,0,1,2.65-2.28,4.58,4.58,0,0,1,1.37.19.7.7,0,0,1,.52.85c0,.21-.11.78-.14,1.09,0,.12-.16.08-.16,0a1.76,1.76,0,0,0-1.76-1.77,1.51,1.51,0,0,0-1.68,1.6,2.42,2.42,0,0,0,1.63,2.12c1.84.93,2.6,1.71,2.55,3.12s-1.27,2.43-2.93,2.43a4,4,0,0,1-1.68-.31,1,1,0,0,1-.6-.8,5.45,5.45,0,0,1,.13-1.58"/><path class="cls-2" d="M115.34,13.15c0,.89.2.94,1,.95s.88,0,1.25,0c1.24,0,1.48-.81,1.66-1.75,0-.1.18-.12.18,0a12.26,12.26,0,0,1-.08,1.81c-.06.33-.31.45-.87.45-.74,0-2.09-.06-3.5-.06l-1.67,0a.08.08,0,1,1,0-.16c.78-.09.94-.23,1-1.5,0-1,0-2.07,0-3.13,0-.9,0-1.7,0-2.63,0-1.23,0-1.5-1-1.62-.1,0-.13-.16,0-.16.49,0,1.25,0,1.74,0,.93,0,2.32,0,3.11,0,.43,0,.66,0,.63.37s-.08.92-.16,1.42c0,.11-.19.11-.18,0,0-.74-.25-1.23-1-1.29a17.1,17.1,0,0,0-2.05,0c0,1.23,0,2.35,0,3.7a22.73,22.73,0,0,0,2.47,0c.43,0,.42-.16.52-.15s0,.07,0,.37a5.85,5.85,0,0,1-.15.9c0,.11-.18.11-.18,0,0-.59-.37-.59-1-.62h-1.67c0,.73,0,2.18,0,3.11"/><path class="cls-2" d="M123.59,12.11c0-.1.17-.09.17,0,.07,1.44.78,2.34,2.06,2.34a1.77,1.77,0,0,0,2-1.73c0-1.23-.79-1.75-2.14-2.45a3,3,0,0,1-2-2.81,2.35,2.35,0,0,1,2.65-2.29,4.38,4.38,0,0,1,1.36.2.68.68,0,0,1,.52.84c0,.21-.1.79-.13,1.1a.08.08,0,0,1-.16,0,1.77,1.77,0,0,0-1.77-1.78,1.5,1.5,0,0,0-1.67,1.6,2.41,2.41,0,0,0,1.63,2.12c1.83.93,2.59,1.72,2.55,3.13s-1.28,2.43-2.94,2.43a4.11,4.11,0,0,1-1.67-.31,1,1,0,0,1-.61-.81,5.86,5.86,0,0,1,.13-1.58"/><path class="cls-3" d="M139,9.59a24,24,0,0,0,2.52,0c.43,0,.44-.22.54-.18s0,.37-.07.61-.1.7-.1.7-.18.1-.17,0c0-.59-.38-.59-1-.62-.27,0-1.25,0-1.73,0,0,1.15,0,2.37,0,3.12,0,1,.37,1.15,1,1.2a.08.08,0,1,1,0,.16c-.51,0-1.14,0-1.61,0s-1,0-1.47,0c-.1,0-.1-.15,0-.16.69-.08.91-.22.94-1.31,0-.5,0-2.36,0-2.87,0-1.15,0-2.58,0-3.09,0-1.21-.06-1.51-1-1.63a.08.08,0,1,1,0-.16c.48,0,1.29,0,1.53,0,1.44,0,2,0,3.31,0,.72,0,.73,0,.64.77,0,.4-.09.83-.13,1.13,0,.12-.2.09-.18,0,0-.51,0-1.26-1-1.37A18.57,18.57,0,0,0,139,5.81C139,6.39,139,8.52,139,9.59Z"/><path class="cls-3" d="M149.87,14.77c-2.84,0-4.81-1.54-4.94-4.61a4.82,4.82,0,0,1,5.14-5,4.53,4.53,0,0,1,4.7,4.65A4.83,4.83,0,0,1,149.87,14.77Zm-3.73-4.84c0,2.61,1.45,4.45,3.8,4.45a3.62,3.62,0,0,0,3.67-4c0-2.43-1.25-4.94-4.09-4.87C147.24,5.62,146.14,7.39,146.14,9.93Z"/><path class="cls-3" d="M158.49,9.68c0-1.1,0-1.85,0-3,0-.83-.26-1.11-1-1.19a.08.08,0,1,1,0-.16c.35,0,1.09,0,1.46,0s1.23-.07,1.86-.06c2.59.06,2.94,1.55,2.94,2.44A2.76,2.76,0,0,1,162,10.28c.23.36.76,1.16,1.41,2A10.26,10.26,0,0,0,165.1,14a2.06,2.06,0,0,0,1.07.36c.12,0,.14.16,0,.16a7.25,7.25,0,0,1-1.39,0c-1.06-.18-1.46-.61-2.66-2.32-.46-.65-.8-1.17-1.1-1.66a6.43,6.43,0,0,1-1.52,0c0,1,0,1.82,0,2.25.05,1.4.18,1.52,1,1.61.12,0,.15.16,0,.16-.56,0-1.25-.07-1.54-.07s-1,.06-1.53.07c-.14,0-.11-.16,0-.16.77-.11.95-.14,1-1.59C158.51,11.74,158.49,10.73,158.49,9.68Zm2.17-4a8.78,8.78,0,0,0-1.14,0c0,.89,0,1.69,0,4.35a6.51,6.51,0,0,0,1.8.06c.95-.09,1.35-1.07,1.35-2A2.09,2.09,0,0,0,160.66,5.72Z"/><path class="cls-3" d="M175.05,7.33a.08.08,0,0,1-.16,0c0-1.15-.45-1.4-1.16-1.44-.9-.06-1.36,0-2.23,0,0,.18,0,.82,0,1.19,0,2.14,0,4.61,0,5.85s.27,1.43,1.14,1.52c.11,0,.14.16,0,.16-.43,0-1.17,0-1.66,0l-1.6,0a.08.08,0,1,1,0-.16c.56-.11,1-.06,1-1.43s0-4.42,0-6c0-.32,0-1-.05-1.15-.71,0-1.52,0-2,0-1.17.06-1.35.34-1.47,1.42,0,.09-.16.09-.16,0,0-.26,0-1.23,0-1.44,0-.52.06-.65.13-.65a2.26,2.26,0,0,0,.44.12c.52,0,1.61.1,3.72.1,1.74,0,3.1-.07,3.67-.1.2,0,.31-.14.38-.14s.08.09.08.46S175.08,7,175.05,7.33Z"/><path class="cls-3" d="M182.9,7.12c0-1.17-.11-1.56-1.11-1.62-.08,0-.1-.16,0-.16.36,0,1,0,1.43,0s1.13,0,1.78,0c1.74.06,2.47,1,2.47,2a2.28,2.28,0,0,1-1.58,2.19c1.68.28,2.44,1.21,2.47,2.45,0,1.72-1.35,2.61-3,2.61-.68,0-1.57-.1-2-.1l-1.4,0c-.12,0-.09-.16,0-.16.86-.06.94-.36,1-1.61,0-.71,0-2.06,0-2.57C182.92,9.17,182.92,8.21,182.9,7.12Zm1.66-1.43c-.6,0-.6,0-.6.21,0,.48,0,2.81,0,3.64.18,0,.47,0,.7,0a2.16,2.16,0,0,0,.84-.11,1.58,1.58,0,0,0,.91-1.53C186.47,6.6,185.88,5.75,184.56,5.69Zm.09,4.22H184c0,.69,0,1.74,0,2.48,0,.42,0,.94,0,1.21s0,.35.27.47a2.42,2.42,0,0,0,1.13.19,1.8,1.8,0,0,0,1.9-1.9A2.36,2.36,0,0,0,184.65,9.91Z"/><path class="cls-3" d="M194.83,5.43c.09-.23.12-.25.18-.25s.09,0,.17.25c.41,1.23,1.82,5.06,2.95,7.88.34.85.6,1,1.28,1.09a.08.08,0,1,1,0,.16c-.57,0-1,0-1.61,0-.35,0-1,0-1.3,0a.08.08,0,1,1,0-.16c.56-.06.67-.22.46-.89s-.55-1.67-.88-2.54h-2.91c-.22.59-.65,1.71-.88,2.49s.15.88.64.94a.08.08,0,1,1,0,.16l-1.33,0c-.4,0-.87,0-1.37,0-.12,0-.09-.16,0-.16a1.39,1.39,0,0,0,1.19-.83c.43-.79.93-2.07,1.42-3.27Zm-.16,1.69c-.18.43-.43,1-.68,1.66l-.67,1.74c.31,0,.73,0,1.2,0s1.18,0,1.41,0C195.55,9.39,195.15,8.31,194.67,7.12Z"/><path class="cls-3" d="M202.25,9.68c0-1.1,0-1.85,0-3,0-.83-.27-1.11-1.05-1.19a.08.08,0,1,1,0-.16c.35,0,1.09,0,1.46,0s1.23-.07,1.86-.06c2.6.06,2.94,1.55,2.94,2.44a2.77,2.77,0,0,1-1.66,2.52,20.71,20.71,0,0,0,1.41,2A9.91,9.91,0,0,0,208.85,14a2.06,2.06,0,0,0,1.07.36c.12,0,.14.16,0,.16a7.25,7.25,0,0,1-1.39,0c-1.06-.18-1.46-.61-2.66-2.32-.46-.65-.8-1.17-1.1-1.66a6.43,6.43,0,0,1-1.52,0c0,1,0,1.82,0,2.25.05,1.4.18,1.52,1,1.61.12,0,.15.16,0,.16-.56,0-1.24-.07-1.54-.07s-1,.06-1.53.07c-.14,0-.11-.16,0-.16.77-.11.95-.14,1-1.59C202.26,11.74,202.25,10.73,202.25,9.68Zm2.16-4a8.77,8.77,0,0,0-1.14,0c0,.89,0,1.69,0,4.35a6.51,6.51,0,0,0,1.8.06c.95-.09,1.35-1.07,1.35-2A2.09,2.09,0,0,0,204.41,5.72Z"/><path class="cls-3" d="M218.25,10.79c-.46-1.2-1-2.7-1.26-3.28l-1.13,2.85c-.46,1.17-1.05,2.69-1.59,4.16-.06.18-.09.22-.16.22s-.1,0-.16-.22c-.51-1.55-1-3-1.61-4.89-.43-1.34-.89-2.69-1.13-3.3s-.46-.77-.93-.83c-.11,0-.12-.16,0-.16.37,0,1,0,1.39,0l1.45,0a.08.08,0,1,1,0,.16c-.64.08-.82.16-.67.77.23,1,.52,1.88.87,3.08s.75,2.33,1.07,3.28c.33-.83.82-2,1.28-3.24.83-2.18,1.13-3,1.41-3.8.08-.21.11-.25.18-.25s.09,0,.15.24c.37,1.14.84,2.4,1.35,3.75.44,1.19,1,2.44,1.31,3.33.29-.82.69-2.08,1.08-3.34.3-1,.55-1.86.74-2.75s.11-1-.44-1.07a.08.08,0,1,1,0-.16l1.19,0,1.18,0c.14,0,.12.16,0,.16-.68.08-.87.54-1,.94-.31.74-.81,2.14-1.17,3.21L220,14.53c-.06.18-.11.21-.17.21s-.1,0-.16-.21C219.22,13.33,218.8,12.23,218.25,10.79Z"/><path class="cls-3" d="M229.05,5.43c.09-.23.12-.25.18-.25s.09,0,.16.25c.42,1.23,1.83,5.06,3,7.88.34.85.59,1,1.28,1.09a.08.08,0,0,1,0,.16c-.57,0-1,0-1.61,0-.36,0-1,0-1.31,0a.08.08,0,0,1,0-.16c.57-.06.67-.22.46-.89s-.54-1.67-.87-2.54h-2.91c-.23.59-.66,1.71-.88,2.49s.15.88.64.94a.08.08,0,1,1,0,.16l-1.34,0c-.4,0-.86,0-1.36,0-.12,0-.09-.16,0-.16a1.4,1.4,0,0,0,1.19-.83c.43-.79.93-2.07,1.42-3.27Zm-.16,1.69-.69,1.66-.66,1.74c.31,0,.72,0,1.2,0s1.17,0,1.41,0C229.76,9.39,229.36,8.31,228.89,7.12Z"/><path class="cls-3" d="M236.46,9.68c0-1.1,0-1.85,0-3,0-.83-.27-1.11-1-1.19a.08.08,0,1,1,0-.16c.34,0,1.08,0,1.46,0s1.23-.07,1.85-.06c2.6.06,3,1.55,3,2.44A2.76,2.76,0,0,1,240,10.28a22.75,22.75,0,0,0,1.41,2A10.26,10.26,0,0,0,243.07,14a2.06,2.06,0,0,0,1.07.36.08.08,0,1,1,0,.16,7.37,7.37,0,0,1-1.4,0c-1.05-.18-1.45-.61-2.65-2.32-.47-.65-.81-1.17-1.1-1.66a6.43,6.43,0,0,1-1.52,0c0,1,0,1.82,0,2.25.05,1.4.18,1.52,1,1.61.12,0,.15.16,0,.16-.56,0-1.25-.07-1.55-.07s-1,.06-1.52.07c-.14,0-.11-.16,0-.16.77-.11.95-.14,1-1.59C236.47,11.74,236.46,10.73,236.46,9.68Zm2.17-4a8.79,8.79,0,0,0-1.14,0c0,.89,0,1.69,0,4.35a6.51,6.51,0,0,0,1.8.06c.95-.09,1.35-1.07,1.35-2A2.09,2.09,0,0,0,238.63,5.72Z"/><path class="cls-3" d="M249.25,5.43c.09-.23.12-.25.18-.25s.09,0,.16.25c.42,1.23,1.83,5.06,3,7.88.34.85.59,1,1.27,1.09a.08.08,0,1,1,0,.16c-.56,0-1,0-1.6,0-.36,0-.95,0-1.31,0a.08.08,0,1,1,0-.16c.57-.06.67-.22.46-.89s-.55-1.67-.87-2.54h-2.92c-.22.59-.65,1.71-.87,2.49s.15.88.64.94a.08.08,0,1,1,0,.16l-1.34,0c-.4,0-.86,0-1.37,0-.11,0-.08-.16,0-.16a1.38,1.38,0,0,0,1.19-.83c.43-.79.94-2.07,1.43-3.27Zm-.16,1.69-.69,1.66-.66,1.74c.31,0,.72,0,1.2,0s1.17,0,1.41,0C250,9.39,249.56,8.31,249.09,7.12Z"/></svg>