<svg id="Layer_1" data-name="Layer 1" xmlns="http://www.w3.org/2000/svg" viewBox="0 0 75 65"><defs><style>.cls-1{fill:#5d5e5e;}.cls-2{fill:#6d2158;}</style></defs><title>fortbarwara-footer</title><path class="cls-1" d="M15.25,62.65a8.11,8.11,0,0,0,1,0c.17,0,.17-.09.21-.07s0,.14,0,.24l0,.27s-.07,0-.06,0c0-.23-.15-.23-.39-.24h-.68c0,.45,0,.93,0,1.23s.15.46.41.47c0,0,.05.07,0,.07l-.63,0-.58,0s0-.06,0-.07c.27,0,.36-.09.37-.51,0-.2,0-.94,0-1.13,0-.46,0-1,0-1.22,0-.48,0-.6-.4-.65,0,0,0-.06,0-.06l.6,0c.57,0,.81,0,1.31,0,.28,0,.29,0,.25.3,0,.16,0,.33-.05.45s-.08,0-.07,0c0-.2,0-.5-.39-.54a6.93,6.93,0,0,0-.82,0C15.25,61.39,15.24,62.23,15.25,62.65Z"/><path class="cls-1" d="M19.55,64.7a1.77,1.77,0,0,1-1.95-1.82,1.9,1.9,0,0,1,2-2,1.78,1.78,0,0,1,1.85,1.83A1.91,1.91,0,0,1,19.55,64.7Zm-1.47-1.91c0,1,.57,1.76,1.5,1.76A1.43,1.43,0,0,0,21,63c0-1-.49-2-1.61-1.92C18.51,61.09,18.08,61.79,18.08,62.79Z"/><path class="cls-1" d="M23,62.69c0-.44,0-.73,0-1.18s-.11-.44-.41-.47c-.05,0-.05-.06,0-.06l.57,0c.19,0,.49,0,.74,0,1,0,1.16.61,1.16,1a1.1,1.1,0,0,1-.66,1,9,9,0,0,0,.56.78,3.82,3.82,0,0,0,.66.7.8.8,0,0,0,.42.14,0,0,0,1,1,0,.07,3.45,3.45,0,0,1-.55,0c-.42-.07-.57-.24-1.05-.91-.18-.26-.31-.47-.43-.66a3,3,0,0,1-.6,0c0,.39,0,.72,0,.89,0,.55.07.6.41.63.05,0,.06.07,0,.07l-.61,0-.6,0s0-.07,0-.07c.3,0,.37,0,.39-.63C23,63.5,23,63.1,23,62.69Zm.86-1.56h-.45c0,.36,0,.67,0,1.72a2.34,2.34,0,0,0,.71,0c.37,0,.53-.42.53-.79C24.59,61.55,24.36,61.17,23.81,61.13Z"/><path class="cls-1" d="M29.49,61.76s-.07,0-.07,0c0-.45-.17-.55-.46-.57s-.53,0-.87,0a3.11,3.11,0,0,0,0,.47c0,.84,0,1.81,0,2.3s.1.57.45.6c0,0,.05.07,0,.07l-.66,0-.63,0c-.05,0,0-.07,0-.07.22,0,.4,0,.41-.56s0-1.75,0-2.36c0-.13,0-.38,0-.45h-.79c-.46,0-.53.14-.58.57,0,0-.06,0-.06,0s0-.49,0-.57,0-.26.05-.26a1.18,1.18,0,0,0,.18,0c.2,0,.63,0,1.46,0s1.23,0,1.45,0a.62.62,0,0,0,.15-.06s0,0,0,.19S29.5,61.62,29.49,61.76Z"/><path class="cls-1" d="M32.58,61.68c0-.46,0-.61-.43-.64,0,0,0-.06,0-.06h.56c.23,0,.44,0,.7,0,.69,0,1,.38,1,.8a.9.9,0,0,1-.62.86c.67.11,1,.48,1,1,0,.68-.54,1-1.2,1-.27,0-.62,0-.8,0l-.55,0s0-.07,0-.07c.34,0,.37-.14.39-.63,0-.28,0-.82,0-1C32.59,62.49,32.59,62.11,32.58,61.68Zm.66-.56c-.24,0-.24,0-.24.08s0,1.11,0,1.44h.27a.94.94,0,0,0,.34,0A.65.65,0,0,0,34,62C34,61.48,33.76,61.14,33.24,61.12Zm0,1.66H33c0,.27,0,.69,0,1s0,.37,0,.48,0,.14.11.18a.86.86,0,0,0,.44.08.71.71,0,0,0,.75-.75A.92.92,0,0,0,33.27,62.78Z"/><path class="cls-1" d="M37.29,61c0-.09.05-.1.07-.1s0,0,.07.1c.16.49.72,2,1.16,3.11.14.34.24.4.51.43,0,0,0,.07,0,.07l-.64,0-.51,0c-.05,0,0-.07,0-.07.22,0,.26-.09.18-.35s-.22-.66-.35-1H36.63c-.08.23-.25.67-.34,1s.06.35.25.37.05.07,0,.07l-.53,0-.54,0s0-.07,0-.07a.52.52,0,0,0,.47-.33c.17-.31.37-.81.57-1.29Zm-.06.67c-.07.17-.17.4-.27.66l-.27.68h1C37.57,62.58,37.41,62.15,37.23,61.68Z"/><path class="cls-1" d="M40.22,62.69c0-.44,0-.73,0-1.18s-.1-.44-.41-.47c0,0,0-.06,0-.06l.58,0c.19,0,.48,0,.73,0,1,0,1.16.61,1.16,1a1.09,1.09,0,0,1-.66,1,9,9,0,0,0,.56.78,4.19,4.19,0,0,0,.66.7.8.8,0,0,0,.43.14s0,.07,0,.07a3.54,3.54,0,0,1-.56,0c-.41-.07-.57-.24-1-.91-.19-.26-.32-.47-.44-.66a3,3,0,0,1-.6,0c0,.39,0,.72,0,.89,0,.55.07.6.41.63,0,0,.05.07,0,.07l-.61,0-.61,0s0-.07,0-.07c.31,0,.38,0,.39-.63C40.22,63.5,40.22,63.1,40.22,62.69Zm.85-1.56h-.45c0,.36,0,.67,0,1.72a2.35,2.35,0,0,0,.71,0c.38,0,.54-.42.54-.79A.83.83,0,0,0,41.07,61.13Z"/><path class="cls-1" d="M46.53,63.13,46,61.83,45.59,63c-.18.46-.42,1.06-.63,1.64,0,.07,0,.09-.06.09s0,0-.07-.09c-.2-.61-.39-1.18-.63-1.93-.17-.53-.35-1.06-.44-1.3s-.19-.3-.37-.33,0-.06,0-.06l.55,0,.57,0a0,0,0,1,1,0,.06c-.26,0-.33.07-.27.31s.21.73.35,1.21.29.92.42,1.29c.13-.32.32-.8.5-1.27.33-.86.45-1.2.56-1.5,0-.08,0-.1.07-.1s0,0,.06.09c.15.45.33,1,.53,1.48s.38,1,.52,1.32l.43-1.32c.11-.38.21-.73.29-1.09s0-.39-.18-.42a0,0,0,1,1,0-.06l.47,0,.47,0c.05,0,.05.06,0,.06-.27,0-.34.21-.41.37s-.32.84-.46,1.27l-.65,1.92c0,.08,0,.09-.06.09s0,0-.07-.09C46.91,64.13,46.75,63.7,46.53,63.13Z"/><path class="cls-1" d="M50.79,61c0-.09.05-.1.07-.1s0,0,.07.1c.16.49.72,2,1.16,3.11.14.34.24.4.51.43,0,0,0,.07,0,.07l-.63,0-.52,0c-.05,0,0-.07,0-.07.22,0,.26-.09.18-.35s-.22-.66-.34-1H50.14c-.09.23-.26.67-.35,1s.06.35.25.37.05.07,0,.07l-.52,0-.54,0s0-.07,0-.07a.54.54,0,0,0,.47-.33A13.27,13.27,0,0,0,50,62.93Zm-.06.67c-.07.17-.17.4-.27.66L50.2,63h1C51.07,62.58,50.92,62.15,50.73,61.68Z"/><path class="cls-1" d="M53.72,62.69c0-.44,0-.73,0-1.18s-.11-.44-.41-.47c0,0-.06-.06,0-.06l.57,0,.73,0c1,0,1.16.61,1.16,1a1.09,1.09,0,0,1-.65,1,8.31,8.31,0,0,0,.55.78,3.81,3.81,0,0,0,.67.7.77.77,0,0,0,.42.14s0,.07,0,.07a3.37,3.37,0,0,1-.55,0c-.42-.07-.58-.24-1.05-.91-.18-.26-.32-.47-.44-.66a2.9,2.9,0,0,1-.59,0c0,.39,0,.72,0,.89,0,.55.07.6.41.63,0,0,.06.07,0,.07l-.61,0-.6,0c-.06,0,0-.07,0-.07.3,0,.37,0,.38-.63C53.72,63.5,53.72,63.1,53.72,62.69Zm.85-1.56h-.45v1.72a2.33,2.33,0,0,0,.71,0c.37,0,.53-.42.53-.79A.83.83,0,0,0,54.57,61.13Z"/><path class="cls-1" d="M58.76,61c0-.09.05-.1.07-.1s0,0,.07.1c.16.49.72,2,1.17,3.11.13.34.23.4.5.43,0,0,0,.07,0,.07l-.63,0-.52,0c-.05,0,0-.07,0-.07.22,0,.26-.09.18-.35s-.21-.66-.34-1H58.11c-.09.23-.26.67-.35,1s.06.35.25.37.05.07,0,.07l-.52,0-.54,0c-.05,0,0-.07,0-.07a.54.54,0,0,0,.47-.33c.17-.31.36-.81.56-1.29Zm-.06.67c-.07.17-.17.4-.27.66l-.26.68h1C59,62.58,58.89,62.15,58.7,61.68Z"/><path class="cls-1" d="M.12,50c0-.08.13-.07.13,0C.31,51.15.9,51.89,2,51.89a1.45,1.45,0,0,0,1.64-1.42c0-1-.65-1.44-1.75-2A2.51,2.51,0,0,1,.2,46.15a1.94,1.94,0,0,1,2.18-1.87,3.89,3.89,0,0,1,1.12.15.57.57,0,0,1,.43.7c0,.17-.09.64-.11.9,0,.1-.13.06-.13,0a1.45,1.45,0,0,0-1.45-1.46A1.23,1.23,0,0,0,.86,45.88,2,2,0,0,0,2.2,47.62c1.51.77,2.13,1.41,2.09,2.57a2.15,2.15,0,0,1-2.41,2,3.37,3.37,0,0,1-1.37-.26.82.82,0,0,1-.5-.66A4.6,4.6,0,0,1,.12,50Z"/><path class="cls-1" d="M9.32,50.64c0,1,.14,1.17.86,1.23a.07.07,0,1,1,0,.13L8.89,52,7.63,52a.07.07,0,0,1,0-.13c.6-.09.76-.16.78-1.23,0-.41,0-1.78,0-2.19,0-1,0-2.12,0-2.53,0-1.27-.23-1.27-.78-1.34-.08,0-.11-.13,0-.13l1.26,0,1.1,0c.1,0,.09.12,0,.13-.52.1-.67.11-.69,1.34,0,.36,0,1.68,0,2.52C9.29,48.86,9.31,50.23,9.32,50.64Z"/><path class="cls-1" d="M16.15,48.61c-.48.75-1.13,1.87-1.47,2.51s-.28.68.37.75c.08,0,.11.13,0,.13L14,52l-1.14,0a.07.07,0,1,1,0-.13A1.32,1.32,0,0,0,14,51.16c.62-.86,1.36-2,2-2.93-.63-1-1.35-2.17-1.88-3-.34-.51-.5-.63-1-.68-.08,0-.11-.13,0-.13l1.15,0,1.24,0c.11,0,.08.13,0,.13-.55.06-.55.24-.34.63.38.7.83,1.5,1.32,2.34.45-.73.88-1.47,1.22-2.16s.27-.74-.17-.81c-.08,0-.11-.13,0-.13l1.05,0,.91,0a.07.07,0,1,1,0,.13c-.35.05-.58.07-1,.71-.65.92-1.28,1.85-1.74,2.6.61,1,1.55,2.49,2.13,3.3.35.5.58.64,1,.68a.07.07,0,1,1,0,.13l-1.14,0-1.16,0a.07.07,0,0,1,0-.13c.48,0,.47-.24.25-.63C17.42,50.66,16.71,49.56,16.15,48.61Z"/><path class="cls-1" d="M27.5,50c0-.08.14-.07.14,0,.06,1.18.64,1.92,1.69,1.92A1.45,1.45,0,0,0,31,50.47c0-1-.64-1.44-1.75-2a2.49,2.49,0,0,1-1.63-2.31,1.93,1.93,0,0,1,2.18-1.87,3.89,3.89,0,0,1,1.12.15.57.57,0,0,1,.42.7c0,.17-.08.64-.11.9,0,.1-.13.06-.13,0a1.44,1.44,0,0,0-1.45-1.46,1.24,1.24,0,0,0-1.38,1.31,2,2,0,0,0,1.34,1.74c1.51.77,2.13,1.41,2.1,2.57a2.16,2.16,0,0,1-2.41,2,3.43,3.43,0,0,1-1.38-.26.82.82,0,0,1-.5-.66A5,5,0,0,1,27.5,50Z"/><path class="cls-1" d="M36.68,50.82c0,.73.17.77.81.78h1c1,0,1.22-.67,1.36-1.43,0-.09.15-.1.15,0A11,11,0,0,1,40,51.65c-.05.27-.26.37-.72.37S37.52,52,36.37,52L35,52c-.1,0-.08-.13,0-.13.65-.07.78-.18.8-1.23,0-.85,0-1.7,0-2.57s0-1.4,0-2.16c0-1,0-1.23-.84-1.33-.08,0-.11-.13,0-.13l1.43,0,2.55,0c.36,0,.55,0,.53.3s-.08.75-.14,1.17c0,.08-.15.08-.14,0,0-.61-.21-1-.83-1.06a15.2,15.2,0,0,0-1.68,0c0,1,0,1.94,0,3a20.16,20.16,0,0,0,2,0c.35,0,.34-.13.43-.12s0,.06,0,.31a4.67,4.67,0,0,1-.13.74c0,.08-.14.08-.14,0,0-.49-.31-.49-.81-.51-.22,0-1,0-1.37,0C36.65,48.86,36.66,50.06,36.68,50.82Z"/><path class="cls-1" d="M50.44,51.87c0,.22,0,.26,0,.27s-.09,0-.27-.21c-.77-.89-1.59-1.78-3.08-3.27C45.89,47.48,45,46.5,44.44,46c0,.93,0,3.26.11,5,0,.49.23.81,1,.88.09,0,.11.13,0,.13l-1.29,0-1,0a.07.07,0,1,1,0-.13c.44-.09.6-.19.65-.82.09-1.35.12-3.28.12-4.28,0-.66,0-1.46,0-2.17,0-.18,0-.23,0-.24s.09,0,.26.19c.9,1,1.89,2.05,3.1,3.27,1.06,1.06,2,2,2.61,2.58,0-1.44,0-3-.06-4.7,0-.89-.15-1-.83-1.12a.07.07,0,1,1,0-.13l1.11,0,.91,0c.1,0,.07.13,0,.13-.46.07-.59.4-.61,1C50.49,47.42,50.44,49.2,50.44,51.87Z"/><path class="cls-1" d="M54.86,50c0-.08.14-.07.14,0,.06,1.18.64,1.92,1.69,1.92a1.45,1.45,0,0,0,1.64-1.42c0-1-.64-1.44-1.75-2A2.49,2.49,0,0,1,55,46.15a1.93,1.93,0,0,1,2.18-1.87,4,4,0,0,1,1.12.15.57.57,0,0,1,.42.7c0,.17-.08.64-.11.9,0,.1-.13.06-.13,0A1.45,1.45,0,0,0,57,44.57a1.24,1.24,0,0,0-1.38,1.31,2,2,0,0,0,1.34,1.74c1.51.77,2.13,1.41,2.1,2.57a2.16,2.16,0,0,1-2.41,2,3.43,3.43,0,0,1-1.38-.26.82.82,0,0,1-.5-.66A5,5,0,0,1,54.86,50Z"/><path class="cls-1" d="M64,50.82c0,.73.17.77.81.78h1c1,0,1.21-.67,1.36-1.43,0-.09.15-.1.15,0a11,11,0,0,1-.06,1.48c0,.27-.26.37-.72.37S64.88,52,63.73,52l-1.38,0a.07.07,0,1,1,0-.13c.65-.07.78-.18.8-1.23,0-.85,0-1.7,0-2.57s0-1.4,0-2.16c0-1,0-1.23-.84-1.33-.08,0-.11-.13,0-.13l1.43,0,2.55,0c.36,0,.55,0,.53.3s-.08.75-.14,1.17c0,.08-.16.08-.14,0,0-.61-.21-1-.83-1.06a15.2,15.2,0,0,0-1.68,0c0,1,0,1.94,0,3a20.16,20.16,0,0,0,2,0c.35,0,.34-.13.43-.12s0,.06,0,.31a3.89,3.89,0,0,1-.12.74c0,.08-.14.08-.14,0,0-.49-.31-.49-.81-.51-.22,0-1,0-1.37,0C64,48.86,64,50.06,64,50.82Z"/><path class="cls-1" d="M70.82,50c0-.08.14-.07.14,0,.06,1.18.64,1.92,1.69,1.92a1.45,1.45,0,0,0,1.64-1.42c0-1-.64-1.44-1.75-2a2.5,2.5,0,0,1-1.63-2.31,1.93,1.93,0,0,1,2.18-1.87,3.89,3.89,0,0,1,1.12.15.57.57,0,0,1,.42.7c0,.17-.08.64-.11.9,0,.1-.13.06-.13,0a1.44,1.44,0,0,0-1.45-1.46,1.23,1.23,0,0,0-1.37,1.31,2,2,0,0,0,1.34,1.74C74.41,48.39,75,49,75,50.19a2.16,2.16,0,0,1-2.41,2,3.47,3.47,0,0,1-1.38-.26.84.84,0,0,1-.5-.66A5,5,0,0,1,70.82,50Z"/><path class="cls-2" d="M59.22,34.31s0,0,.05,0S59.24,34.28,59.22,34.31Z"/><polygon class="cls-2" points="58.56 34.7 58.67 34.67 58.65 34.67 58.56 34.7"/><path class="cls-2" d="M58.4,34.81c-.08.08-.26.09-.27.18.07-.06.24-.11.35-.18l-.07,0Z"/><path class="cls-2" d="M57.89,35.28l.06,0h0C57.81,35.28,57.9,35.24,57.89,35.28Z"/><path class="cls-2" d="M58,35.25s.06,0,0,0Z"/><path class="cls-2" d="M57.69,35.4s.05,0,.06-.06h-.1S57.6,35.42,57.69,35.4Z"/><path class="cls-2" d="M57.6,35.32h0S57.6,35.33,57.6,35.32Z"/><path class="cls-2" d="M57.65,35.31s0,0,0,0h.1S57.64,35.3,57.65,35.31Z"/><path class="cls-2" d="M57.76,35.22c.09,0,0,0,0,.06C57.91,35.23,57.91,35.17,57.76,35.22Z"/><path class="cls-2" d="M58.11,34.89l0,0s.08,0,.11-.06Z"/><path class="cls-2" d="M57.14,35.54s.06,0,.09-.06h-.07S57.13,35.53,57.14,35.54Z"/><path class="cls-2" d="M57.06,35.47h.1S57.14,35.45,57.06,35.47Z"/><path class="cls-2" d="M57.52,35.26h0Z"/><path class="cls-2" d="M56.72,35.6l.11,0-.06,0Z"/><path class="cls-2" d="M56.52,35.64a.32.32,0,0,1-.19,0,.53.53,0,0,0,.18.05S56.56,35.66,56.52,35.64Z"/><path class="cls-2" d="M56.83,35.56c.05,0,.07,0,.07-.05h0Z"/><polygon class="cls-2" points="56.78 35.53 56.86 35.52 56.86 35.51 56.78 35.53"/><path class="cls-2" d="M57.21,35.29c-.1.07,0,.07.08.07S57.26,35.31,57.21,35.29Z"/><path class="cls-2" d="M57,35.41l-.09,0h.11S57,35.43,57,35.41Z"/><polygon class="cls-2" points="56.91 35.45 56.95 35.44 56.9 35.44 56.91 35.45"/><path class="cls-2" d="M56.45,35.54a1.13,1.13,0,0,0-.18,0h.15C56.48,35.58,56.45,35.56,56.45,35.54Z"/><polygon class="cls-2" points="55.74 35.55 55.74 35.54 55.73 35.55 55.74 35.55"/><path class="cls-2" d="M56.45,35.54h.1A.11.11,0,0,0,56.45,35.54Z"/><path class="cls-2" d="M56.17,35.59l-.08,0S56.15,35.6,56.17,35.59Z"/><path class="cls-2" d="M56.63,35.55h-.08l.06,0Z"/><path class="cls-2" d="M55.83,35.61a.33.33,0,0,1,.15,0h-.24A.2.2,0,0,0,55.83,35.61Z"/><path class="cls-2" d="M56.17,35.58h0s-.06,0,0,0a1,1,0,0,0-.18,0l.19,0Z"/><path class="cls-2" d="M56.18,35.58h0l.1,0h-.11c.15,0-.1-.06.09-.05-.07,0,0-.06-.16-.06s0,.07.07.11v0Z"/><path class="cls-2" d="M57.09,35.24h0S57.07,35.24,57.09,35.24Z"/><path class="cls-2" d="M57,35.27a.42.42,0,0,0-.07.13s.08-.08.14-.11h0c.08,0,0,0,0,0s0,0,0,0A.08.08,0,0,1,57,35.27Z"/><path class="cls-2" d="M56.44,35.42h.16s0,0-.09,0v0Z"/><path class="cls-2" d="M55.64,35.54l.09.08,0,0Z"/><polygon class="cls-2" points="55.45 35.55 55.5 35.58 55.5 35.54 55.45 35.55"/><path class="cls-2" d="M51.77,32.06c-.05,0,0,.07.08.13a.2.2,0,0,1,0-.11Z"/><path class="cls-2" d="M53.37,34.62a.32.32,0,0,0,.13.07S53.44,34.65,53.37,34.62Z"/><path class="cls-2" d="M55,27h0S54.93,27,55,27Z"/><path class="cls-2" d="M53.37,34.62a.36.36,0,0,1-.11-.1h0A.22.22,0,0,0,53.37,34.62Z"/><path class="cls-2" d="M54.66,35.35Z"/><path class="cls-2" d="M54.75,35.38h0Z"/><path class="cls-2" d="M54.6,35.33l.06,0h0Z"/><path class="cls-2" d="M52.12,32.94l0,.05Z"/><path class="cls-2" d="M55.1,35.48a.16.16,0,0,1-.09,0l.1,0S55.1,35.49,55.1,35.48Z"/><path class="cls-2" d="M56,35.35v0h0C55.91,35.32,56,35.35,56,35.35Z"/><path class="cls-2" d="M55.35,35.37h0c-.07,0-.12,0-.14,0S55.36,35.43,55.35,35.37Z"/><path class="cls-2" d="M55.44,35.39h-.06S55.45,35.41,55.44,35.39Z"/><path class="cls-2" d="M54.55,35.31s0,0,0,0S54.57,35.38,54.55,35.31Z"/><polygon class="cls-2" points="55.25 35.24 55.28 35.29 55.31 35.24 55.25 35.24"/><path class="cls-2" d="M54.91,35.17l-.11,0s.07,0,.13,0Z"/><path class="cls-2" d="M54.93,35.19l.08,0Z"/><path class="cls-2" d="M53.71,34.58a.6.6,0,0,0,.08.08s0,0,0-.06S53.71,34.56,53.71,34.58Z"/><polygon class="cls-2" points="59.37 34.19 59.41 34.11 59.38 34.12 59.37 34.19"/><path class="cls-2" d="M59.24,34.18s0,0-.05.06h.08Z"/><path class="cls-2" d="M45.8,13.65s0,0,0,0S45.76,13.66,45.8,13.65Z"/><polygon class="cls-2" points="46.53 13.85 46.44 13.79 46.45 13.81 46.53 13.85"/><path class="cls-2" d="M46.73,13.88c.11,0,.24.13.32.08a2.87,2.87,0,0,1-.38-.13l0,.07Z"/><path class="cls-2" d="M47.42,13.93l-.06,0h0C47.48,14,47.39,14,47.42,13.93Z"/><path class="cls-2" d="M47.36,13.91s-.07,0,0,0Z"/><path class="cls-2" d="M47.64,14s0,0-.07,0l.06.06C47.69,14.05,47.72,14,47.64,14Z"/><path class="cls-2" d="M47.69,14.13s0,0,0,0Z"/><path class="cls-2" d="M47.61,14.08c0,.05,0,0,0,0L47.57,14S47.61,14.1,47.61,14.08Z"/><path class="cls-2" d="M47.52,14c-.15-.08-.19,0-.05,0C47.4,14,47.47,14,47.52,14Z"/><path class="cls-2" d="M46.94,14,47,14h.06S47,14,46.94,14Z"/><path class="cls-2" d="M48.13,14.29s-.07,0-.11,0l0,.05S48.13,14.3,48.13,14.29Z"/><path class="cls-2" d="M48.13,14.39l-.06-.07S48.06,14.35,48.13,14.39Z"/><path class="cls-2" d="M47.69,14.23l-.14-.14.11.12Z"/><path class="cls-2" d="M48.46,14.54l0-.1,0,.06Z"/><path class="cls-2" d="M48.78,14.78a.47.47,0,0,0-.1-.16s-.07,0,0,0A.31.31,0,0,1,48.78,14.78Z"/><path class="cls-2" d="M48.36,14.49a.1.1,0,0,0-.09,0l0,0Z"/><polygon class="cls-2" points="48.37 14.55 48.3 14.5 48.3 14.5 48.37 14.55"/><path class="cls-2" d="M47.9,14.4c.12,0,0-.05,0-.1S47.88,14.36,47.9,14.4Z"/><path class="cls-2" d="M48.11,14.44l.09.05-.08-.09S48.12,14.43,48.11,14.44Z"/><polygon class="cls-2" points="48.23 14.51 48.2 14.49 48.23 14.53 48.23 14.51"/><path class="cls-2" d="M48.61,14.78l.14.11a.54.54,0,0,1-.09-.12S48.62,14.77,48.61,14.78Z"/><polygon class="cls-2" points="49.11 15.28 49.1 15.29 49.12 15.29 49.11 15.28"/><path class="cls-2" d="M48.6,14.78h0a.71.71,0,0,0-.07-.09A.12.12,0,0,0,48.6,14.78Z"/><path class="cls-2" d="M48.84,15l.07,0S48.87,15,48.84,15Z"/><path class="cls-2" d="M48.51,14.64h0S48.53,14.64,48.51,14.64Z"/><path class="cls-2" d="M48.49,14.65l0,0s0,0,0,0Z"/><path class="cls-2" d="M49.09,15.18a.6.6,0,0,1-.14-.07l0,0h0l.14.15S49.12,15.25,49.09,15.18Z"/><path class="cls-2" d="M48.84,15l-.09-.06a.27.27,0,0,1,.07.08c-.12-.08,0,.12-.09,0,0,.06,0,.06.07.15s0-.07,0-.13v0h0s0,.05,0,0l.12.14a.91.91,0,0,0-.11-.16Z"/><path class="cls-2" d="M48,14.53h0S48,14.54,48,14.53Z"/><path class="cls-2" d="M48,14.53s0,0,0,0a.09.09,0,0,1,.05.06l.14,0a.38.38,0,0,1-.18,0h0C47.89,14.45,47.93,14.51,48,14.53Z"/><path class="cls-2" d="M48.47,14.83l0,0,.08,0-.1-.12S48.39,14.78,48.47,14.83Z"/><path class="cls-2" d="M49.17,15.24l0,0,0,.07A.49.49,0,0,1,49.17,15.24Z"/><polygon class="cls-2" points="49.3 15.43 49.27 15.46 49.31 15.49 49.3 15.43"/><path class="cls-2" d="M49.38,20.56s0-.07,0-.15a.2.2,0,0,1-.06.11Z"/><path class="cls-2" d="M50.1,17.63s0-.09,0-.15S50.07,17.56,50.1,17.63Z"/><path class="cls-2" d="M43.52,21.8s0,0,0,.05S43.54,21.82,43.52,21.8Z"/><path class="cls-2" d="M50.1,17.63a.65.65,0,0,1,0,.14s0,0,0,0A.22.22,0,0,0,50.1,17.63Z"/><path class="cls-2" d="M49.72,16.2Z"/><path class="cls-2" d="M49.68,16.11l0,0S49.68,16.1,49.68,16.11Z"/><path class="cls-2" d="M49.75,16.25l0-.05h0Z"/><path class="cls-2" d="M49.56,15.86l0-.09s0,0,0,0A.22.22,0,0,1,49.56,15.86Z"/><path class="cls-2" d="M49.34,15.78c0-.08-.05-.14-.09-.1h0C49.28,15.73,49.3,15.79,49.34,15.78Z"/><path class="cls-2" d="M49.2,15.61a.1.1,0,0,1,0,.05S49.22,15.59,49.2,15.61Z"/><path class="cls-2" d="M49.77,16.3s0,0,0,.05S49.81,16.24,49.77,16.3Z"/><polygon class="cls-2" points="49.25 15.8 49.19 15.8 49.23 15.85 49.25 15.8"/><path class="cls-2" d="M49.42,16.15l.06.08s0-.06-.06-.12Z"/><path class="cls-2" d="M49.42,16.11a.36.36,0,0,1,0-.07A.13.13,0,0,0,49.42,16.11Z"/><path class="cls-2" d="M49.8,17.36s0,.07,0,.06V17.3S49.81,17.33,49.8,17.36Z"/><polygon class="cls-2" points="45.61 13.63 45.52 13.65 45.55 13.66 45.61 13.63"/><path class="cls-2" d="M45.77,13.72l-.06-.06,0,.07S45.75,13.72,45.77,13.72Z"/><path class="cls-2" d="M26.11,14.77s0,0-.05,0S26.09,14.8,26.11,14.77Z"/><polygon class="cls-2" points="26.77 14.39 26.66 14.41 26.68 14.41 26.77 14.39"/><path class="cls-2" d="M26.92,14.27c.09-.08.27-.09.28-.18a4,4,0,0,1-.36.18l.08,0Z"/><path class="cls-2" d="M27.44,13.8l-.06,0v0C27.52,13.8,27.43,13.84,27.44,13.8Z"/><path class="cls-2" d="M27.38,13.83s-.06,0,0,0Z"/><path class="cls-2" d="M27.63,13.68s0,0-.05.06h.09S27.73,13.67,27.63,13.68Z"/><path class="cls-2" d="M27.73,13.76h0S27.73,13.75,27.73,13.76Z"/><path class="cls-2" d="M27.68,13.77s0,0,.05,0h-.05Z"/><path class="cls-2" d="M27.57,13.86c-.09,0,0,0,0-.06C27.42,13.86,27.42,13.91,27.57,13.86Z"/><path class="cls-2" d="M27.22,14.19l.05,0s-.08,0-.11.06Z"/><path class="cls-2" d="M28.19,13.54s-.06.05-.09.07h.07S28.2,13.55,28.19,13.54Z"/><path class="cls-2" d="M28.27,13.61h-.1S28.19,13.63,28.27,13.61Z"/><path class="cls-2" d="M27.81,13.83h0Z"/><path class="cls-2" d="M28.61,13.48l-.11,0,.06,0Z"/><path class="cls-2" d="M28.81,13.45a.33.33,0,0,1,.19,0,.58.58,0,0,0-.18,0S28.76,13.42,28.81,13.45Z"/><path class="cls-2" d="M28.5,13.52c-.05,0-.07,0-.07.05h0Z"/><polygon class="cls-2" points="28.55 13.55 28.47 13.57 28.47 13.57 28.55 13.55"/><path class="cls-2" d="M28.12,13.78c.1-.06,0-.06-.08-.07C28.13,13.73,28.07,13.77,28.12,13.78Z"/><path class="cls-2" d="M28.29,13.67l.09,0h-.11S28.29,13.66,28.29,13.67Z"/><polygon class="cls-2" points="28.42 13.63 28.38 13.64 28.43 13.64 28.42 13.63"/><path class="cls-2" d="M28.88,13.54l.18,0a.68.68,0,0,1-.15,0C28.85,13.5,28.88,13.52,28.88,13.54Z"/><polygon class="cls-2" points="29.58 13.53 29.59 13.54 29.59 13.53 29.58 13.53"/><path class="cls-2" d="M28.87,13.55s0,0,0,0h-.1A.13.13,0,0,0,28.87,13.55Z"/><path class="cls-2" d="M29.16,13.49l.08,0S29.18,13.48,29.16,13.49Z"/><path class="cls-2" d="M28.71,13.53h.07l-.06,0Z"/><path class="cls-2" d="M29.5,13.47a.37.37,0,0,1-.15,0h.23S29.57,13.5,29.5,13.47Z"/><path class="cls-2" d="M29.15,13.5h0s.06,0,0,0,0,0,0,0h0l-.1,0h.1c-.14,0,.11.06-.08.05.07,0,0,.06.16.06s0-.07-.07-.11h.18l-.19,0Z"/><path class="cls-2" d="M28.24,13.84h0S28.26,13.85,28.24,13.84Z"/><path class="cls-2" d="M28.31,13.81a.52.52,0,0,0,.07-.12.5.5,0,0,1-.15.1h0c-.08,0,0,.05,0,.05s0,0,0,0A.09.09,0,0,1,28.31,13.81Z"/><path class="cls-2" d="M28.89,13.66h-.16s0,0,.09,0v0Z"/><path class="cls-2" d="M29.69,13.54l-.09-.08,0,0Z"/><polygon class="cls-2" points="29.88 13.53 29.82 13.5 29.83 13.54 29.88 13.53"/><path class="cls-2" d="M33.48,16.89a.21.21,0,0,1,0,.12h.05S33.53,17,33.48,16.89Z"/><path class="cls-2" d="M32,14.46a.32.32,0,0,0-.13-.07S31.89,14.43,32,14.46Z"/><path class="cls-2" d="M30.37,22.09s0,0,0,0S30.4,22.09,30.37,22.09Z"/><path class="cls-2" d="M32,14.46a.55.55,0,0,1,.11.1h0A.22.22,0,0,0,32,14.46Z"/><path class="cls-2" d="M30.67,13.73Z"/><path class="cls-2" d="M30.58,13.7h0Z"/><path class="cls-2" d="M30.73,13.75l-.06,0h0Z"/><path class="cls-2" d="M30.23,13.61h.09l-.1,0S30.23,13.59,30.23,13.61Z"/><path class="cls-2" d="M29.32,13.73v0h0C29.42,13.76,29.38,13.74,29.32,13.73Z"/><path class="cls-2" d="M30,13.71h0c.07,0,.12,0,.14,0S30,13.65,30,13.71Z"/><path class="cls-2" d="M29.89,13.69H30S29.88,13.67,29.89,13.69Z"/><path class="cls-2" d="M30.77,13.76s0,.05,0,.05S30.76,13.7,30.77,13.76Z"/><polygon class="cls-2" points="30.08 13.84 30.05 13.79 30.02 13.84 30.08 13.84"/><path class="cls-2" d="M30.42,13.92h.1s-.06,0-.12,0S30.43,13.91,30.42,13.92Z"/><path class="cls-2" d="M30.4,13.89l-.08,0Z"/><path class="cls-2" d="M31.62,14.5l-.08-.08s0,0,0,.06S31.62,14.52,31.62,14.5Z"/><polygon class="cls-2" points="25.96 14.89 25.91 14.98 25.95 14.96 25.96 14.89"/><path class="cls-2" d="M26.09,14.9s0-.05.05-.06h-.08Z"/><path class="cls-2" d="M34.33,7.82s0,0,0-.06S34.29,7.76,34.33,7.82Z"/><polygon class="cls-2" points="33.98 7.21 33.99 7.19 33.96 7.11 33.98 7.21"/><path class="cls-2" d="M33.66,6.67a2.4,2.4,0,0,1,.18.36l0-.07h0C33.76,6.87,33.75,6.69,33.66,6.67Z"/><path class="cls-2" d="M33.38,6.44l0,0h0C33.37,6.36,33.41,6.44,33.38,6.44Z"/><path class="cls-2" d="M33.4,6.49s0,.07,0,0Z"/><path class="cls-2" d="M33.26,6.24s0,0,.05,0V6.2S33.24,6.15,33.26,6.24Z"/><path class="cls-2" d="M33.33,6.15v0S33.32,6.15,33.33,6.15Z"/><path class="cls-2" d="M33.33,6.15v.1s0-.07,0,0S33.35,6.16,33.33,6.15Z"/><path class="cls-2" d="M33.37,6.3c.06.16.11.16.06,0C33.44,6.39,33.4,6.34,33.37,6.3Z"/><path class="cls-2" d="M33.76,6.65l0,0s.05.07.05.1Z"/><path class="cls-2" d="M33.18,5.77V5.71l-.07,0S33.16,5.74,33.18,5.77Z"/><path class="cls-2" d="M33.18,5.71s0,0,0-.1Z"/><path class="cls-2" d="M33.4,6.06V6a1.21,1.21,0,0,0,0,.19Z"/><path class="cls-2" d="M33,5.32V5.27a.76.76,0,0,1,0,.11Z"/><path class="cls-2" d="M33,4.88a.48.48,0,0,0,0,.18s0,.05.07,0A.34.34,0,0,1,33,4.88Z"/><path class="cls-2" d="M33.15,5.45v0l0,0A.14.14,0,0,0,33.15,5.45Z"/><polygon class="cls-2" points="33.12 5.33 33.14 5.41 33.14 5.41 33.12 5.33"/><path class="cls-2" d="M33.29,5.84c0-.09.05,0,.07-.08S33.29,5.78,33.29,5.84Z"/><path class="cls-2" d="M33.2,5.6s0,0,0,0l0-.1Z"/><polygon class="cls-2" points="33.2 5.46 33.21 5.49 33.21 5.44 33.2 5.46"/><path class="cls-2" d="M33.11,5a1,1,0,0,0,0-.17.59.59,0,0,1,0,.14C33.07,5,33.1,5,33.11,5Z"/><polygon class="cls-2" points="33.1 4.29 33.11 4.29 33.1 4.28 33.1 4.29"/><path class="cls-2" d="M33.12,5h0V5.1A.16.16,0,0,0,33.12,5Z"/><path class="cls-2" d="M33.07,4.71l0-.07S33.05,4.69,33.07,4.71Z"/><path class="cls-2" d="M33.1,5.17a.15.15,0,0,0,0-.07.14.14,0,0,0,0,.06Z"/><path class="cls-2" d="M33.05,4.38a.51.51,0,0,1,0,.14v0a1.48,1.48,0,0,0,0-.21S33.07,4.31,33.05,4.38Z"/><path class="cls-2" d="M33.07,4.71a.43.43,0,0,0,0,.11.41.41,0,0,1,0-.11c0,.14.06-.11,0,.08,0-.07.05,0,.05-.15s-.06,0-.11.07h0s0,0,0,0h0s0-.07,0,0a.58.58,0,0,0,0-.19,1.36,1.36,0,0,0,0,.2Z"/><path class="cls-2" d="M33.41,5.63h0S33.42,5.62,33.41,5.63Z"/><path class="cls-2" d="M33.41,5.63s0,0,0,0a.15.15,0,0,1,0-.07.31.31,0,0,0-.12-.07.51.51,0,0,1,.11.14v0C33.4,5.73,33.41,5.66,33.41,5.63Z"/><path class="cls-2" d="M33.23,5v.16s0,0,0-.08h0Z"/><path class="cls-2" d="M33.11,4.19,33,4.28l0,0Z"/><polygon class="cls-2" points="33.1 4 33.07 4.05 33.11 4.05 33.1 4"/><path class="cls-2" d="M36.59.32s-.07,0-.13.08l.12,0Z"/><path class="cls-2" d="M34,1.91a.91.91,0,0,0-.07.14S34,2,34,1.91Z"/><path class="cls-2" d="M41.66,3.51s0,0,0,0S41.66,3.48,41.66,3.51Z"/><path class="cls-2" d="M34,1.91l.1-.1,0,0A.19.19,0,0,0,34,1.91Z"/><path class="cls-2" d="M33.3,3.2s0,0,0,0Z"/><path class="cls-2" d="M33.27,3.3v0S33.26,3.3,33.27,3.3Z"/><path class="cls-2" d="M33.32,3.15l0,.05v0A.64.64,0,0,1,33.32,3.15Z"/><path class="cls-2" d="M33.18,3.65s0,0,0-.09l0,.09S33.17,3.65,33.18,3.65Z"/><path class="cls-2" d="M33.3,4.56h0a.06.06,0,0,1,0,0C33.33,4.46,33.31,4.5,33.3,4.56Z"/><path class="cls-2" d="M33.29,3.78c0,.06-.07.13,0,.12h0C33.3,3.85,33.33,3.79,33.29,3.78Z"/><path class="cls-2" d="M33.28,3.93s0,.06,0,.06A.14.14,0,0,1,33.28,3.93Z"/><path class="cls-2" d="M33.38,3.08c.1-.16-.11,0,0,0S33.38,3.11,33.38,3.08Z"/><polygon class="cls-2" points="33.41 3.86 33.41 3.8 33.37 3.83 33.41 3.86"/><path class="cls-2" d="M33.51,3.35s0,.06,0,.13,0,0,0,0S33.5,3.38,33.51,3.35Z"/><path class="cls-2" d="M33.43,3.56s0-.05,0-.08Z"/><path class="cls-2" d="M34.05,2.31s0-.06,0-.06L34,2.34S34,2.33,34.05,2.31Z"/><polygon class="cls-2" points="34.47 7.92 34.55 7.96 34.53 7.93 34.47 7.92"/><path class="cls-2" d="M34.41,7.74v.08l.06,0S34.43,7.75,34.41,7.74Z"/><path class="cls-2" d="M41.67,30.85s0,0,0,0S41.67,30.81,41.67,30.85Z"/><polygon class="cls-2" points="41.48 31.58 41.54 31.5 41.52 31.5 41.48 31.58"/><path class="cls-2" d="M41.46,31.78c0,.11-.13.25-.08.33a3,3,0,0,1,.13-.39l-.07,0Z"/><path class="cls-2" d="M41.42,32.47a.39.39,0,0,0,0-.06v0C41.37,32.53,41.4,32.44,41.42,32.47Z"/><path class="cls-2" d="M41.44,32.41c0,.05,0-.06,0,0Z"/><path class="cls-2" d="M41.37,32.62l-.06.07c0,.06,0,.08.06,0S41.37,32.64,41.37,32.62Z"/><path class="cls-2" d="M41.25,32.71l0,0S41.25,32.72,41.25,32.71Z"/><path class="cls-2" d="M41.28,32.67c-.05,0,0,0,0,0l.06-.08S41.25,32.67,41.28,32.67Z"/><path class="cls-2" d="M41.32,32.57c.08-.15,0-.19,0,0C41.34,32.46,41.33,32.52,41.32,32.57Z"/><path class="cls-2" d="M41.34,32l0,0v.07S41.32,32,41.34,32Z"/><path class="cls-2" d="M41,33.13s0,.06,0,.06,0-.07,0-.11Z"/><path class="cls-2" d="M41,33.2l.07-.07S41,33.12,41,33.2Z"/><path class="cls-2" d="M41.14,32.72v0l.13-.15Z"/><path class="cls-2" d="M40.83,33.52l.1,0-.06,0Z"/><path class="cls-2" d="M40.71,33.69a.32.32,0,0,1-.12.15.43.43,0,0,0,.16-.09S40.75,33.68,40.71,33.69Z"/><path class="cls-2" d="M40.88,33.42a.09.09,0,0,0,0-.09l0,0Z"/><polygon class="cls-2" points="40.81 33.43 40.86 33.37 40.86 33.37 40.81 33.43"/><path class="cls-2" d="M41.06,33C41,33,41,33,41,33S41,33,41.06,33Z"/><path class="cls-2" d="M40.92,33.17l-.05.09.09-.08S40.93,33.18,40.92,33.17Z"/><polygon class="cls-2" points="40.85 33.29 40.87 33.26 40.83 33.29 40.85 33.29"/><path class="cls-2" d="M40.59,33.68a1.34,1.34,0,0,0-.11.14.44.44,0,0,1,.11-.09S40.6,33.68,40.59,33.68Z"/><polygon class="cls-2" points="40.1 34.18 40.09 34.18 40.09 34.19 40.1 34.18"/><path class="cls-2" d="M40.59,33.67s0,0,0,0l.07-.08S40.61,33.63,40.59,33.67Z"/><path class="cls-2" d="M40.42,33.91l0,.07S40.42,33.94,40.42,33.91Z"/><path class="cls-2" d="M40.72,33.57h0Z"/><path class="cls-2" d="M40.72,33.56l-.06,0,.06,0Z"/><path class="cls-2" d="M40.19,34.16a.87.87,0,0,1,.08-.14l0,0h0l-.15.14S40.13,34.19,40.19,34.16Z"/><path class="cls-2" d="M40.42,33.9h0s-.05,0,0,0h0l.06-.09-.08.07c.08-.12-.12,0,0-.1-.06,0-.06,0-.15.07s.08,0,.13,0a1.49,1.49,0,0,0-.13.13l.15-.12Z"/><path class="cls-2" d="M40.83,33h0S40.81,33,40.83,33Z"/><path class="cls-2" d="M40.8,33.08a.47.47,0,0,0,0,.14.37.37,0,0,1,0-.18h0c0-.08,0,0-.05,0s0,0,0,0S40.81,33.07,40.8,33.08Z"/><path class="cls-2" d="M40.53,33.53v0l0,.09.12-.11S40.58,33.46,40.53,33.53Z"/><path class="cls-2" d="M40,34.25h.11l0,0Z"/><polygon class="cls-2" points="39.89 34.39 39.95 34.38 39.91 34.35 39.89 34.39"/><path class="cls-2" d="M34.82,34.53s.06,0,.15,0a.2.2,0,0,1-.11-.06Z"/><path class="cls-2" d="M37.76,35.21l.15-.05S37.83,35.17,37.76,35.21Z"/><path class="cls-2" d="M33.49,28.69s0,0,0,0S33.47,28.71,33.49,28.69Z"/><path class="cls-2" d="M37.76,35.21h-.18A.22.22,0,0,0,37.76,35.21Z"/><path class="cls-2" d="M39.19,34.81Z"/><path class="cls-2" d="M39.28,34.76l0,0S39.28,34.77,39.28,34.76Z"/><path class="cls-2" d="M39.13,34.83l.06,0s0,0,0,0Z"/><path class="cls-2" d="M39.59,34.58a.22.22,0,0,1-.07.06l.09,0S39.59,34.59,39.59,34.58Z"/><path class="cls-2" d="M40.14,33.85v0l0,0S40.1,33.89,40.14,33.85Z"/><path class="cls-2" d="M39.6,34.42c.07,0,.14-.05.09-.09h0C39.64,34.36,39.59,34.38,39.6,34.42Z"/><path class="cls-2" d="M39.77,34.28l-.05,0S39.79,34.3,39.77,34.28Z"/><path class="cls-2" d="M39,34.84c-.18,0,.1,0,.05,0S39.06,34.82,39,34.84Z"/><polygon class="cls-2" points="39.58 34.33 39.57 34.27 39.53 34.31 39.58 34.33"/><path class="cls-2" d="M39.26,34.5h0l-.08.06S39.21,34.54,39.26,34.5Z"/><path class="cls-2" d="M38,34.91c-.05,0-.08,0-.06,0h.11S38.06,34.91,38,34.91Z"/><polygon class="cls-2" points="41.67 30.57 41.66 30.6 41.69 30.66 41.67 30.57"/><path class="cls-2" d="M41.6,30.82l.06-.06-.06,0A.11.11,0,0,1,41.6,30.82Z"/><path class="cls-2" d="M23.21,31.21s0,0,0,0S23.2,31.17,23.21,31.21Z"/><polygon class="cls-2" points="23.01 31.95 23.07 31.86 23.05 31.87 23.01 31.95"/><path class="cls-2" d="M23,32.14c0,.12-.13.25-.08.33,0-.1.1-.26.13-.39l-.07,0Z"/><path class="cls-2" d="M23,32.84l0-.07h0C22.9,32.89,22.93,32.8,23,32.84Z"/><path class="cls-2" d="M23,32.77s0-.06,0,0Z"/><path class="cls-2" d="M22.9,33l-.06.07c0,.06,0,.09.06,0S22.9,33,22.9,33Z"/><path class="cls-2" d="M22.78,33.07l0,0S22.78,33.08,22.78,33.07Z"/><path class="cls-2" d="M22.81,33s0,0,0,0l.06-.08S22.78,33,22.81,33Z"/><path class="cls-2" d="M22.85,32.93c.08-.15,0-.19,0,0C22.88,32.82,22.86,32.88,22.85,32.93Z"/><path class="cls-2" d="M22.87,32.36l0,0v.06S22.85,32.39,22.87,32.36Z"/><path class="cls-2" d="M22.57,33.49s0,.06,0,.06,0-.07,0-.11Z"/><path class="cls-2" d="M22.5,33.56l.07-.07S22.54,33.48,22.5,33.56Z"/><path class="cls-2" d="M22.67,33.08v0l.13-.15Z"/><path class="cls-2" d="M22.36,33.89l.1,0-.06,0Z"/><path class="cls-2" d="M22.24,34.05a.3.3,0,0,1-.12.16.47.47,0,0,0,.16-.1S22.29,34,22.24,34.05Z"/><path class="cls-2" d="M22.41,33.79a.16.16,0,0,0,0-.09l0,0Z"/><polygon class="cls-2" points="22.35 33.8 22.39 33.73 22.39 33.73 22.35 33.8"/><path class="cls-2" d="M22.59,33.32c-.07,0-.06,0-.1,0S22.54,33.36,22.59,33.32Z"/><path class="cls-2" d="M22.45,33.53l-.05.09.09-.07S22.46,33.54,22.45,33.53Z"/><polygon class="cls-2" points="22.38 33.65 22.4 33.62 22.36 33.65 22.38 33.65"/><path class="cls-2" d="M22.12,34a1.34,1.34,0,0,0-.11.14.54.54,0,0,1,.12-.09C22.17,34,22.13,34.05,22.12,34Z"/><polygon class="cls-2" points="21.63 34.55 21.62 34.54 21.62 34.55 21.63 34.55"/><path class="cls-2" d="M22.12,34s0,0,0,0l.07-.07A.13.13,0,0,0,22.12,34Z"/><path class="cls-2" d="M22,34.27l0,.07S22,34.3,22,34.27Z"/><path class="cls-2" d="M22.26,33.94h0S22.25,34,22.26,33.94Z"/><path class="cls-2" d="M22.25,33.92l-.06,0,.06,0Z"/><path class="cls-2" d="M21.73,34.52a.32.32,0,0,1,.07-.13l0,0h0l-.15.14S21.66,34.56,21.73,34.52Z"/><path class="cls-2" d="M22,34.27h0s-.05,0,0,0h0s0,0,0,0h0l.06-.09a.27.27,0,0,1-.08.07c.08-.12-.12,0,0-.09-.06,0-.06,0-.15.07s.08,0,.13,0a.51.51,0,0,0-.13.13l.16-.12Z"/><path class="cls-2" d="M22.36,33.37h0S22.35,33.38,22.36,33.37Z"/><path class="cls-2" d="M22.33,33.44a.39.39,0,0,0,0,.14.39.39,0,0,1,0-.18h0c0-.08,0,0-.05,0s0,0,0,0S22.35,33.44,22.33,33.44Z"/><path class="cls-2" d="M22.06,33.89h0L22,34l.11-.11S22.12,33.82,22.06,33.89Z"/><path class="cls-2" d="M21.55,34.61h.12l-.05,0Z"/><polygon class="cls-2" points="21.42 34.75 21.48 34.74 21.45 34.71 21.42 34.75"/><path class="cls-2" d="M16.35,34.89s.07,0,.15,0a.24.24,0,0,1-.11-.06Z"/><path class="cls-2" d="M19.29,35.57l.15,0S19.36,35.54,19.29,35.57Z"/><path class="cls-2" d="M15,29.05s0,0,0,0S15,29.07,15,29.05Z"/><path class="cls-2" d="M19.29,35.57h-.18A.22.22,0,0,0,19.29,35.57Z"/><path class="cls-2" d="M23.1,30.52a.25.25,0,0,1,0,.08S23.11,30.53,23.1,30.52Z"/><path class="cls-2" d="M20.72,35.17Z"/><path class="cls-2" d="M20.81,35.13l0,0Z"/><path class="cls-2" d="M20.66,35.2l.06,0h0Z"/><path class="cls-2" d="M21.12,35a.23.23,0,0,1-.07.06l.1,0S21.13,35,21.12,35Z"/><path class="cls-2" d="M21.13,34.78c.07,0,.14-.05.1-.09h0C21.18,34.72,21.12,34.74,21.13,34.78Z"/><path class="cls-2" d="M21.3,34.65l-.05,0S21.32,34.66,21.3,34.65Z"/><path class="cls-2" d="M20.57,35.2c-.18,0,.1.06.05,0S20.59,35.18,20.57,35.2Z"/><polygon class="cls-2" points="21.11 34.69 21.1 34.63 21.06 34.67 21.11 34.69"/><path class="cls-2" d="M20.68,34.92s.06,0,.12-.05h0Z"/><path class="cls-2" d="M20.8,34.87l.08,0S20.83,34.85,20.8,34.87Z"/><path class="cls-2" d="M19.56,35.27s-.07,0-.06,0h.12S19.59,35.28,19.56,35.27Z"/><polygon class="cls-2" points="23.2 30.93 23.19 30.96 23.23 31.02 23.2 30.93"/><path class="cls-2" d="M23.14,31.18l.06-.05-.07,0S23.14,31.16,23.14,31.18Z"/><path class="cls-2" d="M33.43,18.32c.09-.16,0-.12.12-.32,0,.08-.07.05-.11,0l.09-.13-.07,0a.37.37,0,0,0,0-.18s0,0,0,0,.06-.28.09-.32,0-.17-.09-.19,0-.05,0-.08.08,0,0,0h0l0,0a.68.68,0,0,0,0-.15l0,.05,0-.06s0,0,0,0h0a.18.18,0,0,1,0-.11.8.8,0,0,1-.09-.31.46.46,0,0,0-.13-.31s0,.07,0,.09c-.06-.17-.21-.3-.23-.42h0a1.6,1.6,0,0,0-.15-.32l0,0a2.43,2.43,0,0,1-.19-.27c-.07-.1-.14-.17-.22-.18s-.15-.15-.21-.22h0a1,1,0,0,1-.18-.18c-.24-.09-.36-.28-.54-.39h0l-.17-.13c0,.06,0,0-.08-.07a.53.53,0,0,0-.23-.09l-.13-.05c.13.08,0,0-.06.08l-.06-.06s0,.05,0,0-.19-.1-.23-.16h.06a0,0,0,0,1,0,0c-.11,0-.07,0-.06,0s-.19,0-.29,0c.14-.06-.27-.06-.18-.13-.1.06-.06,0-.13,0a.72.72,0,0,1,.33.15l-.11,0c.05.09.22,0,.27.07s-.12,0-.13,0l0-.05a.53.53,0,0,1,.31.15c-.09,0,.1.08,0,.1l-.06,0s0,0,0,0l-.34-.11h0l-.37-.07c0-.06-.16-.11-.11-.15s0,.05-.17,0,.1-.06.14-.07-.09,0-.09-.07-.17.2-.07.23a.2.2,0,0,1,.17,0A4.12,4.12,0,0,0,26.27,15l-.17.18c0-.08,0-.15-.07-.13l.06-.06c-.06,0-.16.19-.25.18l-.09.24s-.07,0-.06-.05-.07.09-.05,0a7.71,7.71,0,0,1-.39.82A2.58,2.58,0,0,0,25,17s0,0-.05,0-.05.1-.07.15.05.12.07.17-.06,0-.07,0c-.06.31,0,.6,0,.85,0,.07.08,0,.09.07-.05-.06-.05,0-.05.09s0,.17,0,.13.08.36.21.29c0,.11,0,.11-.06.08a1.27,1.27,0,0,1,.07.37s.07.19.13.34.15.31.23.34c-.1,0,0,0,0,.11l-.08,0a1.4,1.4,0,0,0,.1.16l0,0s0,0,.08,0a.37.37,0,0,1,.07.2h0l0,.07c0,.05-.09-.22.06-.06,0,0,0,.15.06.17s0-.09,0-.07l.09.11h-.09a5,5,0,0,0,1,.86c0-.06.27.16.29.06h0c-.09-.07.07-.05.13,0s.11.16-.1.07l0,0,.52,0c1.29,0,3.59-.31,4.44-2.38l.1,0A5.31,5.31,0,0,1,30.62,22a.61.61,0,0,1,.14-.07c.07,0,0,0,0,.06s.4-.09.44-.15,0-.07,0-.11,0,.14.2,0c0,0-.07,0-.06,0s.09-.28.18-.29l0,.05c.14,0,.2-.3.28-.23l0,.05c.15-.21.1-.05.25-.26h0c.09-.07.09-.15.18-.13l0,0a1.9,1.9,0,0,0,.19-.21s.07-.06.07-.08.23-.24.26-.29-.07,0-.07,0,.11-.06.12-.16.17.07.26-.09c0,0,0,.05-.06,0s0-.05.05-.06-.05,0-.06,0,.1-.18.2-.34c0,0,0,0-.06,0s0-.26.11-.15c0-.18.09-.38.14-.57a1,1,0,0,0,0-.43s0-.12,0-.18Zm-7.95,1.83s0,0,0,0Zm4.24-6.36Zm1.4.17Zm.1.33.09,0a.4.4,0,0,1-.15-.1l.11,0c-.08-.05-.16,0-.27-.11s0-.11.09-.12a.27.27,0,0,1,.2.13.53.53,0,0,0,.2.2s0-.09.1,0a.51.51,0,0,1,.16.28A3.74,3.74,0,0,0,31.22,14.29Zm1,.79s.05,0,.06,0a.21.21,0,0,1,0,.12Zm.42,5.21v-.08l0,0,0,0h0a.25.25,0,0,0,0-.07.06.06,0,0,1,0,.05h0s.07,0,.06,0Zm.12-4.5-.08-.13.06-.06-.07,0-.08-.12h0a2.06,2.06,0,0,1,.25.18A.27.27,0,0,1,32.76,15.79Zm.39.88c0-.07,0-.14-.07-.21l.08-.22c0,.05,0,.09,0,.14l0,0A.52.52,0,0,1,33.15,16.67Zm.18,1.41s0-.07,0-.1h.09A.47.47,0,0,1,33.33,18.08Z"/><path class="cls-2" d="M41.78,4.91s0,0,0,0a.39.39,0,0,0,.07-.29h0V4.36c-.08,0-.06-.11-.06-.23s0-.26-.09-.28,0-.25,0-.34,0,0,0,0-.11-.27-.14-.37,0-.06.06,0-.09-.4-.14-.44-.07,0-.12,0,.14,0,0-.2c0,0,0,.06,0,0S41,2.39,41,2.31l.05,0c0-.15-.29-.2-.23-.28l.05,0c-.21-.16-.05-.1-.26-.25h0c-.06-.08-.15-.08-.13-.17h0a1.9,1.9,0,0,0-.21-.19s-.05-.07-.08-.07-.24-.22-.29-.25,0,.06,0,.07a.15.15,0,0,0-.15-.13.25.25,0,0,0,0-.12A6.44,6.44,0,0,0,39,.9c-1.29,0-3.59.31-4.44,2.38l-.1,0A5.61,5.61,0,0,1,35.86.74l0,0h.09l.2-.17L36,.56a.52.52,0,0,0-.31.14s.07,0,.09,0c-.17.07-.3.22-.41.24l0,0A1.12,1.12,0,0,0,35,1l0,0-.26.18c-.1.07-.18.15-.18.22s-.16.16-.23.21l0,0a1.48,1.48,0,0,1-.19.18c-.09.23-.28.36-.39.54h0l-.13.17c.06,0,0,0-.06.08a.51.51,0,0,0-.1.24.61.61,0,0,0-.05.12c.08-.12.05,0,.09.06a.23.23,0,0,0-.07.07s0,0,0,0-.1.2-.16.23,0,0,0-.06h0l0,0c0,.1,0,.06-.05.05s0,.19,0,.3c-.06-.14-.06.27-.13.18.06.1,0,.06,0,.12a.86.86,0,0,1,.15-.32l0,.1c.1,0,0-.21.07-.26a.16.16,0,0,0,0,.13l-.05-.05a.57.57,0,0,1,.15-.31c0,.09.08-.09.1,0l0,.06s0,0,0,0-.07.23-.1.34v0l0,.07h0c0,.12-.05.24-.07.37s-.11.16-.15.1.06,0,0,.18-.06-.11-.07-.15,0,.1-.07.1.2.16.23.07a.23.23,0,0,1,0-.17,4.16,4.16,0,0,0,1.18,3.42l.18.16c-.07,0-.15,0-.13.08l-.05-.07c0,.07.18.17.17.25l.24.1s0,.07-.05,0,.1.07,0,.05c.29.11.55.26.82.39a2.44,2.44,0,0,0,.86.26s0,0,0,0,.1.05.16.07l.17-.06c.06,0,0,.05,0,.07.3.06.59,0,.83,0,.08,0,0-.07.08-.09-.06.05,0,.06.1.06s.16,0,.12,0,.36-.09.29-.21c.12,0,.11,0,.08,0a1,1,0,0,1,.37-.06,2.79,2.79,0,0,1,.34-.13.76.76,0,0,0,.34-.23c0,.1,0,0,.11,0l0,.09.16-.1,0,0s0,0,0-.08a.3.3,0,0,1,.2-.06v0l.07,0c.06,0-.21.08-.06-.06,0,0,.16,0,.17-.07s-.09,0-.07,0l.11-.1v.1a4.75,4.75,0,0,0,.86-1c-.06,0,.17-.27.06-.28v0c-.06.08,0-.07,0-.14,0,.1.16-.1.07.11l.12-.14c.11,0,.16-.11.2-.25A1.94,1.94,0,0,1,41.63,6s0,0,0,0c.14-.21.09-.53.12-.58l0,0A.6.6,0,0,0,41.78,4.91ZM35.26,1a.22.22,0,0,1,.1.11l-.13.07-.06-.05,0,.06-.12.09s0,0,0,0A1.08,1.08,0,0,1,35.26,1Zm-.51.55-.1.09s0,0,0,0A.42.42,0,0,1,34.75,1.56Zm-1.22,1.2Zm-.16,1.39h0v0Zm.49-1.49a.92.92,0,0,0,0-.09.36.36,0,0,1-.1.14l0-.11c0,.08,0,.17-.1.27s-.12,0-.13-.09a.27.27,0,0,1,.13-.19.53.53,0,0,0,.2-.2s-.09,0,0-.11a.53.53,0,0,1,.29-.16A3.17,3.17,0,0,0,33.86,2.66ZM39.72,8.4s0,0,0,0Zm.06-7.16,0,0,0,0v0l-.07,0s0,0,.05,0,0,0,0,0,0-.07,0-.07l.12.13Z"/><path class="cls-2" d="M60.46,31.74c0-.3,0-.6,0-.84,0-.08-.07,0-.09-.08.06.06.06,0,.06-.09s0-.17,0-.13-.08-.36-.21-.29c0-.11,0-.11.06-.08a1.21,1.21,0,0,1-.07-.37s-.07-.18-.13-.34-.15-.31-.23-.34c.1.05,0,0,0-.1l.09,0a1.4,1.4,0,0,0-.1-.16l0,0s0,0-.09,0a.45.45,0,0,1-.06-.2h0l0-.07c0-.05.09.22-.06.06,0,0,0-.15-.07-.17s0,.09,0,.07l-.09-.11h.09a4.9,4.9,0,0,0-1-.85s-.28-.17-.29-.07h0c.09.06-.07,0-.14,0,.1,0-.1-.16.11-.06l0,0-.52,0c-1.3,0-3.59.31-4.44,2.39l-.1,0a5.31,5.31,0,0,1,1.59-2.67l-.14.07c-.07,0,0,0,0-.06s-.41.09-.44.15,0,.07,0,.11,0-.14-.2,0c0,0,.07,0,.06,0s-.09.28-.18.29l0-.05c-.15.05-.2.3-.28.23l0-.05c-.15.21-.1.05-.25.26h0c-.09.07-.09.15-.18.14l0,0a2.09,2.09,0,0,0-.2.22s-.06.05-.06.07-.23.24-.26.3c.07-.09.06,0,.07,0s-.11.06-.13.16-.16-.07-.25.09c0,0,.05-.05.05,0s0,.05,0,.06,0,0,.06,0-.1.19-.2.34c0,0,0,0,0,0s0,.25-.1.14c0,.18-.09.39-.14.57a1,1,0,0,0,0,.43s0,.12,0,.18h0c-.09.16,0,.12-.12.32,0-.08.07,0,.11,0l-.09.13.07,0a.2.2,0,0,0,0,.17s0,0,0,0-.06.28-.09.32,0,.17.09.2a.19.19,0,0,0,0,.07s-.08,0,0,0v0h0a.68.68,0,0,0,0,.15l0-.05,0,.06v0h0a.18.18,0,0,1,0,.11.65.65,0,0,1,.08.31.56.56,0,0,0,.11.26,0,0,0,0,1,0,0c.06.17.21.3.23.42h0a1.6,1.6,0,0,0,.15.32l0,0a2.43,2.43,0,0,1,.19.27c.06.09.14.18.22.18s.15.15.21.22h0a1,1,0,0,1,.18.18c.24.09.36.28.54.39h0L54,35c0-.06,0,0,.09.07a.53.53,0,0,0,.23.09l.13.06c-.13-.09,0,0,.06-.09l.06.06s0,0,0,0,.2.1.24.16h-.06a0,0,0,0,1,0,0c.11,0,.06,0,.06,0s.19,0,.29,0c-.14.07.27.06.18.13.1-.05.06,0,.13,0a.72.72,0,0,1-.33-.15l.11,0c0-.09-.22,0-.27-.07s.12,0,.13,0l0,0a.6.6,0,0,1-.32-.15c.1,0-.09-.07,0-.1l.06,0s0,0,0,0l.34.11h0l.37.07c0,.06.16.11.11.15s0-.05.17,0-.11.06-.14.07.09.06.09.07.16-.19.07-.23a.2.2,0,0,1-.17,0,4.09,4.09,0,0,0,3.42-1.18l.16-.18c0,.08,0,.15.08.14l-.06,0c.06,0,.16-.18.24-.18a2.44,2.44,0,0,0,.1-.24s.07,0,.05,0,.08-.09.06,0c.11-.29.26-.55.39-.82a2.59,2.59,0,0,0,.25-.85s0,0,0,0,.06-.09.08-.15-.05-.12-.07-.17S60.44,31.74,60.46,31.74ZM52,31.11s-.07,0-.09,0L52,31S52,31.07,52,31.11Zm.18,1.73a.78.78,0,0,0,0-.14l0,0a.44.44,0,0,1,.07-.27,1.72,1.72,0,0,0,.07.21Zm.52-4.05v.08l0,0,0,0h0a.25.25,0,0,0,0,.07.06.06,0,0,1,0,0h0s-.07,0-.06,0Zm0,4.78a1.48,1.48,0,0,1-.25-.18.27.27,0,0,1,.11-.1l.08.13-.06.06.07,0,.08.12Zm.34.45a.21.21,0,0,1,0-.12.43.43,0,0,0,.09.1S53.06,34,53.05,34Zm1.16,1.1Zm0-.06a.27.27,0,0,1-.2-.13.46.46,0,0,0-.2-.19s0,.09-.1,0a.51.51,0,0,1-.16-.28,3.74,3.74,0,0,0,.53.35s-.07,0-.09,0a.38.38,0,0,1,.15.09l-.11,0c.07.05.16,0,.27.11S54.35,35.05,54.24,35.06Zm1.34.22h0Zm4.24-6.36h0S59.85,29,59.82,28.92Z"/><path class="cls-2" d="M50.12,18.37c.05,0,0-.22,0-.31l0,0a.81.81,0,0,1,0-.27,3,3,0,0,1-.1-.65h0a1.49,1.49,0,0,0,0-.21c0,.06,0-.05,0-.1a.39.39,0,0,0-.1-.24l0-.13c0,.15-.06,0-.11,0v-.09s0,.06,0,0-.07-.21-.05-.28l.05,0h0a.1.1,0,0,1,0,0c-.06-.09,0-.07,0-.07s-.11-.16-.23-.2c.14.06-.14-.23,0-.21-.11,0,0-.05-.12-.07a.67.67,0,0,1,.12.34l-.09-.06c0,.09.14.17.14.24a.14.14,0,0,0-.08-.11h.07a.62.62,0,0,1,.11.33c-.06-.08,0,.12-.06.07l0-.06s0,0,0,0A3.24,3.24,0,0,0,49.3,16h0l0-.06h0l-.19-.31s0-.19,0-.18-.06,0-.13-.11.12,0,.15.05,0-.1,0-.11-.25,0-.21.11l-.11-.12s0,0,0,0h0s0,0,0,0a4.07,4.07,0,0,0-1.38-1h-.17c-1.29,0-3.59.31-4.44,2.38l-.1,0A5.44,5.44,0,0,1,44.22,14h0a2.21,2.21,0,0,0-.79.41s0,0,0,0-.11,0-.16.06,0,.11-.08.16,0,0-.06,0c-.25.16-.41.43-.61.58,0,.07.07,0,0,.12,0-.09-.05,0-.11,0s-.11.12-.11.06c0,.14-.2.32-.06.36-.06.1-.1.05-.09,0a1.17,1.17,0,0,1-.22.3s-.09.18-.16.34a.74.74,0,0,0-.08.4c0-.1,0,0-.09.06l0-.09c0,.06,0,.13,0,.19a.13.13,0,0,0,0,.05s0,0,0,.08,0,.12-.1.19v0l0,.08c0,.06.1-.21.1,0,0,0-.12.11-.09.17,0-.11.06-.09.07-.05s0,.1,0,.15l-.07-.06a5.48,5.48,0,0,0,.09,1.33c.06,0,.07.31.16.24h0c0-.11.08,0,.09.1-.06-.08-.05.18-.12,0a1.09,1.09,0,0,0,0,.18c-.08.08,0,.19,0,.32a1.8,1.8,0,0,1,.2.39,0,0,0,0,1,0,0c.06.25.32.44.32.5h.06a.54.54,0,0,0,.25.4s0,0,0,0a.37.37,0,0,0,.14.25v0a1.7,1.7,0,0,0,.19.19c.05-.06.11,0,.19.13s.18.18.26.13.17.19.24.25h0c0,.13.26.12.36.17s0,.06,0,.07c.16,0,.34.23.41.22s.06-.05.09-.07-.06.12.16.12c0,0-.07,0,0,0s.26-.13.33-.08l-.06,0c.14.07.36-.07.36,0l0,.05c.26,0,.11,0,.36,0h0c.11,0,.17,0,.22,0H46s.08,0,.1,0,.33,0,.38,0c-.11,0-.06,0,0-.06a.15.15,0,0,0,.2,0c0,.08.06.16.25.12,0,0-.08,0-.07,0s.06,0,.08,0,0,0,0-.05.21-.06.39-.09c-.07,0,0,0,0-.07s.2-.16.18,0c.15-.1.34-.19.51-.29a1,1,0,0,0,.33-.27c0-.05.11-.06.16-.1l0,0c.17-.06.12-.07.31-.14-.09,0-.08,0,0-.11l.16,0,0-.06a.24.24,0,0,0,.13-.13s0,0,0,0,.24-.15.29-.16.12-.12.08-.2l.07,0s0,.08.05,0h0l0-.05.09-.12s0,0,0,.06a.64.64,0,0,0,0-.07h0a.22.22,0,0,1,.06-.1.8.8,0,0,1,.16-.28.51.51,0,0,0,.13-.31s0,.08,0,.09c.08-.17.06-.37.13-.46l0,0A1.21,1.21,0,0,0,50,19h0c0-.08.05-.2.07-.31A.35.35,0,0,0,50.12,18.37ZM41.51,17v0S41.54,16.91,41.51,17Zm5.05,5.21h-.17l.06-.06h.08l0,0,.08,0s0,0,0,.05h0S46.58,22.17,46.56,22.18Zm1.9-1a.46.46,0,0,1,.07-.07.45.45,0,0,0,.07.07Zm.43-5.74a.22.22,0,0,1,.11.13Zm.13.16h0v0Zm.85,1.11s0,.07,0,0Zm-.31,3.17,0,.05a.53.53,0,0,1-.24.14,1.86,1.86,0,0,0,.1-.2l.22-.1Zm.14-.71c0-.05,0-.1,0-.14h.08l-.08,0,0-.15,0,0a.86.86,0,0,1,0,.3A.37.37,0,0,1,49.7,19.13Zm.13-.75s0-.09,0-.13a.09.09,0,0,0,0,0A.53.53,0,0,1,49.83,18.38Zm0-.77a4.23,4.23,0,0,0-.11-.62s0,.06,0,.07a.25.25,0,0,1,0-.17.93.93,0,0,0,.05.1c0-.09-.09-.14-.11-.27s.06-.1.15,0a.28.28,0,0,1,0,.24.47.47,0,0,0,0,.27s.06-.07.06.09A.5.5,0,0,1,49.82,17.61Z"/><path class="cls-2" d="M39.54,34.41c-.1,0-.17.14-.24.15a.21.21,0,0,0,.11-.08v.06a.53.53,0,0,1-.34.11c.05,0,0,0-.06,0a2.84,2.84,0,0,1-.54.43.12.12,0,0,0,.1,0,.42.42,0,0,0,.24-.1l.12,0c-.15,0,0-.06,0-.11H39s-.06,0,0,0,.21-.08.28-.06a.07.07,0,0,1,0,0h0c.09,0,.06,0,.07,0s.15-.11.19-.23c-.06.15.23-.15.21,0,0-.11,0,0,.06-.12a.61.61,0,0,1-.33.12Zm-.83.55Z"/><path class="cls-2" d="M41.51,30.16s.05,0,.07,0,0-.12,0,0c-.13-.29-.21-.58-.31-.86a2.29,2.29,0,0,0-.43-.78s0,0,0,0,0-.1-.06-.16l-.16-.07c0-.07,0,0,0-.06-.17-.26-.44-.41-.59-.6-.08,0,0,.06-.12,0,.09,0,0-.05,0-.11s-.13-.11-.07-.11c-.14,0-.31-.2-.35-.06-.11-.05-.06-.1,0-.09a1.17,1.17,0,0,1-.3-.22,2.19,2.19,0,0,1-.34-.15c-.16-.06-.33-.11-.4-.07.1,0,0,0-.07-.09l.09,0-.18,0h0s0,0-.08,0a.26.26,0,0,1-.19-.1h0l-.09,0c-.06,0,.22.09,0,.09,0,0-.1-.11-.17-.08.11,0,.09.05.05.06H37.7l.06-.07a5,5,0,0,0-1.32.11c0,.06-.31.07-.25.16h0c.1,0,0,.08-.1.09.08,0-.19,0,0-.12H36c-.07-.08-.19,0-.31,0a2.48,2.48,0,0,1-.39.21h0c-.25.06-.44.33-.5.33v.06a.57.57,0,0,0-.39.25s0,0,0,0a.34.34,0,0,0-.25.15h0A1.7,1.7,0,0,0,34,28c.06.05,0,.12-.12.2s-.19.18-.14.26-.18.17-.24.24,0,0,0,0-.11.28-.16.37-.06,0-.08,0c0,.16-.21.35-.2.42s0,.05.07.09-.13-.07-.13.16c0,0,0-.07,0-.05s.13.26.08.33V30c-.07.13.07.35,0,.36l0,0c0,.25,0,.1,0,.36h0c0,.11.05.17,0,.22v0a2.81,2.81,0,0,0,0,.29s0,.08,0,.1,0,.33,0,.39c0-.11,0-.06.06,0a.15.15,0,0,0,0,.2c-.08,0-.16.07-.12.25,0,0,0-.07,0-.06s0,.06,0,.08,0,0,.05,0,0,.2.09.38c0-.06,0,0,.07,0s.16.19,0,.17c.1.15.2.34.3.5a.81.81,0,0,0,.28.33s.06.12.09.16l0,0c0,.18.06.12.14.31,0-.09,0-.08.1,0l0,.16.06,0c0,.06.08.09.13.13s0,0,0,0,.16.24.17.29.11.12.2.08l0,.06s-.08,0,0,.06h0l0,0,.11.09.38,0a.37.37,0,0,1,0-.11,1.24,1.24,0,0,0,.2.1h.2c1.3,0,3.59-.31,4.44-2.39l.1,0a5.63,5.63,0,0,1-1.17,2.28l.26-.13h0l.06,0h0l.3-.21c.05,0,.19,0,.18,0s0-.07.11-.14,0,.12-.05.16.11,0,.12,0,0-.25-.12-.22a.17.17,0,0,1-.13.11,4.13,4.13,0,0,0,1.59-3.25,1.94,1.94,0,0,0,0-.24c.06.05.11.1.15,0v.08c.07,0,0-.25.05-.3ZM33.2,31.74a.06.06,0,0,0,0,0s0,.06-.05,0v-.18l.05.06s0,0,0,0v0l0,0a.31.31,0,0,0,0,.08A.06.06,0,0,1,33.2,31.74Zm1,2v-.14l.07.07A.16.16,0,0,0,34.23,33.76Zm4.06-7.15h0S38.35,26.64,38.29,26.61Zm1.5,7.5h0Z"/><polygon class="cls-2" points="39.07 34.57 39.07 34.58 39.07 34.58 39.07 34.57"/><path class="cls-2" d="M23,30.52s.06,0,.07,0,0-.12,0,0c-.13-.29-.21-.57-.31-.86a2.29,2.29,0,0,0-.43-.78s0,0,0,0,0-.1-.06-.16l-.16-.07c0-.07,0,0,0-.06-.17-.25-.44-.4-.59-.6-.07,0,0,.07-.11,0,.08,0,0-.05,0-.11s-.12-.11-.07-.11c-.14,0-.31-.19-.35-.05-.11-.06-.05-.11,0-.1l-.21-.14-.54,0c-1.29,0-3.59.31-4.44,2.39l-.1,0a5.28,5.28,0,0,1,1.63-2.71.35.35,0,0,0-.26.07,2.48,2.48,0,0,1-.39.21s0,0,0,0c-.24.06-.43.32-.5.33l0,0a.6.6,0,0,0-.4.25s0,0,0,0a.4.4,0,0,0-.25.15h0l-.18.19c.06,0,0,.12-.13.2s-.18.18-.13.26-.18.17-.24.24v0c-.12,0-.11.27-.16.37s-.06,0-.07,0c0,.16-.22.35-.21.42s.05.05.07.09-.13-.07-.12.16c0,0,0-.07,0-.05s.14.27.09.33l0-.05c-.07.14.07.35,0,.36l0,0c0,.26,0,.11,0,.36h0c0,.11,0,.17,0,.22v0a1.37,1.37,0,0,0,0,.28s0,.09,0,.11,0,.33,0,.38c0-.11,0-.06.06,0a.14.14,0,0,0,0,.19c-.08,0-.16.07-.12.26,0,0,0-.08,0-.07s0,.06,0,.08,0,0,.05,0,0,.21.09.38c0-.06,0,0,.07,0s.16.19,0,.17c.1.15.2.34.3.51a.93.93,0,0,0,.28.32s.06.12.1.17l0,0a2.08,2.08,0,0,0,.14.32c0-.1,0-.08.11,0l0,.15.06,0a.4.4,0,0,0,.13.13s0,0,0,0,.15.23.16.28.12.12.2.08l0,.07s-.07,0,0,.05h0l.05,0a.48.48,0,0,0,.12.1H16.5l.07,0h0a.18.18,0,0,1,.1.06.7.7,0,0,1,.28.15.46.46,0,0,0,.32.13s-.08,0-.09,0c.17.07.36.06.46.12l0,0a1.6,1.6,0,0,0,.33.11v0l.32.06a.36.36,0,0,0,.28,0s.22,0,.3,0l0,0a1.2,1.2,0,0,1,.27,0,3.11,3.11,0,0,1,.65-.1h0l.21,0c-.06,0,0,0,.1,0a.51.51,0,0,0,.24-.1l.12,0c-.14,0,0-.06,0-.11h.09s-.06,0,0-.05.21-.07.28,0a.09.09,0,0,1,0,0h0c.09-.06.06,0,.07,0s.15-.11.19-.23c-.06.15.23-.15.21,0,0-.11,0,0,.06-.12a.61.61,0,0,1-.33.12l.06-.08c-.1,0-.17.13-.24.14s.11-.06.11-.08v.07a.68.68,0,0,1-.34.11c.08-.06-.11,0-.07-.06l.07,0s0,0,0,0l.33-.17h0l.05,0h0l.3-.2s.2,0,.18,0,0-.07.11-.13,0,.11,0,.15.1,0,.11,0,0-.25-.11-.21a.21.21,0,0,1-.14.11l.14-.11.11-.11c0,.05,0,0,.05,0v0l0,0a4.17,4.17,0,0,0,1.33-3c0-.08,0-.16,0-.24s.1.1.14,0v.08c.06,0,0-.25,0-.3A2.44,2.44,0,0,0,23,30.52Zm-8.3,1.58s0,0,0,0,0,.06-.05,0v-.18a.17.17,0,0,0,.06.06v.08l0,0a.24.24,0,0,0,0,.08A.06.06,0,0,1,14.73,32.1Zm1,2V34l.07.07Zm1.31,1h0a.49.49,0,0,1-.15-.23l.2.09a2.22,2.22,0,0,0,.11.22Zm1,.22a2.07,2.07,0,0,1-.3.05.2.2,0,0,1,0-.15l.14,0v.08l0-.08.14,0A0,0,0,0,1,18.08,35.29Zm.56.07a.21.21,0,0,1-.11,0h.14Zm1.34,0a.5.5,0,0,0-.28,0s.08.06-.08.07a.5.5,0,0,1-.31-.09,3.14,3.14,0,0,0,.61-.12l-.07,0a.29.29,0,0,1,.18,0l-.1,0c.09,0,.13-.09.26-.12s.1.07,0,.15A.24.24,0,0,1,20,35.31Zm.26,0Zm1.08-.85h0Z"/></svg>