<svg viewBox="0 0 22 24" xmlns="http://www.w3.org/2000/svg"><path d="m19.68 21.53h-2.05-.78a25 25 0 0 0 -3.46.21c-.28 0-.57 0-.86 0l-2.53.26-3.54.22a19.87 19.87 0 0 0 -2 .07 1.65 1.65 0 0 1 -.62-.07c-.38-.08-.79.12-1.13-.16l.24-1.14a6.43 6.43 0 0 1 1.17-2.3 2.2 2.2 0 0 1 .64-.62 21.29 21.29 0 0 1 2.75-1.36 3.25 3.25 0 0 0 .43-.18 2.9 2.9 0 0 0 1.73-3.42 7.27 7.27 0 0 0 -.31-1.22 10 10 0 0 1 -.53-3.24 15.86 15.86 0 0 1 .33-3.44 11.4 11.4 0 0 1 .6-1.79.67.67 0 0 1 .12-.2 6.18 6.18 0 0 1 1.78-1.52 1.44 1.44 0 0 1 .6-.15 2.26 2.26 0 0 1 2.45 1.69 6.93 6.93 0 0 1 .4 2.63v.63a9.42 9.42 0 0 1 -.92 4.34 3.61 3.61 0 0 1 -1.41 1.65 6.34 6.34 0 0 1 -1.55.75.54.54 0 0 0 -.22.09.39.39 0 0 0 -.15.24.36.36 0 0 0 .13.26 1 1 0 0 0 .75.14c.21 0 .41-.09.62-.14s.37-.07.37.25a3.64 3.64 0 0 0 .54 1.79 2.31 2.31 0 0 0 .94.92 7.93 7.93 0 0 0 2.29.81 2.51 2.51 0 0 1 .8.31c.46.31.94.58 1.38.91a3.48 3.48 0 0 1 1.32 2.45c0 .24 0 .32-.31.33m-12.69-13.53a.13.13 0 0 1 -.12 0 .38.38 0 0 1 -.12-.41s.08-.05.12-.08.1 0 .12.07a.34.34 0 0 1 0 .42m9.25-.84s.11-.08.18-.1.07.07.08.12a2.62 2.62 0 0 1 0 .33 4.16 4.16 0 0 1 -.17.48s-.12.06-.19.05-.08-.08-.07-.12a6.71 6.71 0 0 1 .13-.76m2.43 10a19.31 19.31 0 0 0 -1.84-.69c-.52-.19-1.05-.35-1.55-.56a4.37 4.37 0 0 1 -.89-.51 1.66 1.66 0 0 1 -.73-1.16 1.74 1.74 0 0 1 .37-1.41 6.81 6.81 0 0 0 1.42-2.7 1.82 1.82 0 0 1 .13-.37.47.47 0 0 1 .21-.21 1.63 1.63 0 0 0 1.1-1.55c0-.4 0-.79 0-1.18a1 1 0 0 0 -.3-.79.65.65 0 0 1 -.19-.33 8.46 8.46 0 0 1 -.14-1 6.77 6.77 0 0 0 -.92-2.9 2.48 2.48 0 0 0 -1-1 3.92 3.92 0 0 0 -1.64-.5 4.27 4.27 0 0 0 -3.73 1.6 7.1 7.1 0 0 0 -1.58 3.71.39.39 0 0 1 -.36.39 1.23 1.23 0 0 0 -.86.95 2.92 2.92 0 0 0 0 1.63c.09.3.23.59.34.88a1.18 1.18 0 0 0 .67.74 1 1 0 0 1 .66.79c.12.45.3.89.45 1.34a6.16 6.16 0 0 1 .18 2.26.67.67 0 0 1 -.48.65l-2.5 1a15.18 15.18 0 0 0 -3 1.56 4.74 4.74 0 0 0 -1.84 2.86v2.36a.6.6 0 0 0 .53.6 11.73 11.73 0 0 0 1.33.12h1.94c1.26 0 2.57-.11 3.89-.11 2.1 0 4.2-.14 6.3-.23.73 0 1.46-.1 2.2-.15h.31l2.71-.25h.55a.93.93 0 0 0 1-1.08 6 6 0 0 0 -.91-3.06 3.92 3.92 0 0 0 -1.81-1.58"/></svg>