<svg id="Layer_1" data-name="Layer 1" xmlns="http://www.w3.org/2000/svg" viewBox="0 0 75 65"><defs><style>.cls-1{fill:#5d5e5e;}.cls-2{fill:#6d2158;}</style></defs><title>ibiza-footer</title><path class="cls-1" d="M30.52,64c0,.5.06.56.41.59a0,0,0,1,1,0,.07l-.62,0-.61,0s0-.07,0-.07c.29,0,.37-.07.38-.59,0-.2,0-.86,0-1.06,0-.45,0-1,0-1.21,0-.61-.11-.61-.38-.65,0,0-.05-.06,0-.06h1.14c.05,0,0,.05,0,.06-.25,0-.32,0-.33.65,0,.17,0,.8,0,1.21C30.5,63.13,30.51,63.79,30.52,64Z"/><path class="cls-1" d="M32.49,61.71c0-.46,0-.62-.44-.64,0,0,0-.06,0-.06h.57c.23,0,.44,0,.7,0,.69,0,1,.38,1,.8a.9.9,0,0,1-.62.86c.66.11,1,.48,1,1,0,.68-.54,1-1.2,1-.27,0-.62,0-.8,0l-.55,0c-.05,0,0-.07,0-.07.34,0,.37-.14.39-.63,0-.28,0-.82,0-1C32.5,62.52,32.5,62.14,32.49,61.71Zm.65-.56c-.23,0-.23,0-.23.08s0,1.11,0,1.44h.27a.94.94,0,0,0,.34,0,.63.63,0,0,0,.35-.6C33.9,61.5,33.67,61.17,33.14,61.15Zm0,1.66h-.26c0,.27,0,.69,0,1s0,.37,0,.47,0,.15.11.19a.86.86,0,0,0,.44.08.71.71,0,0,0,.75-.75A.93.93,0,0,0,33.18,62.81Z"/><path class="cls-1" d="M36.58,64c0,.5.07.56.41.59a0,0,0,1,1,0,.07l-.62,0-.6,0c-.05,0,0-.07,0-.07.29,0,.36-.07.37-.59,0-.2,0-.86,0-1.06,0-.45,0-1,0-1.21,0-.61-.11-.61-.37-.65,0,0-.05-.06,0-.06h1.14s0,.05,0,.06c-.26,0-.33,0-.34.65v1.21C36.57,63.13,36.58,63.79,36.58,64Z"/><path class="cls-1" d="M39.54,64.45a6.43,6.43,0,0,0,.9,0c.38-.06.54-.26.62-.77,0,0,.07,0,.07,0a4.37,4.37,0,0,1,0,.79c-.07.21-.24.24-.6.23s-.92,0-1.43,0h-.89c-.1,0-.12,0-.13,0s0,0,0-.06l1.18-1.69,1.18-1.66a11,11,0,0,0-1.41,0c-.45,0-.6.24-.66.67,0,0-.07,0-.07,0a3.6,3.6,0,0,1,0-.58c0-.19.06-.28.23-.3s.51,0,1,0H41c.06,0,.13,0,0,.1-.27.31-.69.87-1.32,1.76-.35.5-.8,1.17-1,1.47-.07.09-.06.1,0,.1Z"/><path class="cls-1" d="M43.6,61c0-.09,0-.1.08-.1s0,0,.06.1c.16.49.72,2,1.17,3.11.13.34.23.4.5.43,0,0,.05.07,0,.07l-.63,0-.52,0s0-.07,0-.07c.22,0,.27-.09.18-.35s-.21-.66-.34-1H43c-.09.23-.26.67-.35,1s.06.35.25.37a0,0,0,1,1,0,.07l-.52,0-.54,0s0-.07,0-.07a.54.54,0,0,0,.47-.33A13.27,13.27,0,0,0,42.82,63Zm-.06.67c-.07.17-.17.4-.27.66l-.26.68h1C43.89,62.61,43.73,62.18,43.54,61.71Z"/><path class="cls-1" d="M.12,50a.07.07,0,0,1,.13,0C.32,51.18.9,51.92,2,51.92A1.45,1.45,0,0,0,3.59,50.5c0-1-.65-1.44-1.75-2A2.49,2.49,0,0,1,.21,46.18,1.93,1.93,0,0,1,2.38,44.3a3.76,3.76,0,0,1,1.12.16.56.56,0,0,1,.43.69c0,.17-.08.65-.11.91,0,.09-.13.06-.13,0a1.45,1.45,0,0,0-1.45-1.47A1.25,1.25,0,0,0,.86,45.91,2,2,0,0,0,2.2,47.65c1.51.77,2.13,1.41,2.1,2.57a2.16,2.16,0,0,1-2.41,2A3.39,3.39,0,0,1,.51,52,.81.81,0,0,1,0,51.3,4.26,4.26,0,0,1,.12,50Z"/><path class="cls-1" d="M9.32,50.67c0,1,.14,1.17.86,1.23a.07.07,0,1,1,0,.13L8.89,52,7.63,52c-.1,0-.08-.13,0-.13.6-.09.76-.16.78-1.23,0-.41,0-1.78,0-2.19,0-.95,0-2.12,0-2.53,0-1.27-.23-1.27-.78-1.34-.08,0-.11-.14,0-.14.33,0,.9,0,1.26,0l1.1,0c.1,0,.09.12,0,.14-.52.09-.67.11-.69,1.34,0,.36,0,1.68,0,2.52C9.29,48.89,9.31,50.26,9.32,50.67Z"/><path class="cls-1" d="M16.15,48.64c-.48.75-1.13,1.87-1.47,2.5s-.28.69.37.76c.08,0,.11.13,0,.13L14,52l-1.14,0a.07.07,0,1,1,0-.13A1.34,1.34,0,0,0,14,51.19c.62-.86,1.36-2,2-2.93-.63-1-1.35-2.17-1.88-3-.34-.51-.5-.64-1-.68-.08,0-.11-.14,0-.14.38,0,.84,0,1.15,0s.8,0,1.24,0c.11,0,.08.14,0,.14-.55.06-.55.24-.34.63.38.69.83,1.5,1.32,2.34.46-.73.88-1.48,1.22-2.16s.27-.74-.17-.81c-.08,0-.11-.14,0-.14l1.05,0,.91,0a.07.07,0,1,1,0,.14c-.35,0-.58.07-1,.7-.65.93-1.28,1.85-1.74,2.61.61,1,1.56,2.49,2.13,3.3.35.5.58.64,1,.68a.07.07,0,0,1,0,.13l-1.15,0-1.16,0a.07.07,0,0,1,0-.13c.48,0,.47-.24.25-.63C17.42,50.69,16.71,49.59,16.15,48.64Z"/><path class="cls-1" d="M27.5,50c0-.09.14-.07.14,0,.06,1.18.64,1.92,1.69,1.92A1.45,1.45,0,0,0,31,50.5c0-1-.64-1.44-1.75-2a2.49,2.49,0,0,1-1.63-2.31,1.94,1.94,0,0,1,2.18-1.88,3.82,3.82,0,0,1,1.12.16.56.56,0,0,1,.42.69c0,.17-.08.65-.11.91,0,.09-.13.06-.13,0a1.45,1.45,0,0,0-1.45-1.47,1.24,1.24,0,0,0-1.37,1.32,2,2,0,0,0,1.33,1.74c1.51.77,2.14,1.41,2.1,2.57a2.16,2.16,0,0,1-2.41,2A3.43,3.43,0,0,1,27.89,52a.83.83,0,0,1-.5-.66A5,5,0,0,1,27.5,50Z"/><path class="cls-1" d="M36.68,50.85c0,.73.17.77.81.78h1c1,0,1.22-.67,1.36-1.44,0-.08.15-.09.15,0A11,11,0,0,1,40,51.68c-.05.27-.26.36-.72.36s-1.72,0-2.87,0L35,52c-.1,0-.08-.13,0-.13.65-.07.78-.18.8-1.23,0-.85,0-1.71,0-2.57s0-1.4,0-2.17c0-1,0-1.23-.84-1.32-.08,0-.11-.14,0-.14.41,0,1,0,1.43,0,.77,0,1.91,0,2.55,0,.36,0,.55,0,.53.31s-.07.75-.14,1.17c0,.08-.15.08-.14,0,0-.61-.21-1-.83-1.06a15.2,15.2,0,0,0-1.68,0c0,1,0,1.94,0,3a17.31,17.31,0,0,0,2,0c.35,0,.34-.13.43-.12s0,.06,0,.3a4.84,4.84,0,0,1-.13.75c0,.08-.14.08-.14,0,0-.49-.31-.49-.81-.51-.22,0-1,0-1.37,0C36.65,48.89,36.66,50.08,36.68,50.85Z"/><path class="cls-1" d="M50.44,51.9c0,.22,0,.25,0,.27s-.09,0-.26-.21c-.78-.89-1.6-1.78-3.08-3.28-1.17-1.18-2.11-2.15-2.62-2.62,0,.93,0,3.26.11,5,0,.49.23.81,1,.88.09,0,.11.13,0,.13l-1.29,0-1,0a.07.07,0,1,1,0-.13c.44-.09.6-.2.64-.82.1-1.35.13-3.28.13-4.28,0-.66,0-1.46,0-2.17,0-.18,0-.23,0-.24s.09,0,.26.19c.9,1,1.89,2.05,3.1,3.26,1.06,1.06,2,2,2.61,2.59,0-1.44,0-3-.06-4.7,0-.89-.15-1-.83-1.12a.07.07,0,1,1,0-.14l1.11,0,.91,0c.1,0,.07.14,0,.14-.46.07-.58.4-.61,1C50.49,47.44,50.44,49.23,50.44,51.9Z"/><path class="cls-1" d="M54.86,50A.07.07,0,0,1,55,50c.07,1.18.65,1.92,1.7,1.92a1.45,1.45,0,0,0,1.64-1.42c0-1-.64-1.44-1.75-2A2.49,2.49,0,0,1,55,46.18a1.94,1.94,0,0,1,2.18-1.88,3.88,3.88,0,0,1,1.12.16.56.56,0,0,1,.42.69c0,.17-.08.65-.11.91,0,.09-.13.06-.13,0A1.45,1.45,0,0,0,57,44.59a1.25,1.25,0,0,0-1.38,1.32,2,2,0,0,0,1.34,1.74c1.51.77,2.13,1.41,2.1,2.57a2.16,2.16,0,0,1-2.41,2A3.39,3.39,0,0,1,55.25,52a.83.83,0,0,1-.5-.66A4.6,4.6,0,0,1,54.86,50Z"/><path class="cls-1" d="M64,50.85c0,.73.17.77.8.78h1c1,0,1.21-.67,1.36-1.44,0-.08.15-.09.15,0a11,11,0,0,1-.06,1.49c0,.27-.26.36-.72.36s-1.72,0-2.88,0l-1.37,0a.07.07,0,1,1,0-.13c.64-.07.78-.18.8-1.23,0-.85,0-1.71,0-2.57s0-1.4,0-2.17c0-1,0-1.23-.84-1.32-.08,0-.11-.14,0-.14.4,0,1,0,1.43,0,.76,0,1.91,0,2.55,0,.36,0,.55,0,.53.31s-.08.75-.14,1.17c0,.08-.16.08-.14,0,0-.61-.21-1-.83-1.06a15.2,15.2,0,0,0-1.68,0c0,1,0,1.94,0,3a17.31,17.31,0,0,0,2,0c.35,0,.34-.13.43-.12s0,.06,0,.3a4,4,0,0,1-.12.75c0,.08-.14.08-.14,0,0-.49-.31-.49-.81-.51-.22,0-1,0-1.37,0C64,48.89,64,50.08,64,50.85Z"/><path class="cls-1" d="M70.82,50c0-.09.14-.07.14,0,.06,1.18.64,1.92,1.69,1.92a1.45,1.45,0,0,0,1.64-1.42c0-1-.64-1.44-1.75-2a2.49,2.49,0,0,1-1.63-2.31,1.94,1.94,0,0,1,2.18-1.88,3.82,3.82,0,0,1,1.12.16.56.56,0,0,1,.42.69c0,.17-.08.65-.11.91,0,.09-.13.06-.13,0a1.45,1.45,0,0,0-1.45-1.47,1.24,1.24,0,0,0-1.37,1.32,2,2,0,0,0,1.33,1.74c1.51.77,2.13,1.41,2.1,2.57a2.16,2.16,0,0,1-2.41,2A3.43,3.43,0,0,1,71.21,52a.83.83,0,0,1-.5-.66A5,5,0,0,1,70.82,50Z"/><path class="cls-2" d="M59.55,34.34s0,0,.05,0S59.57,34.31,59.55,34.34Z"/><polygon class="cls-2" points="58.89 34.72 59 34.7 58.97 34.7 58.89 34.72"/><path class="cls-2" d="M58.73,34.84c-.08.08-.26.09-.28.18.07-.06.25-.11.36-.18l-.07,0Z"/><path class="cls-2" d="M58.22,35.3l.06,0v0C58.14,35.31,58.23,35.27,58.22,35.3Z"/><path class="cls-2" d="M58.28,35.28s.06,0,0,0Z"/><path class="cls-2" d="M58,35.43s0,0,.06-.06H58S57.93,35.44,58,35.43Z"/><path class="cls-2" d="M57.93,35.35h0S57.93,35.36,57.93,35.35Z"/><path class="cls-2" d="M58,35.34s0,0,0,0H58S58,35.33,58,35.34Z"/><path class="cls-2" d="M58.08,35.25c.09,0,0,0,0,.06C58.24,35.25,58.24,35.2,58.08,35.25Z"/><path class="cls-2" d="M58.44,34.92l0,0s.08-.06.11-.06Z"/><path class="cls-2" d="M57.47,35.57s.06,0,.09-.06h-.07S57.46,35.56,57.47,35.57Z"/><path class="cls-2" d="M57.39,35.5h.1S57.47,35.48,57.39,35.5Z"/><path class="cls-2" d="M57.85,35.28h0Z"/><path class="cls-2" d="M57.05,35.63l.11,0-.06,0Z"/><path class="cls-2" d="M56.85,35.66a.27.27,0,0,1-.19,0,.48.48,0,0,0,.18,0S56.89,35.69,56.85,35.66Z"/><path class="cls-2" d="M57.16,35.59a.15.15,0,0,0,.07-.05h0Z"/><polygon class="cls-2" points="57.11 35.56 57.19 35.54 57.19 35.54 57.11 35.56"/><path class="cls-2" d="M57.54,35.32c-.1.07,0,.07.08.07S57.59,35.34,57.54,35.32Z"/><path class="cls-2" d="M57.37,35.44l-.1,0h.11S57.37,35.45,57.37,35.44Z"/><polygon class="cls-2" points="57.24 35.48 57.27 35.47 57.22 35.47 57.24 35.48"/><path class="cls-2" d="M56.77,35.57l-.17,0a.77.77,0,0,1,.15,0C56.81,35.61,56.78,35.59,56.77,35.57Z"/><polygon class="cls-2" points="56.07 35.58 56.07 35.57 56.06 35.58 56.07 35.58"/><path class="cls-2" d="M56.78,35.56h.1A.16.16,0,0,0,56.78,35.56Z"/><path class="cls-2" d="M56.5,35.62l-.08,0S56.48,35.63,56.5,35.62Z"/><path class="cls-2" d="M57,35.58h-.07l.06,0Z"/><path class="cls-2" d="M56.16,35.63a.51.51,0,0,1,.14,0h-.23A.15.15,0,0,0,56.16,35.63Z"/><path class="cls-2" d="M56.5,35.61h0s-.07,0,0,0a1.18,1.18,0,0,0-.19,0l.2,0Z"/><path class="cls-2" d="M56.5,35.61h0l.1,0h-.11c.14,0-.11-.06.09-.06-.08,0,0-.05-.16-.05s0,.07.07.11v0Z"/><path class="cls-2" d="M57.42,35.27s0,0,0,0S57.4,35.27,57.42,35.27Z"/><path class="cls-2" d="M57.35,35.3a.42.42,0,0,0-.07.13s.07-.08.14-.11h0c.08,0,0,0,0,0s0,0,0,0S57.37,35.3,57.35,35.3Z"/><path class="cls-2" d="M56.77,35.45h.16s0-.05-.09,0v0Z"/><path class="cls-2" d="M56,35.57l.09.08,0,0Z"/><polygon class="cls-2" points="55.78 35.58 55.83 35.61 55.83 35.57 55.78 35.58"/><path class="cls-2" d="M52.1,32.09c-.05,0,0,.07.08.13a.21.21,0,0,1,0-.12Z"/><path class="cls-2" d="M53.7,34.65a.32.32,0,0,0,.13.07S53.77,34.68,53.7,34.65Z"/><path class="cls-2" d="M55.29,27h0S55.26,27,55.29,27Z"/><path class="cls-2" d="M53.7,34.65a.36.36,0,0,1-.11-.1h0A.2.2,0,0,0,53.7,34.65Z"/><path class="cls-2" d="M55,35.38Z"/><path class="cls-2" d="M55.08,35.41h0S55.08,35.42,55.08,35.41Z"/><path class="cls-2" d="M54.93,35.36l.06,0h0Z"/><path class="cls-2" d="M52.45,33l0,.05Z"/><path class="cls-2" d="M55.43,35.51h-.09l.09,0S55.43,35.51,55.43,35.51Z"/><path class="cls-2" d="M56.34,35.38v0h0C56.24,35.35,56.28,35.38,56.34,35.38Z"/><path class="cls-2" d="M55.68,35.4h0c-.06,0-.11,0-.13,0S55.69,35.46,55.68,35.4Z"/><path class="cls-2" d="M55.77,35.42h-.06S55.77,35.44,55.77,35.42Z"/><path class="cls-2" d="M54.88,35.34s0,0,0,0S54.9,35.41,54.88,35.34Z"/><polygon class="cls-2" points="55.58 35.27 55.6 35.32 55.64 35.27 55.58 35.27"/><path class="cls-2" d="M55.24,35.19l-.11,0s.07,0,.13,0S55.23,35.2,55.24,35.19Z"/><path class="cls-2" d="M55.26,35.22l.08,0Z"/><path class="cls-2" d="M54,34.61l.09.08s0,0,0-.06S54,34.59,54,34.61Z"/><polygon class="cls-2" points="59.7 34.22 59.74 34.13 59.71 34.15 59.7 34.22"/><path class="cls-2" d="M59.57,34.21s0,0,0,.06h.08Z"/><path class="cls-2" d="M46.13,13.68s0,0,0,0S46.09,13.68,46.13,13.68Z"/><polygon class="cls-2" points="46.86 13.88 46.77 13.82 46.78 13.84 46.86 13.88"/><path class="cls-2" d="M47.05,13.91c.12,0,.25.13.33.08a2.87,2.87,0,0,1-.38-.13l0,.07Z"/><path class="cls-2" d="M47.75,14l-.06,0h0C47.8,14,47.72,14,47.75,14Z"/><path class="cls-2" d="M47.69,13.94c.05,0-.07,0,0,0Z"/><path class="cls-2" d="M48,14s0,0-.08,0l.07.06C48,14.08,48,14.07,48,14Z"/><path class="cls-2" d="M48,14.16s0,0,0,0Z"/><path class="cls-2" d="M47.94,14.11c0,.05,0,0,0,0l-.08-.06S47.94,14.13,47.94,14.11Z"/><path class="cls-2" d="M47.85,14.06c-.15-.08-.19,0-.05,0C47.73,14,47.8,14.05,47.85,14.06Z"/><path class="cls-2" d="M47.27,14l0,0h.06S47.29,14.05,47.27,14Z"/><path class="cls-2" d="M48.46,14.31s-.07,0-.11,0l0,0S48.46,14.33,48.46,14.31Z"/><path class="cls-2" d="M48.46,14.42l-.06-.07S48.39,14.38,48.46,14.42Z"/><path class="cls-2" d="M48,14.26a1.85,1.85,0,0,1-.14-.14l.11.12Z"/><path class="cls-2" d="M48.79,14.57l0-.1,0,.06Z"/><path class="cls-2" d="M49.11,14.81a.47.47,0,0,0-.1-.16s-.07,0,0,0A.31.31,0,0,1,49.11,14.81Z"/><path class="cls-2" d="M48.69,14.52a.1.1,0,0,0-.09,0l0,0Z"/><polygon class="cls-2" points="48.7 14.58 48.63 14.53 48.63 14.53 48.7 14.58"/><path class="cls-2" d="M48.23,14.43c.12,0,0,0,0-.1S48.21,14.39,48.23,14.43Z"/><path class="cls-2" d="M48.44,14.47l.09,0-.08-.09S48.44,14.46,48.44,14.47Z"/><polygon class="cls-2" points="48.56 14.54 48.53 14.52 48.56 14.56 48.56 14.54"/><path class="cls-2" d="M48.94,14.81l.14.11A.54.54,0,0,1,49,14.8C48.94,14.76,49,14.8,48.94,14.81Z"/><polygon class="cls-2" points="49.44 15.31 49.43 15.31 49.45 15.32 49.44 15.31"/><path class="cls-2" d="M48.93,14.81h0a.71.71,0,0,0-.07-.09A.12.12,0,0,0,48.93,14.81Z"/><path class="cls-2" d="M49.17,15l.07,0S49.2,15,49.17,15Z"/><path class="cls-2" d="M48.84,14.67h0S48.86,14.67,48.84,14.67Z"/><path class="cls-2" d="M48.82,14.68l0,.05s0,0,0-.05Z"/><path class="cls-2" d="M49.42,15.21l-.14-.07,0,0h0l.14.15A.15.15,0,0,0,49.42,15.21Z"/><path class="cls-2" d="M49.17,15l-.09-.06a.27.27,0,0,1,.07.08c-.12-.08,0,.12-.09,0,0,.06,0,.06.06.15s0-.07,0-.13v0h0s0,0,0,0l.13.14a1,1,0,0,0-.12-.16Z"/><path class="cls-2" d="M48.28,14.56h0S48.29,14.57,48.28,14.56Z"/><path class="cls-2" d="M48.28,14.56s0,0,0,0a.09.09,0,0,1,.05.06l.14,0a.37.37,0,0,1-.18,0h0C48.22,14.48,48.26,14.54,48.28,14.56Z"/><path class="cls-2" d="M48.79,14.86v0l.08,0-.1-.12S48.72,14.81,48.79,14.86Z"/><path class="cls-2" d="M49.5,15.27l0,.05,0,.07Z"/><polygon class="cls-2" points="49.63 15.46 49.6 15.49 49.64 15.52 49.63 15.46"/><path class="cls-2" d="M49.71,20.59s0-.07,0-.15a.2.2,0,0,1-.06.11Z"/><path class="cls-2" d="M50.43,17.66s0-.09,0-.15S50.4,17.59,50.43,17.66Z"/><path class="cls-2" d="M43.85,21.83s0,0,0,.05S43.87,21.85,43.85,21.83Z"/><path class="cls-2" d="M50.43,17.66a.65.65,0,0,1,0,.14,0,0,0,0,0,0,0A.2.2,0,0,0,50.43,17.66Z"/><path class="cls-2" d="M50.05,16.23s0-.05,0,0Z"/><path class="cls-2" d="M50,16.14l0,0S50,16.13,50,16.14Z"/><path class="cls-2" d="M50.08,16.28l0-.05h0Z"/><path class="cls-2" d="M49.89,15.89l0-.09s0,0,0,0A.22.22,0,0,1,49.89,15.89Z"/><path class="cls-2" d="M49.66,15.81c0-.08,0-.15-.08-.1h0C49.61,15.76,49.62,15.82,49.66,15.81Z"/><path class="cls-2" d="M49.53,15.64a.1.1,0,0,1,0,0S49.55,15.62,49.53,15.64Z"/><path class="cls-2" d="M50.1,16.33s0,0,0,.05S50.13,16.27,50.1,16.33Z"/><polygon class="cls-2" points="49.58 15.82 49.52 15.83 49.56 15.88 49.58 15.82"/><path class="cls-2" d="M49.74,16.18l.06.08s0-.06,0-.12S49.75,16.18,49.74,16.18Z"/><path class="cls-2" d="M49.75,16.14l0-.07A.13.13,0,0,0,49.75,16.14Z"/><path class="cls-2" d="M50.13,17.39s0,.07,0,.06v-.12S50.14,17.36,50.13,17.39Z"/><polygon class="cls-2" points="45.94 13.66 45.84 13.68 45.88 13.7 45.94 13.66"/><path class="cls-2" d="M46.09,13.75,46,13.69l0,.07S46.08,13.75,46.09,13.75Z"/><path class="cls-2" d="M26.44,14.8s0-.05-.05,0S26.42,14.83,26.44,14.8Z"/><polygon class="cls-2" points="27.1 14.42 26.99 14.44 27.01 14.45 27.1 14.42"/><path class="cls-2" d="M27.25,14.3c.08-.08.27-.09.28-.18a4,4,0,0,1-.36.18l.08,0Z"/><path class="cls-2" d="M27.77,13.83l-.06,0h0C27.85,13.83,27.76,13.87,27.77,13.83Z"/><path class="cls-2" d="M27.71,13.86s-.06,0,0,0Z"/><path class="cls-2" d="M28,13.71s0,0-.05.06H28S28.05,13.69,28,13.71Z"/><path class="cls-2" d="M28.05,13.79h.05A0,0,0,0,0,28.05,13.79Z"/><path class="cls-2" d="M28,13.8s0,0,0,0h0Z"/><path class="cls-2" d="M27.9,13.89c-.09,0,0,0,0-.06C27.75,13.88,27.75,13.94,27.9,13.89Z"/><path class="cls-2" d="M27.55,14.22l0-.05s-.07.05-.1.06Z"/><path class="cls-2" d="M28.52,13.57s-.06,0-.09.07h.07S28.53,13.58,28.52,13.57Z"/><path class="cls-2" d="M28.6,13.64h-.1S28.52,13.66,28.6,13.64Z"/><path class="cls-2" d="M28.14,13.86h0Z"/><path class="cls-2" d="M28.93,13.51l-.1,0,.06,0Z"/><path class="cls-2" d="M29.14,13.48a.31.31,0,0,1,.18,0,.48.48,0,0,0-.18,0C29.19,13.42,29.09,13.45,29.14,13.48Z"/><path class="cls-2" d="M28.83,13.55s-.07,0-.07,0h0Z"/><polygon class="cls-2" points="28.88 13.58 28.8 13.6 28.8 13.6 28.88 13.58"/><path class="cls-2" d="M28.45,13.81c.09-.06,0-.06-.08-.07S28.4,13.8,28.45,13.81Z"/><path class="cls-2" d="M28.62,13.7l.09,0H28.6S28.62,13.68,28.62,13.7Z"/><polygon class="cls-2" points="28.75 13.65 28.71 13.66 28.76 13.67 28.75 13.65"/><path class="cls-2" d="M29.21,13.57l.18,0a.61.61,0,0,1-.15,0C29.18,13.53,29.21,13.55,29.21,13.57Z"/><polygon class="cls-2" points="29.91 13.56 29.91 13.57 29.92 13.56 29.91 13.56"/><path class="cls-2" d="M29.2,13.57h-.09A.09.09,0,0,0,29.2,13.57Z"/><path class="cls-2" d="M29.49,13.52l.08,0S29.51,13.51,29.49,13.52Z"/><path class="cls-2" d="M29,13.56h.08l-.06,0Z"/><path class="cls-2" d="M29.83,13.5a.37.37,0,0,1-.15.05h.23S29.9,13.53,29.83,13.5Z"/><path class="cls-2" d="M29.48,13.53h0s.06,0,0,0,0,0,0,0h0l-.1,0h.1c-.14,0,.11.06-.08,0,.07,0,0,.06.16.06s0-.07-.07-.11h.18l-.19,0Z"/><path class="cls-2" d="M28.57,13.87h0S28.58,13.87,28.57,13.87Z"/><path class="cls-2" d="M28.64,13.84a.52.52,0,0,0,.07-.12.5.5,0,0,1-.15.1h0c-.08,0,0,0,0,0s0,0,0,0A.09.09,0,0,1,28.64,13.84Z"/><path class="cls-2" d="M29.22,13.69h-.16s0,.05.08,0v0Z"/><path class="cls-2" d="M30,13.57l-.09-.08,0,0Z"/><polygon class="cls-2" points="30.21 13.56 30.16 13.53 30.16 13.57 30.21 13.56"/><path class="cls-2" d="M33.81,16.92a.35.35,0,0,1,0,.12h0S33.86,17,33.81,16.92Z"/><path class="cls-2" d="M32.29,14.49a.32.32,0,0,0-.13-.07S32.22,14.46,32.29,14.49Z"/><path class="cls-2" d="M30.7,22.12h0S30.73,22.12,30.7,22.12Z"/><path class="cls-2" d="M32.29,14.49a.55.55,0,0,1,.11.1h0A.22.22,0,0,0,32.29,14.49Z"/><path class="cls-2" d="M31,13.76Z"/><path class="cls-2" d="M30.9,13.73h0S30.9,13.72,30.9,13.73Z"/><path class="cls-2" d="M31.06,13.78l-.06,0h0Z"/><path class="cls-2" d="M30.56,13.64h.08l-.09,0S30.56,13.62,30.56,13.64Z"/><path class="cls-2" d="M29.65,13.76v0h0C29.75,13.79,29.71,13.77,29.65,13.76Z"/><path class="cls-2" d="M30.3,13.74h0c.07,0,.12,0,.14,0S30.29,13.68,30.3,13.74Z"/><path class="cls-2" d="M30.22,13.72h.06S30.21,13.7,30.22,13.72Z"/><path class="cls-2" d="M31.1,13.79s0,.05,0,.05S31.09,13.73,31.1,13.79Z"/><polygon class="cls-2" points="30.41 13.87 30.38 13.82 30.35 13.87 30.41 13.87"/><path class="cls-2" d="M30.75,13.94l.1,0s-.06,0-.12,0Z"/><path class="cls-2" d="M30.73,13.92l-.08,0Z"/><path class="cls-2" d="M32,14.53l-.08-.08s0,0,0,.06S32,14.55,32,14.53Z"/><polygon class="cls-2" points="26.29 14.92 26.24 15.01 26.27 14.99 26.29 14.92"/><path class="cls-2" d="M26.42,14.93s0,0,0-.06h-.08Z"/><path class="cls-2" d="M34.66,7.85s0,0,0-.06S34.62,7.79,34.66,7.85Z"/><polygon class="cls-2" points="34.31 7.24 34.32 7.22 34.29 7.14 34.31 7.24"/><path class="cls-2" d="M34,6.7a4,4,0,0,1,.18.36l0-.07h0C34.09,6.9,34.08,6.72,34,6.7Z"/><path class="cls-2" d="M33.71,6.47l0,0h0C33.7,6.39,33.74,6.47,33.71,6.47Z"/><path class="cls-2" d="M33.73,6.52s0,.07,0,0Z"/><path class="cls-2" d="M33.58,6.27s0,0,.06.05V6.23S33.57,6.18,33.58,6.27Z"/><path class="cls-2" d="M33.66,6.18v0S33.65,6.18,33.66,6.18Z"/><path class="cls-2" d="M33.66,6.18v.1s0-.07,0,0S33.67,6.19,33.66,6.18Z"/><path class="cls-2" d="M33.7,6.33c.06.16.11.16.06,0C33.77,6.42,33.73,6.37,33.7,6.33Z"/><path class="cls-2" d="M34.09,6.68l-.05,0s.05.07.06.1Z"/><path class="cls-2" d="M33.51,5.8V5.74s-.06,0-.07,0S33.49,5.77,33.51,5.8Z"/><path class="cls-2" d="M33.51,5.74s0,0,0-.1Z"/><path class="cls-2" d="M33.73,6.09v0a1.21,1.21,0,0,0,0,.19A.49.49,0,0,1,33.73,6.09Z"/><path class="cls-2" d="M33.37,5.35v0s0,.07,0,.11Z"/><path class="cls-2" d="M33.32,4.91a.48.48,0,0,0,0,.18s0,0,.07,0A.34.34,0,0,1,33.32,4.91Z"/><path class="cls-2" d="M33.47,5.47v0l0,0S33.46,5.47,33.47,5.47Z"/><polygon class="cls-2" points="33.45 5.36 33.47 5.44 33.47 5.44 33.45 5.36"/><path class="cls-2" d="M33.62,5.87c0-.09.05,0,.07-.08S33.62,5.81,33.62,5.87Z"/><path class="cls-2" d="M33.53,5.63s0,0,0,0l0-.1Z"/><polygon class="cls-2" points="33.53 5.49 33.54 5.52 33.54 5.47 33.53 5.49"/><path class="cls-2" d="M33.44,5a1,1,0,0,0,0-.17.59.59,0,0,1,0,.14C33.4,5.06,33.43,5,33.44,5Z"/><polygon class="cls-2" points="33.43 4.32 33.44 4.32 33.43 4.31 33.43 4.32"/><path class="cls-2" d="M33.45,5a0,0,0,0,0,0,0v.11A.16.16,0,0,0,33.45,5Z"/><path class="cls-2" d="M33.4,4.74l0-.07S33.38,4.72,33.4,4.74Z"/><path class="cls-2" d="M33.43,5.2a.15.15,0,0,0,0-.07.14.14,0,0,0,0,.06Z"/><path class="cls-2" d="M33.37,4.41a.34.34,0,0,1,.05.14v0a1.48,1.48,0,0,0,0-.21S33.4,4.34,33.37,4.41Z"/><path class="cls-2" d="M33.4,4.74a.43.43,0,0,0,0,.11.41.41,0,0,1,0-.11c0,.14,0-.11,0,.08,0-.07.05,0,.05-.15s-.07,0-.11.07h0s0,0,0,0h0s0-.07,0,0a.58.58,0,0,0,0-.19,1.36,1.36,0,0,0,0,.2Z"/><path class="cls-2" d="M33.74,5.66h0S33.75,5.65,33.74,5.66Z"/><path class="cls-2" d="M33.74,5.66s0,0,0,0a.08.08,0,0,1,0-.07.31.31,0,0,0-.12-.07.51.51,0,0,1,.11.14v0C33.73,5.76,33.74,5.69,33.74,5.66Z"/><path class="cls-2" d="M33.56,5v.16s0,0,0-.08h0Z"/><path class="cls-2" d="M33.44,4.22l-.08.09,0,0Z"/><polygon class="cls-2" points="33.43 4.03 33.4 4.08 33.44 4.08 33.43 4.03"/><path class="cls-2" d="M36.92.35s-.07,0-.13.08l.12,0Z"/><path class="cls-2" d="M34.36,1.94a.91.91,0,0,0-.07.14S34.33,2,34.36,1.94Z"/><path class="cls-2" d="M42,3.54s0,0,0,0S42,3.51,42,3.54Z"/><path class="cls-2" d="M34.36,1.94l.1-.1s0,0,0,0A.2.2,0,0,0,34.36,1.94Z"/><path class="cls-2" d="M33.63,3.23s0,0,0,0Z"/><path class="cls-2" d="M33.6,3.33v0S33.59,3.33,33.6,3.33Z"/><path class="cls-2" d="M33.65,3.18l0,0v0A.64.64,0,0,1,33.65,3.18Z"/><path class="cls-2" d="M33.51,3.68s0,0,0-.09l0,.09S33.49,3.67,33.51,3.68Z"/><path class="cls-2" d="M33.63,4.59h0a.06.06,0,0,1,0,0C33.66,4.49,33.64,4.53,33.63,4.59Z"/><path class="cls-2" d="M33.62,3.81c0,.06-.07.13,0,.12h0C33.63,3.88,33.66,3.82,33.62,3.81Z"/><path class="cls-2" d="M33.6,4s0,.06,0,.06S33.6,4,33.6,4Z"/><path class="cls-2" d="M33.71,3.11c.1-.16-.11,0,0,0S33.71,3.14,33.71,3.11Z"/><polygon class="cls-2" points="33.74 3.89 33.74 3.83 33.69 3.85 33.74 3.89"/><path class="cls-2" d="M33.84,3.38s0,.06-.05.12l0,0A.36.36,0,0,1,33.84,3.38Z"/><path class="cls-2" d="M33.76,3.59s0,0,0-.09A.94.94,0,0,1,33.76,3.59Z"/><path class="cls-2" d="M34.38,2.34s0-.06,0-.06l-.08.09S34.36,2.36,34.38,2.34Z"/><polygon class="cls-2" points="34.79 7.94 34.88 7.99 34.86 7.96 34.79 7.94"/><path class="cls-2" d="M34.74,7.77v.08l.06,0S34.76,7.78,34.74,7.77Z"/><path class="cls-2" d="M42,30.88s0,0,0,0S42,30.84,42,30.88Z"/><polygon class="cls-2" points="41.81 31.61 41.87 31.53 41.85 31.53 41.81 31.61"/><path class="cls-2" d="M41.79,31.81c0,.11-.13.25-.08.32a3.46,3.46,0,0,1,.13-.38l-.07,0Z"/><path class="cls-2" d="M41.75,32.5a.39.39,0,0,0,0-.06v0C41.7,32.56,41.73,32.47,41.75,32.5Z"/><path class="cls-2" d="M41.77,32.44c0,.05,0-.06,0,0Z"/><path class="cls-2" d="M41.7,32.65l-.07.07c0,.06,0,.08.07,0S41.7,32.67,41.7,32.65Z"/><path class="cls-2" d="M41.58,32.73l0,0A0,0,0,0,0,41.58,32.73Z"/><path class="cls-2" d="M41.61,32.7c-.06,0,0,0,0,0l.06-.07S41.58,32.7,41.61,32.7Z"/><path class="cls-2" d="M41.65,32.6c.08-.15,0-.19,0,0C41.67,32.49,41.66,32.55,41.65,32.6Z"/><path class="cls-2" d="M41.67,32l0,0v.07S41.65,32.05,41.67,32Z"/><path class="cls-2" d="M41.37,33.16s0,.06,0,.06,0-.07,0-.11Z"/><path class="cls-2" d="M41.3,33.22l.07-.06S41.34,33.15,41.3,33.22Z"/><path class="cls-2" d="M41.47,32.75l0,0,.14-.15Z"/><path class="cls-2" d="M41.15,33.55l.11,0-.07,0Z"/><path class="cls-2" d="M41,33.72a.26.26,0,0,1-.11.15.43.43,0,0,0,.16-.09S41.08,33.71,41,33.72Z"/><path class="cls-2" d="M41.2,33.45c0-.05,0-.08,0-.09l0,0Z"/><polygon class="cls-2" points="41.14 33.46 41.19 33.4 41.19 33.39 41.14 33.46"/><path class="cls-2" d="M41.39,33c-.08,0-.06,0-.11,0S41.34,33,41.39,33Z"/><path class="cls-2" d="M41.25,33.2l0,.09.08-.08S41.26,33.21,41.25,33.2Z"/><polygon class="cls-2" points="41.18 33.32 41.2 33.29 41.16 33.32 41.18 33.32"/><path class="cls-2" d="M40.92,33.71a.76.76,0,0,0-.11.14.44.44,0,0,1,.11-.09S40.93,33.71,40.92,33.71Z"/><polygon class="cls-2" points="40.43 34.21 40.42 34.21 40.42 34.22 40.43 34.21"/><path class="cls-2" d="M40.92,33.7s0,0,0,0l.07-.08A.16.16,0,0,0,40.92,33.7Z"/><path class="cls-2" d="M40.75,33.94a.25.25,0,0,1,0,.07S40.75,34,40.75,33.94Z"/><path class="cls-2" d="M41.05,33.6h0Z"/><path class="cls-2" d="M41.05,33.59l-.06,0,.06,0Z"/><path class="cls-2" d="M40.52,34.19a.6.6,0,0,1,.07-.14l0,0h0l-.15.14S40.46,34.22,40.52,34.19Z"/><path class="cls-2" d="M40.75,33.93h0s-.06,0,0,0h0l.06-.09-.08.07c.08-.12-.12,0,0-.1-.06,0-.06,0-.15.07s.07,0,.13,0l-.14.13a1,1,0,0,0,.16-.12Z"/><path class="cls-2" d="M41.15,33h0S41.14,33.05,41.15,33Z"/><path class="cls-2" d="M41.13,33.11a.47.47,0,0,0,0,.14.45.45,0,0,1,0-.18h0c0-.08,0,0-.06,0s0,0,0,0S41.14,33.1,41.13,33.11Z"/><path class="cls-2" d="M40.86,33.56v0l0,.09.12-.11S40.91,33.49,40.86,33.56Z"/><path class="cls-2" d="M40.35,34.28h.11l0,0Z"/><polygon class="cls-2" points="40.22 34.42 40.27 34.41 40.24 34.38 40.22 34.42"/><path class="cls-2" d="M35.15,34.56s.06,0,.14,0l-.1-.06Z"/><path class="cls-2" d="M38.09,35.24a.48.48,0,0,0,.14-.05S38.16,35.2,38.09,35.24Z"/><path class="cls-2" d="M33.82,28.72s0,0,0,0S33.8,28.74,33.82,28.72Z"/><path class="cls-2" d="M38.09,35.24h-.18A.22.22,0,0,0,38.09,35.24Z"/><path class="cls-2" d="M39.52,34.84Z"/><path class="cls-2" d="M39.6,34.79l0,0S39.61,34.8,39.6,34.79Z"/><path class="cls-2" d="M39.46,34.86l.06,0s0,0,0,0Z"/><path class="cls-2" d="M39.92,34.61a.22.22,0,0,1-.07.06l.09,0S39.92,34.62,39.92,34.61Z"/><path class="cls-2" d="M40.47,33.88v0l0,0S40.43,33.92,40.47,33.88Z"/><path class="cls-2" d="M39.93,34.45c.07,0,.14-.05.09-.09h0C40,34.39,39.92,34.41,39.93,34.45Z"/><path class="cls-2" d="M40.1,34.31l-.05,0S40.12,34.33,40.1,34.31Z"/><path class="cls-2" d="M39.37,34.87c-.18.05.1.05.05,0S39.39,34.85,39.37,34.87Z"/><polygon class="cls-2" points="39.91 34.35 39.9 34.3 39.86 34.34 39.91 34.35"/><path class="cls-2" d="M39.59,34.53h0l-.09.06S39.54,34.56,39.59,34.53Z"/><path class="cls-2" d="M38.35,34.94s-.07,0-.05,0h.11S38.38,34.94,38.35,34.94Z"/><polygon class="cls-2" points="42 30.6 41.98 30.63 42.02 30.69 42 30.6"/><path class="cls-2" d="M41.93,30.85l.06-.06-.06,0A.11.11,0,0,1,41.93,30.85Z"/><path class="cls-2" d="M23.53,31.24s0,0,0,0S23.53,31.2,23.53,31.24Z"/><polygon class="cls-2" points="23.34 31.98 23.4 31.89 23.38 31.9 23.34 31.98"/><path class="cls-2" d="M23.31,32.17c0,.12-.12.25-.07.33,0-.1.1-.26.13-.39l-.07,0Z"/><path class="cls-2" d="M23.28,32.86a.39.39,0,0,0,0-.06h0C23.23,32.92,23.26,32.83,23.28,32.86Z"/><path class="cls-2" d="M23.3,32.8c0,.05,0-.06,0,0Z"/><path class="cls-2" d="M23.23,33l-.06.07c0,.06,0,.08.06,0S23.23,33,23.23,33Z"/><path class="cls-2" d="M23.11,33.1l0,0S23.11,33.11,23.11,33.1Z"/><path class="cls-2" d="M23.14,33.06c-.05,0,0,0,0,0l.06-.08S23.11,33.06,23.14,33.06Z"/><path class="cls-2" d="M23.18,33c.08-.15,0-.19,0,0C23.21,32.85,23.19,32.91,23.18,33Z"/><path class="cls-2" d="M23.2,32.39l0,0v.06S23.18,32.41,23.2,32.39Z"/><path class="cls-2" d="M22.9,33.52s0,.06,0,.06,0-.07,0-.11Z"/><path class="cls-2" d="M22.83,33.59l.07-.07S22.87,33.51,22.83,33.59Z"/><path class="cls-2" d="M23,33.11v0l.13-.15Z"/><path class="cls-2" d="M22.69,33.92l.1-.05-.06,0Z"/><path class="cls-2" d="M22.57,34.08a.34.34,0,0,1-.12.16.47.47,0,0,0,.16-.1S22.62,34.07,22.57,34.08Z"/><path class="cls-2" d="M22.74,33.82a.16.16,0,0,0,0-.09l0,0Z"/><polygon class="cls-2" points="22.68 33.83 22.72 33.76 22.72 33.76 22.68 33.83"/><path class="cls-2" d="M22.92,33.35c-.07,0-.06,0-.1,0S22.87,33.38,22.92,33.35Z"/><path class="cls-2" d="M22.78,33.56l-.05.09.09-.08S22.79,33.57,22.78,33.56Z"/><polygon class="cls-2" points="22.71 33.68 22.73 33.65 22.69 33.68 22.71 33.68"/><path class="cls-2" d="M22.45,34.07a1.34,1.34,0,0,0-.11.14.54.54,0,0,1,.12-.09S22.46,34.08,22.45,34.07Z"/><polygon class="cls-2" points="21.96 34.57 21.95 34.57 21.95 34.58 21.96 34.57"/><path class="cls-2" d="M22.45,34.06s0,0,0,0l.07-.07A.13.13,0,0,0,22.45,34.06Z"/><path class="cls-2" d="M22.28,34.3l0,.07S22.28,34.33,22.28,34.3Z"/><path class="cls-2" d="M22.59,34h0Z"/><path class="cls-2" d="M22.58,34l-.06,0,.06,0Z"/><path class="cls-2" d="M22.06,34.55a.32.32,0,0,1,.07-.13l0,0h0l-.15.13S22,34.59,22.06,34.55Z"/><path class="cls-2" d="M22.29,34.29h0s-.05,0,0,0h0l.06-.09a.27.27,0,0,1-.08.07c.08-.12-.12,0,0-.1-.06,0-.06,0-.15.08s.08,0,.13,0a.51.51,0,0,0-.13.13l.16-.13Z"/><path class="cls-2" d="M22.69,33.4h0S22.68,33.41,22.69,33.4Z"/><path class="cls-2" d="M22.66,33.47a.39.39,0,0,0,0,.14.39.39,0,0,1,0-.18h0c0-.08,0,0,0,0s0,0,0,0S22.68,33.47,22.66,33.47Z"/><path class="cls-2" d="M22.39,33.92h0l0,.08.11-.11S22.44,33.85,22.39,33.92Z"/><path class="cls-2" d="M21.88,34.64H22l-.05,0Z"/><polygon class="cls-2" points="21.75 34.78 21.81 34.77 21.78 34.74 21.75 34.78"/><path class="cls-2" d="M16.68,34.92s.07,0,.15,0a.2.2,0,0,1-.11-.06Z"/><path class="cls-2" d="M19.62,35.6l.15,0S19.69,35.57,19.62,35.6Z"/><path class="cls-2" d="M15.36,29.08s0,0,0,0S15.33,29.1,15.36,29.08Z"/><path class="cls-2" d="M19.62,35.6h-.18A.22.22,0,0,0,19.62,35.6Z"/><path class="cls-2" d="M23.43,30.55a.25.25,0,0,1,0,.08S23.44,30.56,23.43,30.55Z"/><path class="cls-2" d="M21.05,35.2Z"/><path class="cls-2" d="M21.14,35.16l0,0Z"/><path class="cls-2" d="M21,35.23l.06,0h0Z"/><path class="cls-2" d="M21.45,35s0,0-.07.07l.09,0S21.46,35,21.45,35Z"/><path class="cls-2" d="M21.46,34.81c.07,0,.14-.05.1-.09h0S21.45,34.77,21.46,34.81Z"/><path class="cls-2" d="M21.63,34.67s0,0-.05,0S21.65,34.69,21.63,34.67Z"/><path class="cls-2" d="M20.9,35.23c-.18.05.1.05.05,0S20.92,35.21,20.9,35.23Z"/><polygon class="cls-2" points="21.44 34.72 21.43 34.66 21.39 34.7 21.44 34.72"/><path class="cls-2" d="M21,35s.06,0,.12-.06h0Z"/><path class="cls-2" d="M21.13,34.89l.07,0Z"/><path class="cls-2" d="M19.89,35.3s-.07,0-.06,0H20S19.92,35.3,19.89,35.3Z"/><polygon class="cls-2" points="23.53 30.96 23.52 30.99 23.55 31.05 23.53 30.96"/><path class="cls-2" d="M23.47,31.21l.06-.05-.07,0A.22.22,0,0,1,23.47,31.21Z"/><path class="cls-2" d="M33.76,18.35a2.76,2.76,0,0,0,.12-.32c-.06.08-.07,0-.11,0l.08-.13-.06,0a.33.33,0,0,0,0-.17s0,0,0,0,0-.28.09-.32,0-.17-.09-.19,0-.05,0-.08.08,0,.05,0h0l-.05,0a.68.68,0,0,0,0-.15l0,.05,0-.06s0,0,0,0h0a.18.18,0,0,1,0-.11.8.8,0,0,1-.09-.31.46.46,0,0,0-.13-.31s0,.07,0,.09c-.07-.18-.21-.3-.23-.42h0a1.2,1.2,0,0,0-.16-.32l0,0c0-.06-.11-.17-.18-.27s-.14-.17-.22-.18-.15-.15-.21-.22h0a.75.75,0,0,1-.18-.18c-.24-.09-.36-.28-.54-.39h0l-.17-.13c0,.06,0,0-.08-.07a.52.52,0,0,0-.24-.09l-.12-.05c.13.08,0,0-.06.08l-.06-.06s0,0,0,0-.2-.1-.23-.16h.06l0,0c-.1,0-.06,0,0-.05s-.19,0-.29,0c.14-.06-.27-.06-.18-.13-.1.06-.06,0-.13,0a.72.72,0,0,1,.33.15l-.11,0c0,.09.22,0,.27.07s-.12,0-.13,0l0-.05a.57.57,0,0,1,.31.15c-.09,0,.1.08,0,.1l-.07,0a0,0,0,0,0,0,0l-.34-.11h-.06l-.36-.07c0-.06-.16-.11-.11-.15s0,.05-.17,0,.1-.06.14-.07-.09-.05-.1-.07-.16.2-.06.23a.2.2,0,0,1,.17,0A4.12,4.12,0,0,0,26.59,15l-.16.18c0-.08,0-.15-.07-.14l.06,0c-.07,0-.17.19-.25.18a2.34,2.34,0,0,0-.09.24s-.07,0-.06-.05-.07.09-.05,0c-.11.29-.26.55-.39.82a2.37,2.37,0,0,0-.25.86s0,0,0,0-.05.09-.07.15,0,.12.07.17-.06,0-.07,0c-.06.31,0,.6,0,.84,0,.08.08,0,.09.08-.05-.06-.05,0-.05.09s0,.17,0,.13.08.36.21.29c0,.11,0,.11-.06.08a1.21,1.21,0,0,1,.07.37s.06.19.13.34a.72.72,0,0,0,.23.34c-.1-.05,0,0,0,.11l-.08,0a1.4,1.4,0,0,0,.1.16.11.11,0,0,0,0,0s0,0,.08,0a.37.37,0,0,1,.07.2h0l0,.07c0,.05-.08-.22.07-.06,0,0,0,.15.06.17s0-.09,0-.07l.1.11h-.09a4.65,4.65,0,0,0,1,.85c0-.05.27.17.29.07h0c-.09-.07.06,0,.13,0-.09,0,.11.16-.1.06l.05.05.52,0c1.29,0,3.59-.31,4.44-2.39l.1,0A5.31,5.31,0,0,1,31,22l.14-.07c.07,0,.05,0,0,.06.11-.11.4-.09.44-.15s0-.07,0-.11,0,.14.2,0c0,0-.07,0-.06,0s.09-.28.18-.29l0,0c.14,0,.2-.3.28-.23l0,0c.15-.21.1,0,.25-.26h0c.09-.07.08-.15.18-.13l0,0a1.37,1.37,0,0,0,.19-.22.12.12,0,0,0,.07-.07c.06,0,.23-.24.26-.29s-.07,0-.07,0,.11-.06.12-.16.17.07.26-.09c0,0,0,.05-.06,0s0-.05,0-.06,0,0-.06,0,.1-.19.2-.34c-.05,0,0,0-.06,0s0-.25.11-.14c0-.18.09-.38.14-.57a1,1,0,0,0,0-.43s0-.12,0-.18Zm-7.95,1.83s0-.05,0,0Zm4.24-6.36Zm1.4.17Zm.1.33s.07,0,.08,0-.11-.06-.14-.09l.11,0c-.08,0-.16,0-.27-.11,0,0,0-.11.09-.12a.29.29,0,0,1,.2.13.46.46,0,0,0,.2.2s0-.1.1,0a.51.51,0,0,1,.16.28A4.41,4.41,0,0,0,31.55,14.32Zm1,.79s.05,0,.06,0a1,1,0,0,1,0,.12ZM33,20.32v-.08l0,0,0,0h0l0-.07a.06.06,0,0,1,0,.05h0s.06,0,.06,0Zm.12-4.5L33,15.69l.06-.06-.07,0-.08-.12h0s.23.17.25.18A.27.27,0,0,1,33.09,15.82Zm.39.88c0-.07,0-.14-.07-.21l.08-.22c0,.05,0,.09,0,.14l0,0A.52.52,0,0,1,33.48,16.7Zm.18,1.41s0-.07,0-.1h.09Z"/><path class="cls-2" d="M42.11,4.94s0,0,0,0a.39.39,0,0,0,.07-.29h0V4.39c-.08,0-.07-.11-.06-.23s0-.26-.09-.28,0-.25,0-.34,0,0,0,0-.11-.27-.14-.37,0-.06.06,0-.09-.4-.14-.44-.08,0-.12,0,.14-.05,0-.2c0,0,0,.06,0,0s-.28-.09-.3-.17l0,0c0-.15-.3-.2-.23-.29h0c-.21-.16,0-.1-.26-.25h0c-.06-.08-.15-.08-.13-.17h0a1.9,1.9,0,0,0-.21-.19s-.05-.07-.08-.07-.24-.22-.29-.25,0,.06,0,.07a.15.15,0,0,0-.15-.13.25.25,0,0,0,0-.12,6.44,6.44,0,0,0-.75,0c-1.3,0-3.59.31-4.44,2.38l-.1,0A5.5,5.5,0,0,1,36.19.77l0,0h.09l.2-.17-.13,0A.47.47,0,0,0,36,.73s.07,0,.09,0c-.17.07-.3.22-.42.24v0a1.12,1.12,0,0,0-.31.15l0,0c-.06.05-.17.11-.27.18s-.17.15-.17.22-.16.16-.23.21v0a1,1,0,0,1-.18.18c-.09.23-.28.36-.39.54h0L34,2.55c.06,0,0,0-.06.08a.51.51,0,0,0-.1.24.61.61,0,0,0,0,.12c.08-.12,0,0,.08.06l-.06.07s.05,0,0,0-.1.2-.16.23,0,0,0-.06h0l0,0c0,.1,0,.06-.05,0,0,.14,0,.19,0,.3-.06-.14-.06.27-.13.18.06.1,0,.06,0,.12,0-.12.1-.23.15-.32l0,.1c.1,0,0-.21.07-.26s0,.12,0,.13l-.05,0a.57.57,0,0,1,.15-.31c0,.09.08-.09.1,0l0,.06s0,0,0,0-.08.23-.11.34v0l0,.07h0c0,.12-.05.24-.07.37s-.11.16-.15.1,0,0,0,.18-.06-.11-.07-.15,0,.1-.07.1.2.16.23.07a.23.23,0,0,1,0-.17,4.16,4.16,0,0,0,1.18,3.42l.18.16c-.07,0-.15,0-.13.08l-.05-.07c0,.07.18.17.17.25l.24.1s0,.07-.05.05.09.07,0,0c.29.11.55.26.82.39a2.44,2.44,0,0,0,.86.26s0,0,0,0,.1.05.16.07L37.23,9c.06,0,0,0,0,.07.31.06.6,0,.84,0,.08,0,0-.07.08-.09-.06.05,0,.06.09.06s.17,0,.13,0,.36-.09.29-.21c.12,0,.11,0,.08.05a1,1,0,0,1,.37-.06,2.79,2.79,0,0,1,.34-.13.76.76,0,0,0,.34-.23c0,.1,0,0,.11,0l0,.09.16-.1,0,0s0,0,0-.08a.29.29,0,0,1,.2-.06v0l.07-.05c.06,0-.21.08-.06-.06,0,0,.15,0,.17-.07s-.09,0-.07,0l.11-.1v.1a4.75,4.75,0,0,0,.86-1c-.06,0,.17-.27.06-.28v0c-.07.08-.05-.07,0-.14,0,.1.16-.1.07.11l.12-.14c.11,0,.16-.11.19-.25A2.7,2.7,0,0,1,42,6s0,0,0,0c.14-.21.09-.53.12-.58l0,0A.6.6,0,0,0,42.11,4.94ZM35.59,1a.22.22,0,0,1,.1.11l-.13.07-.06-.05,0,.06-.11.09s0,0,0,0A1.08,1.08,0,0,1,35.59,1Zm-.51.55-.1.09s0,0,0-.05Zm-1.22,1.2h0S33.88,2.71,33.86,2.79ZM33.7,4.18h0v0Zm.49-1.49a.92.92,0,0,0,0-.09.36.36,0,0,1-.1.14l0-.11c0,.08,0,.17-.11.27s-.11,0-.12-.09a.27.27,0,0,1,.13-.19.57.57,0,0,0,.2-.21s-.09,0,0-.1a.51.51,0,0,1,.28-.16A3.84,3.84,0,0,0,34.19,2.69Zm5.86,5.74s0,0,0,0Zm.06-7.16,0,0,0,0v0L40,1.2s0,0,0,0,0,0,0,0,0-.07,0-.07l.12.13Z"/><path class="cls-2" d="M60.78,31.77a8,8,0,0,0,0-.84c0-.08-.07,0-.09-.08.06.06.06,0,.06-.09s0-.17,0-.13-.09-.36-.21-.29c0-.11,0-.11.05-.08a1.59,1.59,0,0,1-.06-.37,2.79,2.79,0,0,1-.13-.34.82.82,0,0,0-.23-.34c.1.05,0,0,0-.1l.09,0a1.4,1.4,0,0,0-.1-.16s0,0,0,0,0,0-.08,0,0-.12-.06-.2h0L60,28.64c0-.05.09.22-.06.06,0,0,0-.15-.07-.17s0,.09,0,.07l-.09-.11h.08a4.59,4.59,0,0,0-1-.85c0,.05-.28-.17-.29-.07h0c.09.06-.07,0-.14,0,.1,0-.1-.16.11-.06l-.05-.05-.52,0c-1.3,0-3.59.31-4.44,2.39l-.1,0A5.26,5.26,0,0,1,55,27.12a.42.42,0,0,1-.13.07c-.07,0-.06,0,0-.06s-.4.09-.43.15,0,.07,0,.11,0-.14-.2,0c0,0,.07,0,.06,0s-.1.28-.18.29l0-.05c-.15.05-.2.3-.28.23l0-.05c-.16.21-.1.05-.25.26h0c-.09.06-.09.15-.18.14l0,0a2,2,0,0,0-.2.21s-.06.06-.06.08-.23.24-.26.3.06,0,.07,0-.11.06-.13.16-.16-.07-.26.09c0,0,.06-.05.06,0s0,.05,0,.06,0,0,.06,0-.1.19-.2.34c0,0,0,0,0,0s0,.25-.1.14c0,.18-.1.39-.14.57a1,1,0,0,0,0,.43s0,.12,0,.18h0c-.09.16,0,.12-.12.32,0-.08.07-.05.11,0l-.09.13.07,0a.2.2,0,0,0,0,.17s0,0,0,0-.05.28-.08.32,0,.17.09.2a.19.19,0,0,0,0,.07s-.08,0-.06,0h0l.05,0a.68.68,0,0,0,0,.15l0-.05,0,.06v0h0a.13.13,0,0,1,0,.11.56.56,0,0,1,.09.31.6.6,0,0,0,.11.26.06.06,0,0,1,0,0c.07.17.22.3.24.42h0a1.28,1.28,0,0,0,.15.31l0,0c0,.06.11.17.18.27s.15.18.23.18.15.15.2.22h0a1,1,0,0,1,.18.18c.23.09.36.28.54.39h0l.16.13c0-.06,0,0,.09.06a.44.44,0,0,0,.23.1l.13.05c-.13-.08,0,0,0-.08l.07.06s0,0,0,0,.2.1.24.16h-.06v0c.11,0,.06,0,.05.05s.19,0,.3,0c-.14.06.27.06.18.13.1-.05.06,0,.13,0a.84.84,0,0,1-.33-.15l.11,0c-.05-.09-.22,0-.27-.07s.12,0,.13,0l0,.05A.57.57,0,0,1,55,35.2c.1,0-.09-.08,0-.1l.06,0s0,0,0,0l.34.11h0l.37.07c0,.06.16.11.11.15s0-.05.17,0-.11.06-.14.07.09.06.09.07.16-.19.07-.23a.2.2,0,0,1-.17,0,4.12,4.12,0,0,0,3.42-1.18l.16-.18c0,.08,0,.15.08.13l-.06.06c.06,0,.16-.19.24-.18a2.44,2.44,0,0,0,.1-.24s.07,0,.05.05.08-.09.06,0c.11-.29.25-.55.38-.82a2.38,2.38,0,0,0,.26-.86s0,0,0,0,.06-.09.07-.15l-.06-.17C60.74,31.72,60.77,31.77,60.78,31.77Zm-8.46-.64h-.09l.1-.1S52.32,31.1,52.32,31.13Zm.18,1.74s0-.09,0-.14l0,0a.5.5,0,0,1,.06-.26l.08.21Zm.52-4v.08l0,0,0,0h0A.25.25,0,0,0,53,29s0,0,0-.05h0s-.07,0-.06,0Zm0,4.77a1.08,1.08,0,0,1-.25-.17.27.27,0,0,1,.11-.1.83.83,0,0,1,.07.13l0,.06.07,0a.83.83,0,0,0,.08.12Zm.34.46a.34.34,0,0,1,0-.12l.09.1S53.39,34,53.38,34.05Zm1.16,1.1Zm0-.06a.27.27,0,0,1-.19-.13.53.53,0,0,0-.2-.2s0,.09-.11,0a.75.75,0,0,1-.16-.28,3.84,3.84,0,0,0,.54.35s-.07,0-.09,0a.28.28,0,0,1,.14.09.38.38,0,0,1-.1,0c.07,0,.16,0,.27.11S54.68,35.08,54.56,35.09Zm1.35.22h0ZM60.15,29h0S60.17,29,60.15,29Z"/><path class="cls-2" d="M50.45,18.39s0-.21,0-.3l0,0a1.06,1.06,0,0,1,0-.26,3.11,3.11,0,0,1-.1-.65h0a1.49,1.49,0,0,0,0-.21c0,.06,0-.05,0-.1a.46.46,0,0,0-.1-.24.69.69,0,0,0,0-.13c0,.15,0,0-.1,0V16.4s0,.06,0,0-.07-.21,0-.28l0,0h0s0,0,0,0,0-.07,0-.07-.11-.16-.23-.2c.14.06-.15-.23,0-.21-.11,0,0-.05-.12-.07a.67.67,0,0,1,.12.34l-.09-.06c0,.09.14.17.14.24s-.06-.12-.08-.11h.07a.68.68,0,0,1,.11.34c-.06-.08,0,.12-.06.07l0-.06s0,0,0,0a3.24,3.24,0,0,0-.17-.32h0l0-.06h0a3.28,3.28,0,0,0-.2-.31s0-.19,0-.18-.07,0-.13-.11.11,0,.15,0,0-.1,0-.12-.25,0-.21.12l-.11-.12s0,0,0-.05h0s0,0,0,0a4.07,4.07,0,0,0-1.38-1h-.17c-1.29,0-3.59.32-4.44,2.39l-.1,0A5.44,5.44,0,0,1,44.55,14h0a2.21,2.21,0,0,0-.79.41s0,0,0,0-.11,0-.16.06l-.08.16c-.07,0,0,0-.06,0-.25.16-.41.43-.61.58,0,.07.07,0,0,.11,0-.08,0,0-.11,0s-.11.12-.11.06c0,.14-.2.32-.06.36-.06.1-.1,0-.09,0a1.46,1.46,0,0,1-.22.3s-.09.18-.16.34a.74.74,0,0,0-.08.4c0-.11,0,0-.09.06l0-.09a1.33,1.33,0,0,0,0,.19s0,0,0,0,0,0,0,.08-.06.12-.1.19v0l0,.09c0,.06.1-.21.09,0,0,0-.11.11-.08.17,0-.11.06-.09.07,0s0,.1,0,.15l-.07-.06a5.37,5.37,0,0,0,.09,1.32c.06,0,.07.32.16.25h0c0-.11.08,0,.09.1-.06-.08-.05.18-.12,0v.18c-.07.08,0,.19,0,.32a1.8,1.8,0,0,1,.2.39,0,0,0,0,1,0,0c.06.25.32.44.32.5h.06a.55.55,0,0,0,.24.4s0,0,0,0a.4.4,0,0,0,.15.25v0l.18.19c.06-.06.12,0,.2.13s.18.18.26.13.17.19.24.25h0c.05.13.27.12.37.17s0,.06,0,.07c.15,0,.34.23.41.21s.06,0,.09-.06-.06.12.16.12c0,0-.07,0,0,0s.26-.13.33-.08l-.06,0c.13.07.35-.07.36,0l0,0c.26,0,.11,0,.36,0h0c.11,0,.17,0,.22,0l0,0a1.42,1.42,0,0,0,.29,0s.09,0,.11,0,.33,0,.38,0c-.11,0-.06,0,0-.06a.15.15,0,0,0,.2,0c0,.08.06.16.24.12,0,0-.07,0-.06,0s.06,0,.08,0-.05,0,0,0,.21-.06.39-.09c-.07,0,0,0,0-.07s.2-.16.18,0c.15-.1.34-.19.51-.29s.3-.2.32-.27.12-.06.17-.1l0,0c.17,0,.12-.06.31-.13-.09,0-.08,0-.05-.11l.16,0,0-.06c.06,0,.09-.08.13-.13s0,0,0,0,.24-.15.29-.16.12-.12.08-.2l.06,0s0,.07.06,0h0l0-.05.1-.12s0,0,0,.06a.64.64,0,0,0,0-.07,0,0,0,0,1,0,0h0a.22.22,0,0,1,.06-.1A.72.72,0,0,1,50,20a.45.45,0,0,0,.12-.31s0,.08,0,.08c.07-.16.06-.36.13-.45l0,0a1.5,1.5,0,0,0,.12-.33h0c0-.08.05-.2.07-.31A.38.38,0,0,0,50.45,18.39ZM41.84,17v0S41.87,16.94,41.84,17Zm5,5.21h-.17l.06-.06h0l0,0,0,0,.08,0s0,0,0,.05h0S46.91,22.2,46.89,22.21Zm1.89-1,.08-.07a.45.45,0,0,0,.07.07A.75.75,0,0,0,48.78,21.17Zm.44-5.74a.22.22,0,0,1,.11.13Zm.13.16h0v0Zm.85,1.11c0,.05,0,.07,0,0Zm-.31,3.17,0,.05a.53.53,0,0,1-.24.14l.1-.2.22-.11Zm.14-.71c0-.05,0-.1,0-.15h0l0-.15s0,0,0,0a1.92,1.92,0,0,1,0,.3A.36.36,0,0,1,50,19.16Zm.13-.75s0-.09,0-.13a.09.09,0,0,0,0,0A.53.53,0,0,1,50.16,18.41Zm0-.77A4.23,4.23,0,0,0,50,17s0,.06,0,.07a.33.33,0,0,1,0-.17l.06.1c0-.09-.09-.14-.11-.27s.06-.1.15,0a.28.28,0,0,1,0,.24.4.4,0,0,0,0,.27s0-.07.06.09A.5.5,0,0,1,50.15,17.64Z"/><path class="cls-2" d="M39.87,34.44c-.1,0-.17.14-.24.15s.11-.07.1-.08l0,.06a.62.62,0,0,1-.34.11c.05,0,0,0-.06,0a2.84,2.84,0,0,1-.54.43.17.17,0,0,0,.1,0,.42.42,0,0,0,.24-.1l.12,0c-.15,0,0,0,0-.1h.09s-.06,0,0,0,.21-.08.28-.06a.07.07,0,0,1,0,.05h0c.1-.06.07,0,.08,0s.15-.11.18-.23c0,.14.24-.15.22,0,0-.11.05,0,.06-.12a.61.61,0,0,1-.33.12ZM39,35Z"/><path class="cls-2" d="M41.83,30.19s.06,0,.07,0,0-.12,0,0c-.13-.29-.21-.58-.31-.86a2.43,2.43,0,0,0-.43-.79s0,0,0,0,0-.1-.06-.16L41,28.25c0-.07,0-.05.05-.06-.17-.26-.44-.41-.59-.6-.08,0,0,.06-.12,0,.09,0,0-.05,0-.11s-.13-.11-.07-.11c-.14,0-.32-.2-.35-.06-.11-.06-.06-.1,0-.09a1.17,1.17,0,0,1-.3-.22,1.84,1.84,0,0,1-.34-.15c-.16-.06-.33-.11-.4-.07.1,0,0,0-.07-.09l.09,0-.18,0h0s0,0-.08,0a.26.26,0,0,1-.19-.1h0l-.09,0c-.06,0,.21.09,0,.09,0,0-.1-.11-.17-.08.11,0,.09,0,0,.06H38l.06-.07a5,5,0,0,0-1.32.11c0,.06-.31.07-.25.16h0c.1,0,0,.08-.1.09.08-.06-.19-.05,0-.12h-.18c-.07-.08-.19,0-.31,0a2.19,2.19,0,0,1-.4.21s0,0,0,0c-.25.06-.44.33-.5.33v.06a.59.59,0,0,0-.4.25s0,0,0,0a.34.34,0,0,0-.25.15h0l-.19.19c.06.05,0,.12-.12.2s-.19.18-.14.26-.18.17-.24.24v0c-.12.05-.11.27-.16.37s-.06,0-.08,0c0,.16-.21.35-.2.41s0,.06.07.1-.13-.07-.13.16c0,0,0-.07,0-.05s.13.26.08.33V30c-.08.14.07.36,0,.37l0,0c0,.25,0,.1,0,.36h0c0,.11.05.17,0,.22v0a1.41,1.41,0,0,0,0,.29s0,.08,0,.1,0,.33,0,.39c0-.11,0-.06.06,0a.15.15,0,0,0,0,.2c-.08,0-.16.07-.12.25,0,0,0-.07,0-.06s0,.06,0,.08,0,0,.06,0,0,.2.09.38c0-.06,0,0,.07,0s.16.19,0,.17c.1.15.2.34.3.5a.89.89,0,0,0,.27.33c.05,0,.07.12.1.16l0,0c0,.18.06.12.14.31,0-.09,0-.08.1-.05s0,.11,0,.16l.06,0c0,.06.08.09.13.12s0,0,0,0,.16.24.16.29.12.12.21.08l0,.06s-.08,0,0,.06h0l.05,0,.11.09.38,0a.37.37,0,0,1,0-.11l.2.1h.2c1.3,0,3.59-.31,4.44-2.39l.1,0a5.63,5.63,0,0,1-1.17,2.28l.26-.13h0l.06,0h0a3.37,3.37,0,0,0,.31-.21s.19,0,.18,0,0-.07.11-.14,0,.12-.05.16.11,0,.12,0,0-.25-.12-.22a.19.19,0,0,1-.13.11,4.13,4.13,0,0,0,1.58-3.25,1.93,1.93,0,0,0,0-.24c.06.05.11.1.15,0v.08c.07,0,0-.25,0-.3A2.44,2.44,0,0,0,41.83,30.19Zm-8.3,1.57s0,0,0,0,0,.06,0,0a1.08,1.08,0,0,1,0-.18l0,.06s0,0,0,0v0l0,0a.31.31,0,0,0,0,.08S33.55,31.79,33.53,31.76Zm1,2v-.14a.46.46,0,0,0,.07.07A.16.16,0,0,0,34.56,33.79Zm4.06-7.15h0S38.68,26.67,38.62,26.64Zm1.5,7.5s0,0,0,0h0Z"/><polygon class="cls-2" points="39.4 34.6 39.4 34.61 39.4 34.6 39.4 34.6"/><path class="cls-2" d="M23.36,30.55s.06,0,.07,0,0-.12,0,0c-.13-.29-.21-.57-.31-.86a2.29,2.29,0,0,0-.43-.78s0,0,0,0,0-.1-.06-.16l-.16-.07c0-.07,0-.05,0-.06-.17-.26-.44-.4-.59-.6-.08,0,0,.06-.11,0,.08,0,0-.05,0-.11s-.12-.11-.07-.11c-.14,0-.32-.19-.35,0-.11-.06-.05-.11,0-.1a1.91,1.91,0,0,1-.21-.14l-.54,0c-1.3,0-3.59.31-4.44,2.39l-.1,0a5.28,5.28,0,0,1,1.63-2.71c-.07,0-.16,0-.26.07a2.48,2.48,0,0,1-.39.21s0,0,0,0c-.24.05-.43.32-.5.33l0,.05a.6.6,0,0,0-.4.25s0,0,0,0a.4.4,0,0,0-.25.15h0l-.18.19c.05.05,0,.12-.13.2s-.18.18-.13.26-.18.17-.24.24v0c-.12,0-.11.27-.16.36s-.06,0-.07,0c0,.16-.22.35-.21.42s.05.05.07.09-.13-.07-.12.16c0,0,0-.07,0-.05s.14.27.09.33l0,0c-.07.13.07.35,0,.36l0,0c0,.25,0,.11,0,.36h0c0,.11,0,.17,0,.22v0a1.42,1.42,0,0,0,0,.29s0,.09,0,.11,0,.32,0,.38c0-.11,0-.06.06,0s0,.11,0,.19-.16.07-.12.26c0,0,0-.08,0-.07s0,.06,0,.08,0,0,.05,0,0,.21.09.38c0-.06,0,0,.07,0s.16.19,0,.17c.1.15.2.34.3.51a.93.93,0,0,0,.28.32s.06.12.09.16l0,0a2.08,2.08,0,0,0,.14.32c0-.1,0-.08.11-.06l0,.16.06,0a.4.4,0,0,0,.13.13s0,0,0,0,.16.23.17.28.12.12.2.08l0,.06s-.07,0,0,.06h0l.05,0,.12.1h-.06l.07,0h0A.14.14,0,0,1,17,35a.7.7,0,0,1,.28.15.45.45,0,0,0,.32.12s-.08,0-.09,0c.17.07.36.06.46.12l0,0a1.21,1.21,0,0,0,.33.12v.05l.31.06a.35.35,0,0,0,.28,0s.23,0,.31,0l0,0a.74.74,0,0,1,.26,0,3.31,3.31,0,0,1,.66-.1v0l.21,0c-.06,0,.05,0,.1,0a.44.44,0,0,0,.24-.09l.12-.05c-.14,0,0-.06,0-.11h.09s-.06,0,0,0,.21-.07.28-.06a.05.05,0,0,1,0,0h0c.09-.06.06,0,.07,0s.15-.11.19-.23c-.06.15.23-.15.21,0,0-.11.05,0,.06-.12a.61.61,0,0,1-.33.12l.06-.08c-.1,0-.17.13-.24.14s.11-.06.11-.08v.06a.61.61,0,0,1-.34.12c.08-.06-.11,0-.07-.06l.06,0s0,0,0,0l.33-.17h0l.06,0h0l.3-.21c.05.05.19,0,.18,0s0-.07.11-.13,0,.11-.05.15.11,0,.12,0,0-.25-.12-.22a.19.19,0,0,1-.13.12l.13-.12a.58.58,0,0,0,.12-.1s0,0,.05,0v0l0,0a4.14,4.14,0,0,0,1.34-3,1.94,1.94,0,0,0,0-.24c.06.05.11.1.15,0v.08c.07,0,0-.25.05-.3A2.44,2.44,0,0,0,23.36,30.55Zm-8.3,1.58a.06.06,0,0,0,0,0s0,.06-.05,0V32a.17.17,0,0,0,.06.06v.08l0,0a.31.31,0,0,0,0,.08A.06.06,0,0,1,15.06,32.13Zm1,2V34l.07.07A.16.16,0,0,0,16.09,34.15Zm1.31.94,0,0a.49.49,0,0,1-.15-.23l.2.09a2.22,2.22,0,0,0,.11.22Zm1,.22a.89.89,0,0,1-.3,0s0-.08,0-.14l.14,0v.08l0-.08.14,0S18.42,35.31,18.41,35.31Zm.56.08a.34.34,0,0,1-.11,0H19Zm1.34,0a.42.42,0,0,0-.28,0s.08.06-.08.07a.5.5,0,0,1-.31-.09,4.11,4.11,0,0,0,.61-.12l-.07,0a.29.29,0,0,1,.18,0l-.1,0c.08,0,.13-.09.26-.12s.1.07,0,.15A.27.27,0,0,1,20.31,35.34Zm.26,0Zm1.08-.85s0,0,0,0h0Z"/></svg>