<svg id="Layer_1" data-name="Layer 1" xmlns="http://www.w3.org/2000/svg" viewBox="0 0 75 65"><defs><style>.cls-1{fill:#5c5e5e;}.cls-2{fill:#673065;}.cls-3{fill:#5c5f5f;}</style></defs><title>kaplankaya-footer</title><path class="cls-1" d="M.12,49.73a.07.07,0,0,1,.13,0C.32,50.91.9,51.65,2,51.65a1.45,1.45,0,0,0,1.64-1.42c0-1-.65-1.44-1.75-2A2.49,2.49,0,0,1,.21,45.91,1.93,1.93,0,0,1,2.38,44a3.82,3.82,0,0,1,1.12.16.56.56,0,0,1,.43.69c0,.18-.09.65-.11.91,0,.09-.13.06-.13,0a1.45,1.45,0,0,0-1.45-1.47A1.24,1.24,0,0,0,.86,45.64,2,2,0,0,0,2.2,47.38c1.51.77,2.13,1.41,2.09,2.57a2.15,2.15,0,0,1-2.41,2,3.4,3.4,0,0,1-1.37-.25A.83.83,0,0,1,0,51a4.6,4.6,0,0,1,.11-1.3"/><path class="cls-1" d="M9.33,50.4c0,1,.13,1.17.85,1.23a.07.07,0,0,1,0,.14c-.44,0-.94,0-1.29,0s-.87,0-1.26,0c-.09,0-.08-.14,0-.14.6-.08.76-.15.78-1.23,0-.41,0-1.77,0-2.19,0-1,0-2.11,0-2.53,0-1.26-.23-1.26-.78-1.34-.08,0-.11-.13,0-.13.33,0,.9,0,1.26,0l1.11,0c.09,0,.08.12,0,.13-.53.1-.67.11-.7,1.34,0,.37,0,1.68,0,2.52,0,.43,0,1.79,0,2.2"/><path class="cls-1" d="M16.15,48.37c-.48.76-1.13,1.87-1.47,2.51s-.28.68.37.75c.08,0,.11.14,0,.14l-1.09,0-1.14,0c-.09,0-.09-.12,0-.14a1.32,1.32,0,0,0,1.13-.7c.62-.87,1.36-2,2-2.94-.63-1-1.35-2.16-1.88-3-.34-.51-.5-.63-1-.68-.08,0-.11-.13,0-.13.38,0,.84,0,1.15,0s.8,0,1.24,0c.11,0,.08.13,0,.13-.55.06-.55.25-.34.63.37.7.82,1.5,1.32,2.34.45-.73.88-1.47,1.22-2.15s.27-.74-.17-.82c-.09,0-.11-.13,0-.13l1.05,0,.91,0a.07.07,0,1,1,0,.13c-.35,0-.58.08-1,.71-.65.92-1.28,1.85-1.74,2.6.61,1,1.56,2.5,2.13,3.3.35.5.58.65,1,.68a.07.07,0,1,1,0,.14c-.39,0-.84,0-1.14,0s-.72,0-1.16,0c-.1,0-.08-.14,0-.14.48-.05.46-.24.25-.63-.32-.57-1-1.68-1.59-2.63"/><path class="cls-1" d="M27.5,49.73c0-.08.14-.07.14,0,.06,1.18.64,1.93,1.69,1.93A1.46,1.46,0,0,0,31,50.23c0-1-.64-1.43-1.75-2a2.49,2.49,0,0,1-1.63-2.32A1.93,1.93,0,0,1,29.77,44a3.5,3.5,0,0,1,1.12.16.56.56,0,0,1,.42.69c0,.17-.08.65-.11.9s-.13.06-.13,0a1.45,1.45,0,0,0-1.45-1.46,1.24,1.24,0,0,0-1.37,1.32,2,2,0,0,0,1.33,1.74c1.51.76,2.13,1.41,2.1,2.56a2.16,2.16,0,0,1-2.41,2,3.26,3.26,0,0,1-1.38-.26.84.84,0,0,1-.5-.65,5.08,5.08,0,0,1,.11-1.31"/><path class="cls-1" d="M36.68,50.59c0,.73.17.76.8.77a8.64,8.64,0,0,0,1,0c1,0,1.22-.66,1.36-1.43,0-.09.15-.1.15,0A11,11,0,0,1,40,51.41c-.05.27-.26.37-.72.37s-1.72-.05-2.87-.05l-1.38,0a.07.07,0,1,1,0-.14c.65-.07.78-.18.8-1.23,0-.85,0-1.7,0-2.56s0-1.4,0-2.17c0-1,0-1.23-.84-1.33-.08,0-.11-.13,0-.13.4,0,1,0,1.43,0,.76,0,1.91,0,2.55,0,.36,0,.55,0,.53.3s-.08.76-.14,1.17c0,.09-.15.09-.14,0,0-.61-.21-1-.83-1.06a13.17,13.17,0,0,0-1.68,0c0,1,0,1.93,0,3,.5,0,1.29,0,2,0,.35,0,.34-.14.43-.13s0,.07,0,.31a3.89,3.89,0,0,1-.12.74c0,.09-.14.09-.14,0,0-.49-.31-.49-.81-.51H36.66c0,.6,0,1.79,0,2.56"/><path class="cls-1" d="M50.44,51.63c0,.22,0,.26,0,.27s-.09,0-.27-.21c-.77-.88-1.59-1.77-3.08-3.27-1.16-1.18-2.1-2.15-2.61-2.63,0,.94,0,3.26.11,5,0,.48.23.8,1,.87a.07.07,0,1,1,0,.14l-1.29,0-1,0a.07.07,0,1,1,0-.14c.44-.08.6-.19.65-.81.09-1.35.12-3.29.12-4.29,0-.65,0-1.46,0-2.16,0-.19,0-.23,0-.25s.09,0,.26.2c.9,1,1.89,2,3.1,3.26,1.06,1.06,2,2,2.61,2.58,0-1.44,0-3-.06-4.7,0-.89-.15-1-.83-1.12a.07.07,0,1,1,0-.13l1.11,0,.91,0c.1,0,.07.13,0,.13-.46.08-.59.4-.61,1-.07,1.88-.12,3.67-.12,6.33"/><path class="cls-1" d="M54.86,49.73c0-.08.14-.07.14,0,.06,1.18.64,1.93,1.69,1.93a1.46,1.46,0,0,0,1.64-1.43c0-1-.64-1.43-1.75-2A2.49,2.49,0,0,1,55,45.91,1.93,1.93,0,0,1,57.12,44a3.58,3.58,0,0,1,1.13.16.56.56,0,0,1,.42.69c0,.17-.08.65-.11.9s-.13.06-.13,0A1.45,1.45,0,0,0,57,44.33a1.25,1.25,0,0,0-1.38,1.32,2,2,0,0,0,1.34,1.74c1.51.76,2.13,1.41,2.1,2.56a2.16,2.16,0,0,1-2.41,2,3.26,3.26,0,0,1-1.38-.26.82.82,0,0,1-.5-.65,5.08,5.08,0,0,1,.11-1.31"/><path class="cls-1" d="M64,50.59c0,.73.17.76.81.77a8.49,8.49,0,0,0,1,0c1,0,1.21-.66,1.36-1.43,0-.09.15-.1.15,0a11,11,0,0,1-.06,1.48c0,.27-.26.37-.72.37s-1.72-.05-2.87-.05l-1.38,0a.07.07,0,1,1,0-.14c.65-.07.78-.18.8-1.23,0-.85,0-1.7,0-2.56s0-1.4,0-2.17c0-1,0-1.23-.84-1.33-.08,0-.11-.13,0-.13.4,0,1,0,1.43,0,.76,0,1.91,0,2.55,0,.36,0,.55,0,.53.3s-.08.76-.14,1.17c0,.09-.15.09-.14,0,0-.61-.21-1-.83-1.06a13.17,13.17,0,0,0-1.68,0c0,1,0,1.93,0,3,.5,0,1.29,0,2,0,.35,0,.34-.14.43-.13s0,.07,0,.31a3.89,3.89,0,0,1-.12.74c0,.09-.14.09-.14,0,0-.49-.31-.49-.81-.51H64c0,.6,0,1.79,0,2.56"/><path class="cls-1" d="M70.82,49.73c0-.08.14-.07.14,0,.06,1.18.64,1.93,1.69,1.93a1.45,1.45,0,0,0,1.64-1.43c0-1-.64-1.43-1.75-2a2.5,2.5,0,0,1-1.63-2.32A1.93,1.93,0,0,1,73.09,44a3.5,3.5,0,0,1,1.12.16.56.56,0,0,1,.42.69c0,.17-.08.65-.11.9s-.13.06-.13,0a1.45,1.45,0,0,0-1.45-1.46,1.24,1.24,0,0,0-1.37,1.32,2,2,0,0,0,1.34,1.74C74.41,48.15,75,48.8,75,50a2.16,2.16,0,0,1-2.41,2,3.3,3.3,0,0,1-1.38-.26.84.84,0,0,1-.5-.65,5.08,5.08,0,0,1,.11-1.31"/><path class="cls-2" d="M59.55,34.07s0,0,.05,0,0,0-.05,0"/><polygon class="cls-2" points="58.89 34.46 59 34.44 58.98 34.43 58.89 34.46"/><path class="cls-2" d="M58.73,34.57c-.08.09-.26.09-.28.18.08-.06.25-.11.36-.18l-.07,0Z"/><path class="cls-2" d="M58.22,35l.06,0h0c-.15,0-.06,0-.07,0"/><path class="cls-2" d="M58.28,35s.06,0,0,0"/><path class="cls-2" d="M58,35.16s0,0,.06,0H58s0,.07,0,0"/><path class="cls-2" d="M57.93,35.09h0"/><path class="cls-2" d="M58,35.08s0,0,0,0l.09,0s-.06,0-.05,0"/><path class="cls-2" d="M58.09,35c.08,0,0,0,0,0,.16,0,.16-.11,0,0"/><path class="cls-2" d="M58.44,34.65l0,.05s.08-.05.11-.05Z"/><path class="cls-2" d="M57.47,35.3s.06,0,.09-.06h-.07s0,0,0,.06"/><path class="cls-2" d="M57.39,35.23h.1s0,0-.1,0"/><path class="cls-2" d="M57.85,35h0Z"/><path class="cls-2" d="M57.05,35.37a.35.35,0,0,1,.11,0l-.06,0Z"/><path class="cls-2" d="M56.85,35.4a.32.32,0,0,1-.19,0,.61.61,0,0,0,.18,0s0,0,0-.07"/><path class="cls-2" d="M57.16,35.33c.05,0,.07,0,.07-.06h0Z"/><polygon class="cls-2" points="57.11 35.29 57.19 35.28 57.19 35.28 57.11 35.29"/><path class="cls-2" d="M57.54,35.06c-.1.06,0,.06.08.07s0-.05-.08-.07"/><path class="cls-2" d="M57.37,35.18l-.09,0h.11s0,0,0,0"/><polygon class="cls-2" points="57.24 35.22 57.28 35.21 57.23 35.2 57.24 35.22"/><path class="cls-2" d="M56.78,35.31l-.18,0a.36.36,0,0,1,.15,0c.06,0,0,0,0,0"/><polygon class="cls-2" points="56.06 35.31 56.07 35.31 56.07 35.31 56.06 35.31"/><path class="cls-2" d="M56.78,35.3s0,0,0,0a.17.17,0,0,1,.1,0s-.05,0-.1,0"/><path class="cls-2" d="M56.5,35.35l-.08,0s.06,0,.08,0"/><path class="cls-2" d="M57,35.31h-.07l.06,0v0"/><path class="cls-2" d="M56.16,35.37l.15,0h-.24s0,0,.09.06"/><path class="cls-2" d="M56.5,35.35h0s-.06,0,0,0h-.18l.19,0"/><path class="cls-2" d="M56.51,35.34s0,0,0,0h0l.1,0h-.11c.15,0-.1-.06.09,0-.07,0,0-.05-.16-.06s0,.07.07.12,0,0,0,0Z"/><path class="cls-2" d="M57.42,35h0s0,0,0,0"/><path class="cls-2" d="M57.35,35a.42.42,0,0,0-.07.13s.07-.08.14-.11h0c.08,0,0,0,0,0s0,0,0,0a.08.08,0,0,1-.07,0"/><path class="cls-2" d="M56.77,35.18h.16s0,0-.09,0v0Z"/><path class="cls-2" d="M56,35.31l.09.07,0-.05Z"/><polygon class="cls-2" points="55.78 35.31 55.83 35.34 55.83 35.3 55.78 35.31"/><path class="cls-2" d="M52.1,31.83c-.05,0,0,.06.08.12a.18.18,0,0,1,0-.11Z"/><path class="cls-2" d="M53.7,34.39a.5.5,0,0,0,.13.07s-.06-.05-.13-.07"/><path class="cls-2" d="M55.29,26.76s0,0,0,0,0,0,0,0"/><path class="cls-2" d="M53.7,34.39a.57.57,0,0,1-.11-.11h0a.28.28,0,0,0,.14.12"/><path class="cls-2" d="M55,35.12h0"/><path class="cls-2" d="M55.08,35.14h0s.05,0,0,0"/><path class="cls-2" d="M54.93,35.09l.06,0h0l-.07,0"/><path class="cls-2" d="M52.45,32.71l0,0,0,0"/><path class="cls-2" d="M55.43,35.24a.16.16,0,0,1-.09,0l.1,0s0,0,0,0"/><path class="cls-2" d="M56.34,35.11v0h0c-.06,0,0,0,0,0"/><path class="cls-2" d="M55.68,35.13h0c-.07,0-.12,0-.14,0s.13.07.12,0"/><path class="cls-2" d="M55.77,35.15h-.06s.07,0,.06,0"/><path class="cls-2" d="M54.88,35.08s0,0,0,0,0,.11,0,0"/><polygon class="cls-2" points="55.61 35.05 55.64 35.01 55.58 35 55.61 35.05"/><polygon class="cls-2" points="59.71 33.88 59.7 33.95 59.74 33.87 59.71 33.88"/><polygon class="cls-2" points="46.78 13.58 46.86 13.62 46.77 13.56 46.78 13.58"/><polygon class="cls-2" points="48.63 14.26 48.7 14.31 48.63 14.26 48.63 14.26"/><polygon class="cls-2" points="48.56 14.29 48.56 14.27 48.53 14.26 48.56 14.29"/><polygon class="cls-2" points="49.43 15.05 49.45 15.05 49.44 15.04 49.43 15.05"/><polygon class="cls-2" points="49.6 15.23 49.64 15.25 49.63 15.2 49.6 15.23"/><polygon class="cls-2" points="49.52 15.57 49.56 15.61 49.58 15.56 49.52 15.57"/><polygon class="cls-2" points="45.84 13.42 45.88 13.43 45.94 13.39 45.84 13.42"/><polygon class="cls-2" points="26.99 14.17 27.01 14.18 27.1 14.15 26.99 14.17"/><polygon class="cls-2" points="28.8 13.33 28.8 13.33 28.88 13.31 28.8 13.33"/><polygon class="cls-2" points="28.71 13.4 28.77 13.4 28.75 13.39 28.71 13.4"/><polygon class="cls-2" points="29.91 13.29 29.91 13.3 29.92 13.29 29.91 13.29"/><polygon class="cls-2" points="30.16 13.3 30.21 13.3 30.16 13.27 30.16 13.3"/><polygon class="cls-2" points="30.35 13.6 30.41 13.6 30.38 13.55 30.35 13.6"/><polygon class="cls-2" points="26.24 14.74 26.27 14.72 26.29 14.66 26.24 14.74"/><polygon class="cls-2" points="34.31 6.98 34.32 6.96 34.29 6.87 34.31 6.98"/><path class="cls-2" d="M33.47,5.17l0-.08Z"/><polygon class="cls-2" points="33.53 5.22 33.54 5.25 33.54 5.2 33.53 5.22"/><polygon class="cls-2" points="33.43 4.05 33.44 4.05 33.43 4.04 33.43 4.05"/><polygon class="cls-2" points="33.4 3.81 33.44 3.81 33.44 3.76 33.4 3.81"/><polygon class="cls-2" points="33.7 3.59 33.74 3.62 33.74 3.56 33.7 3.59"/><polygon class="cls-2" points="34.88 7.72 34.86 7.69 34.79 7.68 34.88 7.72"/><polygon class="cls-2" points="41.85 31.27 41.81 31.35 41.87 31.26 41.85 31.27"/><polygon class="cls-2" points="41.15 33.2 41.19 33.13 41.19 33.13 41.15 33.2"/><polygon class="cls-2" points="41.16 33.05 41.18 33.05 41.2 33.02 41.16 33.05"/><polygon class="cls-2" points="40.42 33.95 40.43 33.94 40.42 33.94 40.42 33.95"/><polygon class="cls-2" points="40.22 34.15 40.28 34.14 40.24 34.11 40.22 34.15"/><polygon class="cls-2" points="39.86 34.08 39.91 34.09 39.9 34.03 39.86 34.08"/><polygon class="cls-2" points="41.99 30.36 42.02 30.42 42 30.33 41.99 30.36"/><polygon class="cls-2" points="23.39 31.63 23.34 31.71 23.4 31.62 23.39 31.63"/><polygon class="cls-2" points="22.68 33.56 22.72 33.49 22.72 33.49 22.68 33.56"/><polygon class="cls-2" points="22.69 33.41 22.71 33.41 22.73 33.38 22.69 33.41"/><polygon class="cls-2" points="21.95 34.32 21.96 34.31 21.95 34.3 21.95 34.32"/><polygon class="cls-2" points="21.75 34.51 21.81 34.5 21.78 34.47 21.75 34.51"/><polygon class="cls-2" points="21.39 34.44 21.44 34.45 21.43 34.4 21.39 34.44"/><polygon class="cls-2" points="23.52 30.73 23.55 30.78 23.53 30.69 23.52 30.73"/><path class="cls-2" d="M23.47,30.94l.06-.05-.07,0s0,.05,0,.07"/><path class="cls-2" d="M33.76,18.09c.08-.17,0-.13.12-.32-.05.08-.07,0-.11,0l.09-.14-.07,0a.37.37,0,0,0,0-.18s0,0,0,0,.06-.28.09-.33,0-.16-.09-.19,0-.05,0-.08.08,0,.05,0h-.05a.7.7,0,0,0,0-.16.21.21,0,0,0,0,.06.43.43,0,0,0,0-.07v0a.21.21,0,0,1,0-.12.71.71,0,0,1-.09-.31.42.42,0,0,0-.13-.3s0,.06,0,.08c-.06-.17-.21-.3-.23-.42h0a1.49,1.49,0,0,0-.15-.31l0,0a2.43,2.43,0,0,1-.19-.27c-.07-.09-.14-.17-.22-.17s-.15-.16-.21-.23l0,0a.77.77,0,0,1-.18-.19c-.24-.09-.36-.28-.54-.38h0l-.17-.13c0,.06,0,0-.08-.06a.44.44,0,0,0-.24-.1l-.12-.05c.13.08,0,.05-.06.09l-.06-.07s0,.06,0,0-.19-.1-.23-.16h.06v0c-.11,0-.07,0-.06,0s-.19,0-.29,0c.14-.06-.27-.06-.18-.13-.1.06-.06,0-.13,0a.71.71,0,0,1,.33.14l-.11,0c.05.1.22,0,.27.07a.16.16,0,0,0-.13,0l0-.05a.52.52,0,0,1,.31.16c-.09,0,.1.07,0,.09l-.06,0s0,0,0,0l-.34-.11h0l-.07,0-.37-.07c0-.06-.16-.11-.11-.14s0,.05-.17,0,.1,0,.14-.07-.09,0-.09-.07-.17.2-.07.23a.24.24,0,0,1,.17,0,4.18,4.18,0,0,0-3.43,1.18l-.16.18c0-.07,0-.15-.07-.13l.06,0c-.07,0-.16.18-.25.17a2.34,2.34,0,0,0-.09.24s-.07,0-.06-.05-.07.1-.05,0c-.11.29-.26.55-.39.83a2.32,2.32,0,0,0-.25.85s0,0,0,0-.05.1-.07.16a.87.87,0,0,1,.07.17c0,.06-.06,0-.07,0-.06.3,0,.59,0,.84,0,.07.08,0,.09.08-.05-.07-.05,0-.05.09s0,.16,0,.12.08.36.21.29c0,.12,0,.11-.06.08a1.33,1.33,0,0,1,.07.37s.06.19.13.34a.63.63,0,0,0,.23.34c-.1,0,0,0,0,.11l-.08,0a.86.86,0,0,0,.1.16s0,.05,0,0,0,0,.08,0a.43.43,0,0,1,.07.2h0l0,.08c0,.05-.08-.22.07-.07,0,0,0,.16.06.18s0-.1,0-.08l.09.11h-.09a4.69,4.69,0,0,0,1,.86c0-.06.27.17.29.06h0c-.09-.07.06,0,.13,0-.09,0,.11.17-.1.07l.05.05H28c1.29,0,3.59-.31,4.44-2.38l.1,0A5.34,5.34,0,0,1,31,21.75l.14-.07c.07,0,.05,0,0,.07.11-.12.4-.1.44-.15s0-.08,0-.12,0,.14.2,0h-.06c.07,0,.09-.28.18-.3l0,.06c.14-.05.2-.31.28-.24l0,.05c.15-.21.1-.05.25-.26h0c.09-.06.08-.15.18-.13l0,0a1.29,1.29,0,0,0,.19-.21s.07-.05.07-.08.23-.24.26-.29-.07,0-.07,0,.11-.05.12-.15.17.06.26-.1c0,0,0,.06-.06,0s0-.05,0-.06,0,0-.06,0,.1-.18.2-.33c-.05,0,0,0-.06,0s0-.26.11-.15c0-.17.09-.38.14-.57a.93.93,0,0,0,0-.42s0-.13,0-.19Zm-7.95,1.82s0-.05,0,0Zm4.24-6.35h0m1.4.17h0s.07,0,0,0m.1.32.09,0a.4.4,0,0,1-.15-.1l.11,0c-.08,0-.16,0-.27-.1,0,0,0-.12.09-.13a.25.25,0,0,1,.2.14.52.52,0,0,0,.2.19s0-.09.1,0a.48.48,0,0,1,.16.28,3.1,3.1,0,0,0-.53-.36m1,.79h.06a.35.35,0,0,1,0,.11l-.09-.1M33,20.05V20l0,0,0,0h0a.21.21,0,0,0,0-.06s0,0,0,0l0,0s.06,0,.06,0l-.12.12m.12-4.5L33,15.43l.06-.06-.07,0-.08-.12h0a2.13,2.13,0,0,1,.25.17s-.06.07-.11.1m.39.89a1.72,1.72,0,0,0-.07-.21l.08-.23c0,.05,0,.1,0,.14l0,0a.54.54,0,0,1-.07.27m.18,1.4s0-.07,0-.1.07,0,.09,0a.94.94,0,0,1-.1.1"/><path class="cls-2" d="M42.11,4.67s0,0,0,0a.35.35,0,0,0,.07-.28h0V4.12c-.08,0-.06-.11-.06-.23s0-.26-.09-.28,0-.25,0-.34h0c.06-.12-.11-.27-.14-.38s0-.06.06,0-.09-.41-.14-.44-.08,0-.12,0,.14,0,0-.2c0,0,0,.07,0,.06s-.28-.09-.3-.18l0,0c0-.15-.29-.2-.23-.28l0,0c-.21-.15,0-.1-.26-.25h0c-.06-.09-.15-.09-.13-.18l0,0a2,2,0,0,0-.21-.2s-.05-.06-.08-.06-.24-.23-.29-.26,0,.07,0,.07-.06-.11-.15-.13a.23.23,0,0,0,0-.12,6.44,6.44,0,0,0-.75,0C38,.66,35.74,1,34.89,3.05l-.1,0A5.66,5.66,0,0,1,36.19.5h0l.09,0,.2-.17-.13,0A.52.52,0,0,0,36,.46s.07-.05.09,0c-.17.06-.3.21-.41.23l0,0a1.49,1.49,0,0,0-.31.15l0,0A2,2,0,0,1,35,.91c-.1.07-.18.15-.18.23s-.16.15-.23.21v0a.76.76,0,0,1-.18.18c-.09.23-.28.36-.39.54h0L34,2.28c.06,0,0,0-.06.09a.44.44,0,0,0-.1.23.69.69,0,0,0,0,.13c.08-.13,0,0,.08.06l-.06.06s.05,0,0,0-.1.2-.16.24,0,0,0-.06h0c0,.11,0,.06-.05.06s0,.18,0,.29c-.06-.14-.06.27-.13.18.06.1,0,.06,0,.13a.84.84,0,0,1,.15-.33l0,.11c.1,0,0-.22.07-.27a.16.16,0,0,0,0,.13l-.05,0A.6.6,0,0,1,33.81,3c0,.09.08-.09.1,0l0,.06s0,0,0,0-.08.23-.11.35a0,0,0,0,1,0,0l0,.07h0c0,.12-.05.24-.07.37s-.11.16-.15.11.06,0,0,.17S33.52,4,33.51,4s0,.09-.07.09.2.16.23.07a.24.24,0,0,1,0-.17,4.15,4.15,0,0,0,1.18,3.42l.18.16c-.07,0-.15,0-.13.08l-.05-.06c0,.06.18.16.17.24l.24.1s0,.07-.05.05.09.08,0,.06a7.71,7.71,0,0,1,.82.39,2.65,2.65,0,0,0,.86.25s0,0,0,0,.1.05.16.08l.17-.07c.06,0,0,.06,0,.07a8,8,0,0,0,.84,0c.08,0,0-.07.08-.09-.06.06,0,.06.1.06s.16,0,.12,0,.36-.08.29-.21c.12,0,.11,0,.08,0a1.77,1.77,0,0,1,.37-.06l.34-.13c.16-.07.31-.15.34-.23,0,.1,0,0,.11,0l0,.09.16-.1,0,0s0,0,0-.08.13-.05.2-.07V8l.07,0c.06,0-.21.09-.06-.06,0,0,.16,0,.17-.07s-.09,0-.07,0l.11-.09v.09a4.94,4.94,0,0,0,.86-1c-.06,0,.17-.27.06-.29v0c-.07.09-.05-.07,0-.14,0,.1.16-.1.07.11l.12-.14c.11,0,.16-.11.2-.25A1.86,1.86,0,0,1,42,5.73h0c.14-.21.09-.53.12-.58l0,0a.59.59,0,0,0,.1-.46M35.59.77a.27.27,0,0,1,.1.11L35.56,1,35.5.9l0,.07a.5.5,0,0,0-.12.08s0,0,0,0a1.08,1.08,0,0,1,.17-.25m-.51.55-.1.1s0,0,0-.06l.12,0m-1.22,1.2h0s0-.07,0,0m-.16,1.4h0v0m.49-1.5a.92.92,0,0,0,0-.09.4.4,0,0,1-.1.15l0-.11c0,.07,0,.16-.1.27,0,0-.12,0-.13-.09a.25.25,0,0,1,.14-.2.52.52,0,0,0,.19-.2s-.09,0,0-.1a.55.55,0,0,1,.28-.16,4.41,4.41,0,0,0-.35.53m5.86,5.74s0,0,0,0ZM40.11,1l0,0,0,0V1L40,.93s0,0,0,0,0,0,0,0,0-.06,0-.06l.12.12h-.08"/><path class="cls-2" d="M60.79,31.5c.05-.3,0-.6,0-.84,0-.08-.07,0-.09-.08.06.07.06,0,.06-.09s0-.16,0-.13-.08-.36-.21-.28c0-.12,0-.12.05-.08a1.77,1.77,0,0,1-.06-.37s-.07-.19-.13-.34-.15-.31-.23-.34c.1,0,0,0,0-.11l.09,0a.86.86,0,0,0-.1-.16.12.12,0,0,0,0,0s0,0-.09,0a.52.52,0,0,1-.06-.21l0,0L60,28.37c0-.05.09.22-.06.07,0,0,0-.16-.07-.18s0,.1,0,.08l-.09-.12h.09a4.94,4.94,0,0,0-1-.86c0,.05-.28-.17-.29-.06h0c.09.06-.07.05-.14,0,.1,0-.1-.17.11-.07l-.05-.05-.52,0c-1.3,0-3.59.31-4.44,2.39l-.1,0A5.31,5.31,0,0,1,55,26.85a.7.7,0,0,1-.14.08c-.07,0,0,0,0-.07s-.4.1-.43.15,0,.07,0,.12,0-.14-.2,0c0,0,.07,0,.06,0s-.1.28-.18.29l0-.05c-.15.05-.2.3-.28.23l0,0c-.16.2-.1.05-.25.26h0c-.09.07-.09.15-.18.14l0,0a2.09,2.09,0,0,0-.2.22s-.06.05-.06.08-.23.23-.26.29.06,0,.07,0a.17.17,0,0,0-.13.16c-.07,0-.16-.06-.25.09,0,0,0-.05,0,0s0,0,0,.06,0,0,.06,0-.1.18-.2.33c0,0,0,0,0,0s0,.25-.1.15c0,.17-.1.38-.14.57a1,1,0,0,0,0,.42s0,.13,0,.19h0c-.09.16,0,.13-.12.32,0-.08.07,0,.11,0l-.09.14.07,0a.28.28,0,0,0,0,.18s0,0,0,0-.06.28-.09.32,0,.17.09.2a.19.19,0,0,0,0,.08s-.08,0-.05,0v0h.05a.61.61,0,0,0,0,.15l0-.05a.13.13,0,0,0,0,.06v0h0a.19.19,0,0,1,0,.12.58.58,0,0,1,.08.3.64.64,0,0,0,.11.27.08.08,0,0,1,0,0c.07.17.22.29.24.41l0,0a1.79,1.79,0,0,0,.15.31l0,0c0,.06.12.17.19.27s.14.18.22.18.15.15.21.23l0,0a.77.77,0,0,1,.18.19c.24.08.36.28.54.38h0l.16.14c0-.06,0,0,.09.06a.44.44,0,0,0,.23.1l.13,0c-.13-.08,0,0,.06-.09l.06.07s0-.06,0,0,.2.09.24.16h-.06a0,0,0,0,0,0,0c.11,0,.06,0,.06,0s.19,0,.29,0c-.14.07.27.06.18.13.1,0,.06,0,.13,0a.63.63,0,0,1-.33-.15l.11,0c-.05-.09-.22,0-.27-.06s.12,0,.13,0l0,.06a.61.61,0,0,1-.32-.16c.1,0-.09-.07,0-.09l.06,0s0,0,0,0l.34.1h0l.37.08c0,.06.16.1.11.14s0,0,.17,0-.11.06-.14.08.09,0,.09.07.16-.2.07-.24a.17.17,0,0,1-.17,0,4.09,4.09,0,0,0,3.42-1.18,1.29,1.29,0,0,0,.16-.17c0,.07,0,.14.08.13l-.06.05c.06,0,.16-.18.24-.18a1.33,1.33,0,0,0,.1-.24s.07,0,.05,0,.08-.09.06,0a7,7,0,0,1,.39-.83,2.59,2.59,0,0,0,.25-.85s0,0,0,0,.06-.1.08-.16a1.22,1.22,0,0,1-.07-.17c0-.06.06,0,.08,0m-8.47-.63a.14.14,0,0,0-.09,0l.1-.11s0,.07,0,.11m.18,1.74a.77.77,0,0,0,0-.15l0,0a.44.44,0,0,1,.07-.27,1.72,1.72,0,0,0,.07.21l-.08.23M53,28.55v.09l0,0,0,0h0l0,.07s0,0,0,0l0,0s-.07,0-.06,0l.12-.13m0,4.78a1.48,1.48,0,0,1-.25-.18s.06-.06.11-.1l.08.13-.06.06.07,0a.83.83,0,0,0,.08.12h0m.34.45a.2.2,0,0,1,0-.11l.08.1h0m1.16,1.1h0s-.07,0,0,0m0-.06a.22.22,0,0,1-.2-.13.46.46,0,0,0-.2-.19s0,.09-.1,0a.62.62,0,0,1-.17-.28,6.33,6.33,0,0,0,.54.36.19.19,0,0,0-.09,0,.24.24,0,0,1,.14.1l-.1,0c.07,0,.16,0,.27.1s0,.12-.09.12m1.34.23h0Zm4.24-6.37,0,0s0,.05,0,0"/><path class="cls-2" d="M50.45,18.13s0-.22,0-.31l0,0a.74.74,0,0,1,0-.26,3.2,3.2,0,0,1-.1-.66h0a1.49,1.49,0,0,0,0-.21c0,.07,0,0,0-.1a.42.42,0,0,0-.1-.24s0-.08,0-.13c0,.15-.06,0-.11,0v-.09s0,.06,0,0-.07-.21,0-.27l0,0h0a0,0,0,0,1,0,0c-.06-.09,0-.06,0-.07s-.11-.16-.23-.19c.14.05-.14-.24,0-.22-.11,0,0-.05-.12-.06a.61.61,0,0,1,.12.33l-.09-.06c0,.1.14.17.14.24s-.06-.11-.08-.1h.07a.65.65,0,0,1,.11.33c-.06-.07,0,.12-.06.08l0-.07s0,0,0,0-.11-.21-.17-.32l0,0,0-.06h0c-.06-.1-.12-.2-.19-.3s0-.2,0-.18-.07,0-.13-.11.12,0,.15.05,0-.11,0-.12-.25,0-.21.11L49.11,15s0,0,0,0l0,0,0,0a4.07,4.07,0,0,0-1.38-1h-.17c-1.29,0-3.59.31-4.44,2.39l-.1,0a5.48,5.48,0,0,1,1.53-2.62h0a2.38,2.38,0,0,0-.79.41s0,0,0,0-.11,0-.16.06-.05.11-.08.17,0,0-.06,0c-.25.17-.41.44-.61.58,0,.08.07,0,0,.12,0-.08,0,0-.11,0s-.11.12-.11.07c0,.14-.2.31-.06.35-.06.1-.1,0-.09,0a1.37,1.37,0,0,1-.22.3s-.09.18-.16.33a.75.75,0,0,0-.08.4c0-.1,0,0-.09.07l0-.09c0,.06,0,.12,0,.18s0,0,0,0,0,0,0,.08a.26.26,0,0,1-.1.19v0l0,.08c0,.07.1-.21.09,0,0,0-.11.11-.08.17,0-.1.06-.08.07,0s0,.1,0,.14l-.07-.05a5.44,5.44,0,0,0,.09,1.32c.06,0,.07.31.16.25v0c0-.11.08,0,.09.1-.06-.08-.05.19-.12,0a1.28,1.28,0,0,0,0,.19c-.08.07,0,.19,0,.31a1.66,1.66,0,0,1,.2.4s0,0,0,0c.06.25.32.45.32.5h.06a.57.57,0,0,0,.25.41s0,0,0,0a.35.35,0,0,0,.14.25h0l.19.18c.05-.06.11,0,.2.13s.17.19.25.14.17.18.24.25,0,0,0,0,.26.11.36.17,0,.06,0,.07c.16,0,.34.22.41.21s.06-.05.09-.07-.06.13.16.13c0,0-.07,0,0,0s.26-.13.33-.08l-.06,0c.14.07.35-.07.36,0l0,0c.26,0,.11,0,.36,0h0c.11,0,.17,0,.22,0h.25s.09,0,.11,0,.33,0,.38,0c-.1,0-.06,0,0-.06a.17.17,0,0,0,.2,0c0,.07.06.16.25.11,0,0-.08,0-.07,0s.06,0,.08,0-.05,0,0,0,.21-.05.39-.09c-.07,0,0,0,0-.07s.2-.16.18,0c.15-.1.34-.2.51-.3a1,1,0,0,0,.33-.27c0-.05.11-.06.16-.1l0,0A2,2,0,0,0,49,21c-.09,0-.08,0-.05-.1l.16,0,0-.07a.25.25,0,0,0,.13-.12s0,0,0,0,.24-.15.29-.16.12-.11.08-.2l.06,0s0,.08.06,0h0l0-.05.09-.11a.35.35,0,0,0,0,.06.64.64,0,0,1,0-.07v0h0a.15.15,0,0,1,.06-.1.66.66,0,0,1,.16-.28.56.56,0,0,0,.13-.32s0,.08,0,.09c.08-.17.06-.36.13-.46l0,0a1.21,1.21,0,0,0,.12-.33h0c0-.08.05-.21.07-.32a.35.35,0,0,0,0-.28m-8.61-1.39v0s0,0,0,0m5,5.2h-.17l.06-.06h.08l0,0,.08,0s0,0,0,0h0s0,0,0,.05m1.9-1,.07-.07a.45.45,0,0,0,.07.07h-.14m.43-5.74a.21.21,0,0,1,.11.14l-.11-.14m.13.16h0v0m.85,1.12s0,.07,0,0h0m-.31,3.16,0,0a.53.53,0,0,1-.24.14,1.24,1.24,0,0,0,.1-.2l.22-.1a.52.52,0,0,1-.1.11m.14-.71c0-.05,0-.09,0-.14h.08l-.08,0,0-.14h0a.86.86,0,0,1,0,.3s-.08,0-.14,0m.13-.75s0-.08,0-.13a.05.05,0,0,0,0,0,.33.33,0,0,1-.06.1m0-.77a4.1,4.1,0,0,0-.11-.61.09.09,0,0,0,0,.06.25.25,0,0,1,0-.17.47.47,0,0,0,.05.1c0-.09-.09-.14-.11-.26s.06-.1.15,0a.26.26,0,0,1,0,.23.5.5,0,0,0,0,.28s0-.08.06.08a.5.5,0,0,1-.09.31"/><path class="cls-2" d="M39.87,34.18c-.1,0-.17.13-.24.14a.14.14,0,0,0,.11-.08v.07a.68.68,0,0,1-.34.11c.05,0,0,0-.06,0a2.88,2.88,0,0,1-.54.44.18.18,0,0,0,.1,0,.48.48,0,0,0,.24-.09l.12,0c-.15,0,0-.06,0-.11h.09s-.06,0,0,0,.21-.07.28-.05l0,.05h0c.09-.06.06,0,.07,0s.15-.11.19-.23c-.06.15.23-.14.21,0,0-.11.05,0,.06-.12a.72.72,0,0,1-.33.13Zm-.83.54h0s-.07,0,0,0"/><path class="cls-2" d="M41.84,29.93s0-.05.06,0,0-.12,0,0c-.13-.28-.21-.57-.31-.85a2.25,2.25,0,0,0-.43-.79s0,0,0,0,0-.1-.06-.16L41,28c0-.07,0,0,0-.06-.17-.25-.44-.4-.59-.6-.08,0,0,.06-.12,0,.09,0,0,0,0-.11s-.13-.11-.07-.11c-.14,0-.31-.19-.35-.05-.11-.06-.06-.11,0-.1a1,1,0,0,1-.3-.22,2.45,2.45,0,0,1-.34-.14.68.68,0,0,0-.4-.08c.1,0,0,0-.07-.09l.09,0-.18,0h0s0,0-.08,0a.3.3,0,0,1-.19-.09h0l-.09,0c-.06,0,.22.1,0,.09,0,0-.1-.11-.17-.07.11,0,.09.05,0,.06l-.15,0,.06-.06a4.56,4.56,0,0,0-1.32.1c0,.06-.31.08-.25.16h0c.1,0,0,.08-.1.1.08-.06-.19-.05,0-.13h-.18c-.07-.07-.19,0-.31,0a2.48,2.48,0,0,1-.39.21h0c-.25.06-.44.32-.5.32v.06a.56.56,0,0,0-.39.26s0,0,0,0a.43.43,0,0,0-.25.16h0l-.19.19c.06.05,0,.12-.12.2s-.19.18-.14.26-.18.17-.24.24a0,0,0,0,1,0,0c-.12.05-.11.27-.16.37s-.06,0-.08,0c0,.16-.21.35-.2.42s0,.05.07.09-.13-.06-.13.16c0,0,0-.06,0,0s.13.27.08.34v-.06c-.07.14.07.35,0,.36l0,0c0,.26,0,.11,0,.36h0c0,.11.05.17,0,.22v0a2.71,2.71,0,0,0,0,.29s0,.09,0,.11,0,.33,0,.39c0-.12,0-.07.06,0a.15.15,0,0,0,0,.2c-.08,0-.16.07-.12.25,0,0,0-.08,0-.07a.12.12,0,0,1,0,.08s0,0,0,0,0,.21.09.38c0-.06,0,0,.07,0s.16.19,0,.18c.1.14.2.34.3.5a.84.84,0,0,0,.28.32s.06.12.09.17l0,0a2.08,2.08,0,0,0,.14.32c0-.09,0-.08.1-.06s0,.11,0,.16l.06,0a.27.27,0,0,0,.13.13s0,0,0,0,.16.23.17.29.11.11.2.07a.25.25,0,0,0,0,.07s-.08,0,0,.06h0l.05,0,.11.09.38,0a.47.47,0,0,1,0-.1l.2.09v0h.19c1.3,0,3.59-.31,4.44-2.38l.1,0a5.63,5.63,0,0,1-1.17,2.28l.26-.14h0l.06,0h0l.3-.2s.19,0,.18,0,0-.07.11-.13,0,.11-.05.15.11,0,.12,0,0-.25-.12-.21a.16.16,0,0,1-.13.1,4.1,4.1,0,0,0,1.59-3.25,1.94,1.94,0,0,0,0-.24c.06.05.11.1.15,0v.08c.07,0,0-.24,0-.29l-.09-.24M33.53,31.5s0,0,0,0,0,.06,0,0v-.18l0,.06a.08.08,0,0,1,0,0v0l0,0a.24.24,0,0,0,0,.08s0,0,0,0m1,2v-.14l.07.08a.22.22,0,0,0-.07.06m4.06-7.15h0s0,0,0,0m1.5,7.5h0Z"/><polyline class="cls-2" points="39.4 34.34 39.4 34.34 39.41 34.34 39.4 34.34"/><path class="cls-2" d="M23.36,30.29s.06,0,.07,0,0-.11,0,0c-.13-.28-.21-.57-.31-.85a2.25,2.25,0,0,0-.43-.79s0,0,0,0,0-.11-.06-.16l-.16-.08c0-.06,0,0,0-.06-.17-.25-.44-.4-.59-.6-.08,0,0,.07-.11,0,.08,0,0-.05,0-.1s-.12-.12-.07-.12c-.14,0-.32-.19-.35,0-.11-.06-.05-.1,0-.1a1.91,1.91,0,0,1-.21-.14l-.54,0c-1.3,0-3.59.31-4.44,2.39l-.1,0a5.28,5.28,0,0,1,1.63-2.71.41.41,0,0,0-.26.07,2.48,2.48,0,0,1-.39.21h0c-.24.06-.44.32-.5.33l0,.05a.58.58,0,0,0-.4.26s0,0,0,0a.36.36,0,0,0-.25.15h0l-.18.19c.05.05,0,.12-.13.2s-.18.19-.13.27-.18.17-.24.23v0c-.12.05-.11.27-.16.37s-.06,0-.07,0c0,.16-.22.35-.21.41s.05.06.07.1-.13-.07-.12.15c0,0,0-.06,0,0s.14.26.09.33l0-.06c-.07.14.07.36,0,.36l0,0c0,.26,0,.11,0,.36h0c0,.11,0,.17,0,.23v0a1.42,1.42,0,0,0,0,.29.12.12,0,0,0,0,.1c-.07,0,0,.33,0,.39,0-.11,0-.07.06,0a.15.15,0,0,0,0,.2c-.08,0-.16.07-.12.25,0,0,0-.08,0-.07s0,.06,0,.08,0-.05.05,0,0,.2.09.38c0-.07,0,0,.07,0s.16.19,0,.18c.1.15.2.34.3.5a1.32,1.32,0,0,0,.27.33s.07.11.11.16l0,0A2,2,0,0,0,16,34c0-.09,0-.08.11-.05l0,.15.06,0a.37.37,0,0,0,.13.12s0,0,0,0,.15.23.16.29.12.11.2.07a.25.25,0,0,0,0,.07s-.07,0,0,.06h0l.05,0,.12.09h0a.18.18,0,0,1,.1.06.72.72,0,0,1,.28.16.5.5,0,0,0,.32.12.11.11,0,0,1-.09,0c.17.08.36.06.46.13l0,0a1.16,1.16,0,0,0,.33.11v0l.31.07a.38.38,0,0,0,.29,0s.22,0,.3,0l0,0h.25a4.24,4.24,0,0,1,.66-.1h0l.21,0c-.06,0,.05,0,.1,0a.43.43,0,0,0,.24-.1l.12,0c-.14,0,0-.06,0-.1h.09s-.06,0,0,0,.21-.07.28-.05a.09.09,0,0,1,0,.05h0c.09-.06.06,0,.07,0s.15-.12.19-.24c-.06.15.23-.14.21,0,0-.11.05,0,.06-.12a.72.72,0,0,1-.33.13l.06-.09c-.1,0-.17.14-.24.14a.14.14,0,0,0,.11-.08v.07a.59.59,0,0,1-.34.11c.08-.06-.11,0-.07-.06l.06,0s0,0,0,0l.33-.17,0,0,.05,0h0l.3-.2c.05,0,.19,0,.18,0s0-.06.11-.13,0,.11-.05.15.11,0,.12,0,0-.25-.12-.21a.18.18,0,0,1-.13.11l.13-.11L22,34c0,.05,0,0,.05,0v0s0,0,0,0a4.15,4.15,0,0,0,1.33-3,1.94,1.94,0,0,0,0-.24c.06.05.11.11.15.05v.08c.06,0,0-.25,0-.3a2.44,2.44,0,0,0-.1-.24m-8.3,1.57a0,0,0,0,0,0,0s0,.05-.05,0v-.17l.06.06v.08l0,0a.19.19,0,0,0,0,.08s0,0,0,0m1,2v-.14l.07.08a.22.22,0,0,0-.07.06m1.31.95h0a.41.41,0,0,1-.15-.23l.2.1.11.21-.12-.09m1,.22a1.25,1.25,0,0,1-.3.05.2.2,0,0,1,0-.15l.14,0v.08l0-.07.14,0a0,0,0,0,1,0,0m.56.08-.11-.06H19a.09.09,0,0,0,0,.05m1.34-.06a.54.54,0,0,0-.28,0s.08.05-.08.06a.5.5,0,0,1-.31-.09,3.14,3.14,0,0,0,.61-.12l-.07,0a.29.29,0,0,1,.18,0l-.1.05c.09,0,.13-.09.26-.11s.1.06,0,.15a.23.23,0,0,1-.23,0m.26,0h0m1.08-.86h0Z"/><polygon class="cls-2" points="58.89 34.46 59 34.44 58.98 34.43 58.89 34.46"/><polygon class="cls-2" points="57.11 35.29 57.19 35.28 57.19 35.28 57.11 35.29"/><polygon class="cls-2" points="57.24 35.22 57.28 35.21 57.23 35.2 57.24 35.22"/><polygon class="cls-2" points="56.06 35.31 56.07 35.31 56.07 35.31 56.06 35.31"/><polygon class="cls-2" points="55.78 35.31 55.83 35.34 55.83 35.3 55.78 35.31"/><polygon class="cls-2" points="55.61 35.05 55.64 35.01 55.58 35 55.61 35.05"/><polygon class="cls-2" points="59.71 33.88 59.7 33.95 59.74 33.87 59.71 33.88"/><polygon class="cls-2" points="46.78 13.58 46.86 13.62 46.77 13.56 46.78 13.58"/><polygon class="cls-2" points="48.63 14.26 48.7 14.31 48.63 14.26 48.63 14.26"/><polygon class="cls-2" points="48.56 14.29 48.56 14.27 48.53 14.26 48.56 14.29"/><polygon class="cls-2" points="49.43 15.05 49.45 15.05 49.44 15.04 49.43 15.05"/><polygon class="cls-2" points="49.6 15.23 49.64 15.25 49.63 15.2 49.6 15.23"/><polygon class="cls-2" points="49.52 15.57 49.56 15.61 49.58 15.56 49.52 15.57"/><polygon class="cls-2" points="45.84 13.42 45.88 13.43 45.94 13.39 45.84 13.42"/><path class="cls-3" d="M19.87,60.94c-.06,0-.06.06,0,.06s.11.1,0,.19c-.23.28-.32.38-.57.65l-.8.9.11.1c.19.23.63.72.89,1,.6.63.95.81,1.45.81a2.06,2.06,0,0,0,.4,0c.05,0,.05,0,0,0a1.43,1.43,0,0,1-.37-.06,3.15,3.15,0,0,1-1-.72l-1.13-1.2c.12-.15.45-.5.66-.72a8.48,8.48,0,0,1,.65-.63,1,1,0,0,1,.58-.22c.06,0,.06-.07,0-.07l-.43,0h-.52m-1.39,3c0,.55.1.55.36.59a0,0,0,1,1,0,.07l-.58,0-.59,0c-.05,0,0-.06,0-.07.33,0,.35-.09.37-.59,0-.2,0-.87,0-1.07,0-.46,0-1.07,0-1.26,0-.52-.07-.58-.39-.62,0,0,0-.06,0-.06l.61,0,.55,0c.06,0,.05.06,0,.06-.27,0-.32.11-.33.62,0,.31,0,.85,0,1.26,0,.2,0,.87,0,1.07"/><path class="cls-3" d="M23.31,61.64c-.08.17-.18.4-.28.66l-.26.69h1c-.16-.45-.31-.88-.5-1.35m.06-.68c0-.09.05-.1.07-.1s0,0,.07.1c.16.49.72,2,1.17,3.14.14.34.24.4.51.43,0,0,0,.07,0,.07l-.64,0-.52,0s0-.07,0-.07c.23,0,.27-.09.19-.35s-.22-.66-.35-1H22.71c-.09.23-.26.68-.35,1s.06.35.25.37a0,0,0,1,1,0,.07l-.53,0-.54,0c-.05,0,0-.07,0-.07A.53.53,0,0,0,22,64.2c.17-.31.37-.82.57-1.3Z"/><path class="cls-3" d="M26.72,61.08v1.79c0,.3,0,.86,0,1,0,.56.12.6.49.64a0,0,0,1,1,0,.07l-.66,0-.53,0c-.05,0,0-.07,0-.07.2,0,.26,0,.27-.58,0-.2,0-.88,0-1.08,0-.46,0-1,0-1.2,0-.56-.06-.64-.42-.68a0,0,0,1,1,0-.06l.54,0c.23,0,.46,0,.76,0,.9,0,1.22.52,1.22,1A1.1,1.1,0,0,1,27.21,63a1.16,1.16,0,0,1-.37-.07s0-.09,0-.07H27a.87.87,0,0,0,1-1,.82.82,0,0,0-.83-.85,3.49,3.49,0,0,0-.44,0"/><path class="cls-3" d="M31.93,63.71c0-.05.08-.06.08,0,0,.22,0,.57,0,.72s-.13.17-.35.17-.68,0-1.43,0l-.65,0c-.06,0,0-.07,0-.07.31,0,.36-.11.37-.59s0-.87,0-1.07c0-.46,0-1.06,0-1.26,0-.49-.05-.57-.37-.62a0,0,0,1,1,0-.06l.59,0,.55,0c.06,0,0,.06,0,.06-.26,0-.33.11-.33.59l0,1.15c0,.43,0,1,0,1.27s0,.4.37.4h.53c.5,0,.6-.32.67-.69"/><path class="cls-3" d="M34.33,61.64c-.07.17-.17.4-.27.66l-.27.69h1c-.15-.45-.31-.88-.5-1.35m.06-.68c0-.09,0-.1.07-.1s0,0,.07.1c.16.49.73,2,1.18,3.14.13.34.23.4.5.43,0,0,0,.07,0,.07l-.63,0-.52,0a0,0,0,1,1,0-.07c.22,0,.26-.09.18-.35s-.22-.66-.35-1H33.73c-.09.23-.26.68-.35,1s.06.35.26.37c0,0,0,.07,0,.07l-.54,0-.54,0c-.05,0,0-.07,0-.07A.53.53,0,0,0,33,64.2a11.29,11.29,0,0,0,.57-1.3Z"/><path class="cls-3" d="M40.46,64.53c0,.11,0,.13,0,.13s-.05,0-.13-.1c-.38-.43-.78-.86-1.5-1.59-.57-.57-1-1-1.27-1.27,0,.45,0,1.58.05,2.41,0,.23.12.39.47.42,0,0,.06.07,0,.07l-.62,0-.47,0s0-.07,0-.07c.21,0,.29-.09.31-.39.05-.66.06-1.6.06-2.08V61c0-.08,0-.11,0-.11s0,0,.13.09c.43.49.91,1,1.5,1.59s1,1,1.27,1.25c0-.7,0-1.46,0-2.28,0-.43-.07-.5-.4-.55,0,0-.05-.06,0-.06l.54,0,.44,0s0,.06,0,.06c-.23,0-.29.2-.3.47,0,.91-.06,1.78-.06,3.07"/><path class="cls-3" d="M44.27,60.94c-.05,0-.05.06,0,.06s.12.1,0,.19c-.23.28-.33.38-.57.65l-.8.9.11.1c.19.23.63.72.89,1,.6.63,1,.81,1.45.81a2.06,2.06,0,0,0,.4,0c.05,0,.05,0,0,0a1.43,1.43,0,0,1-.37-.06,3.15,3.15,0,0,1-1-.72c-.31-.32-.89-.93-1.13-1.2.12-.15.45-.5.66-.72a8.48,8.48,0,0,1,.65-.63,1,1,0,0,1,.58-.22c.06,0,.06-.07,0-.07l-.43,0h-.53m-1.38,3c0,.55.1.55.36.59,0,0,0,.07,0,.07l-.58,0-.59,0s0-.06,0-.07c.33,0,.35-.09.37-.59,0-.2,0-.87,0-1.07,0-.46,0-1.07,0-1.26,0-.52-.07-.58-.39-.62-.05,0-.06-.06,0-.06l.61,0,.55,0c.06,0,0,.06,0,.06-.27,0-.32.11-.33.62,0,.31,0,.85,0,1.26,0,.2,0,.87,0,1.07"/><path class="cls-3" d="M47.72,61.64c-.08.17-.18.4-.28.66l-.26.69h1c-.16-.45-.32-.88-.5-1.35m.06-.68c0-.09,0-.1.07-.1s0,0,.07.1c.16.49.72,2,1.17,3.14.14.34.24.4.51.43,0,0,0,.07,0,.07l-.64,0-.52,0s0-.07,0-.07c.23,0,.27-.09.18-.35s-.21-.66-.34-1H47.12c-.09.23-.26.68-.35,1s.06.35.25.37c0,0,0,.07,0,.07l-.53,0-.54,0c-.05,0,0-.07,0-.07a.54.54,0,0,0,.47-.33c.17-.31.37-.82.57-1.3Z"/><path class="cls-3" d="M53.88,61.09a.58.58,0,0,0-.21,0,1.47,1.47,0,0,0-1,.73,3.53,3.53,0,0,0-.72,1.79V64c0,.53.09.49.42.53,0,0,0,.07,0,.07l-.62,0-.6,0s0-.07,0-.07c.25,0,.37,0,.37-.53v-.4A3.43,3.43,0,0,0,51,62c-.43-.65-.78-.91-1.17-.92a.64.64,0,0,0-.29,0s-.06,0,0-.05a.78.78,0,0,1,.58-.19,1.6,1.6,0,0,1,1.28.9,4.06,4.06,0,0,1,.5,1.27,3.45,3.45,0,0,1,.57-1.41,1.42,1.42,0,0,1,1.15-.75.4.4,0,0,1,.36.15s0,.05,0,0"/><path class="cls-3" d="M55.47,61.64c-.07.17-.17.4-.27.66l-.27.69h1c-.15-.45-.31-.88-.5-1.35m.06-.68c0-.09,0-.1.07-.1s0,0,.07.1c.16.49.73,2,1.18,3.14.13.34.23.4.5.43a0,0,0,1,1,0,.07l-.63,0-.52,0c-.05,0,0-.07,0-.07.22,0,.26-.09.18-.35s-.22-.66-.35-1H54.87c-.09.23-.26.68-.35,1s.06.35.26.37c0,0,0,.07,0,.07l-.53,0-.55,0c-.05,0,0-.07,0-.07a.54.54,0,0,0,.48-.33,13.57,13.57,0,0,0,.56-1.3Z"/></svg>