<svg id="Layer_1" data-name="Layer 1" xmlns="http://www.w3.org/2000/svg" viewBox="0 0 75 65"><defs><style>.cls-1{fill:#5d5e5e;}.cls-2{fill:#6d2158;}.cls-3{fill:#666;}</style></defs><title>Artboard 1</title><path class="cls-1" d="M.12,50a.07.07,0,0,1,.09,0,.08.08,0,0,1,0,0C.32,51.18.9,51.92,2,51.92a1.44,1.44,0,0,0,1.58-1.3.49.49,0,0,0,0-.12c0-1-.65-1.44-1.75-2A2.5,2.5,0,0,1,.21,46.18a1.92,1.92,0,0,1,2-1.89h.21a3.84,3.84,0,0,1,1.12.16.57.57,0,0,1,.44.66v0c0,.17-.08.65-.11.91,0,.09-.13.06-.13,0a1.45,1.45,0,0,0-1.43-1.47h0A1.26,1.26,0,0,0,.86,45.7v.21A2,2,0,0,0,2.2,47.65c1.51.77,2.13,1.41,2.1,2.57a2.16,2.16,0,0,1-2.3,2H1.89A3.42,3.42,0,0,1,.51,52,.82.82,0,0,1,0,51.3,4,4,0,0,1,.12,50Z"/><path class="cls-1" d="M9.32,50.67c0,1,.14,1.17.86,1.23,0,0,.08,0,.09,0a.06.06,0,0,1,0,.09h-.05L8.89,52H7.63c-.1,0-.08-.13,0-.13.6-.09.76-.16.78-1.23V45.92c0-1.27-.23-1.27-.78-1.34-.08,0-.11-.14,0-.14H10c.1,0,.09.12,0,.14-.52.09-.67.11-.69,1.34v2.52C9.29,48.89,9.31,50.26,9.32,50.67Z"/><path class="cls-1" d="M16.15,48.64c-.48.75-1.13,1.87-1.47,2.5s-.28.69.37.76c.08,0,.11.13,0,.13L14,52H12.86s-.08,0-.09,0a.06.06,0,0,1,0-.09h0A1.35,1.35,0,0,0,14,51.19c.62-.86,1.36-2,2-2.93-.63-1-1.35-2.17-1.88-3-.34-.51-.5-.64-1-.68-.08,0-.11-.14,0-.14h2.39c.11,0,.08.14,0,.14-.55.06-.55.24-.34.63.38.69.83,1.5,1.32,2.34.46-.73.88-1.48,1.22-2.16s.27-.74-.17-.81c-.08,0-.11-.14,0-.14h2a.07.07,0,0,1,0,.14h0c-.35,0-.58.07-1,.7-.65.93-1.28,1.85-1.74,2.61.61,1,1.56,2.49,2.13,3.3.35.5.58.64,1,.68a.07.07,0,0,1,0,.09l0,0H17.58a.07.07,0,0,1,0-.09l0,0c.48,0,.47-.24.25-.63C17.42,50.69,16.71,49.59,16.15,48.64Z"/><path class="cls-1" d="M27.5,50c0-.09.14-.07.14,0,.06,1.18.64,1.92,1.69,1.92A1.45,1.45,0,0,0,31,50.71a1.49,1.49,0,0,0,0-.21c0-1-.64-1.44-1.75-2a2.5,2.5,0,0,1-1.63-2.31,1.93,1.93,0,0,1,2-1.89h.2a3.84,3.84,0,0,1,1.12.16.57.57,0,0,1,.43.67v0c0,.17-.08.65-.11.91,0,.09-.13.06-.13,0a1.45,1.45,0,0,0-1.43-1.47h0a1.25,1.25,0,0,0-1.37,1.1,1.62,1.62,0,0,0,0,.22,2,2,0,0,0,1.33,1.74c1.51.77,2.14,1.41,2.1,2.57a2.16,2.16,0,0,1-2.3,2H29.3A3.57,3.57,0,0,1,27.89,52a.85.85,0,0,1-.5-.66A5,5,0,0,1,27.5,50Z"/><path class="cls-1" d="M36.68,50.85c0,.73.17.77.81.78h1c1,0,1.22-.67,1.36-1.44,0-.08.15-.09.15,0a12.35,12.35,0,0,1,0,1.49c0,.27-.26.36-.72.36H36.41L35,52c-.1,0-.08-.13,0-.13.65-.07.78-.18.8-1.23V45.9c0-1,0-1.23-.84-1.32-.08,0-.11-.14,0-.14h4c.36,0,.55,0,.53.31s-.07.75-.14,1.17c0,.08-.15.08-.14,0,0-.61-.21-1-.83-1.06a15.69,15.69,0,0,0-1.68,0v3a16.68,16.68,0,0,0,2,0c.35,0,.34-.13.43-.12s0,.06,0,.3a4.91,4.91,0,0,1-.13.75c0,.08-.14.08-.14,0,0-.49-.31-.49-.81-.51H36.66C36.65,48.89,36.66,50.08,36.68,50.85Z"/><path class="cls-1" d="M50.44,51.9v.27s-.09,0-.26-.21c-.78-.89-1.6-1.78-3.08-3.28-1.17-1.18-2.11-2.15-2.62-2.62,0,.93,0,3.26.11,5,0,.49.23.81,1,.88.09,0,.11.13,0,.13H43.3s-.08,0-.09,0a.06.06,0,0,1,0-.09h0c.44-.09.6-.2.64-.82.1-1.35.13-3.28.13-4.28V44.43s.09,0,.26.19c.9,1,1.89,2.05,3.1,3.26,1.06,1.06,2,2,2.61,2.59,0-1.44,0-3-.06-4.7,0-.89-.15-1-.83-1.12a.07.07,0,1,1,0-.14h2c.1,0,.07.14,0,.14-.46.07-.58.4-.61,1C50.49,47.44,50.44,49.23,50.44,51.9Z"/><path class="cls-1" d="M54.86,50A.07.07,0,0,1,55,50c.07,1.18.65,1.92,1.7,1.92a1.46,1.46,0,0,0,1.63-1.25.91.91,0,0,0,0-.17c0-1-.64-1.44-1.75-2A2.48,2.48,0,0,1,55,46.18a1.93,1.93,0,0,1,2-1.89h.2a3.84,3.84,0,0,1,1.12.16.57.57,0,0,1,.43.67v0c0,.17-.08.65-.11.91,0,.09-.13.06-.13,0a1.45,1.45,0,0,0-1.43-1.47h0a1.26,1.26,0,0,0-1.38,1.11v.21A2,2,0,0,0,57,47.65c1.51.77,2.13,1.41,2.1,2.57a2.16,2.16,0,0,1-2.3,2h-.11a3.35,3.35,0,0,1-1.4-.22.85.85,0,0,1-.5-.66A4.65,4.65,0,0,1,54.86,50Z"/><path class="cls-1" d="M64,50.85c0,.73.17.77.8.78h1c1,0,1.21-.67,1.36-1.44,0-.08.15-.09.15,0a12.29,12.29,0,0,1-.06,1.49c0,.27-.26.36-.72.36H62.28s-.08,0-.09,0a.06.06,0,0,1,0-.09h.05c.64-.07.78-.18.8-1.23V45.94c0-1,0-1.23-.84-1.32-.08,0-.11-.14,0-.14h4c.36,0,.55,0,.53.31s-.08.75-.14,1.17c0,.08-.16.08-.14,0,0-.61-.21-1-.83-1.06a15.69,15.69,0,0,0-1.68,0v3a16.68,16.68,0,0,0,2,0c.35,0,.34-.13.43-.12s0,.06,0,.3a4.88,4.88,0,0,1-.12.75c0,.08-.14.08-.14,0,0-.49-.31-.49-.81-.51H64C64,48.89,64,50.08,64,50.85Z"/><path class="cls-1" d="M70.82,50c0-.09.14-.07.14,0,.06,1.18.64,1.92,1.69,1.92a1.46,1.46,0,0,0,1.63-1.25.91.91,0,0,0,0-.17c0-1-.64-1.44-1.75-2a2.5,2.5,0,0,1-1.63-2.31,1.93,1.93,0,0,1,2-1.89h.2a3.84,3.84,0,0,1,1.12.16.57.57,0,0,1,.43.67v0c0,.17-.08.65-.11.91,0,.09-.13.06-.13,0A1.45,1.45,0,0,0,73,44.6h0a1.25,1.25,0,0,0-1.37,1.1,1.62,1.62,0,0,0,0,.22,2,2,0,0,0,1.33,1.74c1.51.77,2.13,1.41,2.1,2.57a2.16,2.16,0,0,1-2.3,2h-.11A3.43,3.43,0,0,1,71.21,52a.85.85,0,0,1-.5-.66A5,5,0,0,1,70.82,50Z"/><path class="cls-2" d="M59.55,34.34h.05S59.57,34.31,59.55,34.34Z"/><polygon class="cls-2" points="58.89 34.72 59 34.7 58.97 34.7 58.89 34.72"/><path class="cls-2" d="M58.73,34.84c-.08.08-.26.09-.28.18.07-.06.25-.11.36-.18h-.08Z"/><path class="cls-2" d="M58.22,35.3h.06C58.14,35.31,58.23,35.27,58.22,35.3Z"/><path class="cls-2" d="M58,35.43l.06-.06H58S57.93,35.44,58,35.43Z"/><path class="cls-2" d="M58.08,35.25c.09,0,0,0,0,.06C58.24,35.25,58.24,35.2,58.08,35.25Z"/><path class="cls-2" d="M58.44,34.92h0a.36.36,0,0,1,.11-.06Z"/><path class="cls-2" d="M57.47,35.57a.11.11,0,0,0,.09-.06h-.07S57.46,35.56,57.47,35.57Z"/><path class="cls-2" d="M57.39,35.5h.1S57.47,35.48,57.39,35.5Z"/><path class="cls-2" d="M56.85,35.66a.31.31,0,0,1-.19,0,.54.54,0,0,0,.18,0S56.89,35.69,56.85,35.66Z"/><path class="cls-2" d="M57.16,35.59a.18.18,0,0,0,.07-.05h0Z"/><polygon class="cls-2" points="57.11 35.56 57.19 35.54 57.19 35.54 57.11 35.56"/><path class="cls-2" d="M57.54,35.32c-.1.07,0,.07.08.07S57.59,35.34,57.54,35.32Z"/><path class="cls-2" d="M57.37,35.44h0S57.37,35.45,57.37,35.44Z"/><polygon class="cls-2" points="57.24 35.48 57.27 35.47 57.22 35.47 57.24 35.48"/><path class="cls-2" d="M56.77,35.57h0C56.81,35.61,56.78,35.59,56.77,35.57Z"/><polygon class="cls-2" points="56.07 35.58 56.07 35.57 56.06 35.58 56.07 35.58"/><path class="cls-2" d="M56.78,35.56h.1A.17.17,0,0,0,56.78,35.56Z"/><path class="cls-2" d="M56.5,35.62h-.08A.21.21,0,0,0,56.5,35.62Z"/><path class="cls-2" d="M56.16,35.63a.33.33,0,0,1,.14,0h-.14Z"/><path class="cls-2" d="M56.5,35.61Z"/><path class="cls-2" d="M56.5,35.61h0c.14,0-.11-.06.09-.06-.08,0,0,0-.16,0s0,.07.07.11h0Z"/><path class="cls-2" d="M57.35,35.3a.54.54,0,0,0-.07.13.49.49,0,0,1,.14-.11h0Z"/><path class="cls-2" d="M56.77,35.45h.16s0-.05-.09,0h-.07Z"/><path class="cls-2" d="M56,35.57l.09.08h0Z"/><polygon class="cls-2" points="55.78 35.58 55.83 35.61 55.83 35.57 55.78 35.58"/><path class="cls-2" d="M52.1,32.09c-.05,0,0,.07.08.13a.24.24,0,0,1,0-.12Z"/><path class="cls-2" d="M53.7,34.65a.33.33,0,0,0,.13.07Z"/><path class="cls-2" d="M53.7,34.65a.52.52,0,0,1-.11-.1h0A.18.18,0,0,0,53.7,34.65Z"/><path class="cls-2" d="M56.34,35.38h0C56.24,35.35,56.28,35.38,56.34,35.38Z"/><path class="cls-2" d="M55.68,35.4h-.13S55.69,35.46,55.68,35.4Z"/><path class="cls-2" d="M55.77,35.42h-.06S55.77,35.44,55.77,35.42Z"/><path class="cls-2" d="M54.88,35.34Z"/><polygon class="cls-2" points="55.58 35.27 55.6 35.32 55.64 35.27 55.58 35.27"/><path class="cls-2" d="M55.24,35.19h0C55.32,35.19,55.23,35.2,55.24,35.19Z"/><path class="cls-2" d="M54,34.61l.09.08v-.06C54.09,34.57,54,34.59,54,34.61Z"/><polygon class="cls-2" points="59.7 34.22 59.74 34.13 59.71 34.15 59.7 34.22"/><path class="cls-2" d="M59.57,34.21v.06h.08Z"/><polygon class="cls-2" points="46.86 13.88 46.77 13.82 46.78 13.84 46.86 13.88"/><path class="cls-2" d="M47.05,13.91c.12,0,.25.13.33.08a2.43,2.43,0,0,1-.38-.13v.07Z"/><path class="cls-2" d="M48,14h-.08l.07.06S48,14.07,48,14Z"/><path class="cls-2" d="M47.94,14.11h0l-.08-.06S47.94,14.13,47.94,14.11Z"/><path class="cls-2" d="M47.85,14.06c-.15-.08-.19,0-.05,0C47.73,14,47.8,14.05,47.85,14.06Z"/><path class="cls-2" d="M47.27,14h.06S47.29,14.05,47.27,14Z"/><path class="cls-2" d="M48.46,14.31h-.11S48.46,14.33,48.46,14.31Z"/><path class="cls-2" d="M48.46,14.42l-.06-.07S48.39,14.38,48.46,14.42Z"/><path class="cls-2" d="M48,14.26a.93.93,0,0,1-.14-.14l.11.12Z"/><path class="cls-2" d="M49.11,14.81a.54.54,0,0,0-.1-.16h0A.34.34,0,0,1,49.11,14.81Z"/><path class="cls-2" d="M48.69,14.52h0Z"/><polygon class="cls-2" points="48.7 14.58 48.63 14.53 48.63 14.53 48.7 14.58"/><path class="cls-2" d="M48.23,14.43c.12,0,0,0,0-.1S48.21,14.39,48.23,14.43Z"/><path class="cls-2" d="M48.44,14.47h.09l-.08-.09Z"/><polygon class="cls-2" points="48.56 14.54 48.53 14.52 48.56 14.56 48.56 14.54"/><path class="cls-2" d="M48.94,14.81l.14.11L49,14.8C48.94,14.76,49,14.8,48.94,14.81Z"/><polygon class="cls-2" points="49.44 15.31 49.43 15.31 49.45 15.32 49.44 15.31"/><path class="cls-2" d="M48.93,14.81h0l-.07-.09A.13.13,0,0,0,48.93,14.81Z"/><path class="cls-2" d="M49.42,15.21l-.14-.07h0l.14.15A.11.11,0,0,0,49.42,15.21Z"/><path class="cls-2" d="M49.17,15l-.09-.06a.27.27,0,0,1,.07.08c-.12-.08,0,.12-.09,0,0,.06,0,.06.06.15s0-.07,0-.13h0l.13.14a.61.61,0,0,0-.12-.16Z"/><path class="cls-2" d="M48.28,14.56Z"/><path class="cls-2" d="M48.28,14.56h0a.1.1,0,0,1,0,.06h.14a.54.54,0,0,1-.18,0h0C48.22,14.48,48.26,14.54,48.28,14.56Z"/><path class="cls-2" d="M48.79,14.86h.08l-.1-.12A.08.08,0,0,0,48.79,14.86Z"/><polygon class="cls-2" points="49.63 15.46 49.6 15.49 49.64 15.52 49.63 15.46"/><path class="cls-2" d="M49.71,20.59v-.15a.24.24,0,0,1-.06.11Z"/><path class="cls-2" d="M50.43,17.66v-.15C50.43,17.45,50.4,17.59,50.43,17.66Z"/><path class="cls-2" d="M43.85,21.83v.05C43.85,21.93,43.87,21.85,43.85,21.83Z"/><path class="cls-2" d="M50.43,17.66a.33.33,0,0,1,0,.14h0A.17.17,0,0,0,50.43,17.66Z"/><path class="cls-2" d="M49.89,15.89V15.8h0A.14.14,0,0,1,49.89,15.89Z"/><path class="cls-2" d="M49.66,15.81c0-.08,0-.15-.08-.1h0S49.62,15.82,49.66,15.81Z"/><path class="cls-2" d="M49.53,15.64Z"/><path class="cls-2" d="M50.1,16.33v.05C50.1,16.43,50.13,16.27,50.1,16.33Z"/><polygon class="cls-2" points="49.58 15.82 49.52 15.83 49.56 15.88 49.58 15.82"/><path class="cls-2" d="M49.74,16.18l.06.08v-.12C49.8,16.08,49.75,16.18,49.74,16.18Z"/><path class="cls-2" d="M49.75,16.14v-.07A.09.09,0,0,0,49.75,16.14Z"/><path class="cls-2" d="M50.13,17.39v-.06A.11.11,0,0,1,50.13,17.39Z"/><polygon class="cls-2" points="45.94 13.66 45.84 13.68 45.88 13.7 45.94 13.66"/><path class="cls-2" d="M46.09,13.75,46,13.69v.07Z"/><path class="cls-2" d="M26.44,14.8s0-.05-.05,0S26.42,14.83,26.44,14.8Z"/><polygon class="cls-2" points="27.1 14.42 26.99 14.44 27.01 14.45 27.1 14.42"/><path class="cls-2" d="M27.25,14.3c.08-.08.27-.09.28-.18l-.36.18Z"/><path class="cls-2" d="M27.77,13.83h-.06C27.85,13.83,27.76,13.87,27.77,13.83Z"/><path class="cls-2" d="M28,13.71l-.05.06H28S28.05,13.69,28,13.71Z"/><path class="cls-2" d="M27.9,13.89c-.09,0,0,0,0-.06S27.75,13.94,27.9,13.89Z"/><path class="cls-2" d="M27.55,14.22v-.05l-.1.06Z"/><path class="cls-2" d="M28.52,13.57a.1.1,0,0,0-.09.07h.07S28.53,13.58,28.52,13.57Z"/><path class="cls-2" d="M28.6,13.64h-.1S28.52,13.66,28.6,13.64Z"/><path class="cls-2" d="M29.14,13.48a.28.28,0,0,1,.18,0h-.18C29.19,13.42,29.09,13.45,29.14,13.48Z"/><polygon class="cls-2" points="28.88 13.58 28.8 13.6 28.8 13.6 28.88 13.58"/><path class="cls-2" d="M28.45,13.81c.09-.06,0-.06-.08-.07S28.4,13.8,28.45,13.81Z"/><path class="cls-2" d="M28.62,13.7h0S28.62,13.68,28.62,13.7Z"/><polygon class="cls-2" points="28.75 13.65 28.71 13.66 28.76 13.67 28.75 13.65"/><path class="cls-2" d="M29.21,13.57h0C29.18,13.53,29.21,13.55,29.21,13.57Z"/><polygon class="cls-2" points="29.91 13.56 29.91 13.57 29.92 13.56 29.91 13.56"/><path class="cls-2" d="M29.2,13.57h-.09A.08.08,0,0,0,29.2,13.57Z"/><path class="cls-2" d="M29.49,13.52h0Z"/><path class="cls-2" d="M29.83,13.5a.44.44,0,0,1-.15.05h.23S29.9,13.53,29.83,13.5Z"/><path class="cls-2" d="M29.48,13.53h0c-.14,0,.11.06-.08,0,.07,0,0,.06.16.06s0-.07-.07-.11h0Z"/><path class="cls-2" d="M28.64,13.84a.75.75,0,0,0,.07-.12.4.4,0,0,1-.15.1h0A.08.08,0,0,1,28.64,13.84Z"/><path class="cls-2" d="M29.22,13.69h-.16s0,.05.08,0h.08Z"/><path class="cls-2" d="M30,13.57l-.09-.08h0Z"/><polygon class="cls-2" points="30.21 13.56 30.16 13.53 30.16 13.57 30.21 13.56"/><path class="cls-2" d="M33.81,16.92a.24.24,0,0,1,0,.12h0S33.86,17,33.81,16.92Z"/><path class="cls-2" d="M32.29,14.49a.33.33,0,0,0-.13-.07Z"/><path class="cls-2" d="M32.29,14.49a.52.52,0,0,1,.11.1h0A.18.18,0,0,0,32.29,14.49Z"/><path class="cls-2" d="M30.56,13.64h0S30.56,13.62,30.56,13.64Z"/><path class="cls-2" d="M29.65,13.76h0C29.75,13.79,29.71,13.77,29.65,13.76Z"/><path class="cls-2" d="M30.3,13.74h.14S30.29,13.68,30.3,13.74Z"/><path class="cls-2" d="M30.22,13.72h.06S30.21,13.7,30.22,13.72Z"/><path class="cls-2" d="M31.1,13.79v.05S31.09,13.73,31.1,13.79Z"/><polygon class="cls-2" points="30.41 13.87 30.38 13.82 30.35 13.87 30.41 13.87"/><path class="cls-2" d="M32,14.53l-.08-.08v.06C31.92,14.57,32,14.55,32,14.53Z"/><polygon class="cls-2" points="26.29 14.92 26.24 15.01 26.27 14.99 26.29 14.92"/><path class="cls-2" d="M26.42,14.93v-.06h-.08Z"/><path class="cls-2" d="M34.66,7.85V7.79C34.66,7.73,34.62,7.79,34.66,7.85Z"/><polygon class="cls-2" points="34.31 7.24 34.32 7.22 34.29 7.14 34.31 7.24"/><path class="cls-2" d="M34,6.7a3,3,0,0,1,.18.36V7h0C34.09,6.9,34.08,6.72,34,6.7Z"/><path class="cls-2" d="M33.71,6.47h0C33.7,6.39,33.74,6.47,33.71,6.47Z"/><path class="cls-2" d="M33.58,6.27l.06.05V6.23S33.57,6.18,33.58,6.27Z"/><path class="cls-2" d="M33.66,6.18v.1h0C33.66,6.35,33.67,6.19,33.66,6.18Z"/><path class="cls-2" d="M33.7,6.33c.06.16.11.16.06,0C33.77,6.42,33.73,6.37,33.7,6.33Z"/><path class="cls-2" d="M34.09,6.68H34a.64.64,0,0,1,.06.1Z"/><path class="cls-2" d="M33.51,5.8V5.74h-.07S33.49,5.77,33.51,5.8Z"/><path class="cls-2" d="M33.73,6.09h0v.19A.61.61,0,0,1,33.73,6.09Z"/><path class="cls-2" d="M33.32,4.91a.54.54,0,0,0,0,.18h.07A.36.36,0,0,1,33.32,4.91Z"/><polygon class="cls-2" points="33.45 5.36 33.47 5.44 33.47 5.44 33.45 5.36"/><path class="cls-2" d="M33.62,5.87c0-.09.05,0,.07-.08S33.62,5.81,33.62,5.87Z"/><polygon class="cls-2" points="33.53 5.49 33.54 5.52 33.54 5.47 33.53 5.49"/><path class="cls-2" d="M33.44,5V4.83a.33.33,0,0,1,0,.14C33.4,5.06,33.43,5,33.44,5Z"/><polygon class="cls-2" points="33.43 4.32 33.44 4.32 33.43 4.31 33.43 4.32"/><path class="cls-2" d="M33.45,5h0v.11A.21.21,0,0,0,33.45,5Z"/><path class="cls-2" d="M33.4,4.74V4.67S33.38,4.72,33.4,4.74Z"/><path class="cls-2" d="M33.43,5.2a.09.09,0,0,0,0-.07v.06Z"/><path class="cls-2" d="M33.37,4.41a.34.34,0,0,1,.05.14h0V4.34S33.4,4.34,33.37,4.41Z"/><path class="cls-2" d="M33.4,4.74v.08c0-.07.05,0,.05-.15s-.07,0-.11.07h0a.61.61,0,0,0,0-.19v.2Z"/><path class="cls-2" d="M33.74,5.66Z"/><path class="cls-2" d="M33.74,5.66h0a.09.09,0,0,1,0-.07.29.29,0,0,0-.12-.07.76.76,0,0,1,.11.14h0C33.73,5.76,33.74,5.69,33.74,5.66Z"/><path class="cls-2" d="M33.44,4.22l-.08.09h0Z"/><polygon class="cls-2" points="33.43 4.03 33.4 4.08 33.44 4.08 33.43 4.03"/><path class="cls-2" d="M36.92.35a.18.18,0,0,0-.13.08h.12Z"/><path class="cls-2" d="M34.36,1.94a.61.61,0,0,0-.07.14Z"/><path class="cls-2" d="M34.36,1.94l.1-.1h0A.24.24,0,0,0,34.36,1.94Z"/><path class="cls-2" d="M33.51,3.68v0Z"/><path class="cls-2" d="M33.63,4.59h0C33.66,4.49,33.64,4.53,33.63,4.59Z"/><path class="cls-2" d="M33.62,3.81c0,.06-.07.13,0,.12h0C33.63,3.88,33.66,3.82,33.62,3.81Z"/><path class="cls-2" d="M33.71,3.11c.1-.16-.11,0,0,0S33.71,3.14,33.71,3.11Z"/><polygon class="cls-2" points="33.74 3.89 33.74 3.83 33.69 3.85 33.74 3.89"/><path class="cls-2" d="M33.84,3.38a.21.21,0,0,1-.05.12h0A.61.61,0,0,1,33.84,3.38Z"/><path class="cls-2" d="M33.76,3.59v0Z"/><path class="cls-2" d="M34.38,2.34V2.28l-.08.09A.2.2,0,0,0,34.38,2.34Z"/><polygon class="cls-2" points="34.79 7.94 34.88 7.99 34.86 7.96 34.79 7.94"/><path class="cls-2" d="M34.74,7.77v.08h.06A.33.33,0,0,0,34.74,7.77Z"/><polygon class="cls-2" points="41.81 31.61 41.87 31.53 41.85 31.53 41.81 31.61"/><path class="cls-2" d="M41.79,31.81c0,.11-.13.25-.08.32,0-.13.08-.26.13-.38h-.07Z"/><path class="cls-2" d="M41.75,32.5v-.06h0C41.7,32.56,41.73,32.47,41.75,32.5Z"/><path class="cls-2" d="M41.7,32.65l-.07.07c0,.06,0,.08.07,0S41.7,32.67,41.7,32.65Z"/><path class="cls-2" d="M41.61,32.7h0l.06-.07S41.58,32.7,41.61,32.7Z"/><path class="cls-2" d="M41.65,32.6c.08-.15,0-.19,0,0Z"/><path class="cls-2" d="M41.67,32h0v.07S41.65,32.05,41.67,32Z"/><path class="cls-2" d="M41.3,33.22l.07-.06S41.34,33.15,41.3,33.22Z"/><path class="cls-2" d="M41.47,32.75h0l.14-.15Z"/><path class="cls-2" d="M41,33.72a.28.28,0,0,1-.11.15.51.51,0,0,0,.16-.09S41.08,33.71,41,33.72Z"/><polygon class="cls-2" points="41.14 33.46 41.19 33.4 41.19 33.39 41.14 33.46"/><path class="cls-2" d="M41.25,33.2v.09l.08-.08Z"/><polygon class="cls-2" points="41.18 33.32 41.2 33.29 41.16 33.32 41.18 33.32"/><path class="cls-2" d="M40.92,33.71a.76.76,0,0,0-.11.14.31.31,0,0,1,.11-.09S40.93,33.71,40.92,33.71Z"/><polygon class="cls-2" points="40.43 34.21 40.42 34.21 40.42 34.22 40.43 34.21"/><path class="cls-2" d="M40.92,33.7h0l.07-.08A.18.18,0,0,0,40.92,33.7Z"/><path class="cls-2" d="M40.75,33.94v0Z"/><path class="cls-2" d="M40.52,34.19a.61.61,0,0,1,.07-.14h0l-.15.14S40.46,34.22,40.52,34.19Z"/><path class="cls-2" d="M40.75,33.93h0l.06-.09-.08.07c.08-.12-.12,0,0-.1-.06,0-.06,0-.15.07s.07,0,.13,0l-.14.13a.61.61,0,0,0,.16-.12Z"/><path class="cls-2" d="M41.15,33Z"/><path class="cls-2" d="M41.13,33.11a.33.33,0,0,0,0,.14.54.54,0,0,1,0-.18h0c0-.08,0,0-.06,0h0S41.14,33.1,41.13,33.11Z"/><path class="cls-2" d="M40.86,33.56h0v.09l.12-.11A.08.08,0,0,0,40.86,33.56Z"/><polygon class="cls-2" points="40.22 34.42 40.27 34.41 40.24 34.38 40.22 34.42"/><path class="cls-2" d="M35.15,34.56h.14l-.1-.06Z"/><path class="cls-2" d="M38.09,35.24l.14-.05A.44.44,0,0,0,38.09,35.24Z"/><path class="cls-2" d="M33.82,28.72Z"/><path class="cls-2" d="M38.09,35.24h-.18A.19.19,0,0,0,38.09,35.24Z"/><path class="cls-2" d="M39.6,34.79Z"/><path class="cls-2" d="M39.92,34.61s0,0-.07.06h.09Z"/><path class="cls-2" d="M40.47,33.88Z"/><path class="cls-2" d="M39.93,34.45c.07,0,.14-.05.09-.09h0S39.92,34.41,39.93,34.45Z"/><path class="cls-2" d="M40.1,34.31h-.05S40.12,34.33,40.1,34.31Z"/><path class="cls-2" d="M39.37,34.87c-.18.05.1.05.05,0S39.39,34.85,39.37,34.87Z"/><polygon class="cls-2" points="39.91 34.35 39.9 34.3 39.86 34.34 39.91 34.35"/><path class="cls-2" d="M39.59,34.53h0l-.09.06Z"/><polygon class="cls-2" points="42 30.6 41.98 30.63 42.02 30.69 42 30.6"/><path class="cls-2" d="M41.93,30.85l.06-.06h-.06A.06.06,0,0,1,41.93,30.85Z"/><polygon class="cls-2" points="23.34 31.98 23.4 31.89 23.38 31.9 23.34 31.98"/><path class="cls-2" d="M23.31,32.17c0,.12-.12.25-.07.33a3,3,0,0,1,.13-.39H23.3Z"/><path class="cls-2" d="M23.28,32.86V32.8h0C23.23,32.92,23.26,32.83,23.28,32.86Z"/><path class="cls-2" d="M23.23,33l-.06.07c0,.06,0,.08.06,0S23.23,33,23.23,33Z"/><path class="cls-2" d="M23.14,33.06h0L23.2,33S23.11,33.06,23.14,33.06Z"/><path class="cls-2" d="M23.18,33c.08-.15,0-.19,0,0C23.21,32.85,23.19,32.91,23.18,33Z"/><path class="cls-2" d="M23.2,32.39h0v.06S23.18,32.41,23.2,32.39Z"/><path class="cls-2" d="M22.83,33.59l.07-.07S22.87,33.51,22.83,33.59Z"/><path class="cls-2" d="M23,33.11h0l.13-.15Z"/><path class="cls-2" d="M22.69,33.92l.1-.05h-.06Z"/><path class="cls-2" d="M22.57,34.08a.31.31,0,0,1-.12.16.54.54,0,0,0,.16-.1S22.62,34.07,22.57,34.08Z"/><path class="cls-2" d="M22.74,33.82a.14.14,0,0,0,0-.09h0Z"/><polygon class="cls-2" points="22.68 33.83 22.72 33.76 22.72 33.76 22.68 33.83"/><path class="cls-2" d="M22.92,33.35h-.1S22.87,33.38,22.92,33.35Z"/><path class="cls-2" d="M22.78,33.56l-.05.09.09-.08Z"/><polygon class="cls-2" points="22.71 33.68 22.73 33.65 22.69 33.68 22.71 33.68"/><path class="cls-2" d="M22.45,34.07a.76.76,0,0,0-.11.14l.12-.09S22.46,34.08,22.45,34.07Z"/><polygon class="cls-2" points="21.96 34.57 21.95 34.57 21.95 34.58 21.96 34.57"/><path class="cls-2" d="M22.45,34.06h0l.07-.07A.12.12,0,0,0,22.45,34.06Z"/><path class="cls-2" d="M22.06,34.55a.33.33,0,0,1,.07-.13h0l-.15.13S22,34.59,22.06,34.55Z"/><path class="cls-2" d="M22.29,34.29h0l.06-.09a.27.27,0,0,1-.08.07c.08-.12-.12,0,0-.1-.06,0-.06,0-.15.08s.08,0,.13,0a.8.8,0,0,0-.13.13l.16-.13Z"/><path class="cls-2" d="M22.69,33.4Z"/><path class="cls-2" d="M22.66,33.47a.33.33,0,0,0,0,.14.54.54,0,0,1,0-.18h0S22.68,33.47,22.66,33.47Z"/><path class="cls-2" d="M22.39,33.92h0V34l.11-.11A.08.08,0,0,0,22.39,33.92Z"/><polygon class="cls-2" points="21.75 34.78 21.81 34.77 21.78 34.74 21.75 34.78"/><path class="cls-2" d="M16.68,34.92h.15a.24.24,0,0,1-.11-.06Z"/><path class="cls-2" d="M19.62,35.6h.15A.23.23,0,0,0,19.62,35.6Z"/><path class="cls-2" d="M15.36,29.08Z"/><path class="cls-2" d="M19.62,35.6h-.18A.19.19,0,0,0,19.62,35.6Z"/><path class="cls-2" d="M23.43,30.55v.08S23.44,30.56,23.43,30.55Z"/><path class="cls-2" d="M21.45,35l-.07.07h.09S21.46,35,21.45,35Z"/><path class="cls-2" d="M21.46,34.81c.07,0,.14-.05.1-.09h0S21.45,34.77,21.46,34.81Z"/><path class="cls-2" d="M21.63,34.67h-.05S21.65,34.69,21.63,34.67Z"/><path class="cls-2" d="M20.9,35.23c-.18.05.1.05.05,0S20.92,35.21,20.9,35.23Z"/><polygon class="cls-2" points="21.44 34.72 21.43 34.66 21.39 34.7 21.44 34.72"/><path class="cls-2" d="M21,35a.19.19,0,0,0,.12-.06h0Z"/><polygon class="cls-2" points="23.53 30.96 23.52 30.99 23.55 31.05 23.53 30.96"/><path class="cls-2" d="M23.47,31.21l.06-.05h-.07A.09.09,0,0,1,23.47,31.21Z"/><path class="cls-2" d="M33.76,18.35a1.75,1.75,0,0,0,.12-.32c-.06.08-.07,0-.11,0l.08-.13h-.06a.49.49,0,0,0,0-.17h0s0-.28.09-.32,0-.17-.09-.19,0,0,0-.08.08,0,.05,0h-.05a.38.38,0,0,0,0-.15v0h0a.21.21,0,0,1,0-.11.85.85,0,0,1-.09-.31.44.44,0,0,0-.13-.31v.09c-.07-.18-.21-.3-.23-.42h0a1.37,1.37,0,0,0-.16-.32h0c0-.06-.11-.17-.18-.27s-.14-.17-.22-.18-.15-.15-.21-.22h0a.77.77,0,0,1-.18-.18c-.24-.09-.36-.28-.54-.39h0l-.17-.13c0,.06,0,0-.08-.07a.5.5,0,0,0-.24-.09L31.24,14c.13.08,0,0-.06.08L31.12,14h0s-.2-.1-.23-.16H31c-.1,0-.06,0,0-.05s-.19,0-.29,0c.14-.06-.27-.06-.18-.13-.1.06-.06,0-.13,0a.71.71,0,0,1,.33.15h-.11c0,.09.22,0,.27.07s-.12,0-.13,0v-.05A.6.6,0,0,1,31,14c-.09,0,.1.08,0,.1H31L30.61,14h-.06l-.36-.07c0-.06-.16-.11-.11-.15s0,.05-.17,0,.1-.06.14-.07-.09-.05-.1-.07-.16.2-.06.23a.17.17,0,0,1,.17,0A4.12,4.12,0,0,0,26.59,15l-.16.18c0-.08,0-.15-.07-.14h.06c-.07,0-.17.19-.25.18l-.09.24s-.07,0-.06-.05-.07.09-.05,0c-.11.29-.26.55-.39.82a2.37,2.37,0,0,0-.25.86h0a1.16,1.16,0,0,0-.07.15.14.14,0,0,0,.07.17c.07.05-.06,0-.07,0a3.92,3.92,0,0,0,0,.84c0,.08.08,0,.09.08s-.05,0-.05.09v.13s.08.36.21.29c0,.11,0,.11-.06.08a1.16,1.16,0,0,1,.07.37,3.31,3.31,0,0,0,.13.34.71.71,0,0,0,.23.34c-.1,0,0,0,0,.11H25.8a.86.86,0,0,0,.1.16H26a.37.37,0,0,1,.07.2h0v.07s-.08-.22.07-.06c0,0,0,.15.06.17s0-.09,0-.07l.1.11h-.09a4.51,4.51,0,0,0,1,.85c0-.05.27.17.29.07h0c-.09-.07.06,0,.13,0-.09,0,.11.16-.1.06l0,.05h.52c1.29,0,3.59-.31,4.44-2.39h.1A5.31,5.31,0,0,1,31,22l.14-.07c.07,0,.05,0,0,.06.11-.11.4-.09.44-.15s0-.07,0-.11,0,.14.2,0h-.06s.09-.28.18-.29h0c.14,0,.2-.3.28-.23h0c.15-.21.1,0,.25-.26h0c.09-.07.08-.15.18-.13h0a2,2,0,0,0,.19-.22.12.12,0,0,0,.07-.07c.06,0,.23-.24.26-.29s-.07,0-.07,0a.24.24,0,0,0,.12-.16c0-.1.17.07.26-.09,0,0,0,.05-.06,0s0,0,0-.06h-.06c-.06,0,.1-.19.2-.34h-.06c-.06,0,0-.25.11-.14a2.49,2.49,0,0,1,.14-.57,1,1,0,0,0,0-.43v-.18Zm-7.95,1.83Zm5.74-5.86h.08s-.11-.06-.14-.09h.11a.32.32,0,0,1-.27-.11s0-.11.09-.12a.28.28,0,0,1,.2.13.39.39,0,0,0,.2.2s0-.1.1,0a.5.5,0,0,1,.16.28A3.92,3.92,0,0,0,31.55,14.32Zm1,.79h.06v.12ZM33,20.32v-.08h0v-.07a0,0,0,0,1,0,0h.06Zm.12-4.5L33,15.69l.06-.06H33l-.08-.12h0l.25.18a.33.33,0,0,1-.07.13Zm.39.88a.26.26,0,0,0-.07-.21l.08-.22v.14h0a.57.57,0,0,1,0,.29Zm.18,1.41V18h.09Z"/><path class="cls-2" d="M42.11,4.94h0a.38.38,0,0,0,.07-.29h0V4.39c-.08,0-.07-.11-.06-.23s0-.26-.09-.28,0-.25,0-.34h0s-.11-.27-.14-.37,0-.06.06,0-.09-.4-.14-.44-.08,0-.12,0,.14,0,0-.2h0c0-.06-.28-.09-.3-.17h0c0-.15-.3-.2-.23-.29h0c-.21-.16,0-.1-.26-.25h0c-.06-.08-.15-.08-.13-.17h0l-.21-.19s-.05-.07-.08-.07-.24-.22-.29-.25,0,.06,0,.07A.15.15,0,0,0,40,1.08.24.24,0,0,0,40,1q-.37,0-.75,0c-1.3,0-3.59.31-4.44,2.38h-.1A5.57,5.57,0,0,1,36.19.77h.09l.2-.17h-.13A.45.45,0,0,0,36,.73h.09c-.17.07-.3.22-.42.24h0a.89.89,0,0,0-.31.15h0l-.27.18c-.1.07-.17.15-.17.22s-.16.16-.23.21h0a.77.77,0,0,1-.18.18c-.09.23-.28.36-.39.54h0l-.12.1c.06,0,0,0-.06.08a.51.51,0,0,0-.1.24V3c.08-.12,0,0,.08.06l-.06.07h0s-.1.2-.16.23,0,0,0-.06h0c0,.1,0,.06-.05,0v.3c-.06-.14-.06.27-.13.18.06.1,0,.06,0,.12,0-.12.1-.23.15-.32v.1c.1,0,0-.21.07-.26s0,.12,0,.13h-.05a.6.6,0,0,1,.15-.31c0,.09.08-.09.1,0v.06h0s-.08.23-.11.34h0V3.7h0a2.66,2.66,0,0,1-.07.37c0,.13-.11.16-.15.1s0,0,0,.18-.06-.11-.07-.15,0,.1-.07.1.2.16.23.07a.25.25,0,0,1,0-.17,4.17,4.17,0,0,0,1.18,3.42l.18.16c-.07,0-.15,0-.13.08l0-.07c0,.07.18.17.17.25l.24.1s0,.07,0,0,.09.07,0,0c.29.11.55.26.82.39a2.38,2.38,0,0,0,.86.26h0l.16.07.15.09c.06,0,0,0,0,.07a3.92,3.92,0,0,0,.84,0c.08,0,0-.07.08-.09s0,.06.09.06h.13s.36-.09.29-.21c.12,0,.11,0,.08.05a1.15,1.15,0,0,1,.37-.06l.34-.13a.71.71,0,0,0,.34-.23c0,.1,0,0,.11,0v.09l.16-.1h0V8.37a.3.3,0,0,1,.2-.06h0l.07-.05c.06,0-.21.08-.06-.06,0,0,.15,0,.17-.07s-.09,0-.07,0l.11-.1v.1a4.84,4.84,0,0,0,.86-1c-.06,0,.17-.27.06-.28h0c-.07.08,0-.07,0-.14,0,.1.16-.1.07.11l.12-.14c.11,0,.16-.11.19-.25A2.49,2.49,0,0,1,42,6h0c.14-.21.09-.53.12-.58h0A.62.62,0,0,0,42.11,4.94ZM35.59,1a.18.18,0,0,1,.1.11l-.13.07-.06-.05v.06l-.11.09h0A1.1,1.1,0,0,1,35.59,1Zm-.51.55-.1.09v0Zm-1.22,1.2h0s0,0,0,0ZM33.7,4.18Zm.49-1.49V2.6a.45.45,0,0,1-.1.14V2.63A.31.31,0,0,1,34,2.9c-.11.1-.11,0-.12-.09A.26.26,0,0,1,34,2.62a.58.58,0,0,0,.2-.21s-.09,0,0-.1a.5.5,0,0,1,.28-.16A3.45,3.45,0,0,0,34.19,2.69Zm5.86,5.74Zm.06-7.16h0L40,1.2h0V1.13l.12.13Z"/><path class="cls-2" d="M60.78,31.77q0-.42,0-.84c0-.08-.07,0-.09-.08s.06,0,.06-.09v-.13s-.09-.36-.21-.29c0-.11,0-.11.05-.08a2.2,2.2,0,0,1-.06-.37,3.42,3.42,0,0,1-.13-.34.89.89,0,0,0-.23-.34c.1.05,0,0,0-.1h.09a.86.86,0,0,0-.1-.16h-.08c-.08,0,0-.12-.06-.2h0l0-.11c0-.05.09.22-.06.06,0,0,0-.15-.07-.17s0,.09,0,.07l-.09-.11h.08a4.51,4.51,0,0,0-1-.85c0,.05-.28-.17-.29-.07h0c.09.06-.07,0-.14,0,.1,0-.1-.16.11-.06l0-.05H58c-1.3,0-3.59.31-4.44,2.39h-.1A5.25,5.25,0,0,1,55,27.12l-.13.07c-.07,0-.06,0,0-.06s-.4.09-.43.15,0,.07,0,.11,0-.14-.2,0h.06s-.1.28-.18.29v-.05c-.15.05-.2.3-.28.23v-.05c-.16.21-.1.05-.25.26h0c-.09.06-.09.15-.18.14h0l-.2.21s-.06.06-.06.08-.23.24-.26.3.06,0,.07,0-.11.06-.13.16-.16-.07-.26.09c0,0,.06-.05.06,0v.06s0,0,.06,0-.1.19-.2.34h0s0,.25-.1.14a3,3,0,0,1-.14.57,1,1,0,0,0,0,.43v.18h0c-.09.16,0,.12-.12.32,0-.08.07-.05.11,0l-.09.13h.07a.17.17,0,0,0,0,.17h0a1.85,1.85,0,0,1-.08.32.16.16,0,0,0,.09.2V32h0a.38.38,0,0,0,0,.15v0h0a.11.11,0,0,1,0,.11.56.56,0,0,1,.09.31.66.66,0,0,0,.11.26h0c.07.17.22.3.24.42h0a1.77,1.77,0,0,0,.15.31h0c0,.06.11.17.18.27s.15.18.23.18.15.15.2.22h0a.77.77,0,0,1,.18.18c.23.09.36.28.54.39h0l.16.13c0-.06,0,0,.09.06a.52.52,0,0,0,.23.1l.13.05c-.13-.08,0,0,0-.08l.07.06h0a1,1,0,0,1,.24.16H55c.11,0,.06,0,0,0s.19,0,.3,0c-.14.06.27.06.18.13.1-.05.06,0,.13,0a1,1,0,0,1-.33-.15h.11c0-.09-.22,0-.27-.07s.12,0,.13,0v.05a.61.61,0,0,1-.3-.08c.1,0-.09-.08,0-.1h.06l.34.11h0l.37.07c0,.06.16.11.11.15s0,0,.17,0-.11.06-.14.07.09.06.09.07.16-.19.07-.23a.17.17,0,0,1-.17,0,4.11,4.11,0,0,0,3.42-1.18l.16-.18c0,.08,0,.15.08.13l-.06.06c.06,0,.16-.19.24-.18a2.44,2.44,0,0,0,.1-.24s.07,0,0,0,.08-.09.06,0c.11-.29.25-.55.38-.82a2.38,2.38,0,0,0,.26-.86h0a.52.52,0,0,0,.07-.15l-.06-.17C60.74,31.72,60.77,31.77,60.78,31.77Zm-8.46-.64h-.09l.1-.1S52.32,31.1,52.32,31.13Zm.18,1.74v-.14h0a.58.58,0,0,1,.06-.26l.08.21Zm.52-4V29h0s0,0,0,.05V29h-.06Zm0,4.77a.85.85,0,0,1-.25-.17.27.27,0,0,1,.11-.1.54.54,0,0,1,.07.13v.06H53a.83.83,0,0,0,.08.12Zm.34.46a.24.24,0,0,1,0-.12l.09.1s-.06-.08-.07,0Zm1.16,1a.26.26,0,0,1-.19-.13.64.64,0,0,0-.2-.2s0,.09-.11,0a.78.78,0,0,1-.16-.28,3.84,3.84,0,0,0,.54.35h-.09a.42.42,0,0,1,.14.09h-.1a.33.33,0,0,1,.27.11c.11.11.06,0-.06,0Zm1.35.22ZM60.15,29Z"/><path class="cls-2" d="M50.45,18.39v-.3h0a1.13,1.13,0,0,1,0-.26,2.84,2.84,0,0,1-.1-.65h0v-.31a.43.43,0,0,0-.1-.24V16.5c0,.15,0,0-.1,0v-.1h0c0-.06-.07-.21,0-.28h0v-.07a.6.6,0,0,0-.23-.2c.14.06-.15-.23,0-.21-.11,0,0-.05-.12-.07a.7.7,0,0,1,.12.34l-.09-.06c0,.09.14.17.14.24s-.06-.12-.08-.11H50a.68.68,0,0,1,.11.34c-.06-.08,0,.12-.06.07v-.06h0a3.24,3.24,0,0,0-.17-.32h0V16h0a3.28,3.28,0,0,0-.2-.31v-.18s-.07,0-.13-.11.11,0,.15,0,0-.1,0-.12-.25,0-.21.12l-.11-.12v-.05h0a3.92,3.92,0,0,0-1.38-1h-.17c-1.29,0-3.59.32-4.44,2.39h-.1A5.34,5.34,0,0,1,44.55,14h0a2.13,2.13,0,0,0-.79.41h0a.24.24,0,0,0-.16.06l-.08.16h-.06c-.25.16-.41.43-.61.58,0,.07.07,0,0,.11,0-.08,0,0-.11,0s-.11.12-.11.06c0,.14-.2.32-.06.36-.06.1-.1,0-.09,0a1.29,1.29,0,0,1-.22.3s-.09.18-.16.34a.78.78,0,0,0-.08.4c0-.11,0,0-.09.06v.1h0V17c0,.08-.06.12-.1.19h0v.09c0,.06.1-.21.09,0,0,0-.11.11-.08.17,0-.11.06-.09.07,0a.72.72,0,0,1,0,.15l-.07-.06a5.83,5.83,0,0,0,.09,1.32c.06,0,.07.32.16.25h0c0-.11.08,0,.09.1-.06-.08,0,.18-.12,0v.18c-.07.08,0,.19,0,.32a1.79,1.79,0,0,1,.2.39h0c.06.25.32.44.32.5h.06a.55.55,0,0,0,.24.4h0a.41.41,0,0,0,.15.25h0l.18.19c.06-.06.12,0,.2.13s.18.18.26.13.17.19.24.25h0c.05.13.27.12.37.17s0,.06,0,.07.34.23.41.21.06,0,.09-.06-.06.12.16.12h0c.07,0,.26-.13.33-.08h-.06c.13.07.35-.07.36,0h.58a1.41,1.41,0,0,0,.29,0h.49c-.11,0-.06,0,0-.06a.15.15,0,0,0,.2,0c0,.08.06.16.24.12h0s.21-.06.39-.09c-.07,0,0,0,0-.07s.2-.16.18,0c.15-.1.34-.19.51-.29s.3-.2.32-.27.12-.06.17-.1h0c.17,0,.12-.06.31-.13-.09,0-.08,0-.05-.11h.16v-.06c.06,0,.09-.08.13-.13h0a2.35,2.35,0,0,1,.29-.16.16.16,0,0,0,.08-.2h.06s0,.07.06,0h0V20.8l.1-.12v0h0a.21.21,0,0,1,.06-.1A.74.74,0,0,1,50,20a.45.45,0,0,0,.12-.31v.08c.07-.16.06-.36.13-.45h0a1.85,1.85,0,0,0,.12-.33h0a2.6,2.6,0,0,1,.07-.31A.37.37,0,0,0,50.45,18.39ZM41.84,17Zm5,5.21h-.17l.06-.06h.08v.05h0s.1,0,.08,0Zm1.89-1,.08-.07a.23.23,0,0,0,.07.07l-.1,0Zm.44-5.74a.24.24,0,0,1,.11.13Zm.13.16Zm.85,1.11Zm-.31,3.17V20a.49.49,0,0,1-.24.14l.1-.2.22-.11ZM50,19.2v-.15h0V18.9h0a1.5,1.5,0,0,1,0,.3s0,0,0,0Zm.13-.75v-.13h0a.41.41,0,0,1,0,.09Zm0-.77A3.86,3.86,0,0,0,50,17v.07a.49.49,0,0,1,0-.17l.06.1c0-.09-.09-.14-.11-.27s.06-.1.15,0a.25.25,0,0,1,0,.24.42.42,0,0,0,0,.27s0-.07.06.09a.47.47,0,0,1,0,.31Z"/><path class="cls-2" d="M39.87,34.44c-.1,0-.17.14-.24.15s.11-.07.1-.08v.06a.6.6,0,0,1-.34.11h-.06a2.84,2.84,0,0,1-.54.43h.1a.43.43,0,0,0,.24-.1h.12c-.15,0,0,0,0-.1h.09c.06,0,.21-.08.28-.06a0,0,0,0,1,0,0h0c.1-.06.07,0,.08,0a.46.46,0,0,0,.18-.23c0,.14.24-.15.22,0,0-.11,0,0,.06-.12a.66.66,0,0,1-.33.12Z"/><path class="cls-2" d="M41.83,30.19h.07s0-.12,0,0c-.13-.29-.21-.58-.31-.86a2.34,2.34,0,0,0-.43-.79h0a.25.25,0,0,0-.06-.16l-.1-.13c0-.07,0-.05,0-.06-.17-.26-.44-.41-.59-.6-.08,0,0,.06-.12,0,.09,0,0-.05,0-.11s-.13-.11-.07-.11c-.14,0-.32-.2-.35-.06-.11-.06-.06-.1,0-.09a1.29,1.29,0,0,1-.3-.22,2.07,2.07,0,0,1-.34-.15c-.16-.06-.33-.11-.4-.07.1,0,0,0-.07-.09h-.17a.26.26,0,0,1-.19-.1h-.09c-.06,0,.21.09,0,.09,0,0-.1-.11-.17-.08.11,0,.09,0,0,.06H38l.06-.07a4.88,4.88,0,0,0-1.32.11c0,.06-.31.07-.25.16h0c.1,0,0,.08-.1.09.08-.06-.19-.05,0-.12h-.18c-.07-.08-.19,0-.31,0a3,3,0,0,1-.4.21h0c-.25.06-.44.33-.5.33v.06a.56.56,0,0,0-.4.25h0a.33.33,0,0,0-.25.15h0l-.19.19c.06.05,0,.12-.12.2s-.19.18-.14.26-.18.17-.24.24h0c-.12.05-.11.27-.16.37s-.06,0-.08,0c0,.16-.21.35-.2.41s0,.06.07.1-.13-.07-.13.16v-.05s.13.26.08.33v0c-.08.14.07.36,0,.37h0v.36h0c0,.11,0,.17,0,.22h0a1.41,1.41,0,0,0,0,.29v.49c0-.11,0-.06.06,0a.15.15,0,0,0,0,.2c-.08,0-.16.07-.12.25v0s0,0,.06,0,0,.2.09.38c0-.06,0,0,.07,0s.16.19,0,.17c.1.15.2.34.3.5a.86.86,0,0,0,.27.33c.05,0,.07.12.1.16h0c0,.18.06.12.14.31,0-.09,0-.08.1,0s0,.11,0,.16h.06c0,.06.08.09.13.12h0a1.5,1.5,0,0,1,.16.29s.12.12.21.08v.06s-.08,0,0,.06h.05l.11.09h.38a.21.21,0,0,1,0-.11l.2.1h.2c1.3,0,3.59-.31,4.44-2.39h.1a5.64,5.64,0,0,1-1.17,2.28l.26-.13h.06a2.11,2.11,0,0,0,.31-.21H40s0-.07.11-.14,0,.12-.05.16.11,0,.12,0,0-.25-.12-.22a.16.16,0,0,1-.13.11,4.12,4.12,0,0,0,1.58-3.25v-.24c.06.05.11.1.15,0v.08c.07,0,0-.25,0-.3A3,3,0,0,0,41.83,30.19Zm-8.3,1.57h0a.54.54,0,0,1,0-.18v.06h0v.08S33.55,31.79,33.53,31.76Zm1,2v-.14a.23.23,0,0,0,.07.07.18.18,0,0,0,0,.1Zm4.06-7.15h0s.09.06,0,0Zm1.5,7.5Z"/><path class="cls-2" d="M23.36,30.55h.07s0-.12,0,0c-.13-.29-.21-.57-.31-.86a2.29,2.29,0,0,0-.43-.78h0a.25.25,0,0,0-.06-.16l-.16-.07v-.06c-.17-.26-.44-.4-.59-.6-.08,0,0,.06-.11,0,.08,0,0-.05,0-.11s-.12-.11-.07-.11c-.14,0-.32-.19-.35,0-.11-.06-.05-.11,0-.1l-.21-.14H20.6c-1.3,0-3.59.31-4.44,2.39h-.1a5.25,5.25,0,0,1,1.63-2.71.41.41,0,0,0-.26.07,2.42,2.42,0,0,1-.39.21h0c-.24.05-.43.32-.5.33v0a.63.63,0,0,0-.4.25h0a.41.41,0,0,0-.25.15h0l-.18.19c0,.05,0,.12-.13.2s-.18.18-.13.26-.18.17-.24.24h0c-.12,0-.11.27-.16.36s-.06,0-.07,0c0,.16-.22.35-.21.42s.05.05.07.09-.13-.07-.12.16v0s.14.27.09.33h0c-.07.13.07.35,0,.36h0v.36h0v.22h0a1.41,1.41,0,0,0,0,.29v.49c0-.11,0-.06.06,0s0,.11,0,.19-.16.07-.12.26v0s0,0,.05,0,0,.21.09.38c0-.06,0,0,.07,0s.16.19,0,.17c.1.15.2.34.3.51a.87.87,0,0,0,.28.32,1.65,1.65,0,0,0,.09.16h0a1.83,1.83,0,0,0,.14.32c0-.1,0-.08.11-.06v.16h.06a.4.4,0,0,0,.13.13h0a2,2,0,0,1,.17.28.16.16,0,0,0,.2.08v.06s-.07,0,0,.06h0l.12.1h0a.25.25,0,0,1,0-.36A.25.25,0,0,1,17,35a.76.76,0,0,1,.28.15.47.47,0,0,0,.32.12h-.09c.17.07.36.06.46.12h0a.93.93,0,0,0,.33.12v.05l.31.06a.34.34,0,0,0,.28,0h.31a.57.57,0,0,1,.26,0,3,3,0,0,1,.66-.1h.31a.5.5,0,0,0,.24-.09l.12,0c-.14,0,0-.06,0-.11h.09c.06,0,.21-.07.28-.06h0c.09-.06.06,0,.07,0a.52.52,0,0,0,.19-.23c-.06.15.23-.15.21,0,0-.11.05,0,.06-.12a.66.66,0,0,1-.33.12l.06-.08c-.1,0-.17.13-.24.14s.11-.06.11-.08V35a.61.61,0,0,1-.34.12c.08-.06-.11,0-.07-.06h.06l.33-.17h.06l.3-.21c.05,0,.19,0,.18,0s0-.07.11-.13,0,.11-.05.15.11,0,.12,0,0-.25-.12-.22a.2.2,0,0,1-.13.12l.13-.12.12-.1H22a4.13,4.13,0,0,0,1.34-3v-.24c.06.05.11.1.15,0v.08c.07,0,0-.25,0-.3A1.87,1.87,0,0,0,23.36,30.55Zm-8.3,1.58h0s0,.06-.05,0V32a.17.17,0,0,0,.06.06v.08h0v.08a.07.07,0,0,1,0-.08Zm1,2V34l.07.07a.2.2,0,0,0,0,.08Zm1.31.94h0a.51.51,0,0,1-.15-.23l.2.09a1.51,1.51,0,0,0,.11.22Zm1,.22a.76.76,0,0,1-.3,0v-.14h.14v0h.14a1,1,0,0,1,.06.16Zm.56.08a.21.21,0,0,1-.11,0h.11Zm1.34,0a.45.45,0,0,0-.28,0s.08.06-.08.07a.49.49,0,0,1-.31-.09,3.14,3.14,0,0,0,.61-.12h-.07a.28.28,0,0,1,.18,0h-.1c.08,0,.13-.09.26-.12s.1.07,0,.15a.3.3,0,0,1-.17.08Zm1.34-.85Z"/><path class="cls-3" d="M10.73,62.92v.23c0,.1,0,.2,0,.31v.3a2.2,2.2,0,0,1,0,.23,2.28,2.28,0,0,0,0,.31.4.4,0,0,0,.07.16.16.16,0,0,0,.1.08l.16,0s0,0,0,0,0,0,0,0l-.28,0h-.59l-.28,0s0,0,0,0,0,0,0,0l.19,0a.18.18,0,0,0,.11-.08.71.71,0,0,0,0-.17c0-.07,0-.17,0-.29v-.23a2.81,2.81,0,0,0,0-.3v-.89c0-.13,0-.25,0-.37v-.52c0-.13,0-.23,0-.31a.26.26,0,0,0,0-.17.22.22,0,0,0-.12-.09l-.19,0s0,0,0,0,0,0,0,0h1.15s0,0,0,0,0,0,0,0a.61.61,0,0,0-.17,0,.28.28,0,0,0-.1.09.4.4,0,0,0,0,.18,2.11,2.11,0,0,0,0,.3,2.62,2.62,0,0,1,0,.27v1ZM12.64,61h.43s0,0,0,0a0,0,0,0,1,0,0,.87.87,0,0,0-.28.05.73.73,0,0,0-.29.17,3,3,0,0,0-.28.25l-.37.37-.17.18-.19.2-.17.18-.12.15.23.25.3.32.31.34.27.28a5.87,5.87,0,0,0,.46.41,2.1,2.1,0,0,0,.48.3l.18,0h.19a0,0,0,0,1,0,0s0,0,0,0l-.17,0h-.22a1.87,1.87,0,0,1-.35,0,1.61,1.61,0,0,1-.68-.38,4.5,4.5,0,0,1-.41-.38l-.22-.24-.25-.27c-.08-.09-.16-.17-.23-.26a1.45,1.45,0,0,1-.18-.21l-.06-.06,0,0,.35-.4.45-.49.15-.17.13-.15.13-.15.15-.17a.16.16,0,0,0,.05-.12s0-.06-.09-.07,0,0,0,0,0,0,0,0h.52Z"/><path class="cls-3" d="M15.13,62.92a2.2,2.2,0,0,0,0,.23v.3c0,.11,0,.21,0,.31V64a2.11,2.11,0,0,0,0,.3.56.56,0,0,0,.06.17.27.27,0,0,0,.12.09l.21,0s0,0,0,0a0,0,0,0,1,0,0l-.32,0h-.59l-.31,0s0,0,0,0a0,0,0,0,1,0,0,.61.61,0,0,0,.17,0,.2.2,0,0,0,.12-.08.3.3,0,0,0,.06-.16,2.41,2.41,0,0,0,0-.31v-.22c0-.1,0-.2,0-.31V62.22a2.81,2.81,0,0,0,0-.3v-.21a1.56,1.56,0,0,0,0-.35.38.38,0,0,0-.06-.18.2.2,0,0,0-.12-.08l-.16,0s0,0,0,0,0,0,0,0h1.13s0,0,0,0,0,0,0,0l-.15,0a.16.16,0,0,0-.1.08.38.38,0,0,0-.06.18,2.68,2.68,0,0,0,0,.34v.21a3,3,0,0,0,0,.31v.69Z"/><path class="cls-3" d="M19.85,61.13v.14c0,.06,0,.12,0,.19v.19a.76.76,0,0,0,0,.14s0,0,0,0a0,0,0,0,1,0,0,1.09,1.09,0,0,0,0-.28.55.55,0,0,0-.1-.17.28.28,0,0,0-.14-.09l-.18,0h-.88s0,0,0,.09v.12a.66.66,0,0,0,0,.14V64a1.3,1.3,0,0,0,0,.31.38.38,0,0,0,.07.17.25.25,0,0,0,.14.08l.21,0s0,0,0,0,0,0,0,0l-.32,0h-1s0,0,0,0,0,0,0,0l.15,0a.31.31,0,0,0,.13-.06.35.35,0,0,0,.09-.16A1.11,1.11,0,0,0,18,64V62.86c0-.22,0-.44,0-.65v-.92a.22.22,0,0,0,0-.09h-.78l-.28,0a.33.33,0,0,0-.26.26c0,.07,0,.16,0,.26a0,0,0,0,1,0,0,0,0,0,0,1,0,0,.68.68,0,0,0,0-.12v-.44a.84.84,0,0,1,0-.21s0,0,0,0l.06,0,.12,0h1.46l.89,0,.55,0,.1,0,.06,0s0,0,0,0S19.85,61.06,19.85,61.13Z"/><path class="cls-3" d="M21.43,64.43h1.3a2.78,2.78,0,0,0,.37,0,.65.65,0,0,0,.42-.21,1.24,1.24,0,0,0,.2-.56s0,0,0,0,0,0,0,0v.22c0,.08,0,.15,0,.23s0,.14,0,.2a.49.49,0,0,1,0,.14.26.26,0,0,1-.18.2,1.51,1.51,0,0,1-.41,0H20.74l0,0a.1.1,0,0,1,0-.06c.1-.13.24-.33.42-.59l.77-1.1.49-.69.32-.45.21-.3a2.17,2.17,0,0,0,.15-.22H22l-.36,0a.78.78,0,0,0-.28.05.43.43,0,0,0-.19.13.67.67,0,0,0-.12.2,1.91,1.91,0,0,0-.07.28,0,0,0,0,1,0,0s0,0,0,0,0-.25,0-.34a1.77,1.77,0,0,1,0-.24.47.47,0,0,1,.06-.2c0-.05.08-.08.17-.09h2.55s0,0,0,.09l-.53.66c-.21.29-.48.65-.79,1.09l-.28.4-.27.41-.25.37-.19.29a.25.25,0,0,0,0,.09Z"/><path class="cls-3" d="M25.39,62.93v-.61c0-.19,0-.4,0-.61a2.07,2.07,0,0,0,0-.29.39.39,0,0,0-.05-.2.27.27,0,0,0-.13-.1.66.66,0,0,0-.23,0A0,0,0,1,1,25,61h1.26a1.38,1.38,0,0,1,.44.08.76.76,0,0,1,.48.42.94.94,0,0,1,.05.3,1,1,0,0,1-.05.31.86.86,0,0,1-.14.25,1.12,1.12,0,0,1-.2.18,1,1,0,0,1-.23.12,1.14,1.14,0,0,1,.73.34,1,1,0,0,1,.16,1.07,1,1,0,0,1-.64.52,1.84,1.84,0,0,1-.47.06l-.43,0-.36,0H25s0,0,0,0,0,0,0,0a.4.4,0,0,0,.2,0,.21.21,0,0,0,.11-.1.74.74,0,0,0,.05-.19,2.11,2.11,0,0,0,0-.3,1.85,1.85,0,0,0,0-.25v-.76ZM26.77,62a.91.91,0,0,0-.16-.62.7.7,0,0,0-.57-.25h-.21s0,0,0,.08v.26c0,.12,0,.26,0,.4v.77h.27a1.25,1.25,0,0,0,.34,0,.65.65,0,0,0,.25-.22A.75.75,0,0,0,26.77,62Zm.34,1.75a1,1,0,0,0-.06-.4.81.81,0,0,0-.21-.3.91.91,0,0,0-.33-.2,1.46,1.46,0,0,0-.44-.06h-.26v.48c0,.18,0,.34,0,.49a2.35,2.35,0,0,0,0,.26v.22a.81.81,0,0,0,0,.11s0,0,.08.07a1,1,0,0,0,.44.08.7.7,0,0,0,.75-.75Z"/><path class="cls-3" d="M32.12,62.89a3.55,3.55,0,0,1-.08.76,1.93,1.93,0,0,1-.26.58,1.2,1.2,0,0,1-.46.37,1.62,1.62,0,0,1-.66.12,2.12,2.12,0,0,1-.72-.1,1,1,0,0,1-.48-.31,1.2,1.2,0,0,1-.26-.53,2.86,2.86,0,0,1-.08-.76v-.77a3.11,3.11,0,0,0,0-.32v-.22a1.46,1.46,0,0,0,0-.34.42.42,0,0,0-.07-.19.29.29,0,0,0-.13-.08l-.2,0s0,0,0,0,0,0,0,0h1.2s0,0,0,0,0,0,0,0l-.16,0a.28.28,0,0,0-.1.09.38.38,0,0,0-.06.18,3,3,0,0,0,0,.34V63a4.22,4.22,0,0,0,0,.64,1.4,1.4,0,0,0,.16.5,1,1,0,0,0,.35.32,1.41,1.41,0,0,0,.59.11,1.09,1.09,0,0,0,.57-.14.93.93,0,0,0,.35-.36,1.44,1.44,0,0,0,.18-.53,4,4,0,0,0,0-.61v-1c0-.13,0-.27,0-.41a1.17,1.17,0,0,0,0-.23.26.26,0,0,0-.06-.14.21.21,0,0,0-.1-.06l-.16,0a0,0,0,0,1,0,0s0,0,0,0h1a0,0,0,0,1,0,.06.3.3,0,0,0-.23.11.81.81,0,0,0-.08.35v.36c0,.12,0,.24,0,.36v.64Z"/><path class="cls-3" d="M34.52,62.84v.92c0,.11,0,.22,0,.31s0,.16,0,.21a.2.2,0,0,0,.07.1.19.19,0,0,0,.11.05h.68a.67.67,0,0,0,.3-.06.44.44,0,0,0,.18-.15A.53.53,0,0,0,36,64l.06-.27s0,0,0,0a0,0,0,0,1,0,0v.39a1.15,1.15,0,0,1,0,.19.59.59,0,0,1,0,.14.16.16,0,0,1-.09.13.57.57,0,0,1-.25,0h-2s0,0,0,0a0,0,0,0,1,0,0l.19,0a.2.2,0,0,0,.11-.09.38.38,0,0,0,.06-.17,2.11,2.11,0,0,0,0-.3c0-.21,0-.41,0-.61V62.23c0-.16,0-.34,0-.52a2.63,2.63,0,0,0,0-.3.48.48,0,0,0-.05-.19.22.22,0,0,0-.11-.1,1,1,0,0,0-.23,0,0,0,0,0,1,0,0s0,0,0,0h1.91a.56.56,0,0,1,.2,0s.06,0,0,.12,0,.17,0,.27,0,.19,0,.29,0,0,0,0a0,0,0,0,1,0,0,.61.61,0,0,0-.09-.35.41.41,0,0,0-.31-.16h-.8c0,.24,0,.48,0,.71v.75H35l.54,0h.1l0,0,0,0h0s0,0,0,0,0,.05,0,.11a1.49,1.49,0,0,1,0,.21.64.64,0,0,0,0,.15.05.05,0,0,1,0,0,0,0,0,0,1,0,0,.26.26,0,0,0,0-.14.19.19,0,0,0-.08-.07l-.12,0h-.82Z"/><path class="cls-3" d="M40.72,63.93c0,.12,0,.22,0,.3a.48.48,0,0,0,0,.19.18.18,0,0,0,.11.1.64.64,0,0,0,.2,0,0,0,0,0,1,0,0s0,0,0,0l-.29,0h-.57l-.29,0s0,0,0,0,0,0,0,0a.4.4,0,0,0,.17,0,.24.24,0,0,0,.1-.1.48.48,0,0,0,.05-.2,2.41,2.41,0,0,0,0-.31v-.22c0-.09,0-.2,0-.31v-.55h-1l-1.05,0v.86a1.79,1.79,0,0,1,0,.21,2.41,2.41,0,0,0,0,.31.72.72,0,0,0,.05.2.27.27,0,0,0,.11.1.4.4,0,0,0,.17,0s0,0,0,0,0,0,0,0l-.28,0h-.59l-.28,0s0,0,0,0a0,0,0,0,1,0,0,.72.72,0,0,0,.2,0,.21.21,0,0,0,.11-.1.78.78,0,0,0,0-.19c0-.08,0-.18,0-.3v-.5c0-.1,0-.2,0-.29v-.57c0-.12,0-.24,0-.35V61.7c0-.12,0-.22,0-.3a.56.56,0,0,0,0-.18.18.18,0,0,0-.11-.1.72.72,0,0,0-.2,0s0,0,0,0,0,0,0,0h1.15a.05.05,0,0,1,0,0,0,0,0,0,1,0,0,.61.61,0,0,0-.17,0,.18.18,0,0,0-.1.09.36.36,0,0,0-.05.19,2.41,2.41,0,0,0,0,.31.86.86,0,0,1,0,.15v.8H40.3v-.56c0-.16,0-.29,0-.38a2.69,2.69,0,0,0,0-.31.74.74,0,0,0-.05-.19.21.21,0,0,0-.11-.1.6.6,0,0,0-.18,0s0,0,0,0,0,0,0,0h1.16l0,0s0,0,0,0a.64.64,0,0,0-.2,0,.22.22,0,0,0-.11.1.49.49,0,0,0,0,.19c0,.08,0,.18,0,.3v.19c0,.09,0,.19,0,.3v1.73Z"/><path class="cls-3" d="M43.28,62.84v.92c0,.11,0,.22,0,.31a1.06,1.06,0,0,0,0,.21.14.14,0,0,0,.06.1.22.22,0,0,0,.12.05h.68a.6.6,0,0,0,.29-.06.47.47,0,0,0,.19-.15.7.7,0,0,0,.11-.21l.06-.27s0,0,0,0a0,0,0,0,1,0,0v.39c0,.07,0,.13,0,.19a.59.59,0,0,1,0,.14.16.16,0,0,1-.09.13.57.57,0,0,1-.25,0h-2s0,0,0,0,0,0,0,0l.19,0a.24.24,0,0,0,.11-.09.38.38,0,0,0,.06-.17,2.11,2.11,0,0,0,0-.3c0-.21,0-.41,0-.61V62.23c0-.16,0-.34,0-.52s0-.22,0-.3a.48.48,0,0,0-.05-.19.2.2,0,0,0-.12-.1.8.8,0,0,0-.22,0s0,0,0,0,0,0,0,0h1.91a.56.56,0,0,1,.2,0s.06,0,0,.12,0,.17,0,.27,0,.19,0,.29,0,0,0,0,0,0,0,0a.81.81,0,0,0-.09-.35.41.41,0,0,0-.31-.16h-.81v1.46h.44l.53,0h.1l.06,0,0,0h0s0,0,0,0,0,.05,0,.11l0,.21a1,1,0,0,1,0,.15s0,0,0,0a0,0,0,0,1,0,0,.28.28,0,0,0,0-.14.27.27,0,0,0-.08-.07l-.12,0h-.82Z"/><path class="cls-3" d="M47.89,64.44a.67.67,0,0,0,.3-.06.58.58,0,0,0,.19-.15.7.7,0,0,0,.11-.21c0-.09,0-.17.07-.27s0,0,0,0,0,0,0,0v.19a1.34,1.34,0,0,1,0,.2v.19s0,.1,0,.14a.17.17,0,0,1-.1.13.51.51,0,0,1-.25,0H46.53l-.33,0s0,0,0,0,0,0,0,0l.19,0a.19.19,0,0,0,.11-.09.58.58,0,0,0,0-.17c0-.07,0-.17,0-.29a2.71,2.71,0,0,0,0-.29v-1.8a1.79,1.79,0,0,1,0-.21c0-.12,0-.22,0-.29a.56.56,0,0,0,0-.18.31.31,0,0,0-.11-.09.74.74,0,0,0-.19,0s0,0,0,0,0,0,0,0h1.12s0,0,0,0a0,0,0,0,1,0,0l-.16,0a.16.16,0,0,0-.09.09.47.47,0,0,0-.06.17,2.27,2.27,0,0,0,0,.28l0,1.14v.33c0,.12,0,.23,0,.35v.32a2.35,2.35,0,0,1,0,.26v.21a.23.23,0,0,0,0,.12.16.16,0,0,0,.11.05h.73Z"/><path class="cls-3" d="M53.09,61l0-.08,0,0s0,0,0,0a.56.56,0,0,1,0,.08c0,.12.1.3.19.53s.18.5.28.79.22.59.34.9l.35.88.1.21a.63.63,0,0,0,.1.12l.13.07.17,0s0,0,0,0,0,0,0,0l-.3,0H54l-.26,0s0,0,0,0a0,0,0,0,1,0,0,.3.3,0,0,0,.21-.08.47.47,0,0,0,0-.27c0-.14-.09-.29-.16-.47s-.12-.35-.19-.53H52.44l-.08.21-.09.25c0,.09-.07.18-.1.27s-.05.18-.08.25a.48.48,0,0,0,0,.19.18.18,0,0,0,0,.11.31.31,0,0,0,.1,0l.14,0a0,0,0,0,1,0,0s0,0,0,0l-.3,0h-.48l-.29,0s0,0,0,0a0,0,0,0,1,0,0l.11,0a.31.31,0,0,0,.12,0,.47.47,0,0,0,.12-.09.83.83,0,0,0,.12-.17,5.48,5.48,0,0,0,.27-.58c.1-.23.19-.46.29-.7Zm.44,2q-.12-.34-.24-.66c-.08-.22-.17-.45-.26-.68a2.33,2.33,0,0,0-.12.3l-.15.35-.26.69h1Z"/><path class="cls-3" d="M57.5,64.44a.67.67,0,0,0,.3-.06.49.49,0,0,0,.19-.15A.53.53,0,0,0,58.1,64a2.13,2.13,0,0,0,.07-.27s0,0,0,0,0,0,0,0v.19a1.34,1.34,0,0,1,0,.2v.19s0,.1,0,.14a.15.15,0,0,1-.1.13.51.51,0,0,1-.25,0H56.15l-.34,0s0,0,0,0,0,0,0,0l.19,0a.16.16,0,0,0,.11-.09.58.58,0,0,0,0-.17c0-.07,0-.17,0-.29a2.71,2.71,0,0,0,0-.29c0-.1,0-.2,0-.3v-.82c0-.13,0-.25,0-.36v-.32c0-.09,0-.16,0-.21s0-.22,0-.29a.56.56,0,0,0,0-.18.24.24,0,0,0-.11-.09.74.74,0,0,0-.19,0s0,0,0,0,0,0,0,0h1.12s0,0,0,0,0,0,0,0l-.16,0a.16.16,0,0,0-.09.09.47.47,0,0,0-.06.17,2.27,2.27,0,0,0,0,.28v2.14a2.35,2.35,0,0,1,0,.26,1.22,1.22,0,0,0,0,.21.17.17,0,0,0,0,.12.16.16,0,0,0,.11.05h.73Z"/><path class="cls-3" d="M60.45,61.16H60v.38c0,.17,0,.35,0,.54v1.41a2.72,2.72,0,0,1,0,.28v.18a2,2,0,0,0,0,.32.3.3,0,0,0,.08.18.19.19,0,0,0,.14.09l.23,0a0,0,0,0,1,0,0s0,0,0,0l-.34,0h-.84s0,0,0,0a0,0,0,0,1,0,0l.13,0a.18.18,0,0,0,.08-.07.61.61,0,0,0,0-.17,2.41,2.41,0,0,0,0-.31,2.2,2.2,0,0,1,0-.23V62a1.79,1.79,0,0,1,0-.21,2.63,2.63,0,0,0,0-.33.47.47,0,0,0-.06-.2.23.23,0,0,0-.12-.1l-.22,0a0,0,0,0,1,0-.06h1.29a1.48,1.48,0,0,1,.56.1,1.15,1.15,0,0,1,.38.22.83.83,0,0,1,.2.3.86.86,0,0,1,.07.34,1.4,1.4,0,0,1-.08.47,1.07,1.07,0,0,1-.25.35A1,1,0,0,1,61,63a1.21,1.21,0,0,1-.48.08.75.75,0,0,1-.21,0l-.16,0s0,0,0,0,0,0,0,0h.18a1,1,0,0,0,.69-.23,1,1,0,0,0,.25-.72.81.81,0,0,0-.21-.58A1,1,0,0,0,60.45,61.16Z"/><path class="cls-3" d="M63.05,64.29a1.24,1.24,0,0,1,0-.33,2.43,2.43,0,0,1,0-.3s0,0,0,0a0,0,0,0,1,0,0,1.11,1.11,0,0,0,.23.68.71.71,0,0,0,.58.24.8.8,0,0,0,.58-.19.65.65,0,0,0,.21-.49.79.79,0,0,0-.06-.32.63.63,0,0,0-.16-.24,1.2,1.2,0,0,0-.27-.21l-.35-.2a1.72,1.72,0,0,1-.56-.42,1.46,1.46,0,0,1-.17-.3,1.14,1.14,0,0,1-.06-.39.92.92,0,0,1,.29-.65,1.14,1.14,0,0,1,.76-.25,1.51,1.51,0,0,1,.32,0,1,1,0,0,1,.22,0,.33.33,0,0,1,.16.11.29.29,0,0,1,0,.22c0,.05,0,.11,0,.2s0,.17,0,.24,0,0,0,0,0,0,0,0a1.31,1.31,0,0,0-.06-.27.8.8,0,0,0-.13-.22.65.65,0,0,0-.21-.16.73.73,0,0,0-.3-.06.77.77,0,0,0-.48.16.62.62,0,0,0-.18.48.68.68,0,0,0,.19.5,1.54,1.54,0,0,0,.45.33l.47.27a1.78,1.78,0,0,1,.32.28.79.79,0,0,1,.17.31,1.07,1.07,0,0,1,0,.37,1,1,0,0,1-.1.4.89.89,0,0,1-.24.3,1,1,0,0,1-.36.2,1.7,1.7,0,0,1-.46.06,2.21,2.21,0,0,1-.39,0l-.27-.09a.34.34,0,0,1-.16-.13A.3.3,0,0,1,63.05,64.29Z"/></svg>