<svg id="Layer_1" data-name="Layer 1" xmlns="http://www.w3.org/2000/svg" viewBox="0 0 278 20"><defs><style>.cls-1{fill:#673065;}.cls-2{fill:#666;}</style></defs><title>kocatas-mansions-instanbul-sticky</title><path class="cls-1" d="M25.48,17.78c0-.18,0-.34,0-.48s0,0-.05-.05,0,0,0-.05,0-.09,0-.07-.05-.21-.12-.17,0-.06,0,0a.53.53,0,0,1,0-.21,2,2,0,0,1-.08-.2.51.51,0,0,0-.13-.19c.06,0,0,0,0-.06l.05,0-.06-.09v0s0,0-.05,0a.24.24,0,0,1,0-.12h0l0,0s.05.13,0,0,0-.09,0-.1S25,16,25,16l-.06-.07H25a2.74,2.74,0,0,0-.58-.49s-.15-.1-.16,0h0c.05,0,0,0-.08,0s-.06-.09.06,0l0,0h-.29a2.57,2.57,0,0,0-2.53,1.36l-.06,0a3.07,3.07,0,0,1,.92-1.53s-.06.05-.09.05,0,0,0,0-.23,0-.25.08,0,0,0,.07,0-.08-.12,0,0,0,0,0-.05.15-.1.16v0c-.08,0-.11.17-.16.13v0c-.08.12-.05,0-.14.15h0c-.05,0-.05.09-.11.08v0l-.11.12s0,0,0,0-.13.14-.15.17,0,0,0,0-.07,0-.07.09-.1,0-.15.05,0,0,0,0,0,0,0,0,0,0,0,0-.06.11-.11.2,0,0,0,0,0,.14-.06.08c0,.1-.05.22-.08.32a.59.59,0,0,0,0,.25s0,.07,0,.1h0a1.71,1.71,0,0,0-.07.18s0,0,.06,0l-.05.08h0a.17.17,0,0,0,0,.1h0c-.05,0,0,.15-.05.18s0,.09.05.11a.43.43,0,0,0,0,.05s-.05,0,0,0h0s0,.07,0,.09l0,0,0,0h0a.08.08,0,0,1,0,.07.34.34,0,0,1,.05.17.3.3,0,0,0,.08.18l0,0c0,.1.12.17.14.24h0a.68.68,0,0,0,.09.17l0,0L21,19c0,.05.08.1.12.1s.09.08.13.12h0a.46.46,0,0,1,.1.1.5.5,0,0,1,.12.08l-.06,0,.08,0a0,0,0,0,0,0,0,2.31,2.31,0,0,0,.19.14h0l.1.07s0,0,.05,0a.17.17,0,0,0,.13,0l.07,0c-.07-.05,0,0,0-.05l0,0s0,0,0,0,.12.05.14.09h0c.06,0,0,0,0,0s.11,0,.17,0,.16,0,.1.08,0,0,.07,0a.37.37,0,0,1-.18-.08l.06,0s-.13,0-.15,0,.06,0,.07,0l0,0a.44.44,0,0,1-.18-.09c.05,0-.05,0,0-.05h0s0,0,0,0l.24.08h0l.19,0s.1.07.06.09,0,0,.1,0-.06,0-.08,0,.05,0,.06,0,.09-.11,0-.13a.1.1,0,0,1-.11,0,2.32,2.32,0,0,0,1.95-.66l.09-.11c0,.05,0,.09.05.08l0,0s.1-.1.15-.1,0-.09.05-.14,0,0,0,0,0-.05,0,0a5.12,5.12,0,0,1,.22-.47,1.46,1.46,0,0,0,.15-.49s0,0,0,0,0-.06,0-.09a.42.42,0,0,0,0-.1s0,0,.05,0m-4.82-.36h-.05l.06-.06s0,0,0,.07m.1,1a.28.28,0,0,0,0-.09h0a.27.27,0,0,1,0-.17.5.5,0,0,0,0,.13,1.09,1.09,0,0,1,0,.14m.3-2.31v0h0l0,0h0l0,0s0,0,0,0h0l.07-.07m0,2.72a1,1,0,0,1-.14-.1s0,0,.07-.06l0,.07,0,0,0,0,.05.06,0,0m.23.25h0s0-.06,0-.08,0,.05.07.08h0m.62.63h0m0-.14-.06,0a.77.77,0,0,1,.15.06s0,.06,0,.07a.14.14,0,0,1-.11-.08.26.26,0,0,0-.12-.11s0,.05-.06,0a.24.24,0,0,1-.08-.16,2.26,2.26,0,0,0,.42.26h0l-.16-.07.08.06m.82.24h0m2.4-3.63h0s0,0,0,0"/><path class="cls-1" d="M19.6,10.17s0-.13,0-.18h0a.74.74,0,0,1,0-.15.32.32,0,0,1,0-.13.17.17,0,0,0,0,.05.37.37,0,0,0,0-.09s0,0,0,0a1.57,1.57,0,0,0,0-.24h0s0-.08,0-.12,0,0,0-.06a.27.27,0,0,0-.05-.14l0-.07c0,.09,0,0-.06,0V9s0,0,0,0,0-.12,0-.16l0,0v0c0-.05,0,0,0,0s-.06-.09-.13-.11-.08-.13,0-.12,0,0-.07,0a.49.49,0,0,1,.07.19l-.05,0s.07.09.08.13,0-.06-.05-.06h0a.35.35,0,0,1,.06.19s0,.07,0,0l0,0s0,0,0,0a1.51,1.51,0,0,0-.11-.22l0,0,0,0h0c0-.06-.07-.11-.1-.16s0-.11,0-.11,0,0-.07-.06.06,0,.09,0,0-.06,0-.07-.15,0-.13.07a.09.09,0,0,1,.06.08A2.46,2.46,0,0,0,18,7.83H18a2.58,2.58,0,0,0-2.53,1.36l-.05,0a3,3,0,0,1,.88-1.49h0a1.28,1.28,0,0,0-.45.23s0,0,0,0-.06,0-.09,0l0,.09s0,0,0,0a2.81,2.81,0,0,0-.35.33s0,0,0,.06,0,0-.06,0-.06.07-.06,0-.12.17,0,.2-.05,0-.05,0a.7.7,0,0,1-.13.17s-.05.1-.08.19a.37.37,0,0,0-.05.23c0-.06,0,0,0,0l0,0,0,.1s0,0,0,0,0,0,0,.05,0,.07-.06.11v0s.06-.12.05,0-.06.06,0,.1,0-.05,0,0v.09l0,0a2.46,2.46,0,0,0,.05.76s0,.17.09.14h0c0-.06,0,0,.05.06s0,.1-.07,0v.1c0,.05,0,.11,0,.18a1.2,1.2,0,0,1,.11.23s0,0,0,0,.18.25.18.28h0a.36.36,0,0,0,.14.23s0,0,0,0a.2.2,0,0,0,.08.14h0l.1.11s.07,0,.12.07.1.11.14.08.1.11.14.14h0c0,.07.16.06.21.09s0,0,0,0,.19.13.23.12,0,0,.06,0,0,.08.08.08l0,0c.05,0,.15-.08.19-.05h0c.07,0,.2,0,.2,0v0c.15,0,.06,0,.21,0h0c.07,0,.1,0,.13,0h.2s.19,0,.22,0,0,0,0,0,.07,0,.12,0,0,.1.14.07,0,0,0,0h0s0,0,0,0,.12,0,.22,0,0,0,0,0,.11-.1.1,0,.19-.11.28-.17.18-.11.19-.15.07,0,.1-.06h0c.1,0,.06,0,.18-.08-.06,0-.05,0,0-.06l.09,0,0,0a.19.19,0,0,0,.07-.08s0,0,0,0,.14-.08.17-.09.06-.06,0-.11l0,0s0,0,0,0h0l0,0s0,0,.06-.06a0,0,0,0,0,0,0,.06.06,0,0,0,0,0h0s0,0,0-.06a.37.37,0,0,1,.09-.16.29.29,0,0,0,.07-.18s0,0,0,0,0-.21.07-.26h0a.82.82,0,0,0,.06-.19h0s0-.12,0-.19a.23.23,0,0,0,0-.15m-4.91-.8h0s0,0,0,0m2.88,2.94h0s0,0,0,0h-.1l0,0h0l0,0s0,0,0,0m1.07-.57.05,0s0,0,0,0h-.09M19,8.57h0v0l0,0m.49.63s0,0,0,0h0M19.28,11v0a.34.34,0,0,1-.15.09L19.2,11l.13-.06,0,.06m.07-.4,0-.08h0a.22.22,0,0,0,0-.08h0a.67.67,0,0,1,0,.18h-.09m.07-.42s0-.06,0-.09h0l0,0s0,0,0,.06m0-.45a2.77,2.77,0,0,0-.11-.48h0a.78.78,0,0,0,.06.16.16.16,0,0,1,0-.1l0,.06c0-.05-.06-.08-.07-.15s0-.06.09,0a.13.13,0,0,1,0,.13.28.28,0,0,0,0,.16s0,0,0,.05a.24.24,0,0,1-.06.17"/><path class="cls-1" d="M10.09,10.14a.75.75,0,0,0,.07-.18s0,0-.06,0a.35.35,0,0,0,.05-.08h0a.16.16,0,0,0,0-.1h0c.05,0,0-.16.05-.18s0-.09-.05-.11a.07.07,0,0,0,0-.05s.05,0,0,0h0a.19.19,0,0,0,0-.08l0,0a.05.05,0,0,0,0,0h0a.14.14,0,0,1,0-.07A.34.34,0,0,1,10,9.05.3.3,0,0,0,10,8.87s0,0,0,.05-.12-.17-.13-.24h0a.68.68,0,0,0-.09-.17l0,0-.11-.16c0-.05-.08-.1-.12-.1s-.09-.08-.12-.12h0a.93.93,0,0,1-.1-.1.52.52,0,0,1-.11-.07h0a.29.29,0,0,0-.08,0l0,0A1.33,1.33,0,0,0,9,7.78H9l-.1-.07s0,0,0,0a.22.22,0,0,0-.14,0,.15.15,0,0,0-.07,0c.07,0,0,0,0,0l0,0s0,0,0,0-.11,0-.13-.09h0c-.06,0,0,0,0,0s-.11,0-.17,0-.15,0-.1-.08,0,0-.07,0a.37.37,0,0,1,.18.08H8.22c0,.06.13,0,.16,0s-.07,0-.08,0l0,0a.34.34,0,0,1,.18.09c-.06,0,.05,0,0,0h0s0,0,0,0l-.24-.07h0L8,7.57S8,7.51,8,7.49s0,0-.1,0,.06,0,.08,0,0,0,0,0-.09.11,0,.13a.09.09,0,0,1,.1,0A2.32,2.32,0,0,0,6,8.23l-.09.11c0-.05,0-.09,0-.08l0,0s-.09.1-.14.1l-.06.14s0,0,0,0,0,.05,0,0a3.38,3.38,0,0,1-.22.47,1.38,1.38,0,0,0-.14.49s0,0,0,0,0,.06,0,.09l0,.1s0,0,0,0a4,4,0,0,0,0,.48s0,0,0,0,0,0,0,.06,0,.09,0,.07,0,.21.12.16,0,.07,0,0a.86.86,0,0,1,0,.21l.07.19a.49.49,0,0,0,.13.2c-.06,0,0,0,0,.06l-.06,0,.06.09,0,0s0,0,0,0a.21.21,0,0,1,0,.12h0l0,0s0-.12,0,0,0,.09,0,.1,0-.06,0,0a.18.18,0,0,0,0,.07h0a2.46,2.46,0,0,0,.57.49s.16.1.17,0h0s0,0,.08,0,.06.09-.06,0l0,0h.3a2.59,2.59,0,0,0,2.53-1.36l.05,0a3,3,0,0,1-.92,1.53s.07-.05.09-.05,0,0,0,0,.23-.05.25-.08,0,0,0-.07,0,.08.12,0h0S9,11.9,9,11.9v0c.08,0,.11-.17.16-.13v0c.09-.12.06,0,.14-.15h0c.05,0,.05-.08.1-.08v0a.63.63,0,0,0,.11-.12.08.08,0,0,0,0,0s.13-.14.14-.17,0,0,0,0,.07,0,.08-.09.09,0,.14,0l0,0s0,0,0,0,0,0,0,0,.06-.1.12-.18,0,0,0,0,0-.14.06-.08c0-.1.06-.22.08-.33a.42.42,0,0,0,0-.24s0-.07,0-.1Zm-4.52,1s0,0,0,0ZM8,7.57H8m.8.09h0m-.07.13h0a.47.47,0,0,0,.16.07.17.17,0,0,1-.08-.06l.06,0s-.09,0-.16-.06,0-.06.06-.07.09,0,.11.08A.28.28,0,0,0,9,7.88s0,0,.06,0a.24.24,0,0,1,.08.16,2.26,2.26,0,0,0-.42-.26m.69.49h0a.12.12,0,0,1,0,.07L9.4,8.28m.24,3a.07.07,0,0,0,0,0h0l0,0h0s0,0,0,0,0,0,0,0h0l-.08.07M9.71,8.7a.25.25,0,0,1,0-.07l0,0,0,0a.43.43,0,0,1,0-.07,0,0,0,0,1,0,0,.64.64,0,0,1,.14.1s0,0-.06.06m.22.52a.5.5,0,0,0,0-.13l0-.14S10,9,10,9h0a.27.27,0,0,1,0,.17M10,10a.2.2,0,0,0,0-.07h.06s0,0-.07.07"/><path class="cls-1" d="M14.83,2.5a.21.21,0,0,0,0-.16h0V2.19s0-.06,0-.13,0-.15-.05-.16,0-.14,0-.19h0c0-.07-.06-.15-.08-.21s0,0,0,0-.05-.23-.08-.25-.05,0-.07,0,.08,0,0-.12,0,0,0,0-.16-.06-.17-.1h0c0-.08-.17-.11-.13-.16h0c-.12-.09,0-.06-.15-.14h0s-.09,0-.08-.1h0L14,.53s0,0-.05,0-.13-.13-.17-.14,0,0,0,0,0-.07-.09-.07a.11.11,0,0,0,0-.08l-.43,0a2.56,2.56,0,0,0-2.52,1.36l-.06,0A3.15,3.15,0,0,1,11.49.14l0,0h.07l0,0h0l.1-.09a.35.35,0,0,1-.11,0,.27.27,0,0,0-.17.08s0,0,.05,0-.17.12-.24.13v0A.76.76,0,0,0,11,.29l0,0-.15.11c-.06,0-.1.08-.1.12s-.09.09-.13.12v0a.33.33,0,0,1-.11.1.21.21,0,0,1-.07.11s0,0,0,0a.15.15,0,0,0,0,.08s0,0,0,0a1.39,1.39,0,0,0-.15.19h0l-.08.1s0,0,0,0a.3.3,0,0,0-.06.14l0,.07c.05-.07,0,0,.05,0l0,0s0,0,0,0-.06.12-.09.14,0,0,0,0h0c0,.06,0,0,0,0s0,.11,0,.17,0,.15-.08.1,0,0,0,.07A.51.51,0,0,1,10,1.78v.06c.05,0,0-.13,0-.16a.08.08,0,0,0,0,.08l0,0a.28.28,0,0,1,.09-.18c0,.06,0-.05,0,0l0,0s0,0,0,0a2.17,2.17,0,0,0-.07.24.43.43,0,0,0,0-.05v.06a1.29,1.29,0,0,0,0,.19s-.06.09-.08.06,0,0,0,.1,0-.06-.05-.08,0,0,0,0,.12.09.14,0a.09.09,0,0,1,0-.1,2.32,2.32,0,0,0,.66,2,.48.48,0,0,0,.11.09c-.05,0-.09,0-.09,0l0,0s.11.1.1.14l.14.06s0,0,0,0,.06,0,0,0a5,5,0,0,1,.47.22,1.33,1.33,0,0,0,.48.14s0,0,0,0,0,0,.09,0l.09,0s0,0,0,0c.17,0,.34,0,.48,0s0,0,0,0,0,0,.05,0,.1,0,.08,0,.2,0,.16-.12.06,0,0,0a.71.71,0,0,1,.21,0l.19-.07c.09,0,.18-.09.19-.13s0,0,.07,0l0,.05.09-.06,0,0s0,0,0,0a.21.21,0,0,1,.12,0h0l0,0s-.12,0,0,0,.09,0,.1,0-.05,0,0,0l.06-.06v0a2.72,2.72,0,0,0,.49-.57s.09-.16,0-.17v0c0,.05,0,0,0-.08s.1-.06,0,.06l.07-.08c.06,0,.09-.06.11-.14a1.68,1.68,0,0,1,.07-.24h0a1.36,1.36,0,0,0,.07-.33l0,0a.34.34,0,0,0,.06-.26s0,0,0,0M11.14.29s0,0,.06.06l-.08,0,0,0,0,0-.06,0a0,0,0,0,1,0,0,.42.42,0,0,1,.1-.14M10.86.6l-.08.06h0a0,0,0,0,0,0,0l.08,0m-.7.68h0s0,0,0,0m-.09.8h0l0,0v0m.21-.73h0c0-.08.07-.14.06-.16a.12.12,0,0,1,0,.07s0,0,0-.06,0,.1-.05.16-.07,0-.07-.05a.14.14,0,0,1,.07-.12.28.28,0,0,0,.11-.11s0,0,0-.06a.24.24,0,0,1,.17-.08,2.31,2.31,0,0,0-.27.42m3.39,3.14h0Zm0-4.07,0,0v0l0,0s0,0,0,0a0,0,0,0,0,0,0s0,0,0,0l.07.08h0"/><path class="cls-1" d="M14.73,16.88s0-.07,0,0c-.07-.16-.12-.32-.18-.48a1.22,1.22,0,0,0-.24-.45s0,0,0,0,0-.05,0-.09l-.1,0s0,0,0,0-.25-.23-.34-.35,0,0-.06,0,0,0,0-.06-.08-.06-.05-.06-.17-.11-.2,0,0-.06,0-.06a.81.81,0,0,1-.18-.12L13.22,15a.43.43,0,0,0-.23,0c.06,0,0,0,0,0l.06,0-.11,0h0s0,0,0,0a.13.13,0,0,1-.11-.06h0s.12.05,0,.05-.06-.06-.09,0,0,0,0,0h-.08l0,0a2.76,2.76,0,0,0-.75.07s-.18,0-.14.09h0c.06,0,0,.05-.06.05s-.11,0,0-.07h-.1s-.11,0-.18,0a.94.94,0,0,1-.22.12h0c-.14,0-.25.18-.28.18v0a.37.37,0,0,0-.23.15s0,0,0,0a.27.27,0,0,0-.15.09h0l-.1.11s0,.07-.07.12-.11.1-.08.14-.11.1-.14.14a0,0,0,0,1,0,0c-.07,0-.07.16-.1.22s0,0,0,0-.12.2-.11.24,0,0,0,.05-.08,0-.08.09,0,0,0,0,.08.14.05.18v0c0,.08,0,.2,0,.21h0c0,.14,0,.06,0,.2h0c0,.06,0,.1,0,.13v0a1,1,0,0,0,0,.17.06.06,0,0,0,0,.06s0,.19,0,.22,0,0,0,0a.09.09,0,0,0,0,.11s-.09,0-.06.14,0,0,0,0a.06.06,0,0,1,0,0s0,0,0,0,0,.12.05.22,0,0,0,0,.09.11,0,.1l.17.29a.6.6,0,0,0,.15.18s0,.07.06.09h0c0,.1,0,.06.07.17,0-.05,0,0,.06,0a.29.29,0,0,1,0,.09h0a.16.16,0,0,0,.07.07s0,0,0,0,.09.14.1.17.06.07.11,0,0,0,0,0-.05,0,0,0h0l0,0,.06.05.23,0-.05-.07.12.06h.12A2.57,2.57,0,0,0,14,18.05H14a3.2,3.2,0,0,1-.66,1.29l.17-.09,0,0,0,0h0l.16-.11s.11,0,.11,0,0,0,.06-.08,0,.06,0,.09.06,0,.07,0,0-.15-.07-.13a.09.09,0,0,1-.08.06,2.34,2.34,0,0,0,.91-1.85c0-.05,0-.09,0-.14s.07.07.09,0v0s0-.14,0-.16l-.06-.14s0,0,0,0M10,17.77v0s0,0,0,0v-.1l0,0v0h0s0,0,0,.05l0,0m.58,1.15v-.08a.1.1,0,0,1,0,.05l0,0m2.31-4.06h0s0,0,0,0m.83,4.28,0,0h0Z"/><path class="cls-1" d="M4.22,17.08s0-.06,0,0a4.09,4.09,0,0,1-.18-.49,1.34,1.34,0,0,0-.24-.44s0,0,0,0,0-.06,0-.09l-.1,0s0,0,0,0-.25-.23-.34-.34,0,0-.06,0,0,0,0-.06-.07-.07,0-.07-.18-.11-.2,0,0-.06,0,0L3,15.32H2.64A2.55,2.55,0,0,0,.12,16.66H.06A3,3,0,0,1,1,15.11s-.08,0-.14,0a1.19,1.19,0,0,1-.22.12h0c-.14,0-.25.18-.28.19v0a.36.36,0,0,0-.23.14s0,0,0,0a.19.19,0,0,0-.14.09H0a.52.52,0,0,0-.1.11s0,.06-.08.11-.1.11-.07.15-.1.1-.14.14h0c-.07,0-.06.16-.09.21s0,0,0,0-.12.2-.12.23,0,0,0,.06-.07,0-.07.09l0,0c0,.05.08.15.05.19v0c0,.08,0,.2,0,.2h0c0,.15,0,.06,0,.21h0c0,.06,0,.09,0,.12v0a1,1,0,0,0,0,.17.06.06,0,0,0,0,.06s0,.18,0,.22,0,0,0,0,0,.06,0,.11-.09,0-.06.14,0,0,0,0,0,0,0,.05,0,0,0,0,0,.11.06.21,0,0,0,0,.09.11,0,.1.12.19.18.28a.46.46,0,0,0,.15.19s0,.06.06.09v0c0,.1,0,.07.08.18,0-.05,0-.05.06,0l0,.09,0,0a.1.1,0,0,0,.07.07s0,0,0,0,.09.14.09.17.07.06.12,0,0,0,0,0,0,0,0,0h0l0,0,.06.05h0a.09.09,0,0,1,.06,0,.37.37,0,0,1,.16.09.24.24,0,0,0,.18.07l-.05,0c.1,0,.21,0,.27.07l0,0,.19.06v0l.18,0a.26.26,0,0,0,.16,0s.12,0,.18,0v0A.38.38,0,0,1,2,20a.5.5,0,0,1,.13,0l-.05,0,.08,0h0a2,2,0,0,0,.24,0h.12s0,0,.06,0a.35.35,0,0,0,.13-.05s.05,0,.07,0,0,0,0-.06h0s0,0,0,0,.12,0,.16,0v0h0s0,0,0,0,.09-.06.11-.13c0,.09.13-.08.12,0s0,0,0-.07-.14.06-.19.08l0,0c-.05,0-.1.07-.13.08A.1.1,0,0,0,3,19.54v0a.29.29,0,0,1-.19.06s-.07,0,0,0h0s0,0,0,0A.94.94,0,0,0,3,19.46a.08.08,0,0,1,0,0l0,0v0l.17-.11s.11,0,.1,0,0,0,.06-.08,0,.07,0,.09.06,0,.06,0,0-.14-.06-.12a.11.11,0,0,1-.09.06,2.36,2.36,0,0,0,.92-1.85c0-.05,0-.09,0-.14s.07.06.09,0v0s0-.14,0-.17l-.06-.13s0,0,0,0M-.54,18v0s0,0,0,0v-.1s0,0,0,0v0h0s0,0,0,0,0,0,0,0M0,19.13V19l0,.06,0,0m.75.54h0a.38.38,0,0,1-.09-.15l.12.07.06.12-.06,0m.57.13-.17,0s0-.05,0-.08l.07,0v0l0,0h.07a0,0,0,0,1,0,0m.34,0s0,0,0,0a.13.13,0,0,1-.07,0H1.7m.74,0a.28.28,0,0,0-.16,0s.05,0,0,0a.24.24,0,0,1-.17-.06,2.68,2.68,0,0,0,.49-.11h0a.89.89,0,0,0-.16.07s.07,0,.1,0l-.06,0s.08-.05.15-.06.06,0,0,.08a.14.14,0,0,1-.13,0m.15,0h0m.59-.48,0,0h0Z"/><path class="cls-2" d="M36.84,12.12c0-.1.17-.09.17,0,.07,1.44.78,2.34,2.06,2.34a1.77,1.77,0,0,0,2-1.73c0-1.23-.79-1.75-2.14-2.44a3.05,3.05,0,0,1-2-2.82A2.36,2.36,0,0,1,39.6,5.19,4.44,4.44,0,0,1,41,5.38a.69.69,0,0,1,.52.84c0,.21-.1.79-.13,1.1a.08.08,0,0,1-.16,0,1.77,1.77,0,0,0-1.77-1.78,1.51,1.51,0,0,0-1.67,1.6,2.4,2.4,0,0,0,1.63,2.12c1.83.94,2.59,1.72,2.55,3.13S40.65,14.82,39,14.82a4.11,4.11,0,0,1-1.67-.31,1,1,0,0,1-.61-.8,5.9,5.9,0,0,1,.13-1.59"/><path class="cls-2" d="M48.05,12.94c.05,1.26.16,1.42,1,1.5a.08.08,0,1,1,0,.16c-.54,0-1.14,0-1.57,0s-1.05,0-1.53,0a.08.08,0,1,1,0-.16c.73-.11.92-.2.95-1.5,0-.5,0-2.16,0-2.67,0-1.15,0-2.58,0-3.08,0-1.54-.28-1.54-.95-1.63-.1,0-.13-.16,0-.16.4,0,1.1,0,1.53,0l1.35,0c.11,0,.1.14,0,.16-.64.12-.82.13-.85,1.63,0,.44,0,2,0,3.07,0,.52,0,2.18,0,2.68"/><path class="cls-2" d="M56.37,10.46c-.6.92-1.38,2.29-1.8,3.06-.32.6-.34.83.45.92.1,0,.13.16,0,.16-.45,0-1,0-1.32,0s-.88,0-1.4,0c-.1,0-.1-.15,0-.16a1.65,1.65,0,0,0,1.38-.86c.76-1.06,1.66-2.41,2.4-3.57-.77-1.25-1.64-2.64-2.29-3.62-.42-.62-.61-.77-1.19-.83-.1,0-.13-.16,0-.16.46,0,1,0,1.39,0s1,0,1.52,0c.13,0,.1.16,0,.16-.67.07-.67.29-.42.77.46.84,1,1.82,1.61,2.84.55-.88,1.07-1.79,1.49-2.62s.32-.9-.21-1c-.1,0-.13-.16,0-.16l1.27,0,1.12,0a.08.08,0,1,1,0,.16c-.43.06-.72.09-1.25.86C58.34,7.54,57.57,8.67,57,9.59c.74,1.18,1.9,3,2.6,4,.43.6.71.78,1.2.83a.08.08,0,0,1,0,.16c-.48,0-1,0-1.4,0s-.87,0-1.4,0a.08.08,0,1,1,0-.16c.57-.06.56-.3.29-.78-.38-.69-1.24-2-1.92-3.2"/><path class="cls-2" d="M70.18,12.12c0-.1.17-.09.17,0,.07,1.44.78,2.34,2.06,2.34a1.77,1.77,0,0,0,2-1.73c0-1.23-.79-1.75-2.14-2.44a3.05,3.05,0,0,1-2-2.82,2.35,2.35,0,0,1,2.65-2.28,4.44,4.44,0,0,1,1.36.19.69.69,0,0,1,.52.84c0,.21-.1.79-.13,1.1a.09.09,0,0,1-.17,0,1.75,1.75,0,0,0-1.76-1.78,1.51,1.51,0,0,0-1.67,1.6,2.4,2.4,0,0,0,1.63,2.12c1.83.94,2.59,1.72,2.55,3.13S74,14.82,72.33,14.82a4.11,4.11,0,0,1-1.67-.31,1,1,0,0,1-.61-.8,5.9,5.9,0,0,1,.13-1.59"/><path class="cls-2" d="M81.36,13.16c0,.89.21.93,1,.95h1.24c1.25,0,1.48-.82,1.66-1.75,0-.1.18-.12.18,0a12.33,12.33,0,0,1-.08,1.81c0,.32-.31.44-.87.44-.74,0-2.09-.06-3.5-.06l-1.67,0a.08.08,0,1,1,0-.16c.78-.09,1-.23,1-1.5,0-1,0-2.08,0-3.13s0-1.7,0-2.64c0-1.22,0-1.49-1-1.61-.11,0-.14-.16,0-.16.48,0,1.24,0,1.73,0,.93,0,2.32,0,3.11,0,.43,0,.67,0,.64.37s-.09.91-.17,1.42c0,.1-.19.1-.17,0,0-.74-.26-1.23-1-1.29a19.27,19.27,0,0,0-2-.05c0,1.24,0,2.36,0,3.71a23.23,23.23,0,0,0,2.48,0c.42,0,.41-.16.51-.14s0,.07,0,.37a6.33,6.33,0,0,1-.15.9c0,.1-.18.1-.18,0,0-.59-.37-.59-1-.62-.26,0-1.2,0-1.67,0,0,.72,0,2.18,0,3.11"/><path class="cls-2" d="M98.11,14.44c0,.26,0,.31,0,.32s-.11,0-.32-.25c-.95-1.08-1.94-2.17-3.75-4-1.42-1.44-2.56-2.62-3.19-3.2,0,1.14,0,4,.14,6,0,.59.28,1,1.18,1.07.1,0,.14.16,0,.16l-1.57,0c-.25,0-.77,0-1.17,0a.08.08,0,1,1,0-.16c.53-.11.73-.24.79-1,.12-1.64.15-4,.15-5.21,0-.81,0-1.78,0-2.64,0-.22,0-.28.06-.3s.1,0,.31.24c1.1,1.21,2.3,2.49,3.78,4,1.29,1.29,2.37,2.4,3.17,3.14,0-1.75,0-3.66-.07-5.72-.06-1.08-.18-1.24-1-1.36a.08.08,0,1,1,0-.16l1.35,0L99,5.4c.12,0,.09.16,0,.16-.57.09-.71.49-.74,1.17-.09,2.28-.15,4.46-.15,7.71"/><path class="cls-2" d="M103.49,12.12c0-.1.17-.09.17,0,.07,1.44.78,2.34,2.06,2.34a1.77,1.77,0,0,0,2-1.73c0-1.23-.79-1.75-2.14-2.44a3.05,3.05,0,0,1-2-2.82,2.35,2.35,0,0,1,2.65-2.28,4.44,4.44,0,0,1,1.36.19.69.69,0,0,1,.52.84c0,.21-.1.79-.13,1.1a.09.09,0,0,1-.17,0,1.75,1.75,0,0,0-1.76-1.78,1.51,1.51,0,0,0-1.67,1.6A2.4,2.4,0,0,0,106,9.26c1.83.94,2.59,1.72,2.55,3.13s-1.28,2.43-2.94,2.43a4.11,4.11,0,0,1-1.67-.31,1,1,0,0,1-.61-.8,5.9,5.9,0,0,1,.13-1.59"/><path class="cls-2" d="M114.67,13.16c0,.89.21.93,1,.95h1.24c1.25,0,1.49-.82,1.66-1.75,0-.1.18-.12.18,0a14.08,14.08,0,0,1-.07,1.81c-.06.32-.31.44-.88.44-.74,0-2.09-.06-3.49-.06l-1.68,0a.08.08,0,1,1,0-.16c.79-.09,1-.23,1-1.5,0-1,0-2.08,0-3.13s0-1.7,0-2.64c0-1.22,0-1.49-1-1.61-.11,0-.14-.16,0-.16.49,0,1.24,0,1.73,0,.93,0,2.33,0,3.11,0,.43,0,.67,0,.64.37s-.09.91-.16,1.42c0,.1-.2.1-.18,0,0-.74-.25-1.23-1-1.29a19.15,19.15,0,0,0-2-.05c0,1.24,0,2.36,0,3.71a23.23,23.23,0,0,0,2.48,0c.43,0,.41-.16.51-.14s0,.07,0,.37a5.15,5.15,0,0,1-.15.9c0,.1-.18.1-.18,0,0-.59-.37-.59-1-.62-.27,0-1.21,0-1.68,0,0,.72,0,2.18,0,3.11"/><path class="cls-2" d="M122.93,12.12c0-.11.16-.09.16,0,.08,1.43.79,2.34,2.06,2.34a1.78,1.78,0,0,0,2-1.74c0-1.23-.78-1.74-2.13-2.44a3,3,0,0,1-2-2.82,2.36,2.36,0,0,1,2.65-2.28,4.58,4.58,0,0,1,1.37.19.7.7,0,0,1,.52.85c0,.21-.11.78-.14,1.09,0,.12-.16.08-.16,0a1.76,1.76,0,0,0-1.76-1.77,1.51,1.51,0,0,0-1.68,1.6,2.42,2.42,0,0,0,1.63,2.12c1.84.93,2.59,1.72,2.55,3.12s-1.27,2.43-2.93,2.43a4,4,0,0,1-1.68-.31,1,1,0,0,1-.61-.8,5.45,5.45,0,0,1,.14-1.58"/><path class="cls-2" d="M138.25,10.26v.56c0,.26,0,.52,0,.79s0,.52,0,.77,0,.43,0,.56a4.67,4.67,0,0,0,.07.79.93.93,0,0,0,.15.41.5.5,0,0,0,.27.18l.41.09a.09.09,0,0,1,.1.08c0,.06,0,.08-.1.08l-.72,0H137l-.71,0c-.06,0-.08,0-.08-.07a.1.1,0,0,1,.08-.09,3,3,0,0,0,.49-.1.43.43,0,0,0,.26-.21,1.16,1.16,0,0,0,.12-.43c0-.17,0-.42.06-.73,0-.13,0-.32,0-.56s0-.5,0-.77V9.37c0-.32,0-.63,0-.92s0-.56,0-.8,0-.41,0-.53c0-.32,0-.58,0-.77A.89.89,0,0,0,137,5.9a.56.56,0,0,0-.29-.21,3.3,3.3,0,0,0-.48-.1.09.09,0,0,1-.1-.08c0-.06,0-.08.1-.08l.79,0h1.38l.72,0c.07,0,.11,0,.1.08a.09.09,0,0,1-.1.08,1.9,1.9,0,0,0-.42.09.55.55,0,0,0-.25.23,1.48,1.48,0,0,0-.11.45c0,.19,0,.45-.05.76s0,.42,0,.68,0,.52,0,.8,0,.56,0,.85Zm4.81-4.79.53,0a4.79,4.79,0,0,1,.55,0c.07,0,.1,0,.1.08s0,.09-.1.09a4.05,4.05,0,0,0-.71.13,2.08,2.08,0,0,0-.73.43,9.52,9.52,0,0,0-.71.64c-.26.24-.56.55-.91.92l-.45.47c-.15.17-.31.34-.47.5l-.43.46a4.67,4.67,0,0,0-.3.36l.58.64.76.81q.39.43.78.84c.26.28.49.52.69.71a14.18,14.18,0,0,0,1.14,1.05,4.59,4.59,0,0,0,1.22.73,1.48,1.48,0,0,0,.45.11l.47,0q.09,0,.09.06s0,.06-.09.07a3,3,0,0,1-.43.08,4.8,4.8,0,0,1-.55,0,4.18,4.18,0,0,1-.89-.1,3.29,3.29,0,0,1-.83-.32,6,6,0,0,1-.88-.62c-.31-.26-.65-.59-1-1l-.56-.59-.61-.68c-.21-.22-.41-.44-.59-.65s-.34-.39-.46-.54l-.14-.15-.13-.1.9-1c.36-.42.73-.83,1.11-1.24.14-.17.28-.31.39-.44l.32-.37.32-.37.38-.44a.39.39,0,0,0,.13-.3c0-.1-.08-.15-.22-.17s-.11,0-.11-.09,0-.07.11-.07h1.31Z"/><path class="cls-2" d="M154.86,9.83a5.12,5.12,0,0,1-.37,2,4.92,4.92,0,0,1-1,1.57,4.64,4.64,0,0,1-1.53,1,4.78,4.78,0,0,1-1.93.38,6.2,6.2,0,0,1-1.93-.29,4.21,4.21,0,0,1-1.52-.86,4.05,4.05,0,0,1-1-1.43,5.45,5.45,0,0,1-.42-2,4.69,4.69,0,0,1,.33-2,4.42,4.42,0,0,1,1.05-1.59,5.17,5.17,0,0,1,1.63-1,5.88,5.88,0,0,1,2.09-.37,4.81,4.81,0,0,1,2,.39,4.35,4.35,0,0,1,1.46,1,4.29,4.29,0,0,1,.9,1.47A5,5,0,0,1,154.86,9.83Zm-5.2-4.18a3.4,3.4,0,0,0-1.48.35,3.07,3.07,0,0,0-1,.89,4,4,0,0,0-.63,1.36,6.68,6.68,0,0,0-.2,1.73,5.59,5.59,0,0,0,.26,1.78,4.36,4.36,0,0,0,.75,1.4,3.32,3.32,0,0,0,1.19.91,3.62,3.62,0,0,0,1.57.33,3.67,3.67,0,0,0,1.51-.3,3.3,3.3,0,0,0,1.14-.81,3.54,3.54,0,0,0,.73-1.24,4.66,4.66,0,0,0,.25-1.57,6.74,6.74,0,0,0-.23-1.78,4.55,4.55,0,0,0-.74-1.57A3.61,3.61,0,0,0,151.48,6,3.58,3.58,0,0,0,149.66,5.65Z"/><path class="cls-2" d="M161.49,5.22a11.9,11.9,0,0,1,1.34.08,5.62,5.62,0,0,1,1.24.3,1,1,0,0,1,.44.3.89.89,0,0,1,.15.56,6.41,6.41,0,0,1,0,.73c0,.26,0,.52-.06.8,0,.06-.05.08-.11.08a.07.07,0,0,1-.08-.08,2.74,2.74,0,0,0-.32-1.09,2.37,2.37,0,0,0-.65-.75,2.66,2.66,0,0,0-.9-.42,4.77,4.77,0,0,0-2.69.14,3.21,3.21,0,0,0-1.23.82,3.65,3.65,0,0,0-.77,1.37,5.33,5.33,0,0,0-.23,1.9,5.6,5.6,0,0,0,.36,2,3.87,3.87,0,0,0,.91,1.37,3.67,3.67,0,0,0,1.3.78,4.86,4.86,0,0,0,1.53.25,4.3,4.3,0,0,0,1.22-.16,2.27,2.27,0,0,0,.84-.47,2.16,2.16,0,0,0,.52-.73,3.74,3.74,0,0,0,.25-1,.09.09,0,0,1,.1-.09c.06,0,.09,0,.09.09s0,.35,0,.54v.48a3.32,3.32,0,0,1-.05.63,1.23,1.23,0,0,1-.14.36.55.55,0,0,1-.23.2l-.32.17a4.08,4.08,0,0,1-.84.24,7.55,7.55,0,0,1-1.5.12,6.81,6.81,0,0,1-2.19-.33,4.77,4.77,0,0,1-1.65-.94,4.15,4.15,0,0,1-1-1.47,5,5,0,0,1-.36-1.93,5.63,5.63,0,0,1,.34-2,4.41,4.41,0,0,1,1-1.55,4.58,4.58,0,0,1,1.61-1A6.24,6.24,0,0,1,161.49,5.22Z"/><path class="cls-2" d="M170,5.51l.11-.2a.08.08,0,0,1,.07,0s.05,0,.07,0a1.44,1.44,0,0,1,.09.2c.1.31.26.76.47,1.34l.73,2c.27.73.56,1.48.86,2.27s.59,1.54.87,2.24a4.63,4.63,0,0,0,.25.5,1,1,0,0,0,.26.31.9.9,0,0,0,.32.17,2.43,2.43,0,0,0,.44.09.07.07,0,0,1,.08.08c0,.06,0,.08-.08.08l-.77,0h-1.47l-.65,0c-.06,0-.08,0-.08-.08s0-.08.08-.08c.29,0,.46-.1.53-.21a1,1,0,0,0-.07-.67c-.11-.35-.24-.74-.39-1.19s-.31-.89-.48-1.33h-2.89l-.2.52-.23.64-.24.68-.2.63a1.34,1.34,0,0,0-.06.48.42.42,0,0,0,.12.27.46.46,0,0,0,.25.13l.33.05s.07,0,.08.08,0,.08-.08.08l-.74,0h-1.22l-.72,0c-.06,0-.09,0-.09-.08a.09.09,0,0,1,.09-.08l.28-.05a1,1,0,0,0,.29-.12,1.2,1.2,0,0,0,.3-.23,1.74,1.74,0,0,0,.3-.42,14,14,0,0,0,.69-1.47c.24-.58.48-1.18.73-1.77Zm1.09,5.06c-.19-.56-.39-1.12-.59-1.67s-.42-1.12-.66-1.71c-.09.22-.19.47-.31.75l-.37.9-.66,1.73h2.59Z"/><path class="cls-2" d="M182.43,5.75v.34c0,.15,0,.3,0,.47s0,.33,0,.48a3.21,3.21,0,0,1,0,.36.08.08,0,0,1-.09.07s-.07,0-.07-.07a2.54,2.54,0,0,0-.1-.7,1.16,1.16,0,0,0-.22-.43,1,1,0,0,0-.36-.22,2.09,2.09,0,0,0-.47-.08l-.6,0h-1.61a1.06,1.06,0,0,0,0,.21c0,.09,0,.2,0,.31V7.1c0,.53,0,1.08,0,1.63s0,1.09,0,1.61,0,1,0,1.44,0,.83,0,1.13a4.08,4.08,0,0,0,.06.79.82.82,0,0,0,.19.43.62.62,0,0,0,.34.2,3.28,3.28,0,0,0,.54.08.09.09,0,0,1,.09.08c0,.06,0,.08-.09.08l-.8,0h-1.56l-.49,0h-.39c-.06,0-.09,0-.08-.08a.07.07,0,0,1,.08-.08l.39-.07a.65.65,0,0,0,.32-.16.9.9,0,0,0,.23-.4,2.6,2.6,0,0,0,.09-.78V10.11c0-.56,0-1.11,0-1.66V6.77c0-.11,0-.22,0-.33s0-.21,0-.3a1.06,1.06,0,0,0,0-.21H176.6c-.37,0-.67,0-.89,0a3.65,3.65,0,0,0-.71.1.89.89,0,0,0-.42.22,1,1,0,0,0-.22.43,6.44,6.44,0,0,0-.11.66.09.09,0,0,1-.09.08s-.07,0-.07-.08,0-.17,0-.3,0-.28,0-.43V6a3.27,3.27,0,0,1,.05-.52c0-.09,0-.13.09-.13a.29.29,0,0,1,.15.05.81.81,0,0,0,.29.07l.5,0,.75,0,1,0,1.38,0c.86,0,1.62,0,2.25,0L182,5.43a.45.45,0,0,0,.24-.08.27.27,0,0,1,.14-.06s.05,0,.06.09A2.51,2.51,0,0,1,182.43,5.75Z"/><path class="cls-2" d="M186.62,5.51l.11-.2s0,0,.07,0a.08.08,0,0,1,.07,0,1.44,1.44,0,0,1,.09.2c.1.31.26.76.47,1.34l.73,2c.27.73.56,1.48.86,2.27s.59,1.54.87,2.24c.09.2.18.37.25.5a1,1,0,0,0,.26.31.94.94,0,0,0,.33.17,2.15,2.15,0,0,0,.43.09.07.07,0,0,1,.08.08c0,.06,0,.08-.08.08l-.77,0h-1.47l-.65,0c-.06,0-.08,0-.08-.08s0-.08.08-.08c.29,0,.46-.1.53-.21a1,1,0,0,0-.07-.67c-.11-.35-.24-.74-.39-1.19s-.31-.89-.48-1.33H185c-.05.15-.12.32-.19.52s-.16.42-.24.64l-.24.68c-.07.23-.14.44-.19.63A1.19,1.19,0,0,0,184,14a.42.42,0,0,0,.12.27.46.46,0,0,0,.25.13l.33.05s.07,0,.08.08,0,.08-.08.08l-.74,0h-1.22l-.72,0c-.06,0-.09,0-.08-.08a.07.07,0,0,1,.08-.08l.28-.05a.89.89,0,0,0,.29-.12,1.2,1.2,0,0,0,.3-.23,2.08,2.08,0,0,0,.31-.42c.21-.4.44-.88.68-1.47s.48-1.18.73-1.77Zm1.09,5.06c-.19-.56-.39-1.12-.59-1.67s-.42-1.12-.66-1.71c-.09.22-.19.47-.31.75s-.24.59-.37.9l-.66,1.73h2.59Z"/><path class="cls-2" d="M192.15,13.69a4.42,4.42,0,0,1,0-.81,6.28,6.28,0,0,1,.12-.77.1.1,0,0,1,.1-.07s.06,0,.06.07a2.79,2.79,0,0,0,.58,1.7,1.78,1.78,0,0,0,1.47.63A2,2,0,0,0,196,14a1.62,1.62,0,0,0,.52-1.23,2.16,2.16,0,0,0-.14-.8,2,2,0,0,0-.41-.62,3.28,3.28,0,0,0-.67-.51c-.27-.16-.57-.33-.9-.5a5.35,5.35,0,0,1-.76-.47,3.22,3.22,0,0,1-.63-.59,2.8,2.8,0,0,1-.44-.77,2.47,2.47,0,0,1-.15-1,2.19,2.19,0,0,1,.73-1.64A2.77,2.77,0,0,1,195,5.22a4.74,4.74,0,0,1,.8.06,3.36,3.36,0,0,1,.56.13.91.91,0,0,1,.41.28.82.82,0,0,1,.1.56q0,.17-.06.51c0,.23-.05.42-.07.58s0,.08-.09.07-.07,0-.07-.07a2.44,2.44,0,0,0-.15-.66,1.78,1.78,0,0,0-.33-.57,1.62,1.62,0,0,0-.53-.39,1.73,1.73,0,0,0-.75-.15,1.81,1.81,0,0,0-1.2.4,1.48,1.48,0,0,0-.46,1.19,1.8,1.8,0,0,0,.47,1.28,4.29,4.29,0,0,0,1.15.83A11.72,11.72,0,0,1,196,10a3.72,3.72,0,0,1,.8.69,2.2,2.2,0,0,1,.45.78,3.1,3.1,0,0,1,.11,1,2.3,2.3,0,0,1-.24,1,2.5,2.5,0,0,1-.61.76,2.94,2.94,0,0,1-.91.49,3.9,3.9,0,0,1-1.15.16,4.54,4.54,0,0,1-1-.09,5.14,5.14,0,0,1-.69-.22,1.07,1.07,0,0,1-.41-.32A.89.89,0,0,1,192.15,13.69Z"/><path class="cls-2" d="M210.34,10.38q-.3.57-.54,1.08t-.48,1c-.16.33-.3.65-.44,1s-.29.65-.42,1c0,.1-.08.16-.12.16s-.08-.05-.12-.15-.22-.47-.4-.83-.38-.75-.6-1.19l-.72-1.35-.72-1.35-.63-1.16c-.19-.34-.34-.61-.45-.79,0,.41-.06.85-.1,1.3s-.07.93-.1,1.4-.07.95-.1,1.43-.06.93-.08,1.36a2.11,2.11,0,0,0,0,.59.67.67,0,0,0,.19.32.73.73,0,0,0,.32.15l.47.09c.07,0,.1,0,.1.08s0,.08-.1.08c-.23,0-.48,0-.75,0l-.65,0h-.57l-.37,0h-.31c-.07,0-.1,0-.09-.08a.09.09,0,0,1,.09-.08,2.24,2.24,0,0,0,.42-.08.57.57,0,0,0,.28-.18.85.85,0,0,0,.17-.33,5.47,5.47,0,0,0,.1-.56c.15-1.3.3-2.58.44-3.84s.26-2.55.37-3.86c0-.2.06-.3.13-.3s.09,0,.12.1l.09.2c.08.17.19.42.35.74s.34.69.55,1.09.44.85.7,1.31l.76,1.42.76,1.39.68,1.24c.14-.25.33-.63.59-1.14l.87-1.74c.17-.36.36-.74.55-1.13l.57-1.16.53-1.12.47-1,.09-.18a.12.12,0,0,1,.11-.07.05.05,0,0,1,0,0,.77.77,0,0,1,0,.25c0,.34,0,.73.1,1.17s.09.91.15,1.4.11,1,.17,1.53.13,1,.19,1.49.11.9.17,1.3.1.73.15,1a3.09,3.09,0,0,0,.1.45.87.87,0,0,0,.15.29.51.51,0,0,0,.24.16,1.49,1.49,0,0,0,.36.08.1.1,0,0,1,.11.08c0,.06,0,.08-.11.08l-.51,0h-.68l-.61,0a4.75,4.75,0,0,1-.48,0c-.08,0-.11,0-.11-.08s0-.08.11-.08a.38.38,0,0,0,.27-.12.9.9,0,0,0,.07-.57c0-.32-.07-.76-.13-1.3s-.11-1.1-.17-1.68-.13-1.14-.19-1.68-.12-1-.16-1.34c-.06.13-.13.29-.23.48s-.2.4-.31.64-.25.47-.38.74Z"/><path class="cls-2" d="M219.52,5.51c0-.1.08-.17.1-.2a.1.1,0,0,1,.08,0,.1.1,0,0,1,.07,0,1.44,1.44,0,0,1,.09.2c.1.31.25.76.47,1.34s.46,1.25.73,2,.55,1.48.85,2.27.59,1.54.88,2.24a4.63,4.63,0,0,0,.25.5.91.91,0,0,0,.26.31.9.9,0,0,0,.32.17,2.26,2.26,0,0,0,.44.09c.05,0,.07,0,.08.08s0,.08-.08.08l-.78,0h-1.46l-.65,0c-.06,0-.09,0-.08-.08a.07.07,0,0,1,.08-.08c.28,0,.46-.1.52-.21s0-.34-.07-.67-.23-.74-.38-1.19L220.76,11h-2.89c-.06.15-.13.32-.2.52s-.15.42-.24.64-.16.45-.23.68-.14.44-.2.63a1.4,1.4,0,0,0-.07.48.56.56,0,0,0,.12.27.5.5,0,0,0,.25.13l.33.05a.07.07,0,0,1,.08.08c0,.06,0,.08-.08.08l-.73,0h-1.23l-.72,0c-.06,0-.08,0-.08-.08s0-.08.08-.08l.28-.05a.94.94,0,0,0,.3-.12,1.42,1.42,0,0,0,.3-.23,2.54,2.54,0,0,0,.3-.42c.22-.4.44-.88.69-1.47s.48-1.18.73-1.77Zm1.09,5.06L220,8.9c-.2-.55-.42-1.12-.65-1.71-.09.22-.2.47-.31.75l-.37.9L218,10.57h2.59Z"/><path class="cls-2" d="M233.76,6.75c0,.57,0,1.14,0,1.7s0,1.16-.06,1.77,0,1.27,0,1.95v2.24c0,.14,0,.22,0,.26s0,.06,0,.07a.1.1,0,0,1-.11,0l-.21-.23-.73-.81c-.25-.28-.52-.58-.82-.89s-.62-.66-1-1-.76-.78-1.21-1.23c-.71-.71-1.33-1.35-1.88-1.91s-1-1-1.29-1.27c0,.29,0,.66,0,1.13s0,1,0,1.53,0,1.12,0,1.71,0,1.13.07,1.64a1.25,1.25,0,0,0,.26.72,1.42,1.42,0,0,0,.92.34s.07,0,.08.08,0,.08-.08.08l-.9,0h-1.2l-.63,0c-.06,0-.09,0-.08-.08a.07.07,0,0,1,.08-.08,1.08,1.08,0,0,0,.57-.25,1.29,1.29,0,0,0,.21-.73c0-.42.06-.86.07-1.34s0-.95.05-1.42,0-.92,0-1.34,0-.79,0-1.09V7c0-.46,0-.9,0-1.33,0-.11,0-.18,0-.22a.08.08,0,0,1,0-.08s.05,0,.09,0l.22.21c.55.61,1.13,1.23,1.74,1.88s1.28,1.33,2,2.07l1.76,1.76c.52.53,1,1,1.39,1.36V9.9c0-.94,0-1.93-.07-3,0-.26-.05-.48-.07-.65a.76.76,0,0,0-.15-.39.61.61,0,0,0-.29-.2,2.22,2.22,0,0,0-.5-.11s-.07,0-.08-.08,0-.08.08-.08h.34l.39,0h1.1l.62,0c.06,0,.09,0,.08.08a.07.07,0,0,1-.08.08.74.74,0,0,0-.57.36A2.22,2.22,0,0,0,233.76,6.75Z"/><path class="cls-2" d="M236.77,13.69a4.42,4.42,0,0,1,0-.81,6.28,6.28,0,0,1,.12-.77A.1.1,0,0,1,237,12s.06,0,.06.07a2.79,2.79,0,0,0,.58,1.7,1.78,1.78,0,0,0,1.47.63,2,2,0,0,0,1.47-.49,1.62,1.62,0,0,0,.52-1.23,2.16,2.16,0,0,0-.14-.8,2,2,0,0,0-.41-.62,3.28,3.28,0,0,0-.67-.51c-.27-.16-.57-.33-.9-.5a5.35,5.35,0,0,1-.76-.47,3.22,3.22,0,0,1-.63-.59,2.8,2.8,0,0,1-.44-.77,2.47,2.47,0,0,1-.15-1,2.19,2.19,0,0,1,.73-1.64,2.77,2.77,0,0,1,1.91-.63,4.66,4.66,0,0,1,.8.06,3.36,3.36,0,0,1,.56.13.91.91,0,0,1,.41.28.82.82,0,0,1,.1.56q0,.17-.06.51c0,.23,0,.42-.07.58s0,.08-.09.07-.07,0-.07-.07a2.44,2.44,0,0,0-.15-.66,1.78,1.78,0,0,0-.33-.57,1.62,1.62,0,0,0-.53-.39,1.73,1.73,0,0,0-.75-.15,1.81,1.81,0,0,0-1.2.4,1.51,1.51,0,0,0-.46,1.19,1.8,1.8,0,0,0,.47,1.28,4.29,4.29,0,0,0,1.15.83,11.72,11.72,0,0,1,1.17.69,3.72,3.72,0,0,1,.8.69,2.2,2.2,0,0,1,.45.78,3.1,3.1,0,0,1,.11,1,2.3,2.3,0,0,1-.24,1,2.5,2.5,0,0,1-.61.76,2.94,2.94,0,0,1-.91.49,3.9,3.9,0,0,1-1.15.16,4.54,4.54,0,0,1-1-.09,5.14,5.14,0,0,1-.69-.22,1.07,1.07,0,0,1-.41-.32A.89.89,0,0,1,236.77,13.69Z"/><path class="cls-2" d="M245.93,10.26c0,.12,0,.31,0,.56s0,.5,0,.77,0,.53,0,.77,0,.44,0,.56a4.72,4.72,0,0,0,.05.75,1.07,1.07,0,0,0,.15.44.55.55,0,0,0,.3.21,2.88,2.88,0,0,0,.53.09.07.07,0,0,1,.08.08c0,.06,0,.08-.08.08l-.82,0h-1.48l-.78,0c-.06,0-.09,0-.08-.08a.07.07,0,0,1,.08-.08l.44-.09a.59.59,0,0,0,.29-.2,1,1,0,0,0,.15-.43,6.34,6.34,0,0,0,.06-.77c0-.12,0-.31,0-.56s0-.5,0-.76,0-.52,0-.77V9.38c0-.31,0-.6,0-.88s0-.54,0-.76,0-.4,0-.53a6,6,0,0,0-.07-.89,1.27,1.27,0,0,0-.17-.46.54.54,0,0,0-.28-.2l-.42-.07a.09.09,0,0,1-.09-.08c0-.06,0-.08.09-.08h.34l.41,0H246l.38,0h.38c.05,0,.08,0,.08.07a.11.11,0,0,1-.08.09l-.4.09a.56.56,0,0,0-.25.21,1.25,1.25,0,0,0-.14.46,8.12,8.12,0,0,0-.05.86c0,.11,0,.28,0,.51s0,.5,0,.79v1.75Z"/><path class="cls-2" d="M258.39,9.83a5.12,5.12,0,0,1-.37,2,4.92,4.92,0,0,1-1,1.57,4.58,4.58,0,0,1-1.54,1,4.7,4.7,0,0,1-1.92.38,6.2,6.2,0,0,1-1.93-.29,4.13,4.13,0,0,1-1.52-.86,4.05,4.05,0,0,1-1-1.43,5.45,5.45,0,0,1-.42-2,4.69,4.69,0,0,1,.33-2A4.42,4.42,0,0,1,250,6.63a5.17,5.17,0,0,1,1.63-1,5.88,5.88,0,0,1,2.09-.37,4.84,4.84,0,0,1,2,.39,4.45,4.45,0,0,1,1.46,1,4.29,4.29,0,0,1,.9,1.47A5,5,0,0,1,258.39,9.83Zm-5.2-4.18a3.4,3.4,0,0,0-1.48.35,3.07,3.07,0,0,0-1,.89A4,4,0,0,0,250,8.25a6.67,6.67,0,0,0-.21,1.73,5.59,5.59,0,0,0,.27,1.78,4.36,4.36,0,0,0,.75,1.4,3.24,3.24,0,0,0,1.19.91,3.62,3.62,0,0,0,1.57.33,3.67,3.67,0,0,0,1.51-.3,3.3,3.3,0,0,0,1.14-.81,3.7,3.7,0,0,0,.73-1.24,4.66,4.66,0,0,0,.25-1.57A6.74,6.74,0,0,0,257,8.7a4.55,4.55,0,0,0-.74-1.57A3.61,3.61,0,0,0,255,6,3.58,3.58,0,0,0,253.19,5.65Z"/><path class="cls-2" d="M269,6.75l-.06,1.7c0,.57,0,1.16-.05,1.77s0,1.27,0,1.95,0,1.44,0,2.24a1.5,1.5,0,0,1,0,.26.08.08,0,0,1,0,.07.1.1,0,0,1-.11,0l-.21-.23-.73-.81c-.25-.28-.52-.58-.82-.89s-.62-.66-1-1-.76-.78-1.21-1.23l-1.88-1.91c-.54-.56-1-1-1.28-1.27V8.47c0,.46,0,1,0,1.53s0,1.12,0,1.71,0,1.13.07,1.64a1.25,1.25,0,0,0,.26.72,1.44,1.44,0,0,0,.92.34s.07,0,.08.08,0,.08-.08.08l-.9,0H260.8l-.64,0c-.06,0-.08,0-.08-.08s0-.08.08-.08a1,1,0,0,0,.57-.25,1.29,1.29,0,0,0,.21-.73c0-.42.06-.86.08-1.34s0-.95,0-1.42,0-.92,0-1.34,0-.79,0-1.09V7c0-.46,0-.9,0-1.33,0-.11,0-.18,0-.22s0-.07.05-.08.05,0,.09,0l.22.21c.55.61,1.13,1.23,1.74,1.88s1.28,1.33,2,2.07,1.23,1.23,1.76,1.76,1,1,1.39,1.36V9.9c0-.94,0-1.93-.07-3,0-.26,0-.48-.07-.65a.76.76,0,0,0-.15-.39.61.61,0,0,0-.29-.2,2.25,2.25,0,0,0-.49-.11.07.07,0,0,1-.08-.08c0-.06,0-.08.08-.08h.34l.38,0h1.1l.62,0c.06,0,.09,0,.08.08a.07.07,0,0,1-.08.08.74.74,0,0,0-.57.36A2,2,0,0,0,269,6.75Z"/><path class="cls-2" d="M272,13.69a4.47,4.47,0,0,1,0-.81,4.9,4.9,0,0,1,.11-.77.1.1,0,0,1,.1-.07s.06,0,.06.07a2.79,2.79,0,0,0,.58,1.7,1.78,1.78,0,0,0,1.47.63,2.07,2.07,0,0,0,1.48-.49,1.64,1.64,0,0,0,.51-1.23,2.16,2.16,0,0,0-.14-.8,2,2,0,0,0-.41-.62,3.28,3.28,0,0,0-.67-.51c-.27-.16-.57-.33-.9-.5a5.35,5.35,0,0,1-.76-.47,3.22,3.22,0,0,1-.63-.59,3.08,3.08,0,0,1-.44-.77,2.68,2.68,0,0,1-.14-1A2.19,2.19,0,0,1,273,5.85a2.77,2.77,0,0,1,1.91-.63,4.79,4.79,0,0,1,.81.06,3.46,3.46,0,0,1,.55.13.91.91,0,0,1,.41.28.82.82,0,0,1,.1.56q0,.17-.06.51c0,.23-.05.42-.07.58s0,.08-.09.07-.07,0-.07-.07a2.44,2.44,0,0,0-.15-.66,1.78,1.78,0,0,0-.33-.57,1.62,1.62,0,0,0-.53-.39,1.72,1.72,0,0,0-.74-.15,1.79,1.79,0,0,0-1.2.4A1.49,1.49,0,0,0,273,7.16a1.8,1.8,0,0,0,.47,1.28,4.29,4.29,0,0,0,1.15.83,11.72,11.72,0,0,1,1.17.69,4.06,4.06,0,0,1,.81.69,2.34,2.34,0,0,1,.44.78,2.81,2.81,0,0,1,.12,1,2.46,2.46,0,0,1-.25,1,2.36,2.36,0,0,1-.61.76,2.83,2.83,0,0,1-.91.49,3.9,3.9,0,0,1-1.15.16,4.61,4.61,0,0,1-1-.09,5.14,5.14,0,0,1-.69-.22,1.07,1.07,0,0,1-.41-.32A.89.89,0,0,1,272,13.69Z"/></svg>