<svg id="Layer_1" data-name="Layer 1" xmlns="http://www.w3.org/2000/svg" viewBox="0 0 186 20"><defs><style>.cls-1{fill:#673065;}.cls-2{fill:#666;}</style></defs><title>kocatas-mansions-instanbul-mobile</title><path class="cls-1" d="M25.68,17.78c0-.18,0-.34,0-.48s0,0-.05-.05,0,0,0-.05,0-.09,0-.07-.05-.21-.12-.17,0-.06,0,0a.53.53,0,0,1,0-.21,2,2,0,0,1-.08-.2.51.51,0,0,0-.13-.19c.06,0,0,0,0-.06l.05,0-.06-.09v0s0,0-.05,0a.24.24,0,0,1,0-.12h0l0,0s.05.13,0,0,0-.09,0-.1,0,.06,0,.05l-.06-.07h.06a2.74,2.74,0,0,0-.58-.49s-.15-.1-.16,0h0c.05,0,0,0-.08,0s-.06-.09.06,0l0,0h-.29a2.57,2.57,0,0,0-2.53,1.36l-.06,0a3.07,3.07,0,0,1,.92-1.53s-.06.05-.09.05,0,0,0,0-.23,0-.25.08,0,0,0,.07,0-.08-.12,0,0,0,0,0,0,.15-.1.16v0c-.08,0-.11.17-.16.13v0c-.08.12-.05,0-.14.15h0s0,.09-.11.08v0l-.11.12s0,0,0,0-.13.14-.15.17,0,0,0,0-.07,0-.07.09-.1,0-.15.05,0,0,0,0,0,0,0,0,0,0,0,0-.06.11-.11.2,0,0,0,0,0,.14-.06.08c0,.1-.05.22-.08.32a.59.59,0,0,0,0,.25s0,.07,0,.1h0a1.71,1.71,0,0,0-.07.18s0,0,.06,0l-.05.08h0a.17.17,0,0,0,0,.1h0c-.05,0,0,.15-.05.18s0,.09.05.11a.43.43,0,0,0,0,.05s-.05,0,0,0h0s0,.07,0,.09l0,0s0,0,0,0h0a.08.08,0,0,1,0,.07.34.34,0,0,1,.05.17.3.3,0,0,0,.08.18l0,0c0,.1.12.17.14.24h0a.68.68,0,0,0,.09.17l0,0,.1.16c0,.05.08.1.12.1s.09.08.13.12h0a.46.46,0,0,1,.1.1.5.5,0,0,1,.12.08l-.06,0,.08,0a0,0,0,0,0,0,0,2.31,2.31,0,0,0,.19.14h0l.1.07s0,0,.05,0a.17.17,0,0,0,.13,0l.07,0c-.07-.05,0,0,0-.05l0,0s0,0,0,0,.12.05.14.09h0c.06,0,0,0,0,0s.11,0,.17,0,.16,0,.1.08,0,0,.07,0a.37.37,0,0,1-.18-.08l.06,0s-.13,0-.15,0,.06,0,.07,0l0,0a.44.44,0,0,1-.18-.09c.05,0,0,0,0-.05h0s0,0,0,0l.24.08h0l.19,0s.1.07.06.09,0,0,.1,0-.06,0-.08,0,0,0,.06,0,.09-.11,0-.13a.1.1,0,0,1-.11,0,2.32,2.32,0,0,0,1.95-.66L25,19c0,.05,0,.09.05.08l0,0s.1-.1.15-.1,0-.09.05-.14,0,0,0,0,0-.05,0,0a5.12,5.12,0,0,1,.22-.47,1.46,1.46,0,0,0,.15-.49s0,0,0,0,0-.06,0-.09a.42.42,0,0,0,0-.1s0,0,.05,0m-4.82-.36h-.05l.06-.06s0,0,0,.07m.1,1a.28.28,0,0,0,0-.09h0a.27.27,0,0,1,0-.17.5.5,0,0,0,0,.13,1.09,1.09,0,0,1-.05.14m.3-2.31v0h0l0,0h0l0,0s0,0,0,0h0a.46.46,0,0,1,.07-.07m0,2.72a1,1,0,0,1-.14-.1s0,0,.07-.06l0,.07,0,0,0,0,.05.06s0,0,0,0m.23.25h0s0-.06,0-.08,0,.05.07.08h0m.62.63h0m0-.14-.06,0a.77.77,0,0,1,.15.06s0,.06-.05.07a.14.14,0,0,1-.11-.08.26.26,0,0,0-.12-.11s0,.05-.06,0a.24.24,0,0,1-.08-.16,2.26,2.26,0,0,0,.42.26h0L22,19.5l.08.06m.82.24h0m2.4-3.63h0s0,0,0,0"/><path class="cls-1" d="M19.8,10.17s0-.13,0-.18h0a.74.74,0,0,1,0-.15.32.32,0,0,1,0-.13.17.17,0,0,0,0,.05.37.37,0,0,0,0-.09s0,0,0,0a1.57,1.57,0,0,0,0-.24h0s0-.08,0-.12,0,0,0-.06a.27.27,0,0,0-.05-.14l0-.07c0,.09,0,0-.06,0V9s0,0,0,0,0-.12,0-.16l0,0v0c0-.05,0,0,0,0s-.06-.09-.13-.11-.08-.13,0-.12,0,0-.07,0a.49.49,0,0,1,.07.19l0,0s.07.09.08.13,0-.06-.05-.06h0a.35.35,0,0,1,.06.19s0,.07,0,0l0,0s0,0,0,0a1.51,1.51,0,0,0-.11-.22l0,0,0,0h0c0-.06-.07-.11-.1-.16s0-.11,0-.11,0,0-.07-.06.06,0,.09,0,0-.06,0-.07-.15,0-.13.07a.09.09,0,0,1,.06.08,2.46,2.46,0,0,0-.93-.73h-.07a2.58,2.58,0,0,0-2.53,1.36l0,0a3,3,0,0,1,.88-1.49h0a1.28,1.28,0,0,0-.45.23s0,0,0,0-.06,0-.09,0l0,.09s0,0,0,0a2.81,2.81,0,0,0-.35.33s0,0,0,.06,0,0-.06,0-.06.07-.06,0-.12.17,0,.2,0,0,0,0a.7.7,0,0,1-.13.17s0,.1-.08.19a.37.37,0,0,0,0,.23c0-.06,0,0-.05,0l0,0,0,.1s0,0,0,0,0,0,0,.05,0,.07-.06.11v0s.06-.12,0,0-.06.06,0,.1,0-.05,0,0v.09l0,0a2.46,2.46,0,0,0,0,.76s0,.17.09.14h0c0-.06,0,0,.05.06s0,.1-.07,0v.1c0,.05,0,.11,0,.18a1.2,1.2,0,0,1,.11.23s0,0,0,0,.18.25.18.28h0a.36.36,0,0,0,.14.23s0,0,0,0a.2.2,0,0,0,.08.14h0l.1.11s.07,0,.12.07.1.11.14.08.1.11.14.14h0c0,.07.16.06.21.09s0,0,0,0,.19.13.23.12,0,0,.06,0,0,.08.08.08,0,0,0,0,.15-.08.19-.05h0c.07,0,.2,0,.2,0v0c.15,0,.06,0,.21,0h0c.07,0,.1,0,.13,0h.2s.19,0,.22,0,0,0,0,0,.07,0,.12,0,0,.1.14.07-.05,0,0,0h0s0,0,0,0,.12,0,.22,0,0,0,0,0,.11-.1.1,0,.19-.11.28-.17.18-.11.19-.15.07,0,.1-.06h0c.1,0,.06,0,.18-.08-.06,0,0,0,0-.06l.09,0,0,0a.19.19,0,0,0,.07-.08s0,0,0,0,.14-.08.17-.09.06-.06,0-.11l0,0s0,0,0,0h0l0,0s0,0,.06-.06a0,0,0,0,0,0,0,.06.06,0,0,0,0,0h0s0,0,0-.06a.37.37,0,0,1,.09-.16.29.29,0,0,0,.07-.18s0,0,0,0,0-.21.07-.26h0a.82.82,0,0,0,.06-.19h0s0-.12,0-.19a.23.23,0,0,0,0-.15m-4.91-.8h0s0,0,0,0m2.88,2.94h0s0,0,0,0h-.1l0,0h0l.05,0s0,0,0,0m1.07-.57.05,0s0,0,0,0h-.09m.32-3.17h0v0l0,0m.49.63s0,0,0,0h0M19.48,11v0a.34.34,0,0,1-.15.09L19.4,11l.13-.06-.05.06m.07-.4,0-.08h0a.22.22,0,0,0,0-.08h0a.67.67,0,0,1,0,.18h-.09m.07-.42s0-.06,0-.09h0l0,0s0,0,0,.06m0-.45a2.77,2.77,0,0,0-.11-.48h0a.78.78,0,0,0,.06.16.16.16,0,0,1,0-.1l0,.06c0-.05-.06-.08-.07-.15s0-.06.09,0a.13.13,0,0,1,0,.13.28.28,0,0,0,0,.16s0,0,0,.05a.24.24,0,0,1-.06.17"/><path class="cls-1" d="M10.29,10.14a.75.75,0,0,0,.07-.18s0,0-.06,0a.35.35,0,0,0,0-.08h0a.16.16,0,0,0,0-.1h0s0-.16,0-.18,0-.09,0-.11a.07.07,0,0,0,0-.05s0,0,0,0h0a.19.19,0,0,0,0-.08l0,0a.05.05,0,0,0,0,0h0a.14.14,0,0,1,0-.07.34.34,0,0,1,0-.17.3.3,0,0,0-.08-.18s0,0,0,.05-.12-.17-.13-.24h0A.68.68,0,0,0,10,8.5l0,0-.11-.16c0-.05-.08-.1-.12-.1s-.09-.08-.12-.12h0L9.52,8a.52.52,0,0,1-.11-.07h.05l-.08,0,0,0a1.33,1.33,0,0,0-.19-.14h0l-.1-.07s0,0,0,0a.22.22,0,0,0-.14,0,.15.15,0,0,0-.07,0c.07,0,0,0,0,0l0,0s0,0,0,0-.11,0-.13-.09h0c-.06,0,0,0,0,0s-.11,0-.17,0-.15,0-.1-.08,0,0-.07,0a.37.37,0,0,1,.18.08H8.42c0,.06.13,0,.16,0s-.07,0-.08,0l0,0a.34.34,0,0,1,.18.09c-.06,0,0,0,0,0h0s0,0,0,0l-.24-.07h0l-.19,0s-.09-.06-.06-.08,0,0-.1,0,.06,0,.08,0-.05,0-.05,0-.09.11,0,.13a.09.09,0,0,1,.1,0,2.32,2.32,0,0,0-1.95.66l-.09.11c0-.05,0-.09,0-.08l0,0s-.09.1-.14.1l-.06.14s0,0,0,0,0,.05,0,0a3.38,3.38,0,0,1-.22.47,1.38,1.38,0,0,0-.14.49s0,0,0,0,0,.06,0,.09l0,.1s0,0,0,0a4,4,0,0,0,0,.48s0,0,0,0,0,0,0,.06,0,.09,0,.07,0,.21.12.16,0,.07,0,0a.86.86,0,0,1,0,.21l.07.19a.49.49,0,0,0,.13.2c-.06,0,0,0,0,.06l-.06,0,.06.09,0,0s0,0,0,0a.21.21,0,0,1,0,.12h0l0,0s0-.12,0,0,0,.09,0,.1,0-.06,0,0a.18.18,0,0,0,0,.07H6a2.46,2.46,0,0,0,.57.49s.16.1.17,0h0s0,0,.08,0,.06.09-.06,0l0,0H7a2.59,2.59,0,0,0,2.53-1.36l0,0a3,3,0,0,1-.92,1.53s.07-.05.09-.05,0,0,0,0,.23-.05.25-.08,0,0,0-.07,0,.08.12,0h0s0-.17.09-.17v0c.08,0,.11-.17.16-.13v0c.09-.12.06,0,.14-.15h0c.05,0,.05-.08.1-.08v0a.63.63,0,0,0,.11-.12.08.08,0,0,0,0,0s.13-.14.14-.17,0,0,0,0,.07,0,.08-.09.09,0,.14,0l0,0s0,0,0,0,0,0,0,0,.06-.1.12-.18,0,0,0,0,0-.14.06-.08c0-.1.06-.22.08-.33a.42.42,0,0,0,0-.24s0-.07,0-.1Zm-4.52,1s0,0,0,0ZM8.18,7.57h0m.8.09H9m-.07.13h0a.47.47,0,0,0,.16.07A.17.17,0,0,1,9,7.8l.06,0c-.05,0-.09,0-.16-.06s0-.06.06-.07.09,0,.11.08a.28.28,0,0,0,.11.11s0,0,.06,0a.24.24,0,0,1,.08.16,2.26,2.26,0,0,0-.42-.26m.69.49h0a.12.12,0,0,1,0,.07L9.6,8.28m.24,3a.07.07,0,0,0,0,0h0l0,0h0s0,0,0,0,0,0,0,0h0l-.08.07M9.91,8.7a.25.25,0,0,1,0-.07l0,0,0,0a.43.43,0,0,1,0-.07,0,0,0,0,1,0,0,.64.64,0,0,1,.14.1s0,0-.06.06m.22.52a.5.5,0,0,0,0-.13L10.14,9s0,.06,0,.09h0a.27.27,0,0,1,0,.17m.1.79a.2.2,0,0,0,0-.07h.06l-.07.07"/><path class="cls-1" d="M15,2.5a.21.21,0,0,0,0-.16h0V2.19c-.05,0,0-.06,0-.13s0-.15,0-.16,0-.14,0-.19h0c0-.07-.06-.15-.08-.21s0,0,0,0-.05-.23-.08-.25-.05,0-.07,0,.08,0,0-.12,0,0,0,0-.16-.06-.17-.1h0c0-.08-.17-.11-.13-.16h0c-.12-.09,0-.06-.15-.14h0s-.09,0-.08-.1h0L14.19.53s0,0,0,0S14,.36,14,.35s0,0,0,0,0-.07-.09-.07a.11.11,0,0,0,0-.08l-.43,0a2.56,2.56,0,0,0-2.52,1.36l-.06,0A3.15,3.15,0,0,1,11.69.14l0,0h.07l0,0h0l.1-.09a.35.35,0,0,1-.11,0,.27.27,0,0,0-.17.08s0,0,0,0-.17.12-.24.13v0a.76.76,0,0,0-.18.09l0,0L11,.37c-.06,0-.1.08-.1.12s-.09.09-.13.12v0a.33.33,0,0,1-.11.1.21.21,0,0,1-.07.11s0,0,0,0a.15.15,0,0,0,0,.08s0,0,0,0a1.39,1.39,0,0,0-.15.19h0l-.08.1s0,0,0,0a.3.3,0,0,0-.06.14l0,.07c.05-.07,0,0,.05,0l0,0s0,0,0,0-.06.12-.09.14,0,0,0,0h0c0,.06,0,0,0,0s0,.11,0,.17,0,.15-.08.1,0,0,0,.07a.51.51,0,0,1,.09-.18v.06s0-.13,0-.16a.08.08,0,0,0,0,.08l0,0a.24.24,0,0,1,.09-.17c0,.05,0-.06.05,0l0,0s0,0,0,0a2.17,2.17,0,0,0-.07.24.11.11,0,0,1,0-.05v.06a1.29,1.29,0,0,0,0,.19s-.06.09-.09.06,0,0,0,.1,0-.06,0-.08,0,0,0,0,.12.09.14,0a.11.11,0,0,1,0-.1,2.36,2.36,0,0,0,.67,2,.48.48,0,0,0,.11.09s-.09,0-.09,0l0,0s.11.1.1.14l.14.06s0,0,0,0,.06,0,0,0a5,5,0,0,1,.47.22,1.33,1.33,0,0,0,.48.14s0,0,0,0,.05,0,.09,0l.09,0s0,0,0,0c.17,0,.34,0,.48,0s0,0,0,0,0,0,0,0,.1,0,.08,0,.2,0,.16-.12.06,0,.05,0a.71.71,0,0,1,.21,0l.19-.07c.09,0,.18-.09.19-.13s0,0,.07,0l0,.05.09-.06,0,0s0,0,0,0a.21.21,0,0,1,.12,0h0l0,0s-.12,0,0,0,.09,0,.1,0,0,0,0,0l.06-.06v0a2.72,2.72,0,0,0,.49-.57s.09-.16,0-.17v0c0,.05,0,0,0-.08s.1-.06,0,.06l.07-.08c.06,0,.09-.06.11-.14A1.68,1.68,0,0,1,15,3.11h0A1.36,1.36,0,0,0,15,2.79l0,0a.34.34,0,0,0,.06-.26s0,0,0,0M11.34.29s0,0,.06.06l-.08,0,0,0,0,0-.06,0a0,0,0,0,1,0,0,.42.42,0,0,1,.1-.14M11.06.6,11,.66h0a0,0,0,0,0,0,0l.08,0m-.71.68h0s0,0,0,0m-.08.8h0l0,0v0m.21-.73h0c0-.08.07-.14.06-.16a.12.12,0,0,1-.05.07s0,0,0-.06,0,.1,0,.16-.07,0-.07-.05a.14.14,0,0,1,.07-.12.28.28,0,0,0,.11-.11s-.05,0,0-.06a.24.24,0,0,1,.17-.08,2.31,2.31,0,0,0-.27.42m3.39,3.14h0Zm0-4.07,0,0v0l0,0s0,0,0,0a0,0,0,0,0,0,0s0,0,0,0L14,.42h-.05"/><path class="cls-1" d="M14.93,16.88s0-.07,0,0c-.07-.17-.12-.33-.18-.49a1.31,1.31,0,0,0-.24-.45s0,0,0,0,0-.06,0-.09l-.1-.05s0,0,0,0a3.63,3.63,0,0,0-.34-.34s0,0-.06,0,0,0,0-.06-.08-.06,0-.06-.17-.11-.2,0,0-.06,0-.06a.81.81,0,0,1-.18-.12L13.42,15a.37.37,0,0,0-.23-.05c.06,0,0,0,0,0l.06,0-.11,0h0s0,0,0,0a.13.13,0,0,1-.11-.06h0s.12.05,0,.05-.06-.06-.09,0,0,0,0,0h-.08l0,0a2.4,2.4,0,0,0-.75.06s-.18,0-.14.09h0c.06,0,0,.05-.06.05s-.11,0,0-.07h-.1s-.11,0-.18,0a.94.94,0,0,1-.22.12h0c-.14,0-.25.18-.28.18v0a.37.37,0,0,0-.23.15s0,0,0,0a.27.27,0,0,0-.15.09h0l-.1.1s0,.07-.07.12-.11.1-.08.15-.11.09-.14.13a0,0,0,0,1,0,0c-.07,0-.07.16-.1.22s0,0,0,0-.12.2-.11.24,0,0,0,.05-.08,0-.08.09,0,0,0,0,.08.14,0,.18v0c0,.08,0,.2,0,.21h0c0,.14,0,.06,0,.2h0c0,.06,0,.1,0,.13v0a.92.92,0,0,0,0,.16.06.06,0,0,0,0,.06s0,.19,0,.22,0,0,0,0a.09.09,0,0,0,0,.11s-.09,0-.06.14,0,0,0,0a.06.06,0,0,1,0,0s0,0,0,0,0,.12.05.22,0,0,0,0,.09.11,0,.1l.17.29a.6.6,0,0,0,.15.18s0,.07.06.1l0,0c0,.1,0,.06.07.18,0-.06,0,0,.06,0a.31.31,0,0,1,0,.08h0a.16.16,0,0,0,.07.07s0,0,0,0,.09.13.1.16.06.07.11,0,0,0,0,0,0,0,0,0h0l0,0a.34.34,0,0,0,.06.06h.23l0-.07.12.06h.12a2.57,2.57,0,0,0,2.53-1.35h0a3.2,3.2,0,0,1-.66,1.29l.17-.09,0,0,0,0h0l.16-.11s.11,0,.11,0,0,0,.06-.08,0,.07,0,.09.06,0,.07,0,0-.15-.07-.13a.09.09,0,0,1-.08.06,2.34,2.34,0,0,0,.91-1.85c0-.05,0-.09,0-.14s.07.07.09,0v0s0-.14,0-.16l-.06-.14s0,0,0,0m-4.76.9v0s0,0,0,0v-.1l0,0v0s0,0,0,.05h0m.58,1.15v-.09l0,.05s0,0,0,0m2.31-4.07h0s0,0,0,0m.83,4.28,0,0h0Z"/><path class="cls-1" d="M4.42,17.08s0-.06,0,0a4.09,4.09,0,0,1-.18-.49A1.34,1.34,0,0,0,4,16.13s0,0,0,0,0-.06,0-.09l-.1,0s0,0,0,0-.25-.23-.34-.34,0,0-.06,0,0,0,0-.06-.07-.07,0-.07-.18-.11-.2,0,0-.06,0,0l-.11-.08H2.84A2.55,2.55,0,0,0,.32,16.66H.26a3,3,0,0,1,.92-1.54s-.08,0-.14,0a1.19,1.19,0,0,1-.22.12h0c-.14,0-.25.18-.28.19v0a.36.36,0,0,0-.23.14s0,0,0,0a.19.19,0,0,0-.14.09h0a.52.52,0,0,0-.1.11s0,.06-.08.11-.1.11-.07.15-.1.1-.14.14h0c-.07,0-.06.16-.09.21s0,0,0,0-.12.2-.12.23,0,0,0,.06-.07,0-.07.09l0,0c0,.05.08.15,0,.19v0c0,.08,0,.2,0,.2h0c0,.15,0,.06,0,.21h0c0,.06,0,.09,0,.12v0a1,1,0,0,0,0,.17.06.06,0,0,0,0,.06s0,.18,0,.22,0,0,0,0,0,.06,0,.11-.09,0-.06.14,0,0,0,0,0,0,0,.05,0,0,0,0,0,.11.06.21,0,0,0,0,.09.11,0,.1.12.19.18.28a.46.46,0,0,0,.15.19s0,.06.06.09v0c0,.1,0,.07.08.18,0-.05,0-.05.06,0l0,.09,0,0a.1.1,0,0,0,.07.07s0,0,0,0,.09.14.09.17.07.06.12,0,0,0,0,0,0,0,0,0h0l0,0,.06.05h0a.09.09,0,0,1,.06,0,.37.37,0,0,1,.16.09.24.24,0,0,0,.18.07l-.05,0c.1,0,.21,0,.27.07l0,0,.19.06v0l.18,0a.26.26,0,0,0,.16,0S2,20,2,20v0a.38.38,0,0,1,.15,0,.5.5,0,0,1,.13,0l0,0,.08,0h0a2,2,0,0,0,.24,0h.12s0,0,.06,0a.35.35,0,0,0,.13-.05s0,0,.07,0,0,0,0-.06H3s0,0,0,0,.12,0,.16,0v0h0c.05,0,0,0,0,0s.09-.06.11-.13c0,.09.13-.08.12,0s0,0,0-.07-.14.06-.19.08l0,0s-.1.07-.13.08a.1.1,0,0,0,.06-.05v0a.29.29,0,0,1-.19.06s-.07,0,0,0H3s0,0,0,0a.94.94,0,0,0,.22-.12l0,0,0,0v0l.17-.11s.11,0,.1,0,0,0,.06-.08,0,.07,0,.09.06,0,.06,0,0-.14-.06-.12a.11.11,0,0,1-.09.06,2.36,2.36,0,0,0,.92-1.85c0-.05,0-.09,0-.14s.07.06.09,0v0s0-.14,0-.17l-.06-.13s0,0,0,0M-.34,18v0s0,0,0,0v-.1s0,0,0,0v0h0s0,0,0,0,0,0,0,0m.58,1.15V19l0,.06,0,0m.75.54H1a.38.38,0,0,1-.09-.15L1,19.6l.06.12-.06,0m.57.13-.17,0s0-.05,0-.08l.07,0v0l0,0h.07a0,0,0,0,1,0,0m.34,0s0,0,0,0a.13.13,0,0,1-.07,0H1.9m.74,0a.28.28,0,0,0-.16,0s0,0,0,0a.24.24,0,0,1-.17-.06,2.68,2.68,0,0,0,.49-.11h0a.89.89,0,0,0-.16.07s.07,0,.1,0l-.06,0c.05,0,.08-.05.15-.06s.06,0,0,.08a.14.14,0,0,1-.13,0m.15,0h0m.59-.48,0,0h0Z"/><path class="cls-2" d="M35.5,11.33c0-.06.1-.05.1,0,0,.9.49,1.46,1.28,1.46a1.11,1.11,0,0,0,1.25-1.08c0-.76-.49-1.09-1.33-1.52a1.88,1.88,0,0,1-1.24-1.75A1.47,1.47,0,0,1,37.21,7a2.65,2.65,0,0,1,.85.12.43.43,0,0,1,.33.52c0,.13-.07.49-.09.69s-.1,0-.1,0a1.09,1.09,0,0,0-1.1-1.11.94.94,0,0,0-1,1,1.48,1.48,0,0,0,1,1.31c1.14.59,1.61,1.07,1.58,1.95A1.64,1.64,0,0,1,36.83,13a2.6,2.6,0,0,1-1-.19.63.63,0,0,1-.38-.5,3.58,3.58,0,0,1,.09-1"/><path class="cls-2" d="M42.47,11.84c0,.79.11.89.65.93a.06.06,0,0,1,0,.11l-1,0-1,0c-.07,0-.06-.11,0-.11.45-.06.57-.12.59-.93,0-.31,0-1.34,0-1.66,0-.72,0-1.6,0-1.92,0-1-.17-1-.59-1-.06,0-.08-.1,0-.1l1,0,.84,0c.07,0,.07.09,0,.1-.4.07-.51.08-.52,1,0,.28,0,1.28,0,1.91,0,.33,0,1.36,0,1.67"/><path class="cls-2" d="M47.65,10.3c-.37.57-.86,1.42-1.12,1.9s-.21.52.28.57a.05.05,0,1,1,0,.1l-.82,0-.87,0c-.06,0-.06-.09,0-.1a1,1,0,0,0,.86-.53c.47-.66,1-1.5,1.5-2.22-.48-.78-1-1.65-1.44-2.26-.25-.38-.37-.48-.73-.51-.07,0-.09-.1,0-.1l.86,0,.95,0c.08,0,.06.1,0,.1-.42,0-.42.18-.26.48.28.52.62,1.13,1,1.77.34-.55.67-1.12.92-1.63s.21-.57-.13-.62c-.06,0-.08-.1,0-.1l.8,0,.69,0c.08,0,.08.1,0,.1-.27,0-.44,0-.77.53-.49.7-1,1.41-1.32,2,.46.74,1.18,1.89,1.61,2.5.27.37.44.49.75.51.06,0,.07.1,0,.1l-.87,0-.88,0c-.07,0-.06-.1,0-.1.36,0,.35-.18.19-.48s-.78-1.27-1.2-2"/><path class="cls-2" d="M56.25,11.33c0-.06.1-.05.1,0,0,.9.49,1.46,1.29,1.46a1.1,1.1,0,0,0,1.24-1.08c0-.76-.49-1.09-1.33-1.52a1.89,1.89,0,0,1-1.23-1.75A1.46,1.46,0,0,1,58,7a2.7,2.7,0,0,1,.85.12.42.42,0,0,1,.32.52c0,.13-.07.49-.08.69s-.11,0-.11,0a1.08,1.08,0,0,0-1.09-1.11.94.94,0,0,0-1,1,1.5,1.5,0,0,0,1,1.31c1.14.59,1.61,1.07,1.59,1.95A1.64,1.64,0,0,1,57.59,13a2.56,2.56,0,0,1-1-.19.61.61,0,0,1-.38-.5,3.59,3.59,0,0,1,.08-1"/><path class="cls-2" d="M63.21,12c0,.55.13.58.61.59h.77c.78,0,.93-.51,1-1.09,0-.06.11-.07.11,0a7.68,7.68,0,0,1,0,1.13c0,.2-.19.27-.54.27s-1.3,0-2.18,0l-1,0a.06.06,0,1,1,0-.11c.49,0,.59-.14.61-.93,0-.64,0-1.29,0-1.94s0-1.07,0-1.65c0-.76,0-.93-.64-1a.05.05,0,1,1,0-.1l1.08,0,1.94,0c.26,0,.41,0,.39.23s0,.57-.1.88c0,.07-.12.07-.11,0,0-.46-.16-.76-.63-.8a10.41,10.41,0,0,0-1.27,0c0,.77,0,1.47,0,2.31a13.35,13.35,0,0,0,1.54,0c.27,0,.26-.1.32-.09s0,0,0,.23a3.21,3.21,0,0,1-.1.56c0,.06-.11.06-.11,0,0-.37-.23-.37-.61-.39h-1c0,.45,0,1.36,0,1.94"/><path class="cls-2" d="M73.64,12.77c0,.17,0,.2,0,.21s-.08,0-.2-.16c-.6-.67-1.21-1.35-2.34-2.48-.88-.9-1.59-1.63-2-2,0,.71,0,2.47.08,3.76,0,.37.18.61.74.66.06,0,.08.11,0,.11l-1,0-.73,0c-.07,0-.06-.11,0-.11.33-.06.45-.14.49-.61.08-1,.09-2.5.09-3.25,0-.5,0-1.11,0-1.64,0-.14,0-.18,0-.19s.07,0,.19.15c.69.76,1.43,1.55,2.36,2.47s1.47,1.5,2,2c0-1.09,0-2.28,0-3.56,0-.68-.12-.78-.63-.85a.05.05,0,1,1,0-.1l.84,0,.69,0c.07,0,0,.1,0,.1-.35,0-.44.3-.46.73-.06,1.42-.09,2.77-.09,4.79"/><path class="cls-2" d="M77,11.33c0-.06.1-.05.1,0,0,.9.49,1.46,1.28,1.46a1.11,1.11,0,0,0,1.25-1.08c0-.76-.49-1.09-1.33-1.52a1.88,1.88,0,0,1-1.24-1.75A1.47,1.47,0,0,1,78.7,7a2.65,2.65,0,0,1,.85.12.43.43,0,0,1,.33.52c0,.13-.07.49-.09.69s-.1,0-.1,0a1.09,1.09,0,0,0-1.1-1.11.94.94,0,0,0-1,1,1.48,1.48,0,0,0,1,1.31c1.14.59,1.61,1.07,1.58,1.95A1.64,1.64,0,0,1,78.32,13a2.6,2.6,0,0,1-1-.19.63.63,0,0,1-.38-.5,3.58,3.58,0,0,1,.09-1"/><path class="cls-2" d="M84,12c0,.55.13.58.61.59h.77c.77,0,.92-.51,1-1.09,0-.06.11-.07.11,0a9.59,9.59,0,0,1,0,1.13c0,.2-.2.27-.55.27s-1.3,0-2.17,0l-1,0c-.07,0-.06-.11,0-.11.49,0,.59-.14.61-.93,0-.64,0-1.29,0-1.94s0-1.07,0-1.65c0-.76,0-.93-.63-1-.07,0-.09-.1,0-.1l1.08,0,1.93,0c.27,0,.42,0,.4.23S86,8,86,8.26c0,.07-.12.07-.11,0,0-.46-.16-.76-.63-.8a10.46,10.46,0,0,0-1.27,0c0,.77,0,1.47,0,2.31a13.35,13.35,0,0,0,1.54,0c.27,0,.26-.1.32-.09s0,0,0,.23a3.42,3.42,0,0,1-.09.56c0,.06-.11.06-.11,0,0-.37-.23-.37-.61-.39h-1c0,.45,0,1.36,0,1.94"/><path class="cls-2" d="M89.09,11.33c0-.06.1-.06.1,0,0,.89.49,1.46,1.28,1.46a1.11,1.11,0,0,0,1.25-1.08c0-.77-.49-1.09-1.33-1.52a1.9,1.9,0,0,1-1.24-1.76A1.47,1.47,0,0,1,90.8,7a3,3,0,0,1,.85.12.44.44,0,0,1,.32.53c0,.13-.06.49-.08.68a.05.05,0,0,1-.1,0,1.1,1.1,0,0,0-1.1-1.11.94.94,0,0,0-1,1,1.51,1.51,0,0,0,1,1.32c1.15.58,1.62,1.07,1.59,1.95A1.64,1.64,0,0,1,90.42,13a2.56,2.56,0,0,1-1-.19.65.65,0,0,1-.38-.5,3.55,3.55,0,0,1,.09-1"/><path class="cls-2" d="M98.62,10.17c0,.08,0,.2,0,.36s0,.31,0,.48,0,.33,0,.48v.35a4.15,4.15,0,0,0,0,.49.64.64,0,0,0,.1.26.25.25,0,0,0,.17.11l.25.06s.06,0,.06.05,0,0-.06,0l-.45,0h-.93l-.44,0a0,0,0,0,1,0,0,.06.06,0,0,1,0-.05,1.61,1.61,0,0,0,.31-.07.23.23,0,0,0,.16-.13.73.73,0,0,0,.08-.26c0-.11,0-.26,0-.46s0-.19,0-.35V9c0-.18,0-.34,0-.49s0-.26,0-.33a3,3,0,0,0,0-.48.84.84,0,0,0-.09-.28.36.36,0,0,0-.19-.13,1.45,1.45,0,0,0-.29-.06s-.06,0-.06,0,0-.06.06-.06l.49,0h.86l.44,0s.07,0,.07.06a.07.07,0,0,1-.07,0,.76.76,0,0,0-.25.06.27.27,0,0,0-.16.14.67.67,0,0,0-.07.28c0,.12,0,.27,0,.47v.42c0,.16,0,.33,0,.5v.53C98.62,9.85,98.62,10,98.62,10.17Zm3-3H102l.34,0s.07,0,.07.06,0,.06-.07.06a1.63,1.63,0,0,0-.44.08,1.27,1.27,0,0,0-.46.26c-.13.11-.28.24-.44.4s-.35.34-.57.58l-.27.28-.3.32-.27.29a2.22,2.22,0,0,0-.18.22l.36.39.47.51.49.53.43.44a7.3,7.3,0,0,0,.71.65,3.21,3.21,0,0,0,.76.46.9.9,0,0,0,.28.06l.29,0s.06,0,.06,0,0,0-.06,0l-.27.05h-.34a2.38,2.38,0,0,1-.55-.06,1.86,1.86,0,0,1-.52-.2,3.22,3.22,0,0,1-.55-.38,8.56,8.56,0,0,1-.64-.61l-.35-.37-.38-.42-.37-.41-.28-.33-.09-.1L98.73,10l.56-.62.69-.77.24-.28c.07-.08.14-.15.2-.23s.13-.15.2-.23l.24-.27a.24.24,0,0,0,.08-.19c0-.06,0-.09-.13-.11s-.08,0-.08,0,0-.05.08-.05h.81Z"/><path class="cls-2" d="M109,9.91a3.05,3.05,0,0,1-.24,1.22,3,3,0,0,1-.63,1,2.89,2.89,0,0,1-1,.64,3,3,0,0,1-1.2.24,3.78,3.78,0,0,1-1.2-.18,2.62,2.62,0,0,1-.95-.54,2.4,2.4,0,0,1-.63-.89,3.09,3.09,0,0,1-.26-1.23,2.89,2.89,0,0,1,.2-1.25,2.76,2.76,0,0,1,.65-1,3.18,3.18,0,0,1,1-.65,3.45,3.45,0,0,1,1.3-.23,3,3,0,0,1,1.24.24,2.76,2.76,0,0,1,1.47,1.56A3.26,3.26,0,0,1,109,9.91ZM105.73,7.3a2.19,2.19,0,0,0-.92.22,1.85,1.85,0,0,0-.65.56,2.17,2.17,0,0,0-.39.84,4.1,4.1,0,0,0-.13,1.08,3.59,3.59,0,0,0,.16,1.11,2.69,2.69,0,0,0,.47.87,2.19,2.19,0,0,0,.74.57,2.38,2.38,0,0,0,1,.2,2.35,2.35,0,0,0,.94-.18,2.26,2.26,0,0,0,.71-.51,2.34,2.34,0,0,0,.45-.77,2.8,2.8,0,0,0,.16-1,4.24,4.24,0,0,0-.15-1.11,2.93,2.93,0,0,0-.45-1,2.36,2.36,0,0,0-.79-.68A2.22,2.22,0,0,0,105.73,7.3Z"/><path class="cls-2" d="M113.09,7a5.69,5.69,0,0,1,.83,0,2.87,2.87,0,0,1,.78.19.61.61,0,0,1,.27.18.56.56,0,0,1,.1.35,3.64,3.64,0,0,1,0,.45c0,.16,0,.33,0,.5s0,.05-.06.05-.06,0-.06-.05a1.6,1.6,0,0,0-.2-.68,1.37,1.37,0,0,0-.4-.46,1.52,1.52,0,0,0-.56-.26,2.39,2.39,0,0,0-.66-.08,3,3,0,0,0-1,.16,2.12,2.12,0,0,0-.76.51,2.27,2.27,0,0,0-.48.85,3.62,3.62,0,0,0-.15,1.19,3.72,3.72,0,0,0,.23,1.25,2.3,2.3,0,0,0,1.37,1.34,3.11,3.11,0,0,0,1,.15,2.41,2.41,0,0,0,.76-.1,1.38,1.38,0,0,0,.52-.29,1.12,1.12,0,0,0,.32-.45,2.2,2.2,0,0,0,.16-.6s0,0,.06-.06a.05.05,0,0,1,.06.06c0,.11,0,.22,0,.34v.29a1.92,1.92,0,0,1,0,.39.61.61,0,0,1-.09.23.35.35,0,0,1-.14.13l-.2.1a2.64,2.64,0,0,1-.52.15,4.65,4.65,0,0,1-.93.08,4.15,4.15,0,0,1-1.37-.21,2.85,2.85,0,0,1-1-.59,2.46,2.46,0,0,1-.65-.91,3.09,3.09,0,0,1-.23-1.2,3.4,3.4,0,0,1,.22-1.26,2.53,2.53,0,0,1,.62-1,2.82,2.82,0,0,1,1-.62A4,4,0,0,1,113.09,7Z"/><path class="cls-2" d="M118.38,7.22l.07-.13a.05.05,0,0,1,0,0,.05.05,0,0,1,0,0l.06.13c.06.19.15.47.29.83s.29.78.45,1.23.35.93.54,1.42.36,1,.54,1.39l.16.32a.77.77,0,0,0,.16.19.63.63,0,0,0,.2.1,1,1,0,0,0,.27.06,0,0,0,0,1,.05.05s0,0-.05,0l-.48,0h-.91l-.41,0a.05.05,0,1,1,0-.1c.18,0,.29-.06.33-.13s0-.21,0-.42-.15-.46-.25-.74-.19-.55-.3-.83h-1.79c0,.09-.08.2-.13.33l-.14.4-.15.42q-.07.21-.12.39a.72.72,0,0,0,0,.3.22.22,0,0,0,.07.16.38.38,0,0,0,.15.09l.21,0a0,0,0,0,1,.05.05s0,0-.05,0l-.46,0H116l-.45,0a0,0,0,0,1-.05,0s0-.05.05-.05l.18,0a.71.71,0,0,0,.18-.08,1,1,0,0,0,.19-.14,2.21,2.21,0,0,0,.19-.26c.13-.25.27-.55.42-.92s.3-.73.46-1.1Zm.68,3.15c-.12-.35-.24-.7-.37-1s-.26-.7-.41-1.06l-.19.46-.23.56-.41,1.08h1.61Z"/><path class="cls-2" d="M126.12,7.37v.5c0,.11,0,.2,0,.3s0,.17,0,.22a.06.06,0,0,1-.06,0s0,0,0,0a2.22,2.22,0,0,0-.06-.43.7.7,0,0,0-.15-.27.55.55,0,0,0-.22-.14l-.29,0h-1.37a.39.39,0,0,0,0,.13,1.28,1.28,0,0,1,0,.19v.41c0,.33,0,.67,0,1v1.9c0,.28,0,.51,0,.7a3.1,3.1,0,0,0,0,.49.68.68,0,0,0,.12.27.38.38,0,0,0,.22.13l.33,0a.06.06,0,0,1,.06.05s0,0-.06,0l-.5,0h-1.51s-.06,0,0,0a0,0,0,0,1,0-.05l.24,0a.32.32,0,0,0,.2-.1.5.5,0,0,0,.14-.25,1.48,1.48,0,0,0,.06-.48v-1.8c0-.35,0-.69,0-1V8a1.27,1.27,0,0,0,0-.2V7.61a1.23,1.23,0,0,0,0-.13h-.67l-.56,0-.44.06a.56.56,0,0,0-.26.15.59.59,0,0,0-.14.26c0,.11,0,.25-.07.41s0,0,0,0,0,0,0,0V7.5a2.16,2.16,0,0,1,0-.33s0-.08.06-.08l.09,0a.3.3,0,0,0,.18,0l.31,0,.47,0,.65,0h.87l1.4,0,.86,0a.27.27,0,0,0,.15,0,.14.14,0,0,1,.09,0s0,0,0,.06Z"/><path class="cls-2" d="M128.74,7.22l.06-.13a.05.05,0,0,1,0,0s0,0,0,0a.54.54,0,0,1,.06.13c.06.19.16.47.29.83l.46,1.23c.16.46.34.93.53,1.42s.37,1,.54,1.39c.06.13.11.23.16.32a.77.77,0,0,0,.16.19.75.75,0,0,0,.2.1,1.07,1.07,0,0,0,.27.06,0,0,0,0,1,.05.05s0,0-.05,0l-.48,0h-.91l-.41,0a0,0,0,0,1,0,0s0-.05,0-.05c.18,0,.29-.06.33-.13a.59.59,0,0,0,0-.42l-.24-.74-.3-.83h-1.8a3,3,0,0,0-.12.33c0,.12-.1.25-.15.4l-.15.42-.12.39a.72.72,0,0,0,0,.3.26.26,0,0,0,.07.16.35.35,0,0,0,.16.09l.2,0a0,0,0,0,1,0,.05s0,0,0,0l-.45,0h-.77l-.44,0s-.06,0-.06,0,0-.05.06-.05l.17,0a.71.71,0,0,0,.18-.08.77.77,0,0,0,.19-.14,1.09,1.09,0,0,0,.19-.26c.13-.25.28-.55.43-.92l.45-1.1Zm.68,3.15c-.13-.35-.25-.7-.37-1l-.41-1.06c-.06.13-.12.29-.2.46s-.15.37-.22.56l-.42,1.08h1.62Z"/><path class="cls-2" d="M132.18,12.31a2.12,2.12,0,0,1,0-.5,2.74,2.74,0,0,1,.07-.48.06.06,0,0,1,.06-.05s0,0,0,.05a1.79,1.79,0,0,0,.36,1.06,1.12,1.12,0,0,0,.92.39,1.28,1.28,0,0,0,.91-.31,1,1,0,0,0,.32-.77,1.48,1.48,0,0,0-.08-.49,1.4,1.4,0,0,0-.26-.39,2.1,2.1,0,0,0-.42-.32l-.56-.31a3.31,3.31,0,0,1-.47-.29,1.71,1.71,0,0,1-.39-.37,1.42,1.42,0,0,1-.27-.48,1.57,1.57,0,0,1-.1-.6,1.4,1.4,0,0,1,.46-1A1.7,1.7,0,0,1,134,7a3.63,3.63,0,0,1,.5,0l.35.09a.56.56,0,0,1,.26.17.56.56,0,0,1,.06.35c0,.07,0,.17,0,.31s0,.27,0,.37,0,.05-.06,0a0,0,0,0,1,0,0,2.13,2.13,0,0,0-.1-.42.94.94,0,0,0-.2-.35,1,1,0,0,0-.33-.24,1.11,1.11,0,0,0-.46-.09,1.13,1.13,0,0,0-.75.24,1,1,0,0,0-.29.75,1.11,1.11,0,0,0,.29.79,2.56,2.56,0,0,0,.72.52c.28.15.52.29.73.43a2.39,2.39,0,0,1,.5.43,1.29,1.29,0,0,1,.27.48,1.83,1.83,0,0,1,.08.59,1.47,1.47,0,0,1-.54,1.1,1.72,1.72,0,0,1-.57.3,2.3,2.3,0,0,1-.71.11,2.68,2.68,0,0,1-.61-.06,2.72,2.72,0,0,1-.43-.14.55.55,0,0,1-.25-.2A.5.5,0,0,1,132.18,12.31Z"/><path class="cls-2" d="M143.5,10.25l-.34.67-.29.62c-.1.2-.19.4-.28.6s-.18.41-.26.63-.05.1-.08.1,0,0-.07-.09-.14-.3-.25-.52l-.37-.74-.45-.84q-.23-.45-.45-.84t-.39-.72l-.28-.5q0,.39-.06.81l-.06.88c0,.29-.05.59-.06.89s0,.57-.06.84a1.34,1.34,0,0,0,0,.37.39.39,0,0,0,.11.2.45.45,0,0,0,.21.09l.28.06s.07,0,.07.05,0,0-.07,0h-.46l-.41,0h-.78s-.06,0-.05,0,0-.05.05-.05a1.46,1.46,0,0,0,.27,0,.39.39,0,0,0,.17-.11.52.52,0,0,0,.11-.21,3.48,3.48,0,0,0,.06-.35c.1-.81.19-1.61.27-2.39s.17-1.58.23-2.4c0-.12,0-.19.09-.19s.05,0,.07.06a.69.69,0,0,1,0,.13l.23.46c.09.2.21.43.34.68l.43.82c.16.29.31.58.48.88L142,11l.42.77c.09-.15.21-.39.37-.7l.54-1.09.34-.7L144,8.5l.33-.69.29-.6a.36.36,0,0,1,.06-.11.07.07,0,0,1,.07,0s0,0,0,0a.42.42,0,0,1,0,.16q0,.31.06.72c0,.28.06.57.09.88s.07.62.11.95.08.63.12.92.07.57.1.82.07.45.1.61a2.84,2.84,0,0,0,.06.29.77.77,0,0,0,.1.18.3.3,0,0,0,.14.1l.23,0a.07.07,0,0,1,.07.05s0,0-.07,0l-.32,0h-.42l-.38,0h-.3s-.07,0-.07,0a.07.07,0,0,1,.07-.05.25.25,0,0,0,.17-.08s0-.16,0-.35,0-.47-.08-.81-.07-.68-.11-1-.08-.71-.12-1.05-.07-.62-.09-.83c0,.08-.09.17-.14.29l-.2.4-.23.46C143.66,9.92,143.58,10.08,143.5,10.25Z"/><path class="cls-2" d="M149.22,7.22l.06-.13a.05.05,0,0,1,.05,0,.05.05,0,0,1,0,0l.06.13c.06.19.16.47.29.83s.29.78.45,1.23.35.93.54,1.42.36,1,.54,1.39l.16.32a.77.77,0,0,0,.16.19.63.63,0,0,0,.2.1,1.07,1.07,0,0,0,.27.06,0,0,0,0,1,.05.05s0,0-.05,0l-.48,0h-.91l-.41,0a0,0,0,0,1-.05,0s0-.05.05-.05.29-.06.33-.13,0-.21,0-.42-.15-.46-.25-.74-.19-.55-.29-.83h-1.8c0,.09-.08.2-.13.33l-.14.4-.15.42q-.08.21-.12.39a.72.72,0,0,0,0,.3.26.26,0,0,0,.07.16.35.35,0,0,0,.16.09l.2,0a0,0,0,0,1,.05.05s0,0-.05,0l-.46,0h-.76l-.45,0a0,0,0,0,1-.05,0s0-.05.05-.05l.18,0a.71.71,0,0,0,.18-.08,1,1,0,0,0,.19-.14,1.46,1.46,0,0,0,.19-.26c.13-.25.27-.55.42-.92s.3-.73.46-1.1Zm.67,3.15c-.12-.35-.24-.7-.37-1s-.26-.7-.41-1.06c-.05.13-.11.29-.19.46l-.23.56-.41,1.08h1.61Z"/><path class="cls-2" d="M158.08,8l0,1.06c0,.35,0,.72,0,1.1s0,.79,0,1.22,0,.89,0,1.39v.16s0,0,0,0a0,0,0,0,1-.06,0,1.12,1.12,0,0,1-.14-.15l-.45-.5-.51-.56-.61-.64-.75-.76-1.17-1.19c-.34-.35-.6-.62-.8-.79,0,.17,0,.41,0,.7s0,.61,0,.95,0,.7,0,1.07,0,.7,0,1a.76.76,0,0,0,.17.44.84.84,0,0,0,.57.22,0,0,0,0,1,.05.05s0,0-.05,0l-.56,0H153l-.39,0s-.05,0-.05,0a0,0,0,0,1,.05-.05.6.6,0,0,0,.35-.16.77.77,0,0,0,.14-.46c0-.25,0-.53,0-.83l0-.88c0-.29,0-.57,0-.84s0-.48,0-.67V8.11c0-.28,0-.56,0-.83V7.15a.07.07,0,0,1,0-.05s0,0,.05,0l.14.13q.51.57,1.08,1.17t1.26,1.29l1.09,1.1q.5.49.87.84V10c0-.58,0-1.2-.05-1.84a3.14,3.14,0,0,0,0-.4.44.44,0,0,0-.09-.25.59.59,0,0,0-.18-.13,1.7,1.7,0,0,0-.31-.06,0,0,0,0,1-.05,0s0-.06.05-.06h1.14l.38,0s.06,0,.05.06a0,0,0,0,1-.05,0,.43.43,0,0,0-.35.22A1.49,1.49,0,0,0,158.08,8Z"/><path class="cls-2" d="M160,12.31a2.84,2.84,0,0,1,0-.5,4,4,0,0,1,.08-.48.06.06,0,0,1,.06-.05,0,0,0,0,1,0,.05,1.79,1.79,0,0,0,.35,1.06,1.13,1.13,0,0,0,.92.39,1.31,1.31,0,0,0,.92-.31,1,1,0,0,0,.32-.77,1.26,1.26,0,0,0-.09-.49,1.36,1.36,0,0,0-.25-.39,2.89,2.89,0,0,0-.42-.32l-.56-.31a2.83,2.83,0,0,1-.47-.29,2,2,0,0,1-.4-.37,1.87,1.87,0,0,1-.27-.48,1.58,1.58,0,0,1-.09-.6,1.35,1.35,0,0,1,.45-1A1.72,1.72,0,0,1,161.74,7a3.63,3.63,0,0,1,.5,0l.35.09a.53.53,0,0,1,.25.17.5.5,0,0,1,.07.35c0,.07,0,.17,0,.31s0,.27-.05.37,0,.05,0,0a0,0,0,0,1-.05,0,1.58,1.58,0,0,0-.09-.42,1.33,1.33,0,0,0-.2-.35,1,1,0,0,0-.33-.24,1.28,1.28,0,0,0-1.22.15,1,1,0,0,0-.28.75,1.07,1.07,0,0,0,.29.79,2.51,2.51,0,0,0,.71.52,6.43,6.43,0,0,1,.73.43,2,2,0,0,1,.5.43,1.47,1.47,0,0,1,.28.48,1.84,1.84,0,0,1,.07.59,1.3,1.3,0,0,1-.15.63,1.43,1.43,0,0,1-.38.47,1.72,1.72,0,0,1-.57.3,2.35,2.35,0,0,1-.71.11,2.62,2.62,0,0,1-.61-.06,2.72,2.72,0,0,1-.43-.14.63.63,0,0,1-.26-.2A.69.69,0,0,1,160,12.31Z"/><path class="cls-2" d="M165.66,10.17v.35c0,.15,0,.31,0,.48s0,.33,0,.48,0,.27,0,.35a2.91,2.91,0,0,0,0,.47.71.71,0,0,0,.09.27.31.31,0,0,0,.19.13,1.22,1.22,0,0,0,.33.06,0,0,0,0,1,0,.1l-.51,0h-.92l-.49,0s0,0,0,0a0,0,0,0,1,0-.05l.28-.06a.3.3,0,0,0,.17-.12.61.61,0,0,0,.1-.27,4.59,4.59,0,0,0,0-.48v-.35c0-.15,0-.31,0-.47s0-.33,0-.48v-.9c0-.2,0-.38,0-.55s0-.33,0-.48V8.27a3.45,3.45,0,0,0-.05-.55.75.75,0,0,0-.1-.28.32.32,0,0,0-.18-.13l-.26,0a0,0,0,0,1,0,0s0-.06,0-.06h1.78s.05,0,.05,0a.06.06,0,0,1-.05.06.7.7,0,0,0-.24.06.28.28,0,0,0-.16.12.83.83,0,0,0-.09.29c0,.12,0,.3,0,.53,0,.07,0,.18,0,.33v1.57Z"/><path class="cls-2" d="M173.42,9.91a3.05,3.05,0,0,1-.24,1.22,3,3,0,0,1-.64,1,2.75,2.75,0,0,1-.95.64,3,3,0,0,1-1.2.24,3.89,3.89,0,0,1-1.21-.18,2.57,2.57,0,0,1-.94-.54,2.4,2.4,0,0,1-.63-.89,3.28,3.28,0,0,1-.27-1.23,3,3,0,0,1,.21-1.25,2.76,2.76,0,0,1,.65-1,3.18,3.18,0,0,1,1-.65,3.42,3.42,0,0,1,1.3-.23,3.08,3.08,0,0,1,1.24.24,2.76,2.76,0,0,1,1.47,1.56A3.26,3.26,0,0,1,173.42,9.91ZM170.18,7.3a2.15,2.15,0,0,0-.92.22,1.85,1.85,0,0,0-.65.56,2.17,2.17,0,0,0-.39.84,4.1,4.1,0,0,0-.13,1.08,3.59,3.59,0,0,0,.16,1.11,2.69,2.69,0,0,0,.47.87,2.19,2.19,0,0,0,.74.57,2.35,2.35,0,0,0,1,.2,2.3,2.3,0,0,0,.93-.18,2.19,2.19,0,0,0,.72-.51,2.34,2.34,0,0,0,.45-.77,2.8,2.8,0,0,0,.16-1,4.24,4.24,0,0,0-.15-1.11,2.77,2.77,0,0,0-.46-1,2.18,2.18,0,0,0-1.91-.92Z"/><path class="cls-2" d="M180,8c0,.35,0,.71,0,1.06s0,.72,0,1.1,0,.79,0,1.22v1.39a.58.58,0,0,1,0,.16.05.05,0,0,1,0,0,.06.06,0,0,1-.07,0l-.13-.15-.46-.5c-.15-.18-.32-.36-.5-.56l-.61-.64-.75-.76L176.2,9.15c-.34-.35-.61-.62-.8-.79v.7c0,.29,0,.61,0,.95s0,.7,0,1.07,0,.7,0,1a.75.75,0,0,0,.16.44.84.84,0,0,0,.57.22.06.06,0,0,1,.06.05s0,0-.06,0l-.56,0h-.74l-.39,0s-.06,0-.05,0a0,0,0,0,1,.05-.05.6.6,0,0,0,.35-.16.78.78,0,0,0,.13-.46c0-.25,0-.53.05-.83l0-.88c0-.29,0-.57,0-.84V8.11c0-.28,0-.56,0-.83,0-.06,0-.11,0-.13a0,0,0,0,1,0-.05s0,0,.06,0l.13.13,1.09,1.17c.37.4.79.83,1.25,1.29l1.1,1.1c.32.33.61.61.86.84V10c0-.58,0-1.2,0-1.84,0-.17,0-.3,0-.4a.66.66,0,0,0-.09-.25.53.53,0,0,0-.19-.13,1.57,1.57,0,0,0-.3-.06s0,0,0,0,0-.06,0-.06h1.13l.39,0s.05,0,.05.06a0,0,0,0,1-.05,0,.45.45,0,0,0-.36.22A1.51,1.51,0,0,0,180,8Z"/><path class="cls-2" d="M181.88,12.31a2.84,2.84,0,0,1,0-.5,4.2,4.2,0,0,1,.07-.48.06.06,0,0,1,.06-.05s0,0,0,.05a1.86,1.86,0,0,0,.36,1.06,1.12,1.12,0,0,0,.92.39,1.27,1.27,0,0,0,.91-.31,1,1,0,0,0,.33-.77,1.26,1.26,0,0,0-.09-.49,1.21,1.21,0,0,0-.26-.39,2.1,2.1,0,0,0-.42-.32l-.55-.31a2.92,2.92,0,0,1-.48-.29,1.71,1.71,0,0,1-.39-.37,1.87,1.87,0,0,1-.27-.48,1.41,1.41,0,0,1-.09-.6,1.35,1.35,0,0,1,.45-1A1.72,1.72,0,0,1,183.67,7a3.73,3.73,0,0,1,.5,0l.34.09a.56.56,0,0,1,.26.17.56.56,0,0,1,.06.35c0,.07,0,.17,0,.31s0,.27-.05.37,0,.05-.05,0,0,0,0,0a1.58,1.58,0,0,0-.09-.42,1.13,1.13,0,0,0-.21-.35,1,1,0,0,0-.33-.24,1.08,1.08,0,0,0-.46-.09,1.13,1.13,0,0,0-.75.24,1,1,0,0,0-.29.75,1.08,1.08,0,0,0,.3.79,2.37,2.37,0,0,0,.71.52c.28.15.52.29.73.43a2.39,2.39,0,0,1,.5.43,1.29,1.29,0,0,1,.27.48,1.83,1.83,0,0,1,.08.59,1.58,1.58,0,0,1-.15.63,1.74,1.74,0,0,1-.38.47,1.72,1.72,0,0,1-.57.3,2.36,2.36,0,0,1-.72.11,2.68,2.68,0,0,1-.61-.06,2.28,2.28,0,0,1-.42-.14.57.57,0,0,1-.26-.2A.5.5,0,0,1,181.88,12.31Z"/></svg>