<svg id="Layer_1" data-name="Layer 1" xmlns="http://www.w3.org/2000/svg" viewBox="0 0 85 65"><defs><style>.cls-1{fill:#673065;}.cls-2{fill:#5d5e5e;}.cls-3{fill:#6d2158;}</style></defs><title>krabey-footer</title><polygon class="cls-1" points="33.7 3.59 33.74 3.62 33.74 3.56 33.7 3.59"/><path class="cls-2" d="M1.35,63.42c0,.53.1.54.35.58.05,0,.06.06,0,.06l-.56,0-.59,0a0,0,0,0,1,0-.06c.33,0,.35-.1.37-.58,0-.2,0-.86,0-1.06,0-.45,0-1,0-1.24,0-.51-.07-.56-.38-.6-.05,0-.06-.07,0-.07l.6,0,.54,0c.05,0,0,.07,0,.07-.27,0-.32.11-.33.6,0,.31,0,.84,0,1.24C1.33,62.56,1.34,63.22,1.35,63.42Zm1.37-3c-.06,0-.06.05,0,.06s.11.1,0,.19c-.23.26-.32.37-.56.63l-.79.89a.47.47,0,0,1,.11.1l.87,1c.6.61.94.79,1.43.79a1.87,1.87,0,0,0,.39,0s0,0,0,0A1.36,1.36,0,0,1,3.84,64a3,3,0,0,1-.93-.7c-.31-.32-.87-.92-1.11-1.19.11-.14.44-.48.65-.7a8.29,8.29,0,0,1,.64-.62,1,1,0,0,1,.57-.22,0,0,0,1,0,0-.07l-.43,0Z"/><path class="cls-2" d="M5.13,62.15c0-.43,0-.72,0-1.17s-.11-.43-.41-.46a0,0,0,1,1,0-.07l.57,0c.18,0,.48,0,.72,0,1,0,1.15.6,1.15.95a1.08,1.08,0,0,1-.65,1,9.21,9.21,0,0,0,.56.77,4.22,4.22,0,0,0,.65.7.9.9,0,0,0,.42.14s0,.06,0,.06a2.58,2.58,0,0,1-.55,0c-.41-.07-.56-.24-1-.9-.17-.26-.31-.46-.42-.65a3,3,0,0,1-.6,0c0,.39,0,.71,0,.88,0,.55.07.59.41.63,0,0,.06.06,0,.06l-.6,0-.6,0s0-.06,0-.06c.3,0,.37-.06.38-.62S5.13,62.56,5.13,62.15ZM6,60.61a2.33,2.33,0,0,0-.45,0c0,.35,0,.66,0,1.7a2.34,2.34,0,0,0,.71,0c.37,0,.52-.41.52-.78S6.52,60.65,6,60.61Z"/><path class="cls-2" d="M10.13,60.49c0-.09,0-.1.07-.1s0,0,.06.1c.17.48.72,2,1.16,3.08.13.33.23.39.5.43,0,0,.05.06,0,.06l-.63,0-.51,0s0-.06,0-.06c.22,0,.26-.09.18-.35s-.21-.65-.34-1H9.48c-.09.24-.26.67-.34,1s.06.34.25.37a0,0,0,0,1,0,.06l-.53,0-.53,0c-.05,0,0-.06,0-.06a.54.54,0,0,0,.46-.33c.17-.31.37-.81.56-1.28Zm-.06.66-.27.65-.26.68h1C10.41,62,10.25,61.62,10.07,61.15Z"/><path class="cls-2" d="M13,61.15c0-.46,0-.61-.43-.63,0,0,0-.07,0-.07l.56,0c.22,0,.44,0,.69,0,.68,0,1,.37,1,.79a.88.88,0,0,1-.62.85c.66.11,1,.48,1,1,0,.67-.53,1-1.19,1-.27,0-.61,0-.79,0l-.54,0c-.05,0,0-.06,0-.06.33,0,.36-.14.38-.63,0-.28,0-.81,0-1C13,62,13,61.57,13,61.15Zm.65-.56c-.23,0-.23,0-.23.08V62.1h.28a.92.92,0,0,0,.33,0,.62.62,0,0,0,.35-.6A.73.73,0,0,0,13.67,60.59Zm0,1.65h-.26v1c0,.17,0,.37,0,.47a.18.18,0,0,0,.1.19,1,1,0,0,0,.44.07.7.7,0,0,0,.75-.74A.92.92,0,0,0,13.7,62.24Z"/><path class="cls-2" d="M17.07,63.5c0,.35.08.36.38.37h.49c.49,0,.58-.32.65-.69,0,0,.07,0,.07,0a5,5,0,0,1,0,.71c0,.13-.12.18-.34.18s-.82,0-1.37,0l-.66,0a0,0,0,0,1,0-.06c.31,0,.37-.09.38-.59s0-.81,0-1.23,0-.66,0-1,0-.59-.4-.63c0,0,0-.07,0-.07l.68,0,1.22,0c.17,0,.26,0,.25.15s0,.36-.06.56c0,0-.08,0-.07,0,0-.29-.1-.49-.4-.51s-.47,0-.8,0v1.46c.24,0,.61,0,1,0,.17,0,.16-.06.2-.06s0,0,0,.15,0,.29,0,.35-.07,0-.07,0c0-.23-.15-.23-.39-.24h-.65C17.05,62.56,17.06,63.13,17.07,63.5Z"/><path class="cls-2" d="M23.43,60.62a.4.4,0,0,0-.2,0,1.43,1.43,0,0,0-1,.72,3.37,3.37,0,0,0-.71,1.76v.41c0,.52.08.49.4.53.05,0,.05.06,0,.06l-.6,0-.59,0s0-.06,0-.06c.25,0,.36-.06.36-.53v-.39a3.42,3.42,0,0,0-.53-1.56c-.42-.64-.76-.89-1.15-.91a1.19,1.19,0,0,0-.29,0s-.05,0,0,0a.78.78,0,0,1,.57-.18,1.56,1.56,0,0,1,1.25.88,4,4,0,0,1,.5,1.25A3.26,3.26,0,0,1,22,61.17a1.37,1.37,0,0,1,1.13-.74.41.41,0,0,1,.35.14S23.45,60.63,23.43,60.62Z"/><path class="cls-2" d="M26.71,63.41c0,.49.07.56.41.59.05,0,.05.06,0,.06l-.61,0-.6,0c-.05,0,0-.06,0-.06.28,0,.36-.08.37-.59,0-.2,0-.85,0-1,0-.45,0-1,0-1.2,0-.61-.11-.61-.37-.64,0,0-.05-.07,0-.07l.6,0,.52,0s0,.06,0,.07c-.25,0-.32,0-.33.64v1.2C26.7,62.56,26.71,63.21,26.71,63.41Z"/><path class="cls-2" d="M28.42,63.09a0,0,0,0,1,.06,0c0,.56.31.92.81.92a.69.69,0,0,0,.78-.68c0-.48-.3-.69-.83-1a1.19,1.19,0,0,1-.78-1.1.92.92,0,0,1,1-.9,1.54,1.54,0,0,1,.53.08.28.28,0,0,1,.21.33c0,.08,0,.31-.06.43s-.06,0-.06,0a.69.69,0,0,0-.69-.7.59.59,0,0,0-.66.63,1,1,0,0,0,.64.83c.72.37,1,.67,1,1.23a1,1,0,0,1-1.15,1A1.72,1.72,0,0,1,28.6,64a.41.41,0,0,1-.23-.32A2.11,2.11,0,0,1,28.42,63.09Z"/><path class="cls-2" d="M34,63.18s.07,0,.07,0c0,.22,0,.57,0,.71s-.12.18-.34.18-.67,0-1.41,0l-.63,0c-.06,0,0-.06,0-.06.31,0,.35-.11.36-.59s0-.85,0-1c0-.45,0-1,0-1.24,0-.47,0-.56-.36-.6-.05,0-.05-.07,0-.07l.58,0,.53,0c.06,0,.05.06,0,.07-.25,0-.32.11-.32.58v1.13c0,.41,0,1,0,1.24s0,.39.36.4h.53C33.77,63.85,33.88,63.55,34,63.18Z"/><path class="cls-2" d="M36.37,60.49c0-.09,0-.1.07-.1s0,0,.06.1c.16.48.71,2,1.16,3.08.13.33.23.39.5.43a0,0,0,0,1,0,.06l-.63,0-.51,0c-.05,0,0-.06,0-.06.22,0,.26-.09.18-.35s-.22-.65-.35-1H35.72c-.09.24-.26.67-.35,1s.06.34.25.37.05.06,0,.06l-.52,0-.53,0s0-.06,0-.06a.55.55,0,0,0,.46-.33c.17-.31.37-.81.56-1.28Zm-.07.66L36,61.8l-.26.68h1C36.65,62,36.49,61.62,36.3,61.15Z"/><path class="cls-2" d="M42.33,64c0,.1,0,.12,0,.12s0,0-.13-.09c-.37-.43-.76-.85-1.47-1.57-.56-.56-1-1-1.25-1.25,0,.45,0,1.55.05,2.37,0,.23.11.38.47.42,0,0,0,.06,0,.06l-.62,0-.46,0a0,0,0,0,1,0-.06c.21,0,.29-.1.31-.39.05-.65.06-1.57.06-2,0-.31,0-.69,0-1,0-.09,0-.11,0-.12s0,0,.12.1c.43.47.9,1,1.48,1.55s.93.94,1.24,1.23c0-.68,0-1.43,0-2.24,0-.42-.07-.49-.39-.53,0,0,0-.07,0-.07l.53,0,.43,0s0,.07,0,.07c-.22,0-.28.19-.29.46C42.36,61.87,42.33,62.73,42.33,64Z"/><path class="cls-2" d="M45.54,64.1c-.47,0-.84-.06-1-.06l-.68,0c-.05,0,0-.06,0-.06.47,0,.46-.18.48-.78,0-.2,0-.84,0-1,0-.45,0-.91,0-1.11,0-.42-.12-.52-.43-.55,0,0,0-.07,0-.07l.61,0,1,0c1.3,0,2,.67,2,1.8A1.82,1.82,0,0,1,45.54,64.1Zm0-3.48a4.6,4.6,0,0,0-.78,0v1.86c0,.59,0,1,0,1.17s0,.15.11.2a2.32,2.32,0,0,0,.7.09,1.47,1.47,0,0,0,1.51-1.65A1.55,1.55,0,0,0,45.49,60.62Z"/><path class="cls-2" d="M48.78,63.53c.16,0,.28.12.28.33a.92.92,0,0,1-.65.85s-.06,0,0,0a.87.87,0,0,0,.41-.59c-.17,0-.3-.07-.3-.25A.28.28,0,0,1,48.78,63.53Z"/><path class="cls-2" d="M55,60.52a.31.31,0,0,1,.23.34c0,.18,0,.39,0,.6,0,0-.08,0-.08,0a1,1,0,0,0-1.15-.94c-.95,0-1.55.58-1.52,1.72A1.56,1.56,0,0,0,54,64a1,1,0,0,0,1.11-.91,0,0,0,1,1,.08,0v.4c0,.42-.09.45-.29.53a2.21,2.21,0,0,1-.92.15,1.9,1.9,0,1,1-.06-3.78A3.07,3.07,0,0,1,55,60.52Z"/><path class="cls-2" d="M57.69,60.49c0-.09.05-.1.07-.1s0,0,.07.1c.16.48.71,2,1.15,3.08.14.33.23.39.5.43,0,0,.05.06,0,.06l-.63,0-.51,0a0,0,0,0,1,0-.06c.22,0,.26-.09.18-.35s-.21-.65-.34-1H57c-.09.24-.25.67-.34,1s.06.34.25.37a0,0,0,1,1,0,.06l-.52,0-.54,0s0-.06,0-.06a.55.55,0,0,0,.47-.33c.16-.31.36-.81.55-1.28Zm-.06.66-.27.65-.26.68h1C58,62,57.81,61.62,57.63,61.15Z"/><path class="cls-2" d="M62.36,64s0,.07,0,.07,0,0,0-.06c-.2-.47-1.13-2.2-1.39-2.63-.05.64-.11,1.48-.15,2.16,0,.4.11.41.4.46,0,0,0,.06,0,.06l-.56,0-.49,0s0-.06,0-.06c.27,0,.34-.09.38-.46.13-1,.24-2,.32-3q0-.12.06-.12s0,.06.08.12c.17.41,1,1.94,1.5,2.83.1-.19.32-.62.57-1.13l.84-1.73c0-.06,0-.1.08-.1s0,0,0,.12c.06.78.26,2.49.37,3.11,0,.29.1.35.34.39,0,0,0,.06,0,.06l-.47,0-.43,0c-.07,0-.06-.06,0-.06s.15,0,.13-.28c0-.51-.19-1.82-.26-2.36-.09.2-.3.62-.51,1C62.81,63,62.58,63.45,62.36,64Z"/><path class="cls-2" d="M66.09,61.15c0-.46,0-.61-.43-.63,0,0,0-.07,0-.07l.56,0c.22,0,.44,0,.69,0,.68,0,1,.37,1,.79a.88.88,0,0,1-.62.85c.66.11.95.48,1,1,0,.67-.53,1-1.19,1-.27,0-.61,0-.79,0l-.54,0s0-.06,0-.06c.33,0,.36-.14.38-.63,0-.28,0-.81,0-1C66.1,62,66.1,61.57,66.09,61.15Zm.65-.56c-.23,0-.23,0-.23.08V62.1h.28a.92.92,0,0,0,.33,0,.62.62,0,0,0,.35-.6A.73.73,0,0,0,66.74,60.59Zm0,1.65h-.26v1c0,.17,0,.37,0,.47a.18.18,0,0,0,.1.19,1,1,0,0,0,.44.07.7.7,0,0,0,.75-.74A.92.92,0,0,0,66.77,62.24Z"/><path class="cls-2" d="M71.21,64.14a1.75,1.75,0,0,1-1.93-1.8,1.88,1.88,0,0,1,2-2,1.77,1.77,0,0,1,1.83,1.82A1.89,1.89,0,0,1,71.21,64.14Zm-1.46-1.89A1.54,1.54,0,0,0,71.24,64a1.41,1.41,0,0,0,1.43-1.54c0-1-.49-1.94-1.6-1.91C70.18,60.56,69.75,61.26,69.75,62.25Z"/><path class="cls-2" d="M75.82,64.1c-.46,0-.83-.06-1-.06l-.68,0s0-.06,0-.06c.46,0,.46-.18.47-.78,0-.2,0-.84,0-1,0-.45,0-.91,0-1.11,0-.42-.11-.52-.42-.55,0,0,0-.07,0-.07l.61,0,1,0c1.3,0,2,.67,2,1.8A1.82,1.82,0,0,1,75.82,64.1Zm0-3.48a4.66,4.66,0,0,0-.78,0v1.86c0,.59,0,1,0,1.17s0,.15.12.2a2.32,2.32,0,0,0,.7.09,1.46,1.46,0,0,0,1.5-1.65A1.54,1.54,0,0,0,75.77,60.62Z"/><path class="cls-2" d="M79.68,63.41c0,.49.06.56.41.59a0,0,0,0,1,0,.06l-.62,0-.6,0a0,0,0,0,1,0-.06c.29,0,.36-.08.37-.59,0-.2,0-.85,0-1,0-.45,0-1,0-1.2,0-.61-.11-.61-.37-.64,0,0-.05-.07,0-.07l.6,0,.53,0s0,.06,0,.07c-.25,0-.32,0-.33.64,0,.17,0,.8,0,1.2C79.66,62.56,79.67,63.21,79.68,63.41Z"/><path class="cls-2" d="M82.68,60.49c0-.09,0-.1.07-.1s0,0,.06.1c.16.48.72,2,1.16,3.08.13.33.23.39.5.43a0,0,0,0,1,0,.06l-.63,0-.51,0s0-.06,0-.06c.22,0,.26-.09.18-.35s-.22-.65-.34-1H82c-.09.24-.26.67-.34,1s0,.34.24.37,0,.06,0,.06l-.52,0-.53,0s0-.06,0-.06a.54.54,0,0,0,.46-.33c.17-.31.37-.81.56-1.28Zm-.07.66-.26.65-.26.68h1C83,62,82.8,61.62,82.61,61.15Z"/><path class="cls-2" d="M5.39,49.54c0-.09.13-.08.13,0,.06,1.17.64,1.9,1.68,1.9A1.44,1.44,0,0,0,8.83,50c0-1-.64-1.42-1.74-2a2.49,2.49,0,0,1-1.62-2.3,1.92,1.92,0,0,1,2.16-1.85A3.75,3.75,0,0,1,8.74,44a.58.58,0,0,1,.43.69c0,.17-.09.64-.11.89a.07.07,0,0,1-.14,0,1.42,1.42,0,0,0-1.43-1.44,1.23,1.23,0,0,0-1.37,1.3,2,2,0,0,0,1.33,1.73c1.5.76,2.11,1.4,2.08,2.54a2.14,2.14,0,0,1-2.39,2,3.4,3.4,0,0,1-1.37-.25.81.81,0,0,1-.49-.65A4.2,4.2,0,0,1,5.39,49.54Z"/><path class="cls-2" d="M14.51,50.2c0,1,.14,1.16.85,1.22a.07.07,0,1,1,0,.13l-1.28,0-1.24,0a.07.07,0,1,1,0-.13c.59-.08.74-.16.77-1.22,0-.41,0-1.76,0-2.17,0-.94,0-2.1,0-2.51,0-1.26-.23-1.26-.77-1.33a.07.07,0,1,1,0-.14c.32,0,.89,0,1.24,0l1.1,0c.09,0,.08.13,0,.14-.52.09-.67.11-.69,1.33,0,.36,0,1.66,0,2.5C14.48,48.44,14.5,49.79,14.51,50.2Z"/><path class="cls-2" d="M21.29,48.18c-.49.75-1.13,1.86-1.46,2.49s-.28.68.36.75c.08,0,.11.13,0,.13l-1.08,0-1.13,0a.07.07,0,1,1,0-.13,1.33,1.33,0,0,0,1.12-.7c.62-.86,1.35-2,2-2.91-.63-1-1.34-2.15-1.87-3-.34-.5-.5-.62-1-.67-.08,0-.11-.14,0-.14.37,0,.83,0,1.13,0s.8,0,1.24,0c.11,0,.08.14,0,.14-.55.06-.55.24-.34.63.37.68.82,1.48,1.31,2.31.45-.72.87-1.46,1.21-2.13s.27-.74-.17-.81c-.08,0-.11-.14,0-.14l1,0,.91,0a.07.07,0,0,1,0,.14c-.35.05-.58.07-1,.7-.64.92-1.27,1.83-1.72,2.58.6,1,1.54,2.48,2.11,3.27.35.5.58.64,1,.68a.07.07,0,0,1,0,.13l-1.14,0-1.15,0a.07.07,0,0,1,0-.13c.48-.05.46-.24.25-.63C22.54,50.23,21.84,49.13,21.29,48.18Z"/><path class="cls-2" d="M32.54,49.54c0-.09.13-.08.13,0,.06,1.17.64,1.9,1.68,1.9A1.44,1.44,0,0,0,36,50c0-1-.64-1.42-1.74-2a2.49,2.49,0,0,1-1.62-2.3,1.92,1.92,0,0,1,2.16-1.85A3.89,3.89,0,0,1,35.9,44a.57.57,0,0,1,.42.69c0,.17-.09.64-.11.89a.07.07,0,0,1-.13,0,1.44,1.44,0,0,0-1.44-1.44,1.22,1.22,0,0,0-1.36,1.3,2,2,0,0,0,1.32,1.73c1.5.76,2.12,1.4,2.08,2.54a2.14,2.14,0,0,1-2.39,2,3.35,3.35,0,0,1-1.36-.25.8.8,0,0,1-.5-.65A4.2,4.2,0,0,1,32.54,49.54Z"/><path class="cls-2" d="M41.64,50.38c0,.73.17.76.8.77a8.3,8.3,0,0,0,1,0c1,0,1.21-.66,1.36-1.42,0-.09.14-.1.14,0a10.8,10.8,0,0,1-.06,1.47c0,.27-.25.37-.71.37s-1.71,0-2.85,0l-1.37,0a.07.07,0,0,1,0-.13c.64-.07.78-.18.8-1.22,0-.84,0-1.69,0-2.55s0-1.39,0-2.15c0-1,0-1.22-.83-1.31a.07.07,0,1,1,0-.14c.4,0,1,0,1.41,0,.76,0,1.9,0,2.54,0,.35,0,.54,0,.51.31s-.07.75-.13,1.16c0,.08-.16.08-.14,0,0-.61-.21-1-.82-1.05a15,15,0,0,0-1.67,0c0,1,0,1.92,0,3,.49,0,1.28,0,2,0,.35,0,.34-.14.43-.12s0,.06,0,.3a3.76,3.76,0,0,1-.12.73c0,.09-.14.09-.14,0,0-.48-.3-.48-.8-.5-.22,0-1,0-1.36,0C41.61,48.44,41.62,49.62,41.64,50.38Z"/><path class="cls-2" d="M55.28,51.42c0,.22,0,.25,0,.27s-.1,0-.27-.21c-.77-.88-1.58-1.76-3-3.25-1.16-1.17-2.09-2.13-2.6-2.61,0,.93,0,3.24.11,4.93,0,.48.23.8,1,.87.08,0,.11.13,0,.13l-1.28,0-1,0a.07.07,0,0,1,0-.13c.44-.08.59-.19.64-.81.1-1.34.12-3.26.12-4.25,0-.65,0-1.45,0-2.15,0-.18,0-.23,0-.24s.08,0,.25.19c.9,1,1.87,2,3.08,3.24,1.05,1.05,1.93,2,2.59,2.56,0-1.42,0-3-.06-4.66,0-.88-.15-1-.82-1.11a.07.07,0,1,1,0-.14l1.09,0,.91,0c.1,0,.07.14,0,.14-.46.07-.58.4-.6,1C55.33,47,55.28,48.78,55.28,51.42Z"/><path class="cls-2" d="M59.67,49.54c0-.09.13-.08.13,0,.06,1.17.64,1.9,1.68,1.9A1.44,1.44,0,0,0,63.11,50c0-1-.64-1.42-1.74-2a2.49,2.49,0,0,1-1.62-2.3,1.92,1.92,0,0,1,2.16-1.85A3.75,3.75,0,0,1,63,44a.57.57,0,0,1,.43.69c0,.17-.09.64-.11.89a.07.07,0,0,1-.14,0,1.42,1.42,0,0,0-1.43-1.44,1.23,1.23,0,0,0-1.37,1.3,2,2,0,0,0,1.33,1.73c1.5.76,2.11,1.4,2.08,2.54a2.14,2.14,0,0,1-2.39,2,3.4,3.4,0,0,1-1.37-.25.81.81,0,0,1-.49-.65A4.2,4.2,0,0,1,59.67,49.54Z"/><path class="cls-2" d="M68.77,50.38c0,.73.17.76.8.77a8.32,8.32,0,0,0,1,0c1,0,1.21-.66,1.35-1.42,0-.09.15-.1.15,0A10.8,10.8,0,0,1,72,51.2c0,.27-.26.37-.71.37-.61,0-1.71,0-2.85,0l-1.37,0a.07.07,0,0,1,0-.13c.64-.07.77-.18.8-1.22,0-.84,0-1.69,0-2.55s0-1.39,0-2.15c0-1,0-1.22-.83-1.31a.07.07,0,1,1,0-.14c.39,0,1,0,1.41,0,.76,0,1.89,0,2.53,0,.35,0,.55,0,.52.31s-.07.75-.13,1.16c0,.08-.16.08-.14,0,0-.61-.21-1-.83-1.05a14.84,14.84,0,0,0-1.66,0c0,1,0,1.92,0,3,.49,0,1.28,0,2,0,.35,0,.34-.14.42-.12s0,.06,0,.3a3.76,3.76,0,0,1-.12.73c0,.09-.14.09-.14,0,0-.48-.3-.48-.8-.5-.22,0-1,0-1.36,0C68.73,48.44,68.75,49.62,68.77,50.38Z"/><path class="cls-2" d="M75.49,49.54c0-.09.14-.08.14,0,.06,1.17.64,1.9,1.68,1.9A1.44,1.44,0,0,0,78.94,50c0-1-.64-1.42-1.74-2a2.48,2.48,0,0,1-1.62-2.3,1.91,1.91,0,0,1,2.16-1.85,3.81,3.81,0,0,1,1.11.15.56.56,0,0,1,.42.69c0,.17-.08.64-.1.89a.07.07,0,0,1-.14,0,1.42,1.42,0,0,0-1.43-1.44,1.23,1.23,0,0,0-1.37,1.3,2,2,0,0,0,1.33,1.73c1.5.76,2.11,1.4,2.08,2.54a2.14,2.14,0,0,1-2.39,2,3.4,3.4,0,0,1-1.37-.25.81.81,0,0,1-.49-.65A4.54,4.54,0,0,1,75.49,49.54Z"/><path class="cls-3" d="M64.31,34s0,.05.06,0S64.34,34,64.31,34Z"/><polygon class="cls-3" points="63.66 34.39 63.77 34.37 63.74 34.36 63.66 34.39"/><path class="cls-3" d="M63.51,34.51c-.09.08-.27.08-.28.17s.24-.11.35-.18h-.07Z"/><path class="cls-3" d="M63,35l0,0h0C62.92,35,63,34.93,63,35Z"/><path class="cls-3" d="M63.05,34.94s.07,0,0,0Z"/><path class="cls-3" d="M62.8,35.09s0,0,.05-.06h-.09S62.71,35.11,62.8,35.09Z"/><path class="cls-3" d="M62.71,35h0S62.71,35,62.71,35Z"/><path class="cls-3" d="M62.76,35s0,0,0,0h0Z"/><path class="cls-3" d="M62.86,34.92c.09,0,0,0,0,0C63,34.92,63,34.86,62.86,34.92Z"/><path class="cls-3" d="M63.21,34.58l0,.05s.07-.05.1-.05Z"/><path class="cls-3" d="M62.25,35.23s.06,0,.09-.06h-.07S62.24,35.22,62.25,35.23Z"/><path class="cls-3" d="M62.17,35.16h.1S62.25,35.14,62.17,35.16Z"/><path class="cls-3" d="M62.63,35h0Z"/><path class="cls-3" d="M61.84,35.29l.11,0-.07,0Z"/><path class="cls-3" d="M61.64,35.32a.27.27,0,0,1-.19,0,.48.48,0,0,0,.18,0S61.68,35.35,61.64,35.32Z"/><path class="cls-3" d="M62,35.25s.06,0,.06,0h0Z"/><polygon class="cls-3" points="61.9 35.22 61.98 35.2 61.98 35.2 61.9 35.22"/><path class="cls-3" d="M62.32,35c-.09.06,0,.06.09.07C62.31,35,62.37,35,62.32,35Z"/><path class="cls-3" d="M62.15,35.1l-.09,0h.11S62.15,35.12,62.15,35.1Z"/><polygon class="cls-3" points="62.02 35.14 62.06 35.13 62.01 35.13 62.02 35.14"/><path class="cls-3" d="M61.56,35.23l-.17,0a.77.77,0,0,1,.15,0C61.6,35.27,61.57,35.25,61.56,35.23Z"/><polygon class="cls-3" points="60.87 35.24 60.87 35.23 60.86 35.24 60.87 35.24"/><path class="cls-3" d="M61.57,35.22h.1A.16.16,0,0,0,61.57,35.22Z"/><path class="cls-3" d="M61.29,35.28l-.08,0S61.27,35.29,61.29,35.28Z"/><path class="cls-3" d="M61.74,35.24h-.07l.06,0Z"/><path class="cls-3" d="M61,35.29a.56.56,0,0,1,.15,0h-.23S60.89,35.27,61,35.29Z"/><path class="cls-3" d="M61.29,35.27h0s-.06,0,0,0H61.1l.19,0Z"/><path class="cls-3" d="M61.3,35.27s0,0,0,0h0l.1,0h-.11c.14,0-.1-.06.09-.06-.07,0,0,0-.16,0s0,.07.07.11,0,0,0,0Z"/><path class="cls-3" d="M62.2,34.93h0S62.19,34.93,62.2,34.93Z"/><path class="cls-3" d="M62.13,35a.42.42,0,0,0-.07.13s.08-.08.15-.11h0c.08,0,0,0,0,0s0,0,0,0A.09.09,0,0,1,62.13,35Z"/><path class="cls-3" d="M61.56,35.11h.15s0,0-.08,0v0Z"/><path class="cls-3" d="M60.77,35.23a.36.36,0,0,0,.09.08l0-.05Z"/><polygon class="cls-3" points="60.58 35.23 60.63 35.27 60.63 35.23 60.58 35.23"/><path class="cls-3" d="M56.93,31.78s0,.07.07.13a1,1,0,0,1,0-.12Z"/><path class="cls-3" d="M58.51,34.32l.14.07S58.58,34.34,58.51,34.32Z"/><path class="cls-3" d="M60.09,26.76s0,0,0,0S60.06,26.76,60.09,26.76Z"/><path class="cls-3" d="M58.51,34.32l-.1-.1h0A.2.2,0,0,0,58.51,34.32Z"/><path class="cls-3" d="M59.79,35Z"/><path class="cls-3" d="M59.89,35.07h0S59.89,35.08,59.89,35.07Z"/><path class="cls-3" d="M59.73,35l.06,0h0Z"/><path class="cls-3" d="M57.27,32.65l0,.05S57.29,32.67,57.27,32.65Z"/><path class="cls-3" d="M60.23,35.17h-.09l.1,0S60.23,35.17,60.23,35.17Z"/><path class="cls-3" d="M61.13,35v0h0C61,35,61.07,35,61.13,35Z"/><path class="cls-3" d="M60.48,35.06h0c-.06,0-.12,0-.13,0S60.49,35.12,60.48,35.06Z"/><path class="cls-3" d="M60.57,35.08h-.06S60.57,35.1,60.57,35.08Z"/><path class="cls-3" d="M59.69,35s0,0,0,0S59.7,35.07,59.69,35Z"/><polygon class="cls-3" points="60.38 34.93 60.41 34.98 60.44 34.94 60.38 34.93"/><path class="cls-3" d="M60,34.86l-.1,0s.06,0,.12,0S60,34.87,60,34.86Z"/><path class="cls-3" d="M60.06,34.88a.13.13,0,0,0,.08,0Z"/><path class="cls-3" d="M58.85,34.28l.08.07s0,0,0-.05S58.85,34.26,58.85,34.28Z"/><polygon class="cls-3" points="64.46 33.89 64.51 33.81 64.48 33.82 64.46 33.89"/><path class="cls-3" d="M64.33,33.88s0,0,0,.06h.08Z"/><path class="cls-3" d="M51,13.52s0,0,0,0S51,13.53,51,13.52Z"/><polygon class="cls-3" points="51.73 13.72 51.65 13.66 51.65 13.69 51.73 13.72"/><path class="cls-3" d="M51.93,13.76c.11,0,.24.12.31.07a3.38,3.38,0,0,1-.37-.13l0,.07Z"/><path class="cls-3" d="M52.61,13.8l-.06,0h0C52.67,13.85,52.58,13.82,52.61,13.8Z"/><path class="cls-3" d="M52.55,13.78c.05,0-.06,0,0,0Z"/><path class="cls-3" d="M52.83,13.86s0,0-.07,0l.06.06C52.88,13.92,52.91,13.91,52.83,13.86Z"/><path class="cls-3" d="M52.88,14s0,0,0,0Z"/><path class="cls-3" d="M52.8,14c0,.05,0,0,0,0l-.08-.06S52.8,14,52.8,14Z"/><path class="cls-3" d="M52.71,13.9c-.15-.08-.19,0,0,0C52.6,13.88,52.66,13.89,52.71,13.9Z"/><path class="cls-3" d="M52.14,13.88l0,0h.07S52.16,13.89,52.14,13.88Z"/><path class="cls-3" d="M53.32,14.15s-.07,0-.11,0l0,0S53.32,14.17,53.32,14.15Z"/><path class="cls-3" d="M53.32,14.26l-.06-.08S53.25,14.21,53.32,14.26Z"/><path class="cls-3" d="M52.88,14.09,52.74,14l.11.12Z"/><path class="cls-3" d="M53.65,14.41l0-.11,0,.06Z"/><path class="cls-3" d="M54,14.64a.65.65,0,0,0-.09-.16s-.07,0-.06,0A.31.31,0,0,1,54,14.64Z"/><path class="cls-3" d="M53.55,14.35s-.08,0-.09,0l0,0Z"/><polygon class="cls-3" points="53.56 14.41 53.49 14.37 53.49 14.37 53.56 14.41"/><path class="cls-3" d="M53.09,14.27c.12,0,0-.06,0-.11S53.07,14.23,53.09,14.27Z"/><path class="cls-3" d="M53.3,14.31l.08,0-.07-.09S53.3,14.3,53.3,14.31Z"/><polygon class="cls-3" points="53.42 14.38 53.38 14.36 53.41 14.4 53.42 14.38"/><path class="cls-3" d="M53.8,14.64l.14.11a.44.44,0,0,1-.09-.11C53.8,14.59,53.8,14.63,53.8,14.64Z"/><polygon class="cls-3" points="54.29 15.14 54.28 15.14 54.3 15.15 54.29 15.14"/><path class="cls-3" d="M53.79,14.64h0l-.07-.08S53.75,14.62,53.79,14.64Z"/><path class="cls-3" d="M54,14.81l.07,0S54.05,14.82,54,14.81Z"/><path class="cls-3" d="M53.7,14.51Z"/><path class="cls-3" d="M53.68,14.51l0,.06,0-.06Z"/><path class="cls-3" d="M54.27,15,54.13,15l0,0h0l.14.15S54.3,15.1,54.27,15Z"/><path class="cls-3" d="M54,14.81l-.08-.06.06.08c-.11-.08,0,.12-.09,0,0,.06,0,.06.07.15s0-.07,0-.13v0h0s0,.06,0,0l.12.14a.91.91,0,0,0-.11-.16Z"/><path class="cls-3" d="M53.14,14.4h0Z"/><path class="cls-3" d="M53.14,14.4s0,0,0,0,0,0,.05.05a.25.25,0,0,0,.13,0,.34.34,0,0,1-.17,0h0C53.08,14.32,53.12,14.37,53.14,14.4Z"/><path class="cls-3" d="M53.65,14.7h0l.09,0-.11-.11S53.58,14.64,53.65,14.7Z"/><path class="cls-3" d="M54.35,15.1l0,.05,0,.06Z"/><polygon class="cls-3" points="54.48 15.29 54.45 15.32 54.49 15.35 54.48 15.29"/><path class="cls-3" d="M54.55,20.38s0-.07,0-.15a.18.18,0,0,1-.06.1Z"/><path class="cls-3" d="M55.27,17.47s0-.09,0-.15S55.24,17.4,55.27,17.47Z"/><path class="cls-3" d="M48.74,21.61s0,0,0,0S48.77,21.63,48.74,21.61Z"/><path class="cls-3" d="M55.27,17.47a.65.65,0,0,1,0,.14.1.1,0,0,0,0,0A.2.2,0,0,0,55.27,17.47Z"/><path class="cls-3" d="M54.9,16.05s0,0,0,0Z"/><path class="cls-3" d="M54.85,16l0,0S54.86,16,54.85,16Z"/><path class="cls-3" d="M54.92,16.11l0-.06a0,0,0,0,1,0,0Z"/><path class="cls-3" d="M54.74,15.71l0-.09s0,0,0,0S54.71,15.67,54.74,15.71Z"/><path class="cls-3" d="M54.51,15.63c0-.07,0-.14-.08-.09h0C54.46,15.59,54.47,15.65,54.51,15.63Z"/><path class="cls-3" d="M54.38,15.46l0,.06S54.4,15.44,54.38,15.46Z"/><path class="cls-3" d="M55,16.15s0,0,0,.05S55,16.09,55,16.15Z"/><polygon class="cls-3" points="54.43 15.65 54.37 15.66 54.41 15.7 54.43 15.65"/><path class="cls-3" d="M54.59,16l.06.08s0-.06,0-.11S54.6,16,54.59,16Z"/><path class="cls-3" d="M54.6,16l0-.08A.16.16,0,0,0,54.6,16Z"/><path class="cls-3" d="M55,17.2s0,.07,0,.06a.49.49,0,0,0,0-.12S55,17.17,55,17.2Z"/><polygon class="cls-3" points="50.82 13.5 50.73 13.53 50.76 13.54 50.82 13.5"/><path class="cls-3" d="M51,13.59l0-.06,0,.07Z"/><path class="cls-3" d="M31.49,14.63s0-.05-.06,0S31.46,14.66,31.49,14.63Z"/><polygon class="cls-3" points="32.14 14.25 32.03 14.27 32.05 14.28 32.14 14.25"/><path class="cls-3" d="M32.29,14.14c.08-.09.26-.09.28-.18a4,4,0,0,1-.36.18l.07,0Z"/><path class="cls-3" d="M32.8,13.68l-.06,0s0,0,0,0C32.88,13.67,32.79,13.71,32.8,13.68Z"/><path class="cls-3" d="M32.74,13.7s-.06,0,0,0Z"/><path class="cls-3" d="M33,13.56s0,0-.06,0H33S33.09,13.54,33,13.56Z"/><path class="cls-3" d="M33.09,13.63h0S33.09,13.62,33.09,13.63Z"/><path class="cls-3" d="M33,13.64s0,0,.05,0H33C33,13.64,33.06,13.66,33,13.64Z"/><path class="cls-3" d="M32.94,13.73c-.09,0,0,0,0-.06C32.78,13.73,32.78,13.78,32.94,13.73Z"/><path class="cls-3" d="M32.59,14.06l0-.05s-.07.05-.1.05Z"/><path class="cls-3" d="M33.55,13.41s-.06.05-.09.07h.07S33.55,13.43,33.55,13.41Z"/><path class="cls-3" d="M33.62,13.49h-.09S33.54,13.51,33.62,13.49Z"/><path class="cls-3" d="M33.17,13.7h0Z"/><path class="cls-3" d="M34,13.35l-.11,0,.06,0Z"/><path class="cls-3" d="M34.16,13.32a.33.33,0,0,1,.19,0,.58.58,0,0,0-.18,0S34.11,13.3,34.16,13.32Z"/><path class="cls-3" d="M33.85,13.39a.14.14,0,0,0-.07.06h0Z"/><polygon class="cls-3" points="33.9 13.42 33.82 13.44 33.82 13.44 33.9 13.42"/><path class="cls-3" d="M33.47,13.66c.1-.07,0-.07-.08-.07C33.49,13.6,33.43,13.64,33.47,13.66Z"/><path class="cls-3" d="M33.64,13.54l.1,0h-.11S33.64,13.53,33.64,13.54Z"/><polygon class="cls-3" points="33.77 13.5 33.74 13.51 33.79 13.52 33.77 13.5"/><path class="cls-3" d="M34.23,13.41l.18,0a.36.36,0,0,1-.15,0C34.2,13.37,34.23,13.4,34.23,13.41Z"/><polygon class="cls-3" points="34.93 13.4 34.93 13.41 34.94 13.4 34.93 13.4"/><path class="cls-3" d="M34.22,13.42s0,0,0,0h-.1A.13.13,0,0,0,34.22,13.42Z"/><path class="cls-3" d="M34.51,13.37l.07,0S34.53,13.35,34.51,13.37Z"/><path class="cls-3" d="M34.06,13.41h.07l-.06,0Z"/><path class="cls-3" d="M34.84,13.35l-.14.05h.23S34.91,13.37,34.84,13.35Z"/><path class="cls-3" d="M34.5,13.37h0s.07,0,0,0h0s0,0,0,0h0l-.1,0h.1c-.14,0,.11.06-.08,0,.07,0,0,.05.15.05s0-.06-.07-.11h.19l-.2,0Z"/><path class="cls-3" d="M33.6,13.71h0S33.61,13.72,33.6,13.71Z"/><path class="cls-3" d="M33.66,13.68a.31.31,0,0,0,.07-.12s-.07.07-.14.11h0c-.07,0,0,.05,0,.05s-.05,0,0,0A.08.08,0,0,1,33.66,13.68Z"/><path class="cls-3" d="M34.24,13.53h-.16s0,0,.09,0v0Z"/><path class="cls-3" d="M35,13.41l-.09-.07,0,0Z"/><polygon class="cls-3" points="35.22 13.41 35.17 13.38 35.17 13.42 35.22 13.41"/><path class="cls-3" d="M38.79,16.74a.16.16,0,0,1,0,.11h0C38.92,16.86,38.84,16.8,38.79,16.74Z"/><path class="cls-3" d="M37.29,14.33a.46.46,0,0,0-.14-.07S37.22,14.3,37.29,14.33Z"/><path class="cls-3" d="M35.71,21.89h0Z"/><path class="cls-3" d="M37.29,14.33l.1.09,0,0A.16.16,0,0,0,37.29,14.33Z"/><path class="cls-3" d="M36,13.6Z"/><path class="cls-3" d="M35.91,13.57h0Z"/><path class="cls-3" d="M36.07,13.62l-.06,0h0Z"/><path class="cls-3" d="M35.56,13.48h.09l-.09,0S35.57,13.47,35.56,13.48Z"/><path class="cls-3" d="M34.67,13.61v0h0C34.76,13.63,34.72,13.61,34.67,13.61Z"/><path class="cls-3" d="M35.32,13.58h0c.07,0,.12.05.14,0S35.31,13.52,35.32,13.58Z"/><path class="cls-3" d="M35.23,13.56l.06,0S35.22,13.54,35.23,13.56Z"/><path class="cls-3" d="M36.11,13.64s0,0,0,0S36.1,13.57,36.11,13.64Z"/><polygon class="cls-3" points="35.42 13.71 35.39 13.66 35.36 13.71 35.42 13.71"/><path class="cls-3" d="M35.76,13.79h.1s-.06,0-.12,0Z"/><path class="cls-3" d="M35.74,13.76l-.08,0Z"/><path class="cls-3" d="M37,14.36l-.08-.07s0,0,0,.06S37,14.39,37,14.36Z"/><polygon class="cls-3" points="31.33 14.76 31.29 14.84 31.32 14.82 31.33 14.76"/><path class="cls-3" d="M31.46,14.76s0,0,.05,0h-.08Z"/><path class="cls-3" d="M39.64,7.74s0,0,0,0S39.6,7.69,39.64,7.74Z"/><polygon class="cls-3" points="39.29 7.14 39.29 7.12 39.27 7.04 39.29 7.14"/><path class="cls-3" d="M39,6.6a3,3,0,0,1,.18.36l0-.07h0C39.07,6.8,39.06,6.62,39,6.6Z"/><path class="cls-3" d="M38.69,6.37l0,.06h0C38.68,6.29,38.72,6.38,38.69,6.37Z"/><path class="cls-3" d="M38.72,6.43s0,.06,0,0Z"/><path class="cls-3" d="M38.57,6.18s0,0,0,.05V6.14S38.55,6.09,38.57,6.18Z"/><path class="cls-3" d="M38.64,6.09V6A.08.08,0,0,0,38.64,6.09Z"/><path class="cls-3" d="M38.64,6.09l0,.1c0-.05,0-.07,0-.06S38.66,6.1,38.64,6.09Z"/><path class="cls-3" d="M38.69,6.23c.05.16.1.16.05,0C38.75,6.33,38.72,6.27,38.69,6.23Z"/><path class="cls-3" d="M39.07,6.59l0,0s0,.08,0,.1Z"/><path class="cls-3" d="M38.49,5.71V5.65l-.06,0S38.47,5.68,38.49,5.71Z"/><path class="cls-3" d="M38.49,5.65s0,0,0-.1Z"/><path class="cls-3" d="M38.71,6V6c0,.07,0,.13,0,.2Z"/><path class="cls-3" d="M38.36,5.26v0a.49.49,0,0,0,0,.11Z"/><path class="cls-3" d="M38.31,4.83a.48.48,0,0,0-.05.18s.05,0,.07,0A.3.3,0,0,1,38.31,4.83Z"/><path class="cls-3" d="M38.46,5.39v0l-.05,0A.14.14,0,0,0,38.46,5.39Z"/><polygon class="cls-3" points="38.44 5.27 38.45 5.35 38.45 5.35 38.44 5.27"/><path class="cls-3" d="M38.6,5.78c0-.09,0,0,.07-.08S38.61,5.72,38.6,5.78Z"/><path class="cls-3" d="M38.51,5.54s0,0,0,0l0-.1Z"/><polygon class="cls-3" points="38.51 5.4 38.52 5.43 38.53 5.38 38.51 5.4"/><path class="cls-3" d="M38.42,4.94a1.1,1.1,0,0,0,0-.18.34.34,0,0,1,0,.15C38.39,5,38.41,5,38.42,4.94Z"/><polygon class="cls-3" points="38.42 4.24 38.43 4.24 38.42 4.23 38.42 4.24"/><path class="cls-3" d="M38.43,5s0,0,0,0a.34.34,0,0,1,0,.1A.09.09,0,0,0,38.43,5Z"/><path class="cls-3" d="M38.38,4.66a.19.19,0,0,1,0-.07S38.36,4.64,38.38,4.66Z"/><path class="cls-3" d="M38.42,5.12a.22.22,0,0,1,0-.08.14.14,0,0,0,0,.06S38.41,5.11,38.42,5.12Z"/><path class="cls-3" d="M38.36,4.33a.6.6,0,0,1,0,.14v0a1.48,1.48,0,0,1,0-.21S38.39,4.26,38.36,4.33Z"/><path class="cls-3" d="M38.38,4.66s0,.07,0,.1,0-.06,0-.1c0,.14.06-.11.05.08,0-.07,0,0,.06-.15s-.07,0-.11.07h0s0-.07,0,0V4.47l0,.2Z"/><path class="cls-3" d="M38.73,5.57h0S38.73,5.56,38.73,5.57Z"/><path class="cls-3" d="M38.73,5.57s0,0,0,0a.15.15,0,0,1,0-.07.25.25,0,0,0-.12-.07s.08.07.11.14v0C38.72,5.67,38.72,5.6,38.73,5.57Z"/><path class="cls-3" d="M38.55,4.93a.86.86,0,0,0,0,.16s.05,0,0-.08h0Z"/><path class="cls-3" d="M38.42,4.14l-.07.09,0,0Z"/><polygon class="cls-3" points="38.42 3.95 38.39 4 38.43 4 38.42 3.95"/><path class="cls-3" d="M41.88.3s-.07,0-.13.08a.18.18,0,0,1,.11,0Z"/><path class="cls-3" d="M39.34,1.89a.32.32,0,0,0-.07.13S39.31,2,39.34,1.89Z"/><path class="cls-3" d="M46.9,3.47s0,0,0-.05S46.9,3.43,46.9,3.47Z"/><path class="cls-3" d="M39.34,1.89a.36.36,0,0,1,.1-.11s0,0,0,0A.2.2,0,0,0,39.34,1.89Z"/><path class="cls-3" d="M38.61,3.17Z"/><path class="cls-3" d="M38.59,3.26v0S38.58,3.26,38.59,3.26Z"/><path class="cls-3" d="M38.64,3.11l0,.06h0A.14.14,0,0,1,38.64,3.11Z"/><path class="cls-3" d="M38.49,3.61a.15.15,0,0,1,0-.09l0,.09S38.48,3.6,38.49,3.61Z"/><path class="cls-3" d="M38.62,4.51h0s0,0,0,0S38.62,4.45,38.62,4.51Z"/><path class="cls-3" d="M38.6,3.73c0,.07-.06.14,0,.13h0C38.61,3.8,38.64,3.75,38.6,3.73Z"/><path class="cls-3" d="M38.59,3.88s0,.07,0,.06A.13.13,0,0,1,38.59,3.88Z"/><path class="cls-3" d="M38.7,3c.09-.16-.11,0-.05,0S38.69,3.07,38.7,3Z"/><polygon class="cls-3" points="38.72 3.81 38.73 3.75 38.68 3.78 38.72 3.81"/><path class="cls-3" d="M38.82,3.31s0,.06,0,.12a0,0,0,0,1,0,0S38.81,3.34,38.82,3.31Z"/><path class="cls-3" d="M38.74,3.51s0,0,0-.08S38.75,3.5,38.74,3.51Z"/><path class="cls-3" d="M39.36,2.28s0-.06,0-.06l-.08.09S39.33,2.3,39.36,2.28Z"/><polygon class="cls-3" points="39.77 7.84 39.85 7.88 39.84 7.85 39.77 7.84"/><path class="cls-3" d="M39.72,7.66v.08l.07,0S39.73,7.68,39.72,7.66Z"/><path class="cls-3" d="M46.92,30.58s0,0,0,0S46.91,30.54,46.92,30.58Z"/><polygon class="cls-3" points="46.73 31.31 46.78 31.22 46.77 31.23 46.73 31.31"/><path class="cls-3" d="M46.7,31.5c0,.11-.12.25-.07.32,0-.09.09-.25.12-.38l-.06,0Z"/><path class="cls-3" d="M46.66,32.19l0-.06v0C46.61,32.25,46.64,32.16,46.66,32.19Z"/><path class="cls-3" d="M46.68,32.13s0-.07,0,0Z"/><path class="cls-3" d="M46.61,32.33l-.06.07c0,.06,0,.08.06,0S46.62,32.36,46.61,32.33Z"/><path class="cls-3" d="M46.5,32.42l0,0S46.5,32.43,46.5,32.42Z"/><path class="cls-3" d="M46.52,32.38c-.05,0,0,0,0,0l.06-.08S46.5,32.38,46.52,32.38Z"/><path class="cls-3" d="M46.57,32.29c.07-.15,0-.19,0,0C46.59,32.17,46.58,32.24,46.57,32.29Z"/><path class="cls-3" d="M46.58,31.72l0,0v.07S46.57,31.74,46.58,31.72Z"/><path class="cls-3" d="M46.29,32.84l0,.06s0-.08,0-.11Z"/><path class="cls-3" d="M46.22,32.9l.07-.06S46.26,32.83,46.22,32.9Z"/><path class="cls-3" d="M46.39,32.43l0,0,.14-.15Z"/><path class="cls-3" d="M46.08,33.23l.1,0-.06,0Z"/><path class="cls-3" d="M46,33.4a.31.31,0,0,1-.12.15.7.7,0,0,0,.16-.1S46,33.39,46,33.4Z"/><path class="cls-3" d="M46.13,33.13c0-.05,0-.08,0-.09l0,0Z"/><polygon class="cls-3" points="46.06 33.14 46.11 33.08 46.11 33.07 46.06 33.14"/><path class="cls-3" d="M46.31,32.67c-.08,0-.06,0-.11,0S46.26,32.7,46.31,32.67Z"/><path class="cls-3" d="M46.17,32.88l-.05.09.08-.08S46.18,32.89,46.17,32.88Z"/><polygon class="cls-3" points="46.1 33 46.12 32.97 46.08 33 46.1 33"/><path class="cls-3" d="M45.84,33.39l-.11.13a.54.54,0,0,1,.12-.09S45.86,33.39,45.84,33.39Z"/><polygon class="cls-3" points="45.35 33.88 45.35 33.88 45.34 33.89 45.35 33.88"/><path class="cls-3" d="M45.84,33.37s0,0,0,0l.07-.08A.13.13,0,0,0,45.84,33.37Z"/><path class="cls-3" d="M45.68,33.61l0,.07S45.67,33.64,45.68,33.61Z"/><path class="cls-3" d="M46,33.28Z"/><path class="cls-3" d="M46,33.26l-.06.05.06,0Z"/><path class="cls-3" d="M45.45,33.86a.91.91,0,0,1,.07-.14l0,0h0l-.15.14S45.39,33.89,45.45,33.86Z"/><path class="cls-3" d="M45.68,33.6h0s-.05,0,0,0h0a.41.41,0,0,1,0-.09.27.27,0,0,1-.08.07c.08-.12-.12,0,0-.09-.06,0-.06,0-.14.07s.07,0,.12,0l-.13.12.16-.11Z"/><path class="cls-3" d="M46.08,32.72h0S46.07,32.73,46.08,32.72Z"/><path class="cls-3" d="M46.05,32.79a.47.47,0,0,0,0,.14.37.37,0,0,1,0-.18h0c0-.08,0,0-.05,0s0,0,0,0A.12.12,0,0,1,46.05,32.79Z"/><path class="cls-3" d="M45.78,33.24v0l0,.09.11-.11S45.83,33.16,45.78,33.24Z"/><path class="cls-3" d="M45.28,34h.11l0,0Z"/><polygon class="cls-3" points="45.14 34.09 45.2 34.08 45.17 34.05 45.14 34.09"/><path class="cls-3" d="M40.12,34.22s.06,0,.14,0l-.1-.06Z"/><path class="cls-3" d="M43,34.9l.15,0S43.1,34.87,43,34.9Z"/><path class="cls-3" d="M38.81,28.43s0,0-.05,0S38.78,28.46,38.81,28.43Z"/><path class="cls-3" d="M43,34.9h-.17A.2.2,0,0,0,43,34.9Z"/><path class="cls-3" d="M44.45,34.5s0,0,0,0Z"/><path class="cls-3" d="M44.54,34.46l0,0Z"/><path class="cls-3" d="M44.39,34.53l.06,0h0Z"/><path class="cls-3" d="M44.85,34.28a.22.22,0,0,1-.07.06l.09,0S44.86,34.29,44.85,34.28Z"/><path class="cls-3" d="M45.4,33.55h0l0,0S45.35,33.59,45.4,33.55Z"/><path class="cls-3" d="M44.86,34.11c.07,0,.14,0,.09-.08h0C44.9,34.06,44.85,34.08,44.86,34.11Z"/><path class="cls-3" d="M45,34,45,34S45.05,34,45,34Z"/><path class="cls-3" d="M44.3,34.53c-.17,0,.1.06.05,0S44.33,34.51,44.3,34.53Z"/><polygon class="cls-3" points="44.84 34.02 44.83 33.97 44.79 34.01 44.84 34.02"/><path class="cls-3" d="M44.53,34.2h0l-.08.06S44.47,34.23,44.53,34.2Z"/><path class="cls-3" d="M43.3,34.6s-.07,0-.06,0h.12S43.33,34.61,43.3,34.6Z"/><polygon class="cls-3" points="46.91 30.3 46.9 30.33 46.94 30.39 46.91 30.3"/><path class="cls-3" d="M46.85,30.55l.06-.06-.07,0S46.85,30.53,46.85,30.55Z"/><path class="cls-3" d="M28.6,30.94s0,0,0,0S28.6,30.9,28.6,30.94Z"/><polygon class="cls-3" points="28.41 31.67 28.47 31.58 28.45 31.59 28.41 31.67"/><path class="cls-3" d="M28.39,31.86c0,.11-.13.25-.07.32a3.17,3.17,0,0,1,.12-.38l-.07,0Z"/><path class="cls-3" d="M28.35,32.55a.41.41,0,0,0,0-.07h0C28.3,32.61,28.33,32.51,28.35,32.55Z"/><path class="cls-3" d="M28.37,32.48c0,.05,0-.06,0,0Z"/><path class="cls-3" d="M28.3,32.69l-.06.07c0,.06,0,.08.06,0S28.31,32.72,28.3,32.69Z"/><path class="cls-3" d="M28.19,32.78l0,0S28.19,32.79,28.19,32.78Z"/><path class="cls-3" d="M28.21,32.74c-.05,0,0,0,0,0l0-.08S28.19,32.74,28.21,32.74Z"/><path class="cls-3" d="M28.26,32.64c.07-.14,0-.18,0,0C28.28,32.53,28.26,32.59,28.26,32.64Z"/><path class="cls-3" d="M28.27,32.08l0,0v.07S28.25,32.1,28.27,32.08Z"/><path class="cls-3" d="M28,33.2s0,0,0,.06,0-.08,0-.11Z"/><path class="cls-3" d="M27.9,33.26,28,33.2S28,33.19,27.9,33.26Z"/><path class="cls-3" d="M28.08,32.79l0,0,.13-.15Z"/><path class="cls-3" d="M27.76,33.59l.1-.05-.06,0Z"/><path class="cls-3" d="M27.64,33.76a.3.3,0,0,1-.11.15.47.47,0,0,0,.16-.1S27.69,33.74,27.64,33.76Z"/><path class="cls-3" d="M27.81,33.49a.16.16,0,0,0,0-.09l0,0Z"/><polygon class="cls-3" points="27.75 33.5 27.8 33.43 27.8 33.43 27.75 33.5"/><path class="cls-3" d="M28,33c-.08,0-.06,0-.11,0S28,33.06,28,33Z"/><path class="cls-3" d="M27.85,33.24l0,.09.08-.08S27.86,33.24,27.85,33.24Z"/><polygon class="cls-3" points="27.79 33.36 27.81 33.33 27.77 33.36 27.79 33.36"/><path class="cls-3" d="M27.53,33.74a1.34,1.34,0,0,0-.11.14.54.54,0,0,1,.12-.09S27.54,33.75,27.53,33.74Z"/><polygon class="cls-3" points="27.04 34.24 27.03 34.24 27.03 34.25 27.04 34.24"/><path class="cls-3" d="M27.53,33.73s0,0,0,0a.46.46,0,0,1,.07-.07A.1.1,0,0,0,27.53,33.73Z"/><path class="cls-3" d="M27.36,34l0,.07S27.36,34,27.36,34Z"/><path class="cls-3" d="M27.66,33.64Z"/><path class="cls-3" d="M27.66,33.62l-.06.05.06,0Z"/><path class="cls-3" d="M27.14,34.22a.46.46,0,0,1,.07-.14l0,0h0l-.15.14S27.07,34.25,27.14,34.22Z"/><path class="cls-3" d="M27.37,34h0s-.05,0,0,0h0l.06-.09a.27.27,0,0,1-.08.07c.08-.12-.12,0,0-.09-.06,0-.06,0-.15.07s.08,0,.13,0a.83.83,0,0,0-.13.12.83.83,0,0,0,.16-.12Z"/><path class="cls-3" d="M27.76,33.08h0S27.75,33.09,27.76,33.08Z"/><path class="cls-3" d="M27.74,33.15a.33.33,0,0,0,0,.14s0-.11,0-.18h0c0-.08,0,0,0,0s0,0,0,0S27.75,33.14,27.74,33.15Z"/><path class="cls-3" d="M27.47,33.6v0l0,.08.12-.1S27.52,33.52,27.47,33.6Z"/><path class="cls-3" d="M27,34.31h.12l0,0Z"/><polygon class="cls-3" points="26.83 34.45 26.89 34.43 26.86 34.41 26.83 34.45"/><path class="cls-3" d="M21.81,34.58s.06,0,.14,0a.27.27,0,0,1-.1-.06Z"/><path class="cls-3" d="M24.72,35.26l.15,0S24.79,35.23,24.72,35.26Z"/><path class="cls-3" d="M20.49,28.79l0,0S20.47,28.81,20.49,28.79Z"/><path class="cls-3" d="M24.72,35.26a.65.65,0,0,1-.14,0h0A.2.2,0,0,0,24.72,35.26Z"/><path class="cls-3" d="M28.5,30.25a.25.25,0,0,1,0,.08A.17.17,0,0,0,28.5,30.25Z"/><path class="cls-3" d="M26.14,34.87Z"/><path class="cls-3" d="M26.23,34.82l0,0Z"/><path class="cls-3" d="M26.08,34.89l.06,0v0Z"/><path class="cls-3" d="M26.54,34.64a.22.22,0,0,1-.07.06l.09,0S26.54,34.65,26.54,34.64Z"/><path class="cls-3" d="M26.55,34.47c.07,0,.14,0,.09-.08h0C26.59,34.41,26.53,34.43,26.55,34.47Z"/><path class="cls-3" d="M26.71,34.34a.09.09,0,0,1-.05,0S26.73,34.35,26.71,34.34Z"/><path class="cls-3" d="M26,34.9c-.17,0,.1.05.05,0S26,34.87,26,34.9Z"/><polygon class="cls-3" points="26.53 34.38 26.52 34.33 26.47 34.37 26.53 34.38"/><path class="cls-3" d="M26.1,34.62s.06,0,.12-.06h0Z"/><path class="cls-3" d="M26.22,34.56l.07,0Z"/><path class="cls-3" d="M25,35s-.07,0-.06,0h.12S25,35,25,35Z"/><polygon class="cls-3" points="28.6 30.66 28.59 30.69 28.62 30.75 28.6 30.66"/><path class="cls-3" d="M28.53,30.91l.07-.06-.07,0A.11.11,0,0,1,28.53,30.91Z"/><path class="cls-3" d="M38.74,18.16c.09-.16,0-.13.12-.32,0,.08-.07,0-.11,0l.09-.13-.06,0a.5.5,0,0,0,0-.17s0,0,0,0,.06-.27.09-.32,0-.16-.09-.19,0,0,0-.08.08,0,0,0h0a.54.54,0,0,0,0-.15l0,0a.15.15,0,0,0,0-.06s0,0,0,0h0a.18.18,0,0,1,0-.11.65.65,0,0,1-.08-.31.47.47,0,0,0-.14-.31s0,.07,0,.09c-.07-.17-.22-.3-.24-.41l.05,0a1.29,1.29,0,0,0-.16-.31l0,0c0-.06-.11-.17-.18-.27s-.14-.17-.22-.17-.15-.16-.21-.23l0,0a.77.77,0,0,1-.18-.19c-.23-.08-.35-.27-.53-.38h0l-.17-.13c0,.06,0,0-.08-.07a.53.53,0,0,0-.23-.09l-.13,0c.13.08,0,0-.05.08l-.07-.06s0,0,0,0-.2-.1-.23-.16h.06l0,0c-.1,0-.06,0,0,0s-.19,0-.3,0c.15-.06-.26-.06-.17-.13-.1.06-.06,0-.12.05a.71.71,0,0,1,.32.14l-.11,0c0,.09.22,0,.27.07a.16.16,0,0,0-.13,0l0,0a.57.57,0,0,1,.31.15c-.09,0,.09.08,0,.1l-.06,0a0,0,0,0,0,0,0l-.34-.11h0l-.36-.07c0-.06-.16-.11-.11-.14s0,.05-.16,0,.1-.05.14-.07-.1-.05-.1-.07-.16.2-.07.23a.19.19,0,0,1,.17,0,4.14,4.14,0,0,0-3.39,1.17l-.16.18c0-.08,0-.15-.08-.13l.07-.05c-.07,0-.17.18-.25.17l-.1.24s-.06,0-.05-.05-.07.09-.05,0c-.11.29-.25.54-.38.82a2.28,2.28,0,0,0-.26.84s0,0,0,0-.05.1-.07.16l.06.16c0,.07,0,0-.07,0a8,8,0,0,0,0,.84c0,.07.07,0,.09.08-.05-.07-.06,0-.06.09s0,.16,0,.12.09.36.21.29c0,.11,0,.11-.05.08a1.59,1.59,0,0,1,.06.36,2.79,2.79,0,0,1,.13.34c.07.16.15.31.23.34-.1,0,0,0,0,.11l-.08,0,.09.16,0,0s0,0,.08,0a.32.32,0,0,1,.06.21v0l0,.08c0,.05-.08-.22.07-.07,0,0,0,.16.06.18s0-.1,0-.08a.52.52,0,0,0,.1.11h-.09a4.59,4.59,0,0,0,1,.85c0-.05.27.17.29.06h0c-.09-.06.06-.05.13,0-.09,0,.1.17-.1.07l.05,0,.51,0c1.28,0,3.56-.31,4.4-2.37l.1,0A5.25,5.25,0,0,1,36,21.79a.56.56,0,0,1,.13-.07c.08,0,.06,0,0,.06s.39-.09.43-.14,0-.07,0-.12,0,.14.2,0h-.06c.07-.05.09-.28.18-.29l0,.05c.14-.05.2-.3.28-.23l0,.05c.15-.21.09-.05.24-.26h0c.09-.06.09-.15.18-.13l0,0a1,1,0,0,0,.19-.21s.07-.05.07-.08.23-.23.25-.29-.06,0-.06,0,.11-.06.12-.16.16.07.26-.09c0,0,0,.05-.06,0s0-.05,0-.06,0,0-.06,0,.11-.18.21-.33c-.05,0,0,0-.06,0s0-.25.1-.15c0-.17.1-.38.14-.56a1.18,1.18,0,0,0,0-.42s0-.13,0-.19ZM30.86,20s0,0,0,0Zm4.21-6.29h0Zm1.38.16Zm.1.32.09,0a.38.38,0,0,1-.15-.09l.11,0c-.08,0-.16,0-.26-.1s0-.11.08-.12a.27.27,0,0,1,.2.13.46.46,0,0,0,.2.19s0-.09.1,0a.51.51,0,0,1,.16.28A4.5,4.5,0,0,0,36.55,14.15Zm1,.79s0,0,.05,0a.34.34,0,0,1,0,.12ZM38,20.11V20s0,0,0,0l0,0h0a.25.25,0,0,1,0-.07.05.05,0,0,1,0,0l0,0s.06,0,.06,0Zm.11-4.47a.75.75,0,0,0-.07-.12l.06-.06-.07,0-.08-.12h0a1.86,1.86,0,0,1,.24.18S38.13,15.61,38.07,15.64Zm.4.88a1.8,1.8,0,0,0-.08-.21l.08-.22c0,.05,0,.09,0,.14l0,0A.51.51,0,0,1,38.47,16.52Zm.17,1.4a.41.41,0,0,0,0-.11.14.14,0,0,0,.09,0Z"/><path class="cls-3" d="M47,4.85s0,0,0,0a.39.39,0,0,0,.07-.29h0V4.31c-.08,0-.06-.11,0-.23s0-.26-.09-.28a.91.91,0,0,0,0-.33s0,0,0,0-.12-.27-.15-.37,0-.06.07,0c-.12-.11-.1-.4-.15-.44s-.07,0-.11,0,.13,0,0-.19c0,0,0,.06,0,.05s-.27-.09-.29-.17l.05,0c0-.15-.29-.2-.23-.28l.05,0c-.21-.15-.05-.1-.26-.25h0c-.07-.09-.16-.09-.14-.18l0,0a1.29,1.29,0,0,0-.21-.19.12.12,0,0,0-.07-.07c0-.06-.24-.22-.29-.25s0,.06,0,.07A.14.14,0,0,0,45,1a.25.25,0,0,0,0-.12,6.24,6.24,0,0,0-.74,0c-1.29,0-3.57.31-4.41,2.36l-.09,0A5.36,5.36,0,0,1,41.16.72L41.1.7h.09l.2-.17-.13,0a.47.47,0,0,0-.3.14s.06-.05.08,0c-.17.06-.29.21-.41.23l0,0a1.2,1.2,0,0,0-.3.15l0,0L40,1.13c-.1.07-.18.15-.18.22s-.15.15-.22.21v0a1,1,0,0,1-.18.18,2.8,2.8,0,0,1-.39.53h0l-.13.17c.06,0,0,0-.06.08a.44.44,0,0,0-.1.23c0,.05,0,.09-.05.13.08-.13.05,0,.09.06l-.07.06s0,0,0,0-.1.2-.16.23a.22.22,0,0,1,0-.06h0l0,0c0,.1,0,.06-.05.05s0,.19,0,.3c-.07-.14-.06.26-.13.17.05.1,0,.06,0,.13a.56.56,0,0,1,.15-.32l0,.1c.09,0,0-.22.06-.26a.14.14,0,0,0,0,.12l0,0a.64.64,0,0,1,.15-.31c0,.09.08-.09.1,0l0,.06s0,0,0,0a3.37,3.37,0,0,0-.1.34v0l0,.07h0c0,.12,0,.24-.07.36s-.1.16-.14.11.05,0,0,.17-.06-.11-.08-.15-.05.1-.06.1.19.16.23.07a.2.2,0,0,1,0-.17,4.09,4.09,0,0,0,1.18,3.39,1.29,1.29,0,0,0,.17.16c-.07,0-.14,0-.13.08l0-.06c0,.06.18.16.17.24l.24.1s0,.07,0,0,.09.07,0,.05c.29.11.55.26.82.39a2.54,2.54,0,0,0,.84.25s0,0,0,0,.09.05.15.07l.17-.06c.06,0,0,.05,0,.07a7.83,7.83,0,0,0,.83,0c.08,0,0-.07.08-.09-.07.06,0,.06.09.06s.16,0,.13,0,.35-.08.28-.21c.12,0,.11,0,.08,0a1.69,1.69,0,0,1,.36-.06s.19-.06.34-.13a.68.68,0,0,0,.34-.22c0,.09,0,0,.11,0l0,.09.16-.1,0,0s0,0,0-.08a.29.29,0,0,1,.2-.06v0l.07,0c.05,0-.21.08-.06-.06,0,0,.15,0,.17-.07s-.1,0-.08,0l.12-.09V8a4.85,4.85,0,0,0,.84-1s.17-.27.07-.28v0c-.07.08,0-.07,0-.14,0,.1.16-.1.06.11l.13-.14c.1,0,.15-.11.19-.25a1.87,1.87,0,0,1,.13-.42,0,0,0,0,1,0,0c.13-.21.08-.53.12-.58l0,0A.59.59,0,0,0,47,4.85ZM40.56,1a.22.22,0,0,1,.1.11l-.13.07-.06-.06,0,.07-.11.08s0,0,0,0A1.08,1.08,0,0,1,40.56,1Zm-.51.55-.1.09s0,0,0-.06A.18.18,0,0,1,40.05,1.54Zm-1.2,1.18h0C38.86,2.67,38.86,2.65,38.85,2.72Zm-.17,1.39h0v0Zm.49-1.49,0-.08a.45.45,0,0,1-.1.14l0-.11c-.05.08,0,.16-.1.27s-.12,0-.13-.09a.29.29,0,0,1,.13-.2.46.46,0,0,0,.2-.2s-.09,0,0-.1a.51.51,0,0,1,.28-.16A4.41,4.41,0,0,0,39.17,2.62ZM45,8.31s0,0,0,0ZM45,1.22l0,0,0,0v0l-.07,0a0,0,0,0,1,0,0l0,0s0-.06,0-.06l.12.13A.11.11,0,0,0,45,1.22Z"/><path class="cls-3" d="M65.54,31.46c0-.3,0-.59,0-.83,0-.08-.07,0-.09-.08.05.06.06,0,.05-.09s0-.17,0-.13-.08-.36-.2-.28c0-.12,0-.12,0-.08a1,1,0,0,1-.06-.37,2.79,2.79,0,0,1-.13-.34.77.77,0,0,0-.23-.33c.1,0,0,0,0-.11l.09,0a.86.86,0,0,0-.1-.16s0-.05,0,0,0,0-.08,0a.53.53,0,0,1-.06-.2h0l0-.08c0-.05.09.22-.06.07,0,0,0-.15-.06-.17s0,.09,0,.07l-.09-.11h.09a4.88,4.88,0,0,0-1-.85c0,.06-.27-.16-.29-.06h0c.09.06-.06.05-.13,0,.09,0-.1-.16.1-.07l0,0-.51,0c-1.29,0-3.56.31-4.41,2.36l-.09,0a5.17,5.17,0,0,1,1.57-2.64l-.14.07c-.07,0-.05,0,0-.06s-.4.09-.43.15,0,.07,0,.11,0-.14-.2,0h.06c-.07.06-.09.28-.18.3l0-.05c-.14,0-.2.29-.28.22l0,0c-.15.2-.09.05-.24.26h0c-.08.07-.08.15-.17.14v0l-.19.21s-.07.06-.07.08-.22.24-.25.29.06,0,.07,0-.11.06-.12.15-.17-.06-.26.1c0,0,.05-.06.06,0s0,.05,0,.06,0,0,.06,0-.1.18-.2.33c0,0,0,0,.06,0s0,.25-.1.14c0,.18-.1.38-.14.57a.83.83,0,0,0,0,.42s0,.12,0,.18h0c-.09.16,0,.12-.12.32.05-.08.07,0,.1,0A1,1,0,0,1,57,31L57,31a.37.37,0,0,0,0,.18s0,0,0,0,0,.28-.08.32,0,.17.08.2,0,.05,0,.07-.08,0-.06,0H57A.76.76,0,0,0,57,32a.1.1,0,0,0,0-.05l0,.06v0a.21.21,0,0,1,0,.12.7.7,0,0,1,.09.3.46.46,0,0,0,.1.26s0,0,0,0c.07.16.21.29.24.41h0a1.13,1.13,0,0,0,.16.31l0,0a2.21,2.21,0,0,1,.19.26c.06.1.14.18.21.18s.16.15.21.22h0a1,1,0,0,1,.18.18c.23.09.35.28.53.38h0l.16.13s0,.05.09.07a.43.43,0,0,0,.23.09l.12.06c-.12-.09,0,0,.06-.09l.06.06s0,0,0,0,.2.1.23.16h-.06s0,0,0,0,.06,0,0,0,.19,0,.29,0c-.14.06.27.06.17.13.11,0,.07,0,.13,0a.86.86,0,0,1-.32-.15l.11,0c0-.09-.22,0-.27-.07s.12,0,.13,0l0,0a.57.57,0,0,1-.31-.15c.09,0-.09-.07,0-.09l.07,0s0,0,0,0l.34.1h.05l.36.07c0,.06.16.11.11.15s0,0,.17,0-.1.06-.14.07.1.06.1.07S61,35,60.94,35a.21.21,0,0,1-.18,0,4.08,4.08,0,0,0,3.4-1.17l.16-.17c0,.07,0,.14.07.13l-.06,0c.07,0,.17-.18.25-.18s.06-.15.1-.23.06,0,0,0,.07-.09,0,0c.11-.29.25-.55.38-.82a2.33,2.33,0,0,0,.26-.85s0,0,0,0,.05-.1.07-.15a.87.87,0,0,0-.07-.17C65.5,31.41,65.52,31.46,65.54,31.46Zm-8.39-.63h-.1l.1-.1Zm.18,1.73a.77.77,0,0,1,0-.15l-.05,0a.52.52,0,0,1,.07-.27c0,.07.05.14.07.21S57.35,32.51,57.33,32.56Zm.51-4v.08l0,0,0,0h0l0,.07s0,0,0,0l0,0s-.07,0-.06,0Zm0,4.73a1.08,1.08,0,0,1-.25-.18s.06-.06.11-.09l.08.13-.06,0,.07,0a.83.83,0,0,0,.08.12Zm.34.45a.36.36,0,0,1,0-.11l.09.09S58.21,33.7,58.2,33.72Zm1.15,1.09Zm0-.06c-.12,0-.16-.07-.19-.13a.46.46,0,0,0-.2-.19s0,.09-.1,0a.49.49,0,0,1-.16-.27,3.74,3.74,0,0,0,.53.35l-.09,0a.24.24,0,0,1,.14.1l-.1,0c.07,0,.16,0,.26.1S59.49,34.75,59.37,34.75Zm1.34.22h0Zm4.2-6.31,0,0S64.93,28.73,64.91,28.66Z"/><path class="cls-3" d="M55.29,18.2c.05,0,0-.22,0-.31l0,0a.75.75,0,0,1,0-.26,2.47,2.47,0,0,1-.09-.64h0a1.36,1.36,0,0,0,0-.21c0,.06,0-.05,0-.11a.37.37,0,0,0-.1-.23l0-.13c0,.15-.06,0-.1,0v-.09s0,.06,0,0-.07-.21-.05-.28l.06,0h0v0c-.05-.09,0-.06,0-.07s-.11-.15-.23-.19c.15.05-.14-.23,0-.22-.11,0,0-.05-.12-.06a.64.64,0,0,1,.12.33l-.09-.05c0,.09.13.16.14.23s-.06-.11-.08-.1h.07a.55.55,0,0,1,.1.33c-.06-.07,0,.12-.06.07l0-.06s0,0,0,0a3.18,3.18,0,0,0-.16-.32v0l0-.06h0l-.19-.3c0-.05,0-.19,0-.18s-.06,0-.13-.11.12,0,.15,0,0-.1,0-.12-.24,0-.21.11l-.1-.11s0,0,0-.05h0a.05.05,0,0,1,0,0,4.1,4.1,0,0,0-1.36-1h-.17c-1.29,0-3.56.31-4.41,2.37l-.09,0a5.26,5.26,0,0,1,1.51-2.6h0a2.19,2.19,0,0,0-.79.4s0,0,0,0-.11,0-.16.05l-.08.17c-.07,0,0,0-.06-.05-.25.17-.4.43-.6.58,0,.07.06,0,0,.11,0-.08,0,0-.11,0s-.11.12-.11.06c0,.14-.2.31-.06.35-.06.11-.1,0-.09,0a1.46,1.46,0,0,1-.22.3s-.09.18-.15.33a.68.68,0,0,0-.09.4c0-.11,0,0-.08.06l0-.09c0,.06,0,.12,0,.18s0,.05,0,.05,0,0,0,.08a.26.26,0,0,1-.1.19v0l0,.08c0,.06.1-.21.09,0,0,0-.11.11-.08.17,0-.11,0-.09.06,0s0,.09,0,.14l-.07-.06a4.48,4.48,0,0,0,.09,1.31c.06,0,.07.31.15.25h0c0-.11.08,0,.09.1,0-.09,0,.18-.12,0a1.09,1.09,0,0,0,0,.18c-.08.07,0,.19,0,.31a2.48,2.48,0,0,1,.21.39s0,0,0,0c.06.24.31.44.32.5h0a.61.61,0,0,0,.25.39s0,0,0,0a.36.36,0,0,0,.15.25v0l.19.19c0-.06.12,0,.2.12s.17.19.25.14.17.19.23.25h0c0,.12.27.11.36.17s0,.06,0,.07c.16,0,.35.22.41.21s.06-.05.09-.07-.06.12.16.12c0,0-.07,0,0,0s.26-.13.32-.08l0,0c.13.07.35-.07.36,0l0,.05c.25,0,.1,0,.35,0h0c.11,0,.17,0,.22,0h.25s.09,0,.1,0,.33,0,.39,0c-.11,0-.06,0,0-.06a.15.15,0,0,0,.2,0c0,.08.06.16.24.12,0,0-.07,0-.06,0s.06,0,.08,0,0,0,0-.05.21-.05.38-.09c-.06,0,0,0,0-.07s.19-.16.18,0l.5-.29a1.06,1.06,0,0,0,.32-.26s.12-.07.17-.1l0,0c.17-.05.11-.06.31-.13-.1,0-.08,0-.05-.11l.15,0,0-.06a.26.26,0,0,0,.12-.13s0,0,0,0,.24-.15.29-.16.12-.11.08-.2l.06,0c0,.05,0,.08.06,0h0l0,0,.1-.12a.13.13,0,0,0,0,.06.17.17,0,0,0,0-.07v0h0a.14.14,0,0,1,.06-.1.7.7,0,0,1,.15-.28.46.46,0,0,0,.13-.31.11.11,0,0,1,0,.09c.08-.17.07-.36.13-.46l0,0a1.28,1.28,0,0,0,.12-.32h0c0-.08,0-.2.07-.31A.35.35,0,0,0,55.29,18.2Zm-8.54-1.38v0S46.78,16.76,46.75,16.82Zm5,5.16h-.18a.33.33,0,0,0,.06-.06h.08l0,0,.08,0s0,0,0,.05h0S51.78,22,51.77,22Zm1.87-1,.08-.07a.22.22,0,0,0,.06.07Zm.43-5.69a.22.22,0,0,1,.11.13Zm.13.16h0v0Zm.84,1.1c0,.05,0,.07,0,0Zm-.3,3.14,0,.05a.53.53,0,0,1-.24.14c0-.07.07-.13.1-.2l.21-.1Zm.13-.71a.57.57,0,0,0,0-.14H55l-.07,0,0-.14s0,0,0,0A1.25,1.25,0,0,1,55,19,.29.29,0,0,1,54.87,19Zm.13-.74a.53.53,0,0,0,0-.13s0,0,.05,0A.21.21,0,0,1,55,18.21Zm0-.76a3.14,3.14,0,0,0-.12-.61l0,.06a.3.3,0,0,1,0-.16.41.41,0,0,1,0,.09c0-.08-.09-.14-.11-.26s.07-.1.15,0a.23.23,0,0,1,0,.23.62.62,0,0,0,0,.28s.06-.08.06.08A.58.58,0,0,1,55,17.45Z"/><path class="cls-3" d="M44.8,34.11c-.1,0-.17.14-.24.14s.12-.06.11-.08v.07a.57.57,0,0,1-.33.11s0,0-.06,0a3.29,3.29,0,0,1-.54.43.18.18,0,0,0,.1,0,.41.41,0,0,0,.23-.09l.13,0c-.15,0,0-.06,0-.1h.09s-.06,0,0,0,.2-.07.27-.05a.09.09,0,0,1,0,.05h0c.09-.06.06,0,.07,0s.15-.12.19-.23c-.06.14.23-.15.21,0,0-.12.05,0,.06-.12a.7.7,0,0,1-.33.12Zm-.82.54h0S43.91,34.7,44,34.65Z"/><path class="cls-3" d="M46.75,29.9s0,0,.07,0,0-.11,0,0c-.13-.28-.21-.57-.31-.85a2.27,2.27,0,0,0-.42-.78s0,0,0,0,0-.11-.06-.16L45.94,28c0-.07,0,0,0-.06-.17-.25-.44-.4-.58-.6-.08,0,0,.07-.12,0,.08,0,0-.05,0-.1s-.13-.11-.07-.11c-.14,0-.31-.2-.35-.06-.11-.06-.05-.1,0-.09a1.17,1.17,0,0,1-.3-.22,3.25,3.25,0,0,1-.33-.14.68.68,0,0,0-.4-.08c.1,0,0,0-.07-.09l.09,0-.18,0h-.05s0,0-.08,0a.36.36,0,0,1-.19-.1h0l-.08,0c-.07,0,.21.1,0,.09,0,0-.11-.11-.17-.07.1,0,.09.05,0,.06H43l.06-.07a4.49,4.49,0,0,0-1.31.1c0,.06-.31.08-.25.16h0c.1,0,0,.08-.1.09.08-.05-.19,0,0-.12h-.18c-.07-.07-.19,0-.31,0a2.1,2.1,0,0,1-.39.21s0,0,0,0c-.25.06-.44.32-.5.33l0,.05a.58.58,0,0,0-.4.26s0,0,0,0a.41.41,0,0,0-.25.16h0l-.18.19c.06.05,0,.12-.12.2s-.19.18-.14.26-.18.17-.23.23,0,0,0,0-.11.27-.16.36-.06,0-.07,0c0,.16-.22.35-.21.41s.05.06.08.1-.13-.07-.13.15c0,0,0-.06,0,0s.14.26.09.33l0-.06c-.07.14.07.35,0,.36l0,0c0,.25,0,.11,0,.36h0c0,.11,0,.17,0,.22l0,0a2.83,2.83,0,0,0,0,.29.12.12,0,0,0,0,.1c-.07,0,0,.32,0,.38,0-.11,0-.06.06,0a.14.14,0,0,0,0,.19c-.07,0-.16.07-.11.25,0,0,0-.07,0-.06s0,.06,0,.07,0,0,0,0,.05.2.09.38c0-.06,0,0,.07,0s.17.19,0,.18c.1.14.2.34.3.49a.89.89,0,0,0,.27.33s.06.11.1.16l0,0a2.56,2.56,0,0,0,.14.31c0-.09,0-.08.1-.05l0,.15.07,0c0,.06.07.09.12.13s0,0,0,0,.15.24.16.29.12.12.2.08a.21.21,0,0,0,0,.06s-.07,0,0,.06h0l.05,0,.11.09.37,0,0-.1.21.1h.2c1.28,0,3.56-.31,4.4-2.37l.1,0a5.85,5.85,0,0,1-1.17,2.26l.26-.14s0,0,0,0l.07,0h0l.3-.21s.19,0,.18,0,0-.07.11-.14,0,.12-.05.16.1,0,.12,0,0-.25-.12-.21a.17.17,0,0,1-.13.1,4.07,4.07,0,0,0,1.57-3.22c0-.09,0-.16,0-.24s.1.1.14,0v.08c.07,0,0-.25.06-.3S46.78,30,46.75,29.9Zm-8.23,1.56a.06.06,0,0,1,0,0s0,.06-.06,0v-.18s0,0,.06.06a.06.06,0,0,0,0,0v0a.24.24,0,0,1,0,.08A0,0,0,0,1,38.52,31.46Zm1,2a.66.66,0,0,1,0-.14l.06.08A.17.17,0,0,0,39.54,33.46Zm4-7.09h0S43.62,26.4,43.56,26.37Zm1.49,7.44h0Z"/><polygon class="cls-3" points="44.34 34.27 44.33 34.27 44.34 34.27 44.34 34.27"/><path class="cls-3" d="M28.43,30.26s.06-.05.07,0,0-.11,0,0c-.13-.28-.21-.57-.31-.85a2.27,2.27,0,0,0-.42-.78s0,0,0,0,0-.1-.06-.16l-.17-.07c0-.07,0,0,.05-.06-.17-.25-.44-.4-.58-.6-.08,0,0,.07-.12,0,.08,0,0-.05,0-.1s-.12-.11-.07-.11c-.13,0-.31-.2-.35-.06-.1-.06-.05-.1,0-.09a1.91,1.91,0,0,1-.21-.14l-.54,0c-1.28,0-3.56.31-4.4,2.36l-.1,0a5.27,5.27,0,0,1,1.62-2.68.35.35,0,0,0-.26.07,2.48,2.48,0,0,1-.39.21s0,0,0,0c-.25.06-.44.32-.5.33v0a.58.58,0,0,0-.39.26s0,0,0,0a.42.42,0,0,0-.24.16h0L21,28.1c.06,0,0,.12-.12.2s-.19.18-.14.26-.18.17-.24.23,0,0,0,0-.11.27-.16.36-.06,0-.07,0c0,.16-.22.35-.21.41s.05.06.07.1-.13-.07-.12.15c0,0,0-.06,0,0s.14.26.09.33l0-.06c-.07.14.07.35,0,.36l-.05,0c.05.25,0,.11,0,.36h0c0,.1.05.16,0,.22v0a1.42,1.42,0,0,0,0,.29.12.12,0,0,0,0,.1c-.06,0,0,.32,0,.38,0-.11,0-.06.06,0s0,.11,0,.19-.16.07-.11.25c0,0,0-.08,0-.06s0,.06,0,.07,0,0,.05,0,0,.2.09.37c0-.06,0,0,.07,0s.16.19,0,.17c.1.15.2.34.3.5a1,1,0,0,0,.27.33c.05,0,.06.11.1.16l0,0a2.56,2.56,0,0,0,.14.31c0-.1,0-.08.1,0l0,.15.06,0a.3.3,0,0,0,.13.12s0,0,0,0,.16.23.17.28.11.12.19.08l.05.06c-.05,0-.08,0,0,.06h0l0,0a.61.61,0,0,0,.12.09h0a.18.18,0,0,1,.1.06.66.66,0,0,1,.28.16.5.5,0,0,0,.31.12s-.07,0-.08,0c.17.07.36.06.46.13l0,0a1.28,1.28,0,0,0,.32.12v0a2.37,2.37,0,0,1,.31.06.35.35,0,0,0,.28,0s.22,0,.31,0l0,0a.74.74,0,0,1,.26,0,3,3,0,0,1,.65-.1v0l.21,0c-.06,0,.05,0,.11,0a.52.52,0,0,0,.23-.1l.13,0c-.15,0,0-.06,0-.11H26s-.06,0,0,0,.21-.07.28-.05a.09.09,0,0,1,0,.05h0c.08-.06.06,0,.07,0s.15-.11.18-.22c-.05.14.23-.15.22,0,0-.1.05,0,.06-.12a.72.72,0,0,1-.33.13l.06-.09c-.1,0-.17.14-.24.14a.14.14,0,0,0,.11-.08v.07a.54.54,0,0,1-.33.11c.08-.06-.11,0-.07-.06l.06,0s0,0,0,0l.32-.17s0,0,0,0l.06,0h0l.31-.21s.19,0,.18,0,0-.07.1-.14,0,.12,0,.16.1,0,.11,0,0-.25-.11-.22a.2.2,0,0,1-.14.12l.14-.12a.52.52,0,0,0,.11-.1s0,0,0,0v0l0,0a4.09,4.09,0,0,0,1.32-3c0-.08,0-.16,0-.24s.1.1.14,0v.08c.07,0,0-.25.05-.3A1.6,1.6,0,0,0,28.43,30.26ZM20.2,31.82a.08.08,0,0,0,0,0s0,.06-.05,0v-.18l.06.06v.08l0,0a.31.31,0,0,0,0,.08A.06.06,0,0,1,20.2,31.82Zm1,2v-.14a.27.27,0,0,1,.07.08Zm1.3.94h0a.41.41,0,0,1-.15-.23l.2.1.11.21Zm1,.22a2.07,2.07,0,0,1-.3.05.41.41,0,0,1,0-.15l.14,0v0l.15,0Zm.56.08A.3.3,0,0,1,24,35h.13S24.07,35,24.08,35.06ZM25.41,35a.64.64,0,0,0-.28,0s.08.06-.08.07a.5.5,0,0,1-.31-.09,3.14,3.14,0,0,0,.61-.12l-.07,0a.26.26,0,0,1,.17,0l-.09.05c.08,0,.13-.09.25-.11s.1.06,0,.15A.26.26,0,0,1,25.41,35Zm.25,0h0C25.62,35,25.6,35.06,25.66,35Zm1.08-.84,0,0h0Z"/></svg>