<svg id="Layer_1" data-name="Layer 1" xmlns="http://www.w3.org/2000/svg" viewBox="0 0 172 20"><defs><style>.cls-1{fill:#673065;}.cls-2{fill:#666;}.cls-3{fill:#5d5e5e;}</style></defs><title>krabey-mobile</title><path class="cls-1" d="M26.38,17.78c0-.18,0-.34,0-.48s0,0-.05-.05,0,0,0-.05,0-.09,0-.07-.05-.21-.12-.17,0-.06,0,0a.53.53,0,0,1,0-.21,2,2,0,0,1-.08-.2.51.51,0,0,0-.13-.19c.06,0,0,0,0-.06l.05,0-.06-.09v0s0,0-.05,0A.15.15,0,0,1,26,16h0l0,0s0,.13,0,0,0-.09,0-.1,0,.06,0,.05l-.05-.07h.05a2.74,2.74,0,0,0-.58-.49s-.15-.1-.16,0h0c.05,0,0,0-.08,0s-.06-.09.06,0l0,0h-.29a2.57,2.57,0,0,0-2.53,1.36l-.06,0a3.07,3.07,0,0,1,.92-1.53s-.06.05-.09.05,0,0,0,0-.23,0-.25.08,0,0,0,.07,0-.08-.11,0,0,0,0,0-.05.15-.1.16v0c-.08,0-.11.17-.16.13v0c-.08.12-.05,0-.14.15h0c-.05,0-.05.09-.11.08l0,0a.63.63,0,0,0-.11.12l0,0s-.13.14-.15.17,0,0,0,0-.06,0-.07.09-.09,0-.15.05,0,0,0,0,0,0,0,0,0,0,0,0-.07.11-.12.2,0,0,0,0,0,.14-.06.08c0,.1-.05.22-.08.32a.83.83,0,0,0,0,.25s0,.07,0,.1h0a1.71,1.71,0,0,0-.07.18s0,0,.06,0,0,0,0,.08h0a.17.17,0,0,0,0,.1h0c-.05,0,0,.15-.05.18s0,.09.05.11a.43.43,0,0,0,0,.05s0,0,0,0h0s0,.07,0,.09l0,0s0,0,0,0h0a.15.15,0,0,1,0,.07.34.34,0,0,1,.05.17.3.3,0,0,0,.08.18l0,0c0,.1.12.17.14.24h0a.68.68,0,0,0,.09.17l0,0,.1.16c0,.05.08.1.13.1s.08.08.12.12h0a.46.46,0,0,1,.1.1.5.5,0,0,1,.12.08l-.06,0,.08,0a0,0,0,0,0,0,0,2.31,2.31,0,0,0,.19.14h0l.1.07s0,0,0,0a.19.19,0,0,0,.13,0l.07,0c-.07-.05,0,0,0-.05l0,0s0,0,0,0,.11.05.13.09h0c.06,0,0,0,0,0s.11,0,.17,0,.16,0,.1.08,0,0,.07,0a.37.37,0,0,1-.18-.08l.06,0s-.12,0-.15,0,.07,0,.07,0l0,0a.44.44,0,0,1-.18-.09s-.05,0,0-.05h0s0,0,0,0l.24.08h0l.19,0s.1.07.07.09,0,0,.09,0-.06,0-.08,0,.05,0,.06,0,.09-.11,0-.13a.1.1,0,0,1-.11,0,2.32,2.32,0,0,0,1.95-.66l.09-.11c0,.05,0,.09,0,.08l0,0s.09-.1.14-.1,0-.09.05-.14,0,0,0,0,0-.05,0,0a5.12,5.12,0,0,1,.22-.47,1.27,1.27,0,0,0,.15-.49s0,0,0,0,0-.06,0-.09a.42.42,0,0,0,0-.1s0,0,.05,0m-4.82-.36h0l.06-.06s0,0,0,.07m.1,1a.28.28,0,0,0,0-.09h0a.27.27,0,0,1,0-.17c0,.05,0,.09,0,.13a1.09,1.09,0,0,1-.05.14M22,16.1v0h0l0,0h0l0,0s0,0,0,0h0A.46.46,0,0,1,22,16.1m0,2.72a1,1,0,0,1-.14-.1s0,0,.07-.06a.25.25,0,0,0,0,.07l0,0,0,0,0,.06s0,0,0,0m.23.25h0a.41.41,0,0,1,0-.08.27.27,0,0,1,.07.08h0m.62.63h0m0-.14-.06,0a.77.77,0,0,1,.15.06s0,.06-.05.07a.17.17,0,0,1-.11-.08.26.26,0,0,0-.12-.11s0,.05-.06,0a.24.24,0,0,1-.08-.16,2.34,2.34,0,0,0,.43.26h0a.47.47,0,0,0-.16-.07.24.24,0,0,1,.08.06m.82.24h0M26,16.17h0s0,0,0,0"/><path class="cls-1" d="M20.5,10.17s0-.13,0-.18h0a.74.74,0,0,1,0-.15.69.69,0,0,1,0-.13.17.17,0,0,0,0,.05.37.37,0,0,0,0-.09s0,0,0,0a1.57,1.57,0,0,0,0-.24h0s0-.08,0-.12,0,0,0-.06a.27.27,0,0,0,0-.14l0-.07c0,.09,0,0-.06,0a.43.43,0,0,0,0-.05s0,0,0,0,0-.12,0-.16l0,0v0c0-.05,0,0,0,0s-.06-.09-.13-.11c.09,0-.08-.13,0-.12s0,0-.07,0a.49.49,0,0,1,.07.19l-.05,0s.07.09.08.13,0-.06-.05-.06h0a.29.29,0,0,1,.06.19s0,.07,0,0l0,0s0,0,0,0A1.51,1.51,0,0,0,20,8.79l0,0,0,0h0c0-.06-.07-.11-.1-.16s0-.11,0-.11,0,0-.08-.06.07,0,.09,0,0-.06,0-.07-.15,0-.13.07a.09.09,0,0,1,.06.08,2.39,2.39,0,0,0-.93-.73h-.07a2.58,2.58,0,0,0-2.53,1.36l-.05,0a3,3,0,0,1,.88-1.49h0a1.28,1.28,0,0,0-.45.23s0,0,0,0-.06,0-.1,0l0,.09s0,0,0,0-.23.24-.35.33,0,0,0,.06,0,0-.06,0-.06.07-.06,0-.11.17,0,.2-.05,0-.05,0a1,1,0,0,1-.12.17L15.73,9a.37.37,0,0,0-.05.23c0-.06,0,0,0,0l0,0,0,.1v0s0,0,0,.05a.23.23,0,0,1-.06.11v0s.06-.12.06,0-.07.06-.05.1,0-.05,0,0a.28.28,0,0,0,0,.09l0,0a2.81,2.81,0,0,0,.05.76s0,.17.09.14h0c0-.06,0,0,0,.06s0,.1-.07,0c0,0,0,.07,0,.1s0,.11,0,.18a1.2,1.2,0,0,1,.11.23v0c0,.14.18.25.18.28h0a.36.36,0,0,0,.14.23s0,0,0,0a.19.19,0,0,0,.09.14h0l.1.11s.07,0,.12.07.1.11.15.08.09.11.13.14h0c0,.07.16.06.21.09s0,0,0,0,.2.13.23.12,0,0,.06,0,0,.08.08.08,0,0,0,0,.15-.08.19-.05h0c.07,0,.2,0,.2,0v0c.15,0,.06,0,.21,0h0c.06,0,.09,0,.12,0h.21s.18,0,.21,0,0,0,0,0,.07,0,.12,0,0,.1.14.07h0s0,0,0,0,.11,0,.21,0,0,0,0,0,.11-.1.1,0,.19-.11.29-.17.17-.11.18-.15.07,0,.1-.06h0c.1,0,.06,0,.18-.08-.06,0-.05,0,0-.06l.09,0,0,0a.14.14,0,0,0,.07-.08s0,0,0,0,.14-.08.17-.09.06-.06,0-.11l0,0s0,0,0,0h0l0,0,.06-.06v0a.06.06,0,0,0,0,0h0l0-.06a.37.37,0,0,1,.09-.16.29.29,0,0,0,.07-.18s0,0,0,0,0-.21.07-.26h0a.82.82,0,0,0,.06-.19h0s0-.12,0-.19a.23.23,0,0,0,0-.15m-4.9-.8h0s0,0,0,0m2.87,2.94h0s0,0,0,0h-.1l0,0h0l0,0s0,0,0,0m1.07-.57.05,0,0,0h-.09m.32-3.17h0v0l0,0m.49.63s0,0,0,0h0M20.18,11v0a.29.29,0,0,1-.15.09L20.1,11l.13-.06-.05.06m.07-.4,0-.08h0a.22.22,0,0,0,0-.08h0a.67.67,0,0,1,0,.18h-.09m.07-.42a.28.28,0,0,0,0-.09h0l0,0s0,0,0,.06m0-.45a2.73,2.73,0,0,0-.1-.48h0a.78.78,0,0,0,.06.16.16.16,0,0,1,0-.1l0,.06c0-.05-.06-.08-.07-.15s0-.06.09,0a.13.13,0,0,1,0,.13.28.28,0,0,0,0,.16s0,0,0,.05a.24.24,0,0,1-.06.17"/><path class="cls-1" d="M11,10.14a1.89,1.89,0,0,0,.06-.18s0,0-.06,0a.35.35,0,0,0,.05-.08h0a.16.16,0,0,0,0-.1h0c.05,0,0-.16.05-.18s0-.09-.05-.11a.07.07,0,0,0,0-.05s.05,0,0,0h0a.19.19,0,0,0,0-.08l0,0,0,0h0a.14.14,0,0,1,0-.07.48.48,0,0,1-.05-.17.25.25,0,0,0-.08-.18s0,0,0,.05-.12-.17-.13-.24h0a.67.67,0,0,0-.08-.17l0,0-.11-.16c0-.05-.08-.1-.12-.1s-.09-.08-.12-.12h0a.93.93,0,0,1-.1-.1.52.52,0,0,1-.11-.07h.05l-.08,0,0,0a1.33,1.33,0,0,0-.19-.14h0l-.09-.07s0,0-.05,0a.22.22,0,0,0-.14,0,.15.15,0,0,0-.07,0c.07,0,0,0,0,0l0,0s0,0,0,0-.11,0-.13-.09h0c-.06,0,0,0,0,0s-.11,0-.17,0-.15,0-.1-.08,0,0-.07,0a.41.41,0,0,1,.19.08H9.13c0,.06.12,0,.15,0s-.07,0-.08,0l0,0a.34.34,0,0,1,.18.09c-.06,0,.05,0,0,0h0s0,0,0,0l-.24-.07h0l-.19,0s-.09-.06-.06-.08,0,0-.1,0,.06,0,.08,0,0,0,0,0-.09.11,0,.13a.09.09,0,0,1,.1,0,2.32,2.32,0,0,0-1.95.66l-.09.11c0-.05,0-.09,0-.08l0,0s-.09.1-.14.1l-.06.14s0,0,0,0,0,.05,0,0a3.38,3.38,0,0,1-.22.47,1.38,1.38,0,0,0-.14.49s0,0,0,0,0,.06,0,.09a.42.42,0,0,1,0,.1s0,0,0,0c0,.18,0,.34,0,.48s0,0,0,0,0,0,0,.06,0,.09,0,.07,0,.21.12.16,0,.07,0,0a.86.86,0,0,1,0,.21l.07.19a.49.49,0,0,0,.13.2s0,0,0,.06l0,0,0,.09,0,0s0,0,0,0a.21.21,0,0,1,0,.12h0l0,0s0-.12,0,0,0,.09,0,.1,0-.06,0,0a.18.18,0,0,0,0,.07h0a2.68,2.68,0,0,0,.57.49s.16.1.17,0h0s0,0,.07,0,.06.09-.06,0l0,0h.3a2.59,2.59,0,0,0,2.53-1.36l.05,0a3.06,3.06,0,0,1-.91,1.53s.06-.05.09-.05,0,0,0,0,.22-.05.24-.08,0,0,0-.07,0,.08.12,0h0s.05-.17.1-.17l0,0c.08,0,.11-.17.16-.13v0c.09-.12.06,0,.14-.15h0s0-.08.1-.08v0a.63.63,0,0,0,.11-.12.08.08,0,0,0,0,0s.13-.14.14-.17,0,0,0,0,.06,0,.07-.09.09,0,.14,0l0,0s0,0,0,0,0,0,0,0,.06-.1.12-.18,0,0,0,0,0-.14.06-.08c0-.1.06-.22.08-.33a.42.42,0,0,0,0-.24s0-.07,0-.1Zm-4.53,1s0,0,0,0ZM8.88,7.57h0m.8.09h0m-.07.13h0a.47.47,0,0,0,.16.07.17.17,0,0,1-.08-.06l.06,0s-.09,0-.15-.06,0-.06.05-.07.09,0,.11.08a.28.28,0,0,0,.11.11s0,0,.06,0a.24.24,0,0,1,.08.16,2.26,2.26,0,0,0-.42-.26m.69.49h0a.12.12,0,0,1,0,.07l-.06-.08m.25,3v0h0l0,0h0l0,0s0,0,0,0h0l-.07.07m.06-2.56a.25.25,0,0,1,0-.07l0,0,0,0a.43.43,0,0,1,0-.07,0,0,0,0,1,0,0,1.28,1.28,0,0,1,.15.1.22.22,0,0,1-.07.06m.22.52,0-.13a1.27,1.27,0,0,1,0-.14s0,.06,0,.09h0a.37.37,0,0,1-.05.17m.11.79V9.94H11l-.06.07"/><path class="cls-1" d="M15.73,2.5a.21.21,0,0,0,0-.16h0V2.19s0-.06,0-.13,0-.15-.05-.16,0-.14,0-.19h0c0-.07-.06-.15-.08-.21s0,0,0,0,0-.23-.08-.25,0,0-.07,0,.08,0,0-.12,0,0,0,0-.16-.06-.17-.1h0c0-.08-.17-.11-.13-.16h0c-.12-.09,0-.06-.15-.14h0S15,.68,15,.63h0L14.89.53s0,0-.05,0-.13-.13-.16-.14,0,0,0,0,0-.07-.09-.07a.11.11,0,0,0,0-.08l-.42,0a2.57,2.57,0,0,0-2.53,1.36l-.06,0A3.26,3.26,0,0,1,12.39.14l0,0h.07l0,0h0l.1-.09a.35.35,0,0,1-.11,0,.27.27,0,0,0-.17.08s0,0,.05,0-.17.12-.24.13v0a.76.76,0,0,0-.18.09l0,0-.15.11c-.05,0-.1.08-.1.12s-.09.09-.13.12v0a.46.46,0,0,1-.1.1.31.31,0,0,1-.08.11s0,0,0,0a.15.15,0,0,0,0,.08s0,0,0,0a.85.85,0,0,0-.14.19h0l-.08.1s0,0,0,0a.3.3,0,0,0-.06.14l0,.07c0-.07,0,0,0,0l0,0s0,0,0,0-.06.12-.09.14,0,0,0,0h0c0,.06,0,0,0,0s0,.11,0,.17,0,.15-.08.1,0,0,0,.07a.37.37,0,0,1,.08-.18v.06c.05,0,0-.13,0-.16a.08.08,0,0,0,0,.08l0,0A.24.24,0,0,1,11,1.56c0,.05,0-.06.05,0l0,0s0,0,0,0-.05.16-.07.24a.43.43,0,0,0,0-.05v.06A1.29,1.29,0,0,0,11,2s-.06.09-.08.06,0,0,0,.1,0-.06-.05-.08,0,0,0,0,.12.09.14,0a.09.09,0,0,1,0-.1,2.32,2.32,0,0,0,.66,2,.48.48,0,0,0,.11.09c-.05,0-.09,0-.09,0l0,0s.1.1.1.14l.13.06s0,0,0,0,.06,0,0,0a4,4,0,0,1,.47.22,1.33,1.33,0,0,0,.48.14s0,0,0,0,.05,0,.09,0l.09,0s0,0,0,0c.17,0,.34,0,.48,0s0,0,0,0,0,0,.05,0,.1,0,.08,0,.2,0,.16-.12.06,0,.05,0a.78.78,0,0,1,.21,0l.19-.07c.09,0,.18-.09.19-.13s0,0,.07,0l0,.05.1-.06,0,0s0,0,0,0a.21.21,0,0,1,.12,0h0l0,0s-.12,0,0,0,.09,0,.1,0-.05,0,0,0l.06-.06v0a2.72,2.72,0,0,0,.49-.57s.09-.16,0-.17v0c0,.05,0,0,0-.08s.1-.06,0,.06l.07-.08c.06,0,.09-.06.11-.14a1.69,1.69,0,0,1,.08-.24h0c.08-.13,0-.31.07-.33l0,0a.34.34,0,0,0,.06-.26s0,0,0,0M12,.29s0,0,.06.06L12,.39l0,0,0,0L12,.44a0,0,0,0,1,0,0A.42.42,0,0,1,12,.29M11.76.6l-.08.06h0a0,0,0,0,0,0,0l.08,0m-.7.68h0s0,0,0,0m-.09.8h0l0,0v0m.21-.73h0c0-.08.07-.14.07-.16a.2.2,0,0,1-.06.07s0,0,0-.06,0,.1-.06.16-.07,0-.07-.05a.14.14,0,0,1,.07-.12.23.23,0,0,0,.11-.11s0,0,0-.06a.26.26,0,0,1,.17-.08,3,3,0,0,0-.27.42m3.4,3.14s0,0,0,0Zm0-4.07,0,0v0l0,0s0,0,0,0h0s0,0,0,0l.07.08h-.05"/><path class="cls-1" d="M15.63,16.88s0-.07,0,0c-.07-.17-.12-.33-.18-.49a1.16,1.16,0,0,0-.24-.45s0,0,0,0,0-.06,0-.09l-.1-.05s0,0,0,0-.25-.23-.33-.34,0,0-.07,0,0,0,0-.06-.07-.06-.05-.06-.17-.11-.19,0,0-.06,0-.06a.81.81,0,0,1-.18-.12L14.12,15a.37.37,0,0,0-.23-.05c.06,0,0,0,0,0l.05,0-.11,0h0s0,0,0,0a.13.13,0,0,1-.11-.06h0s.12.05,0,.05-.06-.06-.09,0,0,0,0,0h-.08l0,0a2.4,2.4,0,0,0-.75.06s-.18,0-.14.09h0c.06,0,0,.05-.06.05s-.11,0,0-.07h-.11s-.11,0-.18,0a.94.94,0,0,1-.22.12h0c-.14,0-.25.18-.28.18v0a.33.33,0,0,0-.22.15s0,0,0,0a.27.27,0,0,0-.15.09h0l-.1.1s0,.07-.07.12-.11.1-.08.15-.1.09-.14.13a0,0,0,0,1,0,0c-.07,0-.07.16-.1.22s0,0,0,0-.12.2-.11.24,0,0,0,.05-.08,0-.08.09,0,0,0,0,.08.14.05.18v0c0,.08,0,.2,0,.21h0c0,.14,0,.06,0,.2h0c0,.06,0,.1,0,.13v0a.92.92,0,0,0,0,.16s0,.05,0,.06,0,.19,0,.22,0,0,0,0a.09.09,0,0,0,0,.11s-.09,0-.06.14,0,0,0,0a.06.06,0,0,1,0,0s0,0,0,0,0,.12,0,.22,0,0,0,0,.09.11,0,.1l.17.29a.6.6,0,0,0,.15.18s0,.07.06.1l0,0a1.26,1.26,0,0,0,.08.18c0-.06,0,0,.06,0s0,.06,0,.08h0a.16.16,0,0,0,.07.07s0,0,0,0,.09.13.1.16.06.07.11,0l0,0s-.05,0,0,0h0l0,0a.34.34,0,0,0,.06.06h.23s0,0,0-.07l.11.06h.12a2.57,2.57,0,0,0,2.53-1.35h.05a3.2,3.2,0,0,1-.66,1.29l.17-.09,0,0,0,0h0l.16-.11s.11,0,.11,0,0,0,.06-.08,0,.07,0,.09.06,0,.07,0,0-.15-.07-.13a.09.09,0,0,1-.08.06,2.34,2.34,0,0,0,.91-1.85.68.68,0,0,0,0-.14s.07.07.09,0v0s0-.14,0-.16l-.06-.14s0,0,0,0m-4.76.9v0s0,0,0,0v-.1l0,0v0a.09.09,0,0,1,0,.05h0m.58,1.15v-.09l.05.05a.1.1,0,0,0-.05,0m2.31-4.07h0s0,0,0,0m.83,4.28,0,0h0Z"/><path class="cls-1" d="M5.12,17.08s0-.06,0,0c-.07-.16-.12-.32-.18-.49a1.18,1.18,0,0,0-.24-.44s0,0,0,0,0-.06,0-.09l-.1,0s0,0,0,0-.25-.23-.33-.34,0,0-.07,0,0,0,0-.06-.07-.07,0-.07-.18-.11-.21,0,0-.06,0,0l-.11-.08H3.54A2.55,2.55,0,0,0,1,16.66H1a3.06,3.06,0,0,1,.93-1.54.23.23,0,0,0-.15,0,.94.94,0,0,1-.22.12h0c-.14,0-.25.18-.28.19v0a.36.36,0,0,0-.23.14s0,0,0,0a.23.23,0,0,0-.14.09h0a.52.52,0,0,0-.1.11s0,.06-.07.11-.11.11-.08.15-.1.1-.14.14a0,0,0,0,1,0,0c-.08,0-.07.16-.1.21s0,0,0,0-.12.2-.12.23,0,0,0,.06-.08,0-.08.09l0,0c0,.05.08.15,0,.19v0c0,.08,0,.2,0,.2h0c0,.15,0,.06,0,.21h0c0,.06,0,.09,0,.12v0a1,1,0,0,0,0,.17.06.06,0,0,0,0,.06s0,.18,0,.22,0,0,0,0,0,.06,0,.11-.09,0-.06.14,0,0,0,0,0,0,0,.05,0,0,0,0,0,.11.06.21,0,0,0,0,.09.11,0,.1.12.19.18.28a.46.46,0,0,0,.15.19s0,.06.06.09v0c0,.1,0,.07.08.18,0-.05,0-.05.06,0l0,.09,0,0a.1.1,0,0,0,.07.07s0,0,0,0,.09.14.1.17.06.06.11,0l0,0s-.05,0,0,0h0l0,0,.06.05h0a.07.07,0,0,1,.06,0,.37.37,0,0,1,.16.09.26.26,0,0,0,.18.07l-.05,0c.1,0,.21,0,.27.07v0a.64.64,0,0,0,.18.06v0l.18,0a.26.26,0,0,0,.16,0s.12,0,.18,0v0a.38.38,0,0,1,.15,0,.61.61,0,0,1,.13,0l0,0,.08,0H3a2,2,0,0,0,.24,0h.12s0,0,.06,0a.35.35,0,0,0,.13-.05l.07,0c-.08,0,0,0,0-.06h.05s0,0,0,0,.13,0,.16,0a0,0,0,0,1,0,0h0s0,0,0,0,.09-.06.11-.13c0,.09.13-.08.12,0s0,0,0-.07-.13.06-.19.08l0,0s-.09.07-.13.08a.1.1,0,0,0,.06-.05v0a.29.29,0,0,1-.19.06s-.07,0,0,0h0s0,0,0,0a.94.94,0,0,0,.22-.12.08.08,0,0,1,0,0l0,0v0l.16-.11s.11,0,.1,0,0,0,.07-.08,0,.07,0,.09.06,0,.06,0,0-.14-.06-.12a.11.11,0,0,1-.09.06A2.33,2.33,0,0,0,5,17.46a.68.68,0,0,0,0-.14s.07.06.09,0v0s0-.14,0-.17l-.06-.13s0,0,0,0M.36,18v0s0,0,0,0v-.1l0,0v0h0s0,0,0,0,0,0,0,0m.58,1.15V19a.21.21,0,0,1,0,.06l0,0m.75.54h0a.38.38,0,0,1-.09-.15l.12.07.06.12-.06,0m.57.13-.17,0s0-.05,0-.08l.07,0v0h.07a0,0,0,0,1,0,0m.34,0s0,0,0,0a.13.13,0,0,1-.07,0H2.6m.74,0a.27.27,0,0,0-.16,0s0,0,0,0A.25.25,0,0,1,3,19.79a2.68,2.68,0,0,0,.49-.11h0a.89.89,0,0,0-.16.07s.07,0,.1,0l-.06,0s.08-.05.15-.06.06,0,0,.08a.16.16,0,0,1-.14,0m.15,0h0m.59-.48,0,0h0Z"/><path class="cls-2" d="M36.38,11.31c0-.06.1-.05.1,0,.05.9.49,1.46,1.28,1.46A1.1,1.1,0,0,0,39,11.69c0-.76-.49-1.08-1.33-1.51a1.9,1.9,0,0,1-1.23-1.75A1.47,1.47,0,0,1,38.09,7a2.63,2.63,0,0,1,.84.12.42.42,0,0,1,.32.52c0,.13-.06.49-.08.68a.05.05,0,0,1-.1,0A1.08,1.08,0,0,0,38,7.24a.93.93,0,0,0-1,1,1.49,1.49,0,0,0,1,1.31c1.14.58,1.61,1.07,1.58,1.94A1.63,1.63,0,0,1,37.71,13a2.53,2.53,0,0,1-1-.2.61.61,0,0,1-.37-.49,3.55,3.55,0,0,1,.08-1"/><path class="cls-2" d="M43.32,11.82c0,.78.11.88.65.93a.05.05,0,1,1,0,.1l-1,0-.94,0a.05.05,0,1,1,0-.1c.45-.07.57-.12.59-.93,0-.31,0-1.34,0-1.65,0-.72,0-1.6,0-1.91,0-1-.18-1-.59-1a.05.05,0,1,1,0-.1l.94,0,.84,0c.07,0,.06.09,0,.1-.4.07-.51.08-.52,1,0,.27,0,1.26,0,1.9,0,.32,0,1.35,0,1.66"/><path class="cls-2" d="M48.48,10.29c-.37.57-.86,1.41-1.11,1.89s-.22.51.27.57a.05.05,0,1,1,0,.1l-.82,0-.86,0c-.06,0-.06-.09,0-.1a1,1,0,0,0,.85-.53c.47-.66,1-1.49,1.49-2.22-.48-.77-1-1.63-1.42-2.24-.26-.38-.38-.48-.73-.51-.07,0-.09-.1,0-.1l.86,0,.93,0c.09,0,.07.1,0,.1-.41,0-.41.18-.25.47.28.53.62,1.13,1,1.77.34-.55.66-1.11.92-1.63s.2-.56-.13-.61a.05.05,0,1,1,0-.1l.79,0,.69,0a.05.05,0,1,1,0,.1c-.27,0-.44,0-.77.53-.49.7-1,1.4-1.32,2,.46.73,1.18,1.88,1.61,2.48.27.38.44.49.74.52a.05.05,0,1,1,0,.1l-.86,0-.87,0a.05.05,0,1,1,0-.1c.36,0,.35-.19.18-.48s-.77-1.27-1.19-2"/><path class="cls-2" d="M57,11.31c0-.06.1-.05.1,0,0,.9.49,1.46,1.28,1.46a1.1,1.1,0,0,0,1.24-1.08c0-.76-.49-1.08-1.33-1.51A1.9,1.9,0,0,1,57.1,8.43,1.47,1.47,0,0,1,58.75,7a2.63,2.63,0,0,1,.84.12.42.42,0,0,1,.32.52c0,.13-.06.49-.08.68a.05.05,0,0,1-.1,0,1.08,1.08,0,0,0-1.09-1.1.93.93,0,0,0-1,1,1.49,1.49,0,0,0,1,1.31c1.14.58,1.61,1.07,1.58,1.94A1.63,1.63,0,0,1,58.37,13a2.53,2.53,0,0,1-1-.2A.61.61,0,0,1,57,12.3a3.55,3.55,0,0,1,.08-1"/><path class="cls-2" d="M64,12c0,.55.12.58.6.59h.77c.77,0,.92-.51,1-1.09,0-.06.11-.07.11,0a9.41,9.41,0,0,1,0,1.12c0,.2-.2.28-.55.28s-1.29,0-2.16,0l-1,0a.05.05,0,1,1,0-.1c.49-.06.59-.14.61-.93s0-1.29,0-1.94,0-1.05,0-1.63c0-.76,0-.93-.64-1-.06,0-.08-.1,0-.1l1.08,0,1.92,0c.27,0,.42,0,.4.23s-.06.56-.1.88c0,.06-.12.06-.11,0,0-.46-.16-.77-.63-.8a10.3,10.3,0,0,0-1.26,0c0,.76,0,1.46,0,2.3.37,0,1,0,1.53,0,.27,0,.26-.1.32-.09s0,0,0,.23a3.46,3.46,0,0,1-.09.55c0,.07-.11.07-.11,0,0-.36-.23-.36-.61-.38H64c0,.45,0,1.35,0,1.93"/><path class="cls-2" d="M74.34,12.75c0,.16,0,.19,0,.2s-.08,0-.2-.16c-.59-.67-1.21-1.34-2.33-2.47-.88-.89-1.59-1.62-2-2,0,.71,0,2.46.08,3.75,0,.36.17.6.73.66.07,0,.09.1,0,.1l-1,0-.72,0a.05.05,0,1,1,0-.1c.33-.07.45-.15.48-.62.08-1,.1-2.48.1-3.23,0-.5,0-1.1,0-1.63,0-.14,0-.18,0-.19s.07,0,.2.15c.67.75,1.42,1.54,2.34,2.46s1.47,1.49,2,2c0-1.09,0-2.27,0-3.55,0-.67-.11-.77-.63-.84-.06,0-.07-.1,0-.1l.84,0,.69,0c.07,0,0,.1,0,.1-.35,0-.44.3-.46.72-.06,1.42-.1,2.77-.1,4.78"/><path class="cls-2" d="M77.68,11.31c0-.06.1-.05.1,0,0,.9.49,1.46,1.28,1.46a1.1,1.1,0,0,0,1.24-1.08c0-.76-.49-1.08-1.32-1.51a1.89,1.89,0,0,1-1.23-1.75A1.45,1.45,0,0,1,79.39,7a2.7,2.7,0,0,1,.85.12.44.44,0,0,1,.32.52c0,.13-.07.49-.09.68a.05.05,0,0,1-.1,0,1.08,1.08,0,0,0-1.09-1.1.93.93,0,0,0-1,1,1.49,1.49,0,0,0,1,1.31c1.14.58,1.61,1.07,1.58,1.94A1.63,1.63,0,0,1,79,13a2.52,2.52,0,0,1-1-.2.6.6,0,0,1-.38-.49,3.55,3.55,0,0,1,.08-1"/><path class="cls-2" d="M84.61,12c0,.55.13.58.61.59H86c.77,0,.91-.51,1-1.09,0-.06.11-.07.11,0a9.41,9.41,0,0,1,0,1.12c0,.2-.19.28-.54.28s-1.3,0-2.17,0l-1,0c-.07,0-.06-.1,0-.1.49-.06.59-.14.61-.93s0-1.29,0-1.94,0-1.05,0-1.63c0-.76,0-.93-.63-1-.07,0-.09-.1,0-.1l1.07,0,1.93,0c.26,0,.41,0,.39.23s0,.56-.1.88c0,.06-.12.06-.11,0,0-.46-.16-.77-.62-.8a10.46,10.46,0,0,0-1.27,0c0,.76,0,1.46,0,2.3.38,0,1,0,1.53,0,.27,0,.26-.1.33-.09s0,0,0,.23a3.25,3.25,0,0,1-.1.55c0,.07-.11.07-.11,0,0-.36-.23-.36-.6-.38h-1c0,.45,0,1.35,0,1.93"/><path class="cls-2" d="M89.73,11.31c0-.06.1-.05.1,0,0,.89.48,1.45,1.27,1.45a1.1,1.1,0,0,0,1.24-1.07c0-.77-.48-1.09-1.32-1.52a1.88,1.88,0,0,1-1.23-1.74A1.46,1.46,0,0,1,91.43,7a3,3,0,0,1,.85.12.43.43,0,0,1,.32.52c0,.13-.06.49-.08.69s-.1,0-.1,0a1.1,1.1,0,0,0-1.1-1.11.93.93,0,0,0-1,1c0,.65.45,1,1,1.31,1.13.58,1.6,1.06,1.58,1.94A1.63,1.63,0,0,1,91.06,13a2.56,2.56,0,0,1-1-.19.63.63,0,0,1-.38-.5,3.51,3.51,0,0,1,.09-1"/><path class="cls-3" d="M99.26,11.77c0,.84.16.85.55.91.08,0,.08.1,0,.1l-.88,0-.92,0c-.08,0-.07-.09,0-.1.51-.07.53-.14.57-.91,0-.31,0-1.34,0-1.65,0-.72,0-1.66,0-2,0-.8-.11-.88-.6-1-.08,0-.08-.1,0-.1l.94,0,.85,0c.09,0,.07.1,0,.1-.42.06-.5.18-.51,1,0,.49,0,1.32,0,1.95C99.23,10.43,99.25,11.46,99.26,11.77Zm2.14-4.64c-.09,0-.09.09,0,.1s.17.16.06.29c-.36.43-.51.59-.88,1s-1,1.07-1.24,1.39a1,1,0,0,1,.16.15c.3.36,1,1.1,1.38,1.53.93,1,1.47,1.25,2.25,1.25a2.5,2.5,0,0,0,.61-.07c.07,0,.07-.08,0-.08a2.13,2.13,0,0,1-.58-.09,4.76,4.76,0,0,1-1.46-1.11c-.48-.49-1.37-1.44-1.74-1.86.18-.23.69-.75,1-1.1a13.44,13.44,0,0,1,1-1,1.53,1.53,0,0,1,.9-.35.06.06,0,1,0,0-.11c-.24,0-.45,0-.67,0Z"/><path class="cls-3" d="M105.19,9.78c0-.68,0-1.13,0-1.83,0-.52-.16-.69-.64-.74a.05.05,0,1,1,0-.1l.9,0c.29,0,.76,0,1.14,0,1.6,0,1.81,1,1.81,1.5a1.69,1.69,0,0,1-1,1.55,13.33,13.33,0,0,0,.86,1.22,6.19,6.19,0,0,0,1,1.09,1.22,1.22,0,0,0,.66.22.05.05,0,1,1,0,.1,5,5,0,0,1-.86,0c-.64-.11-.89-.38-1.63-1.43-.28-.4-.49-.72-.68-1a4.81,4.81,0,0,1-.93,0c0,.61,0,1.12,0,1.39,0,.85.11.93.64,1,.07,0,.09.1,0,.1l-1,0-.94,0c-.08,0-.06-.1,0-.1.47-.06.58-.08.6-1C105.2,11.05,105.19,10.43,105.19,9.78Zm1.33-2.43a5.57,5.57,0,0,0-.7,0c0,.55,0,1,0,2.68a4,4,0,0,0,1.11,0c.58-.05.83-.65.83-1.23A1.28,1.28,0,0,0,106.52,7.35Z"/><path class="cls-3" d="M113.05,7.17c.06-.14.08-.16.11-.16s.06,0,.1.16c.26.76,1.13,3.11,1.82,4.85.21.52.36.61.78.66a.05.05,0,1,1,0,.1l-1,0-.8,0a.05.05,0,1,1,0-.1c.34,0,.41-.14.28-.55s-.34-1-.54-1.56H112c-.14.37-.4,1-.54,1.54s.09.54.4.57c.06,0,.07.1,0,.1l-.83,0-.84,0c-.07,0,0-.1,0-.1a.82.82,0,0,0,.73-.51,20.76,20.76,0,0,0,.88-2Zm-.1,1-.42,1-.41,1.07h1.61C113.49,9.61,113.24,8.94,113,8.21Z"/><path class="cls-3" d="M117.59,8.21c0-.72-.06-1-.67-1-.06,0-.07-.1,0-.1l.87,0c.36,0,.7,0,1.1,0,1.07,0,1.51.59,1.51,1.24a1.42,1.42,0,0,1-1,1.35c1,.17,1.49.74,1.51,1.5,0,1.06-.83,1.61-1.86,1.61-.42,0-1-.06-1.24-.06l-.86,0c-.07,0-.06-.1,0-.1.53,0,.57-.22.6-1,0-.44,0-1.27,0-1.58C117.61,9.47,117.61,8.87,117.59,8.21Zm1-.88c-.36,0-.36,0-.36.13,0,.29,0,1.73,0,2.24h.43a1.34,1.34,0,0,0,.52-.07,1,1,0,0,0,.55-.94C119.79,7.89,119.43,7.37,118.61,7.33Zm.06,2.59h-.41c0,.42,0,1.07,0,1.53,0,.26,0,.57,0,.74s0,.22.16.29a1.6,1.6,0,0,0,.7.12,1.1,1.1,0,0,0,1.16-1.17A1.45,1.45,0,0,0,118.67,9.92Z"/><path class="cls-3" d="M124,11.9c0,.54.12.57.6.58h.77c.76,0,.91-.5,1-1.08,0-.06.11-.07.11,0a7.54,7.54,0,0,1,0,1.12c0,.2-.19.27-.54.27s-1.28,0-2.15,0l-1,0a.05.05,0,1,1,0-.1c.48,0,.58-.14.6-.92s0-1.28,0-1.93,0-1.05,0-1.62c0-.76,0-.92-.63-1-.06,0-.08-.1,0-.1l1.07,0,1.92,0c.26,0,.41,0,.39.23s-.06.57-.1.88c0,.06-.12.06-.11,0,0-.46-.16-.76-.62-.8s-.75,0-1.26,0c0,.75,0,1.45,0,2.28a13,13,0,0,0,1.52,0c.27,0,.26-.1.32-.09s0,0,0,.23a3.26,3.26,0,0,1-.09.55c0,.07-.11.07-.11,0,0-.36-.23-.36-.6-.38h-1C123.93,10.43,123.94,11.32,124,11.9Z"/><path class="cls-3" d="M134,7.37a.73.73,0,0,0-.32-.06,2.25,2.25,0,0,0-1.58,1.13,5.36,5.36,0,0,0-1.12,2.76v.65c0,.82.14.77.64.83a.05.05,0,1,1,0,.1l-.95,0-.93,0c-.07,0-.06-.1,0-.1.39-.06.57-.08.57-.83v-.6a5.38,5.38,0,0,0-.83-2.47c-.67-1-1.2-1.39-1.81-1.42a1.44,1.44,0,0,0-.45.06s-.08,0,0-.08a1.29,1.29,0,0,1,.91-.28,2.48,2.48,0,0,1,2,1.38,6.77,6.77,0,0,1,.79,2,5,5,0,0,1,.87-2.16,2.19,2.19,0,0,1,1.78-1.16.6.6,0,0,1,.55.22S134,7.39,134,7.37Z"/><path class="cls-3" d="M139.11,11.76c0,.78.11.88.64.92.08,0,.08.1,0,.1l-1,0-.94,0a.05.05,0,1,1,0-.1c.44-.06.56-.12.58-.92,0-.31,0-1.33,0-1.64,0-.72,0-1.59,0-1.9,0-1-.17-1-.58-1-.07,0-.09-.1,0-.1l.94,0,.83,0c.07,0,.06.1,0,.1-.4.08-.51.09-.52,1,0,.27,0,1.26,0,1.89C139.09,10.43,139.11,11.45,139.11,11.76Z"/><path class="cls-3" d="M141.79,11.26c0-.07.1-.06.1,0,.05.88.48,1.44,1.27,1.44a1.09,1.09,0,0,0,1.23-1.07c0-.75-.48-1.08-1.31-1.5a1.89,1.89,0,0,1-1.23-1.74A1.45,1.45,0,0,1,143.49,7a3.09,3.09,0,0,1,.84.11.43.43,0,0,1,.32.52c0,.13-.07.49-.08.68a.06.06,0,0,1-.11,0,1.07,1.07,0,0,0-1.08-1.09.92.92,0,0,0-1,1,1.49,1.49,0,0,0,1,1.31c1.13.57,1.6,1.05,1.57,1.92a1.62,1.62,0,0,1-1.81,1.5,2.54,2.54,0,0,1-1-.19.62.62,0,0,1-.37-.49A3.45,3.45,0,0,1,141.79,11.26Z"/><path class="cls-3" d="M150.48,11.4c0-.06.11-.08.11,0,0,.35,0,.89,0,1.12s-.2.27-.54.27-1,0-2.21,0l-1,0c-.09,0-.06-.1,0-.1.49,0,.55-.17.57-.92,0-.57,0-1.33,0-1.64,0-.72,0-1.65,0-2,0-.75-.07-.87-.57-1a.05.05,0,1,1,0-.1l.92,0,.84,0c.09,0,.07.1,0,.1-.41.06-.51.18-.51.92l0,1.77c0,.65,0,1.5,0,2s0,.61.57.62h.82C150.21,12.45,150.37,12,150.48,11.4Z"/><path class="cls-3" d="M154.28,7.17c.06-.14.07-.16.11-.16s.06,0,.1.16c.26.76,1.12,3.11,1.82,4.85.21.52.36.61.78.66a.05.05,0,1,1,0,.1l-1,0-.81,0c-.07,0-.06-.1,0-.1.35,0,.41-.14.29-.55s-.34-1-.54-1.56h-1.79c-.14.37-.4,1-.54,1.54s.09.54.39.57a.05.05,0,1,1,0,.1l-.82,0-.84,0c-.07,0,0-.1,0-.1a.82.82,0,0,0,.73-.51,20.76,20.76,0,0,0,.88-2Zm-.1,1-.42,1-.41,1.07H155C154.72,9.61,154.47,8.94,154.18,8.21Z"/><path class="cls-3" d="M163.66,12.68c0,.17,0,.19,0,.2s-.07,0-.2-.15c-.58-.67-1.2-1.34-2.31-2.46-.88-.88-1.58-1.61-2-2,0,.7,0,2.45.08,3.72,0,.37.17.61.73.66.06,0,.08.1,0,.1l-1,0-.72,0c-.07,0-.06-.1,0-.1.33-.06.45-.14.49-.61.07-1,.09-2.46.09-3.21,0-.5,0-1.1,0-1.63,0-.13,0-.17,0-.18s.07,0,.2.15c.67.75,1.41,1.53,2.32,2.44s1.46,1.48,2,1.94c0-1.08,0-2.26-.05-3.53,0-.66-.11-.76-.62-.84-.06,0-.07-.1,0-.1l.83,0,.69,0c.07,0,0,.1,0,.1-.35.06-.44.3-.46.72C163.69,9.34,163.66,10.68,163.66,12.68Z"/><path class="cls-3" d="M168.69,12.84c-.73,0-1.31-.08-1.64-.08l-1.07,0c-.07,0-.06-.09,0-.1.73-.07.72-.28.75-1.22,0-.31,0-1.32,0-1.63,0-.71,0-1.43,0-1.74,0-.68-.19-.83-.67-.88a.05.05,0,0,1,0-.1l1,0,1.57,0c2,0,3.19,1,3.19,2.83A2.87,2.87,0,0,1,168.69,12.84Zm-.07-5.46a8.21,8.21,0,0,0-1.23,0V10.3c0,.92,0,1.56,0,1.84s0,.24.18.3a3,3,0,0,0,1.1.16,2.31,2.31,0,0,0,2.36-2.6A2.42,2.42,0,0,0,168.62,7.38Z"/></svg>