<svg id="Layer_1" data-name="Layer 1" xmlns="http://www.w3.org/2000/svg" viewBox="0 0 100 70"><defs><style>.cls-1{fill:#5c5e5e;}.cls-2{fill:#767b23;}</style></defs><title>logo-main-spa</title><path class="cls-1" d="M.16,66.47c0-.11.18-.1.18,0C.42,68.05,1.2,69,2.6,69a1.94,1.94,0,0,0,2.19-1.9c0-1.35-.86-1.92-2.34-2.68A3.34,3.34,0,0,1,.27,61.38c0-1.5,1.14-2.5,2.91-2.5a4.89,4.89,0,0,1,1.49.21.74.74,0,0,1,.57.92c0,.23-.11.86-.15,1.2,0,.13-.17.09-.17,0A1.93,1.93,0,0,0,3,59.27,1.65,1.65,0,0,0,1.15,61a2.64,2.64,0,0,0,1.79,2.32c2,1,2.84,1.88,2.79,3.42s-1.4,2.66-3.22,2.66a4.66,4.66,0,0,1-1.83-.33A1.12,1.12,0,0,1,0,68.21a6.57,6.57,0,0,1,.15-1.74"/><path class="cls-1" d="M12.43,67.37c.05,1.38.18,1.56,1.14,1.64a.09.09,0,1,1,0,.18c-.59,0-1.25,0-1.72,0s-1.15,0-1.67,0a.09.09,0,1,1,0-.18c.79-.11,1-.21,1-1.64,0-.55,0-2.37,0-2.92,0-1.26,0-2.82,0-3.37-.05-1.69-.31-1.69-1-1.79-.12,0-.15-.18,0-.18.44,0,1.2,0,1.67,0l1.48,0c.12,0,.11.16,0,.18-.7.13-.9.15-.93,1.79,0,.48,0,2.23,0,3.36,0,.56,0,2.38,0,2.93"/><path class="cls-1" d="M21.54,64.66c-.65,1-1.51,2.5-2,3.34-.35.67-.37.91.49,1,.12,0,.15.18,0,.18-.49,0-1.09,0-1.44,0s-1,0-1.53,0c-.11,0-.11-.16,0-.18a1.78,1.78,0,0,0,1.51-.94c.83-1.15,1.82-2.63,2.63-3.91-.84-1.36-1.8-2.89-2.51-4-.46-.68-.67-.84-1.3-.91-.12,0-.15-.18,0-.18.5,0,1.12,0,1.52,0s1.07,0,1.66,0c.14,0,.11.18,0,.18-.73.08-.73.32-.46.84.51.93,1.11,2,1.77,3.12.6-1,1.17-2,1.62-2.87s.36-1-.22-1.09c-.12,0-.15-.18,0-.18l1.39,0,1.22,0a.09.09,0,1,1,0,.18c-.47.07-.78.1-1.36.94-.86,1.24-1.71,2.47-2.32,3.48C23.05,65,24.31,67,25.08,68.1c.47.67.77.86,1.31.91a.09.09,0,0,1,0,.18c-.52,0-1.12,0-1.52,0s-1,0-1.55,0a.09.09,0,0,1,0-.18c.64-.06.62-.32.33-.84-.42-.77-1.36-2.24-2.11-3.51"/><path class="cls-1" d="M36.67,66.48c0-.12.18-.1.18,0,.08,1.57.86,2.56,2.25,2.56a1.93,1.93,0,0,0,2.19-1.9c0-1.34-.86-1.91-2.33-2.67a3.34,3.34,0,0,1-2.18-3.09c0-1.49,1.14-2.5,2.91-2.5a5.22,5.22,0,0,1,1.49.21.76.76,0,0,1,.57.93c0,.23-.11.86-.15,1.2,0,.13-.18.08-.18,0a1.92,1.92,0,0,0-1.93-1.95A1.65,1.65,0,0,0,37.66,61a2.64,2.64,0,0,0,1.79,2.32c2,1,2.83,1.88,2.79,3.42s-1.4,2.66-3.22,2.66a4.46,4.46,0,0,1-1.83-.34,1.11,1.11,0,0,1-.67-.87,6.57,6.57,0,0,1,.15-1.74"/><path class="cls-1" d="M48.91,67.62c0,1,.23,1,1.07,1,.68,0,1,0,1.36,0,1.37,0,1.63-.89,1.82-1.91,0-.11.2-.13.2,0a13.17,13.17,0,0,1-.09,2c-.06.36-.34.49-1,.49-.81,0-2.29-.07-3.83-.07l-1.84,0a.09.09,0,1,1,0-.18c.86-.1,1-.24,1.07-1.64,0-1.13,0-2.27,0-3.42,0-1,0-1.87,0-2.89,0-1.35,0-1.64-1.11-1.77-.12,0-.15-.18,0-.18.53,0,1.36,0,1.89,0,1,0,2.55,0,3.41,0,.47,0,.73,0,.7.41s-.1,1-.18,1.55c0,.12-.21.12-.19,0,0-.81-.28-1.34-1.11-1.41s-1.33-.06-2.24,0c0,1.35,0,2.59,0,4.06a24.9,24.9,0,0,0,2.71,0c.47,0,.45-.17.56-.16s0,.08,0,.41a5.78,5.78,0,0,1-.16,1c0,.11-.2.11-.2,0,0-.65-.4-.65-1.07-.68-.29,0-1.31,0-1.83,0,0,.79,0,2.38,0,3.41"/><path class="cls-1" d="M67.25,69c0,.29,0,.34,0,.36s-.13,0-.35-.28c-1-1.18-2.13-2.37-4.11-4.36-1.56-1.58-2.81-2.88-3.49-3.51,0,1.25,0,4.35.15,6.62,0,.65.31,1.07,1.3,1.17.11,0,.14.18,0,.18l-1.72,0c-.28,0-.85,0-1.29,0a.09.09,0,1,1,0-.18c.59-.11.8-.26.86-1.09.13-1.8.17-4.38.17-5.71,0-.88,0-2,0-2.89,0-.24,0-.31.06-.32s.12,0,.35.26c1.2,1.33,2.51,2.72,4.13,4.35,1.41,1.41,2.6,2.63,3.48,3.44,0-1.92,0-4-.08-6.27-.07-1.18-.2-1.36-1.11-1.49a.09.09,0,1,1,0-.18l1.48,0,1.22,0c.13,0,.09.18,0,.18-.62.1-.78.54-.82,1.28-.09,2.5-.16,4.89-.16,8.44"/><path class="cls-1" d="M73.15,66.48c0-.12.18-.1.18,0,.08,1.57.86,2.56,2.25,2.56a1.93,1.93,0,0,0,2.19-1.9c0-1.34-.86-1.91-2.33-2.67a3.34,3.34,0,0,1-2.18-3.09c0-1.49,1.14-2.5,2.91-2.5a5.22,5.22,0,0,1,1.49.21.76.76,0,0,1,.57.93c0,.23-.12.86-.15,1.2,0,.13-.18.08-.18,0A1.92,1.92,0,0,0,76,59.27,1.65,1.65,0,0,0,74.14,61a2.64,2.64,0,0,0,1.78,2.32c2,1,2.84,1.88,2.79,3.42s-1.39,2.66-3.21,2.66a4.42,4.42,0,0,1-1.83-.34,1.11,1.11,0,0,1-.67-.87,6.17,6.17,0,0,1,.15-1.74"/><path class="cls-1" d="M85.39,67.62c0,1,.23,1,1.07,1,.68,0,1,0,1.36,0,1.37,0,1.63-.89,1.82-1.91,0-.11.2-.13.2,0a13.17,13.17,0,0,1-.09,2c-.06.36-.34.49-1,.49-.81,0-2.29-.07-3.83-.07l-1.84,0a.09.09,0,0,1,0-.18c.86-.1,1-.24,1.07-1.64,0-1.13,0-2.27,0-3.42,0-1,0-1.87,0-2.89,0-1.35,0-1.64-1.11-1.77-.12,0-.15-.18,0-.18.53,0,1.36,0,1.89,0,1,0,2.55,0,3.41,0,.47,0,.73,0,.7.41s-.1,1-.18,1.55c0,.12-.21.12-.19,0,0-.81-.28-1.34-1.11-1.41s-1.33-.06-2.24,0c0,1.35,0,2.59,0,4.06a24.9,24.9,0,0,0,2.71,0c.47,0,.45-.17.56-.16s0,.08,0,.41a5.78,5.78,0,0,1-.16,1c0,.11-.2.11-.2,0,0-.65-.4-.65-1.07-.68-.29,0-1.31,0-1.83,0,0,.79,0,2.38,0,3.41"/><path class="cls-1" d="M94.43,66.48c0-.12.18-.1.18,0,.08,1.57.86,2.56,2.26,2.56a1.94,1.94,0,0,0,2.19-1.9c0-1.34-.86-1.91-2.34-2.67a3.32,3.32,0,0,1-2.17-3.09c0-1.49,1.13-2.5,2.9-2.5a5.16,5.16,0,0,1,1.49.21.76.76,0,0,1,.57.93c0,.23-.11.86-.15,1.2,0,.13-.17.08-.17,0a1.93,1.93,0,0,0-1.93-1.95A1.66,1.66,0,0,0,95.42,61a2.66,2.66,0,0,0,1.79,2.32c2,1,2.84,1.88,2.79,3.42s-1.4,2.66-3.22,2.66A4.46,4.46,0,0,1,95,69.09a1.08,1.08,0,0,1-.66-.87,6.18,6.18,0,0,1,.14-1.74"/><path class="cls-2" d="M79.4,45.6s0,.07.07,0,0-.06-.07,0"/><polygon class="cls-2" points="78.52 46.11 78.66 46.08 78.63 46.07 78.52 46.11"/><path class="cls-2" d="M78.31,46.26c-.11.12-.35.12-.37.24a4.26,4.26,0,0,1,.48-.24l-.1,0Z"/><path class="cls-2" d="M77.63,46.88l.07,0,0,0c-.2.06-.08,0-.09.05"/><path class="cls-2" d="M77.7,46.85s.09,0,0,0"/><path class="cls-2" d="M77.37,47.05c-.05,0,0,0,.07-.07h-.13c0,.06-.06.09.06.07"/><path class="cls-2" d="M77.25,47h-.06s0,0,.06,0"/><path class="cls-2" d="M77.31,46.94c-.06,0,0,0-.06,0l.13,0c-.06,0-.09,0-.07,0"/><path class="cls-2" d="M77.45,46.82c.12,0,0,0,0,.07.21-.07.21-.15,0-.07"/><path class="cls-2" d="M77.92,46.37l-.06.06s.1-.06.14-.07Z"/><path class="cls-2" d="M76.62,47.24s.08-.06.12-.09h-.09s0,.07,0,.09"/><path class="cls-2" d="M76.52,47.14h.13s0,0-.13,0"/><path class="cls-2" d="M77.13,46.86h0Z"/><path class="cls-2" d="M76.07,47.32l.15,0-.09,0Z"/><path class="cls-2" d="M75.8,47.36a.4.4,0,0,1-.25,0,.61.61,0,0,0,.24.06c-.06,0,.07-.06,0-.1"/><path class="cls-2" d="M76.22,47.27a.18.18,0,0,0,.09-.08h0Z"/><polygon class="cls-2" points="76.15 47.22 76.26 47.2 76.26 47.2 76.15 47.22"/><path class="cls-2" d="M76.72,46.91c-.13.09,0,.08.11.09-.12,0,0-.06-.11-.09"/><path class="cls-2" d="M76.49,47.07l-.12,0h.14s0,0,0,0"/><polygon class="cls-2" points="76.32 47.12 76.37 47.11 76.3 47.1 76.32 47.12"/><path class="cls-2" d="M75.7,47.24l-.24,0a1.12,1.12,0,0,1,.2,0c.09,0,0,0,0,0"/><polygon class="cls-2" points="74.75 47.25 74.77 47.25 74.77 47.24 74.75 47.25"/><path class="cls-2" d="M75.71,47.23s0,0,0,0h.14a.25.25,0,0,0-.13,0"/><path class="cls-2" d="M75.33,47.3l-.1,0s.07,0,.1,0"/><path class="cls-2" d="M75.94,47.25h-.1l.08,0,0,0"/><path class="cls-2" d="M74.88,47.32a.89.89,0,0,1,.2-.06h-.32s0,0,.12.07"/><path class="cls-2" d="M75.34,47.3h0s-.09,0,0,0h-.25l.26,0"/><path class="cls-2" d="M75.34,47.29s0,0,0,0h0l.14,0h-.15c.19,0-.14-.08.12-.07-.1,0,0-.07-.21-.07s0,.09.09.15l0,0Z"/><path class="cls-2" d="M76.56,46.84v0s0,0,0,0"/><path class="cls-2" d="M76.47,46.88a.53.53,0,0,0-.09.16s.09-.1.19-.14h0c.1,0,0-.06,0-.06s0,0,0,0-.07,0-.09,0"/><path class="cls-2" d="M75.69,47.08h.21s0-.06-.11,0v0Z"/><path class="cls-2" d="M74.63,47.24l.12.1,0-.06Z"/><polygon class="cls-2" points="74.37 47.25 74.44 47.29 74.44 47.24 74.37 47.25"/><path class="cls-2" d="M69.46,42.6c-.06,0,0,.09.11.17a.33.33,0,0,1,0-.15Z"/><path class="cls-2" d="M71.6,46a.5.5,0,0,0,.18.1c0-.06-.09-.06-.18-.1"/><path class="cls-2" d="M73.72,35.84s0,0-.06,0,0,0,.06,0"/><path class="cls-2" d="M71.6,46a.58.58,0,0,1-.14-.13l0,0a.26.26,0,0,0,.19.15"/><path class="cls-2" d="M73.32,47h0"/><path class="cls-2" d="M73.44,47h0s.06,0,0,0"/><path class="cls-2" d="M73.24,47l.08,0s0,0,0,0l-.1,0"/><path class="cls-2" d="M69.93,43.78a.12.12,0,0,0,0,0s0,0,0,0"/><path class="cls-2" d="M73.91,47.15a.13.13,0,0,1-.12,0l.12,0s0,0,0,0"/><path class="cls-2" d="M75.12,47v0h-.05c-.08,0,0,0,.05,0"/><path class="cls-2" d="M74.25,47h0c-.08,0-.16-.06-.18,0s.18.08.17,0"/><path class="cls-2" d="M74.36,47l-.08,0s.09,0,.08,0"/><path class="cls-2" d="M73.18,46.94s0-.06,0-.07c-.21-.12,0,.15,0,.07"/><polygon class="cls-2" points="74.14 46.9 74.19 46.84 74.11 46.84 74.14 46.9"/><polygon class="cls-2" points="79.62 45.35 79.6 45.43 79.66 45.33 79.62 45.35"/><polygon class="cls-2" points="62.38 18.27 62.48 18.32 62.36 18.24 62.38 18.27"/><polygon class="cls-2" points="64.84 19.19 64.94 19.25 64.85 19.19 64.84 19.19"/><polygon class="cls-2" points="64.74 19.23 64.75 19.2 64.7 19.17 64.74 19.23"/><polygon class="cls-2" points="65.91 20.23 65.93 20.23 65.92 20.22 65.91 20.23"/><polygon class="cls-2" points="66.14 20.47 66.19 20.5 66.17 20.43 66.14 20.47"/><polygon class="cls-2" points="66.03 20.92 66.08 20.98 66.1 20.91 66.03 20.92"/><polygon class="cls-2" points="61.13 18.05 61.17 18.07 61.25 18.02 61.13 18.05"/><polygon class="cls-2" points="35.99 19.06 36.02 19.07 36.13 19.03 35.99 19.06"/><polygon class="cls-2" points="38.4 17.94 38.4 17.94 38.5 17.92 38.4 17.94"/><polygon class="cls-2" points="38.28 18.03 38.35 18.04 38.33 18.02 38.28 18.03"/><polygon class="cls-2" points="39.88 17.89 39.89 17.9 39.9 17.89 39.88 17.89"/><polygon class="cls-2" points="40.21 17.91 40.28 17.89 40.21 17.85 40.21 17.91"/><polygon class="cls-2" points="40.46 18.3 40.55 18.31 40.51 18.24 40.46 18.3"/><polygon class="cls-2" points="34.99 19.82 35.03 19.8 35.05 19.71 34.99 19.82"/><polygon class="cls-2" points="45.75 9.47 45.76 9.44 45.72 9.33 45.75 9.47"/><path class="cls-2" d="M44.62,7.06l0-.1Z"/><polygon class="cls-2" points="44.7 7.12 44.72 7.17 44.72 7.11 44.7 7.12"/><polygon class="cls-2" points="44.58 5.57 44.59 5.57 44.58 5.56 44.58 5.57"/><polygon class="cls-2" points="44.53 5.25 44.59 5.25 44.58 5.18 44.53 5.25"/><polygon class="cls-2" points="44.93 4.95 44.99 4.99 44.99 4.91 44.93 4.95"/><polygon class="cls-2" points="46.5 10.47 46.48 10.42 46.39 10.4 46.5 10.47"/><polygon class="cls-2" points="55.8 41.86 55.75 41.96 55.83 41.85 55.8 41.86"/><polygon class="cls-2" points="54.86 44.43 54.92 44.34 54.92 44.34 54.86 44.43"/><polygon class="cls-2" points="54.88 44.24 54.91 44.24 54.93 44.2 54.88 44.24"/><polygon class="cls-2" points="53.89 45.44 53.9 45.43 53.89 45.42 53.89 45.44"/><polygon class="cls-2" points="53.62 45.7 53.7 45.69 53.66 45.65 53.62 45.7"/><polygon class="cls-2" points="53.15 45.6 53.21 45.62 53.2 45.55 53.15 45.6"/><polygon class="cls-2" points="55.98 40.65 56.03 40.73 56 40.61 55.98 40.65"/><polygon class="cls-2" points="31.18 42.34 31.13 42.45 31.2 42.33 31.18 42.34"/><polygon class="cls-2" points="30.24 44.91 30.3 44.82 30.3 44.82 30.24 44.91"/><polygon class="cls-2" points="30.26 44.72 30.28 44.72 30.31 44.68 30.26 44.72"/><polygon class="cls-2" points="29.27 45.92 29.28 45.91 29.27 45.9 29.27 45.92"/><polygon class="cls-2" points="29 46.19 29.08 46.17 29.04 46.13 29 46.19"/><polygon class="cls-2" points="28.52 46.09 28.59 46.1 28.58 46.03 28.52 46.09"/><polygon class="cls-2" points="31.36 41.13 31.41 41.21 31.37 41.09 31.36 41.13"/><path class="cls-2" d="M31.29,41.42l.08-.07-.09,0a.18.18,0,0,1,0,.1"/><path class="cls-2" d="M45,24.28c.12-.21.05-.17.16-.43-.07.11-.09.06-.14-.05a1.42,1.42,0,0,0,.11-.18l-.08,0a.49.49,0,0,0,0-.24s0,0,0,0,.07-.37.12-.42c-.13-.07,0-.23-.12-.26s0-.07,0-.11.11,0,.07,0h0l-.07,0a1,1,0,0,0,0-.2l0,.06L45,22.29v0h0a.18.18,0,0,1,0-.15.79.79,0,0,1-.12-.41.62.62,0,0,0-.18-.41s.06.08,0,.11c-.09-.23-.28-.4-.31-.55l.06,0a1.83,1.83,0,0,0-.21-.42l.05-.05c-.07-.08-.15-.22-.24-.35s-.2-.24-.29-.24-.21-.2-.28-.3l-.06,0a1.16,1.16,0,0,1-.25-.25c-.3-.11-.47-.37-.71-.51h0l-.22-.18c0,.08,0-.06-.12-.08a.52.52,0,0,0-.31-.13l-.17-.07c.17.11,0,.06-.07.11l-.09-.08c-.05,0,0,.07,0,.05s-.27-.13-.31-.21a.13.13,0,0,1,.08,0h0l0,0c-.14,0-.08,0-.07-.06-.18,0-.26,0-.4,0,.19-.08-.36-.08-.23-.17-.14.07-.09,0-.17.06a.89.89,0,0,1,.43.19l-.14,0c.06.12.29,0,.35.09s-.16-.05-.17,0l.06-.08a.83.83,0,0,1,.42.21c-.13,0,.12.1,0,.12l-.08,0s0,0,0,0l-.46-.14h0l-.09,0-.49-.1c0-.08-.22-.14-.15-.19s-.06.07-.22,0S40,18,40,18c-.13,0-.13-.06-.13-.09s-.22.26-.1.31a.27.27,0,0,1,.24,0,5.49,5.49,0,0,0-4.57,1.57c-.08.08-.14.16-.21.24,0-.1,0-.2-.1-.18l.08-.07c-.09,0-.22.25-.33.24a3.05,3.05,0,0,0-.13.32s-.09,0-.07-.07-.1.12-.07,0c-.15.39-.34.74-.52,1.1a3.13,3.13,0,0,0-.34,1.14c0,.05,0,0-.06,0,.06.16-.07.13-.09.2s.05.16.08.23-.07,0-.09,0c-.08.41,0,.8,0,1.13,0,.1.1,0,.12.1-.07-.09-.07,0-.07.12s0,.22,0,.17c.14.12.11.48.28.39,0,.15-.05.14-.08.1a1.89,1.89,0,0,1,.09.49s.09.26.18.46a.87.87,0,0,0,.3.45c-.13-.06,0,0,0,.15l-.11-.05a2.39,2.39,0,0,0,.13.21s0,.06,0,0,0,0,.11.05a.37.37,0,0,1,.08.27h0l.06.1c0,.07-.11-.29.09-.09,0,0,0,.21.08.24-.09-.12,0-.13,0-.11a.64.64,0,0,0,.13.15h-.12a6.5,6.5,0,0,0,1.34,1.15c0-.08.37.22.39.08h0c-.11-.09.09-.07.18,0-.12,0,.14.22-.14.09l.07.07.69,0c1.73,0,4.79-.42,5.92-3.18l.13,0a7,7,0,0,1-2.11,3.55.75.75,0,0,1,.18-.09c.1,0,.07,0,0,.08.14-.15.53-.13.58-.2s0-.09,0-.15c.2-.08.06.18.27,0,0,0-.09,0-.07,0s.12-.37.23-.39l0,.07c.19-.06.27-.4.38-.31l0,.06c.21-.27.13-.07.33-.35h0c.12-.09.12-.21.24-.18l0,0a1.41,1.41,0,0,0,.25-.29s.1-.06.1-.1.3-.32.34-.39c-.1.12-.09,0-.1,0s.15-.08.17-.21c.1.05.22.09.35-.12,0,0-.07.07-.08,0s0-.07.06-.09-.06,0-.08,0c.17-.09.14-.24.27-.45-.06.06-.06,0-.08-.05s0-.33.14-.19c0-.24.13-.51.19-.76a1.58,1.58,0,0,0,0-.57c0-.05.05-.17.05-.25Zm-10.6,2.43s0-.06,0,0Zm5.66-8.47h0m1.86.23h0c.06,0,.1,0,0,0m.14.43.11,0a.43.43,0,0,1-.19-.13l.14,0c-.1-.06-.21,0-.35-.14,0,0,0-.16.12-.16a.33.33,0,0,1,.26.17.61.61,0,0,0,.27.26s0-.12.13,0a.78.78,0,0,1,.22.37,7.92,7.92,0,0,0-.71-.47M43.41,20a.11.11,0,0,0,.07,0,.62.62,0,0,1,0,.16,1.34,1.34,0,0,1-.11-.14m.55,7v-.11l0,0,0,0h0l0-.09s0,0,0,.06l0,0c.05,0,.09,0,.08,0L44,26.9m.16-6a1,1,0,0,1-.1-.17l.07-.08-.09.06a.91.91,0,0,0-.11-.16s0,0,0,0a1.68,1.68,0,0,1,.33.23s-.07.09-.14.13m.53,1.18-.1-.28a2.08,2.08,0,0,1,.1-.3c0,.07,0,.13,0,.19l.06,0a.66.66,0,0,1-.08.36M44.88,24c0-.05,0-.09,0-.14s.09,0,.12,0l-.13.14"/><path class="cls-2" d="M56.15,6.39s0,0,0,0A.47.47,0,0,0,56.2,6h0c0-.12,0-.23,0-.35s-.08-.14-.07-.31S56.1,5,56,5a1.13,1.13,0,0,0,0-.45l0,0c.07-.16-.15-.36-.19-.5s0-.08.08,0c-.15-.15-.12-.53-.19-.58s-.1,0-.15,0c-.09-.2.18-.06,0-.27,0,0,0,.09,0,.07s-.37-.12-.39-.23l.07,0c-.06-.2-.4-.27-.31-.38l.07,0c-.28-.21-.07-.14-.35-.34h0c-.09-.11-.2-.11-.18-.23l.05,0a3.58,3.58,0,0,0-.29-.26s-.07-.09-.1-.09-.32-.3-.39-.34c.11.1,0,.09,0,.1a.23.23,0,0,0-.21-.18.27.27,0,0,0,0-.16,8.07,8.07,0,0,0-1-.05c-1.73,0-4.79.41-5.92,3.18l-.13,0A7.25,7.25,0,0,1,48.26.84l-.08,0,.13,0,.27-.22L48.4.6A.64.64,0,0,0,48,.78s.09-.06.11,0c-.22.09-.39.28-.55.31l0-.06a1.74,1.74,0,0,0-.41.21l0-.05a3.27,3.27,0,0,1-.36.23c-.13.1-.24.2-.24.3s-.2.21-.29.28V2a1.34,1.34,0,0,1-.24.24c-.12.31-.38.48-.52.72h0l-.17.22c.08,0-.06,0-.09.11a.66.66,0,0,0-.13.32A1.11,1.11,0,0,1,45,3.8c.12-.17.07.05.12.08L45,4s.07-.05.06,0-.13.27-.22.31,0,0,0-.08h0l0,0c0,.14,0,.08-.06.07,0,.18,0,.25,0,.4-.09-.19-.08.36-.18.23.07.14,0,.08.06.17a.9.9,0,0,1,.2-.43l0,.14c.13-.06,0-.29.09-.36s0,.17,0,.18l-.07-.06a.83.83,0,0,1,.2-.42c0,.12.11-.12.13,0l0,.09s0,0,0,0c-.05.15-.1.3-.14.46v0l0,.09h0c0,.16-.07.32-.09.49-.09,0-.15.22-.2.14,0,.09.07.06,0,.23s-.08-.14-.1-.19c0,.13-.07.13-.09.13s.26.21.31.09a.26.26,0,0,1,0-.23A5.52,5.52,0,0,0,46.5,10l.23.21c-.1,0-.19,0-.17.1l-.07-.08c0,.09.24.22.23.33l.32.13s0,.09-.06.07.12.1,0,.07c.39.15.73.34,1.1.52a3.28,3.28,0,0,0,1.13.34c.05,0,0,0,0,.05.16-.05.13.07.21.1l.23-.09c.08.05,0,.08,0,.1.4.08.8,0,1.12,0,.1,0,0-.1.11-.13-.1.08,0,.08.12.08s.22,0,.17,0c.11-.14.48-.11.38-.28.16,0,.15.05.11.07a1.44,1.44,0,0,1,.49-.08s.25-.09.45-.18a.91.91,0,0,0,.46-.3c-.06.13,0,0,.14,0l-.05.11.22-.13,0,0s0,0,0-.11a.43.43,0,0,1,.27-.09l0,0,.1-.07c.07-.05-.29.12-.08-.08,0,0,.2,0,.23-.09-.11.09-.13,0-.1,0l.15-.13v.12a6,6,0,0,0,1.14-1.35c-.07,0,.23-.36.08-.38v0c-.08.11-.06-.09,0-.18,0,.12.22-.14.09.14,0-.06.11-.12.16-.19s.21-.15.26-.33A2.52,2.52,0,0,1,56,7.8a.05.05,0,0,1,0,0c.18-.29.11-.72.16-.78L56,7a.81.81,0,0,0,.14-.62M47.46,1.2s.09.07.13.14l-.17.1-.08-.07,0,.09-.15.11a.05.05,0,0,1,0,0,1.34,1.34,0,0,1,.24-.33m-.69.73-.13.12s0-.06,0-.07l.15-.05m-1.62,1.6h0c0-.07,0-.1,0,0m-.22,1.86h0v0m.65-2a.37.37,0,0,0,0-.11.41.41,0,0,1-.13.19c0-.05,0-.1,0-.15-.06.11,0,.22-.14.36,0-.05-.15,0-.16-.12a.34.34,0,0,1,.18-.26A.66.66,0,0,0,45.66,3s-.11,0,0-.14a.71.71,0,0,1,.37-.21,6.33,6.33,0,0,0-.48.71m7.82,7.66s-.06,0,0,0Zm.08-9.55,0,0,0-.05v0a.19.19,0,0,0-.09-.05,0,0,0,0,1,.06,0l0,0s0-.09,0-.09.11.12.17.17h-.11"/><path class="cls-2" d="M81.05,42.17c.07-.41,0-.8,0-1.12,0-.1-.1,0-.12-.11.07.09.08,0,.07-.12s0-.22,0-.17c-.14-.11-.11-.48-.28-.38,0-.16,0-.15.08-.11a1.75,1.75,0,0,1-.09-.49s-.09-.25-.17-.46-.21-.41-.31-.45c.13.06,0,0,0-.14l.12.05-.13-.22s0-.06,0-.05,0,0-.11,0a.47.47,0,0,1-.08-.27l0,0L80,38c0-.06.11.3-.08.09,0,0,0-.21-.09-.23.09.11,0,.13,0,.1l-.13-.15h.12a6.17,6.17,0,0,0-1.34-1.14c0,.07-.37-.23-.39-.09h0c.12.09-.09.07-.18,0,.12,0-.14-.22.14-.09L78,36.41l-.69,0c-1.73,0-4.79.41-5.92,3.18l-.13,0A7,7,0,0,1,73.38,36l-.18.1c-.1,0-.07,0,0-.09-.14.15-.53.13-.58.2s0,.1,0,.16c-.2.08-.06-.19-.27,0,0,0,.09,0,.08,0s-.13.38-.24.4l0-.07c-.19.06-.27.4-.38.3l0-.06c-.21.28-.13.07-.33.35h0c-.12.1-.12.21-.24.19l0-.05a2.37,2.37,0,0,0-.25.29s-.09.07-.09.1-.3.32-.34.4c.09-.12.08,0,.09,0s-.15.08-.17.21c-.1,0-.22-.09-.35.13,0,0,.07-.08.08,0s0,.07-.06.08.07,0,.09,0c-.17.1-.14.25-.28.45.06-.06.06,0,.08.05s0,.34-.14.2c0,.23-.13.51-.18.76a1.19,1.19,0,0,0,0,.56c0,.05-.05.17-.07.25h.06a3,3,0,0,0-.16.43c.07-.11.09-.06.14.05l-.11.18.09,0a.39.39,0,0,0,0,.24s0,0,0,0-.07.37-.11.43c.12.06,0,.22.11.26s0,.07,0,.1-.11,0-.07,0v0h.07a1.15,1.15,0,0,0,0,.21l-.05-.07.06.08v0a.25.25,0,0,1,.05.16.89.89,0,0,1,.11.41.76.76,0,0,0,.14.35s0,0,0-.06c.09.23.29.4.32.56l-.07,0a2.61,2.61,0,0,0,.21.41l0,0c.07.08.15.23.24.36s.2.23.3.23.2.21.28.3l.06,0a1.75,1.75,0,0,1,.24.25c.31.12.47.37.71.52v0l.23.18c0-.08,0,.06.11.08a.54.54,0,0,0,.31.13l.17.07c-.17-.11,0-.06.07-.11l.09.08s0-.07,0-.05.27.13.32.22h-.08s0,0,0,0h0s0,0,0,0,.08,0,.07.07c.19,0,.26,0,.4,0-.19.09.36.08.23.18.14-.08.09,0,.18-.06a1,1,0,0,1-.44-.2l.14,0c0-.12-.29,0-.35-.08s.16,0,.17,0l-.06.07a.83.83,0,0,1-.42-.21c.13,0-.12-.1,0-.12l.08,0s0,0,0,0l.46.14h0l.09,0h0l.48.09c0,.08.22.14.15.2.08,0,.06-.07.23,0s-.15.08-.19.1c.12.05.12.07.12.09s.22-.26.1-.31a.32.32,0,0,1-.24,0,5.52,5.52,0,0,0,4.57-1.58,2.25,2.25,0,0,0,.21-.24c0,.1,0,.2.1.18l-.08.07c.09,0,.23-.24.33-.23s.09-.21.13-.32.09,0,.07.06.1-.12.07,0c.15-.39.35-.73.52-1.1a3.07,3.07,0,0,0,.34-1.14c0-.05,0,0,.06,0-.06-.15.07-.12.09-.2L81,42.18c0-.08.07,0,.1,0m-11.29-.85h-.12l.13-.13a.57.57,0,0,1,0,.13M70,43.64a1.23,1.23,0,0,0,0-.19l-.06,0a.67.67,0,0,1,.09-.36,2.31,2.31,0,0,0,.1.28,3,3,0,0,1-.11.3m.69-5.4v.11l0,0-.06,0h0l-.05.09s0,0,0-.06l0,0s-.09,0-.08,0l.16-.17m0,6.36a2,2,0,0,1-.33-.23s.07-.09.15-.13l.09.17-.07.08.09-.06a.91.91,0,0,0,.11.16s0,0,0,0m.45.61a.66.66,0,0,1,0-.15l.12.13a.12.12,0,0,0-.08,0m1.55,1.46h0c-.06,0-.1,0,0,0m0-.07a.36.36,0,0,1-.26-.18.55.55,0,0,0-.27-.26s0,.13-.13,0a.78.78,0,0,1-.22-.37,5.56,5.56,0,0,0,.72.47s-.09,0-.12,0a.36.36,0,0,1,.19.13l-.14,0c.1.06.21,0,.36.13-.06,0,0,.16-.13.17m1.8.29h0Zm5.65-8.48,0,0s0,.06,0,0"/><path class="cls-2" d="M67.27,24.34c.06-.05,0-.29,0-.41l-.06,0a1.27,1.27,0,0,1,0-.35,4.7,4.7,0,0,1-.13-.87h0a2.64,2.64,0,0,0,0-.28c0,.08,0-.06,0-.14a.62.62,0,0,0-.13-.32l-.06-.17c0,.2-.08,0-.14,0v-.12s0,.08,0,0-.1-.28-.07-.37,0,0,.07.05h0s0,0,0,0,0-.09,0-.1c-.16-.09-.15-.2-.31-.26.2.08-.19-.31,0-.28-.15-.05-.06-.07-.17-.09a.91.91,0,0,1,.16.45L66.21,21c0,.13.19.23.19.32s-.08-.15-.1-.14h.09a.78.78,0,0,1,.14.44c-.08-.1,0,.16-.08.1l0-.09s0,0,0,0c-.07-.15-.15-.29-.22-.43a0,0,0,0,0,0,0l-.06-.08h0a3.62,3.62,0,0,0-.27-.41c.06-.06,0-.26,0-.24s-.09,0-.18-.15.16.05.21.07,0-.14,0-.16c-.15,0-.33,0-.29.15l-.14-.16c.06.05,0,0,0-.06l0,0,0,0a5.59,5.59,0,0,0-1.84-1.35h-.23c-1.72,0-4.78.42-5.92,3.18l-.13,0a7.19,7.19,0,0,1,2-3.49h0a2.83,2.83,0,0,0-1.06.55s0,0,0,0c-.08.14-.14,0-.21.07l-.11.22c-.08,0,0,0-.07-.06-.34.22-.55.58-.82.77,0,.11.09,0,0,.16,0-.11-.06-.05-.14,0s-.15.16-.15.09c0,.19-.26.42-.08.47-.08.14-.14.07-.12,0a1.55,1.55,0,0,1-.3.4,3.53,3.53,0,0,1-.2.45.91.91,0,0,0-.11.53c-.05-.14-.05,0-.12.09l0-.12a2.17,2.17,0,0,0-.07.24c0,.05,0,.07,0,.07s0,0,0,.11-.08.16-.14.25v0l0,.11c0,.09.13-.28.12,0,0,0-.15.15-.11.23,0-.14.07-.11.09-.06a1.36,1.36,0,0,0,0,.2l-.1-.08A6.58,6.58,0,0,0,55.72,25c.09,0,.1.42.21.33v0c0-.14.1,0,.12.14-.07-.11-.06.24-.16,0a1.93,1.93,0,0,0,0,.24c-.1.1,0,.26,0,.42a2,2,0,0,1,.27.53.2.2,0,0,1,0-.05c.08.33.43.59.43.67h.08a.74.74,0,0,0,.33.53s0-.05,0,0a.45.45,0,0,0,.19.34v0l.25.25c.07-.08.16,0,.27.17s.24.25.34.18c0,.09.23.25.31.33h0c.06.16.36.15.48.23s0,.08,0,.09c.21,0,.46.3.54.28s.08-.06.13-.09-.09.17.21.17c0,0-.09,0-.06-.05s.35-.17.44-.1l-.07,0c.18.1.47-.09.48.05l0,.07c.34,0,.14,0,.48,0h0c.15,0,.23-.06.3,0l-.05,0a1.62,1.62,0,0,0,.38,0s.12,0,.14,0,.44,0,.52,0c-.15,0-.09,0,0-.08a.2.2,0,0,0,.26,0c0,.1.09.21.33.15,0,0-.1,0-.08,0s.08,0,.1,0-.06,0,0-.07c.19.06.28-.07.52-.11-.09,0,0,0,0-.09.06.11.26-.22.23,0,.2-.13.46-.26.68-.39a1.37,1.37,0,0,0,.44-.36c0-.07.16-.09.22-.13l0,0a3.53,3.53,0,0,0,.42-.18c-.12,0-.1,0-.06-.14l.21,0,0-.09c.08,0,.12-.1.17-.17s0,0,0,0,.32-.2.39-.21.15-.16.1-.27l.09-.06c0,.06.06.11.08,0h0l0-.07.13-.15a.19.19,0,0,0,0,.08.29.29,0,0,0,0-.09l0,0h0a.19.19,0,0,1,.08-.13.87.87,0,0,1,.21-.37.68.68,0,0,0,.17-.42s0,.1,0,.11c.1-.22.08-.48.17-.61l.06,0a2,2,0,0,0,.16-.44h.06c0-.1.06-.26.09-.42s0-.3,0-.37M55.78,22.48v0s0,0,0,0m6.75,6.94h-.24a.29.29,0,0,0,.08-.08h.11l0,0,.11,0s0,0,0,.05h0s.07.06.05.07M65.05,28l.1-.09s.06.08.09.09h-.19m.58-7.65a.27.27,0,0,1,.14.18l-.14-.18m.16.22h0v0l0,0m1.14,1.48c0,.07,0,.1,0,0h0m-.41,4.23,0,.06a.64.64,0,0,1-.32.18l.13-.26.29-.14-.13.16m.19-.95a1.46,1.46,0,0,1,.05-.2h.11l-.1,0,0-.19a0,0,0,0,1,0,0,2.43,2.43,0,0,1,.06.4.32.32,0,0,1-.19,0m.17-1a1.09,1.09,0,0,0,0-.18s0,.05.06,0a.46.46,0,0,1-.07.14m0-1a5.4,5.4,0,0,0-.15-.82.19.19,0,0,0,0,.09.38.38,0,0,1,0-.23l.07.13c0-.12-.12-.18-.15-.35.06,0,.09-.13.2,0a.35.35,0,0,1,.06.31.64.64,0,0,0,0,.37s.07-.1.08.12a.83.83,0,0,1-.12.41"/><path class="cls-2" d="M53.16,45.74c-.13-.05-.23.18-.32.19s.15-.09.14-.11v.09a.8.8,0,0,1-.44.15c.07-.06,0,0-.08,0a4,4,0,0,1-.72.58.2.2,0,0,0,.13,0,.59.59,0,0,0,.32-.13l.16-.07c-.2,0,0-.08,0-.14h.13s-.09,0,0-.06.28-.09.37-.07a.13.13,0,0,1,0,.07h0c.12-.08.08,0,.09,0,.1-.16.21-.15.25-.31-.07.2.31-.19.29,0,.05-.15.07-.05.09-.16a1,1,0,0,1-.45.17Zm-1.11.72h0c-.07,0-.1.05,0,0"/><path class="cls-2" d="M55.78,40.07s.07-.06.09,0,0-.15.05-.05c-.18-.38-.28-.77-.42-1.14a3,3,0,0,0-.56-1s0,0,.05,0c-.15-.08-.05-.14-.08-.22l-.22-.09c0-.1,0-.07.05-.09-.23-.34-.58-.53-.78-.8-.1,0,0,.09-.15,0,.11,0,0-.07,0-.15s-.17-.14-.09-.14c-.18,0-.42-.27-.47-.08-.14-.08-.07-.14,0-.12a1.86,1.86,0,0,1-.41-.29c-.05,0-.24-.12-.45-.2a.82.82,0,0,0-.53-.1c.13-.06,0-.05-.09-.12l.11,0-.24,0-.06,0s0,.05-.11,0a.39.39,0,0,1-.25-.13h0l-.11,0c-.09,0,.28.13,0,.12,0,0-.14-.15-.23-.1.15,0,.12.06.07.08l-.2,0,.08-.09a5.86,5.86,0,0,0-1.76.15c0,.08-.42.09-.33.21l0,0c.14,0,0,.11-.14.13.11-.08-.25-.06,0-.17h-.24c-.11-.09-.26,0-.42.06a3,3,0,0,1-.53.28,0,0,0,0,1,0,0c-.33.08-.58.43-.66.43v.08a.76.76,0,0,0-.53.34s.05,0,0,0a.53.53,0,0,0-.33.21h0l-.25.25c.08.07,0,.16-.16.27s-.25.24-.18.35c-.09,0-.24.22-.32.31s0,0,0,0c-.17.06-.15.36-.22.49s-.08,0-.1,0c0,.21-.29.47-.27.55s.06.08.09.13-.17-.09-.17.21c0,0,0-.09.05-.06s.18.35.11.44l0-.08c-.09.19.09.47,0,.49l-.06,0c.05.34,0,.14,0,.48h0c0,.15.07.22,0,.3V41a1.7,1.7,0,0,0,0,.39s0,.11,0,.14,0,.43,0,.51c0-.14,0-.08.08,0a.22.22,0,0,0,0,.27c-.1,0-.22.09-.15.33,0,0,0-.1,0-.08s0,.08,0,.1,0-.07.07,0c-.06.19.07.27.12.51,0-.08.05,0,.09,0s.22.26,0,.24c.14.19.27.45.41.67a1.29,1.29,0,0,0,.36.43c.06,0,.08.15.13.22l0,0A2.51,2.51,0,0,0,46,45c0-.12,0-.11.13-.07a1.6,1.6,0,0,1,.05.21l.09,0c0,.08.09.12.16.17s0,0,0,0,.21.31.22.38.16.16.27.1a.41.41,0,0,0,0,.09s-.1.06,0,.08v0l.06,0,.15.11.5,0-.06-.14.27.13s0,0,0,0h.26c1.73,0,4.79-.41,5.92-3.18l.13,0a7.56,7.56,0,0,1-1.56,3A2.31,2.31,0,0,0,53,45.7l0,0,.09,0h0a3.51,3.51,0,0,0,.4-.27c.07,0,.26,0,.25,0s0-.09.14-.18,0,.16-.06.21.13,0,.15,0c0-.15,0-.33-.15-.28a.27.27,0,0,1-.18.14,5.49,5.49,0,0,0,2.11-4.34c0-.11,0-.21,0-.32.07.07.14.14.19.06v.1c.09,0,0-.32.07-.39a3.05,3.05,0,0,0-.13-.32M44.71,42.16s0,0,0,0,0,.08-.07.05v-.24l.08.08v.11l0,0,0,.11s0,0-.06,0m1.37,2.7v-.19l.09.1a.38.38,0,0,0-.09.09m5.41-9.53h0s0,0,0,0m2,10,0,0h0Z"/><path class="cls-2" d="M52.54,46h0"/><path class="cls-2" d="M31.15,40.55s.08-.06.09,0,0-.16.05-.06c-.17-.38-.27-.76-.41-1.14a3.15,3.15,0,0,0-.57-1.05s0,0,.05,0c-.15-.08,0-.14-.08-.22L30.06,38c0-.09.05-.07.06-.08-.23-.34-.59-.54-.78-.81-.11,0-.05.09-.16,0,.11,0,.05-.07,0-.14s-.17-.15-.09-.15c-.19,0-.43-.26-.47-.07-.15-.08-.08-.14,0-.13a2.26,2.26,0,0,1-.28-.19l-.72,0c-1.73,0-4.79.41-5.92,3.18l-.13,0a6.94,6.94,0,0,1,2.17-3.61.42.42,0,0,0-.35.09,2.39,2.39,0,0,1-.52.28h.05c-.33.08-.59.43-.67.44l0,.07a.76.76,0,0,0-.53.34s.05,0,0,0a.44.44,0,0,0-.33.2h0l-.25.25c.08.07,0,.16-.16.27s-.25.24-.18.35c-.09,0-.24.23-.33.31s0,0,0,0c-.16.06-.14.36-.22.49s-.07,0-.09,0c0,.21-.29.47-.28.55s.07.08.1.13-.17-.09-.17.21c0,0,0-.09.05-.06s.18.35.11.44l0-.07c-.1.18.09.47-.05.48l-.06,0c0,.34-.05.14,0,.48h0c0,.15.07.23,0,.3v0a1.62,1.62,0,0,0,0,.38s0,.12,0,.14,0,.44,0,.52c0-.15,0-.09.08,0a.2.2,0,0,0,0,.26c-.1,0-.22.09-.16.34,0,0,0-.11,0-.09s0,.08,0,.1,0-.06.06-.05c-.05.19.08.28.12.51,0-.08.05,0,.1,0-.11.07.22.26,0,.24.14.19.27.45.4.67a1.42,1.42,0,0,0,.37.43c.06,0,.08.16.13.22l0,0c.06.23.08.15.19.41,0-.12,0-.1.13-.07a1.6,1.6,0,0,0,.05.21l.08,0a.38.38,0,0,0,.17.16s0,0,0,0,.2.31.21.39.16.15.27.1l.06.08c-.06,0-.1.06,0,.08l0,0,.06,0,.16.13-.08,0,.09,0h0a.19.19,0,0,1,.14.07.87.87,0,0,1,.37.21.61.61,0,0,0,.42.16.16.16,0,0,1-.11,0c.23.09.48.08.62.16l0,.06a2.29,2.29,0,0,0,.44.15v.07c.11,0,.27,0,.43.08a.44.44,0,0,0,.37,0c.05.06.3,0,.41,0l0,0a1.34,1.34,0,0,1,.35,0,4.76,4.76,0,0,1,.87-.14v0l.28,0c-.09,0,.06,0,.14,0a.56.56,0,0,0,.31-.13l.17-.07c-.2,0,0-.08,0-.14h.12c0-.05-.09,0,0-.06s.28-.1.37-.08a.1.1,0,0,1-.05.07s0,0,0,0h0c.12-.08.09,0,.1,0,.09-.16.2-.15.25-.31-.07.2.31-.2.29,0,0-.14.07,0,.08-.16a1,1,0,0,1-.45.17l.08-.12c-.12,0-.22.18-.31.19.06,0,.15-.08.14-.11v.09a.83.83,0,0,1-.45.15c.1-.08-.15,0-.1-.08l.09,0s0,0,0,0c.15-.07.29-.15.43-.23l0,0,.08-.05h0c.14-.09.28-.18.41-.28.06.06.26,0,.24,0s0-.09.15-.17-.05.15-.07.2.14,0,.16,0c0-.15,0-.33-.16-.28a.32.32,0,0,1-.18.15l.18-.15a1.14,1.14,0,0,0,.16-.15c-.05.07,0,.05.07,0l0,0s0,0-.05,0a5.49,5.49,0,0,0,1.78-4c0-.1,0-.21,0-.32.08.07.14.14.2.06v.11c.08,0,0-.33.07-.4l-.14-.32m-11.07,2.1,0,0s-.05.08-.07,0a1.76,1.76,0,0,1,0-.23l.07.07s0,0,0,.06v.05l0,0,0,.11a.08.08,0,0,1-.07,0m1.38,2.69a1.08,1.08,0,0,1,0-.18l.09.1a.18.18,0,0,0-.09.08M23.2,46.6l-.06,0a.65.65,0,0,1-.19-.32l.27.13.14.29-.16-.13m1.35.3a1.29,1.29,0,0,1-.4.06.32.32,0,0,1,0-.19l.19,0v.11l0-.1.18,0a.06.06,0,0,1,0,0m.74.1a.37.37,0,0,1-.14-.07h.18s0,0,0,.06m1.79-.07a.58.58,0,0,0-.37,0s.1.07-.11.08a.75.75,0,0,1-.42-.11,5.82,5.82,0,0,0,.83-.17l-.1,0a.47.47,0,0,1,.23,0l-.13.07c.12,0,.18-.12.35-.15,0,.06.13.09,0,.2a.35.35,0,0,1-.31.06m.34,0h0c-.06,0-.09,0,0,0m1.45-1.14,0,0h0Z"/><polygon class="cls-2" points="78.52 46.11 78.66 46.08 78.63 46.07 78.52 46.11"/><polygon class="cls-2" points="76.15 47.22 76.26 47.2 76.26 47.2 76.15 47.22"/><polygon class="cls-2" points="76.32 47.12 76.37 47.11 76.3 47.1 76.32 47.12"/><polygon class="cls-2" points="74.75 47.25 74.77 47.25 74.77 47.24 74.75 47.25"/><polygon class="cls-2" points="74.37 47.25 74.44 47.29 74.44 47.24 74.37 47.25"/><polygon class="cls-2" points="74.14 46.9 74.19 46.84 74.11 46.84 74.14 46.9"/><polygon class="cls-2" points="79.62 45.35 79.6 45.43 79.66 45.33 79.62 45.35"/><polygon class="cls-2" points="62.38 18.27 62.48 18.32 62.36 18.24 62.38 18.27"/><polygon class="cls-2" points="64.84 19.19 64.94 19.25 64.85 19.19 64.84 19.19"/><polygon class="cls-2" points="64.74 19.23 64.75 19.2 64.7 19.17 64.74 19.23"/><polygon class="cls-2" points="65.91 20.23 65.93 20.23 65.92 20.22 65.91 20.23"/><polygon class="cls-2" points="66.13 20.47 66.19 20.5 66.17 20.43 66.13 20.47"/><polygon class="cls-2" points="66.03 20.92 66.08 20.98 66.1 20.91 66.03 20.92"/><polygon class="cls-2" points="61.13 18.05 61.17 18.07 61.25 18.02 61.13 18.05"/></svg>