<svg id="Layer_1" data-name="Layer 1" xmlns="http://www.w3.org/2000/svg" viewBox="0 0 75 65"><defs><style>.cls-1{fill:#5d5e5e;}.cls-2{fill:#6d2158;}</style></defs><title>maxwell-footer</title><path class="cls-1" d="M25.43,64.56s0,.07-.05.07,0,0,0-.06c-.21-.48-1.15-2.22-1.4-2.66-.06.66-.12,1.5-.16,2.19,0,.4.11.41.4.46.05,0,.05.06,0,.06l-.55,0-.5,0c-.06,0,0-.06,0-.06.27,0,.34-.09.38-.46.13-1,.24-2,.33-3.06,0-.08,0-.12.05-.12S24,61,24,61c.18.42,1,2,1.51,2.86.11-.2.33-.63.58-1.15L26.91,61c0-.06,0-.1.08-.1s0,0,0,.12c.06.79.27,2.51.37,3.13.06.3.1.36.34.4.05,0,.06.06,0,.06l-.47,0-.44,0c-.06,0-.05-.06,0-.06s.16,0,.14-.28c0-.52-.19-1.84-.26-2.38-.09.2-.31.62-.52,1.05C25.88,63.57,25.65,64,25.43,64.56Z"/><path class="cls-1" d="M30.24,61c0-.09.05-.1.07-.1s0,0,.07.1c.16.48.72,2,1.16,3.11.14.33.24.39.51.43a0,0,0,0,1,0,.06l-.64,0-.51,0s0-.06,0-.06c.22,0,.26-.09.18-.35s-.22-.66-.35-1H29.59c-.09.24-.26.68-.35,1s.06.34.25.37.05.06,0,.06l-.53,0-.54,0s0-.06,0-.06a.54.54,0,0,0,.47-.33c.17-.31.37-.82.57-1.29Zm-.06.67-.27.65-.27.69h1C30.52,62.58,30.36,62.16,30.18,61.69Z"/><path class="cls-1" d="M34.06,63c-.23.36-.54.9-.71,1.2s-.13.33.18.37c0,0,0,.06,0,.06l-.52,0-.55,0a0,0,0,0,1,0-.06.65.65,0,0,0,.54-.34c.3-.42.66-.95,1-1.41-.3-.5-.65-1.05-.91-1.43s-.24-.31-.47-.33c0,0,0-.07,0-.07l.55,0,.6,0c.05,0,0,.07,0,.07-.26,0-.26.11-.16.3s.4.72.64,1.13c.21-.35.42-.71.58-1s.13-.36-.08-.39c0,0-.05-.07,0-.07l.5,0,.44,0a0,0,0,1,1,0,.07c-.17,0-.28,0-.49.34s-.61.89-.84,1.25c.3.47.75,1.2,1,1.59.17.24.28.31.47.33,0,0,0,.06,0,.06l-.55,0-.55,0c-.05,0,0-.06,0-.06.23,0,.22-.12.11-.31S34.33,63.44,34.06,63Z"/><path class="cls-1" d="M39.46,63.13,39,61.84,38.52,63l-.63,1.64c0,.07,0,.09-.06.09s0,0-.06-.09c-.2-.61-.4-1.18-.64-1.92-.17-.53-.35-1.06-.44-1.3s-.18-.31-.37-.33,0-.07,0-.07l.55,0,.57,0s0,.07,0,.07c-.25,0-.32.06-.27.3s.21.74.35,1.22.29.92.42,1.29l.51-1.28c.32-.86.44-1.19.55-1.5,0-.08,0-.1.07-.1s0,0,.06.1c.15.45.33,1,.53,1.48s.38,1,.52,1.31c.12-.32.27-.82.43-1.32s.21-.73.29-1.08,0-.4-.18-.42c0,0,0-.07,0-.07l.47,0,.47,0a0,0,0,1,1,0,.07c-.27,0-.34.21-.41.37s-.32.84-.46,1.26l-.65,1.93c0,.07,0,.08-.06.08s0,0-.06-.08C39.85,64.14,39.68,63.7,39.46,63.13Z"/><path class="cls-1" d="M43.33,64.05c0,.36.08.37.39.38h.49c.49,0,.59-.32.66-.69,0,0,.07-.05.07,0a5,5,0,0,1,0,.71c0,.13-.12.18-.35.18s-.82,0-1.38,0l-.66,0c-.05,0,0-.06,0-.06.31,0,.37-.09.38-.59s0-.82,0-1.24,0-.67,0-1,0-.6-.4-.64c0,0,0-.07,0-.07l.69,0,1.23,0c.17,0,.26,0,.25.15s0,.36-.07.56c0,0-.07,0-.07,0,0-.29-.1-.48-.39-.51s-.49,0-.81,0c0,.49,0,.94,0,1.47a8.19,8.19,0,0,0,1,0c.17,0,.16-.06.2,0s0,0,0,.14a1.89,1.89,0,0,1-.06.36s-.07,0-.07,0c0-.24-.15-.24-.39-.25h-.66C43.32,63.11,43.32,63.68,43.33,64.05Z"/><path class="cls-1" d="M48.44,63.74s.07-.06.07,0c0,.22,0,.57,0,.71s-.13.18-.35.18-.67,0-1.42,0l-.63,0c-.06,0,0-.06,0-.06.31,0,.35-.11.36-.59s0-.86,0-1.06c0-.46,0-1,0-1.25,0-.48,0-.57-.36-.61,0,0,0-.07,0-.07l.58,0,.54,0c.06,0,0,.06,0,.07-.26,0-.32.11-.33.58v1.14c0,.42,0,1,0,1.26s0,.39.37.4h.53C48.26,64.41,48.37,64.11,48.44,63.74Z"/><path class="cls-1" d="M51.7,63.74s.07-.06.07,0a5,5,0,0,1,0,.71c0,.13-.12.18-.34.18s-.68,0-1.42,0l-.64,0c-.06,0,0-.06,0-.06.31,0,.35-.11.36-.59s0-.86,0-1.06c0-.46,0-1,0-1.25,0-.48,0-.57-.36-.61-.05,0-.05-.07,0-.07l.59,0,.53,0c.06,0,0,.06,0,.07-.25,0-.32.11-.32.58l0,1.14c0,.42,0,1,0,1.26s0,.39.37.4H51C51.52,64.41,51.63,64.11,51.7,63.74Z"/><path class="cls-1" d="M.12,50c0-.09.13-.08.13,0C.31,51.16.9,51.9,2,51.9a1.45,1.45,0,0,0,1.64-1.42c0-1-.65-1.44-1.75-2A2.49,2.49,0,0,1,.21,46.15a1.93,1.93,0,0,1,2.17-1.87,3.58,3.58,0,0,1,1.13.16.56.56,0,0,1,.42.69c0,.17-.08.65-.11.9s-.13.06-.13,0a1.45,1.45,0,0,0-1.45-1.46A1.24,1.24,0,0,0,.86,45.88,2,2,0,0,0,2.2,47.63c1.51.76,2.13,1.41,2.1,2.56a2.16,2.16,0,0,1-2.41,2,3.42,3.42,0,0,1-1.38-.25.85.85,0,0,1-.5-.66A4.6,4.6,0,0,1,.12,50Z"/><path class="cls-1" d="M9.32,50.65c0,1,.14,1.16.86,1.23a.07.07,0,1,1,0,.13c-.44,0-.94,0-1.29,0S8,52,7.63,52c-.1,0-.08-.13,0-.13.6-.09.76-.16.78-1.23,0-.42,0-1.78,0-2.2,0-1,0-2.11,0-2.53,0-1.26-.23-1.26-.78-1.34-.08,0-.11-.13,0-.13l1.26,0,1.1,0c.1,0,.09.12,0,.13-.52.1-.67.11-.69,1.34,0,.37,0,1.68,0,2.52C9.29,48.87,9.31,50.23,9.32,50.65Z"/><path class="cls-1" d="M16.16,48.61c-.49.76-1.14,1.88-1.48,2.51s-.28.68.37.76c.08,0,.11.13,0,.13L14,52l-1.14,0a.07.07,0,1,1,0-.13A1.34,1.34,0,0,0,14,51.17c.62-.87,1.36-2,2-2.94-.63-1-1.35-2.16-1.88-3-.34-.51-.5-.63-1-.68-.08,0-.11-.13,0-.13l1.15,0,1.24,0c.11,0,.08.13,0,.13-.55.06-.55.25-.34.64.38.69.83,1.49,1.33,2.33.45-.73.87-1.47,1.21-2.15s.27-.74-.17-.82c-.08,0-.11-.13,0-.13l1.05,0,.91,0a.07.07,0,1,1,0,.13c-.35.05-.58.08-1,.71-.65.92-1.28,1.85-1.74,2.6.61,1,1.56,2.5,2.13,3.3.35.5.58.65,1,.69a.07.07,0,0,1,0,.13c-.39,0-.84,0-1.15,0s-.72,0-1.16,0a.07.07,0,0,1,0-.13c.48-.05.47-.25.25-.64C17.42,50.67,16.72,49.56,16.16,48.61Z"/><path class="cls-1" d="M27.5,50c0-.09.14-.08.14,0,.06,1.18.64,1.92,1.69,1.92A1.45,1.45,0,0,0,31,50.48c0-1-.64-1.44-1.75-2a2.49,2.49,0,0,1-1.63-2.32,1.93,1.93,0,0,1,2.18-1.87,3.5,3.5,0,0,1,1.12.16.56.56,0,0,1,.42.69c0,.17-.08.65-.11.9s-.13.06-.13,0a1.45,1.45,0,0,0-1.45-1.46,1.24,1.24,0,0,0-1.37,1.31,2,2,0,0,0,1.33,1.75c1.51.76,2.14,1.41,2.1,2.56a2.16,2.16,0,0,1-2.41,2,3.46,3.46,0,0,1-1.38-.25.85.85,0,0,1-.5-.66A5,5,0,0,1,27.5,50Z"/><path class="cls-1" d="M36.68,50.83c0,.73.17.77.81.78h1c1,0,1.22-.67,1.36-1.44,0-.08.15-.1.15,0A11.18,11.18,0,0,1,40,51.66c-.05.26-.26.36-.72.36S37.52,52,36.37,52L35,52c-.1,0-.08-.13,0-.13.65-.08.78-.19.8-1.23,0-.86,0-1.71,0-2.57s0-1.4,0-2.17c0-1,0-1.23-.84-1.33-.08,0-.11-.13,0-.13l1.43,0,2.56,0c.35,0,.54,0,.52.3s-.07.76-.14,1.17c0,.09-.15.09-.14,0,0-.61-.21-1-.83-1.06a13.17,13.17,0,0,0-1.68,0c0,1,0,1.93,0,3a19.82,19.82,0,0,0,2,0c.35,0,.34-.14.43-.12s0,.06,0,.3a4.67,4.67,0,0,1-.13.74c0,.09-.14.09-.14,0,0-.48-.31-.48-.81-.51-.22,0-1,0-1.37,0C36.65,48.87,36.66,50.06,36.68,50.83Z"/><path class="cls-1" d="M50.44,51.88c0,.21,0,.25,0,.26s-.09,0-.26-.2c-.78-.89-1.6-1.78-3.08-3.28C45.89,47.48,45,46.51,44.44,46c0,.94,0,3.26.11,5,0,.49.23.8,1,.88.09,0,.11.13,0,.13l-1.29,0-1,0a.07.07,0,1,1,0-.13c.44-.09.6-.2.64-.82.1-1.35.13-3.29.13-4.29,0-.65,0-1.46,0-2.16,0-.19,0-.23,0-.25s.09,0,.26.2c.9,1,1.89,2,3.1,3.26,1.06,1.06,2,2,2.61,2.58,0-1.43,0-3-.06-4.7,0-.89-.15-1-.83-1.12-.08,0-.1-.13,0-.13l1.11,0,.91,0c.1,0,.07.13,0,.13-.46.08-.58.4-.61,1C50.49,47.42,50.44,49.21,50.44,51.88Z"/><path class="cls-1" d="M54.86,50c0-.09.13-.08.13,0,.07,1.18.65,1.92,1.7,1.92a1.45,1.45,0,0,0,1.64-1.42c0-1-.64-1.44-1.75-2A2.49,2.49,0,0,1,55,46.15a1.93,1.93,0,0,1,2.17-1.87,3.58,3.58,0,0,1,1.13.16.56.56,0,0,1,.42.69c0,.17-.08.65-.11.9s-.13.06-.13,0A1.45,1.45,0,0,0,57,44.57a1.24,1.24,0,0,0-1.38,1.31,2,2,0,0,0,1.34,1.75c1.51.76,2.13,1.41,2.1,2.56a2.16,2.16,0,0,1-2.41,2,3.42,3.42,0,0,1-1.38-.25.85.85,0,0,1-.5-.66A4.6,4.6,0,0,1,54.86,50Z"/><path class="cls-1" d="M64,50.83c0,.73.17.77.8.78h1c1,0,1.21-.67,1.36-1.44,0-.08.15-.1.15,0a11.18,11.18,0,0,1-.06,1.49c0,.26-.26.36-.72.36S64.88,52,63.72,52l-1.37,0a.07.07,0,1,1,0-.13c.64-.08.78-.19.8-1.23,0-.86,0-1.71,0-2.57s0-1.4,0-2.17c0-1,0-1.23-.84-1.33-.08,0-.11-.13,0-.13l1.43,0,2.55,0c.36,0,.55,0,.53.3s-.08.76-.14,1.17c0,.09-.16.09-.14,0,0-.61-.21-1-.83-1.06a13.17,13.17,0,0,0-1.68,0c0,1,0,1.93,0,3a19.82,19.82,0,0,0,2,0c.35,0,.34-.14.43-.12s0,.06,0,.3a3.89,3.89,0,0,1-.12.74c0,.09-.14.09-.14,0,0-.48-.31-.48-.81-.51-.22,0-1,0-1.37,0C64,48.87,64,50.06,64,50.83Z"/><path class="cls-1" d="M70.82,50c0-.09.14-.08.14,0,.06,1.18.64,1.92,1.69,1.92a1.45,1.45,0,0,0,1.64-1.42c0-1-.64-1.44-1.75-2a2.49,2.49,0,0,1-1.63-2.32,1.93,1.93,0,0,1,2.18-1.87,3.5,3.5,0,0,1,1.12.16.56.56,0,0,1,.42.69c0,.17-.08.65-.11.9s-.13.06-.13,0a1.45,1.45,0,0,0-1.45-1.46,1.24,1.24,0,0,0-1.38,1.31,2,2,0,0,0,1.34,1.75C74.41,48.39,75,49,75,50.19a2.16,2.16,0,0,1-2.41,2,3.46,3.46,0,0,1-1.38-.25.85.85,0,0,1-.5-.66A5,5,0,0,1,70.82,50Z"/><path class="cls-2" d="M59.55,34.32s0,0,.05,0S59.57,34.28,59.55,34.32Z"/><polygon class="cls-2" points="58.89 34.7 59 34.68 58.98 34.67 58.89 34.7"/><path class="cls-2" d="M58.73,34.82c-.08.08-.26.09-.28.17s.25-.11.36-.17l-.07,0Z"/><path class="cls-2" d="M58.22,35.28l.06,0h0C58.14,35.29,58.23,35.25,58.22,35.28Z"/><path class="cls-2" d="M58.28,35.25s.06,0,0,0Z"/><path class="cls-2" d="M58,35.4s0,0,.06,0H58S57.93,35.42,58,35.4Z"/><path class="cls-2" d="M57.93,35.33h0S57.93,35.34,57.93,35.33Z"/><path class="cls-2" d="M58,35.32s0,0,0,0H58S58,35.3,58,35.32Z"/><path class="cls-2" d="M58.08,35.23c.09,0,0,0,0,.06C58.24,35.23,58.24,35.17,58.08,35.23Z"/><path class="cls-2" d="M58.44,34.9l0,0s.08,0,.11,0Z"/><path class="cls-2" d="M57.47,35.55s.06,0,.09-.07h-.07S57.46,35.53,57.47,35.55Z"/><path class="cls-2" d="M57.39,35.47h.1S57.47,35.45,57.39,35.47Z"/><path class="cls-2" d="M57.85,35.26h0Z"/><path class="cls-2" d="M57.05,35.61l.11,0-.06,0Z"/><path class="cls-2" d="M56.85,35.64a.33.33,0,0,1-.19,0,.53.53,0,0,0,.18,0S56.89,35.67,56.85,35.64Z"/><path class="cls-2" d="M57.16,35.57a.14.14,0,0,0,.07-.06h0Z"/><polygon class="cls-2" points="57.11 35.53 57.19 35.52 57.19 35.52 57.11 35.53"/><path class="cls-2" d="M57.54,35.3c-.1.06,0,.06.08.07S57.59,35.32,57.54,35.3Z"/><path class="cls-2" d="M57.37,35.42l-.1,0h.11S57.37,35.43,57.37,35.42Z"/><polygon class="cls-2" points="57.24 35.46 57.27 35.45 57.22 35.45 57.24 35.46"/><path class="cls-2" d="M56.78,35.55l-.18,0a.36.36,0,0,1,.15,0C56.81,35.59,56.78,35.56,56.78,35.55Z"/><polygon class="cls-2" points="56.07 35.56 56.07 35.55 56.06 35.56 56.07 35.56"/><path class="cls-2" d="M56.78,35.54s0,0,0,0h.1A.16.16,0,0,0,56.78,35.54Z"/><path class="cls-2" d="M56.5,35.59l-.08,0S56.48,35.61,56.5,35.59Z"/><path class="cls-2" d="M57,35.56h-.07l.06,0Z"/><path class="cls-2" d="M56.16,35.61a.53.53,0,0,1,.15,0h-.24A.15.15,0,0,0,56.16,35.61Z"/><path class="cls-2" d="M56.5,35.59h0s-.06,0,0,0h-.18l.19,0Z"/><path class="cls-2" d="M56.5,35.58s0,0,0,0h0l.1,0h-.11c.14,0-.11-.06.09-.05-.08,0,0,0-.16,0s0,.06.07.11Z"/><path class="cls-2" d="M57.42,35.25v0S57.4,35.24,57.42,35.25Z"/><path class="cls-2" d="M57.35,35.28a.52.52,0,0,0-.07.12.37.37,0,0,1,.14-.11h0c.08,0,0,0,0,0s0,0,0,0S57.37,35.28,57.35,35.28Z"/><path class="cls-2" d="M56.77,35.43h.16s0,0-.09,0v0Z"/><path class="cls-2" d="M56,35.55l.09.07,0,0Z"/><polygon class="cls-2" points="55.78 35.55 55.83 35.59 55.83 35.55 55.78 35.55"/><path class="cls-2" d="M52.1,32.07c-.05,0,0,.07.08.12a.16.16,0,0,1,0-.11Z"/><path class="cls-2" d="M53.7,34.63a.5.5,0,0,0,.13.07S53.77,34.65,53.7,34.63Z"/><path class="cls-2" d="M55.29,27s0,0,0,0S55.26,27,55.29,27Z"/><path class="cls-2" d="M53.7,34.63a.55.55,0,0,1-.11-.1h0A.22.22,0,0,0,53.7,34.63Z"/><path class="cls-2" d="M55,35.36Z"/><path class="cls-2" d="M55.08,35.39h0Z"/><path class="cls-2" d="M54.93,35.34l.06,0s0,0,0,0Z"/><path class="cls-2" d="M52.45,33l0,0Z"/><path class="cls-2" d="M55.43,35.48a.26.26,0,0,1-.09,0l.09,0S55.43,35.49,55.43,35.48Z"/><path class="cls-2" d="M56.34,35.35v0h0C56.24,35.33,56.28,35.35,56.34,35.35Z"/><path class="cls-2" d="M55.68,35.38h0c-.07,0-.12-.05-.14,0S55.69,35.44,55.68,35.38Z"/><path class="cls-2" d="M55.77,35.39h-.06S55.77,35.42,55.77,35.39Z"/><path class="cls-2" d="M54.88,35.32s0,0,0,0S54.9,35.38,54.88,35.32Z"/><polygon class="cls-2" points="55.58 35.25 55.61 35.3 55.64 35.25 55.58 35.25"/><path class="cls-2" d="M55.24,35.17l-.11,0s.07,0,.13.05S55.23,35.18,55.24,35.17Z"/><path class="cls-2" d="M55.26,35.2l.08,0S55.29,35.21,55.26,35.2Z"/><path class="cls-2" d="M54,34.59l.09.07s0,0,0,0S54,34.57,54,34.59Z"/><polygon class="cls-2" points="59.7 34.19 59.74 34.11 59.71 34.13 59.7 34.19"/><path class="cls-2" d="M59.57,34.19s0,0,0,.05h.08Z"/><path class="cls-2" d="M46.13,13.66s0,0,0-.05S46.09,13.66,46.13,13.66Z"/><polygon class="cls-2" points="46.86 13.86 46.77 13.8 46.78 13.82 46.86 13.86"/><path class="cls-2" d="M47.05,13.89c.12,0,.25.13.33.08a3.06,3.06,0,0,1-.38-.14l0,.07Z"/><path class="cls-2" d="M47.75,13.94l-.06,0h0C47.8,14,47.72,14,47.75,13.94Z"/><path class="cls-2" d="M47.69,13.91c.05,0-.07,0,0,0Z"/><path class="cls-2" d="M48,14s0,0-.08,0l.07.06C48,14.05,48,14,48,14Z"/><path class="cls-2" d="M48,14.14s0,0,0,0Z"/><path class="cls-2" d="M47.94,14.08c0,.05,0,0,0,0l-.08-.06S47.94,14.11,47.94,14.08Z"/><path class="cls-2" d="M47.85,14c-.15-.07-.19,0-.05,0C47.73,14,47.8,14,47.85,14Z"/><path class="cls-2" d="M47.27,14l0,0h.06S47.29,14,47.27,14Z"/><path class="cls-2" d="M48.46,14.29s-.07,0-.11,0l0,.05S48.46,14.31,48.46,14.29Z"/><path class="cls-2" d="M48.46,14.4l-.06-.08S48.39,14.35,48.46,14.4Z"/><path class="cls-2" d="M48,14.23l-.14-.13.11.12Z"/><path class="cls-2" d="M48.79,14.55s0-.07,0-.11l0,.07Z"/><path class="cls-2" d="M49.11,14.78a.59.59,0,0,0-.1-.16c0,.05-.07,0,0,.05A.37.37,0,0,1,49.11,14.78Z"/><path class="cls-2" d="M48.69,14.49a.09.09,0,0,0-.09,0l0,0Z"/><polygon class="cls-2" points="48.7 14.55 48.63 14.51 48.63 14.51 48.7 14.55"/><path class="cls-2" d="M48.23,14.41c.12,0,0-.06,0-.11S48.21,14.36,48.23,14.41Z"/><path class="cls-2" d="M48.44,14.45l.09.05-.08-.09S48.45,14.44,48.44,14.45Z"/><polygon class="cls-2" points="48.56 14.52 48.53 14.5 48.56 14.54 48.56 14.52"/><path class="cls-2" d="M48.94,14.79l.14.11a.94.94,0,0,1-.09-.12C48.94,14.74,49,14.77,48.94,14.79Z"/><polygon class="cls-2" points="49.44 15.29 49.43 15.29 49.45 15.29 49.44 15.29"/><path class="cls-2" d="M48.93,14.78s0,0,0,0l-.07-.08A.1.1,0,0,0,48.93,14.78Z"/><path class="cls-2" d="M49.17,15l.07,0Z"/><path class="cls-2" d="M48.84,14.65Z"/><path class="cls-2" d="M48.82,14.65l0,.06s0,0,0-.06Z"/><path class="cls-2" d="M49.42,15.18a.37.37,0,0,1-.14-.07l0,0v0l.14.16S49.45,15.25,49.42,15.18Z"/><path class="cls-2" d="M49.17,15l-.09,0a.27.27,0,0,1,.07.08c-.12-.08,0,.12-.09,0,0,.07,0,.07.06.15s0-.07,0-.12v0h0s0,0,0,0h0s0,0,0,0a1.49,1.49,0,0,0,.13.13L49.16,15Z"/><path class="cls-2" d="M48.28,14.54h0S48.29,14.55,48.28,14.54Z"/><path class="cls-2" d="M48.28,14.54s0,0,0,0,0,0,.05.05a.29.29,0,0,0,.14,0,.37.37,0,0,1-.18,0h0C48.22,14.46,48.26,14.51,48.28,14.54Z"/><path class="cls-2" d="M48.79,14.84v0l.08,0-.1-.12S48.72,14.79,48.79,14.84Z"/><path class="cls-2" d="M49.5,15.25l0,0,0,.07Z"/><polygon class="cls-2" points="49.63 15.44 49.6 15.47 49.64 15.5 49.63 15.44"/><path class="cls-2" d="M49.71,20.57s0-.07,0-.15a.18.18,0,0,1-.06.1Z"/><path class="cls-2" d="M50.43,17.64s0-.09,0-.15S50.4,17.57,50.43,17.64Z"/><path class="cls-2" d="M43.85,21.81s0,0,0,0S43.87,21.83,43.85,21.81Z"/><path class="cls-2" d="M50.43,17.64a.65.65,0,0,1,0,.14v0A.2.2,0,0,0,50.43,17.64Z"/><path class="cls-2" d="M50.05,16.2Z"/><path class="cls-2" d="M50,16.11l0,0S50,16.11,50,16.11Z"/><path class="cls-2" d="M50.08,16.26l0-.06s0,0,0,0A.21.21,0,0,1,50.08,16.26Z"/><path class="cls-2" d="M49.89,15.87l0-.1s0,0,0,0A.11.11,0,0,1,49.89,15.87Z"/><path class="cls-2" d="M49.66,15.78c0-.07,0-.14-.08-.09h0C49.61,15.74,49.62,15.8,49.66,15.78Z"/><path class="cls-2" d="M49.53,15.61l0,.06S49.55,15.59,49.53,15.61Z"/><path class="cls-2" d="M50.1,16.3s0,0,0,.05C50.13,16.53,50.13,16.25,50.1,16.3Z"/><polygon class="cls-2" points="49.58 15.8 49.52 15.81 49.56 15.86 49.58 15.8"/><path class="cls-2" d="M49.74,16.15l.07.09s0-.06-.06-.12S49.75,16.15,49.74,16.15Z"/><path class="cls-2" d="M49.75,16.12a.41.41,0,0,1,0-.08A.16.16,0,0,0,49.75,16.12Z"/><path class="cls-2" d="M50.13,17.36c0,.05,0,.08,0,.06v-.11S50.14,17.34,50.13,17.36Z"/><polygon class="cls-2" points="45.94 13.64 45.84 13.66 45.88 13.67 45.94 13.64"/><path class="cls-2" d="M46.09,13.73,46,13.67l0,.06Z"/><path class="cls-2" d="M26.44,14.78s0,0-.05,0S26.42,14.81,26.44,14.78Z"/><polygon class="cls-2" points="27.1 14.39 26.99 14.41 27.01 14.42 27.1 14.39"/><path class="cls-2" d="M27.25,14.27c.09-.08.27-.08.28-.17a4,4,0,0,1-.36.18l.08,0Z"/><path class="cls-2" d="M27.77,13.81l-.06,0h0C27.85,13.8,27.76,13.85,27.77,13.81Z"/><path class="cls-2" d="M27.71,13.84s-.06,0,0,0Z"/><path class="cls-2" d="M28,13.69s0,0-.05.06H28C28,13.69,28.05,13.67,28,13.69Z"/><path class="cls-2" d="M28.05,13.77h.05A0,0,0,0,0,28.05,13.77Z"/><path class="cls-2" d="M28,13.77s0,0,0,0H28C28,13.78,28,13.79,28,13.77Z"/><path class="cls-2" d="M27.9,13.86c-.09,0,0,0,0,0C27.75,13.86,27.75,13.92,27.9,13.86Z"/><path class="cls-2" d="M27.55,14.2l.05,0s-.08,0-.11,0Z"/><path class="cls-2" d="M28.52,13.55s-.06,0-.09.06h.07S28.53,13.56,28.52,13.55Z"/><path class="cls-2" d="M28.6,13.62h-.1S28.52,13.64,28.6,13.62Z"/><path class="cls-2" d="M28.14,13.83h0Z"/><path class="cls-2" d="M28.94,13.49l-.11,0,.06,0Z"/><path class="cls-2" d="M29.14,13.45a.26.26,0,0,1,.19,0,.41.41,0,0,0-.19,0C29.19,13.4,29.09,13.43,29.14,13.45Z"/><path class="cls-2" d="M28.83,13.52s-.07.05-.07.06h0Z"/><polygon class="cls-2" points="28.88 13.56 28.8 13.57 28.8 13.57 28.88 13.56"/><path class="cls-2" d="M28.45,13.79c.09-.06,0-.06-.08-.07S28.4,13.77,28.45,13.79Z"/><path class="cls-2" d="M28.62,13.67l.09,0H28.6S28.62,13.66,28.62,13.67Z"/><polygon class="cls-2" points="28.75 13.63 28.71 13.64 28.76 13.65 28.75 13.63"/><path class="cls-2" d="M29.21,13.54l.18,0h-.15C29.18,13.51,29.21,13.53,29.21,13.54Z"/><polygon class="cls-2" points="29.91 13.54 29.91 13.54 29.92 13.54 29.91 13.54"/><path class="cls-2" d="M29.2,13.55s0,0,0,0a.17.17,0,0,1-.1,0S29.16,13.56,29.2,13.55Z"/><path class="cls-2" d="M29.49,13.5l.08,0S29.51,13.48,29.49,13.5Z"/><path class="cls-2" d="M29,13.54h.08l-.06,0Z"/><path class="cls-2" d="M29.83,13.48l-.15,0h.23S29.9,13.51,29.83,13.48Z"/><path class="cls-2" d="M29.48,13.5h0s.06,0,0,0v0h0s0,0,0,0h0l-.1,0h.1c-.14,0,.11.06-.08.05.07,0,0,.05.16.06s0-.07-.07-.11h.18l-.19,0Z"/><path class="cls-2" d="M28.57,13.85h0S28.59,13.85,28.57,13.85Z"/><path class="cls-2" d="M28.64,13.82a.42.42,0,0,0,.07-.13s-.08.08-.15.11h0c-.08,0,0,0,0,0s0,0,0,0A.09.09,0,0,1,28.64,13.82Z"/><path class="cls-2" d="M29.22,13.67h-.16s0,.05.08,0v0Z"/><path class="cls-2" d="M30,13.54l-.09-.07,0,0Z"/><polygon class="cls-2" points="30.21 13.54 30.16 13.51 30.16 13.55 30.21 13.54"/><path class="cls-2" d="M33.81,16.9a.29.29,0,0,1,0,.11l0,0S33.86,17,33.81,16.9Z"/><path class="cls-2" d="M32.29,14.47a.49.49,0,0,0-.13-.08S32.22,14.44,32.29,14.47Z"/><path class="cls-2" d="M30.7,22.09s0,0,0,0S30.73,22.09,30.7,22.09Z"/><path class="cls-2" d="M32.29,14.47a.53.53,0,0,1,.11.09l0,0A.22.22,0,0,0,32.29,14.47Z"/><path class="cls-2" d="M31,13.74Z"/><path class="cls-2" d="M30.91,13.71h0S30.9,13.7,30.91,13.71Z"/><path class="cls-2" d="M31.06,13.76l-.06,0h0Z"/><path class="cls-2" d="M30.56,13.61a.16.16,0,0,1,.09,0l-.1,0S30.56,13.6,30.56,13.61Z"/><path class="cls-2" d="M29.65,13.74v0h0C29.75,13.76,29.71,13.74,29.65,13.74Z"/><path class="cls-2" d="M30.31,13.72h0c.07,0,.12,0,.14,0S30.29,13.65,30.31,13.72Z"/><path class="cls-2" d="M30.22,13.7h.06S30.21,13.67,30.22,13.7Z"/><path class="cls-2" d="M31.1,13.77s0,.05,0,.05S31.09,13.71,31.1,13.77Z"/><polygon class="cls-2" points="30.41 13.85 30.38 13.8 30.35 13.85 30.41 13.85"/><path class="cls-2" d="M30.75,13.92l.1,0s-.06,0-.12,0S30.76,13.92,30.75,13.92Z"/><path class="cls-2" d="M30.73,13.9a.13.13,0,0,0-.08,0Z"/><path class="cls-2" d="M32,14.51l-.08-.08s0,0,0,.06S32,14.53,32,14.51Z"/><polygon class="cls-2" points="26.29 14.9 26.24 14.98 26.28 14.97 26.29 14.9"/><path class="cls-2" d="M26.42,14.91s0-.05,0-.06h-.08Z"/><path class="cls-2" d="M34.66,7.83s0,0,0-.06S34.62,7.77,34.66,7.83Z"/><polygon class="cls-2" points="34.31 7.22 34.32 7.2 34.29 7.12 34.31 7.22"/><path class="cls-2" d="M34,6.68a2.4,2.4,0,0,1,.18.36l0-.08h0C34.09,6.88,34.08,6.69,34,6.68Z"/><path class="cls-2" d="M33.71,6.44l0,.06h0C33.7,6.37,33.74,6.45,33.71,6.44Z"/><path class="cls-2" d="M33.73,6.5s0,.06,0,0Z"/><path class="cls-2" d="M33.59,6.25s0,0,0,0V6.21S33.57,6.16,33.59,6.25Z"/><path class="cls-2" d="M33.66,6.16v0S33.65,6.15,33.66,6.16Z"/><path class="cls-2" d="M33.66,6.16v.1s0-.07,0-.06S33.67,6.17,33.66,6.16Z"/><path class="cls-2" d="M33.7,6.3c.06.16.11.17.06,0C33.77,6.4,33.73,6.34,33.7,6.3Z"/><path class="cls-2" d="M34.09,6.66l-.05,0s.06.08.06.11Z"/><path class="cls-2" d="M33.51,5.78V5.71s-.06,0-.07,0S33.49,5.75,33.51,5.78Z"/><path class="cls-2" d="M33.51,5.71s0,0,0-.1Z"/><path class="cls-2" d="M33.73,6.07V6a1.34,1.34,0,0,0,0,.2Z"/><path class="cls-2" d="M33.37,5.32v0a.42.42,0,0,1,0,.1Z"/><path class="cls-2" d="M33.32,4.89a.48.48,0,0,0,0,.18c0-.05,0,0,.07,0A.35.35,0,0,1,33.32,4.89Z"/><path class="cls-2" d="M33.48,5.45v0l0,0C33.44,5.44,33.46,5.45,33.48,5.45Z"/><polygon class="cls-2" points="33.45 5.33 33.47 5.42 33.47 5.42 33.45 5.33"/><path class="cls-2" d="M33.62,5.84c0-.09.05,0,.07-.07S33.62,5.78,33.62,5.84Z"/><path class="cls-2" d="M33.53,5.61s0,0,0,0l0-.1Z"/><polygon class="cls-2" points="33.53 5.46 33.54 5.5 33.54 5.45 33.53 5.46"/><path class="cls-2" d="M33.44,5a1.1,1.1,0,0,0,0-.18.61.61,0,0,1,0,.15C33.4,5,33.43,5,33.44,5Z"/><polygon class="cls-2" points="33.43 4.3 33.44 4.3 33.43 4.29 33.43 4.3"/><path class="cls-2" d="M33.45,5s0,0,0,0v.1A.13.13,0,0,0,33.45,5Z"/><path class="cls-2" d="M33.4,4.72l0-.08S33.38,4.7,33.4,4.72Z"/><path class="cls-2" d="M33.43,5.18a.19.19,0,0,0,0-.08.14.14,0,0,0,0,.07Z"/><path class="cls-2" d="M33.38,4.38a.56.56,0,0,1,0,.15v0h0a1.34,1.34,0,0,0,0-.2S33.4,4.31,33.38,4.38Z"/><path class="cls-2" d="M33.4,4.72a.36.36,0,0,0,0,.1.38.38,0,0,1,0-.1c0,.14.06-.11,0,.08,0-.07.05,0,.05-.16s-.07,0-.11.08h0s0,0,0,0h0s0-.07,0,0a.57.57,0,0,0,0-.19,1.23,1.23,0,0,0,0,.2Z"/><path class="cls-2" d="M33.74,5.64h0S33.75,5.63,33.74,5.64Z"/><path class="cls-2" d="M33.74,5.64s0,0,0,0a.08.08,0,0,1,0-.07.22.22,0,0,0-.12-.07s.07.07.11.14h0C33.73,5.74,33.74,5.67,33.74,5.64Z"/><path class="cls-2" d="M33.56,5v.16s0,0,0-.08h0Z"/><path class="cls-2" d="M33.44,4.2a.6.6,0,0,0-.08.08h0Z"/><polygon class="cls-2" points="33.44 4 33.4 4.06 33.44 4.05 33.44 4"/><path class="cls-2" d="M36.92.32s-.07,0-.13.08a.35.35,0,0,1,.12,0Z"/><path class="cls-2" d="M34.36,1.92a.6.6,0,0,0-.07.14S34.33,2,34.36,1.92Z"/><path class="cls-2" d="M42,3.52s0,0,0,0S42,3.48,42,3.52Z"/><path class="cls-2" d="M34.36,1.92l.1-.11s0,0,0,0A.19.19,0,0,0,34.36,1.92Z"/><path class="cls-2" d="M33.63,3.21s0,0,0,0Z"/><path class="cls-2" d="M33.6,3.31v0S33.59,3.31,33.6,3.31Z"/><path class="cls-2" d="M33.65,3.15l0,.06h0A.64.64,0,0,0,33.65,3.15Z"/><path class="cls-2" d="M33.51,3.66a.14.14,0,0,1,0-.09l0,.09S33.5,3.65,33.51,3.66Z"/><path class="cls-2" d="M33.63,4.56h0s0,0,0,0S33.64,4.5,33.63,4.56Z"/><path class="cls-2" d="M33.62,3.78c0,.07-.07.14,0,.13h0C33.63,3.85,33.66,3.8,33.62,3.78Z"/><path class="cls-2" d="M33.61,3.94s0,.06,0,.06A.08.08,0,0,1,33.61,3.94Z"/><path class="cls-2" d="M33.71,3.08c.1-.15-.11,0,0,0S33.71,3.12,33.71,3.08Z"/><polygon class="cls-2" points="33.74 3.86 33.74 3.8 33.7 3.83 33.74 3.86"/><path class="cls-2" d="M33.84,3.36s0,.06-.05.12l0,0A.36.36,0,0,1,33.84,3.36Z"/><path class="cls-2" d="M33.76,3.56s0,0,0-.08A.34.34,0,0,1,33.76,3.56Z"/><path class="cls-2" d="M34.38,2.32s0-.06,0-.06l-.07.08S34.36,2.34,34.38,2.32Z"/><polygon class="cls-2" points="34.8 7.92 34.88 7.97 34.86 7.93 34.8 7.92"/><path class="cls-2" d="M34.74,7.74v.09l.06,0S34.76,7.76,34.74,7.74Z"/><path class="cls-2" d="M42,30.86s0,0,0,0S42,30.82,42,30.86Z"/><polygon class="cls-2" points="41.81 31.59 41.87 31.5 41.85 31.51 41.81 31.59"/><path class="cls-2" d="M41.79,31.79c0,.11-.13.24-.08.32a2.87,2.87,0,0,1,.13-.38l-.07,0Z"/><path class="cls-2" d="M41.75,32.48l0-.06v0C41.7,32.54,41.73,32.45,41.75,32.48Z"/><path class="cls-2" d="M41.77,32.42s0-.07,0,0Z"/><path class="cls-2" d="M41.7,32.62l-.07.08s0,.08.07,0S41.7,32.65,41.7,32.62Z"/><path class="cls-2" d="M41.58,32.71l0,0S41.58,32.72,41.58,32.71Z"/><path class="cls-2" d="M41.61,32.67c-.06,0,0,0,0,0l.06-.08S41.58,32.67,41.61,32.67Z"/><path class="cls-2" d="M41.65,32.58c.08-.15,0-.19,0,0C41.67,32.47,41.66,32.53,41.65,32.58Z"/><path class="cls-2" d="M41.67,32l0,0v.07S41.65,32,41.67,32Z"/><path class="cls-2" d="M41.37,33.13s0,.06,0,.07,0-.08,0-.11Z"/><path class="cls-2" d="M41.3,33.2l.07-.07S41.34,33.13,41.3,33.2Z"/><path class="cls-2" d="M41.47,32.73v0l.13-.14Z"/><path class="cls-2" d="M41.15,33.53l.11-.05-.06,0Z"/><path class="cls-2" d="M41,33.7a.3.3,0,0,1-.11.15.47.47,0,0,0,.16-.1S41.08,33.69,41,33.7Z"/><path class="cls-2" d="M41.2,33.43s0-.08,0-.09l0,0Z"/><polygon class="cls-2" points="41.14 33.44 41.19 33.37 41.19 33.37 41.14 33.44"/><path class="cls-2" d="M41.39,33c-.07.06-.06,0-.11,0S41.34,33,41.39,33Z"/><path class="cls-2" d="M41.25,33.17l0,.09.08-.07S41.26,33.18,41.25,33.17Z"/><polygon class="cls-2" points="41.18 33.3 41.2 33.26 41.16 33.3 41.18 33.3"/><path class="cls-2" d="M40.92,33.69a.76.76,0,0,0-.11.14.5.5,0,0,1,.11-.1S40.93,33.69,40.92,33.69Z"/><polygon class="cls-2" points="40.43 34.19 40.42 34.18 40.42 34.2 40.43 34.19"/><path class="cls-2" d="M40.92,33.68s0,0,0,0l.07-.08A.15.15,0,0,0,40.92,33.68Z"/><path class="cls-2" d="M40.75,33.91a.24.24,0,0,1,0,.07S40.75,33.94,40.75,33.91Z"/><path class="cls-2" d="M41.05,33.58Z"/><path class="cls-2" d="M41.05,33.57l-.06,0a.09.09,0,0,0,.06,0Z"/><path class="cls-2" d="M40.52,34.17A.37.37,0,0,1,40.6,34l0,0h0l-.15.14S40.46,34.2,40.52,34.17Z"/><path class="cls-2" d="M40.75,33.91h0s0,.05,0,0h0s0,0,0,0h0l.06-.08-.08.07c.08-.12-.12,0,0-.1-.06,0-.06,0-.15.07s.07,0,.13,0a.76.76,0,0,0-.13.13l.15-.12Z"/><path class="cls-2" d="M41.15,33h0S41.14,33,41.15,33Z"/><path class="cls-2" d="M41.13,33.09a.57.57,0,0,0,0,.14.37.37,0,0,1,0-.18h0c0-.09,0,0-.06,0s.05,0,0,0S41.14,33.08,41.13,33.09Z"/><path class="cls-2" d="M40.86,33.54v0l0,.09.12-.11S40.91,33.46,40.86,33.54Z"/><path class="cls-2" d="M40.35,34.26h.11l0,0Z"/><polygon class="cls-2" points="40.22 34.4 40.28 34.38 40.24 34.35 40.22 34.4"/><path class="cls-2" d="M35.15,34.53s.06,0,.14,0l-.1-.06Z"/><path class="cls-2" d="M38.09,35.21a.43.43,0,0,0,.14,0S38.16,35.18,38.09,35.21Z"/><path class="cls-2" d="M33.82,28.69s0,0,0,0S33.8,28.72,33.82,28.69Z"/><path class="cls-2" d="M38.09,35.21h-.18A.19.19,0,0,0,38.09,35.21Z"/><path class="cls-2" d="M39.52,34.82Z"/><path class="cls-2" d="M39.61,34.77l0,0Z"/><path class="cls-2" d="M39.46,34.84l.06,0s0,0,0,0Z"/><path class="cls-2" d="M39.92,34.59a.22.22,0,0,1-.07.06l.09,0S39.92,34.6,39.92,34.59Z"/><path class="cls-2" d="M40.47,33.86v0l0,0S40.43,33.9,40.47,33.86Z"/><path class="cls-2" d="M39.93,34.42c.07,0,.14-.05.09-.08h0C40,34.36,39.92,34.38,39.93,34.42Z"/><path class="cls-2" d="M40.1,34.29l-.05,0S40.12,34.3,40.1,34.29Z"/><path class="cls-2" d="M39.37,34.85c-.18,0,.1,0,.05,0S39.39,34.83,39.37,34.85Z"/><polygon class="cls-2" points="39.91 34.33 39.9 34.28 39.86 34.32 39.91 34.33"/><path class="cls-2" d="M39.59,34.51s0,0,0,0l-.09.06S39.54,34.54,39.59,34.51Z"/><path class="cls-2" d="M38.35,34.91s-.07,0-.05,0h.11S38.39,34.92,38.35,34.91Z"/><polygon class="cls-2" points="42 30.57 41.99 30.61 42.02 30.66 42 30.57"/><path class="cls-2" d="M41.93,30.83l.06-.06-.06,0A.11.11,0,0,1,41.93,30.83Z"/><path class="cls-2" d="M23.53,31.22s0,0,0,0S23.53,31.18,23.53,31.22Z"/><polygon class="cls-2" points="23.34 31.95 23.4 31.86 23.39 31.87 23.34 31.95"/><path class="cls-2" d="M23.32,32.15c0,.11-.13.25-.08.32,0-.09.1-.25.13-.38l-.07,0Z"/><path class="cls-2" d="M23.28,32.84l0-.06v0C23.23,32.9,23.26,32.81,23.28,32.84Z"/><path class="cls-2" d="M23.3,32.78s0-.06,0,0Z"/><path class="cls-2" d="M23.23,33l-.06.07c0,.06,0,.08.06,0S23.23,33,23.23,33Z"/><path class="cls-2" d="M23.11,33.07l0,0A0,0,0,0,0,23.11,33.07Z"/><path class="cls-2" d="M23.14,33c-.05,0,0,0,0,0l.06-.07S23.11,33,23.14,33Z"/><path class="cls-2" d="M23.18,32.94c.08-.15,0-.19,0,0C23.21,32.83,23.19,32.89,23.18,32.94Z"/><path class="cls-2" d="M23.2,32.37l0,0v.07S23.18,32.39,23.2,32.37Z"/><path class="cls-2" d="M22.9,33.5s0,.06,0,.06,0-.07,0-.11Z"/><path class="cls-2" d="M22.83,33.56l.07-.06S22.87,33.49,22.83,33.56Z"/><path class="cls-2" d="M23,33.09v0l.13-.14Z"/><path class="cls-2" d="M22.69,33.89l.1,0-.06,0Z"/><path class="cls-2" d="M22.57,34.06a.31.31,0,0,1-.12.15.65.65,0,0,0,.16-.09S22.62,34.05,22.57,34.06Z"/><path class="cls-2" d="M22.74,33.79a.16.16,0,0,0,0-.09l0,0Z"/><polygon class="cls-2" points="22.68 33.8 22.72 33.73 22.72 33.73 22.68 33.8"/><path class="cls-2" d="M22.92,33.33c-.07.05-.06,0-.1,0S22.87,33.36,22.92,33.33Z"/><path class="cls-2" d="M22.78,33.54l-.05.09.09-.08S22.79,33.54,22.78,33.54Z"/><polygon class="cls-2" points="22.71 33.66 22.73 33.63 22.69 33.66 22.71 33.66"/><path class="cls-2" d="M22.45,34.05a.76.76,0,0,0-.11.14.47.47,0,0,1,.12-.09C22.5,34.05,22.46,34.05,22.45,34.05Z"/><polygon class="cls-2" points="21.96 34.55 21.95 34.55 21.95 34.56 21.96 34.55"/><path class="cls-2" d="M22.45,34s0,0,0,0l.07-.08A.15.15,0,0,0,22.45,34Z"/><path class="cls-2" d="M22.28,34.28l0,.07S22.28,34.3,22.28,34.28Z"/><path class="cls-2" d="M22.59,33.94h0S22.58,34,22.59,33.94Z"/><path class="cls-2" d="M22.58,33.93l-.06,0a.09.09,0,0,0,.06,0Z"/><path class="cls-2" d="M22.06,34.53a.46.46,0,0,1,.07-.14l0,0h0l-.15.14S22,34.56,22.06,34.53Z"/><path class="cls-2" d="M22.29,34.27h0s-.05,0,0,0h0s0,0,0,0h0l.06-.09-.08.07c.08-.12-.12,0,0-.1-.06,0-.06,0-.15.07s.08,0,.13,0a1.49,1.49,0,0,0-.13.13l.16-.12Z"/><path class="cls-2" d="M22.69,33.38a0,0,0,0,1,0,0S22.68,33.39,22.69,33.38Z"/><path class="cls-2" d="M22.66,33.45a.57.57,0,0,0,0,.14.38.38,0,0,1,0-.18h0c0-.08,0,0,0,0s0,0,0,0A.09.09,0,0,1,22.66,33.45Z"/><path class="cls-2" d="M22.39,33.9v0l0,.09.11-.11S22.45,33.83,22.39,33.9Z"/><path class="cls-2" d="M21.88,34.62H22l-.05,0Z"/><polygon class="cls-2" points="21.75 34.76 21.81 34.74 21.78 34.72 21.75 34.76"/><path class="cls-2" d="M16.68,34.9s.07,0,.15,0l-.11-.06Z"/><path class="cls-2" d="M19.62,35.57a.34.34,0,0,0,.15,0S19.69,35.54,19.62,35.57Z"/><path class="cls-2" d="M15.36,29.06s0,0,0,0S15.33,29.08,15.36,29.06Z"/><path class="cls-2" d="M19.62,35.57h-.18A.19.19,0,0,0,19.62,35.57Z"/><path class="cls-2" d="M23.43,30.53a.25.25,0,0,1,0,.08S23.44,30.54,23.43,30.53Z"/><path class="cls-2" d="M21.05,35.18Z"/><path class="cls-2" d="M21.14,35.13l0,0S21.15,35.14,21.14,35.13Z"/><path class="cls-2" d="M21,35.2l.06,0h0Z"/><path class="cls-2" d="M21.45,35s0,0-.07.06l.1,0S21.46,35,21.45,35Z"/><path class="cls-2" d="M21.46,34.78c.07,0,.14,0,.1-.08h0C21.51,34.72,21.45,34.75,21.46,34.78Z"/><path class="cls-2" d="M21.63,34.65a.09.09,0,0,1-.05,0S21.65,34.66,21.63,34.65Z"/><path class="cls-2" d="M20.9,35.21c-.18,0,.1,0,.05,0S20.92,35.19,20.9,35.21Z"/><polygon class="cls-2" points="21.44 34.7 21.43 34.64 21.39 34.68 21.44 34.7"/><path class="cls-2" d="M21,34.93s.06,0,.12-.06,0,0,0,0Z"/><path class="cls-2" d="M21.13,34.87l.08,0S21.16,34.86,21.13,34.87Z"/><path class="cls-2" d="M19.89,35.28s-.07,0-.06,0H20S19.92,35.28,19.89,35.28Z"/><polygon class="cls-2" points="23.53 30.93 23.52 30.97 23.55 31.03 23.53 30.93"/><path class="cls-2" d="M23.47,31.19l.06-.06-.07,0A.22.22,0,0,1,23.47,31.19Z"/><path class="cls-2" d="M33.76,18.33c.09-.16,0-.13.12-.32-.06.08-.07,0-.11,0a1,1,0,0,1,.09-.13l-.07,0a.37.37,0,0,0,0-.18s0,0,0,0,0-.28.09-.32,0-.17-.09-.2,0-.05,0-.08.08,0,.05,0v0h-.05a.61.61,0,0,0,0-.15l0,0,0-.06a0,0,0,0,0,0,0h0a.19.19,0,0,1,0-.12.7.7,0,0,1-.09-.3.44.44,0,0,0-.13-.31s0,.06,0,.08c-.06-.17-.21-.29-.23-.41l0,0a1.29,1.29,0,0,0-.16-.31l.05,0a2.43,2.43,0,0,1-.19-.27C33,15,32.91,15,32.83,15s-.15-.15-.21-.22h0a.77.77,0,0,1-.18-.19c-.24-.08-.36-.28-.54-.38h0l-.17-.14c0,.06,0,0-.08-.06a.44.44,0,0,0-.24-.1l-.12-.05c.13.09,0,.05-.06.09l-.06-.07s0,.06,0,0-.19-.09-.23-.15l.06,0h0v0c-.11,0-.07,0-.06-.05s-.19,0-.29,0c.14-.07-.27-.06-.18-.13-.1,0-.06,0-.13,0a.63.63,0,0,1,.33.15l-.11,0c0,.09.22,0,.27.06s-.12,0-.13,0l0-.06a.65.65,0,0,1,.31.16c-.09,0,.1.07,0,.09l-.06,0s0,0,0,0l-.34-.1h-.06l-.36-.08c0-.06-.16-.1-.11-.14s0,.05-.17,0,.1-.06.14-.08-.09,0-.09-.07-.17.2-.07.24a.17.17,0,0,1,.17,0A4.09,4.09,0,0,0,26.6,15c-.06,0-.11.12-.17.18s0-.15-.07-.14l.06,0c-.06,0-.16.18-.25.18l-.09.24s-.07,0-.06-.05-.07.09-.05,0a9.09,9.09,0,0,1-.39.83,2.37,2.37,0,0,0-.25.85s0,0,0,0-.05.1-.07.16a1.22,1.22,0,0,1,.07.17c0,.06-.06,0-.07,0-.06.3,0,.6,0,.84,0,.08.08,0,.09.08-.05-.07-.05,0-.05.09s0,.17,0,.13.08.36.21.29c0,.11,0,.11-.06.07a1.33,1.33,0,0,1,.07.37s.06.19.13.35.15.3.23.33c-.1,0,0,0,0,.11l-.08,0,.1.17a.11.11,0,0,0,0,0s0,0,.08,0a.43.43,0,0,1,.07.21l0,0,0,.08c0,.05-.08-.22.07-.07,0,0,0,.16.06.18s0-.1,0-.08l.09.12h-.09a4.69,4.69,0,0,0,1,.86s.27.17.29.06h0c-.09-.06.07-.05.13,0-.09,0,.11.17-.1.07l.05.05.52,0c1.29,0,3.59-.31,4.44-2.39l.1,0A5.35,5.35,0,0,1,31,22l.14-.08c.07,0,.05,0,0,.07s.4-.1.44-.15,0-.07,0-.12,0,.14.2,0c0,0-.07,0-.06,0s.09-.28.18-.29l0,0c.14,0,.2-.3.28-.23l0,0c.15-.2.1-.05.25-.26h0c.09-.07.09-.15.18-.14l0,0a2,2,0,0,0,.19-.22s.07-.05.07-.08.23-.23.26-.29c-.07.09-.07,0-.07,0a.15.15,0,0,0,.12-.16.18.18,0,0,0,.26-.09s0,.05-.06,0,0-.06,0-.07,0,0-.06,0,.1-.18.2-.33c0,0,0,0-.06,0s0-.25.11-.15c0-.17.09-.38.14-.57a.93.93,0,0,0,0-.42s0-.13,0-.19Zm-7.95,1.82s0,0,0,0Zm4.24-6.35Zm1.4.17h0S31.52,14,31.45,14Zm.1.32a.19.19,0,0,0,.09,0,.31.31,0,0,1-.15-.1l.11,0a1.55,1.55,0,0,1-.27-.1s0-.12.09-.12a.26.26,0,0,1,.2.13.46.46,0,0,0,.2.19s0-.09.1,0a.51.51,0,0,1,.16.28A4.5,4.5,0,0,0,31.55,14.29Zm1,.79h.06a.2.2,0,0,1,0,.11ZM33,20.3v-.09l0,0,0,0h0l0-.07s0,0,0,0l0,0s.06,0,.06,0Zm.12-4.51L33,15.67l.06-.06-.07,0-.08-.12h0a2.06,2.06,0,0,1,.25.18S33.14,15.76,33.09,15.79Zm.39.89c0-.07,0-.14-.07-.21l.08-.23c0,.05,0,.1,0,.15l0,0A.52.52,0,0,1,33.48,16.68Zm.18,1.41s0-.07,0-.11h.09Z"/><path class="cls-2" d="M42.11,4.91s0,0,0,0a.39.39,0,0,0,.07-.29h0V4.36c-.08,0-.06-.1-.06-.23s0-.26-.09-.28,0-.25,0-.33l0,0c.06-.12-.11-.27-.14-.38s0-.05.06,0-.09-.4-.14-.44-.08,0-.12,0,.14-.05,0-.21c0,0,0,.07,0,.06s-.28-.09-.3-.17l0,0c0-.14-.3-.2-.23-.28l0,0c-.21-.15,0-.1-.26-.25h0c-.06-.09-.15-.08-.13-.18l0,0a1.9,1.9,0,0,0-.21-.19s-.05-.07-.08-.07-.24-.23-.29-.26,0,.07,0,.08a.14.14,0,0,0-.15-.13.27.27,0,0,0,0-.13,6.94,6.94,0,0,0-.75,0c-1.29,0-3.59.31-4.44,2.38l-.1,0A5.5,5.5,0,0,1,36.19.75l0,0,.09,0,.2-.16-.13,0A.46.46,0,0,0,36,.7s.07,0,.09,0c-.17.07-.3.21-.42.24V.86a1.13,1.13,0,0,0-.31.16l0,0c-.06.05-.17.11-.27.18s-.17.15-.17.22-.16.16-.23.21v0a.6.6,0,0,1-.18.18c-.09.24-.28.36-.39.54h0L34,2.53c.06,0,0,0-.06.08a.47.47,0,0,0-.1.24.61.61,0,0,0,0,.12c.08-.13,0,0,.08.06l-.06.06s.05,0,0,0-.1.2-.16.23,0,0,0-.06h0l0,0c0,.1,0,.06-.05,0s0,.19,0,.3c-.06-.15-.06.27-.13.17.06.1,0,.06,0,.13a.84.84,0,0,1,.15-.33l0,.11c.1,0,0-.22.07-.27s0,.12,0,.13l-.05,0a.57.57,0,0,1,.15-.31c0,.09.08-.09.1,0l0,.07s0,0,0,0-.08.23-.11.35a0,0,0,0,1,0,0l0,.08h0c0,.12-.05.24-.07.36s-.11.16-.15.11.06,0,0,.17-.06-.1-.07-.14,0,.1-.07.1.2.16.23.07a.26.26,0,0,1,0-.18,4.18,4.18,0,0,0,1.18,3.43l.18.16c-.07,0-.15,0-.13.07l-.05-.06c0,.07.18.17.17.25l.24.1s0,.07-.05,0,.1.07,0,.05c.29.11.55.26.82.39a2.24,2.24,0,0,0,.86.25s0,0,0,0,.1.05.16.07l.16-.07c.07,0,0,.06,0,.08.31.05.6,0,.84,0,.08,0,0-.07.08-.09-.06.05,0,.06.1.05s.16,0,.12,0,.36-.08.29-.21c.12,0,.11,0,.08.06a1,1,0,0,1,.37-.06s.19-.07.34-.14a.68.68,0,0,0,.34-.22c0,.09,0,0,.11,0l0,.09.16-.1,0,0s0,0,0-.08a.4.4,0,0,1,.2-.07v0l.07,0c.06,0-.21.08-.06-.06,0,0,.15,0,.17-.07s-.09,0-.07,0l.11-.1v.09a4.69,4.69,0,0,0,.86-1c-.06,0,.17-.27.06-.29v0c-.07.09-.05-.06,0-.13,0,.09.16-.1.07.1l.12-.13c.11,0,.16-.12.2-.25A1.94,1.94,0,0,1,42,6s0,0,0,0c.14-.22.09-.54.12-.58l0,0A.62.62,0,0,0,42.11,4.91ZM35.59,1s.07.05.1.1l-.13.08-.06-.06,0,.07-.11.08s0,0,0,0A.9.9,0,0,1,35.59,1Zm-.51.55-.1.09s0,0,0,0Zm-1.22,1.2h0S33.88,2.69,33.86,2.77ZM33.7,4.16h0v0Zm.49-1.5a.41.41,0,0,0,0-.08.36.36,0,0,1-.1.14l0-.11c0,.08,0,.16-.11.27s-.11,0-.12-.09a.29.29,0,0,1,.13-.2.46.46,0,0,0,.2-.2s-.09,0,0-.1a.55.55,0,0,1,.28-.16A4.41,4.41,0,0,0,34.19,2.66ZM40.05,8.4s0,0,0,0Zm.06-7.15,0,0,0,0v0l-.07,0a.06.06,0,0,1,0,0s0,0,0,0,0-.06,0-.06l.12.13A.11.11,0,0,0,40.11,1.25Z"/><path class="cls-2" d="M60.78,31.74a8,8,0,0,0,0-.84c0-.07-.07,0-.09-.07.06.06.06,0,.06-.09s0-.17,0-.13-.09-.36-.21-.29c0-.12,0-.11.05-.08a1.68,1.68,0,0,1-.06-.37,2.79,2.79,0,0,1-.13-.34.76.76,0,0,0-.23-.34c.1,0,0,0,0-.11l.09,0a1.4,1.4,0,0,0-.1-.16s0-.05,0,0,0,0-.08,0,0-.13-.06-.2h0L60,28.61c0-.05.09.22-.06.07,0,0,0-.16-.07-.18s0,.1,0,.08l-.09-.11h.09a5.27,5.27,0,0,0-1-.86c0,.06-.28-.17-.29-.06h0c.09.06-.07.05-.14,0,.1,0-.1-.17.11-.07a.12.12,0,0,1-.05,0H58c-1.3,0-3.59.31-4.44,2.38l-.1,0A5.28,5.28,0,0,1,55,27.1a.42.42,0,0,1-.13.07c-.07,0,0,0,0-.06s-.4.09-.43.14,0,.08,0,.12,0-.14-.2,0h.06c-.07.06-.1.29-.18.3l0-.05c-.15,0-.2.3-.28.23l0-.05c-.16.21-.1.05-.25.26h0c-.09.07-.09.16-.18.14l0,0a1.34,1.34,0,0,0-.2.21s-.06.05-.06.08-.23.24-.26.29.06,0,.07,0-.11.06-.13.15-.16-.06-.26.1c0,0,.06-.06.06,0s0,.05,0,.06,0,0,.06,0-.1.18-.2.33c0,0,0,0,0,0s0,.26-.1.15c0,.18-.1.38-.14.57a1,1,0,0,0,0,.42s0,.13,0,.19h0c-.09.16,0,.12-.12.32,0-.09.07-.05.11,0l-.09.14.07,0a.23.23,0,0,0,0,.18s0,0,0,0-.05.27-.08.32,0,.16.09.19a.19.19,0,0,0,0,.08s-.08,0-.05,0h.05a.7.7,0,0,0,0,.16l0-.06a.16.16,0,0,0,0,.07v0a.21.21,0,0,1,0,.12.59.59,0,0,1,.08.31.6.6,0,0,0,.11.26.08.08,0,0,1,0,0c.07.17.22.3.24.42h0a1.49,1.49,0,0,0,.15.31l0,0c0,.06.12.17.18.26s.15.18.23.18.15.16.21.23l0,0a.77.77,0,0,1,.18.19c.23.09.36.28.54.38h0l.16.13c0-.06,0,0,.09.06a.44.44,0,0,0,.23.1l.13,0c-.13-.08,0,0,0-.09l.07.07s0-.06,0,0,.2.1.24.16h-.06v0c.11,0,.06,0,.05,0s.2,0,.3,0c-.14.06.27.06.18.13.1-.06.06,0,.13,0a.63.63,0,0,1-.33-.15h.11c-.05-.1-.22,0-.27-.07a.16.16,0,0,0,.13,0l0,0a.54.54,0,0,1-.32-.16c.1,0-.09-.07,0-.09l.06,0s0,0,0,0l.34.1h0l.07,0h0l.37.07c0,.06.16.1.11.15s0-.06.17,0-.11.05-.14.07.09.05.09.07.16-.2.07-.23a.24.24,0,0,1-.17,0,4.15,4.15,0,0,0,3.42-1.18l.16-.18c0,.07,0,.15.08.13l-.06,0c.06,0,.16-.18.24-.17a2.44,2.44,0,0,0,.1-.24s.07,0,.05,0,.08-.1.06,0c.11-.29.25-.55.38-.83a2.33,2.33,0,0,0,.26-.85s0,0,0,0,.06-.1.07-.16l-.06-.17C60.74,31.69,60.77,31.75,60.78,31.74Zm-8.46-.63h-.09a.47.47,0,0,1,.1-.1S52.32,31.08,52.32,31.11Zm.18,1.74a.59.59,0,0,0,0-.14l0,0a.46.46,0,0,1,.07-.27,1.72,1.72,0,0,0,.07.21ZM53,28.8v.08l0,0,0,0h0A.21.21,0,0,0,53,29s0,0,0,0l0,0s-.07,0-.06,0Zm0,4.77a1.08,1.08,0,0,1-.25-.18s.06-.06.11-.09a.54.54,0,0,1,.07.13l0,.06.07-.05a.83.83,0,0,0,.08.12Zm.34.46a.27.27,0,0,1,0-.12l.08.1S53.39,34,53.38,34Zm1.16,1.09h0S54.46,35.11,54.54,35.12Zm0,0a.25.25,0,0,1-.19-.14.52.52,0,0,0-.2-.19s0,.09-.11,0a.63.63,0,0,1-.16-.28,3.17,3.17,0,0,0,.54.36l-.09,0a.24.24,0,0,1,.14.1l-.1,0c.07,0,.16,0,.27.1S54.68,35.06,54.56,35.07Zm1.35.22h0Zm4.24-6.37,0,0S60.17,29,60.15,28.92Z"/><path class="cls-2" d="M50.45,18.37s0-.22,0-.31l0,0a.75.75,0,0,1,0-.26,3.22,3.22,0,0,1-.1-.65h0a1.49,1.49,0,0,0,0-.21c0,.06,0-.05,0-.11a.5.5,0,0,0-.1-.24.61.61,0,0,0,0-.12c0,.15,0,0-.1,0v-.09s0,.06,0,0-.07-.21,0-.28l0,0h0a0,0,0,0,1,0,0C50,16,50,16.05,50,16s-.11-.15-.23-.19c.14.06-.15-.23,0-.22-.11,0,0-.05-.12-.06a.64.64,0,0,1,.12.34l-.09-.06c0,.09.14.17.14.23s-.06-.11-.08-.1h.07a.65.65,0,0,1,.11.33c-.06-.07,0,.12-.06.08l0-.07s0,0,0,0-.11-.21-.17-.32l0,0,0-.06h0a3.28,3.28,0,0,0-.2-.31c0-.05,0-.19,0-.18s-.07,0-.13-.11.12,0,.15.05,0-.1,0-.12-.25,0-.21.11l-.11-.11s0,0,0,0h0l0,0a4.21,4.21,0,0,0-1.38-1h-.17c-1.29,0-3.59.31-4.44,2.39l-.1,0A5.4,5.4,0,0,1,44.55,14h0a2.59,2.59,0,0,0-.79.41s0,0,0,0-.11,0-.16,0l-.08.17c-.07,0,0,0-.06,0-.25.17-.41.44-.61.58,0,.08.07,0,0,.12,0-.08,0,0-.11,0s-.11.13-.11.07c0,.14-.2.31-.06.35-.06.11-.1.06-.09,0a1.46,1.46,0,0,1-.22.3s-.09.18-.16.33a.77.77,0,0,0-.08.4c0-.1,0,0-.09.07l0-.09c0,.06,0,.12,0,.18a.28.28,0,0,0,0,.05s0,0,0,.09a.37.37,0,0,1-.1.18v0l0,.09c0,.06.1-.22.1,0,0,0-.12.11-.09.18,0-.11.06-.09.07,0s0,.1,0,.15l-.07-.06a5.4,5.4,0,0,0,.09,1.32c.06,0,.07.31.16.25h0c0-.11.08,0,.09.09-.06-.08-.05.19-.12,0v.18c-.07.07,0,.19,0,.31a1.66,1.66,0,0,1,.2.4,0,0,0,0,1,0,0c.06.24.32.44.32.5h.06a.59.59,0,0,0,.24.4s0,0,0,0a.39.39,0,0,0,.14.26v0l.18.19c.06-.06.12,0,.2.12s.18.19.26.14.17.19.24.25h0c.05.12.27.12.37.17s0,.06,0,.07c.15,0,.34.22.41.21s.06,0,.09-.07-.06.13.16.13c0,0-.07,0,0,0s.26-.13.33-.09l-.06,0c.14.07.35-.06.36,0l0,.05c.26,0,.11,0,.36,0h0c.11,0,.17-.05.22,0h0a1.34,1.34,0,0,0,.28,0s.09,0,.11,0,.33,0,.38,0c-.11,0-.06,0,0-.06s.12,0,.2,0,.06.16.24.12c0,0-.07,0-.06,0s.06,0,.08,0-.05,0,0-.05.21-.05.39-.08c-.07,0,0,0,0-.07s.2-.16.18,0c.15-.1.34-.2.51-.3a.76.76,0,0,0,.32-.27s.12-.06.17-.09l0,0a2,2,0,0,0,.31-.14c-.09,0-.08,0-.05-.1l.16,0,0-.06a.4.4,0,0,0,.13-.13s0,0,0,0,.24-.16.29-.16.12-.12.08-.21,0,0,.06,0,0,.08.06,0h0l0,0,.1-.12s0,0,0,.06,0-.05,0-.07,0,0,0,0h0a.18.18,0,0,1,.06-.1A.66.66,0,0,1,50,20a.45.45,0,0,0,.12-.31s0,.08,0,.08c.07-.17.06-.36.13-.46l0,0a1.28,1.28,0,0,0,.12-.32h0c0-.08.05-.2.07-.32A.36.36,0,0,0,50.45,18.37ZM41.84,17v0S41.87,16.92,41.84,17Zm5,5.21h-.17l.06-.05h0l.08,0s0,0,0,0h0S46.91,22.17,46.89,22.19Zm1.89-1.05a.27.27,0,0,0,.08-.07.22.22,0,0,0,.07.07Zm.44-5.74a.24.24,0,0,1,.11.14Zm.13.17h0v0Zm.85,1.11c0,.05,0,.07,0,0Zm-.31,3.17,0,0a.45.45,0,0,1-.24.14,1.74,1.74,0,0,0,.1-.19l.22-.11Zm.14-.72s0-.09,0-.14h.08l-.08,0,0-.14h0a1.31,1.31,0,0,1,0,.31A.26.26,0,0,1,50,19.13Zm.13-.74c0-.05,0-.09,0-.13s0,0,0,0A.6.6,0,0,1,50.16,18.39Zm0-.77A4,4,0,0,0,50,17s0,.06,0,.07a.26.26,0,0,1,0-.17.41.41,0,0,0,.05.09c0-.08-.09-.13-.11-.26s.06-.1.15,0a.26.26,0,0,1,0,.23.43.43,0,0,0,0,.28s0-.07.06.09A.54.54,0,0,1,50.15,17.62Z"/><path class="cls-2" d="M39.87,34.42c-.1,0-.17.14-.24.14a.14.14,0,0,0,.11-.08v.07a.59.59,0,0,1-.34.11c.05,0,0,0-.06,0a2.84,2.84,0,0,1-.54.43h.1a.5.5,0,0,0,.24-.1l.12-.05c-.15,0,0-.06,0-.1h.09s-.06,0,0-.05.21-.07.28,0l0,0h0c.09-.06.06,0,.07,0s.15-.12.19-.23c-.06.14.23-.15.21,0,0-.12.05,0,.06-.13a.62.62,0,0,1-.33.13ZM39,35Z"/><path class="cls-2" d="M41.84,30.17s0-.05.06,0,0-.11,0,0c-.13-.28-.21-.57-.31-.85a2.25,2.25,0,0,0-.43-.79s0,0,0,0,0-.11-.06-.16L41,28.22c0-.06,0,0,.05-.06-.17-.25-.44-.4-.59-.6-.08,0,0,.07-.12,0,.09,0,0-.05,0-.1s-.13-.12-.07-.12c-.14,0-.32-.19-.35-.05-.11-.06-.06-.1,0-.1a1.14,1.14,0,0,1-.3-.21c-.05,0-.19-.09-.34-.15a.77.77,0,0,0-.4-.08c.1,0,0,0-.07-.08l.09,0-.18,0s0,0,0,0,0,0-.08,0a.36.36,0,0,1-.19-.1h0l-.09,0c-.06,0,.22.1,0,.1,0,0-.1-.12-.17-.08.11,0,.09,0,0,.06H38l.06-.07a4.24,4.24,0,0,0-1.32.11c0,.06-.31.07-.25.16l0,0c.1,0,0,.08-.1.1.08-.06-.19-.05,0-.13h-.18c-.07-.07-.19,0-.31,0a1.49,1.49,0,0,1-.39.21h0c-.25.06-.44.32-.5.33v.05a.56.56,0,0,0-.39.26s0,0,0,0a.34.34,0,0,0-.25.15h0l-.19.19c.06.06,0,.12-.12.2s-.19.19-.14.27-.18.17-.24.23,0,0,0,0-.11.27-.16.37-.06,0-.08,0c0,.15-.21.35-.2.41s0,.06.07.09-.13-.06-.13.16c0,0,0-.06,0,0s.13.26.08.33V30c-.07.14.07.36,0,.37l0,0c0,.25,0,.1,0,.36h0c0,.11.05.17,0,.23v0a1.43,1.43,0,0,0,0,.29s0,.08,0,.1,0,.33,0,.39c0-.11,0-.07.06,0a.15.15,0,0,0,0,.2c-.08,0-.16.07-.12.25,0,0,0-.08,0-.06s0,.06,0,.07,0,0,0,0,0,.2.09.38c0-.06,0,0,.07,0s.16.2,0,.18c.1.15.2.34.3.5a.89.89,0,0,0,.28.33s.06.11.09.16l0,0a2.56,2.56,0,0,0,.14.31c0-.09,0-.08.1,0s0,.1,0,.16l.06,0c0,.06.08.09.13.12s0,0,0,0,.16.23.17.29.11.11.2.07a.16.16,0,0,0,0,.07s-.08,0,0,.06h0l.05,0,.11.09.38,0a.31.31,0,0,1,0-.1l.2.1h.2c1.3,0,3.59-.31,4.44-2.38l.1,0a5.63,5.63,0,0,1-1.17,2.28l.26-.14,0,0,.06,0h0l.3-.21s.19,0,.18,0,0-.07.11-.14,0,.12-.05.16.11,0,.12,0,0-.25-.12-.21a.22.22,0,0,1-.13.11,4.15,4.15,0,0,0,1.58-3.25,2,2,0,0,0,0-.25c.06.05.11.11.15.05v.08c.07,0,0-.25,0-.3Zm-8.31,1.57a0,0,0,0,0,0,0s0,.05,0,0v-.17l0,.06a0,0,0,0,1,0,0v.05l0,0a.19.19,0,0,0,0,.08S33.55,31.77,33.53,31.74Zm1,2v-.14l.07.08A.22.22,0,0,0,34.56,33.76Zm4.06-7.15h0S38.68,26.64,38.62,26.61Zm1.5,7.51,0,0h0Z"/><polygon class="cls-2" points="39.4 34.58 39.4 34.58 39.4 34.58 39.4 34.58"/><path class="cls-2" d="M23.36,30.53s.06,0,.07,0,0-.12,0,0c-.13-.29-.21-.58-.31-.86a2.43,2.43,0,0,0-.43-.79s0,0,0,0,0-.1-.06-.16l-.16-.07c0-.07,0-.05,0-.06-.17-.26-.44-.41-.59-.61-.08,0,0,.07-.11,0,.08,0,0,0,0-.1s-.12-.11-.07-.11c-.14,0-.31-.2-.35-.06-.11-.06-.05-.1,0-.09a1.91,1.91,0,0,1-.21-.14l-.54,0c-1.29,0-3.59.31-4.44,2.38l-.1,0a5.31,5.31,0,0,1,1.63-2.7c-.07,0-.16,0-.26.07a2.48,2.48,0,0,1-.39.21s0,0,0,0c-.24.06-.43.32-.5.33l0,.06a.57.57,0,0,0-.4.25s0,0,0,0a.36.36,0,0,0-.25.15h0a1.62,1.62,0,0,0-.18.19c.05.05,0,.11-.13.2s-.18.18-.13.26-.18.17-.24.24v0c-.12.05-.11.27-.16.37s-.06,0-.07,0c0,.16-.22.35-.21.41s.05.06.07.1-.13-.07-.12.16c0,0,0-.07,0-.05s.14.26.09.33l0-.05c-.07.13.07.35,0,.36l0,0c0,.25,0,.1,0,.36h0c0,.1,0,.16,0,.22v0a1.42,1.42,0,0,0,0,.29s0,.08,0,.1,0,.33,0,.39c0-.11,0-.06.06,0a.15.15,0,0,0,0,.2c-.08,0-.16.07-.12.25,0,0,0-.08,0-.06s0,.06,0,.07,0,0,.05,0,0,.2.09.38c0-.06,0,0,.07,0s.16.2,0,.18c.1.15.2.34.3.5a1,1,0,0,0,.28.33s.06.12.1.16l0,0a2,2,0,0,0,.14.31c0-.09,0-.08.11,0l0,.16.06,0a.3.3,0,0,0,.13.12s0,0,0,0,.15.24.16.29.12.12.2.08a.21.21,0,0,0,0,.06s-.07.05,0,.06h0l.05,0,.12.1h0a.16.16,0,0,1,.1,0,.72.72,0,0,1,.28.16.45.45,0,0,0,.32.12s-.08,0-.09,0c.17.07.36,0,.46.12l0,0a.92.92,0,0,0,.33.11v.06a2.37,2.37,0,0,1,.31.06.38.38,0,0,0,.29,0s.22,0,.3,0l0,0a.74.74,0,0,1,.26,0,3.36,3.36,0,0,1,.66-.11h0a.76.76,0,0,0,.21,0c-.06,0,.05,0,.1,0a.43.43,0,0,0,.24-.1l.12,0c-.14,0,0-.06,0-.1h.09s-.06,0,0,0,.21-.08.28-.06,0,0,0,0,0,0,0,0h0c.09-.06.06,0,.07,0s.15-.11.19-.23c-.06.14.23-.15.21,0,0-.11.05,0,.06-.12a.7.7,0,0,1-.33.12l.06-.09c-.1,0-.17.14-.24.14a.16.16,0,0,0,.11-.07v.06a.59.59,0,0,1-.34.11c.08-.05-.11,0-.07-.05l.06,0s0,0,0,0l.33-.17s0,0,0,0l.05,0h0l.3-.21c.05,0,.19,0,.18,0s0-.07.11-.14,0,.12,0,.16.1,0,.11,0,0-.26-.11-.22a.19.19,0,0,1-.14.11l.14-.11.11-.11c0,.05,0,0,.05,0v0l0,0a4.13,4.13,0,0,0,1.33-3,1.94,1.94,0,0,0,0-.24c.06.05.11.1.15,0v.08c.06,0,0-.25,0-.3A2.44,2.44,0,0,0,23.36,30.53Zm-8.3,1.57a0,0,0,0,0,0,0s0,.06-.05,0v-.18l.06.06v.08l0,0a.31.31,0,0,0,0,.08S15.08,32.13,15.06,32.1Zm1,2V34l.07.08A.16.16,0,0,0,16.09,34.13Zm1.31.94,0,0a.47.47,0,0,1-.15-.24l.2.1.11.21Zm1,.22a1.25,1.25,0,0,1-.3.05s0-.08,0-.14a.7.7,0,0,0,.14,0v.09l0-.08.14,0A0,0,0,0,1,18.41,35.29Zm.56.08-.11,0H19A.09.09,0,0,0,19,35.37Zm1.34,0a.42.42,0,0,0-.28,0s.08,0-.08.06a.58.58,0,0,1-.31-.08,4.13,4.13,0,0,0,.61-.13l-.07,0a.38.38,0,0,1,.18,0l-.1.06c.09,0,.13-.1.26-.12s.1.07,0,.15A.27.27,0,0,1,20.31,35.32Zm.26,0Zm1.08-.85,0,0h0Z"/></svg>