<svg viewBox="0 0 18 10" xmlns="http://www.w3.org/2000/svg"><path d="m16.4 9.83c-1.82 0-3.66-.1-5.44-.2a52.23 52.23 0 0 0 -10.08.1.48.48 0 0 1 -.14-1 53.44 53.44 0 0 1 10.26-.06c2 .11 4.12.22 6.17.19a.48.48 0 0 1 0 1zm0-4.15c-1.83 0-3.66-.1-5.44-.2a52.13 52.13 0 0 0 -10.07.1.48.48 0 0 1 -.14-1 51.77 51.77 0 0 1 10.25-.06c2 .11 4.12.22 6.18.19a.47.47 0 0 1 .49.47.48.48 0 0 1 -.47.49zm0-4.15c-1.82 0-3.66-.1-5.44-.2a52.13 52.13 0 0 0 -10.07.1.48.48 0 0 1 -.15-.95 52.56 52.56 0 0 1 10.26-.11c2 .11 4.13.22 6.18.19a.46.46 0 0 1 .49.47.48.48 0 0 1 -.47.49z"/></svg>