<svg id="Layer_1" data-name="Layer 1" xmlns="http://www.w3.org/2000/svg" xmlns:xlink="http://www.w3.org/1999/xlink" viewBox="0 0 21.71 14.9"><defs><style>.cls-1{fill:none;}.cls-2{clip-path:url(#clip-path);}</style><clipPath id="clip-path"><rect class="cls-1" width="21.71" height="14.9"/></clipPath></defs><title>message</title><g class="cls-2"><path d="M19.84,14a2.12,2.12,0,0,0-.34,0H.94V.94H1a5.08,5.08,0,0,0,.62.88c.69.89,1.74,2.08,1.74,2.08l3.5,3.5L2.88,11.33s-1.18,1.4-1.11,1.36c-.43.6-.62,1.08.35.39.6-.39,1.37-1,1.37-1l4-4,2.82,2.83.09,0a.59.59,0,0,0,.52-.11,3.5,3.5,0,0,0,.94-.64c.89-.68,2.08-1.74,2.08-1.74l.37-.37L18.24,12s1.4,1.18,1.36,1.11c.6.44,1.08.62.39-.35-.39-.59-1-1.36-1-1.36l-4-4,6-5.95h0C21,5.15,21,9,21,8.66c.06,2.67.13,4.89.21,5.61A5.77,5.77,0,0,0,19.84,14M20.15.89,13.36,7.67s-1.95,2.18-1.85,2.11a8,8,0,0,0-.49.64.59.59,0,0,0,0-.14.16.16,0,0,0,0-.06L4.08,3.33S1.9,1.38,2,1.48A7.84,7.84,0,0,0,1.26.94s16.4,0,18.89,0m.77.07a.56.56,0,0,0-.05-.08h.05V1m.41-.89h0C18.46,0,.47,0,.47,0A.47.47,0,0,0,0,.47v14a.47.47,0,0,0,.47.47h19l.41,0c1.31-.2,1.6-.38,1.42-.53.07-.52.14-2.18.22-5.49.05-2.66.11-5.83.16-8.38h0a.38.38,0,0,0-.38-.4"/></g></svg>