<svg viewBox="0 0 26 23" xmlns="http://www.w3.org/2000/svg"><path d="m23.5 18.2c-.27.65-.83 1.08-2 1-.42 0-.69-6.63-.72-7.29-.11-2.67-.11-5.34-.2-8a7.78 7.78 0 0 1 2.19.43 2.6 2.6 0 0 1 .89 2.08c.23 2.78 0 5.69 0 8.47a10.06 10.06 0 0 1 -.18 3.29m-4.8 1.18c-.27-5.12-.24-10.26-.81-15.36a.29.29 0 0 0 0-.09h1.27c.17 5.15.08 10.31.92 15.41l-1.36.05m-.32 1.77a.53.53 0 0 1 -.11.21h-.55l-.1-.06-.07-.1v-.13a.76.76 0 0 1 0-.15h1a3 3 0 0 1 -.1.32m-9.54-1.8c.15-5.12-.56-10.21-.61-15.32 2.7-.11 5.43-.11 8.15-.17a.21.21 0 0 0 0 .08c.57 5.12.54 10.27.81 15.4q-4.19.12-8.35 0m.51 1.84a.94.94 0 0 1 0 .09h-.1-.32-.14s0 0 0 0a.21.21 0 0 1 0-.06.08.08 0 0 0 0 0 .83.83 0 0 1 0-.15.62.62 0 0 0 0-.18h.83a1.74 1.74 0 0 1 0 .32v.07m.75-19.46a25.46 25.46 0 0 1 2.76-.1 8.67 8.67 0 0 1 1.69 0c.31.07 1.06.78 1.17.77-2 0-4.1.06-6.16.12a2.18 2.18 0 0 1 .54-.81m-2.97 17.52-1.25-.05c0-.05 0-.1 0-.15-.11-5-.4-10-.7-15h1.32c.06 5.09.76 10.14.62 15.24m-4-.19a.65.65 0 0 0 -.17-.08 2 2 0 0 1 -.21-.16l-.15-.1-.1-.1a1.72 1.72 0 0 1 -.32-.42 126.5 126.5 0 0 1 -.11-13.38 2.56 2.56 0 0 1 1.68-.83c.3 5 .59 10 .7 15v.08l-1.3-.07m21.62-8.09c0-1.16 0-2.31 0-3.47 0-.64.06-1.32 0-2-.23-3.95-5-3.19-7.77-3.18a11.87 11.87 0 0 0 -.87-1.4 3.11 3.11 0 0 0 -1.34-.68 12.47 12.47 0 0 0 -3.61-.09c-1.7.07-3 .53-3.39 2.39l-3.18.11a4.14 4.14 0 0 0 -3.56 1.23 4.12 4.12 0 0 0 -.49 2.63c0 1.31-.06 2.61-.06 3.91 0 1.48 0 3 .07 4.43a11.51 11.51 0 0 0 .29 3.8c.88 2.34 4 2 6 2.05 0 2.42 4 2.8 3.72.06h5.14a1.87 1.87 0 0 0 1.76 1.89 2 2 0 0 0 2.15-1.86.77.77 0 0 0 0-.15s2.37-.11 2.66-.15a2.91 2.91 0 0 0 2-1.12c.76-1 .54-2.37.54-3.53 0-1.63 0-3.25 0-4.87"/></svg>