<svg viewBox="0 0 20.08 19.79" xmlns="http://www.w3.org/2000/svg"><path d="m19.08.28c-5.59-.28-11.18-.28-16.77-.28a1 1 0 0 0 -1 1.19 1.78 1.78 0 0 0 -.05.28c-.16 5.6-.7 11.18-1.26 16.76a.88.88 0 0 0 1 1 1.06 1.06 0 0 0 .31.05c5.69 0 11.37.91 17 .28a1.11 1.11 0 0 0 1-1 1.21 1.21 0 0 0 .07-.35c0-5.45.4-10.89.55-16.34a1.09 1.09 0 0 0 -.85-1.59zm-1.74 17.28c-5.05.44-10.09-.26-15.14-.36.5-5 1-10 1.14-15.1 4.84 0 9.69 0 14.53.23-.15 5.08-.49 10.15-.53 15.23z"/><path d="m6.54 10.69c.7-.1 1.43-.18 2.17-.25 0 .93.06 1.87 0 2.8a.71.71 0 0 0 .35.61.62.62 0 0 0 .35.1.7.7 0 0 0 .71-.7c0-1 0-1.95-.06-2.93 1.18-.09 2.37-.14 3.53-.16a.71.71 0 0 0 0-1.42c-1.2 0-2.41.07-3.61.16-.06-.83-.15-1.65-.25-2.45a.76.76 0 0 0 -.23-.45.69.69 0 0 0 -.5-.16.72.72 0 0 0 -.61.81c.1.77.19 1.57.25 2.37-.75.07-1.51.16-2.25.25a.77.77 0 0 0 -.48.28.74.74 0 0 0 .13 1 .74.74 0 0 0 .5.14z"/></svg>