<svg viewBox="0 0 9.28 6.59" xmlns="http://www.w3.org/2000/svg"><path d="m8.23 6.59a1.4 1.4 0 0 0 -.23-1.95l-.2-.2a5.58 5.58 0 0 1 -.61-.67.91.91 0 0 1 .09-1.37l.36-.17a3.17 3.17 0 0 0 .73-.39 2.4 2.4 0 0 0 .86-.92.72.72 0 0 0 -.07-.66.63.63 0 0 0 -.5-.26.66.66 0 0 0 -.3.07 25.79 25.79 0 0 0 -3 1.69.73.73 0 0 0 -.23 1v.13a2.35 2.35 0 0 0 .27.55 15.77 15.77 0 0 0 2.83 3.15"/><path d="m3.23 6.59a1.4 1.4 0 0 0 -.23-1.95l-.2-.2a5.58 5.58 0 0 1 -.61-.67.91.91 0 0 1 .09-1.37l.36-.17a3.17 3.17 0 0 0 .73-.39 2.4 2.4 0 0 0 .86-.92.72.72 0 0 0 -.07-.66.63.63 0 0 0 -.5-.26.66.66 0 0 0 -.3.07 25.79 25.79 0 0 0 -3 1.69.73.73 0 0 0 -.23 1l.05.13a2.35 2.35 0 0 0 .22.51 15.77 15.77 0 0 0 2.83 3.19"/></svg>