<svg id="Layer_1" data-name="Layer 1" xmlns="http://www.w3.org/2000/svg" viewBox="0 0 218 20"><defs><style>.cls-1{fill:#673065;}.cls-2{fill:#666;}</style></defs><title>papagayo-sticky</title><path class="cls-1" d="M26.14,17.78c0-.18,0-.34,0-.48s0,0,0-.05,0,0,0-.05,0-.09,0-.07,0-.21-.11-.17,0-.06,0,0a.56.56,0,0,1,0-.21l-.07-.2c0-.08-.09-.17-.14-.19s0,0,0-.06l.05,0a.41.41,0,0,0-.05-.09l0,0s0,0,0,0a.24.24,0,0,1,0-.12h0l0,0s.05.13,0,0,0-.09,0-.1,0,.06,0,.05a.18.18,0,0,0-.05-.07h.05a2.68,2.68,0,0,0-.57-.49s-.16-.1-.17,0h0c.05,0,0,0-.07,0s-.06-.09.05,0l0,0h-.3A2.58,2.58,0,0,0,22,16.67l-.05,0a3,3,0,0,1,.91-1.53s-.06.05-.09.05,0,0,0,0-.22,0-.25.08,0,0,0,.07,0-.08-.11,0,0,0,0,0-.05.15-.1.16l0,0c-.08,0-.11.17-.16.13v0c-.09.12-.06,0-.14.15h0c-.05,0-.05.09-.1.08v0a.63.63,0,0,0-.11.12.08.08,0,0,0,0,0s-.13.14-.14.17,0,0,0,0-.06,0-.07.09-.09,0-.14.05,0,0,0,0,0,0,0,0,0,0,0,0-.06.11-.12.2,0,0,0,0,0,.14-.06.08c0,.1-.06.22-.08.32a.65.65,0,0,0,0,.25s0,.07,0,.1h0a1.71,1.71,0,0,0-.07.18s.05,0,.07,0a.35.35,0,0,0-.05.08h0a.16.16,0,0,0,0,.1h0c-.06,0,0,.15-.06.18s0,.09.06.11a.07.07,0,0,0,0,.05s-.05,0,0,0h0a.22.22,0,0,0,0,.09l0,0,0,0h0a.14.14,0,0,1,0,.07.48.48,0,0,1,.05.17.25.25,0,0,0,.08.18s0,0,0,0,.12.17.13.24h0a1.31,1.31,0,0,0,.09.17l0,0,.1.16c0,.05.09.1.13.1s.09.08.12.12h0a.93.93,0,0,1,.1.1l.11.08-.05,0,.08,0a0,0,0,0,0,0,0l.18.14h0l.09.07s0,0,.05,0a.22.22,0,0,0,.14,0l.07,0c-.08-.05,0,0,0-.05l0,0s0,0,0,0,.11.05.13.09h0c.06,0,0,0,0,0s.11,0,.17,0,.15,0,.1.08,0,0,.07,0a.41.41,0,0,1-.19-.08l.06,0s-.12,0-.15,0,.07,0,.08,0l0,0a.44.44,0,0,1-.18-.09c.05,0-.05,0,0-.05h0s0,0,0,0l.24.08h0l.2,0s.09.07.06.09,0,0,.1,0-.06,0-.09,0,.06,0,.06,0,.09-.11,0-.13a.08.08,0,0,1-.1,0,2.33,2.33,0,0,0,2-.66l.09-.11c0,.05,0,.09,0,.08l0,0s.09-.1.14-.1l.06-.14s0,0,0,0,0-.05,0,0a3.38,3.38,0,0,1,.22-.47,1.44,1.44,0,0,0,.14-.49s0,0,0,0,0-.06,0-.09a.42.42,0,0,1,0-.1s0,0,0,0m-4.81-.36h-.06l.06-.06v.07m.1,1a.28.28,0,0,1,0-.09h0a.37.37,0,0,1,.05-.17l0,.13a1.27,1.27,0,0,1,0,.14m.29-2.31v0h0l0,0h0l0,0a0,0,0,0,1,0,0h0l.07-.07m0,2.72a1.28,1.28,0,0,1-.15-.1.22.22,0,0,1,.07-.06.25.25,0,0,0,0,.07l0,0,0,0,0,.06s0,0,0,0m.22.25h0a.31.31,0,0,1,0-.08l.07.08h0m.63.63h0m0-.14-.06,0a.77.77,0,0,1,.15.06s0,.06,0,.07a.17.17,0,0,1-.11-.08.28.28,0,0,0-.11-.11s0,.05-.06,0a.26.26,0,0,1-.09-.16,2.73,2.73,0,0,0,.43.26h0a.47.47,0,0,0-.16-.07.17.17,0,0,1,.08.06m.82.24h0s0,0,0,0m2.4-3.63h0s0,0,0,0"/><path class="cls-1" d="M20.26,10.17s0-.13,0-.18h0a.37.37,0,0,1,0-.15.79.79,0,0,1,0-.13l0,.05s0-.05,0-.09,0,0,0,0a1.57,1.57,0,0,0,0-.24h0s0-.08,0-.12,0,0,0-.06a.28.28,0,0,0-.06-.14s0-.05,0-.07,0,0-.06,0V9s0,0,0,0,0-.12,0-.16l0,0v0c0-.05,0,0,0,0s-.07-.09-.13-.11-.08-.13,0-.12,0,0-.07,0a.37.37,0,0,1,.07.19l-.05,0s.08.09.08.13,0-.06,0-.06h0A.3.3,0,0,1,20,9s0,.07,0,0V9s0,0,0,0l-.12-.22,0,0,0,0h0a.91.91,0,0,0-.11-.16s0-.11,0-.11,0,0-.07-.06.06,0,.08,0a.1.1,0,0,1,0-.07c-.06,0-.14,0-.12.07a.11.11,0,0,1,.06.08,2.49,2.49,0,0,0-.94-.73h-.06a2.57,2.57,0,0,0-2.53,1.36l-.06,0a3.21,3.21,0,0,1,.88-1.49h0a1.28,1.28,0,0,0-.45.23s0,0,0,0-.06,0-.09,0L16.29,8s0,0,0,0-.23.24-.35.33,0,0,0,.06,0,0-.06,0-.07.07-.06,0-.12.17,0,.2-.06,0,0,0-.08.12-.13.17-.05.1-.09.19a.6.6,0,0,0-.05.23c0-.06,0,0,0,0v0l0,.1v0s0,0,0,.05,0,.07-.06.11v0s.05-.12.05,0a.12.12,0,0,0-.05.1c0-.06,0-.05,0,0s0,.06,0,.09l0,0a2.81,2.81,0,0,0,.05.76s0,.17.09.14h0c0-.06,0,0,.05.06s0,.1-.07,0v.1c0,.05,0,.11,0,.18a1.27,1.27,0,0,1,.12.23v0c0,.14.18.25.19.28h0a.36.36,0,0,0,.14.23s0,0,0,0a.23.23,0,0,0,.09.14h0l.11.11s.07,0,.11.07.1.11.15.08.1.11.13.14h0c0,.07.15.06.21.09s0,0,0,0,.2.13.24.12,0,0,.05,0,0,.08.09.08,0,0,0,0,.15-.08.18-.05h0c.08,0,.2,0,.21,0v0c.14,0,.06,0,.2,0h0c.06,0,.1,0,.13,0H18s.19,0,.22,0,0,0,0,0a.07.07,0,0,0,.11,0c0,.05,0,.1.14.07s0,0,0,0h0s0,0,0,0,.12,0,.22,0,0,0,0,0,.11-.1.1,0,.2-.11.29-.17a.54.54,0,0,0,.19-.15s.06,0,.09-.06h0c.1,0,.07,0,.18-.08-.05,0,0,0,0-.06l.09,0v0a.19.19,0,0,0,.07-.08s0,0,0,0,.13-.08.16-.09.07-.06.05-.11l0,0s0,0,0,0h0v0l.05-.06v0a.06.06,0,0,1,0,0h0a.09.09,0,0,1,0-.06.37.37,0,0,1,.09-.16.24.24,0,0,0,.07-.18s0,0,0,0,0-.21.08-.26h0a.56.56,0,0,0,.07-.19h0a.81.81,0,0,1,0-.19c0-.06,0-.13,0-.15m-4.9-.8h0s0,0,0,0m2.88,2.94h0s0,0,0,0h-.1l0,0h0l.05,0a0,0,0,0,1,0,0m1.07-.57.05,0s0,0,0,0h-.09m.32-3.17h0l0,0,0,0m.49.63s0,0,0,0h0M19.94,11v0a.26.26,0,0,1-.15.09.75.75,0,0,0,.07-.12l.13-.06-.06.06m.08-.4s0-.06,0-.08h0a.22.22,0,0,1,0-.08h0a1.41,1.41,0,0,1,0,.18H20m.07-.42s0-.06,0-.09h0l0,0,0,.06m0-.45a2.73,2.73,0,0,0-.1-.48h0a.64.64,0,0,0,.07.16s0-.07,0-.1l0,.06c0-.05,0-.08-.06-.15s0-.06.08,0a.14.14,0,0,1,0,.13.28.28,0,0,0,0,.16s0,0,0,.05a.24.24,0,0,1-.06.17"/><path class="cls-1" d="M10.76,10.14a1.71,1.71,0,0,0,.07-.18s0,0-.06,0a.35.35,0,0,1,.05-.08h0a.17.17,0,0,0,0-.1h0c.05,0,0-.16.05-.18s0-.09-.05-.11a.43.43,0,0,0,0-.05s0,0,0,0h0s0-.06,0-.08l0,0,0,0h0a.08.08,0,0,1,0-.07.34.34,0,0,1-.05-.17.3.3,0,0,0-.08-.18s0,0,0,.05-.12-.17-.14-.24h0a.68.68,0,0,0-.09-.17l0,0-.1-.16c0-.05-.08-.1-.12-.1s-.09-.08-.13-.12h0A.46.46,0,0,1,10,8l-.12-.07h.06l-.08,0,0,0a2.31,2.31,0,0,0-.19-.14h0l-.09-.07s0,0-.05,0a.19.19,0,0,0-.13,0l-.07,0c.07,0,0,0,0,0l0,0s0,0,0,0-.11,0-.13-.09h0c-.06,0,0,0,0,0s-.11,0-.17,0-.15,0-.1-.08,0,0-.08,0A.37.37,0,0,1,9,7.53H8.89c0,.06.12,0,.15,0s-.07,0-.07,0l0,0a.31.31,0,0,1,.18.09c-.05,0,.05,0,0,0h0s0,0,0,0L8.9,7.61h0l-.2,0s-.09-.06,0-.08,0,0-.1,0,.06,0,.08,0-.06,0-.06,0-.09.11,0,.13a.08.08,0,0,1,.1,0,2.34,2.34,0,0,0-2,.66l-.08.11c0-.05,0-.09,0-.08l0,0s-.1.1-.14.1a.59.59,0,0,0-.06.14s0,0,0,0,0,.05,0,0a5.12,5.12,0,0,1-.22.47A1.4,1.4,0,0,0,6,9.4s0,0,0,0,0,.06,0,.09l0,.1s0,0,0,0c0,.18,0,.34,0,.48s0,0,.05,0,0,0,0,.06,0,.09,0,.07.05.21.12.16,0,.07,0,0a.53.53,0,0,1,0,.21s0,.11.08.19a.49.49,0,0,0,.13.2c-.06,0,0,0,0,.06l0,0,.06.09v0s0,0,0,0a.15.15,0,0,1,0,.12h0l0,0s0-.12,0,0,0,.09,0,.1,0-.06,0,0l0,.07h0a2.74,2.74,0,0,0,.58.49s.15.1.16,0h0s0,0,.08,0,.06.09-.06,0l0,0h.29A2.57,2.57,0,0,0,10,10.69l.06,0a3.12,3.12,0,0,1-.92,1.53s.06-.05.09-.05,0,0,0,0,.23-.05.25-.08,0,0,0-.07,0,.08.11,0h0s.05-.17.1-.17v0c.08,0,.11-.17.16-.13v0c.08-.12.05,0,.14-.15h0s0-.08.11-.08l0,0a.63.63,0,0,0,.11-.12.08.08,0,0,0,0,0s.13-.14.15-.17,0,0,0,0,.06,0,.07-.09.09,0,.15,0l0,0s0,0,0,0,0,0,0,0,.07-.1.12-.18,0,0,0,0,0-.14.06-.08a2.25,2.25,0,0,1,.08-.33.54.54,0,0,0,0-.24s0-.07,0-.1Zm-4.52,1s0,0,0,0ZM8.65,7.57h0m.8.09h0m-.07.13h0a.47.47,0,0,0,.16.07.24.24,0,0,1-.08-.06l.06,0s-.09,0-.15-.06,0-.06,0-.07.09,0,.11.08a.26.26,0,0,0,.12.11s0,0,.06,0a.24.24,0,0,1,.08.16,2.26,2.26,0,0,0-.42-.26m.68.49h0s0,0,0,.07,0,0-.07-.08m.25,3v0h0l0,0h0l0,0s0,0,0,0h0l-.07.07m.06-2.56,0-.07,0,0,0,0-.05-.07h0s.13.1.14.1a.22.22,0,0,1-.07.06m.23.52a.5.5,0,0,0,0-.13,1.09,1.09,0,0,1,0-.14.28.28,0,0,0,0,.09h0a.35.35,0,0,1,0,.17m.1.79s0,0,0-.07h0L10.7,10"/><path class="cls-1" d="M15.49,2.5a.2.2,0,0,0,0-.16h0a.76.76,0,0,0,0-.15s0-.06,0-.13,0-.15-.05-.16a.4.4,0,0,0,0-.19h0c0-.07-.06-.15-.08-.21s0,0,0,0-.05-.23-.08-.25,0,0-.06,0,.07,0,0-.12,0,0,0,0-.16-.06-.17-.1h0c0-.08-.17-.11-.13-.16h0c-.11-.09,0-.06-.14-.14h0s-.08,0-.07-.1h0L14.65.53a.08.08,0,0,0,0,0s-.14-.13-.17-.14,0,0,0,0,0-.07-.08-.07a.22.22,0,0,0,0-.08l-.43,0A2.58,2.58,0,0,0,11.4,1.58l-.05,0A3.15,3.15,0,0,1,12.16.14l-.05,0h.07l0,0h0L12.32,0a.45.45,0,0,1-.11,0A.3.3,0,0,0,12,.11s0,0,.05,0-.17.12-.23.13v0a.6.6,0,0,0-.18.09l0,0-.15.11c-.06,0-.1.08-.1.12s-.09.09-.13.12v0a.47.47,0,0,1-.11.1.52.52,0,0,1-.07.11.43.43,0,0,0,0,0,.29.29,0,0,0,0,.08,0,0,0,0,0,0,0,1.33,1.33,0,0,0-.14.19h0a.39.39,0,0,0-.08.1s0,0,0,0a.29.29,0,0,0-.05.14l0,.07c.05-.07,0,0,.05,0s0,0,0,0,0,0,0,0,0,.12-.09.14v0h0a0,0,0,0,1,0,0c0,.06,0,0,0,0s0,.11,0,.17,0,.15-.07.1,0,0,0,.07a.31.31,0,0,1,.09-.18v.06s0-.13,0-.16,0,.07,0,.08l0,0a.44.44,0,0,1,.09-.18c0,.06.05-.05.06,0l0,0s0,0,0,0a2.17,2.17,0,0,0-.07.24v0a1.29,1.29,0,0,0,0,.19s-.07.09-.09.06,0,0,0,.1,0-.06,0-.08,0,0,0,0,.11.09.13,0a.11.11,0,0,1,0-.1,2.35,2.35,0,0,0,.66,2l.11.09s-.09,0-.08,0l0,0s.1.1.1.14l.14.06s0,0,0,0,.05,0,0,0a3.38,3.38,0,0,1,.47.22,1.44,1.44,0,0,0,.49.14s0,0,0,0,.06,0,.09,0l.1,0s0,0,0,0c.17,0,.33,0,.47,0s0,0,0,0,0,0,.05,0,.09,0,.07,0,.21,0,.17-.12.06,0,0,0a.86.86,0,0,1,.21,0l.2-.07a.51.51,0,0,0,.19-.13c0,.06,0,0,.06,0l0,.05.09-.06,0,0s0,0,0,0a.24.24,0,0,1,.12,0h0l0,0s-.13,0,0,0,.09,0,.1,0-.06,0-.05,0l.07-.06v0a2.46,2.46,0,0,0,.49-.57s.1-.16,0-.17v0c0,.05,0,0,0-.08s.09-.06,0,.06l.07-.08c.06,0,.09-.06.11-.14a1,1,0,0,1,.07-.24h0c.08-.13.05-.31.07-.33l0,0a.34.34,0,0,0,0-.26s0,0,0,0M11.81.29s0,0,0,.06l-.07,0,0,0,0,0-.06,0s0,0,0,0a.42.42,0,0,1,.11-.14M11.52.6l-.07.06h0a0,0,0,0,0,0,0l.07,0m-.7.68h0s0,0,0,0m-.09.8h0l0,0s0,0,0,0M11,1.35h0A.73.73,0,0,0,11,1.18a.1.1,0,0,1-.06.07s0,0,0-.06,0,.1-.06.16-.06,0-.07-.05a.17.17,0,0,1,.08-.12A.28.28,0,0,0,11,1.07s0,0,0-.06a.24.24,0,0,1,.16-.08,2.26,2.26,0,0,0-.26.42m3.39,3.14s0,0,0,0Zm0-4.07v0l0,0v0l0,0s0,0,0,0a0,0,0,0,1,0,0s0,0,0,0l.07.08h-.05"/><path class="cls-1" d="M15.39,16.88s0-.07,0,0a4.68,4.68,0,0,1-.18-.48,1.39,1.39,0,0,0-.24-.45s0,0,0,0,0-.05,0-.09l-.09,0s0,0,0,0-.26-.23-.34-.35,0,0-.07,0,0,0,0-.06-.07-.06,0-.06-.18-.11-.2,0,0-.06,0-.06a.74.74,0,0,1-.17-.12,1.27,1.27,0,0,1-.2-.09.39.39,0,0,0-.22,0c.06,0,0,0,0,0l.05,0-.1,0h0s0,0,0,0-.07,0-.11-.06h0s.12.05,0,.05-.06-.06-.1,0,.05,0,0,0h-.09l0,0a2.83,2.83,0,0,0-.76.07s-.17,0-.14.09h0c.06,0,0,.05-.05.05s-.11,0,0-.07h-.1s-.11,0-.18,0a1.64,1.64,0,0,1-.22.12h0c-.14,0-.24.18-.28.18v0a.35.35,0,0,0-.23.15s0,0,0,0a.23.23,0,0,0-.14.09h0l-.11.11s0,.07-.07.12-.1.1-.08.14a.6.6,0,0,0-.13.14h0c-.07,0-.06.16-.09.22s0,0,0,0-.13.2-.12.24,0,0,0,.05-.07,0-.07.09,0,0,0,0,.07.14.05.18v0c0,.08,0,.2,0,.21h0c0,.14,0,.06,0,.2h0c0,.06,0,.1,0,.13v0a1,1,0,0,0,0,.17s0,.05,0,.06,0,.19,0,.22,0,0,0,0,0,.07,0,.11a.11.11,0,0,0-.07.14s0,0,0,0,0,0,0,0,0,0,0,0,0,.12,0,.22,0,0,0,0,.1.11,0,.1.11.19.17.29a.59.59,0,0,0,.16.18s0,.07.05.09h0c0,.1,0,.06.08.17,0-.05,0,0,.06,0s0,.06,0,.09h0a.27.27,0,0,0,.08.07s0,0,0,0,.09.14.09.17.07.07.12,0a.05.05,0,0,0,0,0s0,0,0,0h0l0,0,.06.05.23,0a.43.43,0,0,0,0-.07l.12.06h.11a2.56,2.56,0,0,0,2.53-1.35h.06A3.29,3.29,0,0,1,14,19.35l.18-.09,0,0,0,0h0l.17-.11s.11,0,.1,0,0,0,.06-.08,0,.06,0,.09.06,0,.07,0,0-.15-.07-.13a.07.07,0,0,1-.08.06,2.34,2.34,0,0,0,.91-1.85c0-.05,0-.09,0-.14s.06.07.09,0v0s0-.14,0-.16,0-.1-.05-.14,0,0,0,0m-4.76.89v0l0,0v-.1l0,0v0h0s0,0,0,.05,0,0,0,0m.59,1.15s0-.05,0-.08l0,.05s0,0,0,0m2.31-4.06h0s0,0,0,0m.83,4.28,0,0h0Z"/><path class="cls-1" d="M4.89,17.08s0-.06,0,0c-.07-.16-.11-.32-.17-.49a1.34,1.34,0,0,0-.24-.44s0,0,0,0,0-.06,0-.09l-.09,0s0,0,0,0-.26-.23-.34-.34,0,0-.07,0,0,0,0-.06-.07-.07,0-.07-.18-.11-.2,0,0-.06,0,0l-.11-.08H3.31A2.57,2.57,0,0,0,.78,16.66H.73a3,3,0,0,1,.92-1.54.2.2,0,0,0-.14,0,1.27,1.27,0,0,1-.23.12h0c-.14,0-.25.18-.28.19v0a.33.33,0,0,0-.23.14s0,0,0,0a.19.19,0,0,0-.14.09h0l-.11.11s0,.06-.07.11-.1.11-.08.15a.6.6,0,0,0-.13.14h0c-.07,0-.06.16-.09.21s0,0,0,0-.13.2-.12.23,0,0,0,.06-.07,0-.07.09,0,0,0,0S.1,17,.08,17v0c0,.08,0,.2,0,.2H0c0,.15,0,.06,0,.21H0c0,.06,0,.09,0,.12v0a1,1,0,0,0,0,.17.15.15,0,0,0,0,.06s0,.18,0,.22,0,0,0,0,0,.06,0,.11a.11.11,0,0,0-.07.14s0,0,0,0,0,0,0,.05,0,0,0,0,0,.11.05.21,0,0,0,0,.1.11,0,.1.11.19.17.28a.55.55,0,0,0,.16.19s0,.06.05.09l0,0a.91.91,0,0,0,.08.18c0-.05,0-.05.06,0l0,.09,0,0a.13.13,0,0,0,.08.07s0,0,0,0,.09.14.09.17.07.06.12,0a.08.08,0,0,0,0,0s0,0,0,0h0l0,0,.07.05h0a.09.09,0,0,1,.06,0,.43.43,0,0,1,.16.09.24.24,0,0,0,.18.07s-.05,0-.05,0,.2,0,.26.07v0l.19.06v0l.18,0a.27.27,0,0,0,.16,0s.12,0,.17,0v0a.37.37,0,0,1,.15,0l.13,0,0,0,.09,0h0a1.6,1.6,0,0,0,.23,0h.12s0,0,.06,0a.39.39,0,0,0,.14-.05s.05,0,.07,0,0,0,0-.06h.06s0,0,0,0,.12,0,.16,0l0,0h0s0,0,0,0,.09-.06.11-.13c0,.09.13-.08.12,0s0,0,0-.07-.13.06-.19.08l0,0c-.06,0-.1.07-.14.08s.07,0,.06-.05v0a.3.3,0,0,1-.19.06s-.07,0-.05,0h0s0,0,0,0a1.19,1.19,0,0,0,.22-.12s0,0,0,0l0,0v0l.17-.11s.11,0,.1,0,0,0,.06-.08,0,.07,0,.09.06,0,.07,0,0-.14-.07-.12a.09.09,0,0,1-.08.06,2.35,2.35,0,0,0,.91-1.85c0-.05,0-.09,0-.14s.06.06.09,0v0s0-.14,0-.17a.69.69,0,0,0-.05-.13s0,0,0,0M.12,18v0s0,0,0,0v-.1l0,0v0h0a.06.06,0,0,0,0,0s0,0,0,0m.59,1.15s0-.06,0-.09l.05.06,0,0m.74.54h0a.24.24,0,0,1-.09-.15l.12.07a.67.67,0,0,0,.06.12.18.18,0,0,1-.07,0M2,19.8l-.18,0a.28.28,0,0,1,0-.08l.08,0v0H2s0,0,0,0m.33,0s0,0,0,0,0,0-.06,0h.08m.75,0a.28.28,0,0,0-.16,0s0,0-.05,0a.23.23,0,0,1-.17-.06,2.57,2.57,0,0,0,.48-.11h0c-.08,0-.15.05-.16.07a.15.15,0,0,1,.09,0l0,0s.07-.05.15-.06,0,0,0,.08a.14.14,0,0,1-.13,0m.15,0h0m.59-.48,0,0h0Z"/><path class="cls-2" d="M37.51,12.12c0-.1.16-.09.16,0,.08,1.44.79,2.34,2.06,2.34a1.76,1.76,0,0,0,2-1.73c0-1.23-.78-1.75-2.13-2.44a3,3,0,0,1-2-2.82,2.36,2.36,0,0,1,2.66-2.28,4.55,4.55,0,0,1,1.36.19.69.69,0,0,1,.52.84c0,.21-.11.79-.14,1.1,0,.12-.16.08-.16,0a1.76,1.76,0,0,0-1.76-1.78,1.51,1.51,0,0,0-1.68,1.6A2.41,2.41,0,0,0,40,9.26c1.84.94,2.6,1.72,2.55,3.13s-1.27,2.43-2.93,2.43A4.17,4.17,0,0,1,38,14.51a1,1,0,0,1-.6-.8,5.52,5.52,0,0,1,.13-1.59"/><path class="cls-2" d="M48.72,12.94c0,1.26.16,1.42,1,1.5a.08.08,0,1,1,0,.16c-.53,0-1.14,0-1.57,0s-1,0-1.52,0a.08.08,0,1,1,0-.16c.72-.11.91-.2.94-1.5,0-.5,0-2.16,0-2.67,0-1.15,0-2.58,0-3.08,0-1.54-.28-1.54-.94-1.63-.11,0-.14-.16,0-.16.4,0,1.09,0,1.52,0l1.35,0c.12,0,.1.14,0,.16-.64.12-.81.13-.84,1.63,0,.44,0,2,0,3.07,0,.52,0,2.18,0,2.68"/><path class="cls-2" d="M57,10.46c-.59.92-1.38,2.29-1.79,3.06-.33.6-.34.83.44.92.11,0,.14.16,0,.16-.44,0-1,0-1.32,0s-.87,0-1.39,0c-.1,0-.1-.15,0-.16a1.65,1.65,0,0,0,1.38-.86c.75-1.06,1.66-2.41,2.4-3.57C56,8.76,55.1,7.37,54.45,6.39c-.41-.62-.6-.77-1.18-.83-.11,0-.14-.16,0-.16.46,0,1,0,1.39,0s1,0,1.51,0c.13,0,.1.16,0,.16-.67.07-.67.29-.41.77.45.84,1,1.82,1.61,2.84.55-.88,1.07-1.79,1.48-2.62s.33-.9-.2-1c-.11,0-.14-.16,0-.16l1.27,0L61,5.4a.08.08,0,1,1,0,.16c-.43.06-.71.09-1.24.86C59,7.54,58.23,8.67,57.67,9.59c.74,1.18,1.89,3,2.59,4,.43.6.71.78,1.2.83a.08.08,0,1,1,0,.16c-.47,0-1,0-1.39,0s-.88,0-1.41,0a.08.08,0,1,1,0-.16c.58-.06.56-.3.3-.78-.39-.69-1.25-2-1.93-3.2"/><path class="cls-2" d="M70.85,12.12c0-.1.16-.09.16,0,.08,1.44.79,2.34,2.06,2.34a1.76,1.76,0,0,0,2-1.73c0-1.23-.78-1.75-2.13-2.44a3,3,0,0,1-2-2.82A2.36,2.36,0,0,1,73.6,5.19,4.58,4.58,0,0,1,75,5.38a.69.69,0,0,1,.52.84c0,.21-.11.79-.14,1.1,0,.12-.16.08-.16,0a1.76,1.76,0,0,0-1.76-1.78,1.51,1.51,0,0,0-1.68,1.6,2.41,2.41,0,0,0,1.63,2.12c1.84.94,2.6,1.72,2.55,3.13S74.66,14.82,73,14.82a4.17,4.17,0,0,1-1.68-.31,1,1,0,0,1-.6-.8,5.52,5.52,0,0,1,.13-1.59"/><path class="cls-2" d="M82,13.16c0,.89.21.93,1,.95h1.25c1.24,0,1.48-.82,1.66-1.75,0-.1.18-.12.18,0A12.33,12.33,0,0,1,86,14.17c-.06.32-.31.44-.87.44-.74,0-2.09-.06-3.5-.06L80,14.6a.08.08,0,0,1,0-.16c.79-.09,1-.23,1-1.5,0-1,0-2.08,0-3.13s0-1.7,0-2.64c0-1.22,0-1.49-1-1.61-.1,0-.13-.16,0-.16.49,0,1.25,0,1.73,0,.94,0,2.33,0,3.12,0,.43,0,.66,0,.63.37s-.09.91-.16,1.42c0,.1-.19.1-.18,0,0-.74-.25-1.23-1-1.29a19.08,19.08,0,0,0-2-.05c0,1.24,0,2.36,0,3.71a23.23,23.23,0,0,0,2.48,0c.43,0,.41-.16.52-.14s0,.07,0,.37a5.15,5.15,0,0,1-.15.9c0,.1-.17.1-.17,0,0-.59-.37-.59-1-.62-.27,0-1.2,0-1.68,0,0,.72,0,2.18,0,3.11"/><path class="cls-2" d="M98.77,14.44c0,.26,0,.31,0,.32s-.12,0-.33-.25c-1-1.08-1.94-2.17-3.75-4-1.42-1.44-2.56-2.62-3.18-3.2,0,1.14,0,4,.13,6,0,.59.28,1,1.19,1.07.1,0,.13.16,0,.16l-1.57,0c-.25,0-.77,0-1.17,0a.08.08,0,1,1,0-.16c.53-.11.72-.24.78-1,.12-1.64.15-4,.15-5.21,0-.81,0-1.78,0-2.64,0-.22,0-.28,0-.3s.11,0,.31.24c1.1,1.21,2.3,2.49,3.78,4,1.29,1.29,2.37,2.4,3.18,3.14,0-1.75,0-3.66-.08-5.72-.06-1.08-.18-1.24-1-1.36a.08.08,0,1,1,0-.16l1.35,0,1.11,0c.12,0,.09.16,0,.16-.56.09-.71.49-.74,1.17-.09,2.28-.15,4.46-.15,7.71"/><path class="cls-2" d="M104.16,12.12c0-.1.16-.09.16,0,.08,1.44.79,2.34,2.06,2.34a1.76,1.76,0,0,0,2-1.73c0-1.23-.78-1.75-2.13-2.44a3,3,0,0,1-2-2.82,2.36,2.36,0,0,1,2.65-2.28,4.58,4.58,0,0,1,1.37.19.69.69,0,0,1,.52.84c0,.21-.11.79-.14,1.1,0,.12-.16.08-.16,0a1.76,1.76,0,0,0-1.76-1.78,1.51,1.51,0,0,0-1.68,1.6,2.41,2.41,0,0,0,1.63,2.12c1.84.94,2.6,1.72,2.55,3.13s-1.27,2.43-2.93,2.43a4.17,4.17,0,0,1-1.68-.31,1,1,0,0,1-.6-.8,5.52,5.52,0,0,1,.13-1.59"/><path class="cls-2" d="M115.34,13.16c0,.89.2.93,1,.95h1.25c1.24,0,1.48-.82,1.66-1.75,0-.1.18-.12.18,0a12.33,12.33,0,0,1-.08,1.81c-.06.32-.31.44-.87.44-.74,0-2.09-.06-3.5-.06l-1.67,0a.08.08,0,1,1,0-.16c.78-.09.94-.23,1-1.5,0-1,0-2.08,0-3.13s0-1.7,0-2.64c0-1.22,0-1.49-1-1.61-.1,0-.13-.16,0-.16.49,0,1.25,0,1.74,0,.93,0,2.32,0,3.11,0,.43,0,.66,0,.63.37s-.08.91-.16,1.42c0,.1-.19.1-.18,0,0-.74-.25-1.23-1-1.29a19.34,19.34,0,0,0-2.05-.05c0,1.24,0,2.36,0,3.71a23,23,0,0,0,2.47,0c.43,0,.42-.16.52-.14s0,.07,0,.37a6.33,6.33,0,0,1-.15.9c0,.1-.18.1-.18,0,0-.59-.37-.59-1-.62-.27,0-1.2,0-1.67,0,0,.72,0,2.18,0,3.11"/><path class="cls-2" d="M123.59,12.12c0-.11.17-.09.17,0,.07,1.43.78,2.34,2.06,2.34a1.78,1.78,0,0,0,2-1.74c0-1.23-.79-1.74-2.14-2.44a3.05,3.05,0,0,1-2-2.82,2.35,2.35,0,0,1,2.65-2.28,4.44,4.44,0,0,1,1.36.19.7.7,0,0,1,.52.85c0,.21-.1.78-.13,1.09a.08.08,0,0,1-.16,0,1.77,1.77,0,0,0-1.77-1.77,1.5,1.5,0,0,0-1.67,1.6,2.41,2.41,0,0,0,1.63,2.12c1.83.93,2.59,1.72,2.55,3.12s-1.28,2.43-2.94,2.43a4,4,0,0,1-1.67-.31,1,1,0,0,1-.61-.8,5.82,5.82,0,0,1,.13-1.58"/><path class="cls-2" d="M139.56,5.78q-.3,0-.63,0h-.48v1c0,.43,0,.88,0,1.35v2.17c0,.2,0,.42,0,.68s0,.5,0,.75,0,.47,0,.68v.47a4,4,0,0,0,.09.82,1,1,0,0,0,.2.46.74.74,0,0,0,.37.22,5.27,5.27,0,0,0,.58.1c.06,0,.08,0,.08.09s0,.08-.08.08l-.87,0-.8,0h-.65l-.37,0h-.29c-.07,0-.1,0-.09-.08s0-.09.09-.09a1.22,1.22,0,0,0,.31-.06.35.35,0,0,0,.2-.18,1.43,1.43,0,0,0,.12-.42c0-.19,0-.45.05-.79V12.4c0-.25,0-.51,0-.79V8.51c0-.28,0-.53,0-.74V7.25c0-.36,0-.64-.05-.86a1.35,1.35,0,0,0-.15-.49.61.61,0,0,0-.32-.25,3.77,3.77,0,0,0-.55-.11c-.05,0-.07,0-.07-.08s0-.08.07-.08H137l.37,0h.32l.89,0a6.93,6.93,0,0,1,1,0,4.14,4.14,0,0,1,1.42.26,2.77,2.77,0,0,1,.94.57,2.14,2.14,0,0,1,.53.76,2.34,2.34,0,0,1,.16.86A2.77,2.77,0,0,1,142.49,9a2.46,2.46,0,0,1-.62.9,2.64,2.64,0,0,1-1,.57,3.4,3.4,0,0,1-1.22.2,2.38,2.38,0,0,1-.53-.05,1.44,1.44,0,0,1-.4-.13.09.09,0,0,1-.06-.11c0-.06,0-.08.1-.06l.19,0h.26a2.46,2.46,0,0,0,1.75-.6,2.44,2.44,0,0,0,.63-1.84,2,2,0,0,0-.53-1.46A2.47,2.47,0,0,0,139.56,5.78Z"/><path class="cls-2" d="M148.71,5.47a2.28,2.28,0,0,1,.1-.21.1.1,0,0,1,.08,0,.1.1,0,0,1,.07,0,1.23,1.23,0,0,1,.09.21c.1.3.25.75.47,1.35s.46,1.25.74,2,.56,1.5.86,2.29.59,1.55.88,2.25a4.06,4.06,0,0,0,.25.51,1,1,0,0,0,.26.31.74.74,0,0,0,.33.17,2.31,2.31,0,0,0,.43.09s.08,0,.09.09,0,.08-.09.08l-.77,0-.83,0-.65,0-.65,0c-.06,0-.09,0-.08-.08s0-.09.08-.09c.28,0,.46-.1.52-.21s.05-.34-.06-.68-.24-.74-.4-1.19-.31-.9-.48-1.34h-2.9c-.06.15-.13.32-.2.52s-.16.42-.24.65-.16.45-.24.68l-.2.64a1.4,1.4,0,0,0-.07.48.52.52,0,0,0,.12.27.53.53,0,0,0,.26.13,1.63,1.63,0,0,0,.33.05c.05,0,.08,0,.08.09s0,.08-.08.08l-.74,0-.6,0-.63,0-.73,0c-.06,0-.09,0-.08-.08s0-.09.08-.09a1.51,1.51,0,0,0,.28-.05.94.94,0,0,0,.3-.12A1.2,1.2,0,0,0,145,14a1.91,1.91,0,0,0,.31-.43q.31-.59.69-1.47c.24-.59.48-1.19.73-1.79Zm1.09,5.08c-.19-.56-.39-1.12-.6-1.67s-.42-1.13-.66-1.72c-.09.22-.19.47-.31.75l-.37.91-.67,1.73.55,0h1.48Z"/><path class="cls-2" d="M158.66,5.78q-.3,0-.63,0h-.49c0,.22,0,.54,0,1s0,.88,0,1.35v2.17c0,.2,0,.42,0,.68s0,.5,0,.75,0,.47,0,.68v.47a4,4,0,0,0,.09.82,1,1,0,0,0,.2.46.74.74,0,0,0,.37.22,5.49,5.49,0,0,0,.57.1.08.08,0,0,1,.09.09c0,.05,0,.08-.09.08l-.86,0-.8,0h-.65l-.37,0h-.3c-.07,0-.09,0-.08-.08s0-.09.08-.09a1.22,1.22,0,0,0,.32-.06.35.35,0,0,0,.2-.18,1.2,1.2,0,0,0,.11-.42,6.56,6.56,0,0,0,.06-.79V12.4c0-.25,0-.51,0-.79V8.51c0-.28,0-.53,0-.74V7.25a8.23,8.23,0,0,0-.06-.86,1.19,1.19,0,0,0-.14-.49.61.61,0,0,0-.32-.25,3.77,3.77,0,0,0-.55-.11.08.08,0,0,1,0-.16h.67l.37,0h.32l.89,0a6.93,6.93,0,0,1,1,0,4.14,4.14,0,0,1,1.42.26,2.88,2.88,0,0,1,.94.57,2.14,2.14,0,0,1,.53.76,2.34,2.34,0,0,1,.16.86A2.77,2.77,0,0,1,161.59,9a2.59,2.59,0,0,1-.62.9,2.72,2.72,0,0,1-1,.57,3.4,3.4,0,0,1-1.22.2,2.38,2.38,0,0,1-.53-.05,1.34,1.34,0,0,1-.4-.13.09.09,0,0,1-.06-.11c0-.06,0-.08.1-.06l.19,0h.26a2.46,2.46,0,0,0,1.75-.6,2.44,2.44,0,0,0,.63-1.84,2,2,0,0,0-.53-1.46A2.47,2.47,0,0,0,158.66,5.78Z"/><path class="cls-2" d="M167.81,5.47a2.28,2.28,0,0,1,.1-.21s0,0,.07,0a.1.1,0,0,1,.08,0,1.23,1.23,0,0,1,.09.21c.1.3.25.75.47,1.35s.46,1.25.74,2,.55,1.5.86,2.29.59,1.55.88,2.25a4.06,4.06,0,0,0,.25.51,1,1,0,0,0,.26.31.74.74,0,0,0,.33.17,2.31,2.31,0,0,0,.43.09s.08,0,.08.09,0,.08-.08.08l-.78,0-.82,0-.65,0-.65,0c-.06,0-.09,0-.08-.08s0-.09.08-.09c.28,0,.46-.1.52-.21s0-.34-.06-.68-.24-.74-.4-1.19-.31-.9-.48-1.34h-2.9c-.06.15-.13.32-.2.52s-.16.42-.24.65-.17.45-.24.68l-.2.64a1.4,1.4,0,0,0-.07.48.52.52,0,0,0,.12.27.55.55,0,0,0,.25.13,1.86,1.86,0,0,0,.34.05c.05,0,.07,0,.08.09s0,.08-.08.08l-.74,0-.6,0-.63,0-.73,0c-.06,0-.09,0-.08-.08s0-.09.08-.09a1.51,1.51,0,0,0,.28-.05.94.94,0,0,0,.3-.12,1.2,1.2,0,0,0,.3-.23,2.28,2.28,0,0,0,.31-.43,15.3,15.3,0,0,0,.68-1.47c.25-.59.49-1.19.74-1.79Zm1.09,5.08c-.19-.56-.39-1.12-.6-1.67s-.42-1.13-.66-1.72c-.09.22-.19.47-.31.75l-.37.91-.67,1.73.54,0h1.49Z"/><path class="cls-2" d="M179.42,5.17a11.59,11.59,0,0,1,1.39.08,6.47,6.47,0,0,1,1.23.29,1.12,1.12,0,0,1,.47.3.83.83,0,0,1,.17.56,6.75,6.75,0,0,1,0,.75c0,.27,0,.55-.06.82a.11.11,0,0,1-.11.08c-.06,0-.09,0-.09-.08a2.91,2.91,0,0,0-.3-1.09,2.32,2.32,0,0,0-.64-.75,2.68,2.68,0,0,0-.9-.43,4,4,0,0,0-1.12-.14,4.52,4.52,0,0,0-1.77.31,3.38,3.38,0,0,0-1.22.9,3.55,3.55,0,0,0-.7,1.4,6.36,6.36,0,0,0-.18,1.79,4.73,4.73,0,0,0,1.21,3.28,4.13,4.13,0,0,0,3.1,1.15q.52,0,.84,0c.21,0,.4-.06.57-.1a.69.69,0,0,0,.31-.13.52.52,0,0,0,.11-.39v-1c0-.29,0-.59,0-.9a1.58,1.58,0,0,0-.12-.62.83.83,0,0,0-.26-.34,1,1,0,0,0-.35-.15l-.41-.08c-.05,0-.08,0-.08-.08a.07.07,0,0,1,.08-.08l.78,0h1.47l.64,0c.06,0,.09,0,.09.07s0,.08-.09.09a1.59,1.59,0,0,0-.34.14.55.55,0,0,0-.22.23,1.48,1.48,0,0,0-.11.45,6.12,6.12,0,0,0-.06.74c0,.21,0,.42,0,.65v.64c0,.12,0,.25,0,.41s0,.28,0,.39a2.33,2.33,0,0,1-.57.23,6.43,6.43,0,0,1-.72.16,6.55,6.55,0,0,1-.79.1q-.4,0-.81,0a7.31,7.31,0,0,1-2.13-.3,5,5,0,0,1-1.74-.88,4.24,4.24,0,0,1-1.17-1.47,4.64,4.64,0,0,1-.43-2.07,5.64,5.64,0,0,1,.33-2,4.2,4.2,0,0,1,1-1.56,4.56,4.56,0,0,1,1.58-1A5.89,5.89,0,0,1,179.42,5.17Z"/><path class="cls-2" d="M190.21,5.47a1.65,1.65,0,0,1,.11-.21s0,0,.07,0,.05,0,.07,0a1.23,1.23,0,0,1,.09.21q.15.45.48,1.35l.73,2c.27.74.56,1.5.86,2.29s.6,1.55.88,2.25a4,4,0,0,0,.26.51.91.91,0,0,0,.26.31.76.76,0,0,0,.32.17,2.43,2.43,0,0,0,.44.09c.05,0,.08,0,.08.09s0,.08-.08.08l-.78,0-.82,0-.65,0-.66,0c-.06,0-.08,0-.08-.08s0-.09.08-.09c.29,0,.47-.1.53-.21a1,1,0,0,0-.07-.68l-.39-1.19c-.15-.45-.31-.9-.48-1.34h-2.91c-.06.15-.13.32-.2.52s-.15.42-.24.65-.16.45-.23.68-.14.44-.2.64a1.19,1.19,0,0,0-.07.48.4.4,0,0,0,.12.27.5.5,0,0,0,.25.13,1.75,1.75,0,0,0,.33.05q.08,0,.09.09c0,.05,0,.08-.09.08l-.74,0-.59,0-.64,0-.72,0c-.06,0-.09,0-.09-.08s0-.09.09-.09a1.66,1.66,0,0,0,.28-.05.89.89,0,0,0,.29-.12,1.45,1.45,0,0,0,.31-.23,2.28,2.28,0,0,0,.3-.43,13.06,13.06,0,0,0,.69-1.47l.74-1.79Zm1.1,5.08-.6-1.67c-.2-.56-.42-1.13-.66-1.72-.09.22-.19.47-.31.75s-.25.59-.37.91l-.67,1.73.54,0h1.48Z"/><path class="cls-2" d="M206,5.67s0,.09,0,.12a.06.06,0,0,1-.08,0,1.31,1.31,0,0,0-.52-.09,2.18,2.18,0,0,0-1.33.52,5.61,5.61,0,0,0-1.25,1.31c-.21.3-.42.63-.64,1a12.2,12.2,0,0,0-.58,1.14,6.75,6.75,0,0,0-.42,1.19,4.53,4.53,0,0,0-.17,1.17v1.05a4.82,4.82,0,0,0,0,.77.71.71,0,0,0,.16.38.53.53,0,0,0,.32.14l.51.06a.08.08,0,0,1,.09.09c0,.05,0,.08-.09.08l-.89,0-.65,0-.63,0-.88,0c-.06,0-.09,0-.09-.08s0-.09.09-.09l.41-.09a.46.46,0,0,0,.29-.17.8.8,0,0,0,.16-.37,3.44,3.44,0,0,0,0-.72v-1a4.43,4.43,0,0,0-.11-1,7.48,7.48,0,0,0-.3-1.07c-.13-.36-.27-.71-.43-1.06a7,7,0,0,0-.51-.91,7.55,7.55,0,0,0-1.5-1.75,2.53,2.53,0,0,0-1.43-.56,1.76,1.76,0,0,0-.39,0,2.49,2.49,0,0,0-.34.08q-.08,0-.09,0s0-.07.05-.1a2.33,2.33,0,0,1,.49-.3,2.26,2.26,0,0,1,1-.16,2.72,2.72,0,0,1,1,.18,3.71,3.71,0,0,1,.86.5,4.52,4.52,0,0,1,.73.72,5.89,5.89,0,0,1,.6.84,9.34,9.34,0,0,1,.75,1.52,11.6,11.6,0,0,1,.53,1.67,3.82,3.82,0,0,1,.1-.57,5.41,5.41,0,0,1,.25-.84,9,9,0,0,1,1.07-2.11,5.59,5.59,0,0,1,.8-.94,4.65,4.65,0,0,1,.76-.58,2.67,2.67,0,0,1,.7-.29,3,3,0,0,1,.63-.07,1.7,1.7,0,0,1,.53.07A.67.67,0,0,1,206,5.67Z"/><path class="cls-2" d="M217.33,9.81a5,5,0,0,1-.38,2,4.78,4.78,0,0,1-2.57,2.63,5,5,0,0,1-1.94.37,6.34,6.34,0,0,1-1.95-.28,4.43,4.43,0,0,1-1.53-.87,4.18,4.18,0,0,1-1-1.44,5.51,5.51,0,0,1-.42-2,4.94,4.94,0,0,1,.32-2,4.62,4.62,0,0,1,1.06-1.6,5,5,0,0,1,1.65-1,5.72,5.72,0,0,1,2.1-.38,4.86,4.86,0,0,1,2,.39,4.52,4.52,0,0,1,1.47,1.05A4.21,4.21,0,0,1,217,8.09,5.06,5.06,0,0,1,217.33,9.81ZM212.1,5.6a3.45,3.45,0,0,0-1.49.36,2.91,2.91,0,0,0-1.05.89,3.68,3.68,0,0,0-.63,1.37,6.8,6.8,0,0,0-.21,1.74,6,6,0,0,0,.26,1.79,4.33,4.33,0,0,0,.76,1.41,3.27,3.27,0,0,0,1.2.92,3.62,3.62,0,0,0,1.57.33,3.68,3.68,0,0,0,1.52-.3,3.42,3.42,0,0,0,1.15-.81,3.7,3.7,0,0,0,.74-1.25,4.73,4.73,0,0,0,.26-1.59,6.83,6.83,0,0,0-.24-1.79,4.89,4.89,0,0,0-.74-1.58A3.74,3.74,0,0,0,213.93,6,3.54,3.54,0,0,0,212.1,5.6Z"/></svg>