<svg id="Layer_1" data-name="Layer 1" xmlns="http://www.w3.org/2000/svg" xmlns:xlink="http://www.w3.org/1999/xlink" viewBox="0 0 16.25 18.68"><defs><style>.cls-1{fill:none;}.cls-2{clip-path:url(#clip-path);}</style><clipPath id="clip-path"><rect class="cls-1" width="16.25" height="18.68"/></clipPath></defs><title>phone</title><g class="cls-2"><path d="M13,16.71a.22.22,0,0,0,0,.17c-.2.12-.7.5-1.61,1.21a2.44,2.44,0,0,1-2,0,8.22,8.22,0,0,1-2.68-1.8,17.3,17.3,0,0,1-2.12-2.43,21.66,21.66,0,0,1-1.33-2.08c-.29-.52-.46-.85-.46-.85A18.29,18.29,0,0,1,1,6.05,9,9,0,0,1,.85,3.52a4.39,4.39,0,0,1,.29-1.16,2.1,2.1,0,0,1,.68-.79l2-.67a.48.48,0,0,1,.65.1L5.65,4.18l0,.07a.42.42,0,0,1,0,.44l-.08.1-.12.09L3.47,6a.42.42,0,0,0-.15.56L7.67,14.1a.41.41,0,0,0,.56.15l1.58-.91.39-.23a.87.87,0,0,1,.26-.08.43.43,0,0,1,.4.19l0,.06,2.19,2.63a.45.45,0,0,1,.05.1.9.9,0,0,1-.1.7m.7-1.29h0l-2.17-2.6a1.24,1.24,0,0,0-1.15-.6,1.65,1.65,0,0,0-.62.18l-1.63.94L4.24,6.52l1.64-.95a2.42,2.42,0,0,0,.24-.19,1.27,1.27,0,0,0,.21-.25,1.24,1.24,0,0,0,.06-1.29L5.22.66l0-.06h0A1.21,1.21,0,0,0,4.36,0a1.37,1.37,0,0,0-.89.14l-2,.65h0l-.06,0A2.7,2.7,0,0,0,.44,2a6.16,6.16,0,0,0-.26.67c0,.22-.11.45-.13.68A8.69,8.69,0,0,0,.17,6a17.92,17.92,0,0,0,1.7,4.9A22.26,22.26,0,0,0,5,15.39a13.53,13.53,0,0,0,2.8,2.43,5.47,5.47,0,0,0,1.36.65,3.72,3.72,0,0,0,.91.2,2.41,2.41,0,0,0,1.5-.3s1.33-1.24,1.5-1.44h0a.68.68,0,0,0,.51-.24,1.08,1.08,0,0,0,.3-.85.77.77,0,0,0-.11-.37s0-.05,0-.06M10.48,4.55l.2.06.4.16A3.65,3.65,0,0,1,12.86,6.7a3.34,3.34,0,0,1,.17.58l.05.18a3,3,0,0,1,.09.4c.05.29.05.59.07.56,0,.48.12.91.45.07a3.54,3.54,0,0,0,.16-.85V7.31a.73.73,0,0,0,0-.13,4.65,4.65,0,0,0-.2-.72,4.5,4.5,0,0,0-.86-1.41,4.27,4.27,0,0,0-1.33-1,4.4,4.4,0,0,0-.54-.22l-.2-.06,0,0a.59.59,0,0,0-.21.74s0,0,0,0m5.75,2.38c0-.13,0-.2,0-.2a7.88,7.88,0,0,0-.31-1.12,7.07,7.07,0,0,0-1.33-2.18,6.71,6.71,0,0,0-2.06-1.55,7.74,7.74,0,0,0-.81-.34l-.32-.09s-.06,0-.07,0a.45.45,0,0,0-.21.74s0,0,0,0l.32.1a6.67,6.67,0,0,1,.68.28,6,6,0,0,1,1.79,1.33A6.13,6.13,0,0,1,15.1,5.82c.11.29.18.53.23.7l.06.27s0,.12.08.3.09.42.11.66c.06.49,0,1,.05.93a2.69,2.69,0,0,0,.06.84c.06.08.21-.08.39-.76a5.5,5.5,0,0,0,.17-1.32c0-.21,0-.39,0-.51"/></g></svg>