<svg id="Layer_1" data-name="Layer 1" xmlns="http://www.w3.org/2000/svg" viewBox="0 0 203.94 20"><defs><style>.cls-1{fill:#673065;}.cls-2{fill:#666;}.cls-3{fill:#5c5e5e;}</style></defs><title>qing-mobile</title><path class="cls-1" d="M26.38,17.78c0-.18,0-.34,0-.48s0,0-.05-.05,0,0,0-.05,0-.09,0-.07-.05-.21-.12-.17,0-.06,0,0a.53.53,0,0,1,0-.21,2,2,0,0,1-.08-.2.51.51,0,0,0-.13-.19c.06,0,0,0,0-.06l.05,0-.06-.09v0s0,0-.05,0A.15.15,0,0,1,26,16h0l0,0s0,.13,0,0,0-.09,0-.1,0,.06,0,.05l-.05-.07h.05a2.74,2.74,0,0,0-.58-.49s-.15-.1-.16,0h0c.05,0,0,0-.08,0s-.06-.09.06,0l0,0h-.29a2.57,2.57,0,0,0-2.53,1.36l-.06,0a3.07,3.07,0,0,1,.92-1.53s-.06.05-.09.05,0,0,0,0-.23,0-.25.08,0,0,0,.07,0-.08-.11,0,0,0,0,0-.05.15-.1.16v0c-.08,0-.11.17-.16.13v0c-.08.12-.05,0-.14.15h0c-.05,0-.05.09-.11.08l0,0a.63.63,0,0,0-.11.12l0,0s-.13.14-.15.17,0,0,0,0-.06,0-.07.09-.09,0-.15.05,0,0,0,0,0,0,0,0,0,0,0,0-.07.11-.12.2,0,0,0,0,0,.14-.06.08c0,.1-.05.22-.08.32a.83.83,0,0,0,0,.25s0,.07,0,.1h0a1.71,1.71,0,0,0-.07.18s0,0,.06,0,0,0,0,.08h0a.17.17,0,0,0,0,.1h0c-.05,0,0,.15-.05.18s0,.09.05.11a.43.43,0,0,0,0,.05s0,0,0,0h0s0,.07,0,.09l0,0s0,0,0,0h0a.15.15,0,0,1,0,.07.34.34,0,0,1,.05.17.3.3,0,0,0,.08.18l0,0c0,.1.12.17.14.24h0a.68.68,0,0,0,.09.17l0,0,.1.16c0,.05.08.1.13.1s.08.08.12.12h0a.46.46,0,0,1,.1.1.5.5,0,0,1,.12.08l-.06,0,.08,0a0,0,0,0,0,0,0,2.31,2.31,0,0,0,.19.14h0l.1.07s0,0,0,0a.19.19,0,0,0,.13,0l.07,0c-.07-.05,0,0,0-.05l0,0s0,0,0,0,.11.05.13.09h0c.06,0,0,0,0,0s.11,0,.17,0,.16,0,.1.08,0,0,.07,0a.37.37,0,0,1-.18-.08l.06,0s-.12,0-.15,0,.07,0,.07,0l0,0a.44.44,0,0,1-.18-.09s-.05,0,0-.05h0s0,0,0,0l.24.08h0l.19,0s.1.07.07.09,0,0,.09,0-.06,0-.08,0,.05,0,.06,0,.09-.11,0-.13a.1.1,0,0,1-.11,0,2.32,2.32,0,0,0,1.95-.66l.09-.11c0,.05,0,.09,0,.08l0,0s.09-.1.14-.1,0-.09.05-.14,0,0,0,0,0-.05,0,0a5.12,5.12,0,0,1,.22-.47,1.27,1.27,0,0,0,.15-.49s0,0,0,0,0-.06,0-.09a.42.42,0,0,0,0-.1s0,0,.05,0m-4.82-.36h0l.06-.06s0,0,0,.07m.1,1a.28.28,0,0,0,0-.09h0a.27.27,0,0,1,0-.17c0,.05,0,.09,0,.13a1.09,1.09,0,0,1-.05.14M22,16.1v0h0l0,0h0l0,0s0,0,0,0h0A.46.46,0,0,1,22,16.1m0,2.72a1,1,0,0,1-.14-.1s0,0,.07-.06a.25.25,0,0,0,0,.07l0,0,0,0,0,.06s0,0,0,0m.23.25h0a.41.41,0,0,1,0-.08.27.27,0,0,1,.07.08h0m.62.63h0m0-.14-.06,0a.77.77,0,0,1,.15.06s0,.06-.05.07a.17.17,0,0,1-.11-.08.26.26,0,0,0-.12-.11s0,.05-.06,0a.24.24,0,0,1-.08-.16,2.34,2.34,0,0,0,.43.26h0a.47.47,0,0,0-.16-.07.24.24,0,0,1,.08.06m.82.24h0M26,16.17h0s0,0,0,0"/><path class="cls-1" d="M20.5,10.17s0-.13,0-.18h0a.74.74,0,0,1,0-.15.69.69,0,0,1,0-.13.17.17,0,0,0,0,.05.37.37,0,0,0,0-.09s0,0,0,0a1.57,1.57,0,0,0,0-.24h0s0-.08,0-.12,0,0,0-.06a.27.27,0,0,0,0-.14l0-.07c0,.09,0,0-.06,0a.43.43,0,0,0,0-.05s0,0,0,0,0-.12,0-.16l0,0v0c0-.05,0,0,0,0s-.06-.09-.13-.11c.09,0-.08-.13,0-.12s0,0-.07,0a.49.49,0,0,1,.07.19l-.05,0s.07.09.08.13,0-.06-.05-.06h0a.29.29,0,0,1,.06.19s0,.07,0,0l0,0s0,0,0,0A1.51,1.51,0,0,0,20,8.79l0,0,0,0h0c0-.06-.07-.11-.1-.16s0-.11,0-.11,0,0-.08-.06.07,0,.09,0,0-.06,0-.07-.15,0-.13.07a.09.09,0,0,1,.06.08,2.39,2.39,0,0,0-.93-.73h-.07a2.58,2.58,0,0,0-2.53,1.36l-.05,0a3,3,0,0,1,.88-1.49h0a1.28,1.28,0,0,0-.45.23s0,0,0,0-.06,0-.1,0l0,.09s0,0,0,0-.23.24-.35.33,0,0,0,.06,0,0-.06,0-.06.07-.06,0-.11.17,0,.2-.05,0-.05,0a1,1,0,0,1-.12.17L15.73,9a.37.37,0,0,0-.05.23c0-.06,0,0,0,0l0,0,0,.1v0s0,0,0,.05a.23.23,0,0,1-.06.11v0s.06-.12.06,0-.07.06-.05.1,0-.05,0,0a.28.28,0,0,0,0,.09l0,0a2.81,2.81,0,0,0,.05.76s0,.17.09.14h0c0-.06,0,0,0,.06s0,.1-.07,0c0,0,0,.07,0,.1s0,.11,0,.18a1.2,1.2,0,0,1,.11.23v0c0,.14.18.25.18.28h0a.36.36,0,0,0,.14.23s0,0,0,0a.19.19,0,0,0,.09.14h0l.1.11s.07,0,.12.07.1.11.15.08.09.11.13.14h0c0,.07.16.06.21.09s0,0,0,0,.2.13.23.12,0,0,.06,0,0,.08.08.08,0,0,0,0,.15-.08.19-.05h0c.07,0,.2,0,.2,0v0c.15,0,.06,0,.21,0h0c.06,0,.09,0,.12,0h.21s.18,0,.21,0,0,0,0,0,.07,0,.12,0,0,.1.14.07h0s0,0,0,0,.11,0,.21,0,0,0,0,0,.11-.1.1,0,.19-.11.29-.17.17-.11.18-.15.07,0,.1-.06h0c.1,0,.06,0,.18-.08-.06,0-.05,0,0-.06l.09,0,0,0a.14.14,0,0,0,.07-.08s0,0,0,0,.14-.08.17-.09.06-.06,0-.11l0,0s0,0,0,0h0l0,0,.06-.06v0a.06.06,0,0,0,0,0h0l0-.06a.37.37,0,0,1,.09-.16.29.29,0,0,0,.07-.18s0,0,0,0,0-.21.07-.26h0a.82.82,0,0,0,.06-.19h0s0-.12,0-.19a.23.23,0,0,0,0-.15m-4.9-.8h0s0,0,0,0m2.87,2.94h0s0,0,0,0h-.1l0,0h0l0,0s0,0,0,0m1.07-.57.05,0,0,0h-.09m.32-3.17h0v0l0,0m.49.63s0,0,0,0h0M20.18,11v0a.29.29,0,0,1-.15.09L20.1,11l.13-.06-.05.06m.07-.4,0-.08h0a.22.22,0,0,0,0-.08h0a.67.67,0,0,1,0,.18h-.09m.07-.42a.28.28,0,0,0,0-.09h0l0,0s0,0,0,.06m0-.45a2.73,2.73,0,0,0-.1-.48h0a.78.78,0,0,0,.06.16.16.16,0,0,1,0-.1l0,.06c0-.05-.06-.08-.07-.15s0-.06.09,0a.13.13,0,0,1,0,.13.28.28,0,0,0,0,.16s0,0,0,.05a.24.24,0,0,1-.06.17"/><path class="cls-1" d="M11,10.14a1.89,1.89,0,0,0,.06-.18s0,0-.06,0a.35.35,0,0,0,.05-.08h0a.16.16,0,0,0,0-.1h0c.05,0,0-.16.05-.18s0-.09-.05-.11a.07.07,0,0,0,0-.05s.05,0,0,0h0a.19.19,0,0,0,0-.08l0,0,0,0h0a.14.14,0,0,1,0-.07.48.48,0,0,1-.05-.17.25.25,0,0,0-.08-.18s0,0,0,.05-.12-.17-.13-.24h0a.67.67,0,0,0-.08-.17l0,0-.11-.16c0-.05-.08-.1-.12-.1s-.09-.08-.12-.12h0a.93.93,0,0,1-.1-.1.52.52,0,0,1-.11-.07h.05l-.08,0,0,0a1.33,1.33,0,0,0-.19-.14h0l-.09-.07s0,0-.05,0a.22.22,0,0,0-.14,0,.15.15,0,0,0-.07,0c.07,0,0,0,0,0l0,0s0,0,0,0-.11,0-.13-.09h0c-.06,0,0,0,0,0s-.11,0-.17,0-.15,0-.1-.08,0,0-.07,0a.41.41,0,0,1,.19.08H9.13c0,.06.12,0,.15,0s-.07,0-.08,0l0,0a.34.34,0,0,1,.18.09c-.06,0,.05,0,0,0h0s0,0,0,0l-.24-.07h0l-.19,0s-.09-.06-.06-.08,0,0-.1,0,.06,0,.08,0,0,0,0,0-.09.11,0,.13a.09.09,0,0,1,.1,0,2.32,2.32,0,0,0-1.95.66l-.09.11c0-.05,0-.09,0-.08l0,0s-.09.1-.14.1l-.06.14s0,0,0,0,0,.05,0,0a3.38,3.38,0,0,1-.22.47,1.38,1.38,0,0,0-.14.49s0,0,0,0,0,.06,0,.09a.42.42,0,0,1,0,.1s0,0,0,0c0,.18,0,.34,0,.48s0,0,0,0,0,0,0,.06,0,.09,0,.07,0,.21.12.16,0,.07,0,0a.86.86,0,0,1,0,.21l.07.19a.49.49,0,0,0,.13.2s0,0,0,.06l0,0,0,.09,0,0s0,0,0,0a.21.21,0,0,1,0,.12h0l0,0s0-.12,0,0,0,.09,0,.1,0-.06,0,0a.18.18,0,0,0,0,.07h0a2.68,2.68,0,0,0,.57.49s.16.1.17,0h0s0,0,.07,0,.06.09-.06,0l0,0h.3a2.59,2.59,0,0,0,2.53-1.36l.05,0a3.06,3.06,0,0,1-.91,1.53s.06-.05.09-.05,0,0,0,0,.22-.05.24-.08,0,0,0-.07,0,.08.12,0h0s.05-.17.1-.17l0,0c.08,0,.11-.17.16-.13v0c.09-.12.06,0,.14-.15h0s0-.08.1-.08v0a.63.63,0,0,0,.11-.12.08.08,0,0,0,0,0s.13-.14.14-.17,0,0,0,0,.06,0,.07-.09.09,0,.14,0l0,0s0,0,0,0,0,0,0,0,.06-.1.12-.18,0,0,0,0,0-.14.06-.08c0-.1.06-.22.08-.33a.42.42,0,0,0,0-.24s0-.07,0-.1Zm-4.53,1s0,0,0,0ZM8.88,7.57h0m.8.09h0m-.07.13h0a.47.47,0,0,0,.16.07.17.17,0,0,1-.08-.06l.06,0s-.09,0-.15-.06,0-.06.05-.07.09,0,.11.08a.28.28,0,0,0,.11.11s0,0,.06,0a.24.24,0,0,1,.08.16,2.26,2.26,0,0,0-.42-.26m.69.49h0a.12.12,0,0,1,0,.07l-.06-.08m.25,3v0h0l0,0h0l0,0s0,0,0,0h0l-.07.07m.06-2.56a.25.25,0,0,1,0-.07l0,0,0,0a.43.43,0,0,1,0-.07,0,0,0,0,1,0,0,1.28,1.28,0,0,1,.15.1.22.22,0,0,1-.07.06m.22.52,0-.13a1.27,1.27,0,0,1,0-.14s0,.06,0,.09h0a.37.37,0,0,1-.05.17m.11.79V9.94H11l-.06.07"/><path class="cls-1" d="M15.73,2.5a.21.21,0,0,0,0-.16h0V2.19s0-.06,0-.13,0-.15-.05-.16,0-.14,0-.19h0c0-.07-.06-.15-.08-.21s0,0,0,0,0-.23-.08-.25,0,0-.07,0,.08,0,0-.12,0,0,0,0-.16-.06-.17-.1h0c0-.08-.17-.11-.13-.16h0c-.12-.09,0-.06-.15-.14h0S15,.68,15,.63h0L14.89.53s0,0-.05,0-.13-.13-.16-.14,0,0,0,0,0-.07-.09-.07a.11.11,0,0,0,0-.08l-.42,0a2.57,2.57,0,0,0-2.53,1.36l-.06,0A3.26,3.26,0,0,1,12.39.14l0,0h.07l0,0h0l.1-.09a.35.35,0,0,1-.11,0,.27.27,0,0,0-.17.08s0,0,.05,0-.17.12-.24.13v0a.76.76,0,0,0-.18.09l0,0-.15.11c-.05,0-.1.08-.1.12s-.09.09-.13.12v0a.46.46,0,0,1-.1.1.31.31,0,0,1-.08.11s0,0,0,0a.15.15,0,0,0,0,.08s0,0,0,0a.85.85,0,0,0-.14.19h0l-.08.1s0,0,0,0a.3.3,0,0,0-.06.14l0,.07c0-.07,0,0,0,0l0,0s0,0,0,0-.06.12-.09.14,0,0,0,0h0c0,.06,0,0,0,0s0,.11,0,.17,0,.15-.08.1,0,0,0,.07a.37.37,0,0,1,.08-.18v.06c.05,0,0-.13,0-.16a.08.08,0,0,0,0,.08l0,0A.24.24,0,0,1,11,1.56c0,.05,0-.06.05,0l0,0s0,0,0,0-.05.16-.07.24a.43.43,0,0,0,0-.05v.06A1.29,1.29,0,0,0,11,2s-.06.09-.08.06,0,0,0,.1,0-.06-.05-.08,0,0,0,0,.12.09.14,0a.09.09,0,0,1,0-.1,2.32,2.32,0,0,0,.66,2,.48.48,0,0,0,.11.09c-.05,0-.09,0-.09,0l0,0s.1.1.1.14l.13.06s0,0,0,0,.06,0,0,0a4,4,0,0,1,.47.22,1.33,1.33,0,0,0,.48.14s0,0,0,0,.05,0,.09,0l.09,0s0,0,0,0c.17,0,.34,0,.48,0s0,0,0,0,0,0,.05,0,.1,0,.08,0,.2,0,.16-.12.06,0,.05,0a.78.78,0,0,1,.21,0l.19-.07c.09,0,.18-.09.19-.13s0,0,.07,0l0,.05.1-.06,0,0s0,0,0,0a.21.21,0,0,1,.12,0h0l0,0s-.12,0,0,0,.09,0,.1,0-.05,0,0,0l.06-.06v0a2.72,2.72,0,0,0,.49-.57s.09-.16,0-.17v0c0,.05,0,0,0-.08s.1-.06,0,.06l.07-.08c.06,0,.09-.06.11-.14a1.69,1.69,0,0,1,.08-.24h0c.08-.13,0-.31.07-.33l0,0a.34.34,0,0,0,.06-.26s0,0,0,0M12,.29s0,0,.06.06L12,.39l0,0,0,0L12,.44a0,0,0,0,1,0,0A.42.42,0,0,1,12,.29M11.76.6l-.08.06h0a0,0,0,0,0,0,0l.08,0m-.7.68h0s0,0,0,0m-.09.8h0l0,0v0m.21-.73h0c0-.08.07-.14.07-.16a.2.2,0,0,1-.06.07s0,0,0-.06,0,.1-.06.16-.07,0-.07-.05a.14.14,0,0,1,.07-.12.23.23,0,0,0,.11-.11s0,0,0-.06a.26.26,0,0,1,.17-.08,3,3,0,0,0-.27.42m3.4,3.14s0,0,0,0Zm0-4.07,0,0v0l0,0s0,0,0,0h0s0,0,0,0l.07.08h-.05"/><path class="cls-1" d="M15.63,16.88s0-.07,0,0c-.07-.17-.12-.33-.18-.49a1.16,1.16,0,0,0-.24-.45s0,0,0,0,0-.06,0-.09l-.1-.05s0,0,0,0-.25-.23-.33-.34,0,0-.07,0,0,0,0-.06-.07-.06-.05-.06-.17-.11-.19,0,0-.06,0-.06a.81.81,0,0,1-.18-.12L14.12,15a.37.37,0,0,0-.23-.05c.06,0,0,0,0,0l.05,0-.11,0h0s0,0,0,0a.13.13,0,0,1-.11-.06h0s.12.05,0,.05-.06-.06-.09,0,0,0,0,0h-.08l0,0a2.4,2.4,0,0,0-.75.06s-.18,0-.14.09h0c.06,0,0,.05-.06.05s-.11,0,0-.07h-.11s-.11,0-.18,0a.94.94,0,0,1-.22.12h0c-.14,0-.25.18-.28.18v0a.33.33,0,0,0-.22.15s0,0,0,0a.27.27,0,0,0-.15.09h0l-.1.1s0,.07-.07.12-.11.1-.08.15-.1.09-.14.13a0,0,0,0,1,0,0c-.07,0-.07.16-.1.22s0,0,0,0-.12.2-.11.24,0,0,0,.05-.08,0-.08.09,0,0,0,0,.08.14.05.18v0c0,.08,0,.2,0,.21h0c0,.14,0,.06,0,.2h0c0,.06,0,.1,0,.13v0a.92.92,0,0,0,0,.16s0,.05,0,.06,0,.19,0,.22,0,0,0,0a.09.09,0,0,0,0,.11s-.09,0-.06.14,0,0,0,0a.06.06,0,0,1,0,0s0,0,0,0,0,.12,0,.22,0,0,0,0,.09.11,0,.1l.17.29a.6.6,0,0,0,.15.18s0,.07.06.1l0,0a1.26,1.26,0,0,0,.08.18c0-.06,0,0,.06,0s0,.06,0,.08h0a.16.16,0,0,0,.07.07s0,0,0,0,.09.13.1.16.06.07.11,0l0,0s-.05,0,0,0h0l0,0a.34.34,0,0,0,.06.06h.23s0,0,0-.07l.11.06h.12a2.57,2.57,0,0,0,2.53-1.35h.05a3.2,3.2,0,0,1-.66,1.29l.17-.09,0,0,0,0h0l.16-.11s.11,0,.11,0,0,0,.06-.08,0,.07,0,.09.06,0,.07,0,0-.15-.07-.13a.09.09,0,0,1-.08.06,2.34,2.34,0,0,0,.91-1.85.68.68,0,0,0,0-.14s.07.07.09,0v0s0-.14,0-.16l-.06-.14s0,0,0,0m-4.76.9v0s0,0,0,0v-.1l0,0v0a.09.09,0,0,1,0,.05h0m.58,1.15v-.09l.05.05a.1.1,0,0,0-.05,0m2.31-4.07h0s0,0,0,0m.83,4.28,0,0h0Z"/><path class="cls-1" d="M5.12,17.08s0-.06,0,0c-.07-.16-.12-.32-.18-.49a1.18,1.18,0,0,0-.24-.44s0,0,0,0,0-.06,0-.09l-.1,0s0,0,0,0-.25-.23-.33-.34,0,0-.07,0,0,0,0-.06-.07-.07,0-.07-.18-.11-.21,0,0-.06,0,0l-.11-.08H3.54A2.55,2.55,0,0,0,1,16.66H1a3.06,3.06,0,0,1,.93-1.54.23.23,0,0,0-.15,0,.94.94,0,0,1-.22.12h0c-.14,0-.25.18-.28.19v0a.36.36,0,0,0-.23.14s0,0,0,0a.23.23,0,0,0-.14.09h0a.52.52,0,0,0-.1.11s0,.06-.07.11-.11.11-.08.15-.1.1-.14.14a0,0,0,0,1,0,0c-.08,0-.07.16-.1.21s0,0,0,0-.12.2-.12.23,0,0,0,.06-.08,0-.08.09l0,0c0,.05.08.15,0,.19v0c0,.08,0,.2,0,.2h0c0,.15,0,.06,0,.21h0c0,.06,0,.09,0,.12v0a1,1,0,0,0,0,.17.06.06,0,0,0,0,.06s0,.18,0,.22,0,0,0,0,0,.06,0,.11-.09,0-.06.14,0,0,0,0,0,0,0,.05,0,0,0,0,0,.11.06.21,0,0,0,0,.09.11,0,.1.12.19.18.28a.46.46,0,0,0,.15.19s0,.06.06.09v0c0,.1,0,.07.08.18,0-.05,0-.05.06,0l0,.09,0,0a.1.1,0,0,0,.07.07s0,0,0,0,.09.14.1.17.06.06.11,0l0,0s-.05,0,0,0h0l0,0,.06.05h0a.07.07,0,0,1,.06,0,.37.37,0,0,1,.16.09.26.26,0,0,0,.18.07l-.05,0c.1,0,.21,0,.27.07v0a.64.64,0,0,0,.18.06v0l.18,0a.26.26,0,0,0,.16,0s.12,0,.18,0v0a.38.38,0,0,1,.15,0,.61.61,0,0,1,.13,0l0,0,.08,0H3a2,2,0,0,0,.24,0h.12s0,0,.06,0a.35.35,0,0,0,.13-.05l.07,0c-.08,0,0,0,0-.06h.05s0,0,0,0,.13,0,.16,0a0,0,0,0,1,0,0h0s0,0,0,0,.09-.06.11-.13c0,.09.13-.08.12,0s0,0,0-.07-.13.06-.19.08l0,0s-.09.07-.13.08a.1.1,0,0,0,.06-.05v0a.29.29,0,0,1-.19.06s-.07,0,0,0h0s0,0,0,0a.94.94,0,0,0,.22-.12.08.08,0,0,1,0,0l0,0v0l.16-.11s.11,0,.1,0,0,0,.07-.08,0,.07,0,.09.06,0,.06,0,0-.14-.06-.12a.11.11,0,0,1-.09.06A2.33,2.33,0,0,0,5,17.46a.68.68,0,0,0,0-.14s.07.06.09,0v0s0-.14,0-.17l-.06-.13s0,0,0,0M.36,18v0s0,0,0,0v-.1l0,0v0h0s0,0,0,0,0,0,0,0m.58,1.15V19a.21.21,0,0,1,0,.06l0,0m.75.54h0a.38.38,0,0,1-.09-.15l.12.07.06.12-.06,0m.57.13-.17,0s0-.05,0-.08l.07,0v0h.07a0,0,0,0,1,0,0m.34,0s0,0,0,0a.13.13,0,0,1-.07,0H2.6m.74,0a.27.27,0,0,0-.16,0s0,0,0,0A.25.25,0,0,1,3,19.79a2.68,2.68,0,0,0,.49-.11h0a.89.89,0,0,0-.16.07s.07,0,.1,0l-.06,0s.08-.05.15-.06.06,0,0,.08a.16.16,0,0,1-.14,0m.15,0h0m.59-.48,0,0h0Z"/><path class="cls-2" d="M36.48,11.19s.1,0,.1,0c0,.84.45,1.36,1.19,1.36a1,1,0,0,0,1.16-1c0-.72-.46-1-1.24-1.42A1.77,1.77,0,0,1,36.54,8.5a1.37,1.37,0,0,1,1.54-1.32,2.37,2.37,0,0,1,.79.12.39.39,0,0,1,.3.48c0,.12-.06.46-.08.64s-.09,0-.09,0a1,1,0,0,0-1-1,.87.87,0,0,0-1,.93A1.39,1.39,0,0,0,38,9.54c1.06.54,1.5,1,1.47,1.81a1.51,1.51,0,0,1-1.69,1.4,2.44,2.44,0,0,1-1-.17.57.57,0,0,1-.35-.47,3.1,3.1,0,0,1,.07-.92"/><path class="cls-2" d="M43,11.67c0,.73.09.82.6.86a.05.05,0,0,1,0,.1l-.91,0-.89,0a.05.05,0,0,1,0-.1c.42-.06.54-.11.55-.86,0-.29,0-1.25,0-1.55,0-.66,0-1.49,0-1.78,0-.89-.16-.89-.55-.94-.06,0-.07-.1,0-.1l.89,0,.78,0c.07,0,.06.09,0,.1-.37.07-.47.08-.49.94,0,.26,0,1.18,0,1.78,0,.3,0,1.26,0,1.55"/><path class="cls-2" d="M47.78,10.24c-.35.53-.8,1.32-1,1.76s-.2.48.25.53a.05.05,0,1,1,0,.1l-.76,0-.8,0c-.06,0-.06-.09,0-.1a.91.91,0,0,0,.79-.49c.44-.61,1-1.39,1.39-2.07-.44-.72-1-1.53-1.33-2.09-.24-.36-.35-.45-.68-.48-.06,0-.08-.1,0-.1l.8,0,.88,0c.07,0,.06.1,0,.1-.39,0-.39.17-.24.44.26.49.58,1.06.93,1.65.32-.51.62-1,.86-1.52s.19-.52-.12-.57c-.06,0-.08-.1,0-.1l.74,0,.64,0a.05.05,0,1,1,0,.1c-.25,0-.41,0-.72.5-.45.65-.9,1.3-1.23,1.83.43.69,1.1,1.76,1.5,2.32.25.35.41.46.7.48.06,0,.07.1,0,.1l-.81,0-.81,0c-.07,0-.06-.1,0-.1.33,0,.32-.17.17-.44s-.72-1.19-1.11-1.85"/><path class="cls-2" d="M55.77,11.19s.09,0,.09,0c0,.84.46,1.36,1.19,1.36a1,1,0,0,0,1.16-1c0-.72-.45-1-1.23-1.42A1.75,1.75,0,0,1,55.83,8.5a1.36,1.36,0,0,1,1.53-1.32,2.32,2.32,0,0,1,.79.12.39.39,0,0,1,.3.48c0,.12-.06.46-.08.64s-.09,0-.09,0a1,1,0,0,0-1-1,.87.87,0,0,0-1,.93,1.39,1.39,0,0,0,.94,1.22c1.07.54,1.5,1,1.48,1.81a1.52,1.52,0,0,1-1.7,1.4,2.48,2.48,0,0,1-1-.17.59.59,0,0,1-.35-.47,3.1,3.1,0,0,1,.08-.92"/><path class="cls-2" d="M62.23,11.8c0,.51.12.53.57.54h.72c.72,0,.85-.47,1-1,0-.06.1-.07.1,0a8.29,8.29,0,0,1,0,1.05c0,.19-.18.25-.51.25s-1.21,0-2,0l-1,0c-.07,0-.06-.1,0-.1.45,0,.55-.13.57-.86s0-1.2,0-1.81,0-1,0-1.53c0-.71,0-.86-.6-.93-.06,0-.07-.1,0-.1l1,0,1.8,0c.25,0,.38,0,.36.22s-.05.53-.09.82c0,.06-.11.06-.1,0,0-.43-.15-.71-.58-.74a9.17,9.17,0,0,0-1.19,0c0,.71,0,1.36,0,2.14a11.67,11.67,0,0,0,1.44,0c.24,0,.24-.09.3-.08s0,0,0,.21a2.81,2.81,0,0,1-.09.52c0,.06-.1.06-.1,0,0-.34-.22-.34-.57-.35h-1c0,.41,0,1.26,0,1.8"/><path class="cls-2" d="M71.92,12.53c0,.16,0,.18,0,.19s-.07,0-.19-.14c-.54-.63-1.12-1.26-2.16-2.31-.83-.83-1.49-1.52-1.85-1.85,0,.66,0,2.29.08,3.49,0,.35.16.57.69.62.06,0,.07.1,0,.1l-.91,0-.68,0c-.07,0-.06-.1,0-.1.31-.06.42-.14.46-.57.06-1,.08-2.32.08-3,0-.46,0-1,0-1.52,0-.13,0-.17,0-.18s.06,0,.18.14c.63.7,1.32,1.44,2.18,2.3s1.37,1.39,1.84,1.81c0-1,0-2.11,0-3.3,0-.63-.1-.72-.58-.79-.06,0-.07-.1,0-.1l.78,0,.64,0c.07,0,0,.1,0,.1-.32,0-.41.28-.43.68,0,1.32-.08,2.58-.08,4.45"/><path class="cls-2" d="M75,11.19s.1,0,.1,0c0,.84.45,1.36,1.19,1.36a1,1,0,0,0,1.16-1c0-.72-.46-1-1.24-1.42A1.76,1.76,0,0,1,75.09,8.5a1.37,1.37,0,0,1,1.54-1.32,2.37,2.37,0,0,1,.79.12.39.39,0,0,1,.3.48c0,.12-.06.46-.08.64s-.1,0-.1,0a1,1,0,0,0-1-1,.87.87,0,0,0-1,.93,1.39,1.39,0,0,0,.94,1.22c1.06.54,1.5,1,1.47,1.81a1.51,1.51,0,0,1-1.69,1.4,2.44,2.44,0,0,1-1-.17.57.57,0,0,1-.35-.47,3.1,3.1,0,0,1,.07-.92"/><path class="cls-2" d="M81.5,11.8c0,.51.12.53.56.54h.72c.72,0,.86-.47,1-1,0-.06.11-.07.11,0a6.65,6.65,0,0,1,0,1.05c0,.19-.18.25-.5.25s-1.21,0-2,0l-1,0c-.07,0-.06-.1,0-.1.45,0,.55-.13.56-.86s0-1.2,0-1.81,0-1,0-1.53c0-.71,0-.86-.59-.93-.06,0-.08-.1,0-.1l1,0,1.8,0c.25,0,.39,0,.37.22s0,.53-.09.82c0,.06-.11.06-.1,0,0-.43-.15-.71-.59-.74a9,9,0,0,0-1.18,0c0,.71,0,1.36,0,2.14a11.51,11.51,0,0,0,1.43,0c.25,0,.24-.09.3-.08s0,0,0,.21a3,3,0,0,1-.08.52c0,.06-.1.06-.1,0,0-.34-.22-.34-.57-.35h-1c0,.41,0,1.26,0,1.8"/><path class="cls-2" d="M86.27,11.19c0-.06.1,0,.1,0,0,.83.45,1.35,1.19,1.35a1,1,0,0,0,1.16-1c0-.71-.46-1-1.24-1.41A1.78,1.78,0,0,1,86.33,8.5a1.37,1.37,0,0,1,1.54-1.32,2.73,2.73,0,0,1,.79.11.41.41,0,0,1,.3.49c0,.12-.06.45-.08.63a0,0,0,1,1-.09,0,1,1,0,0,0-1-1,.87.87,0,0,0-1,.92,1.4,1.4,0,0,0,.94,1.23c1.06.54,1.5,1,1.47,1.81a1.51,1.51,0,0,1-1.69,1.4,2.25,2.25,0,0,1-1-.18.56.56,0,0,1-.35-.46,3.1,3.1,0,0,1,.07-.92"/><path class="cls-3" d="M97.56,12.25a1.78,1.78,0,0,0-.86-.2,1,1,0,0,0-.58.18,2,2,0,0,0,.74.13,2.28,2.28,0,0,0,.7-.11M94.74,9.87A2.37,2.37,0,0,0,96,12.17a1.47,1.47,0,0,1,.94-.35,2.66,2.66,0,0,1,1,.23,2.14,2.14,0,0,0,.94-1.9c0-1.35-.7-2.76-2.28-2.71-1.28,0-1.89,1-1.89,2.43m3.5,2.34c.83.36,2.63,1.64,4.27,1.64a2.09,2.09,0,0,0,1.29-.45s.1,0,0,.06a2.57,2.57,0,0,1-1.94.74A5.75,5.75,0,0,1,98.71,13c-.3-.19-.72-.44-.93-.54a2.77,2.77,0,0,1-.92.15A2.52,2.52,0,0,1,94.07,10a2.68,2.68,0,0,1,2.86-2.8,2.53,2.53,0,0,1,2.62,2.6,2.69,2.69,0,0,1-1.31,2.41"/><path class="cls-3" d="M102.24,11.53c0,.7.09.79.58.84a0,0,0,0,1,0,.09l-.88,0-.85,0a0,0,0,1,1,0-.09c.4-.06.51-.11.53-.84,0-.28,0-1.21,0-1.49,0-.65,0-1.44,0-1.73,0-.86-.16-.86-.53-.91-.06,0-.08-.09,0-.09l.85,0,.75,0c.07,0,.06.08,0,.09-.35.07-.45.08-.47.91,0,.25,0,1.15,0,1.72,0,.29,0,1.22,0,1.5"/><path class="cls-3" d="M109.41,12.37c0,.15,0,.17,0,.18s-.07,0-.18-.14c-.53-.61-1.09-1.21-2.1-2.23-.8-.81-1.43-1.47-1.78-1.79,0,.64,0,2.22.07,3.38,0,.33.16.55.66.6.06,0,.08.09,0,.09l-.87,0-.66,0a0,0,0,1,1,0-.09c.3-.06.41-.13.44-.56.07-.92.08-2.24.08-2.92,0-.44,0-1,0-1.47,0-.13,0-.16,0-.17s.06,0,.17.13c.62.68,1.29,1.4,2.12,2.23s1.32,1.34,1.77,1.75c0-1,0-2,0-3.2,0-.6-.1-.69-.57-.76,0,0-.06-.09,0-.09l.76,0,.62,0c.07,0,0,.09,0,.09-.31,0-.4.28-.41.66,0,1.27-.09,2.49-.09,4.31"/><path class="cls-3" d="M115.79,7.4a.47.47,0,0,1,.35.48c0,.26,0,.57-.06.88,0,.06-.1.05-.1,0a1.47,1.47,0,0,0-1.66-1.35c-1.52,0-2.22,1-2.17,2.46a2.29,2.29,0,0,0,2.42,2.48,2.84,2.84,0,0,0,.78-.08c.16,0,.24-.06.24-.28,0-.42,0-.73,0-1.07,0-.61-.33-.61-.64-.67a0,0,0,1,1,0-.09l.9,0,.72,0c.06,0,.06.08,0,.09-.31.09-.39.18-.41.87,0,.24,0,.5,0,.72s0,.33,0,.45a4,4,0,0,1-1.62.29c-1.7,0-3.06-.88-3.06-2.63a2.61,2.61,0,0,1,2.83-2.76,4.21,4.21,0,0,1,1.47.21"/><path class="cls-3" d="M124.88,7.41a.45.45,0,0,1,.33.48c0,.26,0,.56-.06.86a.06.06,0,0,1-.11,0,1.46,1.46,0,0,0-1.65-1.34c-1.35,0-2.21.82-2.17,2.45a2.23,2.23,0,0,0,2.31,2.48,1.38,1.38,0,0,0,1.6-1.3.05.05,0,1,1,.1,0c0,.19,0,.43,0,.57,0,.6-.14.64-.41.77a3.44,3.44,0,0,1-1.32.2c-1.82,0-3-1-3-2.62a2.6,2.6,0,0,1,2.87-2.76,4.32,4.32,0,0,1,1.45.21"/><path class="cls-3" d="M132,12.37a0,0,0,1,1,0,.09l-.79,0c-.29,0-.56,0-.84,0a0,0,0,1,1,0-.09c.42,0,.47-.19.49-.91,0-.28,0-1.21,0-1.54h-1.44l-1.5,0c0,.33,0,1.24,0,1.52,0,.72.09.87.51.91a0,0,0,1,1,0,.09l-.82,0-.81,0c-.07,0-.05-.09,0-.09.48-.07.48-.21.51-.91,0-.29,0-1.14,0-1.42,0-.65,0-1.46,0-1.74,0-.71,0-.83-.53-.9-.07,0-.07-.09,0-.09l.84,0c.28,0,.57,0,.79,0,.06,0,.07.08,0,.09-.41,0-.47.17-.49.9,0,.21,0,.78,0,1.34l1.51,0,1.44,0c0-.59,0-1.08,0-1.33,0-.71-.09-.88-.5-.91-.07,0-.06-.09,0-.09.27,0,.53,0,.82,0l.81,0a0,0,0,0,1,0,.09c-.49.07-.49.21-.52.91,0,.2,0,1.14,0,1.49s0,1.29,0,1.66c0,.7.05.84.53.91"/><path class="cls-3" d="M134.9,11.65c0,.5.12.53.55.53h.7c.69,0,.83-.45.92-1,0-.06.1-.07.1,0a7.72,7.72,0,0,1,0,1c0,.18-.17.25-.49.25s-1.16,0-1.95,0l-.94,0a0,0,0,1,1,0-.09c.44,0,.53-.13.55-.84s0-1.16,0-1.75,0-.95,0-1.48c0-.68,0-.83-.57-.9-.06,0-.08-.09,0-.09l1,0,1.74,0c.24,0,.37,0,.35.21s0,.51-.09.79c0,.06-.11.06-.1,0,0-.41-.14-.68-.56-.72a10.74,10.74,0,0,0-1.15,0V9.64a12.91,12.91,0,0,0,1.38,0c.24,0,.23-.09.29-.08s0,0,0,.2a2.86,2.86,0,0,1-.08.51c0,.06-.1.06-.1,0,0-.33-.21-.33-.55-.35h-.93c0,.41,0,1.22,0,1.74"/><path class="cls-3" d="M143.69,12.37c0,.15,0,.17,0,.18s-.06,0-.18-.14c-.53-.61-1.09-1.21-2.1-2.23-.79-.81-1.43-1.47-1.78-1.79,0,.64,0,2.22.08,3.38,0,.33.15.55.66.6a0,0,0,1,1,0,.09l-.88,0-.65,0a0,0,0,1,1,0-.09c.29-.06.4-.13.44-.56.06-.92.08-2.24.08-2.92,0-.44,0-1,0-1.47,0-.13,0-.16,0-.17s.06,0,.18.13c.61.68,1.28,1.4,2.11,2.23S143,11,143.41,11.36c0-1,0-2,0-3.2,0-.6-.1-.69-.56-.76a0,0,0,1,1,0-.09l.75,0,.62,0c.07,0,0,.09,0,.09-.31,0-.39.28-.41.66-.05,1.27-.08,2.49-.08,4.31"/><path class="cls-3" d="M150.06,7.4a.47.47,0,0,1,.36.48c0,.26,0,.57-.06.88,0,.06-.11.05-.11,0a1.46,1.46,0,0,0-1.66-1.35c-1.51,0-2.21,1-2.16,2.46a2.29,2.29,0,0,0,2.41,2.48,2.92,2.92,0,0,0,.79-.08c.16,0,.23-.06.23-.28,0-.42,0-.73,0-1.07,0-.61-.33-.61-.64-.67-.05,0-.05-.09,0-.09l.91,0,.71,0c.07,0,.07.08,0,.09-.31.09-.39.18-.41.87v.72c0,.14,0,.33,0,.45a4,4,0,0,1-1.62.29c-1.69,0-3-.88-3-2.63a2.6,2.6,0,0,1,2.82-2.76,4.21,4.21,0,0,1,1.47.21"/><path class="cls-3" d="M158.08,12.38s0,.09-.07.09,0-.05-.06-.09c-.29-.67-1.62-3.14-2-3.75-.08.92-.16,2.11-.22,3.09,0,.57.16.58.57.65a0,0,0,1,1,0,.09l-.79,0-.71,0a0,0,0,1,1,0-.09c.39,0,.49-.13.55-.65.18-1.47.33-2.85.46-4.34,0-.1,0-.16.07-.16s.08.09.12.16c.25.6,1.44,2.78,2.14,4.05.15-.27.46-.89.82-1.62s.88-1.81,1.19-2.46c0-.09.07-.14.12-.14s0,0,0,.17c.09,1.12.38,3.55.53,4.43.07.42.14.51.48.56.07,0,.08.09,0,.09s-.39,0-.67,0-.5,0-.61,0-.08-.09,0-.09.21,0,.18-.39c-.05-.74-.26-2.61-.36-3.38-.13.29-.44.89-.74,1.5-.43.87-.74,1.48-1.06,2.28"/><path class="cls-3" d="M163.36,9.87c0,1.46.81,2.49,2.12,2.49a2,2,0,0,0,2.05-2.21c0-1.35-.7-2.76-2.28-2.71-1.28,0-1.89,1-1.89,2.43m2.08,2.7A2.49,2.49,0,0,1,162.69,10a2.68,2.68,0,0,1,2.86-2.8,2.52,2.52,0,0,1,2.62,2.59,2.69,2.69,0,0,1-2.73,2.78"/><path class="cls-3" d="M172.29,12.58c-1.61,0-2.18-.73-2.18-2.42,0-.69,0-1.57,0-1.86,0-.81-.15-.85-.61-.9-.06,0-.06-.09,0-.09l.89,0,.81,0c.07,0,.06.08,0,.09-.36,0-.46.1-.48.9,0,.25,0,1.11,0,1.82,0,1.34.24,2.23,1.62,2.23S174,11.23,174,10c0-.36,0-1.19,0-2,0-.56-.15-.62-.5-.66-.05,0-.06-.09,0-.09l.72,0,.66,0a0,0,0,1,1,0,.09c-.31,0-.42.18-.43.66s0,1.46,0,1.92c0,1.59-.58,2.6-2.07,2.6"/><path class="cls-3" d="M181.33,12.37c0,.15,0,.17,0,.18s-.07,0-.18-.14c-.53-.61-1.09-1.21-2.1-2.23-.79-.81-1.43-1.47-1.78-1.79,0,.64,0,2.22.07,3.38,0,.33.16.55.67.6.05,0,.07.09,0,.09l-.88,0-.66,0c-.06,0-.05-.09,0-.09.3-.06.41-.13.44-.56.07-.92.09-2.24.09-2.92,0-.44,0-1,0-1.47,0-.13,0-.16,0-.17s.06,0,.17.13c.62.68,1.29,1.4,2.12,2.23s1.33,1.34,1.77,1.75c0-1,0-2,0-3.2,0-.6-.1-.69-.56-.76a0,0,0,1,1,0-.09l.75,0,.62,0c.07,0,.05.09,0,.09-.31,0-.4.28-.41.66,0,1.27-.08,2.49-.08,4.31"/><path class="cls-3" d="M187.71,8.42a0,0,0,0,1-.09,0c0-.64-.25-.78-.65-.8s-.76,0-1.24,0a5.94,5.94,0,0,0,0,.67c0,1.19,0,2.56,0,3.26s.15.8.64.85a0,0,0,1,1,0,.09l-.93,0-.89,0a0,0,0,1,1,0-.09c.31-.06.57,0,.57-.8s0-2.47,0-3.34a5.85,5.85,0,0,0,0-.64c-.4,0-.85,0-1.11,0-.65,0-.75.19-.82.79,0,.05-.09.05-.09,0s0-.68,0-.8c0-.29,0-.36.08-.36a1.24,1.24,0,0,0,.25.06c.28,0,.89.06,2.07.06,1,0,1.73,0,2-.06.12,0,.18-.07.22-.07s0,0,0,.25,0,.73,0,.93"/><path class="cls-3" d="M190.58,8.31c-.1.24-.24.57-.38.92l-.37,1h1.46c-.22-.63-.45-1.23-.71-1.89m.09-1c.05-.12.07-.14.1-.14s0,0,.09.14c.23.69,1,2.83,1.65,4.4.19.47.33.56.71.61a0,0,0,1,1,0,.09c-.31,0-.54,0-.89,0l-.73,0a0,0,0,1,1,0-.09c.32,0,.37-.13.26-.5s-.31-.93-.49-1.42h-1.63c-.12.33-.36,1-.49,1.39s.09.49.36.53a0,0,0,1,1,0,.09l-.74,0-.77,0c-.06,0,0-.09,0-.09a.79.79,0,0,0,.67-.47c.24-.44.52-1.15.79-1.82Z"/><path class="cls-3" d="M195.41,11.53c0,.7.09.79.58.84a0,0,0,1,1,0,.09l-.88,0-.85,0a0,0,0,1,1,0-.09c.41-.06.51-.11.53-.84,0-.28,0-1.21,0-1.49,0-.65,0-1.44,0-1.73,0-.86-.16-.86-.53-.91a0,0,0,1,1,0-.09l.85,0,.76,0c.06,0,.06.08,0,.09-.36.07-.46.08-.48.91V10c0,.29,0,1.22,0,1.5"/><path class="cls-3" d="M202.59,12.37c0,.15,0,.17,0,.18s-.07,0-.19-.14c-.53-.61-1.08-1.21-2.09-2.23-.8-.81-1.44-1.47-1.79-1.79,0,.64,0,2.22.08,3.38,0,.33.16.55.66.6a0,0,0,1,1,0,.09l-.88,0-.65,0a0,0,0,1,1,0-.09c.3-.06.4-.13.44-.56.06-.92.08-2.24.08-2.92,0-.44,0-1,0-1.47,0-.13,0-.16,0-.17s.06,0,.18.13c.61.68,1.28,1.4,2.11,2.23s1.33,1.34,1.78,1.75c0-1,0-2,0-3.2,0-.6-.09-.69-.56-.76a0,0,0,1,1,0-.09l.75,0,.63,0c.06,0,0,.09,0,.09-.32,0-.4.28-.42.66,0,1.27-.08,2.49-.08,4.31"/></svg>