<svg id="Layer_1" data-name="Layer 1" xmlns="http://www.w3.org/2000/svg" viewBox="0 0 225 20"><defs><style>.cls-1{fill:#673065;}.cls-2{fill:#666;}.cls-3{fill:#5d5e5e;}.cls-4{fill:#5c5e5e;}</style></defs><title>courchevel-mobile</title><path class="cls-1" d="M26.38,17.78c0-.18,0-.34,0-.48s0,0-.05-.05,0,0,0-.05,0-.09,0-.07-.05-.21-.12-.17,0-.06,0,0a.53.53,0,0,1,0-.21,2,2,0,0,1-.08-.2.51.51,0,0,0-.13-.19c.06,0,0,0,0-.06l.05,0-.06-.09v0s0,0-.05,0A.15.15,0,0,1,26,16h0l0,0s0,.13,0,0,0-.09,0-.1,0,.06,0,.05l-.05-.07h.05a2.74,2.74,0,0,0-.58-.49s-.15-.1-.16,0h0c.05,0,0,0-.08,0s-.06-.09.06,0l0,0h-.29a2.57,2.57,0,0,0-2.53,1.36l-.06,0a3.07,3.07,0,0,1,.92-1.53s-.06.05-.09.05,0,0,0,0-.23,0-.25.08,0,0,0,.07,0-.08-.11,0,0,0,0,0-.05.15-.1.16v0c-.08,0-.11.17-.16.13v0c-.08.12-.05,0-.14.15h0c-.05,0-.05.09-.11.08l0,0a.63.63,0,0,0-.11.12l0,0s-.13.14-.15.17,0,0,0,0-.06,0-.07.09-.09,0-.15.05,0,0,0,0,0,0,0,0,0,0,0,0-.07.11-.12.2,0,0,0,0,0,.14-.06.08c0,.1-.05.22-.08.32a.83.83,0,0,0,0,.25s0,.07,0,.1h0a1.71,1.71,0,0,0-.07.18s0,0,.06,0,0,0,0,.08h0a.17.17,0,0,0,0,.1h0c-.05,0,0,.15-.05.18s0,.09.05.11a.43.43,0,0,0,0,.05s0,0,0,0h0s0,.07,0,.09l0,0s0,0,0,0h0a.15.15,0,0,1,0,.07.34.34,0,0,1,.05.17.3.3,0,0,0,.08.18l0,0c0,.1.12.17.14.24h0a.68.68,0,0,0,.09.17l0,0,.1.16c0,.05.08.1.13.1s.08.08.12.12h0a.46.46,0,0,1,.1.1.5.5,0,0,1,.12.08l-.06,0,.08,0a0,0,0,0,0,0,0,2.31,2.31,0,0,0,.19.14h0l.1.07s0,0,0,0a.19.19,0,0,0,.13,0l.07,0c-.07-.05,0,0,0-.05l0,0s0,0,0,0,.11.05.13.09h0c.06,0,0,0,0,0s.11,0,.17,0,.16,0,.1.08,0,0,.07,0a.37.37,0,0,1-.18-.08l.06,0s-.12,0-.15,0,.07,0,.07,0l0,0a.44.44,0,0,1-.18-.09s-.05,0,0-.05h0s0,0,0,0l.24.08h0l.19,0s.1.07.07.09,0,0,.09,0-.06,0-.08,0,.05,0,.06,0,.09-.11,0-.13a.1.1,0,0,1-.11,0,2.32,2.32,0,0,0,1.95-.66l.09-.11c0,.05,0,.09,0,.08l0,0s.09-.1.14-.1,0-.09.05-.14,0,0,0,0,0-.05,0,0a5.12,5.12,0,0,1,.22-.47,1.27,1.27,0,0,0,.15-.49s0,0,0,0,0-.06,0-.09a.42.42,0,0,0,0-.1s0,0,.05,0m-4.82-.36h0l.06-.06s0,0,0,.07m.1,1a.28.28,0,0,0,0-.09h0a.27.27,0,0,1,0-.17c0,.05,0,.09,0,.13a1.09,1.09,0,0,1-.05.14M22,16.1v0h0l0,0h0l0,0s0,0,0,0h0A.46.46,0,0,1,22,16.1m0,2.72a1,1,0,0,1-.14-.1s0,0,.07-.06a.25.25,0,0,0,0,.07l0,0,0,0,0,.06s0,0,0,0m.23.25h0a.41.41,0,0,1,0-.08.27.27,0,0,1,.07.08h0m.62.63h0m0-.14-.06,0a.77.77,0,0,1,.15.06s0,.06-.05.07a.17.17,0,0,1-.11-.08.26.26,0,0,0-.12-.11s0,.05-.06,0a.24.24,0,0,1-.08-.16,2.34,2.34,0,0,0,.43.26h0a.47.47,0,0,0-.16-.07.24.24,0,0,1,.08.06m.82.24h0M26,16.17h0s0,0,0,0"/><path class="cls-1" d="M20.5,10.17s0-.13,0-.18h0a.74.74,0,0,1,0-.15.69.69,0,0,1,0-.13.17.17,0,0,0,0,.05.37.37,0,0,0,0-.09s0,0,0,0a1.57,1.57,0,0,0,0-.24h0s0-.08,0-.12,0,0,0-.06a.27.27,0,0,0,0-.14l0-.07c0,.09,0,0-.06,0a.43.43,0,0,0,0-.05s0,0,0,0,0-.12,0-.16l0,0v0c0-.05,0,0,0,0s-.06-.09-.13-.11c.09,0-.08-.13,0-.12s0,0-.07,0a.49.49,0,0,1,.07.19l-.05,0s.07.09.08.13,0-.06-.05-.06h0a.29.29,0,0,1,.06.19s0,.07,0,0l0,0s0,0,0,0A1.51,1.51,0,0,0,20,8.79l0,0,0,0h0c0-.06-.07-.11-.1-.16s0-.11,0-.11,0,0-.08-.06.07,0,.09,0,0-.06,0-.07-.15,0-.13.07a.09.09,0,0,1,.06.08,2.39,2.39,0,0,0-.93-.73h-.07a2.58,2.58,0,0,0-2.53,1.36l-.05,0a3,3,0,0,1,.88-1.49h0a1.28,1.28,0,0,0-.45.23s0,0,0,0-.06,0-.1,0l0,.09s0,0,0,0-.23.24-.35.33,0,0,0,.06,0,0-.06,0-.06.07-.06,0-.11.17,0,.2-.05,0-.05,0a1,1,0,0,1-.12.17L15.73,9a.37.37,0,0,0-.05.23c0-.06,0,0,0,0l0,0,0,.1v0s0,0,0,.05a.23.23,0,0,1-.06.11v0s.06-.12.06,0-.07.06-.05.1,0-.05,0,0a.28.28,0,0,0,0,.09l0,0a2.81,2.81,0,0,0,.05.76s0,.17.09.14h0c0-.06,0,0,0,.06s0,.1-.07,0c0,0,0,.07,0,.1s0,.11,0,.18a1.2,1.2,0,0,1,.11.23v0c0,.14.18.25.18.28h0a.36.36,0,0,0,.14.23s0,0,0,0a.19.19,0,0,0,.09.14h0l.1.11s.07,0,.12.07.1.11.15.08.09.11.13.14h0c0,.07.16.06.21.09s0,0,0,0,.2.13.23.12,0,0,.06,0,0,.08.08.08,0,0,0,0,.15-.08.19-.05h0c.07,0,.2,0,.2,0v0c.15,0,.06,0,.21,0h0c.06,0,.09,0,.12,0h.21s.18,0,.21,0,0,0,0,0,.07,0,.12,0,0,.1.14.07h0s0,0,0,0,.11,0,.21,0,0,0,0,0,.11-.1.1,0,.19-.11.29-.17.17-.11.18-.15.07,0,.1-.06h0c.1,0,.06,0,.18-.08-.06,0-.05,0,0-.06l.09,0,0,0a.14.14,0,0,0,.07-.08s0,0,0,0,.14-.08.17-.09.06-.06,0-.11l0,0s0,0,0,0h0l0,0,.06-.06v0a.06.06,0,0,0,0,0h0l0-.06a.37.37,0,0,1,.09-.16.29.29,0,0,0,.07-.18s0,0,0,0,0-.21.07-.26h0a.82.82,0,0,0,.06-.19h0s0-.12,0-.19a.23.23,0,0,0,0-.15m-4.9-.8h0s0,0,0,0m2.87,2.94h0s0,0,0,0h-.1l0,0h0l0,0s0,0,0,0m1.07-.57.05,0,0,0h-.09m.32-3.17h0v0l0,0m.49.63s0,0,0,0h0M20.18,11v0a.29.29,0,0,1-.15.09L20.1,11l.13-.06-.05.06m.07-.4,0-.08h0a.22.22,0,0,0,0-.08h0a.67.67,0,0,1,0,.18h-.09m.07-.42a.28.28,0,0,0,0-.09h0l0,0s0,0,0,.06m0-.45a2.73,2.73,0,0,0-.1-.48h0a.78.78,0,0,0,.06.16.16.16,0,0,1,0-.1l0,.06c0-.05-.06-.08-.07-.15s0-.06.09,0a.13.13,0,0,1,0,.13.28.28,0,0,0,0,.16s0,0,0,.05a.24.24,0,0,1-.06.17"/><path class="cls-1" d="M11,10.14a1.89,1.89,0,0,0,.06-.18s0,0-.06,0a.35.35,0,0,0,.05-.08h0a.16.16,0,0,0,0-.1h0c.05,0,0-.16.05-.18s0-.09-.05-.11a.07.07,0,0,0,0-.05s.05,0,0,0h0a.19.19,0,0,0,0-.08l0,0,0,0h0a.14.14,0,0,1,0-.07.48.48,0,0,1-.05-.17.25.25,0,0,0-.08-.18s0,0,0,.05-.12-.17-.13-.24h0a.67.67,0,0,0-.08-.17l0,0-.11-.16c0-.05-.08-.1-.12-.1s-.09-.08-.12-.12h0a.93.93,0,0,1-.1-.1.52.52,0,0,1-.11-.07h.05l-.08,0,0,0a1.33,1.33,0,0,0-.19-.14h0l-.09-.07s0,0-.05,0a.22.22,0,0,0-.14,0,.15.15,0,0,0-.07,0c.07,0,0,0,0,0l0,0s0,0,0,0-.11,0-.13-.09h0c-.06,0,0,0,0,0s-.11,0-.17,0-.15,0-.1-.08,0,0-.07,0a.41.41,0,0,1,.19.08H9.13c0,.06.12,0,.15,0s-.07,0-.08,0l0,0a.34.34,0,0,1,.18.09c-.06,0,.05,0,0,0h0s0,0,0,0l-.24-.07h0l-.19,0s-.09-.06-.06-.08,0,0-.1,0,.06,0,.08,0,0,0,0,0-.09.11,0,.13a.09.09,0,0,1,.1,0,2.32,2.32,0,0,0-1.95.66l-.09.11c0-.05,0-.09,0-.08l0,0s-.09.1-.14.1l-.06.14s0,0,0,0,0,.05,0,0a3.38,3.38,0,0,1-.22.47,1.38,1.38,0,0,0-.14.49s0,0,0,0,0,.06,0,.09a.42.42,0,0,1,0,.1s0,0,0,0c0,.18,0,.34,0,.48s0,0,0,0,0,0,0,.06,0,.09,0,.07,0,.21.12.16,0,.07,0,0a.86.86,0,0,1,0,.21l.07.19a.49.49,0,0,0,.13.2s0,0,0,.06l0,0,0,.09,0,0s0,0,0,0a.21.21,0,0,1,0,.12h0l0,0s0-.12,0,0,0,.09,0,.1,0-.06,0,0a.18.18,0,0,0,0,.07h0a2.68,2.68,0,0,0,.57.49s.16.1.17,0h0s0,0,.07,0,.06.09-.06,0l0,0h.3a2.59,2.59,0,0,0,2.53-1.36l.05,0a3.06,3.06,0,0,1-.91,1.53s.06-.05.09-.05,0,0,0,0,.22-.05.24-.08,0,0,0-.07,0,.08.12,0h0s.05-.17.1-.17l0,0c.08,0,.11-.17.16-.13v0c.09-.12.06,0,.14-.15h0s0-.08.1-.08v0a.63.63,0,0,0,.11-.12.08.08,0,0,0,0,0s.13-.14.14-.17,0,0,0,0,.06,0,.07-.09.09,0,.14,0l0,0s0,0,0,0,0,0,0,0,.06-.1.12-.18,0,0,0,0,0-.14.06-.08c0-.1.06-.22.08-.33a.42.42,0,0,0,0-.24s0-.07,0-.1Zm-4.53,1s0,0,0,0ZM8.88,7.57h0m.8.09h0m-.07.13h0a.47.47,0,0,0,.16.07.17.17,0,0,1-.08-.06l.06,0s-.09,0-.15-.06,0-.06.05-.07.09,0,.11.08a.28.28,0,0,0,.11.11s0,0,.06,0a.24.24,0,0,1,.08.16,2.26,2.26,0,0,0-.42-.26m.69.49h0a.12.12,0,0,1,0,.07l-.06-.08m.25,3v0h0l0,0h0l0,0s0,0,0,0h0l-.07.07m.06-2.56a.25.25,0,0,1,0-.07l0,0,0,0a.43.43,0,0,1,0-.07,0,0,0,0,1,0,0,1.28,1.28,0,0,1,.15.1.22.22,0,0,1-.07.06m.22.52,0-.13a1.27,1.27,0,0,1,0-.14s0,.06,0,.09h0a.37.37,0,0,1-.05.17m.11.79V9.94H11l-.06.07"/><path class="cls-1" d="M15.73,2.5a.21.21,0,0,0,0-.16h0V2.19s0-.06,0-.13,0-.15-.05-.16,0-.14,0-.19h0c0-.07-.06-.15-.08-.21s0,0,0,0,0-.23-.08-.25,0,0-.07,0,.08,0,0-.12,0,0,0,0-.16-.06-.17-.1h0c0-.08-.17-.11-.13-.16h0c-.12-.09,0-.06-.15-.14h0S15,.68,15,.63h0L14.89.53s0,0-.05,0-.13-.13-.16-.14,0,0,0,0,0-.07-.09-.07a.11.11,0,0,0,0-.08l-.42,0a2.57,2.57,0,0,0-2.53,1.36l-.06,0A3.26,3.26,0,0,1,12.39.14l0,0h.07l0,0h0l.1-.09a.35.35,0,0,1-.11,0,.27.27,0,0,0-.17.08s0,0,.05,0-.17.12-.24.13v0a.76.76,0,0,0-.18.09l0,0-.15.11c-.05,0-.1.08-.1.12s-.09.09-.13.12v0a.46.46,0,0,1-.1.1.31.31,0,0,1-.08.11s0,0,0,0a.15.15,0,0,0,0,.08s0,0,0,0a.85.85,0,0,0-.14.19h0l-.08.1s0,0,0,0a.3.3,0,0,0-.06.14l0,.07c0-.07,0,0,0,0l0,0s0,0,0,0-.06.12-.09.14,0,0,0,0h0c0,.06,0,0,0,0s0,.11,0,.17,0,.15-.08.1,0,0,0,.07a.37.37,0,0,1,.08-.18v.06c.05,0,0-.13,0-.16a.08.08,0,0,0,0,.08l0,0A.24.24,0,0,1,11,1.56c0,.05,0-.06.05,0l0,0s0,0,0,0-.05.16-.07.24a.43.43,0,0,0,0-.05v.06A1.29,1.29,0,0,0,11,2s-.06.09-.08.06,0,0,0,.1,0-.06-.05-.08,0,0,0,0,.12.09.14,0a.09.09,0,0,1,0-.1,2.32,2.32,0,0,0,.66,2,.48.48,0,0,0,.11.09c-.05,0-.09,0-.09,0l0,0s.1.1.1.14l.13.06s0,0,0,0,.06,0,0,0a4,4,0,0,1,.47.22,1.33,1.33,0,0,0,.48.14s0,0,0,0,.05,0,.09,0l.09,0s0,0,0,0c.17,0,.34,0,.48,0s0,0,0,0,0,0,.05,0,.1,0,.08,0,.2,0,.16-.12.06,0,.05,0a.78.78,0,0,1,.21,0l.19-.07c.09,0,.18-.09.19-.13s0,0,.07,0l0,.05.1-.06,0,0s0,0,0,0a.21.21,0,0,1,.12,0h0l0,0s-.12,0,0,0,.09,0,.1,0-.05,0,0,0l.06-.06v0a2.72,2.72,0,0,0,.49-.57s.09-.16,0-.17v0c0,.05,0,0,0-.08s.1-.06,0,.06l.07-.08c.06,0,.09-.06.11-.14a1.69,1.69,0,0,1,.08-.24h0c.08-.13,0-.31.07-.33l0,0a.34.34,0,0,0,.06-.26s0,0,0,0M12,.29s0,0,.06.06L12,.39l0,0,0,0L12,.44a0,0,0,0,1,0,0A.42.42,0,0,1,12,.29M11.76.6l-.08.06h0a0,0,0,0,0,0,0l.08,0m-.7.68h0s0,0,0,0m-.09.8h0l0,0v0m.21-.73h0c0-.08.07-.14.07-.16a.2.2,0,0,1-.06.07s0,0,0-.06,0,.1-.06.16-.07,0-.07-.05a.14.14,0,0,1,.07-.12.23.23,0,0,0,.11-.11s0,0,0-.06a.26.26,0,0,1,.17-.08,3,3,0,0,0-.27.42m3.4,3.14s0,0,0,0Zm0-4.07,0,0v0l0,0s0,0,0,0h0s0,0,0,0l.07.08h-.05"/><path class="cls-1" d="M15.63,16.88s0-.07,0,0c-.07-.17-.12-.33-.18-.49a1.16,1.16,0,0,0-.24-.45s0,0,0,0,0-.06,0-.09l-.1-.05s0,0,0,0-.25-.23-.33-.34,0,0-.07,0,0,0,0-.06-.07-.06-.05-.06-.17-.11-.19,0,0-.06,0-.06a.81.81,0,0,1-.18-.12L14.12,15a.37.37,0,0,0-.23-.05c.06,0,0,0,0,0l.05,0-.11,0h0s0,0,0,0a.13.13,0,0,1-.11-.06h0s.12.05,0,.05-.06-.06-.09,0,0,0,0,0h-.08l0,0a2.4,2.4,0,0,0-.75.06s-.18,0-.14.09h0c.06,0,0,.05-.06.05s-.11,0,0-.07h-.11s-.11,0-.18,0a.94.94,0,0,1-.22.12h0c-.14,0-.25.18-.28.18v0a.33.33,0,0,0-.22.15s0,0,0,0a.27.27,0,0,0-.15.09h0l-.1.1s0,.07-.07.12-.11.1-.08.15-.1.09-.14.13a0,0,0,0,1,0,0c-.07,0-.07.16-.1.22s0,0,0,0-.12.2-.11.24,0,0,0,.05-.08,0-.08.09,0,0,0,0,.08.14.05.18v0c0,.08,0,.2,0,.21h0c0,.14,0,.06,0,.2h0c0,.06,0,.1,0,.13v0a.92.92,0,0,0,0,.16s0,.05,0,.06,0,.19,0,.22,0,0,0,0a.09.09,0,0,0,0,.11s-.09,0-.06.14,0,0,0,0a.06.06,0,0,1,0,0s0,0,0,0,0,.12,0,.22,0,0,0,0,.09.11,0,.1l.17.29a.6.6,0,0,0,.15.18s0,.07.06.1l0,0a1.26,1.26,0,0,0,.08.18c0-.06,0,0,.06,0s0,.06,0,.08h0a.16.16,0,0,0,.07.07s0,0,0,0,.09.13.1.16.06.07.11,0l0,0s-.05,0,0,0h0l0,0a.34.34,0,0,0,.06.06h.23s0,0,0-.07l.11.06h.12a2.57,2.57,0,0,0,2.53-1.35h.05a3.2,3.2,0,0,1-.66,1.29l.17-.09,0,0,0,0h0l.16-.11s.11,0,.11,0,0,0,.06-.08,0,.07,0,.09.06,0,.07,0,0-.15-.07-.13a.09.09,0,0,1-.08.06,2.34,2.34,0,0,0,.91-1.85.68.68,0,0,0,0-.14s.07.07.09,0v0s0-.14,0-.16l-.06-.14s0,0,0,0m-4.76.9v0s0,0,0,0v-.1l0,0v0a.09.09,0,0,1,0,.05h0m.58,1.15v-.09l.05.05a.1.1,0,0,0-.05,0m2.31-4.07h0s0,0,0,0m.83,4.28,0,0h0Z"/><path class="cls-1" d="M5.12,17.08s0-.06,0,0c-.07-.16-.12-.32-.18-.49a1.18,1.18,0,0,0-.24-.44s0,0,0,0,0-.06,0-.09l-.1,0s0,0,0,0-.25-.23-.33-.34,0,0-.07,0,0,0,0-.06-.07-.07,0-.07-.18-.11-.21,0,0-.06,0,0l-.11-.08H3.54A2.55,2.55,0,0,0,1,16.66H1a3.06,3.06,0,0,1,.93-1.54.23.23,0,0,0-.15,0,.94.94,0,0,1-.22.12h0c-.14,0-.25.18-.28.19v0a.36.36,0,0,0-.23.14s0,0,0,0a.23.23,0,0,0-.14.09h0a.52.52,0,0,0-.1.11s0,.06-.07.11-.11.11-.08.15-.1.1-.14.14a0,0,0,0,1,0,0c-.08,0-.07.16-.1.21s0,0,0,0-.12.2-.12.23,0,0,0,.06-.08,0-.08.09l0,0c0,.05.08.15,0,.19v0c0,.08,0,.2,0,.2h0c0,.15,0,.06,0,.21h0c0,.06,0,.09,0,.12v0a1,1,0,0,0,0,.17.06.06,0,0,0,0,.06s0,.18,0,.22,0,0,0,0,0,.06,0,.11-.09,0-.06.14,0,0,0,0,0,0,0,.05,0,0,0,0,0,.11.06.21,0,0,0,0,.09.11,0,.1.12.19.18.28a.46.46,0,0,0,.15.19s0,.06.06.09v0c0,.1,0,.07.08.18,0-.05,0-.05.06,0l0,.09,0,0a.1.1,0,0,0,.07.07s0,0,0,0,.09.14.1.17.06.06.11,0l0,0s-.05,0,0,0h0l0,0,.06.05h0a.07.07,0,0,1,.06,0,.37.37,0,0,1,.16.09.26.26,0,0,0,.18.07l-.05,0c.1,0,.21,0,.27.07v0a.64.64,0,0,0,.18.06v0l.18,0a.26.26,0,0,0,.16,0s.12,0,.18,0v0a.38.38,0,0,1,.15,0,.61.61,0,0,1,.13,0l0,0,.08,0H3a2,2,0,0,0,.24,0h.12s0,0,.06,0a.35.35,0,0,0,.13-.05l.07,0c-.08,0,0,0,0-.06h.05s0,0,0,0,.13,0,.16,0a0,0,0,0,1,0,0h0s0,0,0,0,.09-.06.11-.13c0,.09.13-.08.12,0s0,0,0-.07-.13.06-.19.08l0,0s-.09.07-.13.08a.1.1,0,0,0,.06-.05v0a.29.29,0,0,1-.19.06s-.07,0,0,0h0s0,0,0,0a.94.94,0,0,0,.22-.12.08.08,0,0,1,0,0l0,0v0l.16-.11s.11,0,.1,0,0,0,.07-.08,0,.07,0,.09.06,0,.06,0,0-.14-.06-.12a.11.11,0,0,1-.09.06A2.33,2.33,0,0,0,5,17.46a.68.68,0,0,0,0-.14s.07.06.09,0v0s0-.14,0-.17l-.06-.13s0,0,0,0M.36,18v0s0,0,0,0v-.1l0,0v0h0s0,0,0,0,0,0,0,0m.58,1.15V19a.21.21,0,0,1,0,.06l0,0m.75.54h0a.38.38,0,0,1-.09-.15l.12.07.06.12-.06,0m.57.13-.17,0s0-.05,0-.08l.07,0v0h.07a0,0,0,0,1,0,0m.34,0s0,0,0,0a.13.13,0,0,1-.07,0H2.6m.74,0a.27.27,0,0,0-.16,0s0,0,0,0A.25.25,0,0,1,3,19.79a2.68,2.68,0,0,0,.49-.11h0a.89.89,0,0,0-.16.07s.07,0,.1,0l-.06,0s.08-.05.15-.06.06,0,0,.08a.16.16,0,0,1-.14,0m.15,0h0m.59-.48,0,0h0Z"/><path class="cls-2" d="M36.75,11.34c0-.06.1-.05.1,0,0,.89.49,1.45,1.27,1.45a1.09,1.09,0,0,0,1.23-1.07c0-.76-.48-1.08-1.31-1.51a1.89,1.89,0,0,1-1.23-1.74,1.45,1.45,0,0,1,1.64-1.4,2.63,2.63,0,0,1,.84.12.42.42,0,0,1,.32.52c0,.12-.06.48-.08.67a.05.05,0,0,1-.1,0,1.09,1.09,0,0,0-1.09-1.09.93.93,0,0,0-1,1,1.49,1.49,0,0,0,1,1.31c1.14.58,1.6,1.06,1.57,1.93A1.62,1.62,0,0,1,38.07,13a2.54,2.54,0,0,1-1-.19.64.64,0,0,1-.37-.5,3.51,3.51,0,0,1,.08-1"/><path class="cls-2" d="M43.66,11.85c0,.77.1.87.64.92a.05.05,0,1,1,0,.1l-1,0-.94,0c-.07,0-.06-.1,0-.1.45-.06.57-.12.59-.92,0-.31,0-1.34,0-1.65,0-.71,0-1.59,0-1.9,0-1-.18-1-.59-1-.06,0-.08-.1,0-.1l.94,0,.83,0c.08,0,.07.09,0,.1-.39.07-.5.08-.52,1,0,.27,0,1.26,0,1.89,0,.32,0,1.35,0,1.66"/><path class="cls-2" d="M48.79,10.32c-.37.57-.85,1.41-1.11,1.88s-.21.51.28.57c.06,0,.08.1,0,.1l-.82,0-.86,0c-.06,0-.06-.09,0-.1a1,1,0,0,0,.85-.53c.47-.65,1-1.48,1.49-2.2-.48-.77-1-1.63-1.42-2.23-.26-.39-.38-.48-.73-.51a.05.05,0,1,1,0-.1l.86,0,.93,0c.08,0,.06.1,0,.1-.41,0-.41.18-.26.47.29.52.62,1.12,1,1.75a17.93,17.93,0,0,0,.91-1.61c.27-.54.2-.56-.13-.61-.06,0-.08-.1,0-.1l.79,0,.69,0a.05.05,0,1,1,0,.1c-.27,0-.44,0-.77.53-.49.69-1,1.39-1.31,1.95.46.73,1.17,1.87,1.6,2.48.27.37.44.48.74.51.06,0,.07.1,0,.1l-.86,0-.87,0c-.07,0-.06-.1,0-.1.36,0,.35-.18.19-.48s-.77-1.26-1.19-2"/><path class="cls-2" d="M57.31,11.34c0-.06.1-.05.1,0,.05.89.49,1.45,1.27,1.45a1.09,1.09,0,0,0,1.23-1.07c0-.76-.48-1.08-1.31-1.51a1.89,1.89,0,0,1-1.23-1.74A1.45,1.45,0,0,1,59,7.07a2.63,2.63,0,0,1,.84.12.42.42,0,0,1,.32.52c0,.12-.06.48-.08.67a.05.05,0,0,1-.1,0A1.09,1.09,0,0,0,58.9,7.29a.93.93,0,0,0-1,1,1.48,1.48,0,0,0,1,1.31c1.14.58,1.6,1.06,1.57,1.93A1.62,1.62,0,0,1,58.63,13a2.54,2.54,0,0,1-1-.19.64.64,0,0,1-.37-.5,3.51,3.51,0,0,1,.08-1"/><path class="cls-2" d="M64.2,12c0,.55.13.58.6.59h.77c.77,0,.92-.5,1-1.08,0-.06.11-.07.11,0a7.33,7.33,0,0,1,0,1.11c0,.21-.19.28-.54.28s-1.29,0-2.16,0l-1,0c-.07,0-.06-.1,0-.1.49-.06.59-.14.61-.92s0-1.28,0-1.93,0-1.05,0-1.63c0-.76,0-.92-.63-1-.07,0-.09-.1,0-.1l1.06,0,1.92,0c.27,0,.41,0,.39.22a8.19,8.19,0,0,1-.1.88c0,.06-.11.06-.1,0,0-.46-.16-.76-.63-.79a10.19,10.19,0,0,0-1.26,0c0,.76,0,1.45,0,2.28a13.17,13.17,0,0,0,1.53,0c.26,0,.26-.1.32-.09s0,.05,0,.23a3.42,3.42,0,0,1-.09.56c0,.06-.11.06-.11,0,0-.37-.23-.37-.6-.39h-1c0,.45,0,1.35,0,1.92"/><path class="cls-2" d="M74.53,12.77c0,.16,0,.19,0,.2s-.07,0-.2-.15c-.58-.67-1.19-1.34-2.31-2.46-.88-.89-1.58-1.62-2-2,0,.71,0,2.45.08,3.73,0,.37.17.6.73.66.06,0,.08.1,0,.1l-1,0-.72,0a.05.05,0,1,1,0-.1c.33-.06.45-.15.48-.61.08-1,.1-2.47.1-3.22,0-.49,0-1.1,0-1.63,0-.13,0-.17,0-.18s.07,0,.19.15c.68.75,1.42,1.53,2.33,2.45s1.47,1.48,2,1.93c0-1.08,0-2.25,0-3.52,0-.67-.11-.77-.62-.84-.06,0-.07-.1,0-.1l.83,0,.69,0c.07,0,0,.1,0,.1-.35,0-.44.3-.46.72-.05,1.41-.09,2.75-.09,4.75"/><path class="cls-2" d="M77.85,11.34c0-.06.1-.05.1,0,0,.89.49,1.45,1.27,1.45a1.1,1.1,0,0,0,1.24-1.07c0-.76-.49-1.08-1.32-1.51a1.87,1.87,0,0,1-1.22-1.74,1.44,1.44,0,0,1,1.63-1.4,2.58,2.58,0,0,1,.84.12.42.42,0,0,1,.32.52c0,.12-.06.48-.08.67a.05.05,0,0,1-.1,0,1.08,1.08,0,0,0-1.09-1.09.93.93,0,0,0-1,1,1.49,1.49,0,0,0,1,1.31c1.14.58,1.6,1.06,1.58,1.93A1.63,1.63,0,0,1,79.18,13a2.56,2.56,0,0,1-1-.19.64.64,0,0,1-.37-.5,3.51,3.51,0,0,1,.08-1"/><path class="cls-2" d="M84.75,12c0,.55.12.58.6.59h.77c.76,0,.91-.5,1-1.08,0-.06.11-.07.11,0a7.33,7.33,0,0,1,0,1.11c0,.21-.19.28-.54.28s-1.28,0-2.15,0l-1,0c-.07,0-.06-.1,0-.1.49-.06.59-.14.61-.92s0-1.28,0-1.93,0-1.05,0-1.63c0-.76,0-.92-.63-1-.07,0-.09-.1,0-.1l1.07,0,1.92,0c.26,0,.41,0,.39.22s-.06.57-.1.88c0,.06-.12.06-.11,0,0-.46-.16-.76-.62-.79a10.3,10.3,0,0,0-1.26,0c0,.76,0,1.45,0,2.28a13,13,0,0,0,1.52,0c.27,0,.26-.1.32-.09s0,.05,0,.23a2.59,2.59,0,0,1-.09.56c0,.06-.11.06-.11,0,0-.37-.23-.37-.6-.39h-1c0,.45,0,1.35,0,1.92"/><path class="cls-2" d="M89.84,11.34c0-.06.1-.06.1,0,0,.89.48,1.44,1.27,1.44a1.09,1.09,0,0,0,1.23-1.07c0-.75-.48-1.07-1.31-1.5A1.89,1.89,0,0,1,89.9,8.47a1.46,1.46,0,0,1,1.64-1.41,3,3,0,0,1,.84.12c.23.08.34.2.32.52,0,.13-.07.49-.09.68s-.09,0-.09,0a1.09,1.09,0,0,0-1.09-1.1.93.93,0,0,0-1,1c0,.65.45,1,1,1.31,1.13.57,1.6,1.06,1.57,1.92A1.62,1.62,0,0,1,91.16,13a2.54,2.54,0,0,1-1-.19.59.59,0,0,1-.37-.49,3.15,3.15,0,0,1,.08-1"/><path class="cls-3" d="M165.28,7.36a.49.49,0,0,1,.36.53c0,.28,0,.61-.06,1,0,.07-.12.06-.12,0a1.62,1.62,0,0,0-1.82-1.48c-1.49,0-2.44.9-2.4,2.7a2.47,2.47,0,0,0,2.56,2.74,1.52,1.52,0,0,0,1.75-1.44c0-.07.12-.08.12,0s0,.48,0,.63c0,.66-.16.71-.46.84a3.68,3.68,0,0,1-1.45.23c-2,0-3.26-1.15-3.26-2.9a2.88,2.88,0,0,1,3.17-3A4.44,4.44,0,0,1,165.28,7.36Z"/><path class="cls-3" d="M170.2,13.05a2.75,2.75,0,0,1-3-2.83,3,3,0,0,1,3.16-3.1A2.78,2.78,0,0,1,173.22,10,3,3,0,0,1,170.2,13.05Zm-2.29-3c0,1.61.9,2.75,2.34,2.75a2.23,2.23,0,0,0,2.26-2.44c0-1.5-.77-3-2.52-3C168.59,7.42,167.91,8.51,167.91,10.07Z"/><path class="cls-3" d="M177.77,13.06c-1.78,0-2.41-.81-2.41-2.67,0-.77,0-1.74,0-2.05,0-.9-.17-.94-.67-1-.07,0-.08-.1,0-.1l1,0,.9,0c.07,0,.06.09,0,.1-.39.05-.5.11-.53,1,0,.28,0,1.22,0,2,0,1.47.26,2.46,1.78,2.46s1.81-1.24,1.81-2.56c0-.4,0-1.32,0-2.18,0-.61-.17-.69-.55-.72a.05.05,0,1,1,0-.1l.78,0,.74,0a.05.05,0,1,1,0,.1c-.34,0-.46.2-.48.72,0,.7,0,1.61,0,2.12C180.05,12,179.41,13.06,177.77,13.06Z"/><path class="cls-3" d="M182.9,9.92c0-.68,0-1.14,0-1.84,0-.51-.17-.69-.64-.73-.08,0-.09-.1,0-.1l.89,0c.29,0,.76,0,1.14,0,1.6,0,1.82.95,1.82,1.5a1.7,1.7,0,0,1-1,1.55c.14.22.47.71.87,1.22a6.32,6.32,0,0,0,1,1.1,1.2,1.2,0,0,0,.66.21.06.06,0,1,1,0,.11,6.29,6.29,0,0,1-.86,0c-.65-.11-.89-.38-1.64-1.43-.28-.4-.49-.72-.67-1a4.81,4.81,0,0,1-.93,0c0,.61,0,1.12,0,1.39,0,.86.11.93.64,1,.08,0,.1.11,0,.11l-1,0c-.22,0-.62,0-.94,0-.08,0-.06-.11,0-.11.48-.06.59-.08.6-1C182.91,11.19,182.9,10.57,182.9,9.92Zm1.34-2.44h-.71v2.68a3.55,3.55,0,0,0,1.1,0c.59,0,.83-.66.83-1.23C185.46,8.13,185.1,7.55,184.24,7.48Z"/><path class="cls-3" d="M193.12,7.36a.49.49,0,0,1,.36.53c0,.28,0,.61-.06,1,0,.07-.12.06-.12,0a1.62,1.62,0,0,0-1.82-1.48c-1.49,0-2.44.9-2.4,2.7a2.47,2.47,0,0,0,2.56,2.74,1.52,1.52,0,0,0,1.75-1.44c0-.07.12-.08.12,0s0,.48,0,.63c0,.66-.16.71-.46.84a3.68,3.68,0,0,1-1.45.23c-2,0-3.26-1.15-3.26-2.9a2.88,2.88,0,0,1,3.17-3A4.44,4.44,0,0,1,193.12,7.36Z"/><path class="cls-3" d="M201,12.82c.06,0,.07.11,0,.11l-.88,0c-.32,0-.62,0-.93,0-.07,0-.06-.11,0-.11.46,0,.53-.2.54-1,0-.3,0-1.34,0-1.69h-1.58c-.56,0-1.1,0-1.65,0,0,.36,0,1.37,0,1.67,0,.8.1,1,.56,1a.06.06,0,1,1,0,.11l-.89,0-.91,0c-.07,0-.05-.11,0-.11.54-.07.54-.22.57-1,0-.31,0-1.25,0-1.57,0-.71,0-1.6,0-1.91,0-.78,0-.92-.59-1-.07,0-.07-.1,0-.1l.93,0,.87,0c.07,0,.08.09,0,.1-.45,0-.52.18-.54,1,0,.22,0,.85,0,1.48h3.24c0-.65,0-1.19,0-1.47,0-.78-.1-1-.55-1-.08,0-.07-.1,0-.1l.91,0,.89,0c.05,0,.06.09,0,.1-.54.07-.54.23-.57,1,0,.21,0,1.26,0,1.64s0,1.43,0,1.83C200.47,12.6,200.49,12.75,201,12.82Z"/><path class="cls-3" d="M204.18,12c0,.55.13.57.6.58s.54,0,.77,0c.77,0,.91-.5,1-1.08,0-.06.1-.07.1,0a9.41,9.41,0,0,1,0,1.12c0,.2-.19.27-.54.27s-1.29,0-2.16,0l-1,0a.06.06,0,0,1,0-.11c.48-.05.58-.13.6-.92s0-1.28,0-1.93,0-1.05,0-1.63c0-.75,0-.92-.63-1-.06,0-.08-.1,0-.1l1.07,0,1.92,0c.27,0,.41,0,.39.22a8.19,8.19,0,0,1-.1.88c0,.07-.12.07-.11,0,0-.45-.15-.76-.62-.79a10.3,10.3,0,0,0-1.26,0c0,.76,0,1.45,0,2.29.38,0,1,0,1.53,0,.26,0,.25-.1.32-.09s0,0,0,.22a5.05,5.05,0,0,1-.09.56c0,.07-.11.07-.11,0,0-.36-.23-.36-.61-.38h-1C204.15,10.57,204.16,11.46,204.18,12Z"/><path class="cls-3" d="M209.31,9.89c-.36-.81-.6-1.39-.92-2a.67.67,0,0,0-.66-.5.05.05,0,1,1,0-.1l.87,0,1,0c.1,0,.07.1,0,.1-.45,0-.55.18-.44.47.22.59.46,1.15.78,1.9.25.57.62,1.42,1,2.25.28-.67.61-1.52.9-2.32.23-.62.42-1.14.58-1.68s.11-.59-.28-.62a.05.05,0,1,1,0-.1l.73,0,.69,0c.09,0,.07.1,0,.1-.29,0-.47.23-.7.77-.34.74-.5,1.14-.74,1.73-.62,1.49-1.15,2.79-1.26,3.12,0,.07-.06.09-.09.09s-.06,0-.09-.09C210.25,12,209.84,11.11,209.31,9.89Z"/><path class="cls-3" d="M216.18,12c0,.55.12.57.6.58s.54,0,.77,0c.76,0,.91-.5,1-1.08,0-.06.11-.07.11,0a7.54,7.54,0,0,1-.05,1.12c0,.2-.19.27-.53.27s-1.29,0-2.16,0l-1,0c-.07,0-.06-.11,0-.11.49-.05.59-.13.61-.92s0-1.28,0-1.93,0-1.05,0-1.63c0-.75,0-.92-.63-1a.05.05,0,1,1,0-.1l1.07,0,1.92,0c.26,0,.41,0,.39.22s-.06.57-.1.88c0,.07-.12.07-.11,0,0-.45-.16-.76-.62-.79a10.3,10.3,0,0,0-1.26,0c0,.76,0,1.45,0,2.29.37,0,1,0,1.52,0,.27,0,.26-.1.32-.09s0,0,0,.22a3.21,3.21,0,0,1-.1.56c0,.07-.11.07-.11,0,0-.36-.22-.36-.6-.38h-1C216.15,10.57,216.16,11.46,216.18,12Z"/><path class="cls-3" d="M224.14,11.54c0-.06.11-.08.11,0a9.2,9.2,0,0,1-.05,1.12c0,.2-.19.27-.54.27s-1,0-2.21,0l-1,0c-.1,0-.07-.11,0-.11.48-.05.54-.17.56-.92,0-.57,0-1.33,0-1.65,0-.71,0-1.64,0-1.95,0-.75-.07-.88-.56-1-.08,0-.08-.1,0-.1l.91,0,.84,0c.09,0,.07.09,0,.1-.4.05-.5.17-.51.91l0,1.78c0,.65,0,1.5,0,2s0,.61.57.62.67,0,.83,0C223.86,12.6,224,12.12,224.14,11.54Z"/><path class="cls-4" d="M98.54,9.92c0-.68,0-1.14,0-1.84,0-.51-.17-.69-.64-.73-.08,0-.09-.1,0-.1l.89,0c.29,0,.76,0,1.14,0,1.61,0,1.82.95,1.82,1.5a1.7,1.7,0,0,1-1,1.55,14.7,14.7,0,0,0,.87,1.22,6.32,6.32,0,0,0,1,1.1,1.2,1.2,0,0,0,.66.21.06.06,0,1,1,0,.11,6.29,6.29,0,0,1-.86,0c-.65-.11-.89-.38-1.63-1.43-.29-.4-.5-.72-.68-1a4.81,4.81,0,0,1-.93,0c0,.61,0,1.12,0,1.39,0,.86.11.93.64,1,.08,0,.1.11,0,.11l-.95,0c-.22,0-.62,0-.94,0-.08,0-.06-.11,0-.11.48-.06.59-.08.6-1C98.55,11.19,98.54,10.57,98.54,9.92Zm1.34-2.44c-.24,0-.52,0-.71,0v2.67a3.55,3.55,0,0,0,1.1,0c.59,0,.83-.66.83-1.23C101.1,8.13,100.74,7.55,99.88,7.48Z"/><path class="cls-4" d="M105.46,12c0,.55.13.57.61.58s.54,0,.77,0c.77,0,.91-.5,1-1.08,0-.06.11-.07.11,0a9.41,9.41,0,0,1,0,1.12c0,.2-.2.27-.54.27s-1.29,0-2.16,0l-1,0c-.07,0-.06-.11,0-.11.49-.05.59-.13.61-.92s0-1.28,0-1.93,0-1.05,0-1.63c0-.75,0-.92-.63-1-.07,0-.09-.1,0-.1l1.07,0,1.92,0c.26,0,.41,0,.39.23s0,.56-.1.87c0,.07-.12.07-.11,0,0-.45-.16-.76-.62-.79a10.3,10.3,0,0,0-1.26,0c0,.76,0,1.45,0,2.29.37,0,1,0,1.52,0,.27,0,.26-.1.32-.09s0,0,0,.22a3.21,3.21,0,0,1-.1.56c0,.07-.11.07-.11,0,0-.36-.22-.36-.6-.38h-1C105.44,10.57,105.45,11.46,105.46,12Z"/><path class="cls-4" d="M109.94,11.4c0-.07.11-.06.11,0,0,.88.48,1.44,1.27,1.44a1.09,1.09,0,0,0,1.23-1.07c0-.76-.48-1.08-1.32-1.51A1.87,1.87,0,0,1,110,8.53a1.46,1.46,0,0,1,1.64-1.41,2.68,2.68,0,0,1,.84.12c.23.08.34.2.32.52,0,.13-.07.48-.09.68s-.1,0-.1,0a1.08,1.08,0,0,0-1.08-1.1.93.93,0,0,0-1,1,1.47,1.47,0,0,0,1,1.3c1.13.58,1.6,1.06,1.57,1.93a1.62,1.62,0,0,1-1.81,1.5,2.54,2.54,0,0,1-1-.19.62.62,0,0,1-.38-.49A3.45,3.45,0,0,1,109.94,11.4Z"/><path class="cls-4" d="M116.24,11.9c0,.78.1.88.64.92a.06.06,0,1,1,0,.11l-1,0-.94,0c-.07,0-.06-.11,0-.11.45-.06.57-.11.59-.92,0-.31,0-1.33,0-1.64,0-.72,0-1.6,0-1.91,0-.95-.18-.95-.59-1-.06,0-.08-.1,0-.1l.94,0,.84,0c.07,0,.06.09,0,.1-.4.07-.51.08-.53,1v1.9C116.22,10.57,116.23,11.59,116.24,11.9Z"/><path class="cls-4" d="M121.31,13c-.73,0-1.32-.08-1.65-.08l-1.07,0c-.07,0-.06-.1,0-.11.73-.07.72-.28.75-1.22,0-.31,0-1.32,0-1.63,0-.71,0-1.43,0-1.75,0-.67-.18-.83-.67-.87a.05.05,0,0,1,0-.1l1,0,1.58,0c2.05,0,3.19,1.05,3.19,2.83A2.87,2.87,0,0,1,121.31,13Zm-.08-5.47a10,10,0,0,0-1.23,0v2.94c0,.92,0,1.56,0,1.84s0,.24.18.31a3.24,3.24,0,0,0,1.1.15,2.32,2.32,0,0,0,2.37-2.6A2.43,2.43,0,0,0,121.23,7.51Z"/><path class="cls-4" d="M127.39,12c0,.55.13.57.6.58s.54,0,.77,0c.77,0,.91-.5,1-1.08,0-.06.11-.07.11,0a9.41,9.41,0,0,1,0,1.12c0,.2-.19.27-.54.27s-1.29,0-2.16,0l-1,0a.06.06,0,1,1,0-.11c.48-.05.58-.13.6-.92s0-1.28,0-1.93,0-1.05,0-1.63c0-.75,0-.92-.63-1a.05.05,0,1,1,0-.1l1.07,0,1.92,0c.26,0,.41,0,.39.23s-.05.56-.1.87c0,.07-.12.07-.11,0,0-.45-.15-.76-.62-.79a10.3,10.3,0,0,0-1.26,0c0,.76,0,1.45,0,2.29.37,0,1,0,1.53,0,.26,0,.25-.1.32-.09s0,0,0,.22a5.05,5.05,0,0,1-.09.56c0,.07-.11.07-.11,0,0-.36-.23-.36-.61-.38h-1C127.36,10.57,127.37,11.46,127.39,12Z"/><path class="cls-4" d="M137.11,12.82c0,.17,0,.2,0,.21s-.07,0-.2-.16c-.59-.67-1.2-1.33-2.32-2.46-.87-.89-1.58-1.62-2-2,0,.7,0,2.45.08,3.73,0,.36.17.6.73.65a.06.06,0,1,1,0,.11l-1,0-.72,0c-.07,0-.06-.11,0-.11.33-.06.45-.14.49-.61.07-1,.09-2.47.09-3.22,0-.49,0-1.09,0-1.62,0-.14,0-.18,0-.19s.07,0,.2.15c.67.75,1.41,1.53,2.33,2.45s1.46,1.48,2,1.94c0-1.08,0-2.26,0-3.53,0-.67-.11-.77-.62-.84a.05.05,0,1,1,0-.1l.83,0,.69,0c.07,0,.05.1,0,.1-.35.05-.44.3-.46.72C137.14,9.48,137.11,10.82,137.11,12.82Z"/><path class="cls-4" d="M144.19,7.36a.49.49,0,0,1,.37.53c0,.28-.05.61-.06,1,0,.07-.12.06-.12,0a1.62,1.62,0,0,0-1.82-1.48c-1.49,0-2.44.9-2.4,2.7a2.47,2.47,0,0,0,2.55,2.74,1.53,1.53,0,0,0,1.76-1.44c0-.07.12-.08.12,0s0,.48,0,.63c0,.66-.16.71-.46.84a3.75,3.75,0,0,1-1.46.23c-2,0-3.25-1.15-3.25-2.9a2.87,2.87,0,0,1,3.16-3A4.4,4.4,0,0,1,144.19,7.36Z"/><path class="cls-4" d="M147.65,12c0,.55.13.57.6.58s.54,0,.77,0c.77,0,.92-.5,1-1.08,0-.06.1-.07.1,0a9.41,9.41,0,0,1,0,1.12c0,.2-.19.27-.54.27s-1.29,0-2.16,0l-1,0a.06.06,0,0,1,0-.11c.48-.05.58-.13.6-.92s0-1.28,0-1.93,0-1.05,0-1.63c0-.75,0-.92-.63-1-.06,0-.08-.1,0-.1l1.07,0,1.92,0c.27,0,.41,0,.39.23a8.32,8.32,0,0,1-.1.87c0,.07-.12.07-.11,0,0-.45-.15-.76-.62-.79a10.3,10.3,0,0,0-1.26,0c0,.76,0,1.45,0,2.29.38,0,1,0,1.53,0,.26,0,.25-.1.32-.09s0,0,0,.22a5.05,5.05,0,0,1-.09.56c0,.07-.11.07-.11,0,0-.36-.23-.36-.61-.38h-1C147.62,10.57,147.63,11.46,147.65,12Z"/><path class="cls-4" d="M152.13,11.4c0-.07.1-.06.1,0,0,.88.48,1.44,1.27,1.44a1.08,1.08,0,0,0,1.23-1.07c0-.76-.48-1.08-1.31-1.51a1.86,1.86,0,0,1-1.23-1.73,1.46,1.46,0,0,1,1.64-1.41,2.63,2.63,0,0,1,.84.12.42.42,0,0,1,.32.52c0,.13-.06.48-.08.68s-.1,0-.1,0a1.09,1.09,0,0,0-1.09-1.1.93.93,0,0,0-1,1,1.46,1.46,0,0,0,1,1.3c1.14.58,1.6,1.06,1.57,1.93a1.61,1.61,0,0,1-1.81,1.5,2.54,2.54,0,0,1-1-.19.59.59,0,0,1-.37-.49A3.12,3.12,0,0,1,152.13,11.4Z"/></svg>