<svg id="Layer_1" data-name="Layer 1" xmlns="http://www.w3.org/2000/svg" viewBox="0 0 190 20"><defs><style>.cls-1{fill:#673065;}.cls-2{fill:#666;}</style></defs><title>Artboard 1</title><path class="cls-1" d="M26.14,17.78v-.65s0-.21-.11-.17,0-.06,0,0a.74.74,0,0,1,0-.21l-.07-.2a.27.27,0,0,0-.14-.19c-.05,0,0,0,0-.06h.05a.41.41,0,0,0-.05-.09h0a.24.24,0,0,1,0-.12h0c-.05-.13,0-.09,0-.1h0a.18.18,0,0,0-.05-.07h.05a3,3,0,0,0-.57-.49s-.16-.1-.17,0H25c-.07,0-.06-.09,0,0h-.3A2.58,2.58,0,0,0,22,16.67h0a3,3,0,0,1,.91-1.53h-.09s-.22,0-.25.08,0,0,0,.07,0-.08-.11,0h0s-.05.15-.1.16h0c-.08,0-.11.17-.16.13h0c-.09.12-.06,0-.14.15h0s0,.09-.1.08h0L21.8,16h0a1.15,1.15,0,0,0-.14.17h0s-.06,0-.07.09-.09,0-.14,0h0s-.06.11-.12.2h0s0,.14-.06.08a1.67,1.67,0,0,1-.08.32.53.53,0,0,0,0,.25v.1h0a1.34,1.34,0,0,0-.07.18h.07a.22.22,0,0,0-.05.08h0a.17.17,0,0,0,0,.1h0c-.06,0,0,.15-.06.18s0,.09.06.11m0,.05h0a.14.14,0,0,0,0,.09h0a.09.09,0,0,1,0,.07.48.48,0,0,1,.05.17.25.25,0,0,0,.08.18h0a.92.92,0,0,1,.13.24h0l.09.17h0l.1.16c0,.05.09.1.13.1s.09.08.12.12h0l.1.1.11.08h0l.18.14h0l.09.07h0a.17.17,0,0,0,.14,0h.07c-.08,0,0,0,0,0h0s.11,0,.13.09h.17c.06,0,.15,0,.1.08s0,0,.07,0a.46.46,0,0,1-.19-.08h0a.51.51,0,0,1-.18-.09h0l.24.08h.2s.09.07.06.09,0,0,.1,0h0s.09-.11,0-.13a.09.09,0,0,1-.1,0,2.32,2.32,0,0,0,2-.66l.09-.11V19h0s.09-.1.14-.1l.06-.14h0a2.86,2.86,0,0,1,.22-.47,1.38,1.38,0,0,0,.14-.49h0v-.19h0M21,17.13h0l.06-.06v.07m.1,1v-.09h0a.34.34,0,0,1,.05-.17v.27m.29-2.31h0l.07-.07m0,2.72-.15-.1s0-.05.07-.06v.07h0v.06h0m.22.25h0v-.08l.07.08h0m.63.63h0m0-.14H22.3a.47.47,0,0,1,.15.06v.07a.15.15,0,0,1-.11-.08.29.29,0,0,0-.11-.11s0,.05-.06,0a.26.26,0,0,1-.09-.16,2.73,2.73,0,0,0,.43.26h0a.46.46,0,0,0-.16-.07.16.16,0,0,1,.08.06m.82.24h0m2.4-3.63h0"/><path class="cls-1" d="M20.26,10.17V10h0a.38.38,0,0,1,0-.15V9.67h0a1,1,0,0,0,0-.24h0V9.25a.35.35,0,0,0-.06-.14V9h-.06V8.84h0A.49.49,0,0,0,20,8.73c-.06,0-.08-.13,0-.12h-.07A.44.44,0,0,1,20,8.8h0s.08.09.08.13V8.87h0A.26.26,0,0,1,20,9h0l-.12-.22h0a.91.91,0,0,0-.11-.16V8.51l-.07-.06c-.07-.06.06,0,.08,0a.09.09,0,0,1,0-.07c-.06,0-.14,0-.12.07a.16.16,0,0,1,.06.08,2.4,2.4,0,0,0-.94-.73h-.06a2.57,2.57,0,0,0-2.53,1.36h-.06A3.22,3.22,0,0,1,17,7.67h0a1.28,1.28,0,0,0-.45.23h-.09l-.18.1h0a3.61,3.61,0,0,1-.35.33c-.12.09,0,0,0,.06s0,0-.06,0-.07.07-.06,0-.12.17,0,.2-.06,0,0,0-.08.12-.13.17,0,.1-.09.19a.45.45,0,0,0,0,.23h0v.1h0v.05c0,.05,0,.07-.06.11h0a.17.17,0,0,0,0,.1h0v.09h0a3.22,3.22,0,0,0,0,.76s0,.17.09.14h0v.06c0,.06,0,.1-.07,0v.28a1,1,0,0,1,.12.23h0c0,.14.18.25.19.28h0a.43.43,0,0,0,.14.23h0a.19.19,0,0,0,.09.14h0l.11.11a.12.12,0,0,1,.11.07.11.11,0,0,0,.15.08c.05,0,.1.11.13.14h0c0,.07.15.06.21.09h0s.2.13.24.12h0c.05,0,0,.08.09.08h0s.15-.08.18,0h.8a.07.07,0,0,0,.1,0h0s0,.1.14.07h.22s.11-.1.1,0,.2-.11.29-.17a.7.7,0,0,0,.19-.15.11.11,0,0,0,.09-.06h0c.1,0,.07,0,.18-.08-.05,0,0,0,0-.06h.09a.27.27,0,0,0,.07-.08h0l.16-.09a.1.1,0,0,0,.05-.11h0L20,11.6h0a.06.06,0,0,1,0-.06.51.51,0,0,1,.09-.16.24.24,0,0,0,.07-.18h0s0-.21.08-.26h0a.62.62,0,0,0,.07-.19h0a.61.61,0,0,1,0-.19v-.15m-4.9-.8h0m2.88,2.94H18.2M19.27,12h0m.32-3.17h0m.49.63h0M19.94,11h0a.24.24,0,0,1-.15.09.75.75,0,0,0,.07-.12l.13-.06-.06.06m.08-.4v-.08h0v-.08h0v.18h0m.07-.42v-.09h0v.06m0-.45a2.73,2.73,0,0,0-.1-.48h0a.77.77,0,0,0,.07.16h0A.19.19,0,0,0,20,9.18c-.06-.07,0-.06.08,0a.15.15,0,0,1,0,.13.22.22,0,0,0,0,.16h0a.27.27,0,0,1-.06.17"/><path class="cls-1" d="M10.76,10.14a1.34,1.34,0,0,0,.07-.18h-.06a.22.22,0,0,1,.05-.08h0a.17.17,0,0,0,0-.1h0V9.44h0V9.36h0a.09.09,0,0,1,0-.07.34.34,0,0,1-.05-.17.3.3,0,0,0-.08-.18V9a1.38,1.38,0,0,1-.14-.24h0a.56.56,0,0,0-.09-.17h0l-.1-.16s-.08-.1-.12-.1-.09-.08-.13-.12h0A.53.53,0,0,1,10,8l-.12-.07h0a1.33,1.33,0,0,0-.19-.14h0L9.6,7.72H9.53a.15.15,0,0,0-.13,0H9.33s-.11,0-.13-.09H9c-.06,0-.15,0-.1-.08s0,0-.08,0h.07c0,.06.12,0,.15,0H9a.31.31,0,0,1,.18.09H8.7s-.09-.06,0-.08,0,0-.1,0h0s-.09.11,0,.13a.09.09,0,0,1,.1,0,2.36,2.36,0,0,0-2,.66l-.08.11V8.35h0s-.1.1-.14.1a.35.35,0,0,0-.06.14h0c-.07.16-.14.32-.22.47A1.45,1.45,0,0,0,6,9.4H6v.19H6v.48H6v.13s0,.21.12.16,0,.07,0,0a.74.74,0,0,1,0,.21.27.27,0,0,0,.08.19.39.39,0,0,0,.13.2c-.06,0,0,0,0,.06h0l.06.09h0a.13.13,0,0,1,0,.12h0v.1h0v.07h0a2.74,2.74,0,0,0,.58.49s.15.1.16,0h.08c.08,0,.06.09-.06,0h.29A2.56,2.56,0,0,0,10,10.69h.06a3.1,3.1,0,0,1-.92,1.53s.06-.05.09-.05h0a1,1,0,0,0,.25-.08V12c0-.07,0,.08.11,0h0s.05-.17.1-.17h0c.08,0,.11-.17.16-.13h0c.08-.12.05,0,.14-.15h0s0-.08.11-.08h0l.11-.12h0l.15-.17h0s.06,0,.07-.09.09,0,.15,0h0l.12-.18h0s0-.14.06-.08a1.32,1.32,0,0,1,.08-.33.49.49,0,0,0,0-.24v-.1ZM8.65,7.57h0m.8.09h0m-.07.13h0a.46.46,0,0,0,.16.07.16.16,0,0,1-.08-.06h.06a.2.2,0,0,1-.15-.06c-.06-.06,0-.06,0-.07s.09,0,.11.08a.25.25,0,0,0,.12.11h.06A.29.29,0,0,1,9.74,8a2.26,2.26,0,0,0-.42-.26m.68.49h0V8.3c0,.07,0,0-.07-.08m.25,3h0l-.07.07m.06-2.56V8.68h0l-.05-.07h0l.14.1-.07.06m.23.52a.29.29,0,0,0,0-.13V9.11h0a.49.49,0,0,1,0,.17m.1.79V10h.18"/><path class="cls-1" d="M15.49,2.5a.22.22,0,0,0,0-.16h0V2.06c0-.07,0-.15-.05-.16a.31.31,0,0,0,0-.19h0a.9.9,0,0,0-.08-.21h0a1,1,0,0,0-.08-.25h-.06c-.06,0,.07,0,0-.12h0s-.16-.06-.17-.1h0c0-.08-.17-.11-.13-.16h0c-.11-.09,0-.06-.14-.14h0s-.08,0-.07-.1h0l-.06-.1h0L14.48.39h0a.07.07,0,0,0-.07-.07h0V.24H14a2.58,2.58,0,0,0-2.6,1.34h-.05A3.23,3.23,0,0,1,12.16.14h0L12.32,0h-.11A.33.33,0,0,0,12,.11h.05a1.09,1.09,0,0,1-.23.13h0a.61.61,0,0,0-.18.09h0l-.15.11c-.06,0-.1.08-.1.12s-.09.09-.13.12h0a.52.52,0,0,1-.11.1.41.41,0,0,1-.07.11h0V1h0a1.33,1.33,0,0,0-.14.19h0a.39.39,0,0,0-.08.1h0a.33.33,0,0,0,0,.14V1.5h0s0,.12-.09.14h0v.17c0,.06,0,.15-.07.1s0,0,0,.07a.31.31,0,0,1,.09-.18h0a.51.51,0,0,1,.09-.18c0,.06,0-.05.06,0h0a2.17,2.17,0,0,0-.07.24h0V2s-.07.09-.09.06,0,0,0,.1V2.08h0s.11.09.13,0a.09.09,0,0,1,0-.1,2.36,2.36,0,0,0,.66,2l.11.09H11.6s.1.1.1.14l.14.06h0a2.86,2.86,0,0,1,.47.22,1.38,1.38,0,0,0,.49.14h.78s.21,0,.17-.12.06,0,0,0H14l.2-.07a.5.5,0,0,0,.19-.13c0,.06,0,0,.06,0v.05l.09-.06h.17l.07-.06h0a2.43,2.43,0,0,0,.49-.57s.1-.16,0-.17h0V3.42c0-.08.09-.06,0,.06l.07-.08c.06,0,.09-.06.11-.14a1.15,1.15,0,0,1,0-.26h0c.08-.13,0-.31.07-.33h0a.39.39,0,0,0,0-.26h0M11.81.29V.35h-.13a.76.76,0,0,1,.11-.14M11.52.6l-.07.06h.07m-.7.68h0m-.09.8h0M11,1.35h0a.49.49,0,0,0,0-.17.11.11,0,0,1-.06.07V1.19c0-.06,0,.1-.06.16s-.06,0-.07-.05a.2.2,0,0,1,.08-.12A.29.29,0,0,0,11,1.07V1a.25.25,0,0,1,.16-.08,2.26,2.26,0,0,0-.26.42ZM14.29.41h0l.07.08h0"/><path class="cls-1" d="M15.39,16.88h0a4.68,4.68,0,0,1-.18-.48A1.53,1.53,0,0,0,15,16h0v-.09h-.09a2.81,2.81,0,0,1-.34-.35c-.08-.12,0,0-.07,0s0,0,0-.06-.07-.06,0-.06-.18-.11-.2,0,0-.06,0-.06a.66.66,0,0,1-.17-.12.72.72,0,0,1-.2-.09.41.41,0,0,0-.22,0h0a.14.14,0,0,1-.11-.06h0c-.12,0-.06-.06-.1,0s.05,0,0,0h-.09a2.76,2.76,0,0,0-.76.07s-.17,0-.14.09h0c.06,0,0,.05,0,.05s-.11,0,0-.07H12.1a.94.94,0,0,1-.22.12h0c-.14,0-.24.18-.28.18h0a.36.36,0,0,0-.23.15h0a.19.19,0,0,0-.14.09h0l-.11.11a.15.15,0,0,1-.07.12c-.07.05-.1.1-.08.14a.86.86,0,0,0-.13.14h0c-.07,0-.06.16-.09.22h0s-.13.2-.12.24h0s-.07,0-.07.09h0s.07.14,0,.18h0v.21h0v.2h0v.13h0V18h0v.11a.11.11,0,0,0-.07.14h0v.22h0s.1.11,0,.1.11.19.17.29a.55.55,0,0,0,.16.18s0,.07,0,.09h0c0,.1,0,.06.08.17,0-.05,0,0,.06,0s0,.06,0,.09h0a.27.27,0,0,0,.08.07h0a.56.56,0,0,1,.09.17s.07.07.12,0h0l.06.05h.23v-.07l.12.06h.11a2.57,2.57,0,0,0,2.53-1.35h.06a3.37,3.37,0,0,1-.46,1l.18-.09h0l.17-.11h.1l.06-.08c.06-.08,0,.06,0,.09s.06,0,.07,0,0-.15-.07-.13,0,.07-.08.06h0a2.35,2.35,0,0,0,.91-1.85V17.1c0-.05.06.07.09,0h0v-.16a.17.17,0,0,0,0-.14h0m-4.76.89h0v-.1h0v.05h0m.59,1.15h0m2.31-4.06Z"/><path class="cls-1" d="M4.89,17.08h0c-.07-.16-.11-.32-.17-.49a1.26,1.26,0,0,0-.24-.44h0v-.09H4.39l-.34-.34c-.08-.11,0,0-.07,0s0,0,0-.06-.07-.07,0-.07-.18-.11-.2,0,0-.06,0,0l-.11-.08H3.31A2.55,2.55,0,0,0,.78,16.66H.73a3,3,0,0,1,.92-1.54.17.17,0,0,0-.14,0,1,1,0,0,1-.23.12h0c-.14,0-.25.18-.28.19H1a.31.31,0,0,0-.23.14h0a.19.19,0,0,0-.14.09h0l-.11.11a.14.14,0,0,1-.07.11c-.07,0-.1.11-.08.15a.86.86,0,0,0-.13.14h0c-.07,0-.06.16-.09.21h0s-.13.2-.12.23,0,0,0,.06-.07,0-.07.09H0A2.25,2.25,0,0,1,.08,17h0v.2H0v.21H0v.12H0V18H0v.11a.11.11,0,0,0-.07.14h0v.05h0a.54.54,0,0,0,.05.21H0s.1.11,0,.1.11.19.17.28a.58.58,0,0,0,.16.19.14.14,0,0,0,0,.09h0a1.42,1.42,0,0,0,.08.18H.47v.09h0a.18.18,0,0,0,.08.07h0a.56.56,0,0,1,.09.17s.07.06.12,0h0l.07.05h0a.06.06,0,0,1,.06,0,.51.51,0,0,1,.16.09.24.24,0,0,0,.18.07h0s.2,0,.26.07h0l.19.06h.18A.23.23,0,0,0,2,20h.17a.38.38,0,0,1,.15,0h.22a.89.89,0,0,0,.23,0h.39v-.06h.22a.28.28,0,0,0,.11-.13c0,.09.13-.08.12,0s0,0,0-.07-.13.06-.19.08h0c-.06,0-.1.07-.14.08s.07,0,.06,0h0a.33.33,0,0,1-.19.06h0a.94.94,0,0,0,.22-.12h0l.17-.11h.1l.06-.08c.06-.08,0,.07,0,.09s.06,0,.07,0,0-.14-.07-.12a.09.09,0,0,1-.08.06,2.35,2.35,0,0,0,.91-1.85v-.14c0-.05.06.06.09,0h0v-.17a.69.69,0,0,0,0-.13h0M.12,18h0v-.1h0m.59,1.15V19H.76m.74.54h0a.24.24,0,0,1-.09-.15l.12.07.06.12H1.52m.48.2H1.82V19.7H2m.33,0h0m.75,0a.22.22,0,0,0-.16,0h0a.27.27,0,0,1-.17-.06,2.77,2.77,0,0,0,.48-.11h0a.24.24,0,0,0-.16.07.14.14,0,0,1,.09,0h0a.47.47,0,0,1,.15-.06c.08,0,0,0,0,.08a.15.15,0,0,1-.13,0m.15,0Z"/><path class="cls-2" d="M45.85,5.68V6c0,.15,0,.31,0,.48s0,.33,0,.48,0,.28,0,.37a.08.08,0,0,1-.09.07s-.08,0-.08-.07a3.16,3.16,0,0,0-.09-.71,1.09,1.09,0,0,0-.23-.43A.75.75,0,0,0,45,6a1.71,1.71,0,0,0-.48-.09l-.6,0H42.26s0,.12,0,.22,0,.19,0,.31,0,.23,0,.35v.31c0,.53,0,1.08,0,1.64v3.08c0,.45,0,.83,0,1.13a4.2,4.2,0,0,0,.06.8,1,1,0,0,0,.19.44.72.72,0,0,0,.35.2,5.29,5.29,0,0,0,.54.08.09.09,0,0,1,.09.08c0,.05,0,.08-.09.08l-.81,0H41.43l-.45,0h-.89c-.06,0-.09,0-.09-.08a.09.09,0,0,1,.09-.08l.39-.08a.64.64,0,0,0,.33-.16,1,1,0,0,0,.23-.4,2.63,2.63,0,0,0,.09-.79V10.08c0-.56,0-1.12,0-1.67s0-1,0-1.41V6.71c0-.11,0-.22,0-.33s0-.21,0-.3,0-.17,0-.22H40c-.37,0-.67,0-.89,0a4.79,4.79,0,0,0-.72.1.85.85,0,0,0-.42.23.84.84,0,0,0-.22.43,4.31,4.31,0,0,0-.12.67s0,.08-.08.08a.07.07,0,0,1-.08-.08c0-.07,0-.17,0-.31V5.89a3.71,3.71,0,0,1,0-.52c0-.09.05-.13.09-.13a.32.32,0,0,1,.16,0,.85.85,0,0,0,.29.06l.5,0,.76,0,1,0,1.4,0c.87,0,1.63,0,2.27,0s1.11,0,1.4-.07a.53.53,0,0,0,.25-.07.24.24,0,0,1,.14-.06s0,0,.06.09A3.15,3.15,0,0,1,45.85,5.68Z"/><path class="cls-2" d="M56.76,12.78c0,.32,0,.58,0,.78a1.4,1.4,0,0,0,.12.47.51.51,0,0,0,.28.26,1.7,1.7,0,0,0,.51.13.07.07,0,0,1,.08.08c0,.05,0,.08-.08.08l-.72,0H55.53l-.75,0c-.06,0-.08,0-.08-.08s0-.08.08-.08a1.27,1.27,0,0,0,.45-.09.57.57,0,0,0,.26-.25,1.46,1.46,0,0,0,.12-.49c0-.21,0-.48,0-.81,0-.11,0-.3,0-.55V10H53.1c-.89,0-1.79,0-2.69,0v.61c0,.26,0,.53,0,.8s0,.53,0,.77v.54a7.55,7.55,0,0,0,.06.81,1.25,1.25,0,0,0,.13.49.51.51,0,0,0,.27.25,1.27,1.27,0,0,0,.45.09.07.07,0,0,1,.08.08c0,.05,0,.08-.08.08l-.72,0h-1.5l-.71,0c-.06,0-.08,0-.08-.08s0-.08.08-.08a1.7,1.7,0,0,0,.51-.13.47.47,0,0,0,.26-.26,1.4,1.4,0,0,0,.12-.47q0-.3,0-.78c0-.12,0-.31,0-.54s0-.47,0-.73V8.44c0-.28,0-.54,0-.77s0-.42,0-.55c0-.31,0-.57,0-.76a1.22,1.22,0,0,0-.12-.46.57.57,0,0,0-.27-.26,2.36,2.36,0,0,0-.52-.12q-.09,0-.09-.09s0-.08.09-.08l.74,0,.78,0,.74,0,.67,0a.07.07,0,0,1,.08.08c0,.05,0,.08-.08.09a2,2,0,0,0-.45.09.66.66,0,0,0-.26.24,1.34,1.34,0,0,0-.12.48c0,.2,0,.47-.05.79v.39c0,.17,0,.36,0,.58s0,.45,0,.7v.74l1.36,0h2.64l1.28,0c0-.53,0-1,0-1.42s0-.73,0-1,0-.58,0-.78a1.43,1.43,0,0,0-.14-.5.57.57,0,0,0-.26-.25,1.66,1.66,0,0,0-.46-.1.08.08,0,0,1-.08-.09s0-.08.08-.08l.74,0,.75,0,.71,0,.73,0s.07,0,.07.08a.08.08,0,0,1-.07.09,2.13,2.13,0,0,0-.51.12.65.65,0,0,0-.26.26,1.21,1.21,0,0,0-.11.48c0,.2,0,.46,0,.77,0,.09,0,.25,0,.48s0,.48,0,.75,0,.54,0,.8,0,.47,0,.63,0,.41,0,.68,0,.55,0,.83,0,.56,0,.83S56.76,12.63,56.76,12.78Z"/><path class="cls-2" d="M63.25,10v1.49c0,.28,0,.57,0,.85s0,.54,0,.78a3,3,0,0,0,.06.53.46.46,0,0,0,.16.27.59.59,0,0,0,.29.12,2.91,2.91,0,0,0,.47,0l.72,0,.53,0a2,2,0,0,0,.76-.15,1.29,1.29,0,0,0,.47-.38A1.76,1.76,0,0,0,67,13c.06-.21.12-.43.17-.67a.09.09,0,0,1,.09-.08c.06,0,.08,0,.08.08v1c0,.17,0,.33,0,.47a2.6,2.6,0,0,1,0,.36.43.43,0,0,1-.25.35,1.58,1.58,0,0,1-.63.1l-1.5,0c-.62,0-1.29,0-2,0h-.33l-.45,0h-.9c-.06,0-.09,0-.09-.08a.09.09,0,0,1,.09-.08,2.42,2.42,0,0,0,.48-.09.53.53,0,0,0,.29-.22,1.08,1.08,0,0,0,.15-.43,6.33,6.33,0,0,0,.06-.76q0-.79,0-1.56V8.48c0-.42,0-.87,0-1.34,0-.31,0-.56,0-.76A1.06,1.06,0,0,0,62,5.9a.6.6,0,0,0-.3-.26,2.51,2.51,0,0,0-.57-.12.09.09,0,0,1-.09-.08q0-.09.09-.09l.87,0,.87,0h1.61l.82,0H66a1.61,1.61,0,0,1,.5.06c.11,0,.16.14.14.32s0,.42-.07.67,0,.5-.09.75a.1.1,0,0,1-.11.08c-.06,0-.08,0-.07-.08a1.78,1.78,0,0,0-.23-.9,1,1,0,0,0-.78-.39l-.51,0-.47,0H63.27c0,.62,0,1.22,0,1.81v1.9c.31,0,.69,0,1.13,0s.9,0,1.35,0l.26,0,.13-.05.07,0h.06s0,0,0,.08,0,.14,0,.29,0,.35-.08.53,0,.3-.07.37a.11.11,0,0,1-.1.08.07.07,0,0,1-.08-.08.8.8,0,0,0-.06-.34.44.44,0,0,0-.2-.18.89.89,0,0,0-.31-.07l-.41,0H63.25Z"/><path class="cls-2" d="M81,13.65c-.1-.18-.22-.4-.37-.64s-.31-.52-.49-.8l-.54-.88-.53-.89c-.15.22-.31.48-.48.75s-.33.56-.49.84l-.46.8c-.15.26-.27.48-.37.67a1,1,0,0,0-.2.66c0,.13.25.22.64.26a.09.09,0,0,1,.09.08c0,.05,0,.08-.09.08l-.7,0H75.81l-.77,0c-.05,0-.08,0-.08-.07a.09.09,0,0,1,.08-.09,1.72,1.72,0,0,0,.69-.19,2.11,2.11,0,0,0,.69-.67c.37-.54.78-1.12,1.2-1.75s.83-1.24,1.2-1.83l-.59-1-.6-.95c-.2-.32-.4-.62-.59-.91l-.52-.81c-.11-.16-.2-.29-.28-.39A1.07,1.07,0,0,0,76,5.73a1.11,1.11,0,0,0-.29-.14,2.45,2.45,0,0,0-.37-.07.09.09,0,0,1-.09-.08q0-.09.09-.09l.73,0,.67,0,.73,0,.79,0c.06,0,.09,0,.08.09s0,.08-.08.08c-.34,0-.53.12-.56.24a.75.75,0,0,0,.14.53c.23.43.48.88.75,1.36s.56,1,.87,1.49c.28-.44.54-.89.79-1.33s.49-.88.7-1.3A5.18,5.18,0,0,0,81.16,6a.49.49,0,0,0,0-.28A.21.21,0,0,0,81,5.58l-.31-.06a.09.09,0,0,1-.09-.08q0-.09.09-.09H81l.38,0H82l.47,0,.64,0a.08.08,0,0,1,.09.09s0,.08-.09.08l-.31.05a.71.71,0,0,0-.28.11,2.82,2.82,0,0,0-.3.25,3.2,3.2,0,0,0-.36.45c-.39.56-.78,1.12-1.14,1.66s-.7,1.05-1,1.52l.62,1,.69,1.09c.23.37.46.72.68,1.06l.61.88a2.61,2.61,0,0,0,.58.63,1.26,1.26,0,0,0,.62.2.07.07,0,0,1,.08.08c0,.05,0,.08-.08.08l-.74,0H81.48l-.74,0c-.06,0-.09,0-.08-.08s0-.08.08-.08c.29,0,.45-.11.47-.23A.86.86,0,0,0,81,13.65Z"/><path class="cls-2" d="M88.27,10.23c0,.13,0,.32,0,.56s0,.51,0,.78,0,.54,0,.78,0,.44,0,.57a6.33,6.33,0,0,0,.06.76,1.08,1.08,0,0,0,.15.43.52.52,0,0,0,.3.22,2.88,2.88,0,0,0,.53.09c.06,0,.09,0,.09.08s0,.08-.09.08l-.82,0H87l-.79,0c-.06,0-.08,0-.08-.08s0-.08.08-.08a3.09,3.09,0,0,0,.45-.1.5.5,0,0,0,.29-.2,1,1,0,0,0,.16-.43,6.34,6.34,0,0,0,.06-.77v-.57c0-.24,0-.5,0-.77V8.45c0-.28,0-.53,0-.76V7.15a5.8,5.8,0,0,0-.08-.89A1.33,1.33,0,0,0,87,5.79a.51.51,0,0,0-.28-.2,3.51,3.51,0,0,0-.43-.07s-.07,0-.08-.08,0-.09.08-.09h.35l.41,0h1.36l.39,0h.38c.06,0,.08,0,.08.08a.1.1,0,0,1-.08.09l-.4.09a.56.56,0,0,0-.25.21,1.39,1.39,0,0,0-.14.46,8,8,0,0,0-.06.87c0,.11,0,.29,0,.52s0,.51,0,.8v1.76Z"/><path class="cls-2" d="M92.59,14a.61.61,0,0,1,.2-.51.7.7,0,0,1,1,0,.86.86,0,0,1,.22.63,2.17,2.17,0,0,1-.43,1.28,2.64,2.64,0,0,1-1.24.89s-.08,0-.1,0,0-.06,0-.09a1.82,1.82,0,0,0,.72-.71,2.34,2.34,0,0,0,.32-.81.94.94,0,0,1-.53-.15A.57.57,0,0,1,92.59,14Z"/><path class="cls-2" d="M111.52,6.69l-.06,1.72c0,.57,0,1.16,0,1.78s0,1.28,0,2,0,1.45,0,2.26a1.5,1.5,0,0,1,0,.26.08.08,0,0,1,0,.07s-.07,0-.11,0l-.21-.23-.74-.82-.82-.9-1-1c-.35-.37-.76-.79-1.21-1.24l-1.9-1.94c-.55-.56-1-1-1.3-1.27,0,.28,0,.66,0,1.13s0,1,0,1.55,0,1.13,0,1.72,0,1.14.07,1.66a1.1,1.1,0,0,0,.26.72,1.44,1.44,0,0,0,.92.35.09.09,0,0,1,.09.08c0,.05,0,.08-.09.08l-.9,0h-1.21l-.64,0a.07.07,0,0,1-.08-.08c0-.05,0-.08.08-.08a1.08,1.08,0,0,0,.58-.25,1.34,1.34,0,0,0,.21-.75c0-.41.06-.86.08-1.34s0-1,0-1.44,0-.92,0-1.35,0-.79,0-1.1V6.89c0-.46,0-.91,0-1.34V5.32a.11.11,0,0,1,.06-.07s.05,0,.09,0l.22.21c.55.61,1.14,1.24,1.75,1.89s1.29,1.35,2,2.09l1.77,1.78c.53.54,1,1,1.41,1.37V9.87c0-.95,0-1.94-.08-3q0-.4-.06-.66a.88.88,0,0,0-.15-.39.63.63,0,0,0-.3-.21,2.22,2.22,0,0,0-.5-.11c-.05,0-.07,0-.08-.08s0-.09.08-.09h.34l.39,0h.62l.49,0,.63,0c.06,0,.09,0,.08.09a.07.07,0,0,1-.08.08.71.71,0,0,0-.57.36A2.13,2.13,0,0,0,111.52,6.69Z"/><path class="cls-2" d="M117.86,10v1.49c0,.28,0,.57,0,.85s0,.54,0,.78a3,3,0,0,0,.06.53.46.46,0,0,0,.16.27.59.59,0,0,0,.29.12,2.91,2.91,0,0,0,.47,0l.72,0,.53,0a2,2,0,0,0,.76-.15,1.38,1.38,0,0,0,.47-.38,1.76,1.76,0,0,0,.27-.55c.06-.21.11-.43.16-.67a.1.1,0,0,1,.1-.08c.06,0,.08,0,.08.08v1c0,.17,0,.33,0,.47a2.6,2.6,0,0,1,0,.36.43.43,0,0,1-.25.35,1.58,1.58,0,0,1-.63.1l-1.5,0q-.93,0-2,0h-.32l-.45,0h-.9c-.06,0-.09,0-.09-.08a.09.09,0,0,1,.09-.08,2.58,2.58,0,0,0,.48-.09.53.53,0,0,0,.29-.22,1.08,1.08,0,0,0,.15-.43,6.33,6.33,0,0,0,.06-.76q0-.79,0-1.56V8.48c0-.42,0-.87,0-1.34,0-.31,0-.56,0-.76a1.4,1.4,0,0,0-.12-.48.6.6,0,0,0-.3-.26,2.51,2.51,0,0,0-.57-.12.09.09,0,0,1-.09-.08q0-.09.09-.09l.87,0,.87,0h1.61l.82,0h.69a1.61,1.61,0,0,1,.5.06c.11,0,.16.14.14.32s0,.42-.07.67,0,.5-.09.75a.1.1,0,0,1-.11.08c-.06,0-.08,0-.07-.08a1.78,1.78,0,0,0-.23-.9,1,1,0,0,0-.78-.39l-.51,0-.47,0h-1.07c0,.62,0,1.22,0,1.81v1.9c.31,0,.68,0,1.13,0s.9,0,1.35,0l.26,0,.13-.05.07,0h.06s0,0,0,.08,0,.14,0,.29,0,.35-.08.53,0,.3-.07.37a.11.11,0,0,1-.1.08.07.07,0,0,1-.08-.08.66.66,0,0,0-.07-.34.37.37,0,0,0-.19-.18.89.89,0,0,0-.31-.07l-.41,0h-1.68Z"/><path class="cls-2" d="M133.66,14.55c-.22-.6-.44-1.2-.66-1.78s-.46-1.24-.74-2c-.12-.3-.24-.61-.36-.94l-.36-.93c-.11-.3-.22-.57-.31-.82s-.17-.45-.23-.6l-1.13,2.86-.77,2c-.28.71-.55,1.44-.82,2.19a.81.81,0,0,1-.08.18.1.1,0,0,1-.09,0s-.07,0-.08,0a.81.81,0,0,1-.08-.18c-.26-.78-.51-1.55-.76-2.32s-.54-1.63-.84-2.57l-.33-1-.31-.93c-.1-.29-.19-.55-.28-.79s-.15-.43-.21-.58a4.76,4.76,0,0,0-.21-.44,1.26,1.26,0,0,0-.19-.24.52.52,0,0,0-.23-.1l-.31-.05a.09.09,0,0,1-.08-.09s0-.08.08-.08l.68,0,.72,0,.61,0,.83,0a.08.08,0,0,1,.09.09s0,.08-.09.08a1.39,1.39,0,0,0-.63.18c-.11.09-.12.28,0,.59.12.49.25,1,.39,1.45s.31,1,.49,1.63.36,1.18.54,1.74.36,1.06.53,1.54l.59-1.48c.23-.57.46-1.15.68-1.76l.54-1.4c.15-.39.28-.74.38-1l.27-.76c.08-.21.16-.41.23-.61a1.23,1.23,0,0,1,.09-.21.09.09,0,0,1,.16,0,.87.87,0,0,1,.07.19q.28.87.63,1.8c.23.62.47,1.28.73,2s.45,1.19.69,1.78.44,1.1.61,1.55c.15-.42.32-.92.51-1.51l.58-1.83c.15-.49.28-1,.41-1.41s.23-.9.33-1.34a1.61,1.61,0,0,0,0-.82c0-.14-.22-.22-.49-.25a.09.09,0,0,1-.09-.08.08.08,0,0,1,.09-.09h.29l.33,0h.56l.58,0,.61,0c.07,0,.1,0,.1.09a.09.09,0,0,1-.1.08,1.16,1.16,0,0,0-.42.12,1.06,1.06,0,0,0-.29.22,1.32,1.32,0,0,0-.19.29l-.14.3c-.08.19-.17.42-.26.67l-.31.82c-.1.29-.21.58-.31.88s-.2.58-.29.84L134,14.55a.29.29,0,0,1-.08.17.1.1,0,0,1-.16,0S133.69,14.64,133.66,14.55Z"/><path class="cls-2" d="M155.1,5.65s0,.09,0,.11-.06,0-.08,0a1.36,1.36,0,0,0-.53-.09,2.23,2.23,0,0,0-1.33.51,5.87,5.87,0,0,0-1.25,1.32c-.21.3-.42.63-.64,1a12.29,12.29,0,0,0-.59,1.14,8.53,8.53,0,0,0-.42,1.2,4.39,4.39,0,0,0-.16,1.17v1.06a4.92,4.92,0,0,0,0,.76.79.79,0,0,0,.16.38.5.5,0,0,0,.32.14l.52.07c.06,0,.09,0,.09.08s0,.08-.09.08l-.89,0H149l-.89,0c-.06,0-.09,0-.09-.08a.09.09,0,0,1,.09-.08l.41-.09a.56.56,0,0,0,.29-.17.84.84,0,0,0,.17-.38,4.25,4.25,0,0,0,0-.71v-1a5.14,5.14,0,0,0-.11-1,8.76,8.76,0,0,0-.31-1.08c-.13-.36-.27-.71-.43-1a8.65,8.65,0,0,0-.5-.92,7.8,7.8,0,0,0-1.51-1.75,2.46,2.46,0,0,0-1.44-.56,1.31,1.31,0,0,0-.39,0,1.71,1.71,0,0,0-.34.08s-.08,0-.09,0,0-.07.05-.1a2.58,2.58,0,0,1,.5-.31,2.39,2.39,0,0,1,1-.15,2.73,2.73,0,0,1,1,.18,3.93,3.93,0,0,1,.86.5,4.52,4.52,0,0,1,.73.72,6.89,6.89,0,0,1,.61.84A11.31,11.31,0,0,1,149.36,9a12,12,0,0,1,.52,1.67c0-.12.05-.31.1-.56s.14-.53.25-.85.26-.65.43-1a8.45,8.45,0,0,1,.65-1.09,5.59,5.59,0,0,1,.8-.94,4.15,4.15,0,0,1,.76-.58,2.6,2.6,0,0,1,.71-.29,2.86,2.86,0,0,1,.63-.08,1.74,1.74,0,0,1,.53.08A.66.66,0,0,1,155.1,5.65Z"/><path class="cls-2" d="M166.42,9.8a5,5,0,0,1-.38,2,4.75,4.75,0,0,1-1,1.58,4.53,4.53,0,0,1-1.55,1.05,5,5,0,0,1-1.94.38,6.4,6.4,0,0,1-2-.29,4.21,4.21,0,0,1-1.53-.87,4.09,4.09,0,0,1-1-1.44,5.73,5.73,0,0,1-.43-2,4.94,4.94,0,0,1,.33-2A4.62,4.62,0,0,1,158,6.57a5.2,5.2,0,0,1,1.65-1,5.54,5.54,0,0,1,2.11-.38,4.86,4.86,0,0,1,2,.39,4.44,4.44,0,0,1,2.39,2.53A5.08,5.08,0,0,1,166.42,9.8Zm-5.24-4.22a3.6,3.6,0,0,0-1.5.35,3,3,0,0,0-1.05.9A4,4,0,0,0,158,8.2a6.83,6.83,0,0,0-.21,1.75,5.65,5.65,0,0,0,.27,1.79,4.28,4.28,0,0,0,.75,1.42,3.5,3.5,0,0,0,1.2.92,3.84,3.84,0,0,0,1.58.32,3.9,3.9,0,0,0,1.53-.29,3.4,3.4,0,0,0,1.15-.82A3.68,3.68,0,0,0,165,12a4.5,4.5,0,0,0,.26-1.59,7.4,7.4,0,0,0-.23-1.8,4.71,4.71,0,0,0-.75-1.58A3.78,3.78,0,0,0,163,6,3.64,3.64,0,0,0,161.18,5.58Z"/><path class="cls-2" d="M170.58,12.83c0-.54,0-1.06,0-1.57s0-1,0-1.57V8.22c0-.24,0-.48,0-.72s0-.51,0-.79a1.44,1.44,0,0,0-.25-.88,1.16,1.16,0,0,0-.79-.31.09.09,0,0,1-.1-.08c0-.06,0-.09.1-.09h.32l.39,0H171c.24,0,.53,0,.87,0s.67,0,1,0a4.23,4.23,0,0,1,1.56.28,2.36,2.36,0,0,1,.89.63,2,2,0,0,1,.4.78,3.62,3.62,0,0,1,.09.75,2.57,2.57,0,0,1-.43,1.48,3.18,3.18,0,0,1-1.23,1q.16.27.54.81c.26.36.54.75.87,1.17s.66.8.92,1.08a6.11,6.11,0,0,0,.76.7,1.48,1.48,0,0,0,.57.27l.5.09a.09.09,0,0,1,.1.08c0,.05,0,.08-.1.08l-.3,0h-.39l-.39,0a1.51,1.51,0,0,1-.32,0,2.3,2.3,0,0,1-1.27-.59,4.73,4.73,0,0,1-.61-.68q-.33-.4-.78-1l-.61-.89-.49-.77a7.61,7.61,0,0,1-1.51,0c0,.5,0,.95,0,1.34s0,.7,0,.91a7.38,7.38,0,0,0,.06.83,1.24,1.24,0,0,0,.15.47.58.58,0,0,0,.31.22,2.62,2.62,0,0,0,.52.09.09.09,0,0,1,.1.08c0,.05,0,.08-.1.08l-.88,0-.67,0-.7,0-.83,0c-.07,0-.1,0-.09-.08a.09.09,0,0,1,.09-.08l.47-.09a.55.55,0,0,0,.3-.2,1.19,1.19,0,0,0,.15-.45A7.42,7.42,0,0,0,170.58,12.83Zm4.18-4.7a2.73,2.73,0,0,0-.48-1.65,1.91,1.91,0,0,0-1.51-.74,6.08,6.08,0,0,0-.61,0l-.54,0v.68c0,.23,0,.5,0,.82v2.85a6.74,6.74,0,0,0,.83.1,6.56,6.56,0,0,0,1,0,1.15,1.15,0,0,0,.61-.22,1.69,1.69,0,0,0,.42-.46,2.17,2.17,0,0,0,.24-.63A3.27,3.27,0,0,0,174.76,8.13Z"/><path class="cls-2" d="M182.22,10.23c0,.13,0,.32,0,.57s0,.52,0,.79,0,.53,0,.78v.56a6.22,6.22,0,0,0,.07.8,1.06,1.06,0,0,0,.16.41.47.47,0,0,0,.27.19l.41.09a.09.09,0,0,1,.1.08c0,.05,0,.08-.1.08l-.73,0h-1.5l-.71,0c-.06,0-.09,0-.08-.07a.09.09,0,0,1,.08-.09,2.81,2.81,0,0,0,.49-.11.44.44,0,0,0,.27-.21,1.34,1.34,0,0,0,.11-.42q0-.27.06-.75c0-.13,0-.31,0-.56v-4c0-.3,0-.56,0-.8s0-.42,0-.54a7.28,7.28,0,0,0,0-.78.85.85,0,0,0-.15-.44.53.53,0,0,0-.29-.22,3.47,3.47,0,0,0-.49-.1c-.06,0-.09,0-.09-.08s0-.09.09-.09l.8,0,.73,0,.67,0,.72,0c.07,0,.11,0,.1.09a.09.09,0,0,1-.1.08,1.9,1.9,0,0,0-.42.09.53.53,0,0,0-.25.24,1.11,1.11,0,0,0-.12.45c0,.19,0,.45-.05.76v.69c0,.25,0,.52,0,.81s0,.56,0,.85S182.22,10,182.22,10.23Zm4.86-4.83.53,0a4.68,4.68,0,0,1,.55,0c.07,0,.11,0,.11.09s0,.09-.11.09a3.53,3.53,0,0,0-.72.14,2,2,0,0,0-.73.43c-.22.18-.46.39-.72.64s-.56.56-.92.93l-.44.47-.48.51-.44.46-.3.36.59.65.76.82.79.85.7.71a12.78,12.78,0,0,0,1.15,1.06,5.1,5.1,0,0,0,1.22.74,1.66,1.66,0,0,0,.46.1l.48,0q.09,0,.09.06s0,.06-.09.07a3.53,3.53,0,0,1-.44.08,4.86,4.86,0,0,1-.56,0,4.26,4.26,0,0,1-.89-.1,3,3,0,0,1-.84-.33,5.36,5.36,0,0,1-.89-.62,12.91,12.91,0,0,1-1-1l-.57-.59-.62-.69-.6-.66c-.18-.21-.34-.39-.45-.54a1.06,1.06,0,0,0-.15-.15l-.12-.1c.22-.26.52-.6.9-1s.74-.84,1.12-1.25l.39-.45.33-.37.32-.37.38-.45a.41.41,0,0,0,.14-.3c0-.1-.09-.15-.22-.17s-.12,0-.12-.09,0-.08.12-.08h1.32Z"/></svg>