<svg id="Layer_1" data-name="Layer 1" xmlns="http://www.w3.org/2000/svg" viewBox="0 0 233 20"><defs><style>.cls-1{fill:#673065;}.cls-2{fill:#666;}.cls-3{fill:#5c5e5e;}</style></defs><title>Artboard 1</title><path class="cls-1" d="M25.74,17.78v-.65s0-.21-.11-.17,0-.06,0,0a.74.74,0,0,1,0-.21l-.07-.2a.3.3,0,0,0-.14-.19c-.05,0,0,0,0-.06h0v-.09h0a.24.24,0,0,1,0-.12h0c-.05-.13,0-.09,0-.1h0a.18.18,0,0,0-.05-.07h.05a2.43,2.43,0,0,0-.57-.49s-.16-.1-.17,0h-.07c-.07,0-.06-.09.05,0h-.3a2.57,2.57,0,0,0-2.76,1.19h-.05a3.08,3.08,0,0,1,.91-1.53h-.09s-.22,0-.25.08,0,0,0,.07,0-.08-.11,0h0s-.05.15-.1.16h0c-.08,0-.11.17-.16.13h0c-.09.12-.06,0-.14.15h0c-.05,0-.05.09-.1.08h0L21.4,16h0a1.15,1.15,0,0,0-.14.17h0s-.06,0-.07.09-.09,0-.14,0h0l-.12.2h0s0,.14-.06.08a1.67,1.67,0,0,1-.08.32,1,1,0,0,0,0,.25v.1h0l-.07.18h.07a.22.22,0,0,0-.05.08h0a.17.17,0,0,0,0,.1h0c-.06,0,0,.15-.06.18s0,.09.06.11V18h0a.09.09,0,0,1,0,.07.34.34,0,0,1,.05.17.3.3,0,0,0,.08.18h0a.7.7,0,0,1,.13.24h0l.09.17h0l.1.16c0,.05.09.1.13.1s.09.08.12.12h0a.47.47,0,0,1,.1.1l.11.08h0l.18.14h0l.09.07H22a.17.17,0,0,0,.14,0h.07c-.08-.05,0,0,0-.05h0s.11.05.13.09h.17c.06,0,.15,0,.1.08s0,0,.07,0a.46.46,0,0,1-.19-.08h0a.76.76,0,0,1-.18-.09h0l.24.08h.2s.09.07.06.09,0,0,.1,0h0s.09-.11,0-.13a.09.09,0,0,1-.1,0,2.32,2.32,0,0,0,2-.66l.09-.11v.08h0s.09-.1.14-.1l.06-.14h0c.07-.16.14-.32.22-.47a1.2,1.2,0,0,0,.14-.49h0v-.19h0m-4.81-.36h-.06l.06-.06v.07m.1,1v-.09h0a.48.48,0,0,1,.05-.17V18a.33.33,0,0,1,0,.14m.29-2.31h0l.07-.07m0,2.72-.15-.1.07-.06v.07h0v.06h0m.22.25h0v-.08l.07.08h0m.63.63h0m0-.14h-.1a.47.47,0,0,1,.15.06v.07a.21.21,0,0,1-.11-.08.2.2,0,0,0-.11-.11s0,.05-.06,0a.32.32,0,0,1-.09-.16,2.73,2.73,0,0,0,.43.26h0a.33.33,0,0,0-.16-.07.16.16,0,0,1,.08.06m.82.24h0m2.4-3.63h0"/><path class="cls-1" d="M19.86,10.17V10h0a.38.38,0,0,1,0-.15V9.67h0a1,1,0,0,0,0-.24h0V9.25a.2.2,0,0,0-.06-.14V9h-.06V8.84h0a.35.35,0,0,0-.13-.11c-.06,0-.08-.13,0-.12h-.07a.32.32,0,0,1,.07.19h-.05s.08.09.08.13V8.87h0a.29.29,0,0,1,0,.13h0l-.12-.22h0a.57.57,0,0,0-.11-.16V8.51l-.07-.06c-.07-.06.06,0,.08,0V8.38c-.06,0-.14,0-.12.07a.09.09,0,0,1,.06.08,2.4,2.4,0,0,0-.94-.73h-.06a2.57,2.57,0,0,0-2.53,1.36h-.06a3.33,3.33,0,0,1,.88-1.49h0a1.6,1.6,0,0,0-.45.23h-.09l-.18.1h0a3.61,3.61,0,0,1-.35.33c-.12.09,0,0,0,.06s0,0-.06,0-.07.07-.06,0-.12.17,0,.2-.06,0,0,0-.08.12-.13.17,0,.1-.09.19a.89.89,0,0,0,0,.23h0v.1h0v.05c0,.05,0,.07-.06.11h0s.05-.12.05,0a.12.12,0,0,0-.05.1h0v.09h0a3.24,3.24,0,0,0,.05.76s0,.17.09.14h0v.06c0,.06,0,.1-.07,0v.28a1,1,0,0,1,.12.23h0c0,.14.18.25.19.28h0a.43.43,0,0,0,.14.23h0a.42.42,0,0,0,.09.14h0l.11.11a.12.12,0,0,1,.11.07.11.11,0,0,0,.13.09h0c.05,0,.1.11.13.14h0c0,.07.15.06.21.09h0s.2.13.24.12h.05c.05,0,0,.08.09.08h0s.15-.08.18,0h.8a.07.07,0,0,0,.1,0h0s0,.1.14.07h.22s.11-.1.1,0,.2-.11.29-.17a.4.4,0,0,0,.19-.15.11.11,0,0,0,.09-.06h0c.1,0,.07,0,.18-.08-.05,0,0,0,0-.06h.09a.18.18,0,0,0,.07-.08h0l.16-.09a.1.1,0,0,0,.05-.11h0v-.06h0v-.06a.51.51,0,0,1,.09-.16.21.21,0,0,0,.07-.18h0s0-.21.08-.26h0a.44.44,0,0,0,.07-.19h0v-.34M15,9.61h0m2.88,2.94H17.8M18.87,12h0m.32-3.17h0m.49.63h0M19.54,11h0a.21.21,0,0,1-.15.09.75.75,0,0,0,.07-.12l.13-.06-.06.06m.08-.4v-.08h0v-.08h0a.54.54,0,0,1,0,.18h0m.07-.42v-.09h0v.06m0-.45a2.05,2.05,0,0,0-.1-.48h0a.77.77,0,0,0,.07.16h0a.2.2,0,0,0-.06-.15c-.06-.07,0-.06.08,0a.11.11,0,0,1,0,.13.43.43,0,0,0,0,.16h0a.18.18,0,0,1-.06.17"/><path class="cls-1" d="M10.36,10.14a1.34,1.34,0,0,0,.07-.18h-.06a.22.22,0,0,1,.05-.08h0a.17.17,0,0,0,0-.1h0c.05,0,0-.16.05-.18s0-.09-.05-.11m0-.05h0V9.36h0a.09.09,0,0,1,0-.07.48.48,0,0,1-.05-.17.25.25,0,0,0-.08-.18V9c0-.08-.1-.16-.14-.24h0a.56.56,0,0,0-.09-.17h0L10,8.42c0-.05-.08-.1-.12-.1s-.09-.08-.13-.12h0A.43.43,0,0,1,9.6,8l-.12-.07h0a1.33,1.33,0,0,0-.19-.14h0L9.2,7.72h0a.15.15,0,0,0-.13,0H8.93s-.11,0-.13-.09H8.63c-.06,0-.15,0-.1-.08s0,0-.08,0h0c0,.06.12,0,.15,0h0a.31.31,0,0,1,.18.09H8.3s-.09-.06,0-.08,0,0-.1,0h0s-.09.11,0,.13a.09.09,0,0,1,.1,0,2.36,2.36,0,0,0-2,.66l-.08.11V8.35h0s-.1.1-.14.1L6,8.59H6a2.86,2.86,0,0,1-.22.47,1.52,1.52,0,0,0-.22.34h0v.19h0v.48c0,.14,0,0,.05,0s0,0,0,.06v.07s0,.21.12.16,0,.07,0,0a.37.37,0,0,1,0,.21.27.27,0,0,0,.08.19A.57.57,0,0,0,6,11c-.06,0,0,0,0,.06H6l.06.09H6a.13.13,0,0,1,0,.12H6v.1H6v.07H6a3,3,0,0,0,.58.49s.15.1.16,0h.08c.08,0,.06.09-.06,0h.29a2.56,2.56,0,0,0,2.51-1.2h.06a3.1,3.1,0,0,1-.92,1.53h.09A.74.74,0,0,0,9,12.13v-.07c0-.07,0,.08.11,0h0s0-.17.1-.17h0c.08,0,.11-.17.16-.13h0c.08-.12.05,0,.14-.15h0s0-.08.11-.08h0l.11-.12h0L10,11.2h0s.06,0,.07-.09.09,0,.15,0h0l.12-.18h0s0-.14.06-.08a1.32,1.32,0,0,1,.08-.33.49.49,0,0,0,0-.24v-.1ZM8.25,7.57h0m.8.09h0M9,7.79H9a.46.46,0,0,0,.16.07.16.16,0,0,1-.08-.06h.06A.2.2,0,0,1,9,7.74c-.06-.06,0-.06,0-.07s.09,0,.11.08a.25.25,0,0,0,.12.11h.06A.24.24,0,0,1,9.34,8a2.26,2.26,0,0,0-.42-.26m.68.49h0V8.3c0,.07,0,0-.07-.08m.25,3h0l-.07.07m.06-2.56V8.68h0V8.61h0l.14.1a.13.13,0,0,1-.07.06m.23.52a.29.29,0,0,0,0-.13V9.11h0a.25.25,0,0,1,0,.17m.1.79V10h.18"/><path class="cls-1" d="M15.09,2.5a.15.15,0,0,0,0-.16h0a.38.38,0,0,0,0-.15V2.06c0-.07,0-.15-.05-.16a.31.31,0,0,0,0-.19h0a.74.74,0,0,0,0-.21h0A1,1,0,0,0,15,1.25H14.9c-.06,0,.07,0,0-.12h0s-.16-.06-.17-.1h0c0-.08-.17-.11-.13-.16h0c-.11-.09,0-.06-.14-.14h0s-.08,0-.07-.1h0l-.06-.1h0L14.12.39h0a.06.06,0,0,0,0-.08h0A.06.06,0,0,0,14,.3a.11.11,0,0,0,0-.08h-.43A2.58,2.58,0,0,0,11,1.58h0A3.29,3.29,0,0,1,11.76.14h0L11.92,0h-.11a.36.36,0,0,0-.21.11h.05a1,1,0,0,1-.23.13h0a.76.76,0,0,0-.18.09h0l-.15.11c-.06,0-.1.08-.1.12s-.09.09-.13.12h0a.52.52,0,0,1-.11.1.26.26,0,0,1-.07.11h0V1h0l-.14.19h0l-.08.1h0a.58.58,0,0,0-.05.14V1.5c.05-.07,0,0,.05,0h0s0,.12-.09.14h0v.17c0,.06,0,.15-.07.1s0,0,0,.07a.31.31,0,0,1,.09-.18h0a.51.51,0,0,1,.09-.18c0,.06,0-.05.06,0h0a.34.34,0,0,1-.07.24h0V2s-.07.09-.09.06,0,0,0,.1V2.08h0s.11.09.13,0a.17.17,0,0,1,0-.1,2.39,2.39,0,0,0,.66,2l.11.09H11.2s.1.1.1.14l.14.06h0a2.86,2.86,0,0,1,.47.22,1.38,1.38,0,0,0,.49.14h.78s.21,0,.17-.12.06,0,0,0h.21l.2-.07A.44.44,0,0,0,14,4.31c0,.06,0,0,.06,0v.05l.09-.06h.17l.07-.06h0a2.24,2.24,0,0,0,.49-.57s.1-.16,0-.17h0V3.42c0-.08.09-.06,0,.06L15,3.4c.06,0,.09-.06.11-.14V3h0c.08-.13.05-.31.07-.33h0a.3.3,0,0,0,0-.26h0M11.41.29V.35h-.13a.76.76,0,0,1,.11-.14M11.12.6l-.07.06h.07m-.7.68h0m-.09.8h0m.27-.79h0a.49.49,0,0,0,0-.17.11.11,0,0,1-.06.07V1.19c0-.06,0,.1-.06.16s-.06,0-.07-.05a.2.2,0,0,1,.08-.12.2.2,0,0,0,.11-.11V1a.3.3,0,0,1,.16-.08,2.26,2.26,0,0,0-.26.42ZM13.89.41h0L14,.5h0"/><path class="cls-1" d="M15,16.88h0l-.18-.48a1.31,1.31,0,0,0-.24-.45h0v-.09h-.09a2.81,2.81,0,0,1-.34-.35c-.08-.12,0,0-.07,0s0,0,0-.06-.07-.06,0-.06-.18-.11-.2,0,0-.06,0-.06a.66.66,0,0,1-.17-.12l-.2-.09a.41.41,0,0,0-.22,0h0a.14.14,0,0,1-.11-.06h0c-.12,0-.06-.06-.1,0s.05,0,0,0H13a2.76,2.76,0,0,0-.76.07s-.17,0-.14.09h0s-.11,0,0-.07h-.4a.94.94,0,0,1-.22.12h0c-.14,0-.24.18-.28.18h0a.39.39,0,0,0-.23.15h0a.19.19,0,0,0-.14.09h0l-.11.11a.15.15,0,0,1-.07.12c-.07,0-.1.1-.08.14a.86.86,0,0,0-.13.14h0c-.07,0-.06.16-.09.22h0s-.13.2-.12.24h0s-.07,0-.07.09h0s.07.14.05.18h0v.21h0v.2h0v.13h0V18h0v.11a.13.13,0,0,0-.07.14h0v.22h0s.1.11,0,.1.11.19.17.29a.69.69,0,0,0,.16.18v.09h0c0,.1,0,.06.08.17,0-.05,0,0,.06,0s0,.06,0,.09h0l.08.07h0a.56.56,0,0,1,.09.17s.07.07.12,0h.29a.09.09,0,0,0,0-.07l.12.06h.11A2.58,2.58,0,0,0,14,18.39h.06a3,3,0,0,1-.46,1l.18-.09h0l.17-.11h.1l.06-.08c.06-.08,0,.06,0,.09s.06,0,.07,0,0-.15-.07-.13a.06.06,0,0,1-.06.06h0A2.33,2.33,0,0,0,15,17.28V17.1c0-.05.06.07.09,0h0v-.16a.17.17,0,0,0,0-.14h0m-4.76.89h0v-.1h0v.05h0m.59,1.15Z"/><path class="cls-1" d="M4.49,17.08h0c-.07-.16-.11-.32-.17-.49a1.26,1.26,0,0,0-.24-.44h0v-.09H4l-.34-.34c-.08-.11,0,0-.07,0s0,0,0-.06-.07-.07,0-.07-.18-.11-.2,0,0-.06,0,0l-.11-.08H2.91A2.55,2.55,0,0,0,.38,16.66h0a3.13,3.13,0,0,1,.92-1.54.17.17,0,0,0-.14,0,1,1,0,0,1-.23.12h0c-.14,0-.25.18-.28.19h0a.31.31,0,0,0-.23.14h0a.19.19,0,0,0-.14.09h0l-.11.11a.12.12,0,0,1-.07.11C0,15.93,0,16,0,16a.86.86,0,0,0-.13.14h0c-.07,0-.06.16-.09.21h0s-.13.2-.12.23,0,0,0,.06-.07,0-.07.09h0A1.43,1.43,0,0,1-.32,17h0v.2H-.4v.21h0v.12h0V18h0v.11a.13.13,0,0,0-.07.14h0v.05h0a.74.74,0,0,0,0,.21h0s.1.11,0,.1.11.19.17.28a.74.74,0,0,0,.16.19.14.14,0,0,0,0,.09H0a1.42,1.42,0,0,0,.08.18H.14v.09h0a.18.18,0,0,0,.08.07h0a.56.56,0,0,1,.09.17s.07.06.12,0h0l.07.05h0a.06.06,0,0,1,.06,0,.51.51,0,0,1,.16.09.24.24,0,0,0,.18.07h0s.2,0,.26.07h0l.19.06h.18a.22.22,0,0,0,.16,0h.54a.89.89,0,0,0,.23,0h.25V20H3a.28.28,0,0,0,.11-.13c0,.09.13-.08.12,0s0,0,0-.07-.13.06-.19.08H3c-.06,0-.1.07-.14.08h.06a.33.33,0,0,1-.19.06h0A1,1,0,0,0,3,19.79H3l.17-.11h.1l.06-.08c.06-.08,0,.07,0,.09s.06,0,.07,0,0-.14-.07-.12a.09.09,0,0,1-.08.06,2.32,2.32,0,0,0,.91-1.85v-.14c0-.05.06.06.09,0h0v-.17a.29.29,0,0,0,0-.13h0M-.28,18h0v-.1h0m.59,1.15h0m.74.54h0A.24.24,0,0,1,1,19.41l.12.07.06.12H1.12m.48.2H1.42v-.08H1.6m.33,0H2m.75,0a.22.22,0,0,0-.16,0h0a.27.27,0,0,1-.17-.06,2.77,2.77,0,0,0,.48-.11h0a.24.24,0,0,0-.16.07.14.14,0,0,1,.09,0h0A.49.49,0,0,1,3,19.56c.08,0,0,0,0,.08a.15.15,0,0,1-.13,0Z"/><path class="cls-2" d="M135.17,12.83V6.67a1.54,1.54,0,0,0-.25-.89,1.18,1.18,0,0,0-.8-.31.09.09,0,0,1-.1-.08h0c0-.06,0-.09.1-.09h3.34a4.47,4.47,0,0,1,1.54.28,2.23,2.23,0,0,1,.89.63,2,2,0,0,1,.4.8,3.07,3.07,0,0,1,.1.74A2.63,2.63,0,0,1,140,9.24a3.29,3.29,0,0,1-1.25,1.06c.11.18.3.45.55.81s.55.76.88,1.18.66.81.92,1.08a5.86,5.86,0,0,0,.77.72,1.35,1.35,0,0,0,.57.26l.51.09a.08.08,0,0,1,.09.07h0c0,.05,0,.08-.09.08h-1.1a.86.86,0,0,1-.32,0,2.42,2.42,0,0,1-.7-.19,2.31,2.31,0,0,1-.58-.4,4,4,0,0,1-.62-.68c-.22-.28-.48-.63-.78-1.06s-.44-.63-.61-.9-.35-.53-.5-.78a6.52,6.52,0,0,1-1.53,0v2.28a5.69,5.69,0,0,0,.06.83,1.25,1.25,0,0,0,.16.47.5.5,0,0,0,.31.22,2.27,2.27,0,0,0,.52.09.1.1,0,0,1,.11.09h0s0,.08-.11.08h-3.1c-.07,0-.1,0-.09-.08s0-.09.09-.09a2,2,0,0,0,.48-.09.4.4,0,0,0,.29-.2.91.91,0,0,0,.16-.45A6.84,6.84,0,0,0,135.17,12.83Zm4.21-4.73a2.83,2.83,0,0,0-.48-1.67,2,2,0,0,0-1.53-.74h-1.15v4.38a4.81,4.81,0,0,0,.84.1,5.57,5.57,0,0,0,1,0,1.21,1.21,0,0,0,.61-.21,1.75,1.75,0,0,0,.43-.47,2.41,2.41,0,0,0,.24-.63A3.23,3.23,0,0,0,139.38,8.1Z"/><path class="cls-2" d="M146.89,10v3.15a2.33,2.33,0,0,0,.06.53.5.5,0,0,0,.16.28.5.5,0,0,0,.29.12h1.74a2,2,0,0,0,.76-.16,1.37,1.37,0,0,0,.48-.38,1.59,1.59,0,0,0,.26-.54c.06-.21.11-.43.16-.67a.1.1,0,0,1,.1-.08c.06,0,.08,0,.08.08v1.48a.73.73,0,0,1,0,.36.45.45,0,0,1-.25.35,1.69,1.69,0,0,1-.63.09h-5.26c-.06,0-.09,0-.08-.08s0-.09.08-.09a2,2,0,0,0,.49-.09.51.51,0,0,0,.29-.21,1.1,1.1,0,0,0,.15-.44,4.9,4.9,0,0,0,.06-.77V6.34a1,1,0,0,0-.12-.48.51.51,0,0,0-.3-.26,2.15,2.15,0,0,0-.57-.13.09.09,0,0,1-.09-.08.08.08,0,0,1,.07-.09h4.91a1.4,1.4,0,0,1,.5.06c.12,0,.17.14.15.32a3.71,3.71,0,0,1-.07.67,6.31,6.31,0,0,0-.1.76c0,.06,0,.08-.1.08s-.09,0-.08-.08a1.92,1.92,0,0,0-.23-.91,1,1,0,0,0-.8-.39h-2v3.7h2.89l.07,0h0v.08a.71.71,0,0,1,0,.29,1.44,1.44,0,0,1-.07.53,1.61,1.61,0,0,0-.08.38.1.1,0,0,1-.1.08s-.07,0-.08-.06h0a.65.65,0,0,0-.07-.34.37.37,0,0,0-.19-.18.84.84,0,0,0-.31-.08h-2.18Z"/><path class="cls-2" d="M154.53,13.7a5.61,5.61,0,0,1,0-.82,5.26,5.26,0,0,1,.12-.78.1.1,0,0,1,.1-.08.07.07,0,0,1,.07.07h0a2.93,2.93,0,0,0,.58,1.73,1.87,1.87,0,0,0,1.5.63,2,2,0,0,0,1.5-.5,1.69,1.69,0,0,0,.52-1.25,2,2,0,0,0-.14-.8,2,2,0,0,0-.42-.63,3.54,3.54,0,0,0-.68-.53c-.27-.16-.58-.33-.92-.51a5.3,5.3,0,0,1-.76-.46,3,3,0,0,1-.64-.6,2.62,2.62,0,0,1-.44-.78,2.44,2.44,0,0,1-.15-1,2.17,2.17,0,0,1,.74-1.67,2.8,2.8,0,0,1,1.94-.64,5.52,5.52,0,0,1,.81.06,3.53,3.53,0,0,1,.56.14.92.92,0,0,1,.42.28.87.87,0,0,1,.11.57,2.24,2.24,0,0,1-.06.52,3.81,3.81,0,0,0-.08.59c0,.16,0,.08-.09.07s-.07,0-.07-.07a2.6,2.6,0,0,0-.15-.67,1.75,1.75,0,0,0-.35-.57,1.52,1.52,0,0,0-.54-.4,1.6,1.6,0,0,0-.75-.15,1.79,1.79,0,0,0-1.26.4,1.49,1.49,0,0,0-.47,1.21A1.79,1.79,0,0,0,156,8.35a4.08,4.08,0,0,0,1.17.85,10.91,10.91,0,0,1,1.19.7,3.9,3.9,0,0,1,.82.7,2.22,2.22,0,0,1,.45.79,2.81,2.81,0,0,1,.12,1,2.34,2.34,0,0,1-.87,1.77,2.77,2.77,0,0,1-.93.49,3.57,3.57,0,0,1-1.17.17,4.19,4.19,0,0,1-1-.09,5.68,5.68,0,0,1-.7-.22,1.23,1.23,0,0,1-.42-.33A.91.91,0,0,1,154.53,13.7Z"/><path class="cls-2" d="M165.34,10.21v2.71a4.9,4.9,0,0,0,.06.77,1.1,1.1,0,0,0,.15.44.49.49,0,0,0,.31.21,2.35,2.35,0,0,0,.53.09.08.08,0,0,1,.09.07h0c0,.05,0,.08-.09.08h-3.13c-.06,0-.09,0-.08-.08s0-.09.08-.09l.45-.09a.5.5,0,0,0,.29-.2,1,1,0,0,0,.16-.44,5.12,5.12,0,0,0,.06-.78V7.11a5.26,5.26,0,0,0-.08-.89,1.07,1.07,0,0,0-.14-.47.46.46,0,0,0-.28-.21,3.21,3.21,0,0,0-.43-.07.09.09,0,0,1-.09-.08.08.08,0,0,1,.07-.09h2.95c.06,0,.09,0,.09.08a.11.11,0,0,1-.09.09,1.86,1.86,0,0,0-.39.1.43.43,0,0,0-.26.2,1.59,1.59,0,0,0-.14.47,6.36,6.36,0,0,0-.06.87v3.1Z"/><path class="cls-2" d="M179.14,9.94a4.89,4.89,0,0,1-.36,1.89,4.34,4.34,0,0,1-1,1.5,4.65,4.65,0,0,1-1.59,1,5.75,5.75,0,0,1-2.09.36,12.24,12.24,0,0,1-1.6-.07,7.36,7.36,0,0,0-1.1-.07h-1.73c-.06,0-.09,0-.08-.08s0-.07.08-.09a2.29,2.29,0,0,0,.69-.14.72.72,0,0,0,.28-.24,1.45,1.45,0,0,0,.14-.58,8.34,8.34,0,0,1,0-1V6.91a4.06,4.06,0,0,0-.08-.69,1,1,0,0,0-.18-.41.78.78,0,0,0-.33-.24,2.11,2.11,0,0,0-.5-.1s-.07,0-.08-.06h0c0-.06,0-.09.08-.09h4.19a5.62,5.62,0,0,1,3.88,1.22A4.37,4.37,0,0,1,179.14,9.94ZM178,10a5,5,0,0,0-.3-1.79,3.65,3.65,0,0,0-2.12-2.11A4.78,4.78,0,0,0,174,5.74a9.55,9.55,0,0,0-1.31,0H172v7.83a.92.92,0,0,0,0,.33c0,.06.11.12.25.17a3.12,3.12,0,0,0,.73.18,6.29,6.29,0,0,0,1.06.07A3.87,3.87,0,0,0,175.7,14a3.39,3.39,0,0,0,1.21-.91,3.92,3.92,0,0,0,.72-1.35A5.76,5.76,0,0,0,178,10Z"/><path class="cls-2" d="M184.41,10v3.15a2.33,2.33,0,0,0,.06.53.56.56,0,0,0,.17.32.79.79,0,0,0,.3.12,3.84,3.84,0,0,0,.48,0h1.22a2,2,0,0,0,.77-.16,1.37,1.37,0,0,0,.48-.38,1.91,1.91,0,0,0,.26-.56c.06-.21.12-.43.17-.67a.09.09,0,0,1,.1-.08h0a.08.08,0,0,1,.08.08v1.47a2.16,2.16,0,0,1,0,.36.47.47,0,0,1-.24.35,1.74,1.74,0,0,1-.64.09h-5.2c-.06,0-.09,0-.09-.08s0-.09.09-.09a2,2,0,0,0,.48-.09.45.45,0,0,0,.29-.21,1,1,0,0,0,.15-.44,4.9,4.9,0,0,0,.06-.77V6.34a1.31,1.31,0,0,0-.12-.48.59.59,0,0,0-.3-.26,2.32,2.32,0,0,0-.58-.13.09.09,0,0,1-.09-.08.08.08,0,0,1,.07-.09h4.92a1.4,1.4,0,0,1,.5.06c.11,0,.16.14.14.32a3.71,3.71,0,0,1-.07.67c-.07.25,0,.51-.09.76,0,.06,0,.08-.11.08s-.08,0-.07-.08a1.82,1.82,0,0,0-.24-.91.93.93,0,0,0-.78-.39h-2.12v3.7h2.89l.06,0h.07v.37a3.08,3.08,0,0,1-.08.53.59.59,0,0,1-.07.38.12.12,0,0,1-.11.08.07.07,0,0,1-.07-.08.8.8,0,0,0-.07-.34.47.47,0,0,0-.19-.18.89.89,0,0,0-.32-.08h-2.1Z"/><path class="cls-2" d="M200.9,6.65l-.06,1.73v6.34a.06.06,0,0,1,0,.06.08.08,0,0,1-.11,0,2.39,2.39,0,0,1-.22-.23l-.74-.83-.83-.91-1-1-1.3-1.33c-.72-.72-1.35-1.37-1.91-1.94s-1-1-1.31-1.29v4.44a13.25,13.25,0,0,0,.07,1.67,1.19,1.19,0,0,0,.27.72,1.4,1.4,0,0,0,.93.35.09.09,0,0,1,.09.09c0,.09,0,.08-.09.08h-2.77c-.06,0-.09,0-.09-.08s0-.09.09-.09a1,1,0,0,0,.57-.25,1.25,1.25,0,0,0,.22-.75c0-.42.06-.87.07-1.35s0-1,0-1.45a10.29,10.29,0,0,0,0-1.36V5.2H193l.23.21c.53.59,1.12,1.25,1.77,1.91s1.3,1.35,2,2.1l1.79,1.8c.53.54,1,1,1.41,1.37V9.85c0-.95,0-2-.07-3a4.93,4.93,0,0,0-.07-.66,1,1,0,0,0-.15-.4.9.9,0,0,0-.3-.21,2.78,2.78,0,0,0-.5-.11.09.09,0,0,1-.09-.08.08.08,0,0,1,.07-.09h2.5c.06,0,.09,0,.08.09s0,.07-.06.08h0a.69.69,0,0,0-.57.37A1.87,1.87,0,0,0,200.9,6.65Z"/><path class="cls-2" d="M210.14,5.09a10.35,10.35,0,0,1,1.36.09,5.51,5.51,0,0,1,1.26.3,1.07,1.07,0,0,1,.45.31.93.93,0,0,1,.15.56v.74a3.37,3.37,0,0,1-.07.82c0,.06,0,.09-.1.08s-.09,0-.09-.08a2.85,2.85,0,0,0-.32-1.11,2.66,2.66,0,0,0-.66-.76,2.79,2.79,0,0,0-.91-.42,4.46,4.46,0,0,0-1.09-.14,4.89,4.89,0,0,0-1.65.28,3,3,0,0,0-1.25.83A3.52,3.52,0,0,0,206.4,8a5.72,5.72,0,0,0-.24,1.93,6,6,0,0,0,.37,2.05,3.89,3.89,0,0,0,.92,1.38,3.66,3.66,0,0,0,1.32.8,4.85,4.85,0,0,0,1.56.25,4.31,4.31,0,0,0,1.24-.16A2.38,2.38,0,0,0,213,13a3.88,3.88,0,0,0,.26-1c0-.06,0-.09.1-.1s.09,0,.09.1v1a3.45,3.45,0,0,1,0,.64,1.2,1.2,0,0,1-.15.37.66.66,0,0,1-.23.21l-.32.16a5.16,5.16,0,0,1-.85.25,7.83,7.83,0,0,1-1.53.12,7,7,0,0,1-2.22-.33,5,5,0,0,1-1.68-1,4,4,0,0,1-1.06-1.5,4.87,4.87,0,0,1-.37-2,6,6,0,0,1,.37-2A4.28,4.28,0,0,1,208,5.43,6.23,6.23,0,0,1,210.14,5.09Z"/><path class="cls-2" d="M218.79,10v3.15a2.33,2.33,0,0,0,.06.53A.48.48,0,0,0,219,14a.81.81,0,0,0,.29.12H221a2,2,0,0,0,.76-.16,1.37,1.37,0,0,0,.48-.38,1.93,1.93,0,0,0,.27-.56c.06-.21.12-.43.17-.67a.09.09,0,0,1,.08-.08h0c.06,0,.08,0,.08.08v1.48a2.16,2.16,0,0,1,0,.36.45.45,0,0,1-.25.35,1.69,1.69,0,0,1-.63.09h-5.2c-.06,0-.09,0-.08-.08s0-.09.08-.09a2,2,0,0,0,.49-.09.51.51,0,0,0,.29-.21,1.1,1.1,0,0,0,.15-.44,4.9,4.9,0,0,0,.06-.77V6.34a1,1,0,0,0-.12-.48.51.51,0,0,0-.3-.26,2.15,2.15,0,0,0-.57-.13.09.09,0,0,1-.09-.08.08.08,0,0,1,.07-.09h4.85a1.4,1.4,0,0,1,.5.06c.12,0,.17.14.15.32a3.71,3.71,0,0,1-.07.67,6.31,6.31,0,0,0-.1.76c0,.06,0,.08-.1.08s-.09,0-.08-.08a1.86,1.86,0,0,0-.3-.91,1,1,0,0,0-.79-.39h-2.06v3.7h2.89l.07,0h.07v.08a.71.71,0,0,1,0,.29,1.44,1.44,0,0,1-.07.53,1.61,1.61,0,0,0-.08.38.1.1,0,0,1-.1.08s-.07,0-.08-.06h0a.66.66,0,0,0-.06-.34.49.49,0,0,0-.2-.18.84.84,0,0,0-.31-.08h-2.11Z"/><path class="cls-2" d="M226.43,13.7a5.61,5.61,0,0,1,0-.82,5.26,5.26,0,0,1,.12-.78.11.11,0,0,1,.09-.1.07.07,0,0,1,.07.07h0a2.93,2.93,0,0,0,.58,1.73,1.87,1.87,0,0,0,1.5.63,2,2,0,0,0,1.49-.5,1.65,1.65,0,0,0,.53-1.25,2,2,0,0,0-.14-.8,2,2,0,0,0-.42-.63,3.54,3.54,0,0,0-.68-.53c-.27-.16-.58-.33-.92-.51a5.46,5.46,0,0,1-.77-.47,3,3,0,0,1-.64-.6,2.62,2.62,0,0,1-.44-.78,2.44,2.44,0,0,1-.15-1,2.17,2.17,0,0,1,.74-1.67,2.8,2.8,0,0,1,1.94-.64,5.52,5.52,0,0,1,.81.06,3.53,3.53,0,0,1,.56.14.92.92,0,0,1,.42.28.87.87,0,0,1,.11.57,2.24,2.24,0,0,1-.06.52,3.81,3.81,0,0,0-.08.59c0,.16,0,.08-.09.07s-.07,0-.07-.07a2.6,2.6,0,0,0-.15-.67,1.7,1.7,0,0,0-.34-.58,1.52,1.52,0,0,0-.54-.4,1.6,1.6,0,0,0-.75-.15,1.81,1.81,0,0,0-1.22.41A1.5,1.5,0,0,0,227.46,7a1.79,1.79,0,0,0,.47,1.29,4.08,4.08,0,0,0,1.17.85,10.91,10.91,0,0,1,1.19.7,3.9,3.9,0,0,1,.82.7,2.22,2.22,0,0,1,.45.79,2.81,2.81,0,0,1,.12,1,2.46,2.46,0,0,1-.25,1,2.57,2.57,0,0,1-.62.77,2.77,2.77,0,0,1-.93.49,3.57,3.57,0,0,1-1.17.17,4.19,4.19,0,0,1-1-.09,5.68,5.68,0,0,1-.7-.22,1.23,1.23,0,0,1-.42-.33A1.08,1.08,0,0,1,226.43,13.7Z"/><path class="cls-3" d="M41.36,14.1a13.51,13.51,0,0,0,2.29-.1c1-.14,1.36-.65,1.57-1.94,0-.09.18-.1.18,0a11.14,11.14,0,0,1-.12,2c-.17.55-.6.61-1.5.58H37.57v-.15c.49-.68,1.35-1.93,3-4.29,2-2.81,2.52-3.56,3-4.21A35.23,35.23,0,0,0,40,6c-1.14.07-1.53.61-1.68,1.69,0,.09-.18.11-.18,0a12,12,0,0,1,0-1.47c0-.46.15-.69.58-.74s1.27,0,2.62,0H45c.17,0,.33,0,.09.26-.69.79-1.76,2.2-3.35,4.45-.89,1.26-2,3-2.51,3.71-.16.25-.14.27.12.27h2"/><path class="cls-3" d="M50.11,13c0,1.27.16,1.43,1,1.5a.1.1,0,0,1,.12.06.08.08,0,0,1,0,.1h-.12c-.53,0-1.14-.05-1.57-.05s-1,0-1.53.05c-.11,0-.1-.17,0-.17.73-.1.92-.19,1-1.5V7.21c0-1.54-.28-1.54-1-1.63-.1,0-.13-.16,0-.16h2.88c.12,0,.11.14,0,.16-.64.12-.81.13-.84,1.63V13"/><path class="cls-3" d="M60.11,12.35c0-.11.18-.14.18,0a15.65,15.65,0,0,1-.07,1.81c-.06.32-.31.44-.88.44s-1.7-.06-3.59-.06c-.38,0-1.12,0-1.61.05-.15,0-.11-.17,0-.17.78-.09.89-.28.92-1.5V7.08c0-1.21-.12-1.42-.92-1.54a.08.08,0,1,1,0-.16H57c.15,0,.12.15,0,.16-.65.09-.81.28-.83,1.48v6.07c0,.93,0,1,.94,1h1.33c1.25-.05,1.51-.82,1.69-1.75"/><path class="cls-3" d="M69.11,5.75v7.07c0,1.38.31,1.5,1.24,1.6a.08.08,0,0,1,.06.09v0h0a0,0,0,0,1,0,.05h0c-.58,0-1.19-.05-1.67-.05a11.65,11.65,0,0,0-1.32.05c-.13,0-.1-.17,0-.17.51-.06.66-.1.69-1.45V7.26c0-1.43-.17-1.61-1.07-1.71a.08.08,0,0,1,0-.16h1.36a15.38,15.38,0,0,1,1.92,0c2.23.09,3,1.3,3,2.45a2.76,2.76,0,0,1-2.65,2.85h-.35a2.44,2.44,0,0,1-.93-.18c-.11,0-.08-.2,0-.17h.45a2.16,2.16,0,0,0,2.46-1.81h0a2.44,2.44,0,0,0,0-.54,2,2,0,0,0-1.88-2.12H70.2a10.46,10.46,0,0,0-1.12,0"/><path class="cls-3" d="M78.75,7.16c-.18.43-.43,1-.69,1.66l-.66,1.73H80c-.39-1.12-.79-2.21-1.26-3.39m.16-1.69c.09-.23.12-.26.18-.26s.09,0,.16.26c.42,1.23,1.82,5.05,3,7.87.34.84.6,1,1.28,1.08.1,0,.12.17,0,.17-.56,0-1-.05-1.6-.05a11.39,11.39,0,0,0-1.31.05c-.12,0-.1-.17,0-.17.56-.06.67-.22.46-.89s-.55-1.66-.87-2.53H77.3c-.22.59-.65,1.7-.87,2.49s.14.87.63.93a.1.1,0,0,1,.12.06.08.08,0,0,1,0,.1H77.1c-.47,0-1-.05-1.33-.05s-.86,0-1.37.05c-.12,0-.09-.17,0-.17a1.34,1.34,0,0,0,1.19-.83c.43-.78.93-2.06,1.42-3.26Z"/><path class="cls-3" d="M85.65,12.11c0-.11.17-.09.17,0,.07,1.44.78,2.34,2.06,2.34a1.77,1.77,0,0,0,2-1.51h0v-.21c0-1.23-.79-1.75-2.14-2.45a3,3,0,0,1-2-2.82,2.34,2.34,0,0,1,2.37-2.3h.25a4.8,4.8,0,0,1,1.36.19.7.7,0,0,1,.53.83h0c0,.21-.1.78-.13,1.09,0,.12-.16.08-.16,0A1.77,1.77,0,0,0,88.19,5.5h0a1.49,1.49,0,0,0-1.62,1.36,1,1,0,0,0,0,.24A2.43,2.43,0,0,0,88.2,9.22c1.84.93,2.59,1.72,2.55,3.13a2.69,2.69,0,0,1-2.91,2.43h0a4,4,0,0,1-1.67-.31,1,1,0,0,1-.61-.8,5.67,5.67,0,0,1,.13-1.59"/><path class="cls-3" d="M103.11,5.79a1.58,1.58,0,0,0-.52-.09A3.65,3.65,0,0,0,100,7.53,8.93,8.93,0,0,0,98.18,12v1c0,1.34.22,1.25,1,1.35a.1.1,0,0,1,.12.06.08.08,0,0,1,0,.1H96.11c-.11,0-.1-.17,0-.17.64-.1.93-.13.93-1.35V12a8.53,8.53,0,0,0-1.36-4c-1.08-1.61-1.94-2.25-2.94-2.29a2.22,2.22,0,0,0-.73.1c-.09,0-.13-.07,0-.13a2.11,2.11,0,0,1,1.47-.46,4,4,0,0,1,3.18,2.24,11.11,11.11,0,0,1,1.28,3.18,8.49,8.49,0,0,1,1.42-3.51c1.09-1.54,2.11-1.88,2.89-1.88a1,1,0,0,1,.89.35c.06.09,0,.15-.07.12"/><path class="cls-3" d="M105.4,10c0,2.61,1.46,4.45,3.8,4.45s3.66-1.65,3.66-3.95-1.28-5-4.11-4.9c-2.28.06-3.38,1.82-3.38,4.36m3.74,4.83c-2.83,0-4.8-1.54-4.92-4.59a4.81,4.81,0,0,1,4.61-5h.52A4.52,4.52,0,0,1,114,9.54h0a1.41,1.41,0,0,1,0,.29,4.82,4.82,0,0,1-4.63,5h-.27"/><path class="cls-3" d="M125.58,14.42c0,.27,0,.31,0,.33s-.12,0-.32-.25c-1-1.08-1.94-2.17-3.75-4-1.43-1.44-2.57-2.63-3.19-3.2,0,1.14,0,4,.13,6.05,0,.59.28,1,1.19,1.06.1,0,.13.17,0,.17L118,14.53a9.16,9.16,0,0,0-1.17.05.08.08,0,0,1-.11,0h0a.09.09,0,0,1,.05-.12h.06c.53-.1.72-.23.78-1,.12-1.65.15-4,.15-5.22V5.55c0-.22,0-.28.06-.3s.11,0,.31.24c1.1,1.22,2.3,2.49,3.78,4,1.3,1.28,2.38,2.4,3.18,3.14,0-1.75,0-3.66-.07-5.72-.06-1.09-.18-1.25-1-1.37a.08.08,0,0,1,0-.16h2.46c.12,0,.09.16,0,.16-.57.09-.71.49-.74,1.17-.09,2.29-.15,4.46-.15,7.71"/></svg>