<svg id="Layer_1" data-name="Layer 1" xmlns="http://www.w3.org/2000/svg" viewBox="0 0 354 20"><defs><style>.cls-1{fill:#673065;}.cls-2{fill:#666;}</style></defs><title>Artboard 1</title><path class="cls-1" d="M26.1,17.8v-.5h0v-.1s0-.2-.1-.2,0-.1,0,0v-.4a.35.35,0,0,0-.1-.2v-.1h0v-.1h0v-.1h0V16h0v-.1h0a2.65,2.65,0,0,0-.6-.5s-.2-.1-.2,0H25c-.1,0-.1-.1,0,0h-.3a2.62,2.62,0,0,0-2.8,1.2h0a2.9,2.9,0,0,1,.9-1.5l-.1.1h0s-.2,0-.2.1v.1c0,.1,0-.1-.1,0h0a.31.31,0,0,1-.1.2h0c-.1,0-.1.2-.2.1h0c-.1.1-.1,0-.1.1h0a.1.1,0,0,1-.1.1h0l-.1.1h0a.35.35,0,0,0-.1.2h0a.1.1,0,0,0-.1.1c0,.1-.1,0-.1,0h0a.35.35,0,0,0-.1.2h0a.1.1,0,0,1-.1.1c0,.1-.1.2-.1.3v.3h0c0,.1-.1.1-.1.2h.1v.1h0v.1h0c-.1,0,0,.1-.1.2s0,.1.1.1h0V18h0v.3c0,.1,0,.1.1.2h0l.1.2h0c0,.1.1.1.1.2h0l.1.2.1.1.1.1h0l.1.1.1.1h.1l.2.1h0l.1.1h.2a.1.1,0,0,1,.1.1h.2c.1,0,.1,0,.1.1s0,0,.1,0c-.1,0-.1,0-.2-.1H23c-.1,0-.1,0-.2-.1h0l.2.1h.2l.1.1h.1s.1-.1,0-.1h-.1a2.2,2.2,0,0,0,2-.7l.1-.1v.1h0l.1-.1.1-.1h0c.1-.2.1-.3.2-.5a.9.9,0,0,0,.1-.5h0v-.2h0M21,17.1h0m.1,1h0V18c.1.1.1.1,0,.1m.3-2.3h0m.1,2.7a.1.1,0,0,1-.1-.1l.1-.1c-.1.1-.1.1,0,.2h0m.2.2h0m.7.6h0m0-.1h0l.1.1c-.1,0-.1,0-.1-.1a.1.1,0,0,1-.1-.1h-.1a.35.35,0,0,1-.1-.2c.1.1.3.2.4.3h-.1m.8.3h0m2.4-3.7h0"/><path class="cls-1" d="M20.3,10.2V10h0V9.8h0V9.6h0V9.4c0-.1,0-.1-.1-.1V9.2h-.1V9h0a.49.49,0,0,0-.1-.3c-.1-.1-.1-.1,0-.1h-.1c.1.1.1.1.1.2h0l.1.1V8.8h0v.1h0L20,8.7h0c0-.1-.1-.1-.1-.2h0l-.1-.1c-.1-.1.1,0,.1,0V8.3c-.1,0-.1,0-.1.1a.1.1,0,0,1,.1.1,2,2,0,0,0-.9-.7h-.1a2.5,2.5,0,0,0-2.5,1.4h-.1a3.77,3.77,0,0,1,.9-1.5h0c-.2,0-.3.1-.5.2h-.1l-.3.1h0a1.87,1.87,0,0,1-.4.3c-.2.1,0,0,0,.1s0,0-.1,0-.1.1-.1,0-.1.2,0,.2h0c.1,0-.1.1-.1.2s-.1.1-.1.2,0,.2-.1.2h0v.1h0v.1c0,.1,0,.1-.1.1h0s.1-.1.1,0l-.1.1h0v.1h0a2.2,2.2,0,0,0,.1.8s0,.2.1.1h0c0-.1,0,0,.1.1s0,.1-.1,0V11c0,.1.1.1.1.2h0c0,.1.2.2.2.3h0a.35.35,0,0,0,.1.2h0c0,.1,0,.1.1.1h0l.1.1a.1.1,0,0,1,.1.1.1.1,0,0,0,.1.1l.1.1h0c0,.1.1.1.2.1h0l.2.1h0a.1.1,0,0,0,.1.1h0a.35.35,0,0,1,.2-.1h.8c0,.1,0,.1.1.1h.2s.1-.1.1,0,.2-.1.3-.2.1-.1.2-.1a.1.1,0,0,0,.1-.1h0c.1,0,.1,0,.2-.1v-.1h.1a.1.1,0,0,0,.1-.1h0a.35.35,0,0,1,.2-.1c.1,0,.1-.1,0-.1h0v-.1h0v-.1c0-.1,0-.1.1-.2a.35.35,0,0,0,.1-.2h0a.49.49,0,0,1,.1-.3h0c0-.1.1-.1.1-.2h0v-.3m-4.5-.6h0m2.8,2.9h0m1.1-.5h0m.2-3.2h0m.5.6h0M19.9,11h0l-.1.1a.1.1,0,0,1,.1-.1h0m.1-.4h0v-.2h0v.2h0m.1-.4h0m0-.5c0-.2-.1-.3-.1-.5h0c0,.1,0,.1.1.2v0c0-.1,0-.1-.1-.1s0-.1.1,0v.4c0-.1-.1-.1,0,0"/><path class="cls-1" d="M10.8,10.1c0-.1.1-.1.1-.2h-.1a.1.1,0,0,1,.1-.1h0V9.7h0c.1,0,0-.2.1-.2s0-.1-.1-.1V9.3h0V9.2h0V9.1c0-.1,0-.1-.1-.2s0-.1-.1-.2v.1c0,.1-.1-.2-.1-.2h0c0-.1-.1-.1-.1-.2h0l-.1-.2a.1.1,0,0,0-.1-.1L10.2,8h0c-.1.1-.2.1-.2,0l-.1-.1h0c-.1,0-.1-.1-.2-.1h0l-.1-.1H9.3a.1.1,0,0,1-.1-.1H9c-.1,0-.1,0-.1-.1s0,0-.1,0h.1c0,.1.1,0,.1,0H9c.1,0,.1,0,.2.1H8.7s-.1-.1,0-.1H8.6s-.1.1,0,.1h.1a2.88,2.88,0,0,0-2,.7l-.1.1V8.3h0l-.1.1a.1.1,0,0,1-.1.1h0a1.07,1.07,0,0,1-.2.6c-.1.1-.1.2-.2.3H6v.2H6v.5c0,.2,0,0,.1,0s0,0,0,.1v.1l.1.2h0v.2a.31.31,0,0,0,.1.2c0,.1.1.1.1.2s0,0,0,.1h0l.1.1h0v.1h0v.1h0v.1h0a2.65,2.65,0,0,0,.6.5s.2.1.2,0h.1c.1,0,.1.1-.1,0h.3a2.5,2.5,0,0,0,2.5-1.2h.1a3.77,3.77,0,0,1-.9,1.5l.1-.1h0l.2-.1v-.1c0-.1,0,.1.1,0h0l.1-.2h0c.1,0,.1-.2.2-.1h0c.1-.1.1,0,.1-.1h0a.1.1,0,0,1,.1-.1h0l.1-.1h0a.35.35,0,0,0,.1-.2h0a.1.1,0,0,0,.1-.1c0-.1.1,0,.1,0h0a.35.35,0,0,0,.1-.2h0a.1.1,0,0,1,.1-.1.37.37,0,0,1,.1-.3v-.2a.37.37,0,0,1-.1-.3Zm-4.6,1ZM8.6,7.6h0m.8.1h0m0,.1h0a.35.35,0,0,0,.2.1c-.1-.1-.1-.1-.2-.1h0c-.1-.1,0-.1,0-.1a.1.1,0,0,1,.1.1l.1.1h.1a.35.35,0,0,1,.1.2c-.2-.2-.3-.3-.4-.3m.6.4h0m.2,3h0m0-2.4h0l-.1-.1h0c0-.1.2,0,.1.1h0m.2.5V9.2h0v.1m.1.8h0l.2-.1"/><path class="cls-1" d="M15.5,2.5V2.3h0V2a.31.31,0,0,0-.1-.2V1.6h0c0-.1-.1-.1-.1-.2h0l-.1-.2h-.1c-.1,0,.1,0,0-.1h0L15,1h0c0-.1-.2-.1-.1-.2h0c-.1-.1,0-.1-.1-.1h0a.1.1,0,0,1-.1-.1h0L14.6.5h0a.35.35,0,0,0-.2-.1h0a.1.1,0,0,0-.1-.1V.2H14a2.64,2.64,0,0,0-2.6,1.3h-.1A2.85,2.85,0,0,1,12.1.1h0l.2-.1h-.1c-.1,0-.2,0-.2.1h.1c.1,0-.2.1-.2.1h0c-.1,0-.1.1-.2.1h0l-.1.1a.1.1,0,0,0-.1.1l-.1.1h0l-.1.1a.1.1,0,0,1-.1.1h0V.9h0c-.2.1-.2.2-.3.3h0l-.1.1h0a.1.1,0,0,1-.1.1v.1c.1-.1,0,0,.1,0h0a.1.1,0,0,1-.1.1h0v.2c0,.1,0,.1-.1.1s0,0,0,.1c0-.1,0-.1.1-.2v0h0c0-.1,0-.1.1-.2,0,.1.1,0,.1,0h0a.35.35,0,0,1-.1.2h0V2l-.1.1v0h0s.1.1.1,0V2a2.2,2.2,0,0,0,.7,2l.1.1h-.1l.1.1.1.1h0c.2.1.3.1.5.2a.9.9,0,0,0,.5.1h1s.2,0,.2-.1.1,0,0,0h.2l.2-.1c.1,0,.1-.1.2-.1s0,0,.1,0v.1l.1-.1h.1l.1-.1h0a2.65,2.65,0,0,0,.5-.6s.1-.2,0-.2h0V3.3c0-.1.1-.1,0,.1l.1-.1a.1.1,0,0,0,.1-.1c0-.1,0-.2.1-.2h0a.49.49,0,0,0,.1-.3h0c-.2-.1-.2-.2-.3-.2h0M11.8.3h0l-.1.1h0c0-.1,0-.2.1-.1m-.3.3h0m-.7.7h0m-.1.8h0m.3-.7h0V1.2a.1.1,0,0,1-.1.1V1.2c0-.1,0,.1-.1.2s-.1,0-.1,0a.1.1,0,0,1,.1-.1l.1-.1V1.1a.35.35,0,0,1,.2-.1c-.1.1-.2.3-.3.4m3.5,3.1Zm0-4.1h0"/><path class="cls-1" d="M15.4,16.9h0c-.1-.2-.1-.3-.2-.5s-.1-.3-.2-.4h0v-.1h-.1s-.3-.2-.3-.4,0,0-.1,0,0,0,0-.1-.1-.1,0-.1-.2-.1-.2,0v-.1c-.1,0-.1-.1-.2-.1s-.1-.1-.2-.1h-.2a.1.1,0,0,1-.1-.1h0s.1.1,0,.1-.1-.1-.1,0,.1,0,0,0h-.1a2.2,2.2,0,0,0-.8.1s-.2,0-.1.1h0c.1,0,0,.1-.1.1s-.1,0,0-.1h-.3c-.1,0-.1.1-.2.1h0c-.1,0-.2.2-.3.2h0a.35.35,0,0,0-.2.1h0c-.1,0-.1,0-.1.1h0l-.1.1a.1.1,0,0,1-.1.1,15922629181314.45,15922629181314.45,0,0,0-.2.2h0c-.1,0-.1.2-.1.2h0l-.1.2h0a.1.1,0,0,0-.1.1h0a.35.35,0,0,1,.1.2h0V17h0v.2h0v.1h0v.5h0v.1a.1.1,0,0,0-.1.1h0v.2h0s.1.1,0,.1.1.2.2.3.1.1.2.2a.1.1,0,0,0,.1.1h0c0,.1,0,.1.1.2h.1c.1,0,0,.1,0,.1h0a.1.1,0,0,0,.1.1h0a.35.35,0,0,1,.1.2c0,.1.1.1.1,0h.3v-.1l.1.1h.1a2.5,2.5,0,0,0,2.5-1.4h.1a4.67,4.67,0,0,1-.5,1l.2-.1h0l.2-.1h.1l.1-.1c.1-.1,0,.1,0,.1h.1a.1.1,0,0,0-.1-.1.1.1,0,0,1-.1.1h0a2.2,2.2,0,0,0,.9-1.9v-.1s.1.1.1,0h0c-.3.2-.3.1-.3,0h0c-.1-.1,0-.1,0,0m-4.8.8h0v-.1h0v.1h0m.6,1.1h0m2.3-4.1h0m.9,4.3Z"/><path class="cls-1" d="M4.9,17.1h0c-.1-.2-.1-.3-.2-.5s-.1-.3-.2-.4h0v-.1H4.4s-.3-.2-.3-.3,0,0-.1,0,0,0,0-.1-.1-.1,0-.1-.2-.1-.2,0h0l-.1-.1H3.3A2.5,2.5,0,0,0,.8,16.7h0a2.9,2.9,0,0,1,.9-1.5H1.6c-.1,0-.1.1-.2.1h0c-.1,0-.2.2-.3.2h0a.35.35,0,0,0-.2.1h0c-.1,0-.1,0-.1.1h0l-.1.1a.1.1,0,0,1-.1.1.35.35,0,0,0-.2.1.1.1,0,0,0-.1.1h0c-.1,0-.1.2-.1.2h0l-.2.3v.2H0l.1.2h0v.2H0v.2H0v.1H0V18H0v.1a.1.1,0,0,0-.1.1h0a.31.31,0,0,0,.1.2H0s.1.1,0,.1.1.2.2.3.1.1.2.2a.1.1,0,0,0,.1.1h0c0,.1,0,.1.1.2H.7v.1h0a.1.1,0,0,0,.1.1h0a.35.35,0,0,1,.1.2c0,.1.1.1.1,0h.2c.1,0,.1,0,.2.1a.35.35,0,0,0,.2.1h0a.49.49,0,0,1,.3.1H3.3c.1,0,0,0,0-.1h.3l.1-.1c0,.1.1-.1.1,0v-.1c0-.1-.1.1-.2.1h0a.1.1,0,0,0-.1.1h.1c-.1,0-.1.1-.2.1h0a.35.35,0,0,0,.2-.1h0l.2-.1h.1l.1-.1c.1-.1,0,.1,0,.1h.1a.1.1,0,0,0-.1-.1.1.1,0,0,1-.1.1,2.2,2.2,0,0,0,.9-1.9v-.1s.1.1.1,0h0v-.2a.1.1,0,0,0-.1-.1h0M.1,18h0v-.1h0M.7,19h0m.8.6h0l-.1-.1.1.1c0-.1.1,0,0,0h0m.5.2H1.8v-.1h.1l.1.1H2m.3-.1h0m.8,0H2.9c-.1,0-.1,0-.2-.1.2,0,.3-.1.5-.1h0c-.1,0-.2,0-.2.1h.1a.31.31,0,0,0,.2-.1c.1-.1,0,0,0,.1s-.1.1-.2.1m.2-.1h0m.6-.4Z"/><path class="cls-2" d="M241.34,5.7V9.51h2.53a1.11,1.11,0,0,0,.25,0l.15-.07h.08a0,0,0,0,1,.07,0,.3.3,0,0,1,0,.23,1.84,1.84,0,0,0-.08.38c0,.12,0,.19-.05.27v.44a.08.08,0,0,1-.09.07h0c-.06,0-.08,0-.07-.07a.71.71,0,0,0-.07-.35.35.35,0,0,0-.2-.18,1.14,1.14,0,0,0-.32-.07h-2.15v3.14a2.16,2.16,0,0,0,.09.62.72.72,0,0,0,.2.36.65.65,0,0,0,.31.18h.44a.09.09,0,0,1,.09.09c0,.09,0,.08-.09.08h-3.1a.07.07,0,0,1-.07-.08c0-.08,0-.07.07-.09a1.63,1.63,0,0,0,.44-.08.54.54,0,0,0,.28-.19,1.11,1.11,0,0,0,.16-.39,3.5,3.5,0,0,0,.07-.65V6.27a1.31,1.31,0,0,0-.12-.48.57.57,0,0,0-.3-.27,2.17,2.17,0,0,0-.56-.13s-.07,0-.08-.06v0c0-.06,0-.09.08-.09h5.3a.27.27,0,0,1,.21.07.31.31,0,0,1,0,.23V6l-.06.61a3.6,3.6,0,0,1-.07.53.08.08,0,0,1-.1.08h0c-.06,0-.08,0-.07-.08s0-.27,0-.42a1.28,1.28,0,0,0-.1-.43.79.79,0,0,0-.29-.34,1.37,1.37,0,0,0-.59-.19,9.34,9.34,0,0,1-1-.06A5.81,5.81,0,0,0,241.34,5.7Z"/><path class="cls-2" d="M257.65,9.7a5,5,0,0,1-1.42,3.59,5,5,0,0,1-1.57,1.06,4.84,4.84,0,0,1-1.95.38,6.46,6.46,0,0,1-2-.29,4.23,4.23,0,0,1-1.54-.88,4.28,4.28,0,0,1-1-1.45,5.72,5.72,0,0,1-.42-2,4.9,4.9,0,0,1,.33-2,4.5,4.5,0,0,1,1.07-1.61,5,5,0,0,1,1.66-1,5.46,5.46,0,0,1,2.12-.39,4.9,4.9,0,0,1,2,.4,4.61,4.61,0,0,1,1.49,1.06,4.43,4.43,0,0,1,.92,1.35A4.91,4.91,0,0,1,257.65,9.7Zm-5.31-4.25a3.56,3.56,0,0,0-1.5.36,3,3,0,0,0-1.06.9,3.87,3.87,0,0,0-.64,1.38,6.57,6.57,0,0,0-.21,1.76,5.6,5.6,0,0,0,.27,1.81,4.24,4.24,0,0,0,.76,1.42,3.33,3.33,0,0,0,1.21.93,3.63,3.63,0,0,0,1.59.33,3.71,3.71,0,0,0,1.54-.3,3.5,3.5,0,0,0,1.16-.82A3.74,3.74,0,0,0,256.2,12a4.83,4.83,0,0,0,.26-1.6,6.92,6.92,0,0,0-.24-1.81,4.7,4.7,0,0,0-.75-1.6,3.9,3.9,0,0,0-1.28-1.11A3.6,3.6,0,0,0,252.34,5.45Z"/><path class="cls-2" d="M261.84,12.75V6.59a1.57,1.57,0,0,0-.24-.89,1.18,1.18,0,0,0-.8-.31c-.06,0-.1,0-.1-.08s0-.09.1-.09h3.34a4.5,4.5,0,0,1,1.58.28,2.34,2.34,0,0,1,.89.63,2,2,0,0,1,.4.8,3.07,3.07,0,0,1,.1.74,2.62,2.62,0,0,1-.43,1.49,3.29,3.29,0,0,1-1.25,1.06c.11.18.29.45.55.81s.55.76.87,1.18a12.85,12.85,0,0,0,.93,1.08,5.86,5.86,0,0,0,.77.72,1.35,1.35,0,0,0,.57.26,4,4,0,0,0,.5.09c.06,0,.1,0,.1.09s0,.08-.1.08h-1.08a.86.86,0,0,1-.32,0,2.42,2.42,0,0,1-.7-.19,2.31,2.31,0,0,1-.58-.4,4.43,4.43,0,0,1-.62-.68c-.22-.28-.48-.63-.78-1.06l-.62-.9c-.18-.27-.34-.53-.49-.78a6.52,6.52,0,0,1-1.53,0V12.8a5.79,5.79,0,0,0,.06.83,1.1,1.1,0,0,0,.16.47.5.5,0,0,0,.31.22,2.27,2.27,0,0,0,.52.09.1.1,0,0,1,.11.09h0c0,.05,0,.08-.11.08h-3.1c-.07,0-.1,0-.09-.08s0-.09.09-.09a1.86,1.86,0,0,0,.47-.09.42.42,0,0,0,.3-.2.91.91,0,0,0,.16-.45A7.11,7.11,0,0,0,261.84,12.75ZM266.05,8a2.83,2.83,0,0,0-.48-1.67A2,2,0,0,0,264,5.61c-.2,0-.41,0-.61,0h-.54V10a4.81,4.81,0,0,0,.84.1,5.57,5.57,0,0,0,1,0,1.24,1.24,0,0,0,.62-.21,1.71,1.71,0,0,0,.42-.47,2,2,0,0,0,.25-.63A3.23,3.23,0,0,0,266.05,8Z"/><path class="cls-2" d="M279,10.25l-.55,1.1c-.17.35-.34.68-.49,1s-.31.66-.45,1-.29.67-.43,1a.15.15,0,0,1-.12.16s-.08,0-.12-.15a7.67,7.67,0,0,0-.4-.84c-.18-.36-.38-.77-.61-1.21s-.48-.89-.73-1.37-.5-.94-.73-1.37-.45-.83-.65-1.18l-.45-.81c0,.42-.07.86-.1,1.33s-.07.94-.11,1.42L273,11.78c0,.49-.06,1-.09,1.39a2,2,0,0,0,0,.6.68.68,0,0,0,.18.32.71.71,0,0,0,.33.15l.48.09c.06,0,.1,0,.1.09s0,.08-.1.08h-2.7c-.07,0-.1,0-.09-.08s0-.09.09-.09a1.56,1.56,0,0,0,.43-.08.53.53,0,0,0,.28-.18.8.8,0,0,0,.17-.33,3.82,3.82,0,0,0,.11-.57c.16-1.33.31-2.63.45-3.91s.26-2.58.37-3.92c0-.2.07-.3.14-.3s.09,0,.12.1l.09.2q.12.27.36.75c.15.33.34.7.56,1.11l.7,1.33c.25.47.51,1,.78,1.44s.52,1,.77,1.42l.69,1.25c.14-.25.34-.63.6-1.15s.56-1.11.88-1.77l.56-1.15.58-1.18.54-1.13.48-1,.09-.19A.14.14,0,0,1,281,5h.06a1,1,0,0,1,0,.25c0,.34.06.74.1,1.19s.1.92.15,1.43.12,1,.18,1.55.13,1,.19,1.51.12.92.17,1.32.11.74.16,1a2.46,2.46,0,0,0,.1.47.89.89,0,0,0,.15.29.49.49,0,0,0,.24.16,1.23,1.23,0,0,0,.38.08.09.09,0,0,1,.1.08h0c0,.05,0,.08-.1.08H280.6c-.08,0-.12,0-.12-.08a.09.09,0,0,1,.11-.09h0a.4.4,0,0,0,.27-.12.89.89,0,0,0,.07-.58c0-.33-.07-.77-.13-1.32s-.11-1.11-.18-1.7-.13-1.16-.19-1.72a11.78,11.78,0,0,1-.1-1.25l-.23.49c-.1.19-.2.4-.32.64l-.38.75C279.27,9.71,279.14,10,279,10.25Z"/><path class="cls-2" d="M295.78,9.7a5.06,5.06,0,0,1-.39,2,5,5,0,0,1-1,1.59,5,5,0,0,1-1.56,1.06,5.21,5.21,0,0,1-1.95.38,6.46,6.46,0,0,1-2-.29,4,4,0,0,1-2.55-2.33,5.72,5.72,0,0,1-.42-2,4.9,4.9,0,0,1,.33-2,4.37,4.37,0,0,1,1.07-1.61,4.85,4.85,0,0,1,1.66-1,5.46,5.46,0,0,1,2.12-.39,4.9,4.9,0,0,1,2,.4,4.61,4.61,0,0,1,1.49,1.06,4.53,4.53,0,0,1,.89,1.35A5.13,5.13,0,0,1,295.78,9.7Zm-5.29-4.25a3.56,3.56,0,0,0-1.5.36,3,3,0,0,0-1.07.9,4.1,4.1,0,0,0-.58,1.38,6.57,6.57,0,0,0-.21,1.76,5.6,5.6,0,0,0,.27,1.81,4.24,4.24,0,0,0,.76,1.42,3.33,3.33,0,0,0,1.21.93,3.63,3.63,0,0,0,1.59.33,3.71,3.71,0,0,0,1.54-.3,3.5,3.5,0,0,0,1.16-.82,3.86,3.86,0,0,0,.68-1.3,4.83,4.83,0,0,0,.26-1.6,7.08,7.08,0,0,0-.26-1.77,4.7,4.7,0,0,0-.75-1.6,3.91,3.91,0,0,0-1.25-1.11,3.6,3.6,0,0,0-1.85-.39Z"/><path class="cls-2" d="M299.17,13.62a5.61,5.61,0,0,1,0-.82,5.26,5.26,0,0,1,.12-.78.1.1,0,0,1,.1-.08s.06,0,.06.08a2.91,2.91,0,0,0,.59,1.73,1.83,1.83,0,0,0,1.49.63,2,2,0,0,0,1.5-.5,1.68,1.68,0,0,0,.52-1.25,2,2,0,0,0-.14-.8,1.79,1.79,0,0,0-.42-.63,2.9,2.9,0,0,0-.68-.53c-.27-.16-.57-.33-.91-.51a5.46,5.46,0,0,1-.77-.47,3.36,3.36,0,0,1-.65-.6,3.33,3.33,0,0,1-.44-.78,2.44,2.44,0,0,1-.15-1,2.21,2.21,0,0,1,.75-1.67A2.77,2.77,0,0,1,302.07,5a5.66,5.66,0,0,1,.82.06,3.53,3.53,0,0,1,.56.14.92.92,0,0,1,.42.28.86.86,0,0,1,.1.57,2,2,0,0,1-.06.52,3.85,3.85,0,0,0-.07.59c0,.16,0,.08-.09.07s-.07,0-.07-.07a3.09,3.09,0,0,0-.15-.67,1.88,1.88,0,0,0-.34-.58,1.9,1.9,0,0,0-2.52-.14A1.53,1.53,0,0,0,300.2,7a1.76,1.76,0,0,0,.48,1.29,4.08,4.08,0,0,0,1.17.85,10.91,10.91,0,0,1,1.19.7,4.16,4.16,0,0,1,.81.7,2.22,2.22,0,0,1,.45.79,2.81,2.81,0,0,1,.12,1,2.45,2.45,0,0,1-.24,1,2.63,2.63,0,0,1-1.55,1.26,3.57,3.57,0,0,1-1.17.17,4,4,0,0,1-1.69-.31,1.23,1.23,0,0,1-.42-.33A.94.94,0,0,1,299.17,13.62Z"/><path class="cls-2" d="M311.6,5.31a2,2,0,0,1,.1-.21h.15a1,1,0,0,1,.09.21c.1.31.26.77.48,1.37s.47,1.26.74,2L314,11c.31.81.6,1.56.89,2.27a5,5,0,0,0,.26.52.86.86,0,0,0,.26.31.8.8,0,0,0,.33.17,1.64,1.64,0,0,0,.44.09.08.08,0,0,1,.08.09c0,.09,0,.08-.08.08h-2.93c-.06,0-.09,0-.09-.08s0-.09.09-.09a.6.6,0,0,0,.53-.21,1,1,0,0,0-.07-.68c-.11-.35-.24-.75-.4-1.21s-.31-.9-.48-1.35h-2.94l-.2.53c-.07.2-.15.42-.24.65l-.24.69-.2.64a1.35,1.35,0,0,0-.07.49.66.66,0,0,0,.12.27.5.5,0,0,0,.26.13h.33a.09.09,0,0,1,.09.09c0,.09,0,.08-.09.08H307c-.06,0-.09,0-.08-.08s0-.09.08-.09h.28a.79.79,0,0,0,.3-.12,1,1,0,0,0,.31-.24,2.07,2.07,0,0,0,.31-.42,13.42,13.42,0,0,0,.69-1.49c.25-.6.49-1.2.74-1.81Zm1.11,5.14c-.2-.57-.4-1.13-.61-1.69s-.43-1.14-.67-1.74l-.31.76-.37.92-.68,1.75Z"/><path class="cls-2" d="M324.76,10.15V6.27a1.2,1.2,0,0,0-.14-.49.63.63,0,0,0-.33-.27,2,2,0,0,0-.59-.12c-.05,0-.07,0-.07-.08s0-.09.07-.09h3.23a4,4,0,0,1,1.13.19,2.12,2.12,0,0,1,.77.44,1.91,1.91,0,0,1,.45.64,2.18,2.18,0,0,1,.14.76,2.23,2.23,0,0,1-.14.81,2.19,2.19,0,0,1-.36.63,2.23,2.23,0,0,1-.5.47,2.19,2.19,0,0,1-.59.3,3.09,3.09,0,0,1,1.87.86,2.48,2.48,0,0,1,.62,1.6,2.4,2.4,0,0,1-.23,1.15,2.36,2.36,0,0,1-.75.85,2.79,2.79,0,0,1-1,.51,4.82,4.82,0,0,1-1.2.16,8.55,8.55,0,0,1-1.11-.05,7.06,7.06,0,0,0-.92-.06H323.7c-.06,0-.09,0-.08-.08s0-.09.08-.09a1.54,1.54,0,0,0,.52-.09.55.55,0,0,0,.28-.26,1.33,1.33,0,0,0,.14-.48V10.15Zm3.58-2.32a2.4,2.4,0,0,0-.43-1.6,1.8,1.8,0,0,0-1.45-.65,1.57,1.57,0,0,0-.53,0,.37.37,0,0,0-.07.2V9.45h.7a2.51,2.51,0,0,0,.86-.11,1.34,1.34,0,0,0,.63-.55A1.93,1.93,0,0,0,328.34,7.83Zm.87,4.47a2.63,2.63,0,0,0-.17-1,1.9,1.9,0,0,0-.53-.78,2.3,2.3,0,0,0-.84-.49,3.11,3.11,0,0,0-1.13-.18h-.67v3.72a.72.72,0,0,0,.06.29.48.48,0,0,0,.21.19,2.57,2.57,0,0,0,1.13.19,1.94,1.94,0,0,0,1.36-.49,2,2,0,0,0,.53-1.45Z"/><path class="cls-2" d="M337.17,5.31a.84.84,0,0,1,.11-.21h.14a1,1,0,0,1,.09.21c.1.31.26.77.48,1.37s.47,1.26.74,2L339.6,11c.31.81.6,1.56.89,2.27a5,5,0,0,0,.26.52.86.86,0,0,0,.26.31.8.8,0,0,0,.33.17,1.64,1.64,0,0,0,.44.09c.05,0,.08,0,.08.09s0,.08-.08.08h-2.93c-.06,0-.09,0-.09-.08s0-.09.09-.09a.6.6,0,0,0,.53-.21,1,1,0,0,0-.07-.68c-.11-.35-.24-.75-.4-1.21s-.31-.9-.48-1.35h-2.94l-.2.53c-.07.2-.15.42-.24.65l-.24.69-.2.64a1.35,1.35,0,0,0-.07.49.66.66,0,0,0,.12.27.5.5,0,0,0,.26.13h.33q.08,0,.09.09s0,.08-.09.08h-2.72c-.06,0-.09,0-.08-.08s0-.09.08-.09h.28a.79.79,0,0,0,.3-.12,1,1,0,0,0,.31-.24,1.43,1.43,0,0,0,.31-.42,13.42,13.42,0,0,0,.69-1.49c.25-.6.49-1.2.74-1.81Zm1.11,5.14c-.2-.57-.4-1.13-.61-1.69L337,7l-.32.76-.37.92-.68,1.75Z"/><path class="cls-2" d="M353.15,5.52a.13.13,0,0,1,0,.12.08.08,0,0,1-.09,0,1.33,1.33,0,0,0-.52-.09,2.31,2.31,0,0,0-1.35.52,5.59,5.59,0,0,0-1.25,1.32c-.21.3-.43.64-.65,1a10.26,10.26,0,0,0-.59,1.14,7.58,7.58,0,0,0-.43,1.21,4.25,4.25,0,0,0-.16,1.18V13a5,5,0,0,0,0,.77.72.72,0,0,0,.17.39.55.55,0,0,0,.32.14l.52.06a.08.08,0,0,1,.09.07v0c0,.05,0,.08-.09.08H346c-.06,0-.09,0-.08-.08s0-.09.08-.09a3.15,3.15,0,0,0,.42-.09.48.48,0,0,0,.29-.17.77.77,0,0,0,.17-.38,4.33,4.33,0,0,0,0-.72V12a4.79,4.79,0,0,0-.11-1,7.86,7.86,0,0,0-.31-1.08c-.13-.37-.27-.72-.43-1.07a7.46,7.46,0,0,0-.51-.92A8,8,0,0,0,344,6.15a2.5,2.5,0,0,0-1.45-.57h-.39l-.34.08h-.1s0-.07.06-.1a2.33,2.33,0,0,1,.5-.31,2.44,2.44,0,0,1,1-.16,2.65,2.65,0,0,1,1,.19,4.18,4.18,0,0,1,.87.5,4.26,4.26,0,0,1,.74.73,10,10,0,0,1,.61.84,9.33,9.33,0,0,1,.81,1.57,11.28,11.28,0,0,1,.53,1.68A1.41,1.41,0,0,1,348,10a8.34,8.34,0,0,1,.26-.85c.13-.34.27-.67.43-1a6.37,6.37,0,0,1,.65-1.1,6.38,6.38,0,0,1,.8-1,5.35,5.35,0,0,1,.77-.58,2.59,2.59,0,0,1,.71-.29,2.74,2.74,0,0,1,.64-.08,1.89,1.89,0,0,1,.53.08A.64.64,0,0,1,353.15,5.52Z"/><path class="cls-2" d="M133.9,12.83V6.67a1.57,1.57,0,0,0-.24-.89,1.2,1.2,0,0,0-.81-.31c-.06,0-.09,0-.09-.08s0-.09.09-.09h3.35a4.2,4.2,0,0,1,1.57.28,2.45,2.45,0,0,1,.9.63,2,2,0,0,1,.4.8,3.66,3.66,0,0,1,.1.74,2.55,2.55,0,0,1-.44,1.49,3.26,3.26,0,0,1-1.24,1.06c.11.18.29.45.55.81s.54.76.87,1.18.67.81.92,1.08a6.56,6.56,0,0,0,.77.72,1.39,1.39,0,0,0,.58.26,4,4,0,0,0,.5.09.09.09,0,0,1,.1.08h0c0,.05,0,.08-.1.08h-1.1a.91.91,0,0,1-.33,0,2.36,2.36,0,0,1-.69-.19A2.26,2.26,0,0,1,139,14a5.68,5.68,0,0,1-.62-.68c-.22-.28-.48-.63-.77-1.06l-.62-.9c-.18-.27-.34-.53-.49-.78a6.53,6.53,0,0,1-1.53,0v2.28a5.79,5.79,0,0,0,.06.83,1.1,1.1,0,0,0,.16.47.48.48,0,0,0,.3.22,2.35,2.35,0,0,0,.53.09.09.09,0,0,1,.1.08h0s0,.08-.1.08h-3.1c-.07,0-.1,0-.09-.08s0-.09.09-.09a1.86,1.86,0,0,0,.47-.09.42.42,0,0,0,.3-.2.91.91,0,0,0,.16-.45C133.86,13.43,133.89,13.13,133.9,12.83Zm4.2-4.73a2.83,2.83,0,0,0-.48-1.67,1.92,1.92,0,0,0-1.52-.74H135v4.38a4.81,4.81,0,0,0,.84.1,5.57,5.57,0,0,0,1,0,1.24,1.24,0,0,0,.62-.21,1.71,1.71,0,0,0,.42-.47,2,2,0,0,0,.25-.63,3.22,3.22,0,0,0,0-.76Z"/><path class="cls-2" d="M145.62,10v3.15a2.33,2.33,0,0,0,.06.53.5.5,0,0,0,.16.28.5.5,0,0,0,.29.12h1.73a2,2,0,0,0,.77-.16,1.37,1.37,0,0,0,.48-.38,1.93,1.93,0,0,0,.27-.56c.06-.21.11-.43.16-.67a.09.09,0,0,1,.1-.08h0c.05,0,.08,0,.08.08v1.47a2.16,2.16,0,0,1,0,.36.48.48,0,0,1-.25.35,1.74,1.74,0,0,1-.64.09h-5.22c-.06,0-.09,0-.08-.08s0-.09.08-.09a2,2,0,0,0,.48-.09.49.49,0,0,0,.3-.21,1.1,1.1,0,0,0,.15-.44,5,5,0,0,0,.06-.77V6.34a1.31,1.31,0,0,0-.12-.48.59.59,0,0,0-.3-.26,2.32,2.32,0,0,0-.58-.13.09.09,0,0,1-.09-.08.08.08,0,0,1,.09-.09h4.9a1.4,1.4,0,0,1,.5.06c.11,0,.16.14.14.32a3.55,3.55,0,0,1-.07.67,6.56,6.56,0,0,0-.09.76c0,.06,0,.08-.11.08s-.08,0-.07-.08a1.92,1.92,0,0,0-.23-.91,1,1,0,0,0-.79-.39h-2.07v3.7h2.75l.14,0,.06-.05h.07v.37a1.27,1.27,0,0,1-.08.53,1.13,1.13,0,0,0-.07.38.12.12,0,0,1-.11.08c-.05,0-.07,0-.07-.08a.65.65,0,0,0-.07-.34.41.41,0,0,0-.19-.18.89.89,0,0,0-.32-.08h-2.1Z"/><path class="cls-2" d="M153.25,13.7a5.61,5.61,0,0,1,0-.82,5.26,5.26,0,0,1,.12-.78.1.1,0,0,1,.1-.08s.06,0,.06.08a2.91,2.91,0,0,0,.59,1.73,1.83,1.83,0,0,0,1.49.63,2,2,0,0,0,1.5-.5,1.68,1.68,0,0,0,.52-1.25,2,2,0,0,0-.14-.8,1.79,1.79,0,0,0-.42-.63,2.9,2.9,0,0,0-.68-.53c-.27-.16-.57-.33-.91-.51a5.46,5.46,0,0,1-.77-.47,3.36,3.36,0,0,1-.65-.6,3.33,3.33,0,0,1-.44-.78,2.44,2.44,0,0,1-.15-1,2.26,2.26,0,0,1,.74-1.67,2.8,2.8,0,0,1,1.94-.64,5.66,5.66,0,0,1,.82.06,3.53,3.53,0,0,1,.56.14.92.92,0,0,1,.42.28.86.86,0,0,1,.1.57,2,2,0,0,1-.06.52c-.06.24,0,.43-.07.59s0,.08-.09.07-.08,0-.08-.07a2.6,2.6,0,0,0-.15-.67,1.86,1.86,0,0,0-.33-.58,1.9,1.9,0,0,0-2.52-.14,1.53,1.53,0,0,0-.47,1.21,1.76,1.76,0,0,0,.48,1.29,4.08,4.08,0,0,0,1.17.85,10.91,10.91,0,0,1,1.19.7,4.16,4.16,0,0,1,.81.7,2.22,2.22,0,0,1,.45.79,2.81,2.81,0,0,1,.12,1,2.45,2.45,0,0,1-.24,1,2.6,2.6,0,0,1-.63.77,2.63,2.63,0,0,1-.92.49,3.57,3.57,0,0,1-1.17.17,4,4,0,0,1-1.69-.31,1.23,1.23,0,0,1-.42-.33A.94.94,0,0,1,153.25,13.7Z"/><path class="cls-2" d="M164.06,10.21v2.71a5,5,0,0,0,.06.77,1.1,1.1,0,0,0,.15.44.49.49,0,0,0,.3.21,2.35,2.35,0,0,0,.53.09.08.08,0,0,1,.09.07v0c0,.05,0,.08-.09.08H162c-.06,0-.09,0-.09-.08s0-.09.09-.09a3.12,3.12,0,0,0,.44-.09.55.55,0,0,0,.3-.2,1.1,1.1,0,0,0,.15-.44,5.12,5.12,0,0,0,.06-.78V7.11a5.26,5.26,0,0,0-.07-.89,1.11,1.11,0,0,0-.17-.47.51.51,0,0,0-.29-.21,3.07,3.07,0,0,0-.42-.07.09.09,0,0,1-.09-.08A.08.08,0,0,1,162,5.3h3c.06,0,.09,0,.08.08a.09.09,0,0,1-.08.09,2.6,2.6,0,0,0-.4.1.41.41,0,0,0-.25.2,1.16,1.16,0,0,0-.14.47,6.36,6.36,0,0,0-.06.87v3.1Z"/><path class="cls-2" d="M177.86,9.94a4.89,4.89,0,0,1-.36,1.89,4.12,4.12,0,0,1-1,1.5,4.6,4.6,0,0,1-1.6,1,5.75,5.75,0,0,1-2.09.36c-.53,0-1.06,0-1.59-.07s-.83-.07-1.1-.07h-1.73c-.06,0-.09,0-.08-.08s0-.07.08-.09a2.29,2.29,0,0,0,.69-.14.7.7,0,0,0,.35-.33,1.65,1.65,0,0,0,.14-.58,8.1,8.1,0,0,1,.05-1V6.91a5.4,5.4,0,0,0-.08-.69.91.91,0,0,0-.19-.41.66.66,0,0,0-.33-.24,2.11,2.11,0,0,0-.5-.1c-.05,0-.07,0-.07-.08s0-.09.07-.09h4.15a5.62,5.62,0,0,1,3.88,1.22A4.41,4.41,0,0,1,177.86,9.94ZM176.7,10a5,5,0,0,0-.3-1.79,3.61,3.61,0,0,0-.83-1.31,3.73,3.73,0,0,0-1.27-.83,5,5,0,0,0-1.62-.36,9.39,9.39,0,0,0-1.31,0h-.71v7.83a1,1,0,0,0,.06.33c0,.06.1.12.24.17a3.2,3.2,0,0,0,.74.18,6.29,6.29,0,0,0,1.06.07,3.88,3.88,0,0,0,1.71-.34,3.43,3.43,0,0,0,1.22-.91,3.73,3.73,0,0,0,.71-1.35,5.55,5.55,0,0,0,.3-1.72Z"/><path class="cls-2" d="M183.13,10v3.15a2.33,2.33,0,0,0,.06.53.5.5,0,0,0,.16.28.5.5,0,0,0,.29.12h1.74a2,2,0,0,0,.76-.16,1.37,1.37,0,0,0,.48-.38A1.73,1.73,0,0,0,187,13c.06-.21.11-.43.16-.67a.1.1,0,0,1,.1-.08c.06,0,.08,0,.08.08v1.48a2.16,2.16,0,0,1,0,.36.45.45,0,0,1-.25.35,1.69,1.69,0,0,1-.63.09h-5.21c-.06,0-.09,0-.08-.08s0-.09.08-.09a2,2,0,0,0,.49-.09.51.51,0,0,0,.29-.21,1.1,1.1,0,0,0,.15-.44,5,5,0,0,0,.06-.77V6.34a1,1,0,0,0-.12-.48.51.51,0,0,0-.3-.26,2.15,2.15,0,0,0-.57-.13.09.09,0,0,1-.09-.08.08.08,0,0,1,.09-.09H186a1.4,1.4,0,0,1,.5.06c.12,0,.17.14.15.32s-.05.42-.07.67-.06.51-.1.76c0,.06,0,.08-.1.08s-.09,0-.08-.08a1.86,1.86,0,0,0-.3-.91,1,1,0,0,0-.79-.39h-2.06v3.7h2.76l.13,0,.07-.05h.07v.08a.75.75,0,0,1-.05.29c0,.15,0,.36-.07.53a1.6,1.6,0,0,0-.08.38.1.1,0,0,1-.1.08s-.07,0-.08-.06v0a.65.65,0,0,0-.07-.34.37.37,0,0,0-.19-.18.84.84,0,0,0-.31-.08h-2.11Z"/><path class="cls-2" d="M199.63,6.65l-.06,1.73v6.07a1.22,1.22,0,0,1,0,.27.06.06,0,0,1,0,.06.08.08,0,0,1-.11,0l-.21-.23-.75-.83c-.25-.29-.53-.59-.83-.91l-1-1-1.23-1.25c-.72-.72-1.36-1.37-1.91-1.94s-1-1-1.31-1.29v4.44a14.81,14.81,0,0,0,.06,1.67,1.19,1.19,0,0,0,.27.72,1.4,1.4,0,0,0,.93.35.09.09,0,0,1,.09.09c0,.09,0,.08-.09.08h-2.77c-.06,0-.09,0-.08-.08s0-.09.08-.09a1,1,0,0,0,.58-.25,1.32,1.32,0,0,0,.22-.75,9.12,9.12,0,0,1,.07-1.35c.07-.48,0-1,0-1.45a12.34,12.34,0,0,0,0-1.36V5.5a.89.89,0,0,1,0-.23.08.08,0,0,1,.05-.07h.09l.23.21c.55.62,1.14,1.25,1.76,1.91s1.3,1.35,2.05,2.1l1.79,1.8c.53.54,1,1,1.42,1.37V9.85c0-.95,0-2-.08-3a1.83,1.83,0,0,0-.07-.66.76.76,0,0,0-.15-.4.63.63,0,0,0-.3-.21,2.78,2.78,0,0,0-.5-.11.08.08,0,0,1-.08-.08c0-.08,0-.09.08-.09h2.49c.06,0,.09,0,.08.09s0,.07-.06.08h0a.74.74,0,0,0-.58.37A2.3,2.3,0,0,0,199.63,6.65Z"/><path class="cls-2" d="M208.87,5.09a10.2,10.2,0,0,1,1.35.09,5.59,5.59,0,0,1,1.27.3,1,1,0,0,1,.44.31.92.92,0,0,1,.16.56v.74c0,.26-.05.54-.07.82,0,.06,0,.09-.1.08s-.09,0-.09-.08a2.7,2.7,0,0,0-.33-1.11,2.3,2.3,0,0,0-.66-.76,2.52,2.52,0,0,0-.91-.42,4.38,4.38,0,0,0-1.08-.14,4.91,4.91,0,0,0-1.66.28,3.12,3.12,0,0,0-1.25.83A3.52,3.52,0,0,0,205.12,8a5.72,5.72,0,0,0-.24,1.93,5.77,5.77,0,0,0,.38,2.05,3.89,3.89,0,0,0,.92,1.38,3.66,3.66,0,0,0,1.32.8,4.85,4.85,0,0,0,1.56.25,4.69,4.69,0,0,0,1.24-.16A2.13,2.13,0,0,0,211.67,13a3.14,3.14,0,0,0,.26-1c0-.06,0-.09.1-.1s.1,0,.1.1v1a3.42,3.42,0,0,1,0,.64,1,1,0,0,1-.14.37.66.66,0,0,1-.23.21l-.32.16a5.27,5.27,0,0,1-.86.25,7.73,7.73,0,0,1-1.52.12,7,7,0,0,1-2.23-.33,5,5,0,0,1-1.67-1,4,4,0,0,1-1.07-1.5,5,5,0,0,1-.36-2A5.6,5.6,0,0,1,204,8a4.13,4.13,0,0,1,1-1.57,4.36,4.36,0,0,1,1.63-1A6.1,6.1,0,0,1,208.87,5.09Z"/><path class="cls-2" d="M217.52,10v3.15a2.33,2.33,0,0,0,.06.53.5.5,0,0,0,.16.28.5.5,0,0,0,.29.12h1.73a2,2,0,0,0,.77-.16,1.37,1.37,0,0,0,.48-.38,1.93,1.93,0,0,0,.27-.56c.06-.21.11-.43.16-.67a.09.09,0,0,1,.1-.08h0c.05,0,.08,0,.08.08v1.47a2.16,2.16,0,0,1,0,.36.48.48,0,0,1-.25.35,1.74,1.74,0,0,1-.64.09h-5.2c-.06,0-.09,0-.08-.08s0-.09.08-.09a2,2,0,0,0,.48-.09.49.49,0,0,0,.3-.21,1.1,1.1,0,0,0,.15-.44,5,5,0,0,0,.06-.77V6.34a1.31,1.31,0,0,0-.12-.48.59.59,0,0,0-.3-.26,2.32,2.32,0,0,0-.58-.13.09.09,0,0,1-.09-.08.08.08,0,0,1,.09-.09h4.9a1.4,1.4,0,0,1,.5.06c.11,0,.16.14.14.32a3.55,3.55,0,0,1-.07.67c-.07.25,0,.51-.09.76,0,.06-.05.08-.11.08s-.08,0-.07-.08a1.92,1.92,0,0,0-.23-.91,1,1,0,0,0-.79-.39h-2.07v3.7h2.75l.14,0,.07-.05h.06v.37a3.59,3.59,0,0,1-.08.53c0,.17,0,.3-.07.38a.12.12,0,0,1-.11.08s-.07,0-.07-.08a.65.65,0,0,0-.07-.34.41.41,0,0,0-.19-.18.89.89,0,0,0-.32-.08h-2.1Z"/><path class="cls-2" d="M225.15,13.7a5.61,5.61,0,0,1,0-.82,5.26,5.26,0,0,1,.12-.78.1.1,0,0,1,.1-.08s.06,0,.06.08a2.91,2.91,0,0,0,.59,1.73,1.83,1.83,0,0,0,1.49.63A2,2,0,0,0,229,14a1.68,1.68,0,0,0,.52-1.25,2,2,0,0,0-.14-.8,1.79,1.79,0,0,0-.42-.63,2.9,2.9,0,0,0-.68-.53c-.27-.16-.57-.33-.91-.51a5.46,5.46,0,0,1-.77-.47,3.36,3.36,0,0,1-.65-.6,3.33,3.33,0,0,1-.44-.78,2.44,2.44,0,0,1-.15-1,2.26,2.26,0,0,1,.74-1.67,2.8,2.8,0,0,1,1.94-.64,5.66,5.66,0,0,1,.82.06,3.53,3.53,0,0,1,.56.14.92.92,0,0,1,.42.28.86.86,0,0,1,.1.57,2,2,0,0,1-.06.52,3.85,3.85,0,0,0-.07.59c0,.16,0,.08-.09.07s-.08,0-.08-.07a2.6,2.6,0,0,0-.15-.67,1.86,1.86,0,0,0-.33-.58,1.9,1.9,0,0,0-2.52-.14,1.53,1.53,0,0,0-.47,1.21,1.76,1.76,0,0,0,.48,1.29,4.08,4.08,0,0,0,1.17.85,10.91,10.91,0,0,1,1.19.7,4.16,4.16,0,0,1,.81.7,2.22,2.22,0,0,1,.45.79,2.81,2.81,0,0,1,.12,1,2.45,2.45,0,0,1-.24,1,2.63,2.63,0,0,1-1.55,1.26,3.57,3.57,0,0,1-1.17.17,4,4,0,0,1-1.69-.31,1.23,1.23,0,0,1-.42-.33A.94.94,0,0,1,225.15,13.7Z"/><path class="cls-2" d="M37.42,13.67a5.61,5.61,0,0,1,0-.82,5.26,5.26,0,0,1,.12-.78s.05-.08.09-.08.07,0,.07.08a2.91,2.91,0,0,0,.59,1.73,1.8,1.8,0,0,0,1.49.63,2,2,0,0,0,1.5-.5,1.68,1.68,0,0,0,.52-1.25,2,2,0,0,0-.14-.8,1.79,1.79,0,0,0-.42-.63,2.9,2.9,0,0,0-.68-.53c-.27-.16-.57-.33-.91-.51a5.46,5.46,0,0,1-.77-.47,3.36,3.36,0,0,1-.65-.6,3.33,3.33,0,0,1-.44-.78,2.44,2.44,0,0,1-.15-1,2.26,2.26,0,0,1,.74-1.67,2.8,2.8,0,0,1,1.94-.64,5.66,5.66,0,0,1,.82.06,3.53,3.53,0,0,1,.56.14.92.92,0,0,1,.42.28.86.86,0,0,1,.1.57,2,2,0,0,1-.06.52c-.06.24,0,.43-.07.59s0,.08-.09.07-.08,0-.08-.07a2.6,2.6,0,0,0-.15-.67A1.76,1.76,0,0,0,41.46,6a1.9,1.9,0,0,0-2.52-.14A1.53,1.53,0,0,0,38.47,7,1.76,1.76,0,0,0,39,8.33a4.08,4.08,0,0,0,1.17.85,10.91,10.91,0,0,1,1.19.7,4.16,4.16,0,0,1,.81.7,2.22,2.22,0,0,1,.45.79,2.81,2.81,0,0,1,.12,1,2.35,2.35,0,0,1-.87,1.77,2.73,2.73,0,0,1-.92.49,3.57,3.57,0,0,1-1.17.17A4,4,0,0,1,38,14.49a1.23,1.23,0,0,1-.42-.33A1,1,0,0,1,37.42,13.67Z"/><path class="cls-2" d="M48.23,10.18v2.71a5,5,0,0,0,.06.77,1.41,1.41,0,0,0,.14.44.49.49,0,0,0,.31.21,2.35,2.35,0,0,0,.53.09.08.08,0,0,1,.09.07v0s0,.08-.09.08H46.14c-.06,0-.08,0-.08-.08s0-.09.08-.09l.45-.09a.55.55,0,0,0,.3-.2,1.1,1.1,0,0,0,.15-.44,5.12,5.12,0,0,0,.06-.78V7.08A5.26,5.26,0,0,0,47,6.19a1.11,1.11,0,0,0-.17-.47.51.51,0,0,0-.29-.21,3.21,3.21,0,0,0-.43-.07.09.09,0,0,1-.09-.08.08.08,0,0,1,.09-.09h2.91c.06,0,.09,0,.08.08a.09.09,0,0,1-.08.09,2.6,2.6,0,0,0-.4.1.41.41,0,0,0-.25.2,1.16,1.16,0,0,0-.14.47,6.36,6.36,0,0,0-.06.87v3.1Z"/><path class="cls-2" d="M58,13.63c-.1-.18-.22-.4-.37-.65s-.32-.51-.49-.8l-.55-.89-.54-.9c-.15.23-.3.49-.47.77l-.5.83-.46.81c-.15.26-.28.49-.38.68a1,1,0,0,0-.2.66c0,.14.25.23.65.26q.07,0,.09.09s0,.08-.09.08H52s-.07,0-.07-.08,0-.07.07-.09a1.73,1.73,0,0,0,.71-.18,2,2,0,0,0,.68-.68l1.22-1.76c.43-.64.83-1.25,1.21-1.85-.2-.31-.4-.64-.6-1l-.61-1L54,7.09l-.52-.81c-.11-.16-.2-.29-.28-.39A1.2,1.2,0,0,0,53,5.65a1,1,0,0,0-.28-.14,2.32,2.32,0,0,0-.38-.07.09.09,0,0,1-.09-.08.08.08,0,0,1,.09-.09h2.94q.1,0,.09.09a.09.09,0,0,1-.09.08q-.51.06-.57.24a.87.87,0,0,0,.15.54l.75,1.37.88,1.5c.28-.45.55-.9.8-1.35s.49-.88.7-1.3A3.85,3.85,0,0,0,58.14,6a.45.45,0,0,0,0-.28A.2.2,0,0,0,58,5.51a1.55,1.55,0,0,0-.31-.07.09.09,0,0,1-.09-.08.08.08,0,0,1,.09-.09h2.44a.08.08,0,0,1,.09.07v0s0,.08-.09.08h-.31a1,1,0,0,0-.29.11,1.87,1.87,0,0,0-.3.26,3.94,3.94,0,0,0-.36.45c-.4.57-.78,1.12-1.15,1.67S57,9,56.74,9.46l.63,1L58,11.62l.69,1.06c.23.34.43.64.61.89a2.32,2.32,0,0,0,.58.63,1.1,1.1,0,0,0,.63.2.08.08,0,0,1,.08.09c0,.09,0,.08-.08.08H57.7c-.06,0-.09,0-.08-.08s0-.09.08-.09c.29,0,.45-.1.47-.23A.87.87,0,0,0,58,13.63Z"/><path class="cls-2" d="M68.69,13.67a5.61,5.61,0,0,1,0-.82,5.26,5.26,0,0,1,.12-.78.1.1,0,0,1,.1-.08s.06,0,.06.08a2.91,2.91,0,0,0,.59,1.73,1.83,1.83,0,0,0,1.49.63,2,2,0,0,0,1.5-.5,1.65,1.65,0,0,0,.53-1.25,1.84,1.84,0,0,0-.15-.8,1.79,1.79,0,0,0-.42-.63,2.9,2.9,0,0,0-.68-.53c-.27-.16-.57-.33-.91-.51a5.46,5.46,0,0,1-.77-.47,3,3,0,0,1-.64-.6,2.88,2.88,0,0,1-.45-.78,2.44,2.44,0,0,1-.15-1,2.26,2.26,0,0,1,.74-1.67,2.86,2.86,0,0,1,1.94-.64,5.66,5.66,0,0,1,.82.06,3.53,3.53,0,0,1,.56.14.92.92,0,0,1,.42.28.86.86,0,0,1,.1.57v.52a3.84,3.84,0,0,1-.08.59c0,.16,0,.08-.09.07s-.07,0-.07-.07a2.6,2.6,0,0,0-.15-.67A1.93,1.93,0,0,0,72.73,6a1.77,1.77,0,0,0-.54-.4,1.67,1.67,0,0,0-.76-.15,1.86,1.86,0,0,0-1.22.41A1.53,1.53,0,0,0,69.74,7a1.76,1.76,0,0,0,.48,1.29,4.08,4.08,0,0,0,1.17.85,10.91,10.91,0,0,1,1.19.7,4.22,4.22,0,0,1,.82.7,2.2,2.2,0,0,1,.44.79,2.81,2.81,0,0,1,.12,1,2.45,2.45,0,0,1-.24,1,2.5,2.5,0,0,1-1.55,1.26A3.57,3.57,0,0,1,71,14.8a4,4,0,0,1-1.69-.31,1.23,1.23,0,0,1-.42-.33A1,1,0,0,1,68.69,13.67Z"/><path class="cls-2" d="M79.49,10v3.15a2.33,2.33,0,0,0,.06.53.51.51,0,0,0,.15.28.79.79,0,0,0,.3.12h1.73a2,2,0,0,0,.77-.16,1.37,1.37,0,0,0,.48-.38,1.91,1.91,0,0,0,.26-.56c.06-.21.12-.43.17-.67a.09.09,0,0,1,.1-.08h0a.08.08,0,0,1,.08.08v1.47a2.16,2.16,0,0,1,0,.36.47.47,0,0,1-.24.35,1.74,1.74,0,0,1-.64.09h-5.2c-.06,0-.09,0-.09-.08s0-.09.09-.09a2,2,0,0,0,.48-.09.51.51,0,0,0,.29-.21,1.1,1.1,0,0,0,.15-.44,5,5,0,0,0,.06-.77V6.31a1.31,1.31,0,0,0-.12-.48A.58.58,0,0,0,78,5.57a2.32,2.32,0,0,0-.58-.13.09.09,0,0,1-.09-.08.08.08,0,0,1,.09-.09h4.9a1.4,1.4,0,0,1,.5.06c.11,0,.16.14.14.32a3.55,3.55,0,0,1-.07.67c-.07.25,0,.51-.09.76,0,.06,0,.08-.11.08s-.08,0-.07-.08a1.82,1.82,0,0,0-.24-.91.93.93,0,0,0-.78-.39H79.5v3.7h2.75l.14-.05.06,0h.07v.37a1.27,1.27,0,0,1-.08.53,1.13,1.13,0,0,0-.07.38.12.12,0,0,1-.11.08.07.07,0,0,1-.07-.08.8.8,0,0,0-.07-.34.47.47,0,0,0-.19-.18.89.89,0,0,0-.32-.08H79.49Z"/><path class="cls-2" d="M96,6.62l-.1,1.73c0,.57,0,1.17,0,1.8s0,1.28,0,2v2.54a.06.06,0,0,1,0,.06.08.08,0,0,1-.11,0,2.39,2.39,0,0,1-.22-.23l-.74-.83L94,12.78l-1-1-1.23-1.25c-.72-.72-1.35-1.37-1.91-1.94s-1-1-1.31-1.29v4.44a12.71,12.71,0,0,0,.07,1.67,1.19,1.19,0,0,0,.27.72,1.4,1.4,0,0,0,.93.35.09.09,0,0,1,.09.09c0,.09,0,.08-.09.08H87c-.06,0-.09,0-.09-.08s0-.09.09-.09a1,1,0,0,0,.57-.25,1.25,1.25,0,0,0,.22-.75c0-.42.06-.87.08-1.35s0-1,0-1.45V5.24a.09.09,0,0,1,0-.07H88l.23.21C88.77,6,89.36,6.63,90,7.29s1.3,1.35,2,2.1l1.79,1.8c.53.54,1,1,1.41,1.37V9.82c0-1,0-2-.07-3a1.83,1.83,0,0,0-.07-.66,1,1,0,0,0-.15-.4.9.9,0,0,0-.3-.21,2.78,2.78,0,0,0-.5-.11s-.07,0-.08-.06v0c0-.06,0-.09.08-.09h2.48c.06,0,.09,0,.08.09s0,.07-.06.08h0a.69.69,0,0,0-.57.37A1.85,1.85,0,0,0,96,6.62Z"/><path class="cls-2" d="M100.53,13.67a5.61,5.61,0,0,1,0-.82,5.26,5.26,0,0,1,.12-.78.1.1,0,0,1,.1-.08s.06,0,.06.08a2.91,2.91,0,0,0,.59,1.73,1.85,1.85,0,0,0,1.5.63,2,2,0,0,0,1.49-.5,1.65,1.65,0,0,0,.53-1.25,1.84,1.84,0,0,0-.15-.8,1.79,1.79,0,0,0-.42-.63,2.9,2.9,0,0,0-.68-.53c-.27-.16-.57-.33-.91-.51a5.46,5.46,0,0,1-.77-.47,3,3,0,0,1-.64-.6,2.88,2.88,0,0,1-.45-.78,2.44,2.44,0,0,1-.15-1,2.21,2.21,0,0,1,.75-1.67,2.77,2.77,0,0,1,1.93-.64,5.66,5.66,0,0,1,.82.06,3.53,3.53,0,0,1,.56.14.92.92,0,0,1,.42.28.86.86,0,0,1,.1.57,4.51,4.51,0,0,1,0,.52,4,4,0,0,1-.08.59c0,.16,0,.08-.09.07s-.07,0-.07-.07a2.6,2.6,0,0,0-.15-.67A1.88,1.88,0,0,0,104.6,6a1.77,1.77,0,0,0-.54-.4,1.67,1.67,0,0,0-.76-.15,1.86,1.86,0,0,0-1.22.41A1.53,1.53,0,0,0,101.61,7a1.8,1.8,0,0,0,.41,1.3,4.08,4.08,0,0,0,1.17.85,10.91,10.91,0,0,1,1.19.7,4.22,4.22,0,0,1,.82.7,2.2,2.2,0,0,1,.44.79,2.81,2.81,0,0,1,.12,1,2.45,2.45,0,0,1-.24,1,2.57,2.57,0,0,1-.62.77,2.77,2.77,0,0,1-.93.49,3.57,3.57,0,0,1-1.17.17,4,4,0,0,1-1.69-.31,1.23,1.23,0,0,1-.42-.33A.92.92,0,0,1,100.53,13.67Z"/><path class="cls-2" d="M111.33,10v3.15a2.33,2.33,0,0,0,.06.53.5.5,0,0,0,.16.28.5.5,0,0,0,.29.12h1.73a2,2,0,0,0,.77-.16,1.37,1.37,0,0,0,.48-.38,1.93,1.93,0,0,0,.27-.56c.06-.21.11-.43.16-.67a.09.09,0,0,1,.1-.08h0a.08.08,0,0,1,.08.08v1.47a2.16,2.16,0,0,1,0,.36.51.51,0,0,1-.25.35,1.74,1.74,0,0,1-.64.09h-5.2c-.06,0-.09,0-.08-.08s0-.09.08-.09a2,2,0,0,0,.48-.09.49.49,0,0,0,.3-.21,1.1,1.1,0,0,0,.15-.44,5,5,0,0,0,.06-.77V6.31a1.31,1.31,0,0,0-.12-.48.59.59,0,0,0-.3-.26,2.32,2.32,0,0,0-.58-.13.09.09,0,0,1-.09-.08.08.08,0,0,1,.09-.09h4.9a1.4,1.4,0,0,1,.5.06c.11,0,.16.14.14.32a3.55,3.55,0,0,1-.07.67,6.56,6.56,0,0,0-.09.76c0,.06,0,.08-.11.08s-.08,0-.07-.08a1.82,1.82,0,0,0-.24-.91.93.93,0,0,0-.78-.39h-2.07v3.7h2.75l.14-.05.06,0h.07v.37a1.27,1.27,0,0,1-.08.53c-.08.17,0,.3-.07.38a.12.12,0,0,1-.11.08.07.07,0,0,1-.07-.08.65.65,0,0,0-.07-.34.41.41,0,0,0-.19-.18.89.89,0,0,0-.32-.08L113,10Z"/><path class="cls-2" d="M119,13.67a5.61,5.61,0,0,1,0-.82,5.26,5.26,0,0,1,.12-.78.08.08,0,0,1,.09-.08c.09,0,.07,0,.07.08a2.91,2.91,0,0,0,.59,1.73,1.8,1.8,0,0,0,1.49.63,2,2,0,0,0,1.5-.5,1.68,1.68,0,0,0,.52-1.25,2,2,0,0,0-.14-.8,1.79,1.79,0,0,0-.42-.63,2.9,2.9,0,0,0-.68-.53c-.27-.16-.57-.33-.91-.51a5.46,5.46,0,0,1-.77-.47,3.36,3.36,0,0,1-.65-.6,3.33,3.33,0,0,1-.44-.78,2.44,2.44,0,0,1-.15-1,2.26,2.26,0,0,1,.74-1.67,2.8,2.8,0,0,1,1.94-.64,5.66,5.66,0,0,1,.82.06,3.53,3.53,0,0,1,.56.14.92.92,0,0,1,.42.28.86.86,0,0,1,.1.57,2,2,0,0,1-.06.52c-.06.24,0,.43-.07.59s0,.08-.09.07-.08,0-.08-.07a2.6,2.6,0,0,0-.15-.67A1.71,1.71,0,0,0,123,6a1.9,1.9,0,0,0-2.52-.14A1.53,1.53,0,0,0,120,7a1.76,1.76,0,0,0,.48,1.29,4.08,4.08,0,0,0,1.17.85,10.91,10.91,0,0,1,1.19.7,4.16,4.16,0,0,1,.81.7,2.22,2.22,0,0,1,.45.79,2.81,2.81,0,0,1,.12,1,2.35,2.35,0,0,1-.87,1.77,2.73,2.73,0,0,1-.92.49,3.57,3.57,0,0,1-1.17.17,4,4,0,0,1-1.69-.31,1.23,1.23,0,0,1-.42-.33A.9.9,0,0,1,119,13.67Z"/></svg>