<svg id="Layer_1" data-name="Layer 1" xmlns="http://www.w3.org/2000/svg" viewBox="0 0 75 79"><defs><style>.cls-1{fill:#5c5e5e;}.cls-2{fill:#6d2158;}.cls-3{fill:#666;}</style></defs><title>Artboard 1</title><path class="cls-1" d="M.3,52.3a.07.07,0,0,1,.13,0c.06,1.17.64,1.91,1.69,1.91A1.46,1.46,0,0,0,3.75,53a.91.91,0,0,0,0-.17c0-1-.65-1.43-1.75-2A2.5,2.5,0,0,1,.38,48.48a1.92,1.92,0,0,1,2-1.88h.2a3.84,3.84,0,0,1,1.12.16.56.56,0,0,1,.43.68h0c0,.17-.09.64-.11.9,0,.1-.14.06-.14,0A1.43,1.43,0,0,0,2.43,46.9h0A1.23,1.23,0,0,0,1,48a1,1,0,0,0,0,.25A2,2,0,0,0,2.37,50c1.51.77,2.13,1.41,2.09,2.56a2.14,2.14,0,0,1-2.28,2H2.06A3.45,3.45,0,0,1,.68,54.3a.81.81,0,0,1-.49-.66A4,4,0,0,1,.3,52.3Z"/><path class="cls-1" d="M9.48,53c0,1,.13,1.17.85,1.23,0,0,.08,0,.09,0a.06.06,0,0,1,0,.09h-.05L9,54.29H7.75c-.1,0-.08-.13,0-.13.6-.09.75-.16.78-1.23V48.22c0-1.26-.23-1.26-.78-1.34-.08,0-.11-.13,0-.13h2.36c.09,0,.08.12,0,.13-.53.1-.67.11-.7,1.34v2.52C9.44,51.19,9.47,52.55,9.48,53Z"/><path class="cls-1" d="M16.29,50.93c-.48.76-1.13,1.88-1.47,2.51s-.28.68.37.75c.08,0,.11.13,0,.13H13c-.08,0-.08-.12,0-.13a1.32,1.32,0,0,0,1.13-.7c.62-.87,1.36-2,2-2.93l-1.88-3c-.34-.51-.5-.63-1-.68-.09,0-.11-.13,0-.13h2.38c.11,0,.08.13,0,.13-.55.07-.55.25-.34.64.37.69.82,1.49,1.32,2.33.45-.73.88-1.47,1.22-2.15s.26-.74-.17-.82c-.09,0-.11-.13,0-.13h1.91s.08,0,.09,0a.06.06,0,0,1,0,.09h0c-.35,0-.58.08-1,.71-.64.92-1.27,1.85-1.73,2.6.6,1,1.55,2.49,2.12,3.29.35.5.58.64,1,.68,0,0,.08,0,.09,0a.06.06,0,0,1,0,.09H17.63s-.08,0-.09,0a.06.06,0,0,1,0-.09h.05c.47,0,.46-.24.24-.63S16.85,51.88,16.29,50.93Z"/><path class="cls-1" d="M27.61,52.3c0-.09.14-.08.14,0,.06,1.17.64,1.91,1.69,1.91A1.46,1.46,0,0,0,31.07,53a.91.91,0,0,0,0-.17c0-1-.65-1.43-1.75-2a2.5,2.5,0,0,1-1.63-2.31,1.92,1.92,0,0,1,2-1.88h.2a3.84,3.84,0,0,1,1.12.16.57.57,0,0,1,.43.69c0,.17-.09.64-.11.9a.07.07,0,1,1-.14,0,1.43,1.43,0,0,0-1.42-1.46h0A1.25,1.25,0,0,0,28.36,48v.21A2,2,0,0,0,29.69,50c1.51.77,2.13,1.41,2.09,2.56a2.16,2.16,0,0,1-2.3,2h-.1A3.43,3.43,0,0,1,28,54.25a.85.85,0,0,1-.5-.66A5.08,5.08,0,0,1,27.61,52.3Z"/><path class="cls-1" d="M36.77,53.15c0,.72.17.76.8.77a8.34,8.34,0,0,0,1,0c1,0,1.21-.67,1.35-1.43,0-.09.15-.1.15,0A10.91,10.91,0,0,1,40,54c0,.27-.25.37-.72.37s-1.71,0-2.86,0H35.05s-.08,0-.09,0a.06.06,0,0,1,0-.09h0c.64-.07.77-.18.8-1.23V48.24c0-1,0-1.23-.84-1.33-.09,0-.11-.13,0-.13h4c.35,0,.55,0,.52.3s-.07.76-.13,1.17c0,.09-.16.09-.15,0,0-.61-.2-1-.82-1.06a15.68,15.68,0,0,0-1.68,0v3a16.68,16.68,0,0,0,2,0c.35,0,.34-.13.42-.12s0,.06,0,.3a4.88,4.88,0,0,1-.12.75c0,.08-.15.08-.15,0,0-.49-.3-.49-.8-.52H36.7C36.74,51.19,36.75,52.38,36.77,53.15Z"/><path class="cls-1" d="M50.5,54.19v.27s-.1,0-.27-.21c-.77-.89-1.59-1.77-3.07-3.27C46,49.81,45,48.83,44.51,48.36c0,.93,0,3.26.11,5,0,.48.23.8,1,.87.09,0,.11.13,0,.13H43.33a.07.07,0,0,1,0-.09.08.08,0,0,1,0,0c.44-.09.6-.19.65-.81.1-1.35.12-3.28.12-4.28v-2.4s.08,0,.25.19c.9,1,1.88,2,3.1,3.26,1,1.05,1.94,2,2.6,2.57,0-1.43,0-3-.06-4.69,0-.88-.15-1-.83-1.12-.08,0-.1-.13,0-.13h2c.09,0,.07.13,0,.13-.46.08-.59.41-.61,1C50.55,49.74,50.5,51.53,50.5,54.19Z"/><path class="cls-1" d="M54.91,52.3a.07.07,0,0,1,.13,0c.06,1.17.65,1.91,1.69,1.91A1.46,1.46,0,0,0,58.36,53a.91.91,0,0,0,0-.17c0-1-.64-1.43-1.75-2A2.52,2.52,0,0,1,55,48.48a1.93,1.93,0,0,1,2-1.89l.21,0a3.77,3.77,0,0,1,1.11.16.57.57,0,0,1,.44.66v0c0,.17-.09.64-.11.9,0,.1-.13.06-.13,0A1.45,1.45,0,0,0,57,46.9h0A1.25,1.25,0,0,0,55.63,48v.21A2,2,0,0,0,57,50c1.5.77,2.12,1.41,2.08,2.56a2.14,2.14,0,0,1-2.28,2h-.12a3.38,3.38,0,0,1-1.37-.26.79.79,0,0,1-.5-.66A4,4,0,0,1,54.91,52.3Z"/><path class="cls-1" d="M64.07,53.15c0,.72.17.76.8.77a8.34,8.34,0,0,0,1,0c1,0,1.21-.67,1.36-1.43,0-.09.15-.1.15,0a9.53,9.53,0,0,1,0,1.51c0,.27-.25.37-.71.37-.61,0-1.71,0-2.87,0H62.38s-.08,0-.09,0a.06.06,0,0,1,0-.09h.05c.64-.07.78-.18.8-1.23V48.24c0-1,0-1.23-.84-1.33-.08,0-.11-.13,0-.13h4c.36,0,.55,0,.53.3s-.08.76-.14,1.17c0,.09-.16.09-.14,0,0-.61-.21-1-.83-1.06a15.5,15.5,0,0,0-1.67,0v3a16.68,16.68,0,0,0,2,0c.35,0,.34-.13.43-.12s0,.06,0,.3a4.88,4.88,0,0,1-.12.75c0,.08-.14.08-.14,0,0-.49-.31-.49-.81-.52H64.05A18.25,18.25,0,0,0,64.07,53.15Z"/><path class="cls-1" d="M70.83,52.3c0-.09.14-.08.14,0,.06,1.17.64,1.91,1.68,1.91A1.46,1.46,0,0,0,74.28,53a.91.91,0,0,0,0-.17c0-1-.64-1.43-1.74-2a2.5,2.5,0,0,1-1.63-2.31,1.92,1.92,0,0,1,2-1.88h.2a3.84,3.84,0,0,1,1.12.16.57.57,0,0,1,.43.67v0c0,.17-.08.64-.11.9,0,.1-.13.06-.13,0A1.45,1.45,0,0,0,73,46.9,1.23,1.23,0,0,0,71.63,48a1.62,1.62,0,0,0,0,.22A2,2,0,0,0,72.91,50c1.51.77,2.13,1.41,2.09,2.56a2.16,2.16,0,0,1-2.3,2h-.11a3.38,3.38,0,0,1-1.37-.26.84.84,0,0,1-.5-.66A5,5,0,0,1,70.83,52.3Z"/><path class="cls-1" d="M.85,62.72V60.53c0-.61-.2-.81-.76-.87-.09,0-.1-.12,0-.12H1.15a10.19,10.19,0,0,1,1.36,0c1.91,0,2.16,1.13,2.16,1.79a2,2,0,0,1-1.22,1.85,16,16,0,0,0,1,1.44,8,8,0,0,0,1.23,1.31,1.45,1.45,0,0,0,.78.26c.09,0,.1.12,0,.12a5.57,5.57,0,0,1-1,0c-.77-.13-1.06-.44-1.94-1.69-.34-.48-.59-.86-.81-1.22a5.15,5.15,0,0,1-1.11,0v1.65c0,1,.13,1.11.76,1.18.09,0,.11.12,0,.12-.41,0-.91-.06-1.13-.06s-.74,0-1.12.06c-.09,0-.07-.12,0-.12.57-.08.7-.1.72-1.17C.86,64.23.85,63.49.85,62.72Zm1.59-2.89H1.6V63a4.86,4.86,0,0,0,1.32,0c.69-.07,1-.79,1-1.47A1.53,1.53,0,0,0,2.44,59.83Z"/><path class="cls-1" d="M9.82,65.24c0,.65.15.69.71.7s.65,0,.92,0c.91,0,1.08-.6,1.21-1.28a.07.07,0,0,1,.13,0,9.69,9.69,0,0,1,0,1.32c0,.24-.23.33-.64.33H8.35c-.08,0-.07-.12,0-.12.58-.07.7-.17.72-1.1V60.86c0-.9,0-1.1-.75-1.19-.07,0-.1-.12,0-.12h3.56c.31,0,.49,0,.47.28s-.07.67-.12,1c0,.08-.15.08-.14,0,0-.54-.18-.9-.73-1a12.51,12.51,0,0,0-1.5,0v2.72h1.82c.32,0,.3-.12.38-.11s0,.05,0,.27a4.93,4.93,0,0,1-.11.67c0,.07-.13.07-.13,0,0-.44-.27-.44-.72-.46H9.79C9.78,63.49,9.79,64.56,9.82,65.24Z"/><path class="cls-1" d="M15.88,64.48c0-.07.12-.06.12,0,.05,1.06.57,1.72,1.51,1.72A1.31,1.31,0,0,0,19,65.1s0-.11,0-.17c0-.91-.57-1.29-1.56-1.8A2.23,2.23,0,0,1,16,61.07a1.72,1.72,0,0,1,1.77-1.69H18a3.77,3.77,0,0,1,1,.14.51.51,0,0,1,.38.61h0c0,.16-.08.58-.1.81,0,.08-.12,0-.12,0a1.29,1.29,0,0,0-1.27-1.31h0a1.11,1.11,0,0,0-1.23,1v.2a1.77,1.77,0,0,0,1.19,1.55c1.35.69,1.91,1.26,1.88,2.3a1.94,1.94,0,0,1-2.08,1.79H17.5a3.06,3.06,0,0,1-1.23-.23.71.71,0,0,1-.44-.59A3.76,3.76,0,0,1,15.88,64.48Z"/><path class="cls-1" d="M24.1,65.08c0,.92.12,1,.76,1.1a.06.06,0,0,1,0,.12H22.59a.06.06,0,1,1,0-.12c.53-.08.67-.14.69-1.1V60.82c0-1.13-.2-1.13-.69-1.2-.08,0-.1-.12,0-.12h2.12c.08,0,.07.11,0,.12-.47.09-.6.1-.62,1.2v2.25C24.07,63.49,24.09,64.71,24.1,65.08Z"/><path class="cls-1" d="M30.85,66.36c-.87,0-1.56-.1-2-.1H27.57c-.08,0-.07-.11,0-.12.87-.09.86-.34.89-1.46v-4c0-.81-.21-1-.79-1.05-.07,0-.07-.12,0-.12h3c2.44,0,3.8,1.25,3.8,3.37a3.43,3.43,0,0,1-3.34,3.5Zm-.08-6.5a12,12,0,0,0-1.47,0v5.69c0,.34,0,.28.22.35a3.83,3.83,0,0,0,1.3.19c1.92,0,2.82-1.38,2.82-3.1A2.88,2.88,0,0,0,31,59.87Z"/><path class="cls-1" d="M38.82,65.24c0,.65.15.69.71.7s.65,0,.92,0c.91,0,1.08-.6,1.22-1.28a.07.07,0,0,1,.13,0A9.94,9.94,0,0,1,41.74,66c0,.24-.23.33-.64.33H37.31a.06.06,0,0,1,0-.12c.57-.07.69-.17.71-1.1V60.88c0-.9,0-1.1-.75-1.19-.07,0-.1-.12,0-.12h3.56c.31,0,.49,0,.47.28s-.07.67-.12,1c0,.08-.15.08-.13,0,0-.54-.19-.9-.74-1a12.51,12.51,0,0,0-1.5,0v2.72h1.82c.32,0,.3-.12.38-.11s0,0,0,.27a4.93,4.93,0,0,1-.11.67c0,.07-.13.07-.13,0,0-.44-.27-.44-.72-.46H38.79C38.78,63.49,38.79,64.56,38.82,65.24Z"/><path class="cls-1" d="M51.11,66.18v.24s-.08,0-.24-.19c-.69-.79-1.42-1.59-2.75-2.92-1-1.06-1.88-1.93-2.33-2.35,0,.84,0,2.91.09,4.43,0,.44.21.72.87.79.08,0,.1.12,0,.12h-2c-.08,0-.07-.12,0-.12.39-.08.54-.18.58-.73.09-1.21.11-2.94.11-3.83V59.47s.08,0,.23.17c.8.89,1.68,1.83,2.77,2.92,1,.94,1.74,1.76,2.33,2.3,0-1.28,0-2.68-.06-4.2,0-.79-.13-.91-.74-1-.07,0-.08-.12,0-.12h1.82c.09,0,.06.12,0,.12-.41.07-.52.36-.54.86C51.15,62.2,51.11,63.8,51.11,66.18Z"/><path class="cls-1" d="M60.27,59.67a.59.59,0,0,1,.43.64c0,.33-.05.72-.07,1.13,0,.08-.15.07-.15,0a1.91,1.91,0,0,0-2-1.78h-.11c-1.77,0-2.9,1.08-2.85,3.22.06,2.32,1.45,3.25,3,3.25a1.78,1.78,0,0,0,2.09-1.7.07.07,0,0,1,.14,0h0v.75c0,.78-.19.83-.55,1a4.25,4.25,0,0,1-1.73.27c-2.39,0-3.87-1.37-3.87-3.45a3.42,3.42,0,0,1,3.2-3.63,3.51,3.51,0,0,1,.56,0A5.68,5.68,0,0,1,60.27,59.67Z"/><path class="cls-1" d="M65.11,65.24c0,.65.15.69.72.7s.64,0,.91,0c.91,0,1.09-.6,1.22-1.28a.07.07,0,0,1,.13,0A9.94,9.94,0,0,1,68,66c0,.24-.22.33-.64.33H63.57a.06.06,0,0,1,0-.12c.57-.07.69-.17.72-1.1V60.88c0-.9,0-1.1-.75-1.19-.08,0-.1-.12,0-.12h3.55c.32,0,.49,0,.47.28s-.07.67-.12,1c0,.08-.14.08-.13,0,0-.54-.19-.9-.74-1a12.51,12.51,0,0,0-1.5,0v2.72h1.81c.32,0,.31-.12.38-.11s0,0,0,.27a3,3,0,0,1-.11.67c0,.07-.13.07-.13,0,0-.44-.27-.44-.71-.46H65.09C65.08,63.49,65.09,64.56,65.11,65.24Z"/><path class="cls-1" d="M71.17,64.48c0-.07.12-.06.12,0,0,1.06.57,1.72,1.51,1.72a1.31,1.31,0,0,0,1.46-1.14.57.57,0,0,0,0-.13c0-.91-.58-1.29-1.57-1.8a2.25,2.25,0,0,1-1.46-2.06A1.74,1.74,0,0,1,73,59.37l.22,0a3.36,3.36,0,0,1,1,.14.51.51,0,0,1,.38.61h0c0,.16-.07.58-.1.81,0,.08-.12,0-.12,0a1.28,1.28,0,0,0-1.25-1.31h0a1.11,1.11,0,0,0-1.23,1v.2A1.75,1.75,0,0,0,73,62.38c1.35.69,1.9,1.26,1.87,2.3a1.94,1.94,0,0,1-2.08,1.79h-.08a3,3,0,0,1-1.22-.23.73.73,0,0,1-.45-.59A4.13,4.13,0,0,1,71.17,64.48Z"/><path class="cls-2" d="M60.55,35.48s0,.06.06,0S60.57,35.45,60.55,35.48Z"/><polygon class="cls-2" points="59.88 35.88 59.99 35.85 59.96 35.85 59.88 35.88"/><path class="cls-2" d="M59.72,36c-.09.08-.27.09-.29.18.08-.07.25-.11.37-.19h-.08Z"/><path class="cls-2" d="M59.19,36.47h.06C59.11,36.48,59.2,36.44,59.19,36.47Z"/><path class="cls-2" d="M59,36.59v-.05h0S58.9,36.61,59,36.59Z"/><path class="cls-2" d="M58.94,36.51H59S58.93,36.49,58.94,36.51Z"/><path class="cls-2" d="M59.05,36.42c.09,0,0,0,0,.06C59.21,36.42,59.21,36.36,59.05,36.42Z"/><path class="cls-2" d="M59.41,36.08v.05s.07-.06.1-.06Z"/><path class="cls-2" d="M58.42,36.74a.11.11,0,0,0,.09-.06h-.07S58.41,36.73,58.42,36.74Z"/><path class="cls-2" d="M58.34,36.67h.1S58.43,36.65,58.34,36.67Z"/><path class="cls-2" d="M58,36.8l.11.05h-.06Z"/><path class="cls-2" d="M57.79,36.84a.31.31,0,0,1-.19,0h.18S57.84,36.86,57.79,36.84Z"/><path class="cls-2" d="M58.11,36.77a.13.13,0,0,0,.07-.06h0Z"/><polygon class="cls-2" points="58.06 36.73 58.14 36.72 58.14 36.72 58.06 36.73"/><path class="cls-2" d="M58.5,36.49c-.1.07,0,.06.08.07C58.48,36.55,58.54,36.51,58.5,36.49Z"/><path class="cls-2" d="M58.32,36.61h0Z"/><polygon class="cls-2" points="58.19 36.65 58.22 36.64 58.17 36.64 58.19 36.65"/><path class="cls-2" d="M57.71,36.74h0C57.75,36.78,57.72,36.76,57.71,36.74Z"/><polygon class="cls-2" points="56.99 36.75 56.99 36.74 56.98 36.75 56.99 36.75"/><path class="cls-2" d="M57.72,36.74h.11A.11.11,0,0,0,57.72,36.74Z"/><path class="cls-2" d="M57.43,36.79h-.08S57.41,36.81,57.43,36.79Z"/><path class="cls-2" d="M57.08,36.81l.15-.05H57S57,36.78,57.08,36.81Z"/><path class="cls-2" d="M57.44,36.78h0c.14,0-.12-.06.08,0-.07,0,0-.06-.16-.06s0,.07.08.11h0Z"/><path class="cls-2" d="M58.37,36.44Z"/><path class="cls-2" d="M58.3,36.47a.75.75,0,0,0-.07.12.83.83,0,0,1,.15-.11h0c.08,0,0,0,0,0h0Z"/><path class="cls-2" d="M57.71,36.62h.16s0,0-.09,0h-.07Z"/><path class="cls-2" d="M56.89,36.74l.09.08h0Z"/><polygon class="cls-2" points="56.69 36.75 56.75 36.78 56.75 36.74 56.69 36.75"/><path class="cls-2" d="M52.93,33.18a.19.19,0,0,0,.08.14.24.24,0,0,1,0-.12Z"/><path class="cls-2" d="M54.57,35.8a.57.57,0,0,0,.13.08C54.71,35.83,54.64,35.83,54.57,35.8Z"/><path class="cls-2" d="M54.57,35.8a.52.52,0,0,1-.11-.1h0A.18.18,0,0,0,54.57,35.8Z"/><path class="cls-2" d="M56.34,36.68h0Z"/><path class="cls-2" d="M57.27,36.55h0C57.17,36.52,57.21,36.54,57.27,36.55Z"/><path class="cls-2" d="M56.6,36.57h-.14S56.61,36.63,56.6,36.57Z"/><path class="cls-2" d="M56.69,36.59h-.06S56.69,36.61,56.69,36.59Z"/><path class="cls-2" d="M55.78,36.51Z"/><polygon class="cls-2" points="56.49 36.44 56.52 36.48 56.55 36.44 56.49 36.44"/><path class="cls-2" d="M56.17,36.38h0Z"/><path class="cls-2" d="M54.91,35.76l.09.08v-.06C55,35.72,54.91,35.74,54.91,35.76Z"/><polygon class="cls-2" points="60.7 35.36 60.75 35.27 60.72 35.29 60.7 35.36"/><path class="cls-2" d="M60.57,35.35v.06h.08Z"/><path class="cls-2" d="M46.83,14.36Z"/><polygon class="cls-2" points="47.58 14.57 47.49 14.51 47.5 14.53 47.58 14.57"/><path class="cls-2" d="M47.78,14.6c.11,0,.25.13.33.08a3,3,0,0,1-.39-.14v.08Z"/><path class="cls-2" d="M48.48,14.65h-.06C48.54,14.7,48.45,14.67,48.48,14.65Z"/><path class="cls-2" d="M48.71,14.71h-.08l.07.06C48.77,14.77,48.79,14.76,48.71,14.71Z"/><path class="cls-2" d="M48.68,14.8h0l-.08-.07S48.68,14.82,48.68,14.8Z"/><path class="cls-2" d="M48.59,14.75c-.16-.08-.2,0-.05,0C48.47,14.73,48.53,14.74,48.59,14.75Z"/><path class="cls-2" d="M48,14.73h.07S48,14.75,48,14.73Z"/><path class="cls-2" d="M49.22,15.12,49.15,15A.12.12,0,0,0,49.22,15.12Z"/><path class="cls-2" d="M48.76,15l-.14-.13.11.12Z"/><path class="cls-2" d="M49.88,15.51a.86.86,0,0,0-.1-.16c0,.05-.07,0-.06.05A.57.57,0,0,1,49.88,15.51Z"/><path class="cls-2" d="M49.45,15.22h0Z"/><polygon class="cls-2" points="49.46 15.28 49.39 15.23 49.39 15.23 49.46 15.28"/><path class="cls-2" d="M49,15.13c.12,0,0-.05,0-.11Z"/><path class="cls-2" d="M49.19,15.17l.09.05-.08-.09S49.2,15.16,49.19,15.17Z"/><polygon class="cls-2" points="49.31 15.24 49.28 15.22 49.31 15.26 49.31 15.24"/><path class="cls-2" d="M49.71,15.52l.14.11-.1-.12S49.71,15.5,49.71,15.52Z"/><polygon class="cls-2" points="50.22 16.03 50.21 16.03 50.22 16.04 50.22 16.03"/><path class="cls-2" d="M49.7,15.51h0l-.08-.08A.11.11,0,0,0,49.7,15.51Z"/><path class="cls-2" d="M49.59,15.38v.06A.06.06,0,0,0,49.59,15.38Z"/><path class="cls-2" d="M50.19,15.93l-.14-.08h0l.15.16A.22.22,0,0,0,50.19,15.93Z"/><path class="cls-2" d="M49.94,15.69l-.09-.06.07.09c-.12-.09,0,.12-.1,0,0,.07,0,.06.07.15s0-.07,0-.13h0l.12.14a.61.61,0,0,0-.12-.16Z"/><path class="cls-2" d="M49,15.26h0l0,.06h0C49,15.18,49,15.24,49,15.26Z"/><path class="cls-2" d="M49.55,15.57h.09l-.1-.12A.08.08,0,0,0,49.55,15.57Z"/><polygon class="cls-2" points="50.41 16.18 50.38 16.21 50.42 16.25 50.41 16.18"/><path class="cls-2" d="M50.49,21.43v-.15a.21.21,0,0,1-.06.1Z"/><path class="cls-2" d="M51.23,18.43a.38.38,0,0,0,0-.15A.17.17,0,0,0,51.23,18.43Z"/><path class="cls-2" d="M44.49,22.7Z"/><path class="cls-2" d="M51.23,18.43v.15h0A.19.19,0,0,0,51.23,18.43Z"/><path class="cls-2" d="M50.87,17v-.07h0Z"/><path class="cls-2" d="M50.45,16.54c0-.08-.05-.15-.09-.1h0S50.4,16.55,50.45,16.54Z"/><path class="cls-2" d="M50.31,16.36v.06S50.32,16.34,50.31,16.36Z"/><path class="cls-2" d="M50.89,17.07v.05C50.89,17.17,50.93,17,50.89,17.07Z"/><polygon class="cls-2" points="50.35 16.56 50.3 16.57 50.34 16.61 50.35 16.56"/><path class="cls-2" d="M50.53,16.92l.06.08a.19.19,0,0,0-.06-.12C50.47,16.82,50.54,16.91,50.53,16.92Z"/><path class="cls-2" d="M50.53,16.88V16.8A.11.11,0,0,0,50.53,16.88Z"/><path class="cls-2" d="M50.92,18.15v-.06S50.93,18.12,50.92,18.15Z"/><polygon class="cls-2" points="46.63 14.34 46.54 14.37 46.58 14.38 46.63 14.34"/><path class="cls-2" d="M46.8,14.43l-.06-.06v.07Z"/><path class="cls-2" d="M26.7,15.51s0-.06-.06,0S26.67,15.54,26.7,15.51Z"/><polygon class="cls-2" points="27.37 15.11 27.27 15.14 27.29 15.14 27.37 15.11"/><path class="cls-2" d="M27.53,15c.08-.08.27-.08.29-.18a2.58,2.58,0,0,1-.37.19h.08Z"/><path class="cls-2" d="M28.06,14.52H28C28.14,14.51,28.05,14.56,28.06,14.52Z"/><path class="cls-2" d="M28.26,14.4h0S28.35,14.38,28.26,14.4Z"/><path class="cls-2" d="M28.31,14.48h-.1S28.32,14.5,28.31,14.48Z"/><path class="cls-2" d="M28.2,14.58c-.09,0,0,0,0-.06C28,14.57,28,14.63,28.2,14.58Z"/><path class="cls-2" d="M27.84,14.92v-.05a.3.3,0,0,1-.1.05Z"/><path class="cls-2" d="M28.83,14.25l-.09.07h.07S28.84,14.26,28.83,14.25Z"/><path class="cls-2" d="M28.91,14.32h-.1S28.82,14.35,28.91,14.32Z"/><path class="cls-2" d="M29.46,14.15a.31.31,0,0,1,.19,0,.41.41,0,0,0-.19-.05C29.51,14.1,29.41,14.13,29.46,14.15Z"/><path class="cls-2" d="M29.14,14.23h0Z"/><polygon class="cls-2" points="29.19 14.26 29.11 14.28 29.11 14.28 29.19 14.26"/><path class="cls-2" d="M28.75,14.5c.1-.07,0-.06-.08-.07S28.7,14.48,28.75,14.5Z"/><path class="cls-2" d="M28.92,14.38h0S28.92,14.37,28.92,14.38Z"/><polygon class="cls-2" points="29.06 14.34 29.02 14.35 29.08 14.35 29.06 14.34"/><path class="cls-2" d="M29.54,14.24h0C29.5,14.21,29.53,14.23,29.54,14.24Z"/><polygon class="cls-2" points="30.25 14.24 30.25 14.25 30.26 14.24 30.25 14.24"/><path class="cls-2" d="M29.52,14.26h-.11A.11.11,0,0,0,29.52,14.26Z"/><path class="cls-2" d="M29.82,14.2h0Z"/><path class="cls-2" d="M30.17,14.18a.44.44,0,0,1-.15.05h.23Z"/><path class="cls-2" d="M29.81,14.21h0c-.14,0,.12.07-.08.06.07,0,0,.05.16.05s0-.07-.08-.11h0Z"/><path class="cls-2" d="M29,14.53a.29.29,0,0,0,0-.13.42.42,0,0,1-.15.11h0c-.08,0,0,0,0,.05h0a.1.1,0,0,1,.14,0Z"/><path class="cls-2" d="M30.36,14.24l-.09-.07v.05Z"/><polygon class="cls-2" points="30.55 14.24 30.5 14.21 30.5 14.25 30.55 14.24"/><path class="cls-2" d="M34.23,17.68a.21.21,0,0,1,0,.11h0A.07.07,0,0,0,34.23,17.68Z"/><path class="cls-2" d="M32.68,15.19a.37.37,0,0,0-.14-.07Z"/><path class="cls-2" d="M32.68,15.19a.52.52,0,0,1,.11.1h0A.18.18,0,0,0,32.68,15.19Z"/><path class="cls-2" d="M30.91,14.32h0Z"/><path class="cls-2" d="M30,14.45Z"/><path class="cls-2" d="M30.65,14.42h0c.06,0,.12.05.14,0S30.64,14.36,30.65,14.42Z"/><path class="cls-2" d="M30.56,14.41h.06S30.56,14.38,30.56,14.41Z"/><path class="cls-2" d="M31.47,14.48Z"/><polygon class="cls-2" points="30.76 14.56 30.73 14.51 30.7 14.55 30.76 14.56"/><path class="cls-2" d="M32.34,15.23l-.09-.08v.07C32.25,15.29,32.34,15.25,32.34,15.23Z"/><polygon class="cls-2" points="26.55 15.63 26.5 15.72 26.53 15.7 26.55 15.63"/><path class="cls-2" d="M26.68,15.64a.06.06,0,0,1,.05-.06h-.09Z"/><path class="cls-2" d="M35.11,8.4V8.35S35.07,8.35,35.11,8.4Z"/><polygon class="cls-2" points="34.75 7.78 34.75 7.76 34.73 7.68 34.75 7.78"/><path class="cls-2" d="M34.42,7.23a1.41,1.41,0,0,1,.18.37V7.52h0C34.52,7.43,34.52,7.24,34.42,7.23Z"/><path class="cls-2" d="M34.13,7v.06h0C34.12,6.91,34.16,7,34.13,7Z"/><path class="cls-2" d="M34,6.79h0v0S34,6.7,34,6.79Z"/><path class="cls-2" d="M34.08,6.7Z"/><path class="cls-2" d="M34.08,6.7v0S34.1,6.71,34.08,6.7Z"/><path class="cls-2" d="M34.13,6.85c0,.16.11.16,0,0Z"/><path class="cls-2" d="M34.53,7.21h-.06a.36.36,0,0,1,.06.11Z"/><path class="cls-2" d="M33.92,6.31V6.24h-.07Z"/><path class="cls-2" d="M33.79,5.84h0v0Z"/><path class="cls-2" d="M33.73,5.4a.54.54,0,0,0,0,.18h.07A.36.36,0,0,1,33.73,5.4Z"/><path class="cls-2" d="M33.89,6Z"/><polygon class="cls-2" points="33.87 5.86 33.88 5.94 33.89 5.94 33.87 5.86"/><path class="cls-2" d="M34,6.38c0-.1,0,0,.07-.08S34,6.31,34,6.38Z"/><polygon class="cls-2" points="33.95 5.99 33.96 6.02 33.96 5.97 33.95 5.99"/><path class="cls-2" d="M33.85,5.51V5.33a.38.38,0,0,1,0,.15C33.82,5.55,33.84,5.52,33.85,5.51Z"/><polygon class="cls-2" points="33.85 4.79 33.86 4.79 33.85 4.78 33.85 4.79"/><path class="cls-2" d="M33.86,5.52h0v.11A.11.11,0,0,0,33.86,5.52Z"/><path class="cls-2" d="M33.81,5.23V5.15S33.79,5.21,33.81,5.23Z"/><path class="cls-2" d="M33.85,5.7v0Z"/><path class="cls-2" d="M33.79,4.88a.88.88,0,0,1,.05.15V5h0V4.79A.32.32,0,0,0,33.79,4.88Z"/><path class="cls-2" d="M33.81,5.23v0c0,.15.06-.11,0,.09,0-.07.06,0,.06-.16s-.07,0-.11.07h0v0Z"/><path class="cls-2" d="M34.16,6.17Z"/><path class="cls-2" d="M34.16,6.17h0V6.09L34,6a.67.67,0,0,1,.11.15h0C34.16,6.27,34.16,6.2,34.16,6.17Z"/><path class="cls-2" d="M34,5.5v.17s0,0,0-.09h0Z"/><path class="cls-2" d="M33.85,4.69l-.07.09h0Z"/><polygon class="cls-2" points="33.85 4.49 33.82 4.55 33.86 4.55 33.85 4.49"/><path class="cls-2" d="M37.42.73a.21.21,0,0,0-.14.08.24.24,0,0,1,.12,0Z"/><path class="cls-2" d="M34.8,2.36a.61.61,0,0,0-.07.14A.76.76,0,0,0,34.8,2.36Z"/><path class="cls-2" d="M42.6,4V4C42.6,3.9,42.59,4,42.6,4Z"/><path class="cls-2" d="M34.8,2.36l.1-.1h0A.24.24,0,0,0,34.8,2.36Z"/><path class="cls-2" d="M34.08,3.62v.06h0A.06.06,0,0,1,34.08,3.62Z"/><path class="cls-2" d="M33.92,4.14v0Z"/><path class="cls-2" d="M34.06,5.07h0C34.08,5,34.06,5,34.06,5.07Z"/><path class="cls-2" d="M34,4.27c0,.07-.07.14,0,.13h0C34.05,4.34,34.08,4.29,34,4.27Z"/><path class="cls-2" d="M34,4.42v0Z"/><path class="cls-2" d="M34.14,3.55c.09-.16-.12,0,0,0S34.14,3.59,34.14,3.55Z"/><polygon class="cls-2" points="34.16 4.35 34.16 4.29 34.12 4.32 34.16 4.35"/><path class="cls-2" d="M34.26,3.83V4h0A.54.54,0,0,1,34.26,3.83Z"/><path class="cls-2" d="M34.19,4V3.92A.11.11,0,0,0,34.19,4Z"/><path class="cls-2" d="M34.82,2.78V2.71l-.08.09Z"/><polygon class="cls-2" points="35.24 8.5 35.33 8.55 35.31 8.51 35.24 8.5"/><path class="cls-2" d="M35.19,8.32V8.4h.06Z"/><polygon class="cls-2" points="42.41 32.7 42.48 32.61 42.46 32.62 42.41 32.7"/><path class="cls-2" d="M42.39,32.9c0,.11-.13.25-.08.33a3,3,0,0,1,.14-.39h-.08Z"/><path class="cls-2" d="M42.35,33.6v-.06h0C42.3,33.67,42.33,33.57,42.35,33.6Z"/><path class="cls-2" d="M42.3,33.76l-.06.07c0,.06,0,.08.06,0S42.31,33.78,42.3,33.76Z"/><path class="cls-2" d="M42.21,33.81h0l.06-.08S42.18,33.8,42.21,33.81Z"/><path class="cls-2" d="M42.25,33.71c.08-.16,0-.2,0,0C42.27,33.59,42.26,33.66,42.25,33.71Z"/><path class="cls-2" d="M42.27,33.12v.12S42.25,33.15,42.27,33.12Z"/><path class="cls-2" d="M41.89,34.35l.08-.07S41.93,34.27,41.89,34.35Z"/><path class="cls-2" d="M42.07,33.86h0l.14-.15Z"/><path class="cls-2" d="M41.62,34.85a.36.36,0,0,1-.11.16.4.4,0,0,0,.15-.1S41.67,34.84,41.62,34.85Z"/><polygon class="cls-2" points="41.74 34.59 41.78 34.52 41.78 34.52 41.74 34.59"/><path class="cls-2" d="M42,34.1c-.08.06-.07,0-.11,0S41.93,34.14,42,34.1Z"/><path class="cls-2" d="M41.84,34.32l-.05.09.09-.08Z"/><polygon class="cls-2" points="41.77 34.44 41.79 34.41 41.75 34.44 41.77 34.44"/><path class="cls-2" d="M41.5,34.84l-.11.14a.47.47,0,0,1,.12-.09S41.52,34.84,41.5,34.84Z"/><polygon class="cls-2" points="41 35.35 40.99 35.35 40.99 35.36 41 35.35"/><path class="cls-2" d="M41.5,34.83h0l.08-.08A.16.16,0,0,0,41.5,34.83Z"/><path class="cls-2" d="M41.33,35.07v.08A.2.2,0,0,1,41.33,35.07Z"/><path class="cls-2" d="M41.1,35.33a.61.61,0,0,1,.07-.14h0l-.15.14S41,35.37,41.1,35.33Z"/><path class="cls-2" d="M41.33,35.07h0l.06-.09a.27.27,0,0,1-.08.07c.08-.12-.12,0,0-.09-.07,0-.07,0-.15.07s.07,0,.13,0l-.14.13.16-.12Z"/><path class="cls-2" d="M41.72,34.23a.33.33,0,0,0,0,.14v-.18h0c0-.09,0,0-.06,0h0S41.74,34.22,41.72,34.23Z"/><path class="cls-2" d="M41.44,34.69h0v.09l.13-.11A.09.09,0,0,0,41.44,34.69Z"/><polygon class="cls-2" points="40.78 35.57 40.84 35.55 40.81 35.52 40.78 35.57"/><path class="cls-2" d="M35.6,35.71h.15a.21.21,0,0,1-.1-.06Z"/><path class="cls-2" d="M38.61,36.4h.15A.23.23,0,0,0,38.61,36.4Z"/><path class="cls-2" d="M34.25,29.73Z"/><path class="cls-2" d="M38.61,36.4h-.15A.2.2,0,0,0,38.61,36.4Z"/><path class="cls-2" d="M40.48,35.76l-.07.07h.09A.25.25,0,0,0,40.48,35.76Z"/><path class="cls-2" d="M41.05,35Z"/><path class="cls-2" d="M40.49,35.59c.07,0,.15-.05.1-.09h0C40.54,35.53,40.48,35.55,40.49,35.59Z"/><path class="cls-2" d="M40.66,35.46Z"/><polygon class="cls-2" points="40.47 35.5 40.46 35.44 40.42 35.49 40.47 35.5"/><path class="cls-2" d="M40.15,35.68h0l-.09.06Z"/><polygon class="cls-2" points="42.61 31.66 42.59 31.69 42.63 31.75 42.61 31.66"/><path class="cls-2" d="M42.54,31.91l.06-.05h-.06Z"/><path class="cls-2" d="M23.73,32.32h.05S23.73,32.28,23.73,32.32Z"/><polygon class="cls-2" points="23.54 33.07 23.59 32.98 23.58 32.99 23.54 33.07"/><path class="cls-2" d="M23.51,33.27c0,.11-.13.25-.08.33a3,3,0,0,1,.13-.39h-.07Z"/><path class="cls-2" d="M23.47,34v-.07h0C23.42,34,23.45,33.94,23.47,34Z"/><path class="cls-2" d="M23.42,34.12l-.07.08c0,.06,0,.08.07,0S23.42,34.15,23.42,34.12Z"/><path class="cls-2" d="M23.33,34.18h0l.06-.07S23.3,34.18,23.33,34.18Z"/><path class="cls-2" d="M23.37,34.08c.08-.16,0-.2,0,0C23.39,34,23.38,34,23.37,34.08Z"/><path class="cls-2" d="M23.39,33.49h0v.06A.06.06,0,0,1,23.39,33.49Z"/><path class="cls-2" d="M23,34.71l.07-.06S23.05,34.64,23,34.71Z"/><path class="cls-2" d="M23.19,34.23h0l.14-.14Z"/><path class="cls-2" d="M22.86,35.05,23,35h-.07Z"/><path class="cls-2" d="M22.74,35.22a.28.28,0,0,1-.12.16.59.59,0,0,0,.17-.1C22.74,35.3,22.79,35.21,22.74,35.22Z"/><polygon class="cls-2" points="22.85 34.96 22.9 34.89 22.9 34.89 22.85 34.96"/><path class="cls-2" d="M23.1,34.47c-.07.06-.06,0-.1,0S23.05,34.51,23.1,34.47Z"/><path class="cls-2" d="M23,34.69l-.05.09L23,34.7Z"/><polygon class="cls-2" points="22.89 34.81 22.91 34.78 22.87 34.81 22.89 34.81"/><path class="cls-2" d="M22.62,35.21l-.11.14.12-.09S22.64,35.22,22.62,35.21Z"/><polygon class="cls-2" points="22.12 35.73 22.11 35.72 22.11 35.73 22.12 35.73"/><path class="cls-2" d="M22.62,35.2h0l.08-.08A.28.28,0,0,0,22.62,35.2Z"/><path class="cls-2" d="M22.45,35.44v0Z"/><path class="cls-2" d="M22.75,35.09h0Z"/><path class="cls-2" d="M22.22,35.7a.61.61,0,0,1,.07-.14h0l-.15.15Z"/><path class="cls-2" d="M22.45,35.44h0l.06-.09a.27.27,0,0,1-.08.07c.08-.11-.13,0,0-.09-.07,0-.06,0-.15.07s.07,0,.13,0l-.14.13.16-.12Z"/><path class="cls-2" d="M22.84,34.6a.33.33,0,0,0,0,.14.54.54,0,0,1,0-.18h0c0-.09,0,0-.06,0h0S22.85,34.59,22.84,34.6Z"/><path class="cls-2" d="M22.56,35.06h0v.09l.12-.11A.1.1,0,0,0,22.56,35.06Z"/><polygon class="cls-2" points="21.9 35.93 21.97 35.92 21.93 35.89 21.9 35.93"/><path class="cls-2" d="M16.72,36.08h.15a.21.21,0,0,1-.1-.06Z"/><path class="cls-2" d="M19.73,36.77h.15A.23.23,0,0,0,19.73,36.77Z"/><path class="cls-2" d="M15.37,30.11Z"/><path class="cls-2" d="M19.73,36.77h-.15A.2.2,0,0,0,19.73,36.77Z"/><path class="cls-2" d="M23.63,31.61v.08S23.64,31.62,23.63,31.61Z"/><path class="cls-2" d="M21.28,36.32Z"/><path class="cls-2" d="M21.6,36.14l-.07.06.1-.05Z"/><path class="cls-2" d="M21.61,36c.08,0,.15,0,.1-.08h0C21.66,35.9,21.6,35.92,21.61,36Z"/><path class="cls-2" d="M21.78,35.83h-.05S21.8,35.84,21.78,35.83Z"/><path class="cls-2" d="M21,36.4c-.18,0,.1.05.05,0S21.06,36.37,21,36.4Z"/><polygon class="cls-2" points="21.59 35.87 21.58 35.81 21.53 35.86 21.59 35.87"/><path class="cls-2" d="M21.14,36.11a.2.2,0,0,0,.13-.06h0Z"/><path class="cls-2" d="M21.27,36.05a.11.11,0,0,0,.08,0S21.3,36,21.27,36.05Z"/><path class="cls-2" d="M20,36.46h0Z"/><polygon class="cls-2" points="23.73 32.03 23.71 32.06 23.75 32.12 23.73 32.03"/><path class="cls-2" d="M23.66,32.28l.06-.05h-.07A.2.2,0,0,1,23.66,32.28Z"/><path class="cls-2" d="M34.18,19.14c.09-.17,0-.13.13-.33-.06.09-.08.05-.11,0l.08-.13h-.06a.28.28,0,0,0,0-.18h0s0-.28.09-.32,0-.18-.09-.2,0-.05,0-.08.09,0,.06,0h-.06v-.1a.09.09,0,0,0,0-.07h0a.13.13,0,0,1,0-.12.75.75,0,0,1-.1-.32A.44.44,0,0,0,34,17v.09c-.07-.18-.22-.31-.24-.43h0a1,1,0,0,0-.15-.32h0l-.19-.27c-.07-.1-.15-.18-.22-.18s-.16-.16-.22-.23h0a1.07,1.07,0,0,1-.18-.19c-.24-.09-.37-.29-.55-.39h0l-.17-.13c0,.06,0,0-.08-.07a.54.54,0,0,0-.25-.09l-.12-.06c.13.09,0,0-.06.09l-.07-.06h0c0-.05-.21-.1-.24-.17H31c.14-.06-.28-.06-.18-.13-.11.06-.06,0-.13.05a.67.67,0,0,1,.33.15h-.1c0,.09.22,0,.26.06s-.12,0-.13,0l0-.06a.65.65,0,0,1,.32.16c-.1,0,.09.08,0,.1h-.07L31,14.79h-.06a2.21,2.21,0,0,0-.37-.08c0-.06-.16-.11-.11-.14s0,0-.17,0,.11-.06.14-.07-.09-.05-.1-.07-.16.2-.07.24a.19.19,0,0,1,.18,0,4.28,4.28,0,0,0-3.5,1.21l-.17.18c0-.07,0-.15-.07-.13h.06c-.07,0-.17.18-.25.18a2.44,2.44,0,0,0-.1.24s-.07,0-.06-.05-.07.1,0,0c-.11.3-.26.56-.39.84a2.26,2.26,0,0,0-.27.87h0a1.65,1.65,0,0,0-.07.16l.06.17c0,.06-.05,0-.07,0,0,.29,0,.57,0,.86,0,.08.07,0,.09.08-.05-.07-.06,0-.06.09v.13s.09.37.22.3c0,.12,0,.11-.06.08a1.15,1.15,0,0,1,.06.37s.07.2.14.36a.71.71,0,0,0,.23.34c-.1,0,0,0,0,.11h-.09L26,21h.08a.52.52,0,0,1,.07.21h0l.05.08c0,.05-.09-.22.06-.07,0,0,0,.16.07.18s0-.1,0-.08l.1.12h-.1a4.89,4.89,0,0,0,1,.87s.28.17.29.07h0c-.09-.07.07-.06.14,0-.1,0,.1.17-.11.06l.05,0h.53c1.33,0,3.68-.32,4.55-2.44h.09a5.4,5.4,0,0,1-1.62,2.73.61.61,0,0,1,.14-.07c.08,0,.06,0,0,.06s.41-.1.44-.15,0-.07,0-.12.05.14.21,0h.06c.07-.06.09-.29.18-.3v.05c.15-.05.21-.31.29-.24v0c.15-.21.1,0,.25-.27h0c.08-.07.08-.16.18-.14h0a2.09,2.09,0,0,0,.2-.22.07.07,0,0,0,.07-.07c0-.07.23-.25.25-.3s-.06,0-.07,0,.12-.06.14-.16.16.07.26-.09h-.06v-.07h-.06c-.06,0,.11-.18.21-.34h-.06c-.06,0,0-.26.11-.15a3.25,3.25,0,0,1,.14-.58.79.79,0,0,0,0-.43V19ZM26.05,21Zm4.34-6.5Zm1.53.5H32a.21.21,0,0,1-.14-.1L32,15a1.33,1.33,0,0,1-.28-.1s0-.12.09-.13a.25.25,0,0,1,.2.14.58.58,0,0,0,.21.2s0-.1.11,0a.56.56,0,0,1,.16.29A4.49,4.49,0,0,0,31.92,15Zm1,.81h0a.21.21,0,0,1,0,.11Zm.42,5.33v-.08h0V21h.06a.45.45,0,0,1,0,.16Zm.12-4.6a.54.54,0,0,0-.07-.13l.06-.06h-.07l-.09-.12h0a1.51,1.51,0,0,1,.26.18.25.25,0,0,1-.06.14Zm.41.9a1.8,1.8,0,0,0-.08-.21L33.9,17v.14h0a.55.55,0,0,1,0,.31Zm.18,1.44v-.1h.1Z"/><path class="cls-2" d="M42.72,5.42h0a.38.38,0,0,0,.07-.29h0V4.86c-.08,0-.06-.1-.06-.23s0-.27-.09-.29,0-.26,0-.35h0s-.12-.28-.15-.39,0,0,.07,0c-.12-.11-.1-.41-.15-.45s-.07,0-.12,0c-.06-.16.14,0,0-.21V3S42,2.9,42,2.82h0c0-.15-.31-.21-.24-.29h.05c-.21-.16-.05-.1-.27-.26h0c-.07-.09-.16-.08-.14-.18h0l-.21-.2s-.06-.07-.08-.07-.25-.23-.31-.26,0,.07,0,.07a.28.28,0,0,0-.16-.13.15.15,0,0,0,0-.13h-.76c-1.32,0-3.67.31-4.54,2.43h-.1a5.56,5.56,0,0,1,1.43-2.57h0L36.92,1h-.14a.5.5,0,0,0-.31.14s.06,0,.08,0c-.17.06-.3.21-.42.24v-.1a1.37,1.37,0,0,0-.32.16h0c-.06.05-.18.11-.27.19s-.18.15-.18.22-.16.16-.24.22h0a1.7,1.7,0,0,1-.19.19c-.09.23-.29.36-.4.55h0L34.38,3c.06,0-.05,0-.07.09a.43.43,0,0,0-.1.24.5.5,0,0,1-.05.13c.09-.13.05,0,.09.06l-.06.06h0s-.09.2-.16.24V3.75h0c0,.11,0,.06-.05.06s0,.19,0,.3c-.07-.15-.06.27-.13.18,0,.1,0,.06,0,.13A.71.71,0,0,1,34,4.09V4.2c.1,0,0-.23.07-.28s0,.13,0,.13H34a.65.65,0,0,1,.16-.32c0,.1.08-.09.09,0v.06h0s-.08.23-.11.35h0v.07h0a2.41,2.41,0,0,1-.07.37c0,.12-.11.17-.15.11s0,0,0,.18-.06-.11-.07-.15,0,.1-.07.1.2.17.24.07a.17.17,0,0,1,0-.17,4.28,4.28,0,0,0,1.21,3.5l.18.16c-.07,0-.15,0-.13.08V8.39c0,.07.18.17.17.26l.25.1s0,.07-.05,0,.09.07,0,.06c.3.11.56.26.84.39a2.43,2.43,0,0,0,.87.26h0c.13,0,.1,0,.16.07l.18-.07c.06,0,0,.06,0,.08a4.11,4.11,0,0,0,.86,0c.07,0,0-.07.08-.09s0,.06.09.06h.13s.37-.08.3-.21c.11,0,.11,0,.07.06a1.59,1.59,0,0,1,.38-.07l.38,0A.78.78,0,0,0,40.36,9c0,.1,0,0,.11,0v.09L40.6,9h0V8.92a.27.27,0,0,1,.21-.07h.08s-.22.09-.07-.06c0,0,.16,0,.18-.07s-.1,0-.08,0l.12-.1v.1a5.53,5.53,0,0,0,.87-1c-.06,0,.17-.28.06-.29h0c-.06.09,0-.07,0-.14,0,.1.16-.11.06.1l.13-.13c.11,0,.16-.12.2-.26a2.13,2.13,0,0,1,.13-.43h0c.14-.22.09-.54.12-.59h0A.66.66,0,0,0,42.72,5.42Zm-6.66-4a.6.6,0,0,1,.1.11l-.16.1v0l-.12.08h0a.84.84,0,0,1,.18-.28ZM35.53,2l-.1.1V2ZM34.29,3.23Zm-.17,1.42Zm.5-1.53a.14.14,0,0,0,0-.09.31.31,0,0,1-.1.15V3.07a.31.31,0,0,1-.11.27c-.11.1-.11,0-.12-.09a.25.25,0,0,1,.14-.2.41.41,0,0,0,.19-.2s-.09,0,0-.11A.55.55,0,0,1,35,2.58,4,4,0,0,0,34.62,3.12Zm6,5.87Zm.07-7.31h-.07V1.61l.13.14a.12.12,0,0,0-.07-.07Z"/><path class="cls-2" d="M61.81,32.85a4.11,4.11,0,0,0,0-.86c0-.07-.07,0-.09-.07s.06,0,.06-.1v-.13s-.09-.37-.22-.3c0-.11,0-.1.06-.07a1.21,1.21,0,0,1-.06-.38s-.07-.19-.14-.35a.79.79,0,0,0-.24-.35c.11.05,0,0,0-.11h.09l-.1-.16h0c0,.05,0,0-.08,0s0-.13-.07-.21h0v-.07c0-.06.09.22-.06.06,0,0,0-.16-.07-.18s0,.1,0,.08a.52.52,0,0,0-.1-.11h.1a4.65,4.65,0,0,0-1-.88c0,.06-.28-.17-.29-.06h0c.09.06-.07,0-.14,0,.1,0-.1-.17.11-.07H59c-1.33,0-3.68.32-4.55,2.44h-.09A5.38,5.38,0,0,1,56,28.24a.35.35,0,0,1-.13.08c-.08,0-.06,0,0-.07-.11.12-.41.1-.45.15s0,.08,0,.12,0-.14-.21,0h.06s-.1.29-.18.29v0c-.15,0-.21.31-.29.24V29c-.16.22-.1.05-.25.27h0c-.09.07-.08.16-.18.14h0a2.09,2.09,0,0,0-.2.22s-.07.05-.07.08-.23.24-.26.3.07,0,.07,0a.17.17,0,0,0-.13.16c-.07,0-.16-.06-.26.1,0,0,0-.06.06,0s0,.05,0,.06h.06c.06,0-.11.19-.21.34h.06c.06,0,0,.26-.11.15a3.58,3.58,0,0,1-.14.59,1,1,0,0,0,0,.43V32h0c-.09.17,0,.13-.13.33.06-.08.08,0,.11,0s0,.09-.08.14h.06a.28.28,0,0,0,0,.18h0s0,.28-.09.33,0,.17.09.2,0,.05,0,.08-.09,0-.06,0H53a.43.43,0,0,0,0,.16h0l0,.06h0a.11.11,0,0,1,0,.11.75.75,0,0,1,.1.32.52.52,0,0,0,.1.27h0c.06.17.21.3.24.42h-.05c.05.11.1.22.16.33h0l.19.27c.07.1.15.19.22.19s.16.15.22.23h0a1.7,1.7,0,0,1,.19.19c.23.09.36.29.55.4h0l.17.13c0-.06,0,0,.08.07a.46.46,0,0,0,.25.1h.12c-.13-.08,0,0,.06-.09l.06.07h0c0,.06.2.1.24.16h0c.11,0,.06,0,.06,0s.19,0,.3,0c-.14.07.28.06.18.13h.13a.71.71,0,0,1-.33-.15h.11c0-.1-.23,0-.28-.07a.17.17,0,0,0,.14,0v0a.65.65,0,0,1-.32-.16c.1,0-.09-.07,0-.1h.06a2,2,0,0,0,.35.11h.05l.37.08c0,.06.17.11.12.15s0,0,.17,0-.1.06-.14.07.09.06.09.07.17-.19.08-.23a.19.19,0,0,1-.18,0,4.22,4.22,0,0,0,3.5-1.21l.16-.18c0,.08,0,.15.08.14h-.06c.06,0,.17-.19.25-.19A2.44,2.44,0,0,0,61,35h0c-.07,0,.08-.09.06,0a8.26,8.26,0,0,1,.4-.85,2.23,2.23,0,0,0,.25-.87h0a1.65,1.65,0,0,0,.07-.16.87.87,0,0,0-.07-.17C61.77,32.8,61.8,32.86,61.81,32.85Zm-8.65-.64h-.09l.1-.11A.41.41,0,0,0,53.16,32.21ZM53.34,34v-.14h0a.42.42,0,0,1,.07-.27.29.29,0,0,0,.07.22A1.33,1.33,0,0,1,53.34,34Zm.54-4.14a.14.14,0,0,0,0,.09h0a.09.09,0,0,1,0,.07h-.06a.64.64,0,0,1,.06-.18Zm0,4.88a1.2,1.2,0,0,1-.26-.18l.11-.1.08.13-.06.07h.07l.09.12s0-.05,0-.06Zm.34.47a.24.24,0,0,1,0-.12l.09.1s-.06,0-.07,0Zm1.19,1.06a.26.26,0,0,1-.21-.14.52.52,0,0,0-.2-.19s0,.09-.11,0a.56.56,0,0,1-.16-.29,4.07,4.07,0,0,0,.55.37h-.09a.28.28,0,0,1,.14.1h-.11a.34.34,0,0,1,.28.11c.11.11.07,0,0,0Zm1.37.23ZM61.16,30Z"/><path class="cls-2" d="M51.25,19.18v-.31h0a1.22,1.22,0,0,1,0-.27,3,3,0,0,1-.1-.67h0v-.32a.54.54,0,0,0-.09-.25.61.61,0,0,1-.05-.12c0,.15-.07,0-.11,0v-.1h0c0-.07-.07-.21,0-.28h.06v-.07a.52.52,0,0,0-.23-.19c.15,0-.15-.24,0-.23-.11,0,0-.05-.12-.06a.7.7,0,0,1,.12.34l-.09-.06c0,.1.14.18.14.24s-.06-.11-.07-.1h.06a.6.6,0,0,1,.11.34c-.06-.07,0,.12-.06.08v-.07h0l-.17-.33h0v-.06h0l-.2-.31V16.2s-.07,0-.14-.12.12,0,.16,0,0-.1,0-.12-.26,0-.22.12L49.88,16V16h0a4.53,4.53,0,0,0-1.41-1h-.18c-1.32,0-3.67.32-4.54,2.44h-.1a5.5,5.5,0,0,1,1.57-2.68h0a2.24,2.24,0,0,0-.81.42h0a.27.27,0,0,0-.17.06c-.06.06-.05.11-.08.17s0,0-.06,0c-.26.17-.42.45-.62.59,0,.08.07,0,0,.12,0-.08,0,0-.11,0s-.12.12-.12.07c0,.14-.2.31-.06.35-.06.11-.1.06-.09,0a1.39,1.39,0,0,1-.23.31s-.09.18-.16.34a.84.84,0,0,0-.08.41c0-.1,0,0-.09.07v.09h0v.09a.31.31,0,0,1-.11.19h0V18c0,.07.1-.21.09,0,0,0-.12.11-.08.18,0-.11.05-.09.06-.05v.15l-.06-.06a5.09,5.09,0,0,0,.09,1.35c.06,0,.07.32.15.26h0c0-.11.09,0,.1.1-.06-.08,0,.2-.12,0v.19c-.07.08,0,.2,0,.33a1.53,1.53,0,0,1,.21.4h0c.06.26.32.46.33.52h.06a.56.56,0,0,0,.25.41h0a.39.39,0,0,0,.15.26h0l.19.19c0-.06.12,0,.2.13s.19.19.27.14.17.19.23.26h0c0,.13.28.12.38.17s0,.06,0,.07c.16,0,.35.23.41.22s.06,0,.1-.07-.07.13.16.13h0c.07,0,.27-.13.33-.08h0c.14.07.36-.07.37,0v.05h.37c.11,0,.17-.05.22,0h0a1.5,1.5,0,0,0,.3,0h.5c-.11,0-.07,0,0-.06s.12,0,.21,0,.06.16.25.12h0s0,0,0,0,.21,0,.39-.09c-.06,0,0,0,0-.07s.2-.16.19,0c.15-.1.34-.2.51-.3a.89.89,0,0,0,.34-.27c0-.05.12-.07.17-.1h0a1.83,1.83,0,0,0,.32-.14c-.1,0-.09,0,0-.1h.16v-.06a.4.4,0,0,0,.13-.13h0a2,2,0,0,1,.3-.16c.06,0,.11-.12.07-.21a.09.09,0,0,0,.07,0c0,.05,0,.08.06,0h0v0l.09-.12v0h0a.24.24,0,0,1,.06-.11.62.62,0,0,1,.17-.28.47.47,0,0,0,.12-.32v.08c.08-.17.06-.37.13-.47h0a.93.93,0,0,0,.12-.33h.06a1.94,1.94,0,0,1,.07-.33.38.38,0,0,0-.39-.54Zm-8.81-1.42Zm5.17,5.32h-.18l.06-.06h.16v.05h0ZM49.55,22l.08-.08a.16.16,0,0,0,.06.08ZM50,16.15a.19.19,0,0,1,.11.14Zm.13.16ZM51,17.45Zm-.31,3.24h0a.45.45,0,0,1-.24.14,1.24,1.24,0,0,0,.1-.2l.23-.11Zm.14-.73v-.14h0v-.15h0A1,1,0,0,1,51,20h-.18ZM51,19.2v-.14h0A.33.33,0,0,1,51,19.2Zm0-.79q0-.32-.12-.63v.07a.54.54,0,0,1,0-.18l.06.1c0-.09-.1-.14-.11-.26s.06-.11.15,0a.25.25,0,0,1,0,.24A.71.71,0,0,0,51,18s0-.08.06.08A.63.63,0,0,1,51,18.41Z"/><path class="cls-2" d="M40.43,35.59c-.1,0-.18.14-.24.14s.11-.06.1-.07v.06a.61.61,0,0,1-.34.12c0-.05,0,0-.06,0a2.59,2.59,0,0,1-.55.44h.1a.37.37,0,0,0,.24-.1h.13c-.15,0,0-.06,0-.1h.09s-.06,0,0,0l.28-.06a.06.06,0,0,1,0,.06h0c.09-.06.07,0,.07,0a.6.6,0,0,0,.2-.23c-.06.15.23-.15.22,0,0-.12,0,0,.06-.13a.71.71,0,0,1-.34.13Z"/><path class="cls-2" d="M42.44,31.24h.07s0-.12,0,0c-.13-.29-.21-.59-.31-.88a2.33,2.33,0,0,0-.44-.8h0a.25.25,0,0,0-.06-.16l-.17-.07v-.07c-.18-.26-.45-.41-.6-.61-.09,0,0,.06-.13,0,.09,0,0,0,0-.11s-.13-.11-.07-.11c-.14,0-.32-.2-.36-.06-.11-.06-.06-.1,0-.1a1.34,1.34,0,0,1-.31-.22,3.58,3.58,0,0,0-.35-.15.69.69,0,0,0-.4-.08c.1,0,0,0-.07-.09h.09l-.19-.05h-.08a.3.3,0,0,1-.2-.1h-.08c-.07,0,.21.1,0,.09,0,0-.11-.12-.18-.08.11,0,.1.05,0,.06H38.5l.06-.07a5.1,5.1,0,0,0-1.35.11c0,.07-.32.08-.25.17h0c.11,0,0,.08-.09.1.08-.06-.2-.05,0-.13h-.19c-.07-.07-.19,0-.32,0A1.49,1.49,0,0,1,36,28h0c-.25.05-.44.32-.5.33v.05a.68.68,0,0,0-.41.27h0a.39.39,0,0,0-.26.15h0l-.19.19c.06.05,0,.12-.13.21s-.19.18-.14.26-.18.18-.24.24h0S34,30,34,30.08s-.06,0-.08,0c0,.16-.22.35-.2.42s0,.06.07.1-.14-.07-.13.16v-.05s.14.27.09.34V31c-.07.14.07.36,0,.37h0v.37h0c0,.11,0,.17,0,.23h0v.29a.21.21,0,0,0,0,.11c-.06,0,0,.34,0,.4,0-.12,0-.07.06,0s0,.12,0,.2-.17.07-.12.26v0s0,0,.05,0a1,1,0,0,1,.09.39c0-.06,0,0,.08,0s.17.19,0,.18c.1.15.2.34.31.51a.88.88,0,0,0,.28.33,1.34,1.34,0,0,0,.1.17h0a1.83,1.83,0,0,0,.14.32c0-.1,0-.08.1-.05a.43.43,0,0,1,0,.16h.07a.25.25,0,0,0,.13.12h0a1.87,1.87,0,0,1,.17.3.14.14,0,0,0,.2.07v.07s-.08,0,0,.06h.05a.31.31,0,0,0,.11.09h.39l-.06-.11.21.1h.2c1.32,0,3.67-.32,4.54-2.44h.1A5.84,5.84,0,0,1,40,35.7l.27-.14h.06a2.2,2.2,0,0,0,.32-.21h.18s0-.07.11-.14,0,.12,0,.16.11,0,.12,0,0-.26-.12-.22a.24.24,0,0,1-.13.11,4.24,4.24,0,0,0,1.62-3.33v-.24c0-.08.1.1.15,0v.08c.07,0,0-.25.06-.3ZM34,32.85h-.06v-.18l.06.07h0v.11Zm1,2.07v-.15l.07.08A.23.23,0,0,0,35,34.92Zm4.15-7.31Zm1.54,7.67Z"/><polygon class="cls-2" points="39.95 35.75 39.95 35.76 39.96 35.75 39.95 35.75"/><path class="cls-2" d="M23.56,31.61h.07s0-.12,0,0c-.13-.29-.21-.59-.31-.88a2.33,2.33,0,0,0-.44-.8h0a.27.27,0,0,0-.06-.17l-.17-.08c0-.06,0,0,.05-.06-.18-.25-.46-.41-.6-.61-.09,0,0,.07-.13,0,.09,0,0-.05,0-.11s-.13-.11-.07-.11c-.14,0-.32-.2-.36-.06-.11-.06-.06-.1,0-.1l-.22-.14h-.55c-1.32,0-3.67.32-4.54,2.44h-.1a5.38,5.38,0,0,1,1.67-2.77.36.36,0,0,0-.27.08,3,3,0,0,1-.4.21h0c-.26.06-.45.32-.51.33v.06a.63.63,0,0,0-.41.26h0a.35.35,0,0,0-.26.15h0a1.7,1.7,0,0,0-.19.19c.06,0,0,.12-.13.2s-.19.2-.13.28-.19.17-.25.24h0c-.12,0-.11.27-.16.37s-.06,0-.07,0c0,.16-.23.36-.22.42s.2.05.2.05-.14-.07-.13.16v-.05s.14.27.09.34v-.06c-.07.14.07.36,0,.37h0v.36h0v.23h0a1.5,1.5,0,0,0,0,.3.17.17,0,0,0,0,.1c-.07,0,0,.34,0,.4,0-.12,0-.07.06,0a.18.18,0,0,0,0,.2c-.07,0-.16.07-.11.26v0s0,0,.05,0,.06.21.1.39c0-.06,0,0,.06,0s.17.19,0,.18c.1.15.2.34.31.51a1.13,1.13,0,0,0,.27.34c.06,0,.07.11.11.16h0c.06.18.07.12.15.32,0-.1,0-.09.1,0v.15h.06a.37.37,0,0,0,.13.12h0a1.35,1.35,0,0,1,.16.3c0,.06.13.11.21.07l.05.07c-.05,0-.08,0,0,.06h0l.12.1h0a.24.24,0,0,1,.11.06.64.64,0,0,1,.29.16.47.47,0,0,0,.32.12h-.09c.17.07.37.05.47.12h0a2,2,0,0,0,.34.12V37l.33.07a.37.37,0,0,0,.29,0h.31a1.22,1.22,0,0,1,.27,0,3,3,0,0,1,.67-.1h.32a.5.5,0,0,0,.24-.09l.13-.06c-.15,0,0-.06,0-.1H21c.07,0,.21-.07.28-.05v.05h0c.09-.06.06,0,.07,0a.47.47,0,0,0,.19-.23c-.05.15.24-.15.22,0,0-.12.06,0,.07-.13a.71.71,0,0,1-.34.13l.06-.09c-.1,0-.18.14-.24.14s.11-.06.1-.08v.07a.61.61,0,0,1-.34.12c.08-.06-.12,0-.08-.06h.07l.33-.17h.06l.32-.2H22s0-.07.11-.14,0,.12,0,.16.11,0,.12,0,0-.26-.12-.22a.18.18,0,0,1-.14.11L22,35.5l.12-.11h.05a4.23,4.23,0,0,0,1.37-3.11V32c.06.05.11.1.15,0v.08c.06,0,0-.25,0-.3Zm-8.49,1.61h0s0,.05-.05,0A.54.54,0,0,1,15,33l.05.05h0v.09S15.09,33.25,15.07,33.22Zm1.05,2.07v-.14l.07.07Zm1.34,1h-.05a.49.49,0,0,1-.14-.24l.2.1.11.22Zm1,.22a1.12,1.12,0,0,1-.31.05.38.38,0,0,1,0-.15h.14v0h.15Zm.57.08-.1-.05h.13v0Zm1.38-.05a.48.48,0,0,0-.29,0s.08.05-.09.07a.49.49,0,0,1-.31-.09,4.7,4.7,0,0,0,.63-.13h-.07a.25.25,0,0,1,.17,0l-.1,0c.09,0,.14-.09.27-.11s.1.06,0,.15a.28.28,0,0,1-.18,0Zm1.37-.87Z"/><path class="cls-3" d="M30.47,76.47a1.87,1.87,0,0,0,0,.21V77c0,.11,0,.2,0,.3v.21a2.07,2.07,0,0,0,0,.29.34.34,0,0,0,.06.16.24.24,0,0,0,.11.09l.2,0s0,0,0,0,0,0,0,0H29.71a0,0,0,1,1,0-.06l.17,0a.26.26,0,0,0,.11-.07.34.34,0,0,0,.06-.17,2,2,0,0,0,0-.29v-.21c0-.1,0-.19,0-.29V75.79c0-.1,0-.2,0-.28V75.3A1.42,1.42,0,0,0,30,75a.54.54,0,0,0-.06-.18.28.28,0,0,0-.11-.08l-.16,0a0,0,0,0,1,0,0s0,0,0,0H30.8a0,0,0,0,1,0,0s0,0,0,0l-.15,0a.18.18,0,0,0-.09.08.38.38,0,0,0-.06.17,2.63,2.63,0,0,0,0,.33v.2a2.81,2.81,0,0,0,0,.3v.67Z"/><path class="cls-3" d="M32.56,76.47v-.58c0-.19,0-.39,0-.59s0-.21,0-.28a.74.74,0,0,0-.05-.19.27.27,0,0,0-.13-.1.62.62,0,0,0-.22,0,0,0,0,0,1,0,0s0,0,0,0h1.21a1.68,1.68,0,0,1,.43.07.92.92,0,0,1,.29.17.63.63,0,0,1,.16.24.67.67,0,0,1,.06.28.75.75,0,0,1-.06.31.58.58,0,0,1-.13.23,1.07,1.07,0,0,1-.19.18,1.13,1.13,0,0,1-.22.11,1.18,1.18,0,0,1,.7.32.94.94,0,0,1,.23.61.81.81,0,0,1-.08.42.76.76,0,0,1-.25.31.89.89,0,0,1-.36.19,1.74,1.74,0,0,1-.45.06,3.1,3.1,0,0,1-.42,0l-.35,0h-.52s0,0,0,0,0,0,0,0a.49.49,0,0,0,.19,0,.21.21,0,0,0,.11-.1.56.56,0,0,0,.05-.18c0-.07,0-.17,0-.29V77.2a2.44,2.44,0,0,0,0-.27v-.46Zm1.32-.87a.87.87,0,0,0-.16-.6.67.67,0,0,0-.55-.24.53.53,0,0,0-.19,0s0,0,0,.08v.63c0,.14,0,.28,0,.42v.32h.26a.82.82,0,0,0,.32,0,.49.49,0,0,0,.24-.21A.77.77,0,0,0,33.88,75.6Zm.33,1.68a1.12,1.12,0,0,0-.06-.38.93.93,0,0,0-.2-.3.92.92,0,0,0-.32-.18,1.32,1.32,0,0,0-.42-.07H33c0,.13,0,.29,0,.46v.73c0,.08,0,.15,0,.21a.36.36,0,0,0,0,.11.3.3,0,0,0,.08.07,1.16,1.16,0,0,0,.43.07.72.72,0,0,0,.51-.19A.74.74,0,0,0,34.21,77.28Z"/><path class="cls-3" d="M36.62,76.47a1.87,1.87,0,0,0,0,.21V77a2.91,2.91,0,0,0,0,.3v.21a2.07,2.07,0,0,0,0,.29.34.34,0,0,0,.06.16.2.2,0,0,0,.11.09l.2,0s0,0,0,0,0,0,0,0H35.86a0,0,0,0,1,0-.06L36,78a.26.26,0,0,0,.11-.07.8.8,0,0,0,.06-.17c0-.07,0-.16,0-.29v-.21a2.81,2.81,0,0,1,0-.29V75.79c0-.1,0-.2,0-.28V75.3q0-.21,0-.33a.93.93,0,0,0-.06-.18.28.28,0,0,0-.11-.08l-.16,0s0,0,0,0,0,0,0,0H37a0,0,0,0,1,0,0s0,0,0,0l-.15,0a.25.25,0,0,0-.1.08.58.58,0,0,0-.05.17,2.63,2.63,0,0,0,0,.33v.2a2.81,2.81,0,0,0,0,.3v.67Z"/><path class="cls-3" d="M38.9,77.91h.74l.51,0,.35,0a.55.55,0,0,0,.4-.2,1.15,1.15,0,0,0,.2-.53,0,0,0,0,1,0,0s0,0,0,0,0,.14,0,.21a1.7,1.7,0,0,1,0,.22,1.15,1.15,0,0,1,0,.19.44.44,0,0,1,0,.13.26.26,0,0,1-.18.2,1.4,1.4,0,0,1-.39,0H38.23l0,0s0,0,0-.06l.4-.57.74-1c.18-.27.34-.49.47-.66l.31-.44.2-.29.14-.21h-1l-.34,0a.68.68,0,0,0-.27,0,.52.52,0,0,0-.19.12.64.64,0,0,0-.11.2,1,1,0,0,0-.06.27s0,0,0,0,0,0,0,0,0-.24,0-.33a1.4,1.4,0,0,1,0-.23.37.37,0,0,1,.05-.2s.08-.07.17-.08h2.45s0,0,0,.1-.3.36-.51.63-.46.62-.76,1c-.09.12-.17.25-.27.38l-.26.39-.24.36-.18.27a.25.25,0,0,0,0,.09Z"/><path class="cls-3" d="M43.7,74.66a.54.54,0,0,0,0-.08l0,0,0,0a.22.22,0,0,1,0,.08l.18.51c.09.22.18.47.28.75s.21.57.33.87.22.58.33.85a1.09,1.09,0,0,0,.1.19.62.62,0,0,0,.09.12l.13.07.16,0a0,0,0,0,1,0,0s0,0,0,0h-1.1a0,0,0,0,1,0-.06c.11,0,.18,0,.2-.08s0-.13,0-.26-.09-.28-.15-.45l-.18-.51H43.07L43,77l-.09.25-.09.25c0,.09,0,.17-.08.25a.4.4,0,0,0,0,.18.18.18,0,0,0,0,.1l.1,0,.12,0s0,0,0,0,0,0,0,0H42a0,0,0,1,1,0-.06l.11,0,.11,0a.47.47,0,0,0,.12-.09.55.55,0,0,0,.11-.16,5.87,5.87,0,0,0,.26-.55c.09-.23.19-.45.28-.68Zm.42,1.92L43.89,76c-.08-.21-.16-.43-.25-.65a2.93,2.93,0,0,1-.12.28l-.14.35-.25.65h1Z"/></svg>