<svg viewBox="0 0 75 79" xmlns="http://www.w3.org/2000/svg"><path d="m.3 52.3a.07.07 0 0 1 .13 0c.06 1.17.64 1.91 1.69 1.91a1.46 1.46 0 0 0 1.63-1.21.91.91 0 0 0 0-.17c0-1-.65-1.43-1.75-2a2.5 2.5 0 0 1 -1.62-2.35 1.92 1.92 0 0 1 2-1.88h.2a3.84 3.84 0 0 1 1.12.16.56.56 0 0 1 .43.68c0 .17-.09.64-.11.9 0 .1-.14.06-.14 0a1.43 1.43 0 0 0 -1.45-1.44 1.23 1.23 0 0 0 -1.43 1.1 1 1 0 0 0 0 .25 2 2 0 0 0 1.37 1.75c1.51.77 2.13 1.41 2.09 2.56a2.14 2.14 0 0 1 -2.28 2h-.12a3.45 3.45 0 0 1 -1.38-.26.81.81 0 0 1 -.49-.66 4 4 0 0 1 .11-1.34z" fill="#5c5e5e"/><path d="m9.48 53c0 1 .13 1.17.85 1.23h.09a.06.06 0 0 1 0 .09h-.05l-1.37-.03h-1.25c-.1 0-.08-.13 0-.13.6-.09.75-.16.78-1.23v-4.71c0-1.26-.23-1.26-.78-1.34-.08 0-.11-.13 0-.13h2.36c.09 0 .08.12 0 .13-.53.1-.67.11-.7 1.34v2.52c.03.45.06 1.81.07 2.26z" fill="#5c5e5e"/><path d="m16.29 50.93c-.48.76-1.13 1.88-1.47 2.51s-.28.68.37.75c.08 0 .11.13 0 .13h-2.19c-.08 0-.08-.12 0-.13a1.32 1.32 0 0 0 1.13-.7c.62-.87 1.36-2 2-2.93l-1.88-3c-.34-.51-.5-.63-1-.68-.09 0-.11-.13 0-.13h2.38c.11 0 .08.13 0 .13-.55.07-.55.25-.34.64.37.69.82 1.49 1.32 2.33.45-.73.88-1.47 1.22-2.15s.26-.74-.17-.82c-.09 0-.11-.13 0-.13h1.91s.08 0 .09 0a.06.06 0 0 1 0 .09c-.35 0-.58.08-1 .71-.64.92-1.27 1.85-1.73 2.6.6 1 1.55 2.49 2.12 3.29.35.5.58.64 1 .68h.09a.06.06 0 0 1 0 .09h-2.51s-.08 0-.09 0a.06.06 0 0 1 0-.09h.05c.47 0 .46-.24.24-.63s-.98-1.61-1.54-2.56z" fill="#5c5e5e"/><path d="m27.61 52.3c0-.09.14-.08.14 0 .06 1.17.64 1.91 1.69 1.91a1.46 1.46 0 0 0 1.63-1.21.91.91 0 0 0 0-.17c0-1-.65-1.43-1.75-2a2.5 2.5 0 0 1 -1.63-2.31 1.92 1.92 0 0 1 2-1.88h.2a3.84 3.84 0 0 1 1.12.16.57.57 0 0 1 .43.69c0 .17-.09.64-.11.9a.07.07 0 1 1 -.14 0 1.43 1.43 0 0 0 -1.42-1.46 1.25 1.25 0 0 0 -1.41 1.07v.21a2 2 0 0 0 1.33 1.79c1.51.77 2.13 1.41 2.09 2.56a2.16 2.16 0 0 1 -2.3 2h-.1a3.43 3.43 0 0 1 -1.38-.31.85.85 0 0 1 -.5-.66 5.08 5.08 0 0 1 .11-1.29z" fill="#5c5e5e"/><path d="m36.77 53.15c0 .72.17.76.8.77a8.34 8.34 0 0 0 1 0c1 0 1.21-.67 1.35-1.43 0-.09.15-.1.15 0a10.91 10.91 0 0 1 -.07 1.51c0 .27-.25.37-.72.37s-1.71 0-2.86 0h-1.37s-.08 0-.09 0a.06.06 0 0 1 0-.09c.64-.07.77-.18.8-1.23v-4.81c0-1 0-1.23-.84-1.33-.09 0-.11-.13 0-.13h4c.35 0 .55 0 .52.3s-.07.76-.13 1.17c0 .09-.16.09-.15 0 0-.61-.2-1-.82-1.06a15.68 15.68 0 0 0 -1.68 0v3a16.68 16.68 0 0 0 2 0c.35 0 .34-.13.42-.12s0 .06 0 .3a4.88 4.88 0 0 1 -.12.75c0 .08-.15.08-.15 0 0-.49-.3-.49-.8-.52h-1.31c.04.59.05 1.78.07 2.55z" fill="#5c5e5e"/><path d="m50.5 54.19v.27s-.1 0-.27-.21c-.77-.89-1.59-1.77-3.07-3.27-1.16-1.17-2.16-2.15-2.65-2.62 0 .93 0 3.26.11 5 0 .48.23.8 1 .87.09 0 .11.13 0 .13h-2.29a.07.07 0 0 1 0-.09.08.08 0 0 1 0 0c.44-.09.6-.19.65-.81.1-1.35.12-3.28.12-4.28v-2.4s.08 0 .25.19c.9 1 1.88 2 3.1 3.26 1 1.05 1.94 2 2.6 2.57 0-1.43 0-3-.06-4.69 0-.88-.15-1-.83-1.12-.08 0-.1-.13 0-.13h2c.09 0 .07.13 0 .13-.46.08-.59.41-.61 1 0 1.75-.05 3.54-.05 6.2z" fill="#5c5e5e"/><path d="m54.91 52.3a.07.07 0 0 1 .13 0c.06 1.17.65 1.91 1.69 1.91a1.46 1.46 0 0 0 1.63-1.21.91.91 0 0 0 0-.17c0-1-.64-1.43-1.75-2a2.52 2.52 0 0 1 -1.61-2.35 1.93 1.93 0 0 1 2-1.89h.21a3.77 3.77 0 0 1 1.11.16.57.57 0 0 1 .44.66c0 .17-.09.64-.11.9 0 .1-.13.06-.13 0a1.45 1.45 0 0 0 -1.52-1.41 1.25 1.25 0 0 0 -1.37 1.1v.21a2 2 0 0 0 1.37 1.79c1.5.77 2.12 1.41 2.08 2.56a2.14 2.14 0 0 1 -2.28 2h-.12a3.38 3.38 0 0 1 -1.37-.26.79.79 0 0 1 -.5-.66 4 4 0 0 1 .1-1.34z" fill="#5c5e5e"/><path d="m64.07 53.15c0 .72.17.76.8.77a8.34 8.34 0 0 0 1 0c1 0 1.21-.67 1.36-1.43 0-.09.15-.1.15 0a9.53 9.53 0 0 1 0 1.51c0 .27-.25.37-.71.37-.61 0-1.71 0-2.87 0h-1.42s-.08 0-.09 0a.06.06 0 0 1 0-.09h.05c.64-.07.78-.18.8-1.23v-4.81c0-1 0-1.23-.84-1.33-.08 0-.11-.13 0-.13h4c.36 0 .55 0 .53.3s-.08.76-.14 1.17c0 .09-.16.09-.14 0 0-.61-.21-1-.83-1.06a15.5 15.5 0 0 0 -1.67 0v3a16.68 16.68 0 0 0 2 0c.35 0 .34-.13.43-.12s0 .06 0 .3a4.88 4.88 0 0 1 -.12.75c0 .08-.14.08-.14 0 0-.49-.31-.49-.81-.52h-1.36a18.25 18.25 0 0 0 .02 2.55z" fill="#5c5e5e"/><path d="m70.83 52.3c0-.09.14-.08.14 0 .06 1.17.64 1.91 1.68 1.91a1.46 1.46 0 0 0 1.63-1.21.91.91 0 0 0 0-.17c0-1-.64-1.43-1.74-2a2.5 2.5 0 0 1 -1.63-2.31 1.92 1.92 0 0 1 2-1.88h.2a3.84 3.84 0 0 1 1.12.16.57.57 0 0 1 .43.67c0 .17-.08.64-.11.9 0 .1-.13.06-.13 0a1.45 1.45 0 0 0 -1.42-1.47 1.23 1.23 0 0 0 -1.37 1.1 1.62 1.62 0 0 0 0 .22 2 2 0 0 0 1.28 1.78c1.51.77 2.13 1.41 2.09 2.56a2.16 2.16 0 0 1 -2.3 2h-.11a3.38 3.38 0 0 1 -1.37-.26.84.84 0 0 1 -.5-.66 5 5 0 0 1 .11-1.34z" fill="#5c5e5e"/><path d="m.85 62.72v-2.19c0-.61-.2-.81-.76-.87-.09 0-.1-.12 0-.12h1.06a10.19 10.19 0 0 1 1.36 0c1.91 0 2.16 1.13 2.16 1.79a2 2 0 0 1 -1.22 1.85 16 16 0 0 0 1 1.44 8 8 0 0 0 1.23 1.31 1.45 1.45 0 0 0 .78.26c.09 0 .1.12 0 .12a5.57 5.57 0 0 1 -1 0c-.77-.13-1.06-.44-1.94-1.69-.34-.48-.59-.86-.81-1.22a5.15 5.15 0 0 1 -1.11 0v1.65c0 1 .13 1.11.76 1.18.09 0 .11.12 0 .12-.41 0-.91-.06-1.13-.06s-.74 0-1.12.06c-.09 0-.07-.12 0-.12.57-.08.7-.1.72-1.17.03-.83.02-1.57.02-2.34zm1.59-2.89h-.84v3.17a4.86 4.86 0 0 0 1.32 0c.69-.07 1-.79 1-1.47a1.53 1.53 0 0 0 -1.48-1.7z" fill="#5c5e5e"/><path d="m9.82 65.24c0 .65.15.69.71.7s.65 0 .92 0c.91 0 1.08-.6 1.21-1.28a.07.07 0 0 1 .13 0 9.69 9.69 0 0 1 0 1.32c0 .24-.23.33-.64.33h-3.8c-.08 0-.07-.12 0-.12.58-.07.7-.17.72-1.1v-4.23c0-.9 0-1.1-.75-1.19-.07 0-.1-.12 0-.12h3.56c.31 0 .49 0 .47.28s-.07.67-.12 1c0 .08-.15.08-.14 0 0-.54-.18-.9-.73-1a12.51 12.51 0 0 0 -1.5 0v2.72h1.82c.32 0 .3-.12.38-.11s0 .05 0 .27a4.93 4.93 0 0 1 -.11.67c0 .07-.13.07-.13 0 0-.44-.27-.44-.72-.46h-1.31c-.01.57 0 1.64.03 2.32z" fill="#5c5e5e"/><path d="m15.88 64.48c0-.07.12-.06.12 0 .05 1.06.57 1.72 1.51 1.72a1.31 1.31 0 0 0 1.49-1.1s0-.11 0-.17c0-.91-.57-1.29-1.56-1.8a2.23 2.23 0 0 1 -1.44-2.06 1.72 1.72 0 0 1 1.77-1.69h.23a3.77 3.77 0 0 1 1 .14.51.51 0 0 1 .38.61c0 .16-.08.58-.1.81 0 .08-.12 0-.12 0a1.29 1.29 0 0 0 -1.27-1.31 1.11 1.11 0 0 0 -1.23 1v.2a1.77 1.77 0 0 0 1.19 1.55c1.35.69 1.91 1.26 1.88 2.3a1.94 1.94 0 0 1 -2.08 1.79h-.15a3.06 3.06 0 0 1 -1.23-.23.71.71 0 0 1 -.44-.59 3.76 3.76 0 0 1 .05-1.17z" fill="#5c5e5e"/><path d="m24.1 65.08c0 .92.12 1 .76 1.1a.06.06 0 0 1 0 .12h-2.27a.06.06 0 1 1 0-.12c.53-.08.67-.14.69-1.1v-4.26c0-1.13-.2-1.13-.69-1.2-.08 0-.1-.12 0-.12h2.12c.08 0 .07.11 0 .12-.47.09-.6.1-.62 1.2v2.25c-.02.42 0 1.64.01 2.01z" fill="#5c5e5e"/><path d="m30.85 66.36c-.87 0-1.56-.1-2-.1h-1.28c-.08 0-.07-.11 0-.12.87-.09.86-.34.89-1.46v-4c0-.81-.21-1-.79-1.05-.07 0-.07-.12 0-.12h3c2.44 0 3.8 1.25 3.8 3.37a3.43 3.43 0 0 1 -3.34 3.5zm-.08-6.5a12 12 0 0 0 -1.47 0v5.69c0 .34 0 .28.22.35a3.83 3.83 0 0 0 1.3.19c1.92 0 2.82-1.38 2.82-3.1a2.88 2.88 0 0 0 -2.64-3.12z" fill="#5c5e5e"/><path d="m38.82 65.24c0 .65.15.69.71.7s.65 0 .92 0c.91 0 1.08-.6 1.22-1.28a.07.07 0 0 1 .13 0 9.94 9.94 0 0 1 -.06 1.34c0 .24-.23.33-.64.33h-3.79a.06.06 0 0 1 0-.12c.57-.07.69-.17.71-1.1v-4.23c0-.9 0-1.1-.75-1.19-.07 0-.1-.12 0-.12h3.56c.31 0 .49 0 .47.28s-.07.67-.12 1c0 .08-.15.08-.13 0 0-.54-.19-.9-.74-1a12.51 12.51 0 0 0 -1.5 0v2.72h1.82c.32 0 .3-.12.38-.11s0 0 0 .27a4.93 4.93 0 0 1 -.11.67c0 .07-.13.07-.13 0 0-.44-.27-.44-.72-.46h-1.26c-.01.55 0 1.62.03 2.3z" fill="#5c5e5e"/><path d="m51.11 66.18v.24s-.08 0-.24-.19c-.69-.79-1.42-1.59-2.75-2.92-1-1.06-1.88-1.93-2.33-2.35 0 .84 0 2.91.09 4.43 0 .44.21.72.87.79.08 0 .1.12 0 .12h-2c-.08 0-.07-.12 0-.12.39-.08.54-.18.58-.73.09-1.21.11-2.94.11-3.83v-2.15s.08 0 .23.17c.8.89 1.68 1.83 2.77 2.92 1 .94 1.74 1.76 2.33 2.3 0-1.28 0-2.68-.06-4.2 0-.79-.13-.91-.74-1-.07 0-.08-.12 0-.12h1.82c.09 0 .06.12 0 .12-.41.07-.52.36-.54.86-.1 1.68-.14 3.28-.14 5.66z" fill="#5c5e5e"/><path d="m60.27 59.67a.59.59 0 0 1 .43.64c0 .33-.05.72-.07 1.13 0 .08-.15.07-.15 0a1.91 1.91 0 0 0 -2-1.78h-.11c-1.77 0-2.9 1.08-2.85 3.22.06 2.32 1.45 3.25 3 3.25a1.78 1.78 0 0 0 2.09-1.7.07.07 0 0 1 .14 0v.75c0 .78-.19.83-.55 1a4.25 4.25 0 0 1 -1.73.27c-2.39 0-3.87-1.37-3.87-3.45a3.42 3.42 0 0 1 3.2-3.63 3.51 3.51 0 0 1 .56 0 5.68 5.68 0 0 1 1.91.3z" fill="#5c5e5e"/><path d="m65.11 65.24c0 .65.15.69.72.7s.64 0 .91 0c.91 0 1.09-.6 1.22-1.28a.07.07 0 0 1 .13 0 9.94 9.94 0 0 1 -.09 1.34c0 .24-.22.33-.64.33h-3.79a.06.06 0 0 1 0-.12c.57-.07.69-.17.72-1.1v-4.23c0-.9 0-1.1-.75-1.19-.08 0-.1-.12 0-.12h3.55c.32 0 .49 0 .47.28s-.07.67-.12 1c0 .08-.14.08-.13 0 0-.54-.19-.9-.74-1a12.51 12.51 0 0 0 -1.5 0v2.72h1.81c.32 0 .31-.12.38-.11s0 0 0 .27a3 3 0 0 1 -.11.67c0 .07-.13.07-.13 0 0-.44-.27-.44-.71-.46h-1.22c-.01.55 0 1.62.02 2.3z" fill="#5c5e5e"/><path d="m71.17 64.48c0-.07.12-.06.12 0 0 1.06.57 1.72 1.51 1.72a1.31 1.31 0 0 0 1.46-1.14.57.57 0 0 0 0-.13c0-.91-.58-1.29-1.57-1.8a2.25 2.25 0 0 1 -1.46-2.06 1.74 1.74 0 0 1 1.77-1.7h.22a3.36 3.36 0 0 1 1 .14.51.51 0 0 1 .38.61c0 .16-.07.58-.1.81 0 .08-.12 0-.12 0a1.28 1.28 0 0 0 -1.25-1.31 1.11 1.11 0 0 0 -1.23 1v.2a1.75 1.75 0 0 0 1.1 1.56c1.35.69 1.9 1.26 1.87 2.3a1.94 1.94 0 0 1 -2.08 1.79h-.08a3 3 0 0 1 -1.22-.23.73.73 0 0 1 -.45-.59 4.13 4.13 0 0 1 .13-1.17z" fill="#5c5e5e"/><g fill="#6d2158"><path d="m60.55 35.48s0 .06.06 0-.04-.03-.06 0z"/><path d="m59.88 35.88.11-.03h-.03z"/><path d="m59.72 36c-.09.08-.27.09-.29.18.08-.07.25-.11.37-.19h-.08z"/><path d="m59.19 36.47h.06c-.14.01-.05-.03-.06 0z"/><path d="m59 36.59v-.05s-.1.07 0 .05z"/><path d="m58.94 36.51h.06s-.07-.02-.06 0z"/><path d="m59.05 36.42c.09 0 0 0 0 .06.16-.06.16-.12 0-.06z"/><path d="m59.41 36.08v.05s.07-.06.1-.06z"/><path d="m58.42 36.74a.11.11 0 0 0 .09-.06h-.07s-.03.05-.02.06z"/><path d="m58.34 36.67h.1s-.01-.02-.1 0z"/><path d="m58 36.8.11.05h-.06z"/><path d="m57.79 36.84a.31.31 0 0 1 -.19 0h.18s.06.02.01 0z"/><path d="m58.11 36.77a.13.13 0 0 0 .07-.06z"/><path d="m58.06 36.73.08-.01z"/><path d="m58.5 36.49c-.1.07 0 .06.08.07-.1-.01-.04-.05-.08-.07z"/><path d="m58.19 36.65.03-.01h-.05z"/><path d="m57.71 36.74c.04.04.01.02 0 0z"/><path d="m56.99 36.75v-.01l-.01.01z"/><path d="m57.72 36.74h.11a.11.11 0 0 0 -.11 0z"/><path d="m57.43 36.79h-.08s.06.02.08 0z"/><path d="m57.08 36.81.15-.05h-.23s0 .02.08.05z"/><path d="m57.44 36.78c.14 0-.12-.06.08 0-.07 0 0-.06-.16-.06s0 .07.08.11z"/><path d="m58.3 36.47a.75.75 0 0 0 -.07.12.83.83 0 0 1 .15-.11z"/><path d="m57.71 36.62h.16s0 0-.09 0z"/><path d="m56.89 36.74.09.08z"/><path d="m56.69 36.75.06.03v-.04z"/><path d="m52.93 33.18a.19.19 0 0 0 .08.14.24.24 0 0 1 0-.12z"/><path d="m54.57 35.8a.57.57 0 0 0 .13.08c.01-.05-.06-.05-.13-.08z"/><path d="m54.57 35.8a.52.52 0 0 1 -.11-.1.18.18 0 0 0 .11.1z"/><path d="m57.27 36.55c-.1-.03-.06-.01 0 0z"/><path d="m56.6 36.57h-.14s.15.06.14 0z"/><path d="m56.69 36.59h-.06s.06.02.06 0z"/><path d="m56.49 36.44.03.04.03-.04z"/><path d="m54.91 35.76.09.08v-.06c0-.06-.09-.04-.09-.02z"/><path d="m60.7 35.36.05-.09-.03.02z"/><path d="m60.57 35.35v.06h.08z"/><path d="m47.58 14.57-.09-.06.01.02z"/><path d="m47.78 14.6c.11 0 .25.13.33.08a3 3 0 0 1 -.39-.14v.08z"/><path d="m48.48 14.65h-.06c.12.05.03.02.06 0z"/><path d="m48.71 14.71h-.08l.07.06c.07 0 .09-.01.01-.06z"/><path d="m48.68 14.8-.08-.07s.08.09.08.07z"/><path d="m48.59 14.75c-.16-.08-.2 0-.05 0-.07-.02-.01-.01.05 0z"/><path d="m48 14.73h.07s-.07.02-.07 0z"/><path d="m49.22 15.12-.07-.12a.12.12 0 0 0 .07.12z"/><path d="m48.76 15-.14-.13.11.12z"/><path d="m49.88 15.51a.86.86 0 0 0 -.1-.16c0 .05-.07 0-.06.05a.57.57 0 0 1 .16.11z"/><path d="m49.46 15.28-.07-.05z"/><path d="m49 15.13c.12 0 0-.05 0-.11z"/><path d="m49.19 15.17.09.05-.08-.09s0 .03-.01.04z"/><path d="m49.31 15.24-.03-.02.03.04z"/><path d="m49.71 15.52.14.11-.1-.12s-.04-.01-.04.01z"/><path d="m50.22 16.03h-.01l.01.01z"/><path d="m49.7 15.51-.08-.08a.11.11 0 0 0 .08.08z"/><path d="m49.59 15.38v.06a.06.06 0 0 0 0-.06z"/><path d="m50.19 15.93-.14-.08.15.16a.22.22 0 0 0 -.01-.08z"/><path d="m49.94 15.69-.09-.06.07.09c-.12-.09 0 .12-.1 0 0 .07 0 .06.07.15s0-.07 0-.13l.12.14a.61.61 0 0 0 -.12-.16z"/><path d="m49 15.26v.06c0-.14 0-.08 0-.06z"/><path d="m49.55 15.57h.09l-.1-.12a.08.08 0 0 0 .01.12z"/><path d="m50.41 16.18-.03.03.04.04z"/><path d="m50.49 21.43v-.15a.21.21 0 0 1 -.06.1z"/><path d="m51.23 18.43a.38.38 0 0 0 0-.15.17.17 0 0 0 0 .15z"/><path d="m51.23 18.43v.15a.19.19 0 0 0 0-.15z"/><path d="m50.87 17v-.07z"/><path d="m50.45 16.54c0-.08-.05-.15-.09-.1s.04.11.09.1z"/><path d="m50.31 16.36v.06s.01-.08 0-.06z"/><path d="m50.89 17.07v.05c0 .05.04-.12 0-.05z"/><path d="m50.35 16.56-.05.01.04.04z"/><path d="m50.53 16.92.06.08a.19.19 0 0 0 -.06-.12c-.06-.06.01.03 0 .04z"/><path d="m50.53 16.88v-.08a.11.11 0 0 0 0 .08z"/><path d="m50.92 18.15v-.06s.01.03 0 .06z"/><path d="m46.63 14.34-.09.03.04.01z"/><path d="m46.8 14.43-.06-.06v.07z"/><path d="m26.7 15.51s0-.06-.06 0 .03.03.06 0z"/><path d="m27.37 15.11-.1.03h.02z"/><path d="m27.53 15c.08-.08.27-.08.29-.18a2.58 2.58 0 0 1 -.37.19h.08z"/><path d="m28.06 14.52h-.06c.14-.01.05.04.06 0z"/><path d="m28.26 14.4s.09-.02 0 0z"/><path d="m28.31 14.48h-.1s.11.02.1 0z"/><path d="m28.2 14.58c-.09 0 0 0 0-.06-.2.05-.2.11 0 .06z"/><path d="m27.84 14.92v-.05a.3.3 0 0 1 -.1.05z"/><path d="m28.83 14.25-.09.07h.07s.03-.06.02-.07z"/><path d="m28.91 14.32h-.1s.01.03.1 0z"/><path d="m29.46 14.15a.31.31 0 0 1 .19 0 .41.41 0 0 0 -.19-.05c.05 0-.05.03 0 .05z"/><path d="m29.19 14.26-.08.02z"/><path d="m28.75 14.5c.1-.07 0-.06-.08-.07s.03.05.08.07z"/><path d="m28.92 14.38s0-.01 0 0z"/><path d="m29.06 14.34-.04.01h.06z"/><path d="m29.54 14.24c-.04-.03-.01-.01 0 0z"/><path d="m30.25 14.24v.01l.01-.01z"/><path d="m29.52 14.26h-.11a.11.11 0 0 0 .11 0z"/><path d="m30.17 14.18a.44.44 0 0 1 -.15.05h.23z"/><path d="m29.81 14.21c-.14 0 .12.07-.08.06.07 0 0 .05.16.05s0-.07-.08-.11z"/><path d="m29 14.53a.29.29 0 0 0 0-.13.42.42 0 0 1 -.15.11c-.08 0 0 0 0 .05a.1.1 0 0 1 .14 0z"/><path d="m30.36 14.24-.09-.07v.05z"/><path d="m30.55 14.24-.05-.03v.04z"/><path d="m34.23 17.68a.21.21 0 0 1 0 .11.07.07 0 0 0 0-.11z"/><path d="m32.68 15.19a.37.37 0 0 0 -.14-.07z"/><path d="m32.68 15.19a.52.52 0 0 1 .11.1.18.18 0 0 0 -.11-.1z"/><path d="m30.65 14.42c.06 0 .12.05.14 0s-.15-.06-.14 0z"/><path d="m30.56 14.41h.06s-.06-.03-.06 0z"/><path d="m30.76 14.56-.03-.05-.03.04z"/><path d="m32.34 15.23-.09-.08v.07c0 .07.09.03.09.01z"/><path d="m26.55 15.63-.05.09.03-.02z"/><path d="m26.68 15.64a.06.06 0 0 1 .05-.06h-.09z"/><path d="m35.11 8.4v-.05s-.04 0 0 .05z"/><path d="m34.75 7.78v-.02l-.02-.08z"/><path d="m34.42 7.23a1.41 1.41 0 0 1 .18.37v-.08c-.08-.09-.08-.28-.18-.29z"/><path d="m34.13 7v.06c-.01-.15.03-.06 0-.06z"/><path d="m34 6.79s0-.09 0 0z"/><path d="m34.08 6.7s.02.01 0 0z"/><path d="m34.13 6.85c0 .16.11.16 0 0z"/><path d="m34.53 7.21h-.06a.36.36 0 0 1 .06.11z"/><path d="m33.92 6.31v-.07h-.07z"/><path d="m33.73 5.4a.54.54 0 0 0 0 .18h.07a.36.36 0 0 1 -.07-.18z"/><path d="m33.87 5.86.01.08h.01z"/><path d="m34 6.38c0-.1 0 0 .07-.08s-.07.01-.07.08z"/><path d="m33.95 5.99.01.03v-.05z"/><path d="m33.85 5.51v-.18a.38.38 0 0 1 0 .15c-.03.07-.01.04 0 .03z"/><path d="m33.85 4.79h.01l-.01-.01z"/><path d="m33.86 5.52v.11a.11.11 0 0 0 0-.11z"/><path d="m33.81 5.23v-.08s-.02.06 0 .08z"/><path d="m33.79 4.88a.88.88 0 0 1 .05.15v-.03-.21a.32.32 0 0 0 -.05.09z"/><path d="m33.81 5.23c0 .15.06-.11 0 .09 0-.07.06 0 .06-.16s-.07 0-.11.07z"/><path d="m34.16 6.17v-.08l-.16-.09a.67.67 0 0 1 .11.15c.05.12.05.05.05.02z"/><path d="m34 5.5v.17s0 0 0-.09z"/><path d="m33.85 4.69-.07.09z"/><path d="m33.85 4.49-.03.06h.04z"/><path d="m37.42.73a.21.21 0 0 0 -.14.08.24.24 0 0 1 .12 0z"/><path d="m34.8 2.36a.61.61 0 0 0 -.07.14.76.76 0 0 0 .07-.14z"/><path d="m42.6 4c0-.1-.01 0 0 0z"/><path d="m34.8 2.36.1-.1a.24.24 0 0 0 -.1.1z"/><path d="m34.08 3.62v.06a.06.06 0 0 1 0-.06z"/><path d="m34.06 5.07c.02-.07 0-.07 0 0z"/><path d="m34 4.27c0 .07-.07.14 0 .13.05-.06.08-.11 0-.13z"/><path d="m34.14 3.55c.09-.16-.12 0 0 0s0 .04 0 0z"/><path d="m34.16 4.35v-.06l-.04.03z"/><path d="m34.26 3.83v.17a.54.54 0 0 1 0-.17z"/><path d="m34.19 4v-.08a.11.11 0 0 0 0 .08z"/><path d="m34.82 2.78v-.07l-.08.09z"/><path d="m35.24 8.5.09.05-.02-.04z"/><path d="m35.19 8.32v.08h.06z"/><path d="m42.41 32.7.07-.09-.02.01z"/><path d="m42.39 32.9c0 .11-.13.25-.08.33a3 3 0 0 1 .14-.39h-.08z"/><path d="m42.35 33.6v-.06c-.05.13-.02.03 0 .06z"/><path d="m42.3 33.76-.06.07c0 .06 0 .08.06 0s.01-.05 0-.07z"/><path d="m42.21 33.81.06-.08s-.09.07-.06.08z"/><path d="m42.25 33.71c.08-.16 0-.2 0 0 .02-.12.01-.05 0 0z"/><path d="m42.27 33.12v.12s-.02-.09 0-.12z"/><path d="m41.89 34.35.08-.07s-.04-.01-.08.07z"/><path d="m42.07 33.86.14-.15z"/><path d="m41.62 34.85a.36.36 0 0 1 -.11.16.4.4 0 0 0 .15-.1s.01-.07-.04-.06z"/><path d="m41.74 34.59.04-.07z"/><path d="m42 34.1c-.08.06-.07 0-.11 0s.04.04.11 0z"/><path d="m41.84 34.32-.05.09.09-.08z"/><path d="m41.77 34.44.02-.03-.04.03z"/><path d="m41.5 34.84-.11.14a.47.47 0 0 1 .12-.09s.01-.05-.01-.05z"/><path d="m41 35.35h-.01v.01z"/><path d="m41.5 34.83.08-.08a.16.16 0 0 0 -.08.08z"/><path d="m41.33 35.07v.08a.2.2 0 0 1 0-.08z"/><path d="m41.1 35.33a.61.61 0 0 1 .07-.14l-.15.14s-.02.04.08 0z"/><path d="m41.33 35.07.06-.09a.27.27 0 0 1 -.08.07c.08-.12-.12 0 0-.09-.07 0-.07 0-.15.07s.07 0 .13 0l-.14.13.16-.12z"/><path d="m41.72 34.23a.33.33 0 0 0 0 .14v-.18c0-.09 0 0-.06 0s.08.03.06.04z"/><path d="m41.44 34.69v.09l.13-.11a.09.09 0 0 0 -.13.02z"/><path d="m40.78 35.57.06-.02-.03-.03z"/><path d="m35.6 35.71h.15a.21.21 0 0 1 -.1-.06z"/><path d="m38.61 36.4h.15a.23.23 0 0 0 -.15 0z"/><path d="m38.61 36.4h-.15a.2.2 0 0 0 .15 0z"/><path d="m40.48 35.76-.07.07h.09a.25.25 0 0 0 -.02-.07z"/><path d="m40.49 35.59c.07 0 .15-.05.1-.09-.05.03-.11.05-.1.09z"/><path d="m40.47 35.5-.01-.06-.04.05z"/><path d="m40.15 35.68-.09.06z"/><path d="m42.61 31.66-.02.03.04.06z"/><path d="m42.54 31.91.06-.05h-.06z"/><path d="m23.73 32.32h.05s-.05-.04-.05 0z"/><path d="m23.54 33.07.05-.09-.01.01z"/><path d="m23.51 33.27c0 .11-.13.25-.08.33a3 3 0 0 1 .13-.39h-.07z"/><path d="m23.47 34v-.07c-.05.07-.02.01 0 .07z"/><path d="m23.42 34.12-.07.08c0 .06 0 .08.07 0s0-.05 0-.08z"/><path d="m23.33 34.18.06-.07s-.09.07-.06.07z"/><path d="m23.37 34.08c.08-.16 0-.2 0 0 .02-.08.01-.08 0 0z"/><path d="m23.39 33.49v.06a.06.06 0 0 1 0-.06z"/><path d="m23 34.71.07-.06s-.02-.01-.07.06z"/><path d="m23.19 34.23.14-.14z"/><path d="m22.86 35.05.14-.05h-.07z"/><path d="m22.74 35.22a.28.28 0 0 1 -.12.16.59.59 0 0 0 .17-.1c-.05.02 0-.07-.05-.06z"/><path d="m22.85 34.96.05-.07z"/><path d="m23.1 34.47c-.07.06-.06 0-.1 0s.05.04.1 0z"/><path d="m23 34.69-.05.09.05-.08z"/><path d="m22.89 34.81.02-.03-.04.03z"/><path d="m22.62 35.21-.11.14.12-.09s.01-.04-.01-.05z"/><path d="m22.12 35.73-.01-.01v.01z"/><path d="m22.62 35.2.08-.08a.28.28 0 0 0 -.08.08z"/><path d="m22.22 35.7a.61.61 0 0 1 .07-.14l-.15.15z"/><path d="m22.45 35.44.06-.09a.27.27 0 0 1 -.08.07c.08-.11-.13 0 0-.09-.07 0-.06 0-.15.07s.07 0 .13 0l-.14.13.16-.12z"/><path d="m22.84 34.6a.33.33 0 0 0 0 .14.54.54 0 0 1 0-.18c0-.09 0 0-.06 0s.07.03.06.04z"/><path d="m22.56 35.06v.09l.12-.11a.1.1 0 0 0 -.12.02z"/><path d="m21.9 35.93.07-.01-.04-.03z"/><path d="m16.72 36.08h.15a.21.21 0 0 1 -.1-.06z"/><path d="m19.73 36.77h.15a.23.23 0 0 0 -.15 0z"/><path d="m19.73 36.77h-.15a.2.2 0 0 0 .15 0z"/><path d="m23.63 31.61v.08s.01-.07 0-.08z"/><path d="m21.6 36.14-.07.06.1-.05z"/><path d="m21.61 36c.08 0 .15 0 .1-.08-.05-.02-.11 0-.1.08z"/><path d="m21.78 35.83h-.05s.07.01.05 0z"/><path d="m21 36.4c-.18 0 .1.05.05 0s.01-.03-.05 0z"/><path d="m21.59 35.87-.01-.06-.05.05z"/><path d="m21.14 36.11a.2.2 0 0 0 .13-.06z"/><path d="m21.27 36.05a.11.11 0 0 0 .08 0s-.05-.05-.08 0z"/><path d="m23.73 32.03-.02.03.04.06z"/><path d="m23.66 32.28.06-.05h-.07a.2.2 0 0 1 .01.05z"/><path d="m34.18 19.14c.09-.17 0-.13.13-.33-.06.09-.08.05-.11 0l.08-.13h-.06a.28.28 0 0 0 0-.18s0-.28.09-.32 0-.18-.09-.2 0-.05 0-.08.09 0 .06 0h-.06v-.1a.09.09 0 0 0 0-.07.13.13 0 0 1 0-.12.75.75 0 0 1 -.1-.32.44.44 0 0 0 -.12-.29v.09c-.07-.18-.22-.31-.24-.43a1 1 0 0 0 -.15-.32l-.19-.27c-.07-.1-.15-.18-.22-.18s-.16-.16-.22-.23a1.07 1.07 0 0 1 -.18-.19c-.24-.09-.37-.29-.55-.39l-.17-.13c0 .06 0 0-.08-.07a.54.54 0 0 0 -.25-.09l-.12-.06c.13.09 0 0-.06.09l-.07-.06c0-.05-.21-.1-.24-.17h-.26c.14-.06-.28-.06-.18-.13-.11.06-.06 0-.13.05a.67.67 0 0 1 .33.15h-.1c0 .09.22 0 .26.06s-.12 0-.13 0v-.06a.65.65 0 0 1 .32.16c-.1 0 .09.08 0 .1h-.07l-.3-.13h-.06a2.21 2.21 0 0 0 -.37-.08c0-.06-.16-.11-.11-.14s0 0-.17 0 .11-.06.14-.07-.09-.05-.1-.07-.16.2-.07.24a.19.19 0 0 1 .18 0 4.28 4.28 0 0 0 -3.5 1.21l-.17.18c0-.07 0-.15-.07-.13h.06c-.07 0-.17.18-.25.18a2.44 2.44 0 0 0 -.1.24s-.07 0-.06-.05-.07.1 0 0c-.11.3-.26.56-.39.84a2.26 2.26 0 0 0 -.27.87 1.65 1.65 0 0 0 -.07.16l.06.17c0 .06-.05 0-.07 0v.86c0 .08.07 0 .09.08-.05-.07-.06 0-.06.09v.13s.09.37.22.3c0 .12 0 .11-.06.08a1.15 1.15 0 0 1 .06.37s.07.2.14.36a.71.71 0 0 0 .23.34c-.1 0 0 0 0 .11h-.09l-.14-.06h.08a.52.52 0 0 1 .07.21l.05.08c0 .05-.09-.22.06-.07 0 0 0 .16.07.18s0-.1 0-.08l.1.12h-.1a4.89 4.89 0 0 0 1 .87s.28.17.29.07c-.09-.07.07-.06.14 0-.1 0 .1.17-.11.06h.05.53c1.33 0 3.68-.32 4.55-2.44h.09a5.4 5.4 0 0 1 -1.62 2.73.61.61 0 0 1 .14-.07c.08 0 .06 0 0 .06s.41-.1.44-.15 0-.07 0-.12.05.14.21 0h.06c.07-.06.09-.29.18-.3v.05c.15-.05.21-.31.29-.24.15-.21.1 0 .25-.27.08-.07.08-.16.18-.14a2.09 2.09 0 0 0 .2-.22.07.07 0 0 0 .07-.07c0-.07.23-.25.25-.3s-.06 0-.07 0 .12-.06.14-.16.16.07.26-.09h-.06v-.07h-.06c-.06 0 .11-.18.21-.34h-.06c-.06 0 0-.26.11-.15a3.25 3.25 0 0 1 .14-.58.79.79 0 0 0 0-.43v-.14zm-2.26-4.14h.08a.21.21 0 0 1 -.14-.1l.14.1a1.33 1.33 0 0 1 -.28-.1s0-.12.09-.13a.25.25 0 0 1 .2.14.58.58 0 0 0 .21.2s0-.1.11 0a.56.56 0 0 1 .16.29 4.49 4.49 0 0 0 -.57-.4zm1 .81a.21.21 0 0 1 0 .11zm.42 5.33v-.08-.06h.06a.45.45 0 0 1 0 .16zm.12-4.6a.54.54 0 0 0 -.07-.13l.06-.06h-.07l-.09-.12a1.51 1.51 0 0 1 .26.18.25.25 0 0 1 -.06.14zm.41.9a1.8 1.8 0 0 0 -.08-.21l.11-.23v.14a.55.55 0 0 1 0 .31zm.18 1.44v-.1h.1z"/><path d="m42.72 5.42a.38.38 0 0 0 .07-.29v-.27c-.08 0-.06-.1-.06-.23s0-.27-.09-.29 0-.26 0-.35-.12-.28-.15-.39 0 0 .07 0c-.12-.11-.1-.41-.15-.45s-.07 0-.12 0c-.06-.16.14 0 0-.21v.06s-.29-.1-.29-.18c0-.15-.31-.21-.24-.29h.05c-.21-.16-.05-.1-.27-.26-.07-.09-.16-.08-.14-.18l-.21-.2s-.06-.07-.08-.07-.25-.23-.31-.26 0 .07 0 .07a.28.28 0 0 0 -.16-.13.15.15 0 0 0 0-.13h-.76c-1.32 0-3.67.31-4.54 2.43h-.1a5.56 5.56 0 0 1 1.43-2.57l.25-.23h-.14a.5.5 0 0 0 -.31.14s.06 0 .08 0c-.17.06-.3.21-.42.24v-.1a1.37 1.37 0 0 0 -.32.16c-.06.05-.18.11-.27.19s-.18.15-.18.22-.16.16-.24.22a1.7 1.7 0 0 1 -.19.19c-.09.23-.29.36-.4.55l-.15.19c.06 0-.05 0-.07.09a.43.43 0 0 0 -.1.24.5.5 0 0 1 -.05.13c.09-.13.05 0 .09.06l-.06.06s-.09.2-.16.24v-.07c0 .11 0 .06-.05.06s0 .19 0 .3c-.07-.15-.06.27-.13.18v.13a.71.71 0 0 1 .15-.33v.11c.1 0 0-.23.07-.28s0 .13 0 .13h-.07a.65.65 0 0 1 .16-.32c0 .1.08-.09.09 0v.06s-.08.23-.11.35v.07a2.41 2.41 0 0 1 -.07.37c0 .12-.11.17-.15.11s0 0 0 .18-.06-.11-.07-.15 0 .1-.07.1.2.17.24.07a.17.17 0 0 1 0-.17 4.28 4.28 0 0 0 1.21 3.5l.18.16c-.07 0-.15 0-.13.08v-.07c0 .07.18.17.17.26l.25.1s0 .07-.05 0 .09.07 0 .06c.3.11.56.26.84.39a2.43 2.43 0 0 0 .87.26c.13 0 .1 0 .16.07l.18-.07c.06 0 0 .06 0 .08a4.11 4.11 0 0 0 .86 0c.07 0 0-.07.08-.09s0 .06.09.06h.13s.37-.08.3-.21c.11 0 .11 0 .07.06a1.59 1.59 0 0 1 .38-.07h.38a.78.78 0 0 0 .37-.29c0 .1 0 0 .11 0v.09l.13-.09v-.08a.27.27 0 0 1 .21-.07h.08s-.22.09-.07-.06c0 0 .16 0 .18-.07s-.1 0-.08 0l.12-.1v.1a5.53 5.53 0 0 0 .87-1c-.06 0 .17-.28.06-.29-.06.09 0-.07 0-.14 0 .1.16-.11.06.1l.13-.13c.11 0 .16-.12.2-.26a2.13 2.13 0 0 1 .13-.43c.14-.22.09-.54.12-.59a.66.66 0 0 0 .11-.56zm-6.66-4a.6.6 0 0 1 .1.11l-.16.1-.12.08a.84.84 0 0 1 .18-.28zm-.53.58-.1.1v-.1zm-.91 1.12a.14.14 0 0 0 0-.09.31.31 0 0 1 -.1.15v-.11a.31.31 0 0 1 -.11.27c-.11.1-.11 0-.12-.09a.25.25 0 0 1 .14-.2.41.41 0 0 0 .19-.2s-.09 0 0-.11a.55.55 0 0 1 .38-.16 4 4 0 0 0 -.38.54zm6.07-1.44h-.07v-.07l.13.14a.12.12 0 0 0 -.07-.07z"/><path d="m61.81 32.85a4.11 4.11 0 0 0 0-.86c0-.07-.07 0-.09-.07s.06 0 .06-.1v-.13s-.09-.37-.22-.3c0-.11 0-.1.06-.07a1.21 1.21 0 0 1 -.06-.38s-.07-.19-.14-.35a.79.79 0 0 0 -.24-.35c.11.05 0 0 0-.11h.09l-.1-.16c0 .05 0 0-.08 0s0-.13-.07-.21v-.07c0-.06.09.22-.06.06 0 0 0-.16-.07-.18s0 .1 0 .08a.52.52 0 0 0 -.1-.11h.1a4.65 4.65 0 0 0 -1-.88c0 .06-.28-.17-.29-.06.09.06-.07 0-.14 0 .1 0-.1-.17.11-.07h-.57c-1.33 0-3.68.32-4.55 2.44h-.09a5.38 5.38 0 0 1 1.64-2.73.35.35 0 0 1 -.13.08c-.08 0-.06 0 0-.07-.11.12-.41.1-.45.15s0 .08 0 .12 0-.14-.21 0h.06s-.1.29-.18.29c-.15 0-.21.31-.29.24v-.05c-.16.22-.1.05-.25.27-.09.07-.08.16-.18.14a2.09 2.09 0 0 0 -.2.22s-.07.05-.07.08-.23.24-.26.3.07 0 .07 0a.17.17 0 0 0 -.13.16c-.07 0-.16-.06-.26.1 0 0 0-.06.06 0s0 .05 0 .06h.06c.06 0-.11.19-.21.34h.06c.06 0 0 .26-.11.15a3.58 3.58 0 0 1 -.14.59 1 1 0 0 0 0 .43v.16c-.09.17 0 .13-.13.33.06-.08.08 0 .11 0s0 .09-.08.14h.06a.28.28 0 0 0 0 .18s0 .28-.09.33 0 .17.09.2 0 .05 0 .08-.09 0-.06 0h-.14a.43.43 0 0 0 0 .16v.06a.11.11 0 0 1 0 .11.75.75 0 0 1 .1.32.52.52 0 0 0 .1.27c.06.17.21.3.24.42h-.05c.05.11.1.22.16.33l.19.27c.07.1.15.19.22.19s.16.15.22.23a1.7 1.7 0 0 1 .19.19c.23.09.36.29.55.4l.17.13c0-.06 0 0 .08.07a.46.46 0 0 0 .25.1h.12c-.13-.08 0 0 .06-.09l.06.07c0 .06.2.1.24.16h.06s.19 0 .3 0c-.14.07.28.06.18.13h.13a.71.71 0 0 1 -.33-.15h.11c0-.1-.23 0-.28-.07a.17.17 0 0 0 .14 0 .65.65 0 0 1 -.32-.16c.1 0-.09-.07 0-.1h.06a2 2 0 0 0 .35.11h.05l.37.08c0 .06.17.11.12.15s0 0 .17 0-.1.06-.14.07.09.06.09.07.17-.19.08-.23a.19.19 0 0 1 -.18 0 4.22 4.22 0 0 0 3.5-1.21l.16-.18c0 .08 0 .15.08.14h-.06c.06 0 .17-.19.25-.19a2.44 2.44 0 0 0 .21-.11c-.07 0 .08-.09.06 0a8.26 8.26 0 0 1 .4-.85 2.23 2.23 0 0 0 .25-.87 1.65 1.65 0 0 0 .07-.16.87.87 0 0 0 -.07-.17c.06-.15.09-.09.1-.1zm-8.65-.64h-.09l.1-.11a.41.41 0 0 0 -.01.11zm.18 1.79v-.14a.42.42 0 0 1 .07-.27.29.29 0 0 0 .07.22 1.33 1.33 0 0 1 -.14.19zm.54-4.14a.14.14 0 0 0 0 .09.09.09 0 0 1 0 .07h-.06a.64.64 0 0 1 .06-.18zm0 4.88a1.2 1.2 0 0 1 -.26-.18l.11-.1.08.13-.06.07h.07l.09.12s0-.05 0-.06zm.34.47a.24.24 0 0 1 0-.12l.09.1s-.06 0-.07 0zm1.19 1.06a.26.26 0 0 1 -.21-.14.52.52 0 0 0 -.2-.19s0 .09-.11 0a.56.56 0 0 1 -.16-.29 4.07 4.07 0 0 0 .55.37h-.09a.28.28 0 0 1 .14.1h-.11a.34.34 0 0 1 .28.11c.11.11.07 0 0 0z"/><path d="m51.25 19.18v-.31a1.22 1.22 0 0 1 0-.27 3 3 0 0 1 -.1-.67v-.32a.54.54 0 0 0 -.09-.25.61.61 0 0 1 -.05-.12c0 .15-.07 0-.11 0v-.1c0-.07-.07-.21 0-.28h.06v-.07a.52.52 0 0 0 -.23-.19c.15 0-.15-.24 0-.23-.11 0 0-.05-.12-.06a.7.7 0 0 1 .12.34l-.09-.06c0 .1.14.18.14.24s-.06-.11-.07-.1h.06a.6.6 0 0 1 .11.34c-.06-.07 0 .12-.06.08v-.07l-.17-.33v-.06l-.2-.31v-.18s-.07 0-.14-.12.12 0 .16 0 0-.1 0-.12-.26 0-.22.12l-.37-.08a4.53 4.53 0 0 0 -1.41-1h-.18c-1.32 0-3.67.32-4.54 2.44h-.1a5.5 5.5 0 0 1 1.57-2.68 2.24 2.24 0 0 0 -.81.42.27.27 0 0 0 -.17.06c-.06.06-.05.11-.08.17s0 0-.06 0c-.26.17-.42.45-.62.59 0 .08.07 0 0 .12 0-.08 0 0-.11 0s-.12.12-.12.07c0 .14-.2.31-.06.35-.06.11-.1.06-.09 0a1.39 1.39 0 0 1 -.23.31s-.09.18-.16.34a.84.84 0 0 0 -.08.41c0-.1 0 0-.09.07v.09.09a.31.31 0 0 1 -.11.19v-.04c0 .07.1-.21.09 0 0 0-.12.11-.08.18 0-.11.05-.09.06-.05v.15l-.06-.06a5.09 5.09 0 0 0 .09 1.35c.06 0 .07.32.15.26 0-.11.09 0 .1.1-.06-.08 0 .2-.12 0v.19c-.07.08 0 .2 0 .33a1.53 1.53 0 0 1 .21.4c.06.26.32.46.33.52h.06a.56.56 0 0 0 .25.41.39.39 0 0 0 .15.26l.19.19c0-.06.12 0 .2.13s.19.19.27.14.17.19.23.26c0 .13.28.12.38.17s0 .06 0 .07c.16 0 .35.23.41.22s.06 0 .1-.07-.07.13.16.13c.07 0 .27-.13.33-.08.14.07.36-.07.37 0v.05h.37c.11 0 .17-.05.22 0a1.5 1.5 0 0 0 .3 0h.5c-.11 0-.07 0 0-.06s.12 0 .21 0 .06.16.25.12 0 0 0 0 .21 0 .39-.09c-.06 0 0 0 0-.07s.2-.16.19 0c.15-.1.34-.2.51-.3a.89.89 0 0 0 .34-.27c0-.05.12-.07.17-.1a1.83 1.83 0 0 0 .32-.14c-.1 0-.09 0 0-.1h.16v-.06a.4.4 0 0 0 .13-.13 2 2 0 0 1 .3-.16c.06 0 .11-.12.07-.21a.09.09 0 0 0 .07 0c0 .05 0 .08.06 0l.09-.12a.24.24 0 0 1 .06-.11.62.62 0 0 1 .17-.28.47.47 0 0 0 .12-.32v.08c.08-.17.06-.37.13-.47a.93.93 0 0 0 .12-.33h.06a1.94 1.94 0 0 1 .07-.33.38.38 0 0 0 -.39-.54zm-3.64 3.9h-.18l.06-.06h.16v.05zm1.94-1.08.08-.08a.16.16 0 0 0 .06.08zm.45-5.85a.19.19 0 0 1 .11.14zm.69 4.54a.45.45 0 0 1 -.24.14 1.24 1.24 0 0 0 .1-.2l.23-.11zm.14-.73v-.14-.15a1 1 0 0 1 .17.33h-.18zm.17-.76v-.14a.33.33 0 0 1 0 .14zm0-.79q0-.32-.12-.63v.07a.54.54 0 0 1 0-.18l.06.1c0-.09-.1-.14-.11-.26s.06-.11.15 0a.25.25 0 0 1 0 .24.71.71 0 0 0 .02.25s0-.08.06.08a.63.63 0 0 1 -.06.33z"/><path d="m40.43 35.59c-.1 0-.18.14-.24.14s.11-.06.1-.07v.06a.61.61 0 0 1 -.34.12c0-.05 0 0-.06 0a2.59 2.59 0 0 1 -.55.44h.1a.37.37 0 0 0 .24-.1h.13c-.15 0 0-.06 0-.1h.09s-.06 0 0 0l.28-.06a.06.06 0 0 1 0 .06c.09-.06.07 0 .07 0a.6.6 0 0 0 .2-.23c-.06.15.23-.15.22 0 0-.12 0 0 .06-.13a.71.71 0 0 1 -.34.13z"/><path d="m42.44 31.24h.07s0-.12 0 0c-.13-.29-.21-.59-.31-.88a2.33 2.33 0 0 0 -.44-.8.25.25 0 0 0 -.06-.16l-.17-.07v-.07c-.18-.26-.45-.41-.6-.61-.09 0 0 .06-.13 0 .09 0 0 0 0-.11s-.13-.11-.07-.11c-.14 0-.32-.2-.36-.06-.11-.06-.06-.1 0-.1a1.34 1.34 0 0 1 -.31-.22 3.58 3.58 0 0 0 -.35-.15.69.69 0 0 0 -.4-.08c.1 0 0 0-.07-.09h.09l-.19-.05h-.08a.3.3 0 0 1 -.2-.1h-.08c-.07 0 .21.1 0 .09 0 0-.11-.12-.18-.08.11 0 .1.05 0 .06h-.1l.06-.07a5.1 5.1 0 0 0 -1.35.11c0 .07-.32.08-.25.17.11 0 0 .08-.09.1.08-.06-.2-.05 0-.13h-.19c-.07-.07-.19 0-.32 0a1.49 1.49 0 0 1 -.36.17c-.25.05-.44.32-.5.33v.05a.68.68 0 0 0 -.41.27.39.39 0 0 0 -.26.15l-.19.19c.06.05 0 .12-.13.21s-.19.18-.14.26-.18.18-.24.24-.13.3-.13.38-.06 0-.08 0c0 .16-.22.35-.2.42s0 .06.07.1-.14-.07-.13.16v-.05s.14.27.09.34v-.05c-.07.14.07.36 0 .37v.37.23.29a.21.21 0 0 0 0 .11c-.06 0 0 .34 0 .4 0-.12 0-.07.06 0s0 .12 0 .2-.17.07-.12.26 0 0 .05 0a1 1 0 0 1 .09.39c0-.06 0 0 .08 0s.17.19 0 .18c.1.15.2.34.31.51a.88.88 0 0 0 .28.33 1.34 1.34 0 0 0 .1.17 1.83 1.83 0 0 0 .14.32c0-.1 0-.08.1-.05a.43.43 0 0 1 0 .16h.07a.25.25 0 0 0 .13.12 1.87 1.87 0 0 1 .17.3.14.14 0 0 0 .2.07v.07s-.08 0 0 .06h.05a.31.31 0 0 0 .11.09h.39l-.06-.11.21.1h.2c1.32 0 3.67-.32 4.54-2.44h.1a5.84 5.84 0 0 1 -.95 2.2l.27-.14h.06a2.2 2.2 0 0 0 .32-.21h.18s0-.07.11-.14 0 .12 0 .16.11 0 .12 0 0-.26-.12-.22a.24.24 0 0 1 -.13.11 4.24 4.24 0 0 0 1.62-3.33v-.24c0-.08.1.1.15 0v.08c.07 0 0-.25.06-.3zm-8.44 1.61h-.06v-.18l.06.07zm1 2.07v-.15l.07.08a.23.23 0 0 0 -.07.07z"/><path d="m39.95 35.75v.01l.01-.01z"/><path d="m23.56 31.61h.07s0-.12 0 0c-.13-.29-.21-.59-.31-.88a2.33 2.33 0 0 0 -.44-.8.27.27 0 0 0 -.06-.17l-.17-.08c0-.06 0 0 .05-.06-.18-.25-.46-.41-.6-.61-.09 0 0 .07-.13 0 .09 0 0-.05 0-.11s-.13-.11-.07-.11c-.14 0-.32-.2-.36-.06-.11-.06-.06-.1 0-.1l-.22-.14h-.55c-1.32 0-3.67.32-4.54 2.44h-.1a5.38 5.38 0 0 1 1.67-2.77.36.36 0 0 0 -.27.08 3 3 0 0 1 -.4.21c-.26.06-.45.32-.51.33v.06a.63.63 0 0 0 -.41.26.35.35 0 0 0 -.26.15 1.7 1.7 0 0 0 -.19.19c.06 0 0 .12-.13.2s-.19.2-.13.28-.19.17-.25.24c-.12 0-.11.27-.16.37s-.06 0-.07 0c0 .16-.23.36-.22.42s.2.05.2.05-.14-.07-.13.16v-.05s.14.27.09.34v-.06c-.07.14.07.36 0 .37v.36.23a1.5 1.5 0 0 0 0 .3.17.17 0 0 0 0 .1c-.07 0 0 .34 0 .4 0-.12 0-.07.06 0a.18.18 0 0 0 0 .2c-.07 0-.16.07-.11.26s0 0 .05 0 .06.21.1.39c0-.06 0 0 .06 0s.17.19 0 .18c.1.15.2.34.31.51a1.13 1.13 0 0 0 .27.34c.06 0 .07.11.11.16.06.18.07.12.15.32 0-.1 0-.09.1 0v.15h.06a.37.37 0 0 0 .13.12 1.35 1.35 0 0 1 .16.3c0 .06.13.11.21.07l.05.07c-.05 0-.08 0 0 .06l.12.1a.24.24 0 0 1 .11.06.64.64 0 0 1 .29.16.47.47 0 0 0 .32.12h-.09c.17.07.37.05.47.12a2 2 0 0 0 .34.12v.04l.33.07a.37.37 0 0 0 .29 0h.31a1.22 1.22 0 0 1 .27 0 3 3 0 0 1 .67-.1h.32a.5.5 0 0 0 .24-.09l.13-.06c-.15 0 0-.06 0-.1h.21c.07 0 .21-.07.28-.05v.05c.09-.06.06 0 .07 0a.47.47 0 0 0 .19-.23c-.05.15.24-.15.22 0 0-.12.06 0 .07-.13a.71.71 0 0 1 -.34.13l.06-.09c-.1 0-.18.14-.24.14s.11-.06.1-.08v.07a.61.61 0 0 1 -.34.12c.08-.06-.12 0-.08-.06h.07l.33-.17h.06l.32-.2h.23s0-.07.11-.14 0 .12 0 .16.11 0 .12 0 0-.26-.12-.22a.18.18 0 0 1 -.14.11l.03-.63.12-.11h.05a4.23 4.23 0 0 0 1.37-3.11v-.28c.06.05.11.1.15 0v.08c.06 0 0-.25 0-.3zm-8.49 1.61s0 .05-.05 0a.54.54 0 0 1 -.02-.22l.05.05v.09s.04.11.02.08zm1.05 2.07v-.14l.07.07zm1.34 1h-.05a.49.49 0 0 1 -.14-.24l.2.1.11.22zm1 .22a1.12 1.12 0 0 1 -.31.05.38.38 0 0 1 0-.15h.14.15zm.57.08-.1-.05h.13zm1.38-.05a.48.48 0 0 0 -.29 0s.08.05-.09.07a.49.49 0 0 1 -.31-.09 4.7 4.7 0 0 0 .63-.13h-.07a.25.25 0 0 1 .17 0h-.1c.09 0 .14-.09.27-.11s.1.06 0 .15a.28.28 0 0 1 -.18 0z"/></g><path d="m12.73 76.62v1a1.36 1.36 0 0 0 0 .29.25.25 0 0 0 .05.15.17.17 0 0 0 .1.07h.15s0 0 0 0h-1.03s0 0 0 0a.58.58 0 0 0 .18 0 .23.23 0 0 0 .1-.07.75.75 0 0 0 0-.16c0-.06 0-.15 0-.27v-2.17a2.64 2.64 0 0 0 0-.28.3.3 0 0 0 -.05-.16.21.21 0 0 0 -.11-.08h-.17s0 0 0 0h1.05s0 0 0 0a0 0 0 0 1 0 0h-.16a.14.14 0 0 0 -.09.08.47.47 0 0 0 0 .16 1.47 1.47 0 0 1 0 .28 1 1 0 0 0 0 .25v.91zm1.77-1.76h.19a.67.67 0 0 1 .2 0s0 0 0 0h-.26a.76.76 0 0 0 -.26.16 2.53 2.53 0 0 0 -.26.23l-.34.34-.16.17-.18.19-.16.17-.11.13.22.23.28.3c.09.11.19.21.29.31l.25.26a3.88 3.88 0 0 0 .42.39 1.79 1.79 0 0 0 .44.27h.17.17s0 0 0 0h-.16-.24a1.19 1.19 0 0 1 -.63-.15 2.35 2.35 0 0 1 -.32-.23 3.06 3.06 0 0 1 -.36-.36l-.21-.22-.19-.05-.21-.24-.17-.2-.06-.06c.08-.1.19-.22.33-.37l.4-.45.15-.16.12-.14.11-.13.15-.16a.16.16 0 0 0 0-.12s0 0-.08-.06 0 0 0 0h.47z" fill="#666"/><path d="m16.81 76.62v1a1.27 1.27 0 0 0 0 .28.3.3 0 0 0 .05.16.21.21 0 0 0 .11.08.69.69 0 0 0 .2 0 0 0 0 0 1 0 0s0 0 0 0h-1.12s0 0 0 0h.17a.18.18 0 0 0 .1-.07.52.52 0 0 0 .06-.16 2.83 2.83 0 0 0 0-.29v-2.1c0-.1 0-.21 0-.32a.36.36 0 0 0 -.07-.17.18.18 0 0 0 -.1-.07h-.16a0 0 0 0 1 0 0h1.06s0 0 0 0h-.15a.16.16 0 0 0 -.09.07.34.34 0 0 0 -.05.17 1.62 1.62 0 0 0 0 .31v1.13z" fill="#666"/><path d="m21.17 75v.61a.05.05 0 0 1 0 0s0 0 0 0a1.09 1.09 0 0 0 0-.26.35.35 0 0 0 -.08-.16.35.35 0 0 0 -.13-.08h-.17-.82v2.55.29a.56.56 0 0 0 .03.05.33.33 0 0 0 .13.07 1.2 1.2 0 0 0 .2 0 0 0 0 0 1 0 0s0 0 0 0h-1.23s0 0 0 0h.14a.16.16 0 0 0 .12-.06.29.29 0 0 0 .08-.14.72.72 0 0 0 0-.29v-2.58h-.72l-.31.07a.42.42 0 0 0 -.16.09.3.3 0 0 0 -.08.16 2 2 0 0 0 0 .24 0 0 0 0 1 0 0s0 0 0 0v-.73s0 0 0 0h.06.11 2.18a2.29 2.29 0 0 0 .51 0 .15.15 0 0 0 .09 0h.05s-.01.08 0 .17z" fill="#666"/><path d="m22.63 78h1.2a3.07 3.07 0 0 0 .34 0 .59.59 0 0 0 .39-.2 1 1 0 0 0 .18-.51s0 0 0 0v.6a.69.69 0 0 1 0 .13.28.28 0 0 1 -.17.18 1.1 1.1 0 0 1 -.36 0h-2.21a.18.18 0 0 1 0-.06c.1-.12.23-.31.4-.55l.72-1 .45-.64.3-.43.2-.27.13-.2h-1.34a.85.85 0 0 0 -.26 0 .57.57 0 0 0 -.18.12.52.52 0 0 0 -.11.19 2 2 0 0 0 -.06.26s0 0 0 0v-.32a.81.81 0 0 1 0-.22.45.45 0 0 1 0-.19.21.21 0 0 1 .16-.08 2.16 2.16 0 0 1 .36 0h2s0 0 0 .09-.29.36-.49.61-.44.6-.72 1l-.26.36-.26.38-.23.35-.17.26s0 .07 0 .08-.06.06-.01.06z" fill="#666"/><path d="m26.3 76.62v-1.4a.41.41 0 0 0 -.05-.18.29.29 0 0 0 -.12-.1h-.21s0 0 0 0h1.17a1.47 1.47 0 0 1 .41.07.74.74 0 0 1 .27.16.53.53 0 0 1 .16.23.65.65 0 0 1 .05.27.78.78 0 0 1 0 .3.8.8 0 0 1 -.13.22.91.91 0 0 1 -.4.28 1.25 1.25 0 0 1 .68.31.89.89 0 0 1 .22.58.85.85 0 0 1 -.08.42 1 1 0 0 1 -.27.22 1 1 0 0 1 -.36.19 1.59 1.59 0 0 1 -.43.06 2.75 2.75 0 0 1 -.4 0 2.25 2.25 0 0 0 -.34 0h-.47s0 0 0 0h.19a.22.22 0 0 0 .1-.09.37.37 0 0 0 .05-.17 1.62 1.62 0 0 1 0-.29.88.88 0 0 0 0-.23v-.68zm1.28-.84a.88.88 0 0 0 -.15-.57.9.9 0 0 0 -.73-.21s0 0 0 .08v1.32h.26a1 1 0 0 0 .3 0 .43.43 0 0 0 .23-.19.66.66 0 0 0 .09-.43zm.31 1.62a.87.87 0 0 0 -.05-.36.72.72 0 0 0 -.2-.28.92.92 0 0 0 -.3-.18 1.14 1.14 0 0 0 -.41-.07h-.24v1.35a.36.36 0 0 0 0 .1.16.16 0 0 0 .07.07.87.87 0 0 0 .42.07.66.66 0 0 0 .48-.18.68.68 0 0 0 .23-.52z" fill="#666"/><path d="m32.54 76.58a3.55 3.55 0 0 1 -.08.73 1.34 1.34 0 0 1 -.24.53 1 1 0 0 1 -.42.34 1.49 1.49 0 0 1 -.62.12 1.9 1.9 0 0 1 -.67-.09.89.89 0 0 1 -.43-.29 1.13 1.13 0 0 1 -.24-.49 2.53 2.53 0 0 1 -.08-.72v-1.23a1.55 1.55 0 0 0 0-.31.43.43 0 0 0 -.06-.17.28.28 0 0 0 -.12-.08h-.19a0 0 0 0 1 0 0h1.11s0 0 0 0a0 0 0 0 1 0 0h-.14a.2.2 0 0 0 -.1.08.49.49 0 0 0 -.06.17v.31 1.19.59a1.25 1.25 0 0 0 .15.46.72.72 0 0 0 .33.29 1.12 1.12 0 0 0 .54.11.91.91 0 0 0 .53-.13 1 1 0 0 0 .33-.33 1.66 1.66 0 0 0 .16-.49 3.66 3.66 0 0 0 .05-.57v-1.27a1.66 1.66 0 0 0 0-.22.43.43 0 0 0 0-.12.21.21 0 0 0 -.1-.06h-.15s0 0 0 0h.9s0 0 0 0a.26.26 0 0 0 -.21.11.71.71 0 0 0 -.07.32v1.25z" fill="#666"/><path d="m34.75 76.54v1.14a1.23 1.23 0 0 0 0 .19.21.21 0 0 0 .06.1.21.21 0 0 0 .11 0h.62a.87.87 0 0 0 .28-.05.47.47 0 0 0 .17-.14.54.54 0 0 0 .1-.2l.06-.25s0 0 0 0v.54a.62.62 0 0 1 0 .13.16.16 0 0 1 -.09.12.62.62 0 0 1 -.23 0h-1.83s0 0 0 0a.47.47 0 0 0 .17 0 .21.21 0 0 0 .13-.12.33.33 0 0 0 .05-.16v-.28-2.34a.61.61 0 0 0 -.05-.18.2.2 0 0 0 -.11-.09.65.65 0 0 0 -.21 0 0 0 0 0 1 0 0h1.78.18s.05 0 .05.12a1.2 1.2 0 0 1 0 .24 2.48 2.48 0 0 0 0 .27s0 0 0 0a.6.6 0 0 0 -.1-.32.36.36 0 0 0 -.39-.26h-.74v1.34h1 .05v.13a1.48 1.48 0 0 1 0 .19 1.06 1.06 0 0 1 0 .14s0 0 0 0a.24.24 0 0 0 0-.12.12.12 0 0 0 -.07-.07.2.2 0 0 0 -.11 0h-.76z" fill="#666"/><path d="m40.49 77.55a1.14 1.14 0 0 0 0 .28.47.47 0 0 0 0 .17.24.24 0 0 0 .1.1.58.58 0 0 0 .19 0 0 0 0 0 1 0 0s0 0 0 0h-1.01s0 0 0 0a.41.41 0 0 0 .16 0 .22.22 0 0 0 .07-.1.58.58 0 0 0 0-.18v-1.3h-.93c-.33 0-.65 0-1 0v1a1.23 1.23 0 0 0 0 .29.41.41 0 0 0 0 .18.2.2 0 0 0 .09.09.47.47 0 0 0 .17 0s0 0 0 0h-.91s0 0 0 0a.53.53 0 0 0 .18 0 .19.19 0 0 0 .1-.1.33.33 0 0 0 0-.17v-2.6a.47.47 0 0 0 0-.17.22.22 0 0 0 -.1-.09.67.67 0 0 0 -.19 0 0 0 0 0 1 0 0s0 0 0 0h1.07a0 0 0 0 1 0 0h-.17a.18.18 0 0 0 -.09.08.64.64 0 0 0 0 .17v1.17h1.92v-.88a1.31 1.31 0 0 0 0-.28.41.41 0 0 0 -.14-.21.2.2 0 0 0 -.09-.09.53.53 0 0 0 -.17 0s0 0 0 0a0 0 0 0 1 0 0h1.06s0 0 0 0a0 0 0 0 1 0 0 .61.61 0 0 0 -.18 0 .22.22 0 0 0 -.1.09.58.58 0 0 0 0 .18v2.09c-.01.14-.03.22-.03.28z" fill="#666"/><path d="m42.86 76.54v1.14a1.23 1.23 0 0 0 0 .19.21.21 0 0 0 .06.1.18.18 0 0 0 .1 0h.63a.92.92 0 0 0 .35.03.53.53 0 0 0 .27-.34 1.84 1.84 0 0 0 .05-.25.05.05 0 0 1 0 0s0 0 0 0v.59a.2.2 0 0 1 -.09.13.85.85 0 0 1 -.23 0h-1.86s0 0 0 0h.17a.14.14 0 0 0 .11-.07.3.3 0 0 0 0-.16 2.66 2.66 0 0 0 0-.28v-2.4a.61.61 0 0 0 0-.18.17.17 0 0 0 -.11-.09.65.65 0 0 0 -.2 0 0 0 0 0 1 0-.06h1.77a.55.55 0 0 1 .18 0s.06 0 0 .12a1.54 1.54 0 0 0 0 .24v.27s0 0 0 0a.61.61 0 0 0 -.08-.32.36.36 0 0 0 -.28-.15h-.8v1.34h1 .05a.26.26 0 0 1 0 .11v.19s0 .11 0 .14a0 0 0 0 1 0 0s0 0 0 0a.43.43 0 0 0 0-.12.18.18 0 0 0 -.08-.07.2.2 0 0 0 -.11 0h-.76z" fill="#666"/><path d="m47.13 78a.89.89 0 0 0 .28-.07.55.55 0 0 0 .17-.13.54.54 0 0 0 .1-.2 1.05 1.05 0 0 0 .06-.24s0 0 0 0v.66a.16.16 0 0 1 -.09.12.59.59 0 0 1 -.23 0h-1.9s0 0 0 0a.47.47 0 0 0 .17 0 .14.14 0 0 0 .1-.08.33.33 0 0 0 0-.16 1.42 1.42 0 0 1 0-.27 2.42 2.42 0 0 0 0-.27v-1.91a1 1 0 0 0 0-.26.34.34 0 0 0 0-.17.16.16 0 0 0 -.1-.08h-.17a0 0 0 0 1 0 0s0 0 0 0h1s0 0 0 0h-.15a.18.18 0 0 0 -.09.08.43.43 0 0 0 0 .16 2.45 2.45 0 0 0 0 .27v2.41a.36.36 0 0 0 0 .11.22.22 0 0 0 .11.05h.67z" fill="#666"/><path d="m52 74.87v-.07.07c0 .11.09.28.17.5l.27.72.31.84c.11.29.22.56.33.82a.76.76 0 0 0 .09.18.27.27 0 0 0 .09.12.34.34 0 0 0 .12.06.45.45 0 0 0 .16 0s0 0 0 0h-.99s0 0 0 0a.21.21 0 0 0 .19-.08.29.29 0 0 0 0-.24c0-.13-.09-.27-.15-.44s-.11-.32-.17-.49h-1.09l-.07.2c0 .07-.06.15-.08.23a2.5 2.5 0 0 0 -.09.25c0 .08-.05.16-.07.23a.57.57 0 0 0 -.02.23.42.42 0 0 0 0 .1.18.18 0 0 0 .1 0h.12s0 0 0 0h-1s0 0 0 0h.11.1a.34.34 0 0 0 .12-.09.4.4 0 0 0 .1-.15 4.49 4.49 0 0 0 .35-.56c.08-.21.17-.43.27-.65zm.39 1.86-.21-.61-.25-.63-.11.28-.14.33-.24.63z" fill="#666"/><path d="m56 78a.82.82 0 0 0 .28-.07.59.59 0 0 0 .18-.13 1.24 1.24 0 0 0 .1-.2l.06-.24a0 0 0 0 1 0 0s0 0 0 0v.66a.14.14 0 0 1 -.09.12.59.59 0 0 1 -.23 0h-1.9s0 0 0 0a.57.57 0 0 0 .18 0 .16.16 0 0 0 .1-.08.47.47 0 0 0 0-.16 1.42 1.42 0 0 1 0-.27 1.22 1.22 0 0 0 0-.27v-1.91a1 1 0 0 0 0-.26.53.53 0 0 0 0-.17.27.27 0 0 0 -.1-.08h-.18a0 0 0 0 1 0 0s0 0 0 0h1s0 0 0 0h-.15a.23.23 0 0 0 -.09.08.42.42 0 0 0 0 .16 1.23 1.23 0 0 0 0 .27v2.21a.67.67 0 0 0 0 .2.15.15 0 0 0 0 .11.19.19 0 0 0 .1.05h.74z" fill="#666"/><path d="m58.75 75h-.4v2.59a1.36 1.36 0 0 0 0 .29.33.33 0 0 0 .07.17.25.25 0 0 0 .14.08h.21s0 0 0 0h-1.06s0 0 0 0h.11a.14.14 0 0 0 .08-.07.75.75 0 0 0 0-.16 1.63 1.63 0 0 1 0-.28v-2.1a1.37 1.37 0 0 0 0-.31.61.61 0 0 0 0-.18.27.27 0 0 0 -.12-.09h-.2s0 0 0 0h.82a2.16 2.16 0 0 1 .36 0 1.34 1.34 0 0 1 .52.1.89.89 0 0 1 .54.48 1.12 1.12 0 0 1 0 .31 1 1 0 0 1 0 .45 1 1 0 0 1 -.22.33 1.31 1.31 0 0 1 -.36.21 1.41 1.41 0 0 1 -.45.07h-.19-.15s0 0 0 0h.16a.8.8 0 0 0 .89-.89.76.76 0 0 0 -.19-.54.94.94 0 0 0 -.56-.46z" fill="#666"/><path d="m61.16 77.88a1.5 1.5 0 0 1 0-.3 2.7 2.7 0 0 1 0-.28s0 0 0 0a1.08 1.08 0 0 0 .21.62.67.67 0 0 0 .54.23.74.74 0 0 0 .55-.18.59.59 0 0 0 .18-.45.7.7 0 0 0 -.2-.52 1.12 1.12 0 0 0 -.24-.19l-.2-.18a2.61 2.61 0 0 1 -.28-.17 1.26 1.26 0 0 1 -.24-.22 1.56 1.56 0 0 1 -.16-.28.9.9 0 0 1 0-.36.84.84 0 0 1 .27-.61 1 1 0 0 1 .7-.23h.3.2a.4.4 0 0 1 .15.1.32.32 0 0 1 0 .21.54.54 0 0 1 0 .19 1.83 1.83 0 0 0 0 .21s0 0 0 0a1.05 1.05 0 0 0 -.06-.24.45.45 0 0 0 -.12-.21.68.68 0 0 0 -.91 0 .55.55 0 0 0 -.17.44.65.65 0 0 0 .18.46 1.43 1.43 0 0 0 .42.31l.43.25a1.2 1.2 0 0 1 .29.26.81.81 0 0 1 0 .26 1.47 1.47 0 0 1 0 .36.74.74 0 0 1 -.09.36.79.79 0 0 1 -.23.28 1.06 1.06 0 0 1 -.33.18 1.52 1.52 0 0 1 -.42.06 2.19 2.19 0 0 1 -.36 0l-.26-.08a.53.53 0 0 1 -.14-.12.36.36 0 0 1 -.01-.16z" fill="#666"/></svg>