<svg id="Layer_1" data-name="Layer 1" xmlns="http://www.w3.org/2000/svg" viewBox="0 0 155 20"><defs><style>.cls-1{fill:#673065;}.cls-2{fill:#666;}.cls-3{fill:#5c5e5e;}</style></defs><title>Artboard 1</title><path class="cls-1" d="M26.23,17.78V17.3c0-.14,0,0-.05-.05s0,0,0-.05v-.07s-.05-.21-.12-.17,0-.06,0,0a.38.38,0,0,1,0-.21,1.19,1.19,0,0,1-.08-.2.64.64,0,0,0-.13-.19c.06,0,0,0,0-.06h0l-.06-.09h-.05a.16.16,0,0,1,.05-.21h0l-.05-.07h.05a3,3,0,0,0-.58-.49s-.15-.1-.16,0H25c-.08,0-.06-.09.06,0H24.8a2.56,2.56,0,0,0-2.53,1.36h-.06a3,3,0,0,1,.92-1.53H23s-.23,0-.25.08,0,0,0,.07,0-.08-.11,0h0s-.05.15-.1.16h0c-.08,0-.11.17-.16.13h0c-.08.12-.05,0-.14.15h0s0,.09-.11.08h0l-.11.12h0l-.15.17h0s-.06,0-.07.09-.09,0-.15.05h0l-.12.2h0s0,.14-.06.08a1.16,1.16,0,0,1-.08.32.53.53,0,0,0,0,.25v.1h0a1.34,1.34,0,0,0-.07.18h.06c.06,0,0,0,0,.08h0a.17.17,0,0,0,0,.1h0c-.05,0,0,.15-.05.18s0,.09.05.11m0,.05h0v.09h0v.07a.49.49,0,0,1,0,.17.25.25,0,0,0,.08.18h0c0,.1.12.17.14.24h0a.56.56,0,0,0,.09.17h0l.1.16s.08.1.13.1.08.08.12.12h0a.47.47,0,0,1,.1.1l.12.08h0a1.33,1.33,0,0,0,.19.14h0l.1.07h0a.15.15,0,0,0,.13,0h.07c-.07-.05,0,0,0-.05h0s.11.05.13.09h.17c.06,0,.16,0,.1.08s0,0,.07,0a.37.37,0,0,1-.18-.08h0a.51.51,0,0,1-.18-.09v-.05h0l.24.08h.19s.1.07.07.09,0,0,.09,0h0s.09-.11,0-.13a.11.11,0,0,1-.11,0,2.29,2.29,0,0,0,2-.65l.09-.11V19h0s.09-.1.14-.1,0-.09.05-.14h0a2.86,2.86,0,0,1,.22-.47A1.41,1.41,0,0,0,26,17.8h0v-.19h0m-4.82-.36h0l.06-.06v.07m.1,1v-.09h0a.25.25,0,0,1,0-.17v.27m.5-2.13h0m0,2.72a.71.71,0,0,1-.14-.1l.07-.06a.09.09,0,0,0,0,.07h0v.06h0M22,19h0l.07.08h0m.62.63h0m0-.14h-.06a.47.47,0,0,1,.15.06s0,.06-.05.07a.15.15,0,0,1-.11-.08.25.25,0,0,0-.12-.11h-.06a.21.21,0,0,1-.08-.16,2.34,2.34,0,0,0,.43.26h0a.46.46,0,0,0-.16-.07.16.16,0,0,1,.08.06m.82.24h0m2.31-3.63h0"/><path class="cls-1" d="M20.35,10.17V10h0a.38.38,0,0,1,0-.15.29.29,0,0,1,0-.13h0V9.67h0V9.43h0V9.25a.33.33,0,0,0,0-.14V9c0,.09,0,0-.06,0h0V8.83h0a.28.28,0,0,0-.13-.11c.09,0-.08-.13,0-.12h-.07a.62.62,0,0,1,.07.19h-.05a.57.57,0,0,1,.08.13s0-.06-.05-.06h0a.33.33,0,0,1,.06.19h0a1.77,1.77,0,0,0-.35-.26h0c0-.06-.07-.11-.1-.16a.11.11,0,0,1,0-.11l-.08-.06c-.08-.06.07,0,.09,0s0-.06,0-.07-.15,0-.13.07a.09.09,0,0,1,.06.08,2.3,2.3,0,0,0-.93-.73h-.07a2.59,2.59,0,0,0-2.53,1.36h-.05A3,3,0,0,1,17,7.68h0a1.07,1.07,0,0,0-.45.23h-.1V8h0a3.61,3.61,0,0,1-.35.33c-.12.09,0,0,0,.06s0,0-.06,0-.06.07-.06,0-.11.17,0,.2-.05,0-.05,0l-.12.17L15.58,9a.32.32,0,0,0-.05.23h0v.1h0v.05a.24.24,0,0,1-.06.11h0s.06-.12.06,0-.07.06,0,.1,0-.05,0,0a.14.14,0,0,0,0,.09h0a2.42,2.42,0,0,0,0,.76s0,.17.09.14h0v.06c0,.06,0,.1-.07,0v.28a1.63,1.63,0,0,1,.11.23h0c0,.14.18.25.18.28h0a.31.31,0,0,0,.14.23h0a.17.17,0,0,0,.09.14h0l.1.11a.15.15,0,0,1,.12.07c.05.07.1.11.15.08s.09.11.13.14h0c0,.07.16.06.21.09h0s.2.13.23.12h.06c.06,0,0,.08.08.08h0s.15-.08.19-.05h1.07c.05,0,0,.1.14.07h.21s.11-.1.1,0,.19-.11.29-.17.17-.11.18-.15.07,0,.1-.06h0c.1,0,.06,0,.18-.08-.06,0-.05,0,0-.06h.09a.27.27,0,0,0,.07-.08h0l.17-.09a.07.07,0,0,0,0-.1h0l.06-.06h0V11.6a.26.26,0,0,1,.09-.16.36.36,0,0,0,.07-.18h0s0-.21.07-.26h0l.06-.19h0v-.19a.38.38,0,0,0,0-.15m-4.9-.8h0m2.87,2.94h-.1m1.07-.6h0m.32-3.17h0m.49.63h0M20,11h0a.38.38,0,0,1-.15.09L20,11l.13-.06L20,11m.07-.4v-.08h0v-.08h0v.18H20m.07-.42v-.09h0v.06m0-.45a4.1,4.1,0,0,0-.1-.48h0a.43.43,0,0,0,0,.16.09.09,0,0,1,0-.1V9.21c0-.07,0-.06.09,0a.15.15,0,0,1,0,.13.22.22,0,0,0,0,.16v.05a.27.27,0,0,1-.06.17"/><path class="cls-1" d="M10.85,10.14l.06-.18h-.06a.22.22,0,0,0,.05-.08h0a.17.17,0,0,0,0-.1h0V9.44h0V9.36h0a.09.09,0,0,1,0-.07.34.34,0,0,1-.05-.17.3.3,0,0,0-.08-.18V9a.7.7,0,0,1-.13-.24h0a.89.89,0,0,0-.08-.17h0l-.11-.16s-.08-.1-.12-.1-.09-.08-.12-.12h0l-.1-.1L10,8h0l-.19-.14h0l-.09-.07h0a.17.17,0,0,0-.14,0H9.51s-.11,0-.13-.09H9.13c-.06,0-.15,0-.1-.08s0,0-.07,0a.46.46,0,0,1,.19.08H9c0,.06.12,0,.15,0h-.1a.31.31,0,0,1,.18.09h0L9,7.75H8.8s-.09-.06-.06-.08,0,0-.1,0h.08s-.09.11,0,.13a.09.09,0,0,1,.1,0,2.31,2.31,0,0,0-1.95.66l-.09.11V8.49h0s-.09.1-.14.1l-.06.14h0c-.07.16-.14.32-.22.47a1.2,1.2,0,0,0-.14.49h0v.19h0v.48h0v.13s0,.21.12.16,0,.07,0,0v.21l.07.19a.39.39,0,0,0,.13.2v.06h0v.09h0a.24.24,0,0,1,0,.12h0v.1h0a.09.09,0,0,0,0,.07h0a2.43,2.43,0,0,0,.57.49s.16.1.17,0h.07c.07,0,.06.09-.06,0h.3a2.59,2.59,0,0,0,2.53-1.36h.05a3.16,3.16,0,0,1-.91,1.53h.09a1.13,1.13,0,0,0,.24-.08V12.2c0-.07,0,.08.12,0h0s0-.17.1-.17h0c.08,0,.11-.17.16-.13h0c.09-.12.06,0,.14-.15h0s0-.08.1-.08h0l.11-.12h0a1.15,1.15,0,0,0,.14-.17h0s.06,0,.07-.09.09,0,.14,0h0l.12-.18h0s0-.14.06-.08a1.32,1.32,0,0,1,.08-.33.49.49,0,0,0,0-.24v-.1ZM8.73,7.57h0m.8.09h0m-.07.13h0a.33.33,0,0,0,.16.07.16.16,0,0,1-.08-.06H9.6a.2.2,0,0,1-.15-.06c-.06-.06,0-.06.05-.07s.09,0,.11.08a.2.2,0,0,0,.11.11h.06A.29.29,0,0,1,9.86,8a2.26,2.26,0,0,0-.42-.26m.69.49h0V8.3l-.06-.08m.25,3h0l-.07.07m.06-2.56a.09.09,0,0,1,0-.07h0a.09.09,0,0,1,0-.07h0l.15.1-.07.06m.22.52V9.16a.33.33,0,0,1,0-.14v.09h0a.49.49,0,0,1,0,.17m.11.79V9.94h.18l-.06.07"/><path class="cls-1" d="M15.58,2.5a.22.22,0,0,0,0-.16h0V2.06c0-.07,0-.15-.05-.16s0-.14,0-.19h0a.9.9,0,0,0-.08-.21h0s0-.23-.08-.25,0,0-.07,0,.08,0,0-.12h0s-.16-.06-.17-.1h0S15,.92,15,.87h0c-.12-.09,0-.06-.15-.14h0V.63h0l-.11-.1h-.05a1.07,1.07,0,0,0-.16-.14h0s0-.07-.09-.07a.11.11,0,0,0,0-.08H14A2.55,2.55,0,0,0,11.49,1.6h-.06A3.07,3.07,0,0,1,12.24.14h.07l.1-.09H12.3a.21.21,0,0,0-.17.08h0a.92.92,0,0,1-.24.13h0a.51.51,0,0,0-.18.09h0l-.15.11s-.1.08-.1.12-.09.09-.13.12h0l-.1.1a.44.44,0,0,1-.08.11h0a.11.11,0,0,0,0,.08h0a.52.52,0,0,0-.14.19h0l-.08.1h0a.2.2,0,0,0-.06.14v.07h0a.42.42,0,0,1-.09.14h0V1.8c0,.06,0,.15-.08.1s0,0,0,.07a.3.3,0,0,1,.08-.18v.06c.05,0,0-.13,0-.16a.06.06,0,0,0,0,.08h0a.2.2,0,0,1,0-.21c0,.05,0-.06.05,0h0s-.05.16-.07.24h0a.61.61,0,0,0,0,.19s-.06.09-.08.06,0,0,0,.1V2.07h0s.12.09.14,0a.09.09,0,0,1,0-.1,2.29,2.29,0,0,0,.66,2,.31.31,0,0,0,.11.09H11.5s.1.1.1.14l.13.06h0l.47.22a1.33,1.33,0,0,0,.48.14h.79s.2,0,.16-.12.06,0,0,0h.21L14,4.43a.26.26,0,0,0,.19-.13h.07l.1-.06h.22l.06-.06h0a3.35,3.35,0,0,0,.49-.57s.09-.16,0-.17h0c0-.08.1-.06,0,.06l.07-.08c.06,0,.09-.06.11-.14a1.79,1.79,0,0,1,.2-.28h0c.08-.13,0-.31.07-.33h0a.4.4,0,0,0,.06-.26h0M11.85.29l.06.06h-.06a.38.38,0,0,1,0-.15m-.24.4-.08.06h.08m-.7.68h0m-.09.8h0M11,1.41h0c0-.08.07-.14.07-.16L11,1.32V1.26c0-.06,0,.1-.06.16s-.07,0-.07,0a.12.12,0,0,1,.06-.16H11a.29.29,0,0,0,.11-.11V1.08A.18.18,0,0,1,11.26,1a1.88,1.88,0,0,0-.27.42ZM14.39.49h0l.07.08h-.05"/><path class="cls-1" d="M15.48,16.88h0c-.07-.17-.12-.33-.18-.49a1.22,1.22,0,0,0-.24-.45h0v-.09H15a3.51,3.51,0,0,1-.33-.34c-.08-.11,0,0-.07,0s0,0,0-.06-.07-.06,0-.06-.17-.11-.19,0,0-.06,0-.06a.57.57,0,0,1-.18-.12L14,15a.37.37,0,0,0-.23-.05h-.06a.11.11,0,0,1-.11-.06h0c-.12,0-.06-.06-.09,0H13.4a2.38,2.38,0,0,0-.75.06s-.18,0-.14.09h0c.06,0,0,.05-.06.05s-.11,0,0-.07h-.29a.94.94,0,0,1-.22.12h0c-.14,0-.25.18-.28.18h0a.31.31,0,0,0-.22.15h0a.21.21,0,0,0-.15.09h0l-.1.1a.15.15,0,0,1-.07.12c-.07.05-.11.1-.08.15s-.1.09-.14.13h0c-.07,0-.07.16-.1.22h0s-.12.2-.11.24,0,0,0,.05-.08,0-.08.09h0s.08.14.05.18h0v.21h0v.2h0v.13h0a.43.43,0,0,0,0,.16v.28h0a.08.08,0,0,0,0,.11s-.09,0-.06.14h0v.22h0s.09.11,0,.1l.17.29a.38.38,0,0,0,.15.18A.12.12,0,0,0,11,19h0a1.42,1.42,0,0,0,.08.18c0-.06,0,0,.06,0s0,.06,0,.08h0a.23.23,0,0,0,.07.07h0a.86.86,0,0,1,.1.16s.06.07.11,0h0a.17.17,0,0,0,.06.06h.23v-.07l.11.06h.12a2.58,2.58,0,0,0,2.53-1.35h0a3.37,3.37,0,0,1-.66,1.29L14,19.4h0l.16-.11h.11l.06-.08c.06-.08,0,.07,0,.09s.06,0,.07,0,0-.15-.07-.13-.05.06-.08.06a2.4,2.4,0,0,0,.91-1.85v-.14s.07.07.09,0h0v-.16l-.06-.14h0m-4.76.9h0v-.1h0v.05h0M11,18.94v-.09h0Z"/><path class="cls-1" d="M5,17.08H5c-.07-.16-.12-.32-.18-.49a1.26,1.26,0,0,0-.24-.44h0v-.09h-.1a3.51,3.51,0,0,1-.33-.34c-.08-.11,0,0-.07,0s0,0,0-.06-.07-.07,0-.07-.18-.11-.21,0,0-.06,0,0l-.11-.08H3.39A2.57,2.57,0,0,0,.85,16.66h0a3,3,0,0,1,.93-1.54.2.2,0,0,0-.15,0,.94.94,0,0,1-.22.12h0c-.14,0-.25.18-.28.19h0a.43.43,0,0,0-.23.14h0a.19.19,0,0,0-.14.09h0a.52.52,0,0,0-.1.11.12.12,0,0,1-.07.11c-.07,0-.11.11-.08.15s-.1.1-.14.14h0c-.08,0-.07.16-.1.21h0a1,1,0,0,0-.12.23v.06c0,.06-.08,0-.08.09h0s.08.15,0,.19h0v.2h0v.21h0v.12h0a.49.49,0,0,0,0,.17m0,.06v.22h0V18c0,.05-.09,0-.06.14H0v.05H0a.39.39,0,0,0,.06.21h0s.09.11,0,.1.12.19.18.28A.4.4,0,0,0,.4,19a.11.11,0,0,0,.06.09h0c0,.1,0,.07.08.18,0-.05,0-.05.06,0v.09h0a.07.07,0,0,0,.07.07h0a1,1,0,0,1,.1.17.07.07,0,0,0,.1,0H1a.51.51,0,0,1,.16.09.24.24,0,0,0,.18.07H1.29a.33.33,0,0,1,.27.07h0a.64.64,0,0,0,.18.06h.18a.22.22,0,0,0,.16,0H3.27a.29.29,0,0,0,.13-.05h.07c-.08,0,0,0,0-.06h.21a.28.28,0,0,0,.11-.13c0,.09.13-.08.12,0s0,0,0-.07-.13.06-.19.08h0a.57.57,0,0,1-.13.08h.06a.33.33,0,0,1-.19.06h0a.94.94,0,0,0,.22-.12h0l.16-.11H4c.07-.08,0,.07,0,.09s.06,0,.06,0,0-.14-.06-.12a.15.15,0,0,1-.09.06,2.35,2.35,0,0,0,.93-2.07v-.14s.07.06.09,0h0v-.31h0M.21,18h0v-.1h0m.58,1.15h0m.75.54h0a.24.24,0,0,1-.09-.15l.12.07.06.12H1.57m.57.13H2v-.08h.14m.34,0h0m.74,0a.22.22,0,0,0-.16,0H3a.25.25,0,0,1-.18.1,2.68,2.68,0,0,0,.49-.11h0l-.16.07h0l.15-.06c.07,0,.06,0,0,.08a.17.17,0,0,1-.14,0Z"/><path class="cls-2" d="M96.07,11.46V7.74a1,1,0,0,0-.15-.53A.73.73,0,0,0,95.43,7h2a2.45,2.45,0,0,1,1,.17,1.27,1.27,0,0,1,.53.38,1,1,0,0,1,.21.45,1.61,1.61,0,0,1,.06.44,1.51,1.51,0,0,1-.26.9,1.85,1.85,0,0,1-.75.64l.33.49c.15.22.33.46.53.71a5.81,5.81,0,0,0,.56.65,3.19,3.19,0,0,0,.46.44.73.73,0,0,0,.35.15l.3.06h-.88a2.17,2.17,0,0,1-.42-.11,1.21,1.21,0,0,1-.35-.24,3.6,3.6,0,0,1-.37-.41c-.13-.17-.29-.38-.47-.64s-.27-.38-.37-.55l-.3-.47a3.54,3.54,0,0,1-.92,0v1.38a4.17,4.17,0,0,0,0,.5.67.67,0,0,0,.1.28.24.24,0,0,0,.18.13,1.8,1.8,0,0,0,.32.06h.06a0,0,0,0,1,0,.05H95.46s-.06,0-.06-.05,0,0,.06,0a1.36,1.36,0,0,0,.29-.06.2.2,0,0,0,.17-.12A.52.52,0,0,0,96,12C96,11.79,96.06,11.63,96.07,11.46Zm2.54-2.85a1.68,1.68,0,0,0-.29-1,1.24,1.24,0,0,0-.93-.45H96.7V9.79a2.22,2.22,0,0,0,.51.06,3,3,0,0,0,.6,0,.71.71,0,0,0,.37-.12,1.2,1.2,0,0,0,.26-.29,1.09,1.09,0,0,0,.14-.38A1.71,1.71,0,0,0,98.61,8.61Z"/><path class="cls-2" d="M103.14,9.75v1.9a1.71,1.71,0,0,0,0,.32.59.59,0,0,0,.1.17.36.36,0,0,0,.17.07h1a1.18,1.18,0,0,0,.46-.09,1.09,1.09,0,0,0,.29-.23,1.26,1.26,0,0,0,.16-.33l.09-.4a.06.06,0,0,1,.06-.05v.94a.41.41,0,0,1,0,.22.27.27,0,0,1-.15.21,1.21,1.21,0,0,1-.38,0h-3.07m0-.05a1.36,1.36,0,0,0,.29-.06.32.32,0,0,0,.18-.12.62.62,0,0,0,.09-.27V7.52a.6.6,0,0,0-.08-.29.27.27,0,0,0-.18-.15,1,1,0,0,0-.3-.08h3a.76.76,0,0,1,.3,0c.07,0,.1.09.09.2a2.67,2.67,0,0,1,0,.4,3.62,3.62,0,0,0-.06.46h-.11a1.19,1.19,0,0,0-.22-.6.6.6,0,0,0-.48-.24h-1.22V9.46H105a.54.54,0,0,1,0,.18V10a.89.89,0,0,0,0,.23.1.1,0,0,1-.06,0h0a.35.35,0,0,0-.06-.28.25.25,0,0,0-.12-.11h-1.6Z"/><path class="cls-2" d="M107.74,12a4,4,0,0,1,0-.49,3.18,3.18,0,0,1,.13-.51h0a1.73,1.73,0,0,0,.35,1,1.11,1.11,0,0,0,.9.38,1.26,1.26,0,0,0,.91-.3,1,1,0,0,0,.31-.75,1.62,1.62,0,0,0-.08-.49,1.22,1.22,0,0,0-.26-.38,2.15,2.15,0,0,0-.41-.32l-.55-.3a4.57,4.57,0,0,1-.47-.29,1.85,1.85,0,0,1-.38-.36,1.47,1.47,0,0,1-.27-.47,1.54,1.54,0,0,1-.09-.6,1.32,1.32,0,0,1,.45-1,1.73,1.73,0,0,1,1.17-.39,4,4,0,0,1,.49,0l.33.08a.56.56,0,0,1,.26.17.54.54,0,0,1,.06.35,1.61,1.61,0,0,1,0,.31,2.16,2.16,0,0,0,0,.36c0,.09,0,.05-.06,0h0a1.43,1.43,0,0,0-.09-.41.94.94,0,0,0-.2-.35,1,1,0,0,0-.37-.15,1.28,1.28,0,0,0-.48-.09,1.11,1.11,0,0,0-.74.25.88.88,0,0,0-.28.75,1.1,1.1,0,0,0,.28.78,2.72,2.72,0,0,0,.71.51,5.2,5.2,0,0,1,.72.42,2.47,2.47,0,0,1,.49.42,1.15,1.15,0,0,1,.27.48,1.73,1.73,0,0,1,.07.6,1.31,1.31,0,0,1-.15.61,1.5,1.5,0,0,1-.37.46,2,2,0,0,1-.56.3,2.44,2.44,0,0,1-.71.1,3.05,3.05,0,0,1-.6-.06,2.25,2.25,0,0,1-.42-.13.55.55,0,0,1-.25-.2A.44.44,0,0,1,107.74,12Z"/><path class="cls-2" d="M114.26,9.88v1.63a3.69,3.69,0,0,0,0,.47.62.62,0,0,0,.09.26.29.29,0,0,0,.19.13,1.12,1.12,0,0,0,.31.05H113c.06,0,0-.06,0-.06h.27a.3.3,0,0,0,.17-.12.52.52,0,0,0,.1-.27V8a4.86,4.86,0,0,0,0-.54.56.56,0,0,0-.1-.28.31.31,0,0,0-.17-.13h1.49a1,1,0,0,0-.23.06.31.31,0,0,0-.16.12.9.9,0,0,0-.08.28,4.69,4.69,0,0,0,0,.53V9.88Z"/><path class="cls-2" d="M122.58,9.72a2.74,2.74,0,0,1-.21,1.13,2.65,2.65,0,0,1-.61.91,2.84,2.84,0,0,1-1,.6,3.38,3.38,0,0,1-1.26.22h-2.63v-.11a1.16,1.16,0,0,0,.42-.08.35.35,0,0,0,.17-.15.85.85,0,0,0,.08-.35v-4a2,2,0,0,0-.05-.42.46.46,0,0,0-.1-.25.56.56,0,0,0-.2-.14L116.92,7h2.52a3.35,3.35,0,0,1,2.34.73A2.61,2.61,0,0,1,122.58,9.72Zm-.7,0a3.31,3.31,0,0,0-.18-1.08,2.23,2.23,0,0,0-1.26-1.24,3.45,3.45,0,0,0-1-.22,5.21,5.21,0,0,0-.79,0h-.43V11.9a.67.67,0,0,0,0,.2.42.42,0,0,0,.15.11,1.65,1.65,0,0,0,.44.1,3.42,3.42,0,0,0,.64,0,2.42,2.42,0,0,0,1-.21,2.07,2.07,0,0,0,.73-.55,2.12,2.12,0,0,0,.43-.81,3.43,3.43,0,0,0,.21-1Z"/><path class="cls-2" d="M125.76,9.75v1.9a1.71,1.71,0,0,0,0,.32.35.35,0,0,0,.1.19.42.42,0,0,0,.18.08h1a1.46,1.46,0,0,0,.46-.1.8.8,0,0,0,.29-.23,1.5,1.5,0,0,0,.16-.34,2.6,2.6,0,0,1,.1-.4.06.06,0,0,1,.06-.05h0v1.15a.27.27,0,0,1-.15.21,1.21,1.21,0,0,1-.38.06h-3v-.06a.71.71,0,0,0,.29,0,.27.27,0,0,0,.18-.13.62.62,0,0,0,.09-.26,3.69,3.69,0,0,0,0-.47v-4a.73.73,0,0,0-.07-.29.35.35,0,0,0-.2-.23,1.4,1.4,0,0,0-.35-.1m0,0h3a.81.81,0,0,1,.31,0c.09,0,.09,0,.09.15a2.67,2.67,0,0,1,0,.4,3.62,3.62,0,0,1-.06.46.06.06,0,0,1-.06.05V8a1.08,1.08,0,0,0-.15-.55.58.58,0,0,0-.47-.24h-1.34V9.46h1.74v.22a1.71,1.71,0,0,1,0,.32v.23h-.06a.37.37,0,0,0,0-.21.57.57,0,0,0-.11-.11H125.8Z"/><path class="cls-2" d="M135.71,7.73v4.86m-.07,0-.13-.13L135,12l-.5-.54-.6-.61-.78-.8c-.44-.43-.82-.83-1.15-1.17l-.79-.78v2.68a8.34,8.34,0,0,0,0,1,.67.67,0,0,0,.16.43.81.81,0,0,0,.56.21l.06.06c.06.06,0,0-.06,0h-1.63v-.06a.53.53,0,0,0,.34-.15.67.67,0,0,0,.14-.45V6.9h0l.1.1c.34.38.7.76,1.07,1.16l1.4,1.24,1.08,1.09c.31.32.6.6.85.82V9.66c0-.57,0-1.21-.05-1.81a2.67,2.67,0,0,0,0-.4.5.5,0,0,0-.09-.24.42.42,0,0,0-.26-.12,1.71,1.71,0,0,0-.3-.09H136a.42.42,0,0,0-.34.22,1.35,1.35,0,0,0,0,.49Z"/><path class="cls-2" d="M141.28,6.79h.82a2.83,2.83,0,0,1,.77.21.56.56,0,0,1,.27.18.52.52,0,0,1,.09.34,3.38,3.38,0,0,1,0,.45v.49c0,.17,0,.06-.06,0s-.06,0-.06,0a1.84,1.84,0,0,0-.24-.64,1.44,1.44,0,0,0-1-.71,2.36,2.36,0,0,0-.6-.11,2.83,2.83,0,0,0-1,.16,2.1,2.1,0,0,0-.75.5,2.26,2.26,0,0,0-.5.86,3.42,3.42,0,0,0-.15,1.19A3.77,3.77,0,0,0,139.1,11a2.14,2.14,0,0,0,.56.83,2.3,2.3,0,0,0,.79.48,3,3,0,0,0,.94.15,2.66,2.66,0,0,0,.75-.1,1.13,1.13,0,0,0,.51-.29,1.16,1.16,0,0,0,.32-.44,2.41,2.41,0,0,0,.16-.6.06.06,0,0,1,.06-.06c.06,0,.05,0,.05.06v.62a1.21,1.21,0,0,1,0,.38.92.92,0,0,1-.09.23.33.33,0,0,1-.14.12l-.19.1-.51.15a4.69,4.69,0,0,1-.92.07,4.07,4.07,0,0,1-1.34-.2,3,3,0,0,1-1-.6,2.57,2.57,0,0,1-.63-.9,3.18,3.18,0,0,1-.23-1.18,3.39,3.39,0,0,1,.23-1.22A2.55,2.55,0,0,1,140,7,3.73,3.73,0,0,1,141.28,6.79Z"/><path class="cls-2" d="M146.49,9.75v1.9a1.71,1.71,0,0,0,0,.32.27.27,0,0,0,.1.17.36.36,0,0,0,.17.07h1a1.18,1.18,0,0,0,.46-.09,1.09,1.09,0,0,0,.29-.23,1.06,1.06,0,0,0,.16-.34,2.22,2.22,0,0,1,.1-.41h0v1.11a.27.27,0,0,1-.15.21.82.82,0,0,1-.38.06h-3m0,0,.3-.06a.3.3,0,0,0,.17-.12.8.8,0,0,0,.11-.34V7.54a.71.71,0,0,0,0-.29.27.27,0,0,0-.18-.15,1.24,1.24,0,0,0-.39-.1m-.05,0h3a.76.76,0,0,1,.3,0c.08,0,.11.09.09.2a2.67,2.67,0,0,1,0,.4,1.19,1.19,0,0,1-.06.46c-.06.15,0,0-.06,0h0a1.06,1.06,0,0,0-.18-.55.61.61,0,0,0-.47-.24h-1.38V9.46h1.75a.54.54,0,0,1,0,.18V10a.89.89,0,0,0,0,.23.1.1,0,0,1-.06,0h0a.74.74,0,0,0,0-.21.32.32,0,0,0-.12-.11h-1.58Z"/><path class="cls-2" d="M151.1,12a4,4,0,0,1,0-.49,1.11,1.11,0,0,1,.07-.51c.07-.15,0-.06.06-.06h0a1.73,1.73,0,0,0,.35,1,1.11,1.11,0,0,0,.9.38,1.18,1.18,0,0,0,.9-.3,1,1,0,0,0,.32-.76,1.13,1.13,0,0,0-.08-.48,1.22,1.22,0,0,0-.26-.38,2.15,2.15,0,0,0-.41-.32l-.55-.31a3.14,3.14,0,0,1-.46-.28,1.67,1.67,0,0,1-.39-.36,2,2,0,0,1-.27-.47,1.54,1.54,0,0,1-.09-.6,1.32,1.32,0,0,1,.45-1,1.73,1.73,0,0,1,1.23-.29h.49a1.87,1.87,0,0,1,.34.08.44.44,0,0,1,.32.52,1.61,1.61,0,0,1,0,.31A2,2,0,0,0,154,8c0,.1,0,0-.05,0h0a1.37,1.37,0,0,0-.09-.4.94.94,0,0,0-.2-.35,1,1,0,0,0-.33-.28,1.26,1.26,0,0,0-.61,0,1.08,1.08,0,0,0-.73.25.87.87,0,0,0-.29.73,1,1,0,0,0,.29.77,2.37,2.37,0,0,0,.7.52,5.2,5.2,0,0,1,.72.42,2.47,2.47,0,0,1,.49.42,1.15,1.15,0,0,1,.27.48,1.74,1.74,0,0,1,.08.6,1.56,1.56,0,0,1-.15.6,1.49,1.49,0,0,1-.94.76,2.05,2.05,0,0,1-.7.11,3.15,3.15,0,0,1-.61-.06,3.38,3.38,0,0,1-.42-.13.69.69,0,0,1-.25-.2A.52.52,0,0,1,151.1,12Z"/><path class="cls-3" d="M39.35,12.17a7.82,7.82,0,0,0,1.37-.06c.61-.08.82-.39,1-1.17,0,0,.11-.06.11,0a7,7,0,0,1-.08,1.21c-.1.33-.36.36-.9.34H37.07V12.4c.29-.4.81-1.16,1.8-2.57,1.21-1.69,1.52-2.14,1.81-2.53a19.28,19.28,0,0,0-2.15,0c-.68,0-.92.37-1,1,0,0-.11.06-.11,0a6.61,6.61,0,0,1,0-.89c0-.27.09-.41.35-.44s.76,0,1.58,0h2.2c.1,0,.19,0,.05.16-.41.47-1.06,1.32-2,2.67-.54.76-1.21,1.8-1.51,2.23-.1.15-.09.16.07.16h1.2"/><path class="cls-3" d="M44.61,11.51c0,.76.09.86.6.9a.06.06,0,0,1,.07,0,.06.06,0,0,1,0,.06h-.07c-.32,0-.69,0-1,0s-.6,0-.92,0c-.06,0-.06-.11,0-.11.44-.06.56-.11.61-.9V8c0-.93-.17-.93-.61-1-.06,0-.07-.1,0-.1h1.74c.07,0,.06.09,0,.1-.39.07-.49.08-.51,1v3.48"/><path class="cls-3" d="M50.62,11.12a.06.06,0,1,1,.11,0,10.05,10.05,0,0,1,0,1.09c0,.19-.18.26-.53.26s-1,0-2.15,0c-.23,0-.68,0-1,0-.09,0-.07-.1,0-.1.47,0,.53-.17.55-.9V8c0-.73-.07-.85-.55-.93A0,0,0,0,1,47,7,0,0,0,0,1,47,6.93h1.72c.09,0,.07.09,0,.09-.39.06-.49.17-.5.89v3.65c0,.56,0,.6.56.6h.8c.75,0,.91-.49,1-1.05"/><path class="cls-3" d="M56,7.15V11.4c0,.83.18.9.74,1a.05.05,0,0,1,0,.06h0m0,0h0c-.35,0-.72,0-1,0a5.22,5.22,0,0,0-.79,0c-.08,0-.06-.11,0-.11.31,0,.4-.06.42-.87V8.06c0-.86-.11-1-.65-1a.05.05,0,0,1-.05,0,.06.06,0,0,1,.05-.05h.82a11,11,0,0,1,1.15,0c1.34.06,1.81.79,1.81,1.48A1.66,1.66,0,0,1,57,10.12h-.21a1.55,1.55,0,0,1-.56-.11c-.06,0,0-.12,0-.1h.28a1.29,1.29,0,0,0,1.47-1.09h0a.86.86,0,0,0,0-.32,1.2,1.2,0,0,0-1.12-1.28H56"/><path class="cls-3" d="M61.82,8c-.11.26-.26.6-.41,1L61,10h1.56c-.23-.68-.47-1.33-.76-2m.1-1c.05-.14.07-.15.11-.15s0,0,.09.15c.26.74,1.1,3,1.81,4.73.2.51.36.6.77.65.06,0,.07.1,0,.1-.34,0-.6,0-1,0s-.53,0-.79,0c-.07,0-.06-.1,0-.1.33,0,.4-.13.27-.53s-.33-1-.52-1.52H61c-.13.35-.39,1-.52,1.49s.08.53.37.56a.07.07,0,0,1,.08,0,.06.06,0,0,1,0,.06h-.05c-.28,0-.6,0-.8,0s-.52,0-.82,0c-.08,0-.06-.1,0-.1a.82.82,0,0,0,.71-.5,21,21,0,0,0,.85-2Z"/><path class="cls-3" d="M66,11c0-.06.1-.05.1,0,0,.87.47,1.41,1.24,1.41a1.06,1.06,0,0,0,1.2-.91h0v-.12c0-.74-.47-1.06-1.29-1.48A1.8,1.8,0,0,1,66,8.18,1.4,1.4,0,0,1,67.45,6.8h.15a2.78,2.78,0,0,1,.81.11.42.42,0,0,1,.32.5h0c0,.13-.06.47-.08.65s-.09,0-.09,0A1.07,1.07,0,0,0,67.49,7h0a.9.9,0,0,0-1,.81h0a.33.33,0,0,0,0,.14,1.47,1.47,0,0,0,1,1.28c1.11.56,1.56,1,1.53,1.88a1.62,1.62,0,0,1-1.75,1.46h0a2.31,2.31,0,0,1-1-.19.6.6,0,0,1-.37-.48A3.36,3.36,0,0,1,66,11"/><path class="cls-3" d="M76.46,7.18a.81.81,0,0,0-.31-.06,2.22,2.22,0,0,0-1.56,1.1,5.41,5.41,0,0,0-1.09,2.69v.6c0,.8.13.75.6.81a.06.06,0,0,1,.07,0s0,0,0,.06H72.25c-.06,0-.06-.11,0-.11.39-.06.56-.07.56-.81v-.59A5.05,5.05,0,0,0,72,8.5c-.65-1-1.17-1.35-1.77-1.37a1.09,1.09,0,0,0-.44.06c-.05,0-.08,0,0-.08a1.27,1.27,0,0,1,.88-.28,2.4,2.4,0,0,1,1.91,1.35,6.33,6.33,0,0,1,.77,1.91A5.21,5.21,0,0,1,74.21,8a2.13,2.13,0,0,1,1.73-1.13.61.61,0,0,1,.54.21c0,.06,0,.09,0,.07"/><path class="cls-3" d="M77.84,9.71c0,1.56.88,2.67,2.28,2.67A2.14,2.14,0,0,0,82.32,10c0-1.39-.77-3-2.47-2.95-1.37,0-2,1.09-2,2.62m2.25,2.9a2.68,2.68,0,0,1-3-2.75,2.9,2.9,0,0,1,2.77-3h.31A2.72,2.72,0,0,1,83,9.43h0V9.6a2.9,2.9,0,0,1-2.79,3h-.16"/><path class="cls-3" d="M90,12.36v.2s-.08,0-.2-.15c-.6-.65-1.16-1.3-2.25-2.4C86.66,9.14,86,8.43,85.6,8.08c0,.69,0,2.41.08,3.64,0,.35.17.6.72.64.06,0,.07.1,0,.1l-1,0a4.1,4.1,0,0,0-.7,0,0,0,0,0,1-.07,0h0a.05.05,0,0,1,0-.07h0c.32-.06.43-.14.47-.6.07-1,.09-2.41.09-3.14V7c0-.13,0-.17,0-.18s.07,0,.19.14c.66.74,1.38,1.5,2.27,2.41s1.43,1.44,1.91,1.89c0-1.06,0-2.2,0-3.44,0-.66-.11-.75-.6-.83a0,0,0,0,1,0,0,0,0,0,0,1,0-.05h1.48c.07,0,0,.09,0,.09-.34.06-.43.3-.45.71C90,9.1,90,10.41,90,12.36"/></svg>