<svg id="Layer_1" data-name="Layer 1" xmlns="http://www.w3.org/2000/svg" viewBox="0 0 173.8 20"><defs><style>.cls-1{fill:#673065;}.cls-2{isolation:isolate;}.cls-3{fill:#666;}</style></defs><title>Artboard 1</title><path class="cls-1" d="M26.4,17.8v-.5h0v-.1s0-.2-.1-.2,0-.1,0,0v-.2c0-.1-.1-.1-.1-.2s-.1-.1-.1-.2,0,0,0-.1h0l-.1-.1h0c0-.1,0-.2.1-.2h0v-.1h0a2.65,2.65,0,0,0-.6-.5.14.14,0,0,0-.2,0h-.1c-.1,0-.1-.1.1,0H25a2.5,2.5,0,0,0-2.5,1.4h-.1a2.9,2.9,0,0,1,.9-1.5l-.1.1h0s-.2,0-.2.1v.1c0,.1,0-.1-.1,0h0a.31.31,0,0,1-.1.2h0c-.1,0-.1.2-.2.1h0l-.1.1h0a.1.1,0,0,1-.1.1h0l-.1.1h0a.35.35,0,0,0-.1.2h0a.1.1,0,0,0-.1.1c0,.1-.1,0-.1,0h0a.35.35,0,0,0-.1.2h0a.1.1,0,0,1-.1.1.37.37,0,0,1-.1.3v.3h0c0,.1-.1.1-.1.2h.1c.1,0,0,0,0,.1h0v.1h0v.3h0v.1h0v.3c0,.1,0,.1.1.2h0a.35.35,0,0,0,.1.2h0c0,.1.1.1.1.2h0l.1.2.1.1.1.1h0l.1.1a.1.1,0,0,1,.1.1h0c.1,0,.1.1.2.1h0l.1.1H23a.1.1,0,0,1,.1.1h.2c.1,0,.2,0,.1.1s0,0,.1,0c-.1,0-.1,0-.2-.1h.1c-.1,0-.1,0-.2-.1h0l.2.1h.2l.1.1h.1c.1,0,.1-.1,0-.1h-.1a2.28,2.28,0,0,0,2-.7l.1-.1v.1h0l.1-.1v-.1h0c.1-.2.1-.3.2-.5a.9.9,0,0,0,.1-.5h0v-.2h0m-4.8-.7h0m.1,1h0v0m.5-2.1h0m0,2.7-.1-.1.1-.1c-.1.1-.1.1,0,.2h0m.2.2h0m.7.7h0m0-.2h0c-.1,0,0,.1,0,0,.1.1.1.1,0,.1s-.1,0,0-.1c-.1,0-.1,0-.2-.1h-.1a.35.35,0,0,1-.1-.2c.1.1.3.2.4.3h0m.8.3h0M26,16.2h0"/><path class="cls-1" d="M20.5,10.2V10h0V9.8h0V9.6h0V9c0,.1,0,0-.1,0V8.9h0V8.7h0l-.1-.1c.1,0-.1-.1,0-.1h-.1c0,.1.1.1.1.2h0l.1.1V8.7h0c0,.1.1.1.1.2h0a1.38,1.38,0,0,0-.4-.3h0c0-.1-.1-.1-.1-.2V8.3l-.1-.1c-.1-.1.1,0,.1,0V8.1a.1.1,0,0,0-.1.1.1.1,0,0,1,.1.1,2,2,0,0,0-.9-.7H19A2.5,2.5,0,0,0,16.5,9h0a2.37,2.37,0,0,1,.9-1.5h0c-.2,0-.3.1-.5.2h-.1V8h0a1.87,1.87,0,0,1-.4.3c-.2.1,0,0,0,.1s0,0-.1,0-.1.1-.1,0-.1.2,0,.2h0c0,.1-.1.1-.1.2l-.4.2c0,.1-.1.1-.1.2h0v.1h0v.1a.1.1,0,0,1-.1.1h0s.1-.1.1,0a.1.1,0,0,1-.1.1h0v.1h0a2.2,2.2,0,0,0,.1.8s0,.2.1.1h0v.1c0,.1,0,.1-.1,0V11c0,.1.1.1.1.2h0c0,.1.2.2.2.3h0a.35.35,0,0,0,.1.2h0c0,.1,0,.1.1.1h0l.1.1a.1.1,0,0,1,.1.1.1.1,0,0,0,.1.1l.1.1h0c0,.1.2.1.2.1h0l.2.1H17c.1,0,0,.1.1.1h0a.35.35,0,0,1,.2-.1h1a.1.1,0,0,0,.1.1h.2s.1-.1.1,0,.2-.1.3-.2a.31.31,0,0,1,.2-.1.1.1,0,0,0,.1-.1h0c.1,0,.1,0,.2-.1-.1,0,0,0,0-.1h.1a.1.1,0,0,0,.1-.1h0a.35.35,0,0,1,.2-.1c.1,0,.1-.1,0-.1h0l.1-.1h0v-.1c0-.1,0-.1.1-.2s.1-.1.1-.2h0a.49.49,0,0,1,.1-.3h0c0-.1,0-.1.1-.2h0v-.3m-4.9-.5h0m2.9,2.9h-.1m1.1-.6h0m.3-3.1h0m.4.6h0m.1,1.5h0l-.1.1.1-.1h0m0-.4h0v-.2h0c.1.1.1.2,0,.2h0m0-.4h0m0-.5c0-.2-.1-.3-.1-.5h0c0,.1,0,.1.1.2v0a.1.1,0,0,0-.1-.1s0-.1.1,0v.4h0"/><path class="cls-1" d="M11,10.1c0-.1,0-.1.1-.2H11a.1.1,0,0,1,.1-.1h0V9.7h0c.1,0,0-.2.1-.2s0-.1-.1-.1V9.3h0V9.2h0V9.1c0-.1,0-.1-.1-.2s0-.1-.1-.2v.1c0,.1-.1-.2-.1-.2h0c0-.1,0-.1-.1-.2h0l-.1-.2a.1.1,0,0,0-.1-.1L10.4,8h0l-.1-.1a.1.1,0,0,1-.1-.1h0c-.1.2-.2.1-.3.1h0l-.1-.1H9.5a.1.1,0,0,1-.1-.1H9.2c-.1,0-.1,0-.1-.1s0,0-.1,0c.1,0,.1,0,.2.1H9.1c0,.1.1,0,.1,0H9.1c.1,0,.1,0,.2.1h0l-.2-.1H9l-.1-.1h0s-.1.1,0,.1H9a2.57,2.57,0,0,0-2,.8l-.1.1V8.5h0l-.1.1-.1.1h0c0,.2-.1.3-.2.5a.9.9,0,0,0-.1.5h0v.2h0v.5h0v.2s0,.2.1.2,0,.1,0,0V11l.1.2c0,.1.1.1.1.2v.1h0v.1h0v.1h0v.1h0v.1h0c.2,0,.3.1.6.3,0,0,.2.1.2,0h.1c.1,0,.1.1-.1,0h.3a2.5,2.5,0,0,0,2.5-1.4h.1a2.9,2.9,0,0,1-.9,1.5l.1-.1h0l.2-.1V12c0-.1,0,.1.1,0h0l.1-.2h0c.1,0,.1-.2.2-.1h0c.1-.1.1,0,.1-.1h0a.1.1,0,0,1,.1-.1h0l.1-.1h0a.35.35,0,0,0,.1-.2h0a.1.1,0,0,0,.1-.1c0-.1.1,0,.1,0h0a.35.35,0,0,0,.1-.2h0a.1.1,0,0,1,.1-.1c0-.1.1-.2.1-.3v-.3Zm-4.5,1ZM8.9,7.6h0m.8.1h0m-.1.1h0a.35.35,0,0,0,.2.1c-.1-.1-.1-.1-.2-.1h0c-.1-.1,0-.1,0-.1a.1.1,0,0,1,.1.1l.1.1h.1A.1.1,0,0,1,10,8a.76.76,0,0,0-.4-.2m.7.4h0m.2,3h0m0-2.4h0V8.7h0a.1.1,0,0,1,.1.1c0-.1,0,0-.1,0m.3.5V9.2h0s-.1,0,0,.1m0,.8V9.9H11l-.1.1"/><path class="cls-1" d="M15.7,2.5V2.3h0V2.1a.31.31,0,0,0-.1-.2c-.1-.1,0-.1,0-.2h0c0-.1-.1-.1-.1-.2h0s0-.2-.1-.2h-.1c-.1,0,.1,0,0-.1h0V1h0c0-.1-.2-.1-.1-.2h0c-.1-.1,0-.1-.1-.1h0V.6h0L15,.5h-.1c-.1,0-.1-.1-.2-.1h0a.1.1,0,0,0-.1-.1V.2h-.4a2.5,2.5,0,0,0-2.5,1.4h-.1A3.15,3.15,0,0,1,12.4.1h.1l.1-.1h-.1c-.1,0-.1,0-.2.1h.1c.1,0-.2.1-.2.1h0c-.1,0-.1.1-.2.1h0l-.1.1a.1.1,0,0,0-.1.1l-.1.1h0l-.1.1a.1.1,0,0,1-.1.1h0V.9h0c-.1.1-.1.1-.1.2h0l-.1.1h0l-.1.1v.1h0l-.1.1h0v.2c0,.1,0,.1-.1.1s0,0,0,.1c0-.1,0-.1.1-.2v.1c.1,0,0-.1,0-.2v.1h0V1.5s0-.1.1,0h0l-.1.2h0V2l-.1.1v.1c0,.1,0-.1-.1-.1h0s.1.1.1,0V2a2.2,2.2,0,0,0,.7,2l.1.1h-.1l.1.1.1.1h0c.2.1.3.1.5.2a.75.75,0,0,0,.5.1h.9s.2,0,.2-.1.1,0,.1,0h.2l.2-.1a.35.35,0,0,0,.2-.1h.1v.1l.1-.1h.2l.1-.1h0a2.65,2.65,0,0,0,.5-.6s.1-.2,0-.2h0V3.3c0-.1.1-.1,0,.1l.1-.1a.1.1,0,0,0,.1-.1c0-.1,0-.2.1-.2h0c.1-.1,0-.3.1-.3h0c-.3-.1-.3-.2-.4-.2h0M12,.3h0V.5h0V.3m-.2.3h0m-.7.7h0m-.1.8h0m.2-.7h0c0-.1.1-.1.1-.2-.1.1-.1.1-.1.2v0c-.1.1-.1,0-.1,0a.1.1,0,0,1,.1-.1l.1-.1V1.1a.35.35,0,0,1,.2-.1.54.54,0,0,0-.3.4m3.3,3.2Zm0-4.1h0"/><path class="cls-1" d="M15.6,16.9h0c-.1-.2-.1-.3-.2-.5a.52.52,0,0,0-.2-.4h0v-.1l-.1-.1h0l-.3-.3c-.1-.1,0,0-.1,0s0,0,0-.1a.1.1,0,0,0-.1-.1s-.2-.1-.2,0v-.1c-.1,0-.1-.1-.2-.1l-.1-.1c-.1,0-.1-.1-.2-.1h0a.1.1,0,0,1-.1-.1h0s.1.1,0,.1-.1-.1-.1,0h-.1a2.2,2.2,0,0,0-.8.1s-.2,0-.1.1h0c.1,0,0,.1-.1.1s-.1,0,0-.1h-.3c-.1,0-.1.1-.2.1h0c-.1,0-.2.2-.3.2h0a.35.35,0,0,0-.2.1h0c-.1,0-.1,0-.1.1h0l-.1.1a.1.1,0,0,1-.1.1.1.1,0,0,0-.1.1l-.1.1h0c-.1,0-.1.2-.1.2h0l-.1.2h0a.1.1,0,0,0-.1.1h0a.35.35,0,0,1,.1.2h0v.2h0v.2h0v.1h0v.5h0v.1a.1.1,0,0,0-.1.1h0v.2h0s.1.1,0,.1l.2.3c0,.1.1.1.1.2a.1.1,0,0,0,.1.1h0c0,.1,0,.1.1.2,0-.1,0,0,.1,0s0,.1,0,.1h0a.1.1,0,0,0,.1.1h0a.35.35,0,0,1,.1.2c0,.1.1.1.1,0h0l.1.1H12v-.1l.1.1h.1a2.5,2.5,0,0,0,2.5-1.4h.1a2.39,2.39,0,0,1-.7,1.3l.2-.1h0l.2-.1h.1l.1-.1c.1-.1,0,.1,0,.1h.1a.1.1,0,0,0-.1-.1.1.1,0,0,1-.1.1,2.2,2.2,0,0,0,.9-1.9v-.1s.1.1.1,0h0V17l-.1-.1h0m-4.9.9h0v-.1h0v.1h0m.6,1.1h0m2.3-4.1h0m.8,4.3Z"/><path class="cls-1" d="M5.1,17.1h0c-.1-.2-.1-.3-.2-.5a.52.52,0,0,0-.2-.4h0v-.1H4.6l-.3-.3c-.1-.1,0,0-.1,0s0,0,0-.1-.1-.1,0-.1-.2-.1-.2,0H4l-.1-.1H3.5A2.35,2.35,0,0,0,1,16.7H1a2.9,2.9,0,0,1,.9-1.5H1.8c-.1,0-.1.1-.2.1h0c-.1,0-.2.2-.3.2h0a.35.35,0,0,0-.2.1h0c-.1,0-.1,0-.1.1H1l-.1.1a.1.1,0,0,1-.1.1c-.1,0-.2.1-.1.1l-.1.1h0c-.1,0-.1.2-.1.2h0l-.1.2v.1c0,.1-.1,0-.1.1h0a.14.14,0,0,1,0,.2h0v.2h0v.2h0v.1h0v.5h0V18a.1.1,0,0,0-.1.1h0a.31.31,0,0,0,.1.2h0s.1.1,0,.1.1.2.2.3.1.1.1.2a.1.1,0,0,0,.1.1h0c0,.1,0,.1.1.2H.9v.1h0a.1.1,0,0,0,.1.1H1a.35.35,0,0,1,.1.2c0,.1.1.1.1,0h.2c.1,0,.1,0,.2.1a.35.35,0,0,0,.2.1h0a.37.37,0,0,1,.3.1h0c.1,0,.1,0,.2.1H3.6c-.1,0,0,0,0-.1h.2l.1-.1c0,.1.1-.1.1,0v-.1c0-.1-.1.1-.2.1h0l-.1.1h.1c-.1,0-.1.1-.2.1h0a.35.35,0,0,0,.2-.1h0l.2-.3h.1l.1-.1c.1-.1,0,.1,0,.1h.1a.1.1,0,0,0-.1-.1l-.1.1A2.43,2.43,0,0,0,5,17.5v-.1s.1.1.1,0h0v-.3h0M.4,18h0v-.1h0M.9,19h0m.8.6h0l-.1-.1.1.1h0m.6.2H2.1v-.1h.1l.1.1h0m.3-.1h0m.7,0H3.1c0,.1-.1.1-.2.1.2,0,.3-.1.5-.1H3.3c0,.1.1.1,0,0h0c0,.1.1,0,.2,0s.1,0,0,.1a.31.31,0,0,1-.2-.1m.2.1h0m.6-.5Z"/><g class="cls-2"><path class="cls-3" d="M36.85,12.25a4.13,4.13,0,0,1,0-.49,4.56,4.56,0,0,1,.08-.47.05.05,0,0,1,.05,0s0,0,0,0a1.77,1.77,0,0,0,.35,1,1.11,1.11,0,0,0,.9.38,1.25,1.25,0,0,0,.9-.3,1,1,0,0,0,.31-.75,1.38,1.38,0,0,0-.08-.48,1.19,1.19,0,0,0-.25-.38,1.92,1.92,0,0,0-.41-.31l-.55-.31a3.52,3.52,0,0,1-.46-.28,2,2,0,0,1-.39-.37,1.48,1.48,0,0,1-.26-.46A1.41,1.41,0,0,1,37,8.48a1.32,1.32,0,0,1,.44-1,1.66,1.66,0,0,1,1.16-.39,3.34,3.34,0,0,1,.49,0,1.71,1.71,0,0,1,.34.08.53.53,0,0,1,.25.17.44.44,0,0,1,.06.34,2.39,2.39,0,0,1,0,.31c0,.14,0,.26-.05.36s0,0,0,0a0,0,0,0,1,0,0A1.43,1.43,0,0,0,39.47,8a.9.9,0,0,0-.2-.34A.87.87,0,0,0,39,7.4a1.21,1.21,0,0,0-1.18.15.91.91,0,0,0-.29.73,1.06,1.06,0,0,0,.29.77,2.3,2.3,0,0,0,.7.51c.27.15.51.28.71.42a2.07,2.07,0,0,1,.49.42,1.29,1.29,0,0,1,.27.48,1.52,1.52,0,0,1,.07.58,1.37,1.37,0,0,1-.14.61,1.67,1.67,0,0,1-.38.46,1.6,1.6,0,0,1-.55.29,2.28,2.28,0,0,1-.7.11,2.52,2.52,0,0,1-.6-.06,3,3,0,0,1-.42-.13.82.82,0,0,1-.25-.2A.69.69,0,0,1,36.85,12.25Z"/><path class="cls-3" d="M43.33,10.16c0,.08,0,.19,0,.34s0,.31,0,.47,0,.33,0,.48v.34a3.93,3.93,0,0,0,0,.45.48.48,0,0,0,.09.27.3.3,0,0,0,.18.13,2,2,0,0,0,.32,0,0,0,0,0,1,0,.05s0,0,0,0l-.5,0h-.9l-.48,0s0,0,0,0,0-.05,0-.05a1.46,1.46,0,0,0,.27,0,.46.46,0,0,0,.18-.13.65.65,0,0,0,.09-.26,4.14,4.14,0,0,0,0-.46v-.34c0-.15,0-.31,0-.47s0-.32,0-.47V9.63c0-.19,0-.37,0-.54s0-.32,0-.46V8.31a3.09,3.09,0,0,0,0-.54.81.81,0,0,0-.1-.29.33.33,0,0,0-.17-.12l-.26,0s0,0,0-.05,0,0,0,0h1.74s.06,0,0,0a.06.06,0,0,1,0,.06l-.23.06a.28.28,0,0,0-.16.12.85.85,0,0,0-.08.28,5,5,0,0,0,0,.53v.31c0,.14,0,.3,0,.48v1.06Z"/><path class="cls-3" d="M49.2,12.23,49,11.84l-.29-.48-.33-.53L48,10.29c-.09.14-.19.29-.29.46l-.3.5c-.09.17-.19.33-.28.48l-.22.41a.66.66,0,0,0-.12.4q0,.12.39.15a0,0,0,0,1,.05.05s0,0-.05,0l-.43,0H46l-.46,0s0,0,0,0a.06.06,0,0,1,0-.06,1.19,1.19,0,0,0,.42-.11,1.3,1.3,0,0,0,.41-.41c.23-.32.47-.67.73-1.05s.5-.75.73-1.11l-.36-.57c-.12-.2-.24-.39-.37-.58l-.35-.55-.32-.49-.17-.23a.71.71,0,0,0-.15-.15L46,7.36l-.22,0a.06.06,0,0,1-.06-.05s0,0,.06,0l.44,0H47l.48,0s.06,0,0,0,0,.05,0,.05c-.21,0-.32.07-.34.14a.51.51,0,0,0,.08.32c.14.26.29.54.46.83s.34.59.52.9q.25-.4.48-.81l.42-.78a1.6,1.6,0,0,0,.13-.31.27.27,0,0,0,0-.17.11.11,0,0,0-.09-.08l-.19,0s0,0,0-.05,0,0,0,0h1.06l.39,0a.05.05,0,1,1,0,.1l-.19,0a.47.47,0,0,0-.17.07,1,1,0,0,0-.18.15,2.3,2.3,0,0,0-.22.27l-.69,1c-.22.33-.41.64-.59.92l.38.6.42.66c.14.23.27.44.41.64s.25.38.36.53a1.48,1.48,0,0,0,.35.38.74.74,0,0,0,.38.12,0,0,0,0,1,.05.05s0,0-.05,0l-.45,0h-.8l-.45,0s-.05,0-.05,0,0-.05.05-.05.27-.06.29-.14A.52.52,0,0,0,49.2,12.23Z"/><path class="cls-3" d="M55.6,12.25a2.72,2.72,0,0,1,0-.49c0-.18,0-.33.07-.47a.05.05,0,0,1,.06,0s0,0,0,0a1.7,1.7,0,0,0,.35,1,1.11,1.11,0,0,0,.9.38,1.25,1.25,0,0,0,.9-.3,1,1,0,0,0,.31-.75,1.17,1.17,0,0,0-.09-.48,1,1,0,0,0-.25-.38,1.69,1.69,0,0,0-.41-.31L57,10.18a3.52,3.52,0,0,1-.46-.28,2,2,0,0,1-.39-.37,1.74,1.74,0,0,1-.27-.46,1.83,1.83,0,0,1-.09-.59,1.33,1.33,0,0,1,.45-1,1.64,1.64,0,0,1,1.16-.39,3.34,3.34,0,0,1,.49,0,1.9,1.9,0,0,1,.34.08.58.58,0,0,1,.25.17.55.55,0,0,1,.06.34c0,.07,0,.17,0,.31s0,.26-.05.36,0,0,0,0a0,0,0,0,1,0,0A1.43,1.43,0,0,0,58.22,8a1.05,1.05,0,0,0-.2-.34,1,1,0,0,0-.32-.24,1.23,1.23,0,0,0-1.19.15.91.91,0,0,0-.28.73,1,1,0,0,0,.29.77,2.3,2.3,0,0,0,.7.51c.27.15.51.28.71.42a2.29,2.29,0,0,1,.49.42,1.64,1.64,0,0,1,.27.48,1.74,1.74,0,0,1,.07.58,1.52,1.52,0,0,1-.15.61,1.63,1.63,0,0,1-.37.46,1.65,1.65,0,0,1-.56.29,2.23,2.23,0,0,1-.7.11,2.49,2.49,0,0,1-.59-.06,2.35,2.35,0,0,1-.42-.13.71.71,0,0,1-.25-.2A.5.5,0,0,1,55.6,12.25Z"/><path class="cls-3" d="M62.07,10v.89c0,.18,0,.35,0,.52s0,.33,0,.47a1.82,1.82,0,0,0,0,.32.24.24,0,0,0,.09.17.38.38,0,0,0,.17.07l.29,0h.76a1.15,1.15,0,0,0,.45-.1.74.74,0,0,0,.29-.23.85.85,0,0,0,.16-.33c0-.13.07-.26.1-.4a.06.06,0,0,1,.06,0s0,0,0,0v.28c0,.1,0,.21,0,.31a2.71,2.71,0,0,1,0,.29,1,1,0,0,1,0,.21.25.25,0,0,1-.14.21,1,1,0,0,1-.39.06c-.22,0-.53,0-.9,0H60.84s-.05,0-.05,0,0-.05.05-.05a1.55,1.55,0,0,0,.29,0,.3.3,0,0,0,.18-.13.71.71,0,0,0,.09-.27,2.64,2.64,0,0,0,0-.45c0-.32,0-.63,0-.94V9.1c0-.25,0-.52,0-.8s0-.34,0-.46a.73.73,0,0,0-.07-.29.4.4,0,0,0-.18-.16,1.77,1.77,0,0,0-.35-.07s0,0-.05-.05,0,0,.05,0l.53,0h2.41a1.15,1.15,0,0,1,.3,0c.07,0,.1.09.09.19s0,.26,0,.41,0,.3,0,.46,0,0-.07,0,0,0,0,0a1.09,1.09,0,0,0-.14-.55.57.57,0,0,0-.47-.24H63l-.28,0h-.65c0,.37,0,.74,0,1.09V9.74l.68,0,.82,0,.15,0,.08,0,0,0h0a0,0,0,0,1,0,0s0,.09,0,.18,0,.21-.05.32,0,.18,0,.22,0,.05-.07.05,0,0,0-.05a.5.5,0,0,0,0-.2.25.25,0,0,0-.12-.11.49.49,0,0,0-.19,0l-.24,0h-1Z"/><path class="cls-3" d="M72,8c0,.34,0,.69,0,1s0,.71,0,1.08,0,.77,0,1.19,0,.87,0,1.36v.16s0,0,0,0a0,0,0,0,1-.06,0l-.13-.14-.45-.5-.5-.54-.59-.63-.73-.75L68.23,9.16c-.33-.34-.59-.6-.78-.77v.68c0,.29,0,.6,0,.94s0,.68,0,1,0,.69,0,1a.66.66,0,0,0,.16.43.84.84,0,0,0,.56.21s0,0,0,.05,0,0,0,0l-.55,0H67l-.38,0s-.06,0,0,0,0-.05,0-.05a.63.63,0,0,0,.34-.15.77.77,0,0,0,.13-.45c0-.25,0-.52,0-.81s0-.58,0-.87,0-.56,0-.81V8.15c0-.28,0-.55,0-.81a.49.49,0,0,1,0-.14s0,0,0,0,0,0,0,0l.14.13q.5.56,1,1.14l1.23,1.27,1.08,1.07.84.83V10c0-.58,0-1.18,0-1.81,0-.16,0-.29,0-.39a.67.67,0,0,0-.09-.24.36.36,0,0,0-.18-.12,1.33,1.33,0,0,0-.3-.07,0,0,0,0,1,0-.05s0,0,0,0H72l.38,0s0,0,0,0a0,0,0,0,1,0,.05.45.45,0,0,0-.35.22A1.39,1.39,0,0,0,72,8Z"/><path class="cls-3" d="M74.69,12.25a2.72,2.72,0,0,1,0-.49c0-.18,0-.33.07-.47a.05.05,0,0,1,.06,0,0,0,0,0,1,0,0,1.7,1.7,0,0,0,.35,1,1.11,1.11,0,0,0,.9.38,1.24,1.24,0,0,0,.89-.3,1,1,0,0,0,.32-.75,1.17,1.17,0,0,0-.09-.48A1.19,1.19,0,0,0,77,10.8a1.92,1.92,0,0,0-.41-.31L76,10.18a4.34,4.34,0,0,1-.46-.28,2.22,2.22,0,0,1-.38-.37,1.74,1.74,0,0,1-.27-.46,1.83,1.83,0,0,1-.09-.59,1.29,1.29,0,0,1,.45-1,1.64,1.64,0,0,1,1.16-.39,3.47,3.47,0,0,1,.49,0,1.59,1.59,0,0,1,.33.08.56.56,0,0,1,.26.17.55.55,0,0,1,.06.34c0,.07,0,.17,0,.31s0,.26,0,.36,0,0-.06,0a0,0,0,0,1,0,0A1.43,1.43,0,0,0,77.31,8a1.27,1.27,0,0,0-.2-.34,1,1,0,0,0-.33-.24,1,1,0,0,0-.45-.09,1.09,1.09,0,0,0-.73.24.91.91,0,0,0-.28.73,1.06,1.06,0,0,0,.28.77,2.57,2.57,0,0,0,.7.51A7.29,7.29,0,0,1,77,10a2.29,2.29,0,0,1,.49.42,1.64,1.64,0,0,1,.27.48,2,2,0,0,1,.07.58,1.52,1.52,0,0,1-.15.61,1.63,1.63,0,0,1-.37.46,1.65,1.65,0,0,1-.56.29,2.23,2.23,0,0,1-.7.11,2.64,2.64,0,0,1-.6-.06,2.49,2.49,0,0,1-.41-.13.63.63,0,0,1-.25-.2A.5.5,0,0,1,74.69,12.25Z"/><path class="cls-3" d="M81.16,10v1.41c0,.17,0,.33,0,.47a1.27,1.27,0,0,0,0,.32.29.29,0,0,0,.1.17.38.38,0,0,0,.17.07l.29,0h.75a1.16,1.16,0,0,0,.46-.1.74.74,0,0,0,.29-.23,1,1,0,0,0,.16-.33c0-.13.07-.26.1-.4s0,0,.06,0,0,0,0,0v.28c0,.1,0,.21,0,.31s0,.2,0,.29,0,.16,0,.21a.28.28,0,0,1-.15.21.88.88,0,0,1-.38.06c-.23,0-.53,0-.9,0H79.93s-.05,0-.05,0a0,0,0,0,1,.05-.05,1.55,1.55,0,0,0,.29,0,.34.34,0,0,0,.18-.13.71.71,0,0,0,.09-.27,4.36,4.36,0,0,0,0-.45c0-.32,0-.63,0-.94V9.1c0-.25,0-.52,0-.8s0-.34,0-.46a.73.73,0,0,0-.07-.29.4.4,0,0,0-.18-.16,1.77,1.77,0,0,0-.35-.07,0,0,0,0,1-.05-.05s0,0,.05,0l.53,0h2.41a1.15,1.15,0,0,1,.3,0c.07,0,.1.09.08.19s0,.26,0,.41a3.87,3.87,0,0,1-.06.46s0,0-.06,0,0,0,0,0a1.2,1.2,0,0,0-.14-.55.59.59,0,0,0-.47-.24H82.1l-.29,0h-.64c0,.37,0,.74,0,1.09V9.74l.68,0,.82,0,.15,0,.08,0,0,0h0a0,0,0,0,1,0,0,1.06,1.06,0,0,0,0,.18c0,.1,0,.21,0,.32a1.23,1.23,0,0,1,0,.22.06.06,0,0,1-.06.05s0,0,0-.05a.37.37,0,0,0,0-.2.2.2,0,0,0-.11-.11.53.53,0,0,0-.19,0l-.25,0h-1Z"/><path class="cls-3" d="M85.74,12.25a2.67,2.67,0,0,1,0-.49,4.56,4.56,0,0,1,.08-.47.05.05,0,0,1,.05,0s0,0,0,0a1.7,1.7,0,0,0,.35,1,1.08,1.08,0,0,0,.89.38,1.25,1.25,0,0,0,.9-.3,1,1,0,0,0,.31-.75,1.18,1.18,0,0,0-.08-.48A1.19,1.19,0,0,0,88,10.8a1.92,1.92,0,0,0-.41-.31l-.55-.31a4.34,4.34,0,0,1-.46-.28,2,2,0,0,1-.39-.37A1.48,1.48,0,0,1,86,9.07a1.41,1.41,0,0,1-.09-.59,1.32,1.32,0,0,1,.44-1,1.69,1.69,0,0,1,1.17-.39,3.32,3.32,0,0,1,.48,0,1.55,1.55,0,0,1,.34.08.53.53,0,0,1,.25.17.48.48,0,0,1,.07.34c0,.07,0,.17,0,.31s0,.26,0,.36,0,0-.05,0a0,0,0,0,1,0,0A2.71,2.71,0,0,0,88.36,8a1.08,1.08,0,0,0-.21-.34.87.87,0,0,0-.32-.24,1.21,1.21,0,0,0-1.18.15.91.91,0,0,0-.29.73,1.06,1.06,0,0,0,.29.77,2.43,2.43,0,0,0,.7.51,7,7,0,0,1,.71.42,2.07,2.07,0,0,1,.49.42,1.29,1.29,0,0,1,.27.48,1.52,1.52,0,0,1,.07.58,1.37,1.37,0,0,1-.14.61,1.67,1.67,0,0,1-.38.46,1.6,1.6,0,0,1-.55.29,2.28,2.28,0,0,1-.7.11,2.58,2.58,0,0,1-.6-.06,3,3,0,0,1-.42-.13.82.82,0,0,1-.25-.2A.57.57,0,0,1,85.74,12.25Z"/><path class="cls-3" d="M94.72,11.73c0-.32,0-.64,0-.94V9c0-.14,0-.29,0-.43s0-.31,0-.48a.84.84,0,0,0-.15-.53.67.67,0,0,0-.48-.19A.06.06,0,0,1,94,7.27s0,0,.06,0H95l.53,0a5.86,5.86,0,0,1,.59,0,2.55,2.55,0,0,1,.94.17,1.33,1.33,0,0,1,.54.38,1.24,1.24,0,0,1,.24.47,2,2,0,0,1,.06.45,1.55,1.55,0,0,1-.26.89,1.91,1.91,0,0,1-.75.64l.33.49c.15.22.33.45.53.7s.4.49.55.65a3.62,3.62,0,0,0,.46.43.85.85,0,0,0,.35.16l.3,0a.06.06,0,0,1,.06.05s0,0-.06,0h-.65l-.2,0a1.83,1.83,0,0,1-.41-.12,1.29,1.29,0,0,1-.35-.24,3.15,3.15,0,0,1-.38-.41l-.46-.63-.37-.54c-.11-.16-.21-.32-.3-.47a3.46,3.46,0,0,1-.91,0v.81c0,.24,0,.42,0,.55a3.25,3.25,0,0,0,0,.5.61.61,0,0,0,.1.28.28.28,0,0,0,.18.14,1.82,1.82,0,0,0,.31,0,.07.07,0,0,1,.07.05s0,0-.07,0l-.53,0a3.27,3.27,0,0,0-.4,0,3.64,3.64,0,0,0-.43,0l-.49,0s-.06,0-.06,0a.06.06,0,0,1,.06-.05l.28,0a.36.36,0,0,0,.18-.12.77.77,0,0,0,.09-.28A4.58,4.58,0,0,0,94.72,11.73ZM97.24,8.9a1.67,1.67,0,0,0-.29-1A1.14,1.14,0,0,0,96,7.45l-.37,0h-.32c0,.14,0,.28,0,.42v2.21a3.61,3.61,0,0,0,.5.06,3.88,3.88,0,0,0,.58,0,.71.71,0,0,0,.37-.13,1.16,1.16,0,0,0,.26-.28,1.26,1.26,0,0,0,.15-.38A2,2,0,0,0,97.24,8.9Z"/><path class="cls-3" d="M101.75,10v1.41c0,.17,0,.33,0,.47a1.82,1.82,0,0,0,0,.32.34.34,0,0,0,.09.17.48.48,0,0,0,.18.07l.29,0h.75a1.2,1.2,0,0,0,.46-.1.71.71,0,0,0,.28-.23.86.86,0,0,0,.17-.33l.09-.4a.06.06,0,0,1,.06,0s0,0,0,0V12c0,.1,0,.2,0,.29a1.06,1.06,0,0,1,0,.21.28.28,0,0,1-.15.21.91.91,0,0,1-.38.06c-.23,0-.53,0-.91,0h-2.22s-.06,0,0,0a0,0,0,0,1,0-.05,1.72,1.72,0,0,0,.29,0,.31.31,0,0,0,.17-.13.71.71,0,0,0,.09-.27,3.93,3.93,0,0,0,0-.45c0-.32,0-.63,0-.94V9.1c0-.25,0-.52,0-.8s0-.34,0-.46a.72.72,0,0,0-.08-.29.36.36,0,0,0-.18-.16,1.65,1.65,0,0,0-.34-.07.06.06,0,0,1-.06-.05s0,0,.06,0l.52,0h2.41a1.05,1.05,0,0,1,.3,0c.07,0,.1.09.09.19s0,.26,0,.41l-.06.46a.05.05,0,0,1-.06,0s-.05,0-.05,0a1,1,0,0,0-.14-.55.56.56,0,0,0-.47-.24h-.3l-.29,0h-.65V9.74l.68,0,.81,0,.16,0,.08,0,0,0h0s0,0,0,0a1.06,1.06,0,0,0,0,.18c0,.1,0,.21,0,.32a1.49,1.49,0,0,1,0,.22.06.06,0,0,1-.06.05,0,0,0,0,1-.05-.05.37.37,0,0,0,0-.2.22.22,0,0,0-.12-.11.48.48,0,0,0-.18,0l-.25,0h-1Z"/><path class="cls-3" d="M106.32,12.25a2.72,2.72,0,0,1,0-.49c0-.18,0-.33.07-.47s0,0,.06,0,0,0,0,0a1.77,1.77,0,0,0,.35,1,1.11,1.11,0,0,0,.9.38,1.25,1.25,0,0,0,.9-.3,1,1,0,0,0,.31-.75,1.38,1.38,0,0,0-.08-.48,1.22,1.22,0,0,0-.26-.38,1.84,1.84,0,0,0-.4-.31l-.55-.31a3.52,3.52,0,0,1-.46-.28,2,2,0,0,1-.39-.37,1.48,1.48,0,0,1-.26-.46,1.41,1.41,0,0,1-.09-.59,1.32,1.32,0,0,1,.44-1,1.64,1.64,0,0,1,1.16-.39,3.34,3.34,0,0,1,.49,0,1.9,1.9,0,0,1,.34.08.53.53,0,0,1,.25.17.55.55,0,0,1,.06.34c0,.07,0,.17,0,.31s0,.26-.05.36,0,0,0,0a0,0,0,0,1,0,0,1.43,1.43,0,0,0-.09-.41,1.05,1.05,0,0,0-.2-.34,1,1,0,0,0-.32-.24,1.08,1.08,0,0,0-.46-.09,1.11,1.11,0,0,0-.73.24.91.91,0,0,0-.28.73,1.06,1.06,0,0,0,.29.77,2.3,2.3,0,0,0,.7.51c.27.15.51.28.71.42a2.29,2.29,0,0,1,.49.42,1.29,1.29,0,0,1,.27.48,1.74,1.74,0,0,1,.07.58,1.25,1.25,0,0,1-.15.61,1.47,1.47,0,0,1-.37.46,1.65,1.65,0,0,1-.56.29,2.19,2.19,0,0,1-.7.11,2.49,2.49,0,0,1-.59-.06,2.35,2.35,0,0,1-.42-.13.71.71,0,0,1-.25-.2A.5.5,0,0,1,106.32,12.25Z"/><path class="cls-3" d="M112.8,10.16c0,.08,0,.19,0,.34V11c0,.17,0,.33,0,.48s0,.26,0,.34a4.36,4.36,0,0,0,0,.45.71.71,0,0,0,.09.27.36.36,0,0,0,.19.13,1.8,1.8,0,0,0,.32,0,0,0,0,0,1,.05.05s0,0-.05,0l-.5,0h-.9l-.48,0s0,0,0,0a0,0,0,0,1,0-.05,1.46,1.46,0,0,0,.27,0,.46.46,0,0,0,.18-.13.65.65,0,0,0,.09-.26,4.14,4.14,0,0,0,0-.46v-.34c0-.15,0-.31,0-.47V9.09c0-.17,0-.32,0-.46V8.31a4.54,4.54,0,0,0,0-.54.81.81,0,0,0-.1-.29.33.33,0,0,0-.17-.12l-.26,0a0,0,0,0,1,0-.05s0,0,0,0h1.74s.05,0,.05,0a.06.06,0,0,1-.05.06l-.24.06a.29.29,0,0,0-.15.12.66.66,0,0,0-.08.28,5,5,0,0,0,0,.53v.31c0,.14,0,.3,0,.48v1.06Z"/><path class="cls-3" d="M121.08,10a3,3,0,0,1-.22,1.13,2.56,2.56,0,0,1-.61.9,2.61,2.61,0,0,1-1,.6,3.52,3.52,0,0,1-1.25.22c-.36,0-.68,0-1,0a6.31,6.31,0,0,0-.66,0h-1.05s-.06,0,0,0a.06.06,0,0,1,0-.06,1,1,0,0,0,.41-.09.36.36,0,0,0,.21-.19,1,1,0,0,0,.09-.35c0-.15,0-.34,0-.57,0-.08,0-.19,0-.34s0-.3,0-.46V8.89c0-.32,0-.55,0-.71a2.18,2.18,0,0,0,0-.41.72.72,0,0,0-.11-.25.56.56,0,0,0-.2-.14,1.13,1.13,0,0,0-.3-.06.05.05,0,0,1,0-.1h2.48a3.36,3.36,0,0,1,2.33.73A2.62,2.62,0,0,1,121.08,10Zm-.7.06A3,3,0,0,0,120.2,9a2.37,2.37,0,0,0-.5-.79,2.31,2.31,0,0,0-.76-.49,3,3,0,0,0-1-.22l-.78,0-.43,0v2.88c0,.46,0,.84,0,1.15s0,.53,0,.66a.56.56,0,0,0,0,.2s.06.07.14.1a1.66,1.66,0,0,0,.44.11,4,4,0,0,0,.64,0,2.34,2.34,0,0,0,1-.2,2.1,2.1,0,0,0,.73-.55,2.42,2.42,0,0,0,.43-.81A3.53,3.53,0,0,0,120.38,10.06Z"/><path class="cls-3" d="M124.23,10v.89c0,.18,0,.35,0,.52s0,.33,0,.47a1.82,1.82,0,0,0,0,.32.34.34,0,0,0,.09.17.48.48,0,0,0,.18.07l.28,0h.76a1.2,1.2,0,0,0,.46-.1.71.71,0,0,0,.28-.23.85.85,0,0,0,.16-.33c0-.13.07-.26.1-.4a.06.06,0,0,1,.06,0s0,0,0,0V12c0,.1,0,.2,0,.29a1.06,1.06,0,0,1,0,.21.28.28,0,0,1-.15.21.91.91,0,0,1-.38.06c-.23,0-.53,0-.91,0H123s0,0,0,0,0-.05,0-.05a1.86,1.86,0,0,0,.3,0,.31.31,0,0,0,.17-.13.71.71,0,0,0,.09-.27,3.93,3.93,0,0,0,0-.45c0-.32,0-.63,0-.94V9.1c0-.25,0-.52,0-.8s0-.34,0-.46a.59.59,0,0,0-.07-.29.4.4,0,0,0-.18-.16,1.65,1.65,0,0,0-.34-.07.06.06,0,0,1-.06-.05s0,0,.06,0l.52,0h2.41a1.15,1.15,0,0,1,.3,0c.07,0,.1.09.09.19s0,.26,0,.41l-.06.46a.05.05,0,0,1-.06,0s0,0,0,0a1,1,0,0,0-.14-.55.56.56,0,0,0-.47-.24h-.3l-.29,0h-.65c0,.37,0,.74,0,1.09V9.74l.69,0,.81,0,.16,0,.08,0,0,0h0a0,0,0,0,1,0,0s0,.09,0,.18,0,.21-.05.32a1.49,1.49,0,0,1,0,.22.06.06,0,0,1-.06.05,0,0,0,0,1,0-.05.37.37,0,0,0,0-.2.25.25,0,0,0-.12-.11.48.48,0,0,0-.18,0l-.25,0h-1Z"/><path class="cls-3" d="M134.12,8l0,1q0,.53,0,1.08c0,.37,0,.77,0,1.19s0,.87,0,1.36v.16a.05.05,0,0,1,0,0,.06.06,0,0,1-.07,0l-.13-.14-.44-.5-.5-.54-.59-.63-.74-.75-1.15-1.16c-.33-.34-.59-.6-.78-.77v.68c0,.29,0,.6,0,.94s0,.68,0,1,0,.69,0,1a.72.72,0,0,0,.16.43.86.86,0,0,0,.56.21,0,0,0,0,1,.05.05s0,0-.05,0l-.55,0h-.73l-.38,0s-.05,0-.05,0a0,0,0,0,1,.05-.05.63.63,0,0,0,.34-.15.7.7,0,0,0,.13-.45c0-.25,0-.52.05-.81l0-.87c0-.28,0-.56,0-.81V8.15c0-.28,0-.55,0-.81,0-.07,0-.11,0-.14s0,0,0,0,0,0,0,0l.14.13c.33.37.69.75,1.06,1.14s.78.82,1.23,1.27l1.07,1.07c.32.32.6.6.85.83V10c0-.58,0-1.18-.05-1.81a3.15,3.15,0,0,0,0-.39.43.43,0,0,0-.09-.24.29.29,0,0,0-.18-.12,1.33,1.33,0,0,0-.3-.07s0,0-.05-.05a0,0,0,0,1,.05,0h1.12l.37,0s.05,0,.05,0a0,0,0,0,1-.05.05.41.41,0,0,0-.34.22A1.37,1.37,0,0,0,134.12,8Z"/><path class="cls-3" d="M139.66,7.09a7,7,0,0,1,.81,0,3.68,3.68,0,0,1,.76.19.61.61,0,0,1,.27.18.55.55,0,0,1,.09.34c0,.14,0,.28,0,.44s0,.32,0,.49,0,.05-.07.05a0,0,0,0,1-.05-.05,1.6,1.6,0,0,0-.19-.66,1.5,1.5,0,0,0-.4-.46,1.67,1.67,0,0,0-.54-.25,2.39,2.39,0,0,0-.66-.08,2.86,2.86,0,0,0-1,.16,2,2,0,0,0-.75.5,2.16,2.16,0,0,0-.46.83,3.44,3.44,0,0,0-.15,1.16,3.64,3.64,0,0,0,.23,1.23,2.36,2.36,0,0,0,.55.83,2.19,2.19,0,0,0,.79.47,2.82,2.82,0,0,0,1.68.06,1.56,1.56,0,0,0,.51-.28,1.39,1.39,0,0,0,.31-.45,2.06,2.06,0,0,0,.16-.58.06.06,0,1,1,.12,0c0,.1,0,.21,0,.33v.29a1.29,1.29,0,0,1,0,.38.63.63,0,0,1-.08.22.41.41,0,0,1-.14.12l-.19.1a2.72,2.72,0,0,1-.51.15,4.55,4.55,0,0,1-.92.08,3.91,3.91,0,0,1-1.33-.21,2.86,2.86,0,0,1-1-.57,2.37,2.37,0,0,1-.63-.9,2.94,2.94,0,0,1-.22-1.17,3.45,3.45,0,0,1,.21-1.23,2.51,2.51,0,0,1,.61-.94,2.81,2.81,0,0,1,1-.61A3.87,3.87,0,0,1,139.66,7.09Z"/><path class="cls-3" d="M144.85,10v1.41c0,.17,0,.33,0,.47a1.27,1.27,0,0,0,0,.32.29.29,0,0,0,.1.17.38.38,0,0,0,.17.07l.29,0h.75a1.16,1.16,0,0,0,.46-.1.82.82,0,0,0,.29-.23,1,1,0,0,0,.16-.33c0-.13.07-.26.1-.4s0,0,.06,0,0,0,0,0V12c0,.1,0,.2,0,.29s0,.16,0,.21a.28.28,0,0,1-.15.21.91.91,0,0,1-.38.06c-.23,0-.53,0-.91,0h-2.22s-.05,0-.05,0a0,0,0,0,1,.05-.05,1.72,1.72,0,0,0,.29,0,.31.31,0,0,0,.17-.13.48.48,0,0,0,.09-.27,3.93,3.93,0,0,0,0-.45c0-.32,0-.63,0-.94V9.1c0-.25,0-.52,0-.8s0-.34,0-.46a.73.73,0,0,0-.07-.29.4.4,0,0,0-.18-.16,1.77,1.77,0,0,0-.35-.07,0,0,0,0,1-.05-.05s0,0,.05,0l.53,0h2.41a1.15,1.15,0,0,1,.3,0c.07,0,.09.09.08.19s0,.26,0,.41a3.87,3.87,0,0,1-.06.46s0,0-.06,0-.05,0,0,0a1.2,1.2,0,0,0-.14-.55.59.59,0,0,0-.47-.24h-.31l-.29,0h-.64c0,.37,0,.74,0,1.09V9.74l.68,0,.82,0,.15,0,.08,0,0,0h0s0,0,0,0a1.06,1.06,0,0,0,0,.18c0,.1,0,.21,0,.32s0,.18-.05.22a.06.06,0,0,1-.06.05,0,0,0,0,1-.05-.05.37.37,0,0,0,0-.2.2.2,0,0,0-.11-.11.53.53,0,0,0-.19,0l-.25,0h-1Z"/><path class="cls-3" d="M149.42,12.25a4.13,4.13,0,0,1,0-.49,2.86,2.86,0,0,1,.08-.47.05.05,0,0,1,.05,0s0,0,0,0a1.77,1.77,0,0,0,.35,1,1.11,1.11,0,0,0,.9.38,1.25,1.25,0,0,0,.9-.3,1,1,0,0,0,.31-.75,1.38,1.38,0,0,0-.08-.48,1.19,1.19,0,0,0-.25-.38,1.92,1.92,0,0,0-.41-.31l-.55-.31a3.52,3.52,0,0,1-.46-.28,2,2,0,0,1-.39-.37,1.48,1.48,0,0,1-.26-.46,1.41,1.41,0,0,1-.09-.59,1.32,1.32,0,0,1,.44-1,1.66,1.66,0,0,1,1.16-.39,3.34,3.34,0,0,1,.49,0,1.71,1.71,0,0,1,.34.08.53.53,0,0,1,.25.17.49.49,0,0,1,.06.34,2.39,2.39,0,0,1,0,.31c0,.14,0,.26-.05.36s0,0,0,0a0,0,0,0,1-.05,0A1.43,1.43,0,0,0,152,8a.9.9,0,0,0-.2-.34.87.87,0,0,0-.32-.24,1.21,1.21,0,0,0-1.18.15.91.91,0,0,0-.29.73,1.06,1.06,0,0,0,.29.77,2.3,2.3,0,0,0,.7.51c.27.15.51.28.71.42a2.07,2.07,0,0,1,.49.42,1.29,1.29,0,0,1,.27.48,1.52,1.52,0,0,1,.07.58,1.37,1.37,0,0,1-.14.61,1.67,1.67,0,0,1-.38.46,1.6,1.6,0,0,1-.55.29,2.28,2.28,0,0,1-.7.11,2.52,2.52,0,0,1-.6-.06,3,3,0,0,1-.42-.13.82.82,0,0,1-.25-.2A.58.58,0,0,1,149.42,12.25Z"/><path class="cls-3" d="M159.05,7.51v.41c0,.18,0,.39,0,.61V9.79h.69c.27,0,.55,0,.82,0l.15,0,.09,0,.05,0h0s0,.06,0,.14,0,.16,0,.23l0,.16a.51.51,0,0,1,0,.13c0,.05,0,.09,0,.13a.05.05,0,0,1-.06,0s-.05,0,0,0a.56.56,0,0,0,0-.21.23.23,0,0,0-.12-.1.59.59,0,0,0-.2-.05l-.24,0h-1v1c0,.34,0,.62,0,.85a1.58,1.58,0,0,0,.06.37.53.53,0,0,0,.12.21.33.33,0,0,0,.19.11,1,1,0,0,0,.26,0,0,0,0,0,1,.05.05s0,0-.05,0l-.5,0h-.91l-.45,0s0,0,0,0a.05.05,0,0,1,0-.06.92.92,0,0,0,.26,0,.34.34,0,0,0,.17-.11.53.53,0,0,0,.1-.24,2.77,2.77,0,0,0,0-.39v-.36c0-.16,0-.33,0-.5s0-.35,0-.51v-.9c0-.19,0-.37,0-.54s0-.32,0-.46V8.31c0-.19,0-.34,0-.46a.72.72,0,0,0-.08-.29.32.32,0,0,0-.18-.16,1.14,1.14,0,0,0-.33-.08,0,0,0,0,1,0-.05s0,0,0,0H161c.06,0,.11,0,.13,0a.24.24,0,0,1,0,.14c0,.07,0,.16,0,.29s0,.24,0,.36,0,.23,0,.32a.06.06,0,0,1-.06.05s-.05,0-.05-.05a2.18,2.18,0,0,0,0-.25.58.58,0,0,0-.06-.26.6.6,0,0,0-.18-.21.85.85,0,0,0-.35-.11,5.17,5.17,0,0,0-.57,0Z"/><path class="cls-3" d="M164.32,10.16c0,.08,0,.19,0,.34V11c0,.17,0,.33,0,.48s0,.26,0,.34a4.36,4.36,0,0,0,0,.45.71.71,0,0,0,.09.27.36.36,0,0,0,.19.13,2,2,0,0,0,.32,0,0,0,0,0,1,.05.05s0,0-.05,0l-.5,0h-.9l-.48,0s0,0,0,0a0,0,0,0,1,0-.05,1.46,1.46,0,0,0,.27,0,.46.46,0,0,0,.18-.13.65.65,0,0,0,.09-.26,4.14,4.14,0,0,0,0-.46v-.34c0-.15,0-.31,0-.47V9.09c0-.17,0-.32,0-.46V8.31a4.54,4.54,0,0,0-.05-.54.81.81,0,0,0-.1-.29.33.33,0,0,0-.17-.12l-.26,0a0,0,0,0,1,0-.05s0,0,0,0h1.74s0,0,0,0a.06.06,0,0,1,0,.06l-.24.06a.29.29,0,0,0-.15.12.66.66,0,0,0-.08.28,5,5,0,0,0,0,.53v.31c0,.14,0,.3,0,.48v1.06Z"/><path class="cls-3" d="M168.84,7.22s0,0,0,0,0,.05,0,.05a.67.67,0,0,0-.28.07.33.33,0,0,0-.16.15.72.72,0,0,0-.08.29,3.14,3.14,0,0,0,0,.48c0,.06,0,.17,0,.32v1.62c0,.45,0,.82,0,1.11a5.07,5.07,0,0,1,0,.73,2.16,2.16,0,0,1-.11.51,1.91,1.91,0,0,1-.24.44,1.6,1.6,0,0,1-.61.53,2.26,2.26,0,0,1-.86.25s0,0,0,0,0,0,0,0a1.77,1.77,0,0,0,.66-.32,1.31,1.31,0,0,0,.38-.64,3.88,3.88,0,0,0,.16-1c0-.4,0-.9,0-1.5V9.14c0-.19,0-.35,0-.5s0-.26,0-.33,0-.34,0-.46a.71.71,0,0,0-.09-.29.36.36,0,0,0-.2-.16,1.21,1.21,0,0,0-.34-.08,0,0,0,0,1,0-.05s0,0,0,0h1.86Z"/><path class="cls-3" d="M172.15,10.16v.34c0,.15,0,.31,0,.47s0,.33,0,.48v.34a3.93,3.93,0,0,0,0,.45.71.71,0,0,0,.09.27.3.3,0,0,0,.18.13,2,2,0,0,0,.32,0s.06,0,.06.05,0,0-.06,0l-.5,0h-.9l-.47,0s-.06,0-.05,0a0,0,0,0,1,.05-.05l.27,0a.37.37,0,0,0,.17-.13.44.44,0,0,0,.09-.26,4.14,4.14,0,0,0,0-.46v-.34c0-.15,0-.31,0-.47s0-.32,0-.47V9.63c0-.19,0-.37,0-.54s0-.32,0-.46V8.31a5.05,5.05,0,0,0,0-.54.8.8,0,0,0-.11-.29.3.3,0,0,0-.17-.12l-.25,0a.06.06,0,0,1-.06-.05s0,0,.06,0h1.74s.05,0,.05,0,0,0-.05.06l-.24.06a.29.29,0,0,0-.15.12.84.84,0,0,0-.09.28,3.51,3.51,0,0,0,0,.53c0,.06,0,.17,0,.31v1.54Z"/></g></svg>