<svg id="Layer_1" data-name="Layer 1" xmlns="http://www.w3.org/2000/svg" viewBox="0 0 342 20"><defs><style>.cls-1{fill:#673065;}.cls-2{fill:#666;}.cls-3{fill:#5d5e5e;}.cls-4{fill:#5c5e5e;}</style></defs><title>courchevel-sticky</title><path class="cls-1" d="M26.14,17.78c0-.18,0-.34,0-.48s0,0,0-.05,0,0,0-.05,0-.09,0-.07,0-.21-.11-.17,0-.06,0,0a.56.56,0,0,1,0-.21l-.07-.2c0-.08-.09-.17-.14-.19s0,0,0-.06l.05,0a.41.41,0,0,0-.05-.09l0,0s0,0,0,0a.24.24,0,0,1,0-.12h0l0,0s.05.13,0,0,0-.09,0-.1,0,.06,0,.05a.18.18,0,0,0-.05-.07h.05a2.68,2.68,0,0,0-.57-.49s-.16-.1-.17,0h0c.05,0,0,0-.07,0s-.06-.09.05,0l0,0h-.3A2.58,2.58,0,0,0,22,16.67l-.05,0a3,3,0,0,1,.91-1.53s-.06.05-.09.05,0,0,0,0-.22,0-.25.08,0,0,0,.07,0-.08-.11,0,0,0,0,0-.05.15-.1.16l0,0c-.08,0-.11.17-.16.13v0c-.09.12-.06,0-.14.15h0c-.05,0-.05.09-.1.08v0a.63.63,0,0,0-.11.12.08.08,0,0,0,0,0s-.13.14-.14.17,0,0,0,0-.06,0-.07.09-.09,0-.14.05,0,0,0,0,0,0,0,0,0,0,0,0-.06.11-.12.2,0,0,0,0,0,.14-.06.08c0,.1-.06.22-.08.32a.65.65,0,0,0,0,.25s0,.07,0,.1h0a1.71,1.71,0,0,0-.07.18s.05,0,.07,0a.35.35,0,0,0-.05.08h0a.16.16,0,0,0,0,.1h0c-.06,0,0,.15-.06.18s0,.09.06.11a.07.07,0,0,0,0,.05s-.05,0,0,0h0a.22.22,0,0,0,0,.09l0,0,0,0h0a.14.14,0,0,1,0,.07.48.48,0,0,1,.05.17.25.25,0,0,0,.08.18s0,0,0,0,.12.17.13.24h0a1.31,1.31,0,0,0,.09.17l0,0,.1.16c0,.05.09.1.13.1s.09.08.12.12h0a.93.93,0,0,1,.1.1l.11.08-.05,0,.08,0a0,0,0,0,0,0,0l.18.14h0l.09.07s0,0,.05,0a.22.22,0,0,0,.14,0l.07,0c-.08-.05,0,0,0-.05l0,0s0,0,0,0,.11.05.13.09h0c.06,0,0,0,0,0s.11,0,.17,0,.15,0,.1.08,0,0,.07,0a.41.41,0,0,1-.19-.08l.06,0s-.12,0-.15,0,.07,0,.08,0l0,0a.44.44,0,0,1-.18-.09c.05,0-.05,0,0-.05h0s0,0,0,0l.24.08h0l.2,0s.09.07.06.09,0,0,.1,0-.06,0-.09,0,.06,0,.06,0,.09-.11,0-.13a.08.08,0,0,1-.1,0,2.33,2.33,0,0,0,2-.66l.09-.11c0,.05,0,.09,0,.08l0,0s.09-.1.14-.1l.06-.14s0,0,0,0,0-.05,0,0a3.38,3.38,0,0,1,.22-.47,1.44,1.44,0,0,0,.14-.49s0,0,0,0,0-.06,0-.09a.42.42,0,0,1,0-.1s0,0,0,0m-4.81-.36h-.06l.06-.06v.07m.1,1a.28.28,0,0,1,0-.09h0a.37.37,0,0,1,.05-.17l0,.13a1.27,1.27,0,0,1,0,.14m.29-2.31v0h0l0,0h0l0,0a0,0,0,0,1,0,0h0l.07-.07m0,2.72a1.28,1.28,0,0,1-.15-.1.22.22,0,0,1,.07-.06.25.25,0,0,0,0,.07l0,0,0,0,0,.06s0,0,0,0m.22.25h0a.31.31,0,0,1,0-.08l.07.08h0m.63.63h0m0-.14-.06,0a.77.77,0,0,1,.15.06s0,.06,0,.07a.17.17,0,0,1-.11-.08.28.28,0,0,0-.11-.11s0,.05-.06,0a.26.26,0,0,1-.09-.16,2.73,2.73,0,0,0,.43.26h0a.47.47,0,0,0-.16-.07.17.17,0,0,1,.08.06m.82.24h0s0,0,0,0m2.4-3.63h0s0,0,0,0"/><path class="cls-1" d="M20.26,10.17s0-.13,0-.18h0a.37.37,0,0,1,0-.15.79.79,0,0,1,0-.13l0,.05s0-.05,0-.09,0,0,0,0a1.57,1.57,0,0,0,0-.24h0s0-.08,0-.12,0,0,0-.06a.28.28,0,0,0-.06-.14s0-.05,0-.07,0,0-.06,0V9s0,0,0,0,0-.12,0-.16l0,0v0c0-.05,0,0,0,0s-.07-.09-.13-.11-.08-.13,0-.12,0,0-.07,0a.37.37,0,0,1,.07.19l-.05,0s.08.09.08.13,0-.06,0-.06h0A.3.3,0,0,1,20,9s0,.07,0,0V9s0,0,0,0l-.12-.22,0,0,0,0h0a.91.91,0,0,0-.11-.16s0-.11,0-.11,0,0-.07-.06.06,0,.08,0a.1.1,0,0,1,0-.07c-.06,0-.14,0-.12.07a.11.11,0,0,1,.06.08,2.49,2.49,0,0,0-.94-.73h-.06a2.57,2.57,0,0,0-2.53,1.36l-.06,0a3.21,3.21,0,0,1,.88-1.49h0a1.28,1.28,0,0,0-.45.23s0,0,0,0-.06,0-.09,0L16.29,8s0,0,0,0-.23.24-.35.33,0,0,0,.06,0,0-.06,0-.07.07-.06,0-.12.17,0,.2-.06,0,0,0-.08.12-.13.17-.05.1-.09.19a.6.6,0,0,0-.05.23c0-.06,0,0,0,0v0l0,.1v0s0,0,0,.05,0,.07-.06.11v0s.05-.12.05,0a.12.12,0,0,0-.05.1c0-.06,0-.05,0,0s0,.06,0,.09l0,0a2.81,2.81,0,0,0,.05.76s0,.17.09.14h0c0-.06,0,0,.05.06s0,.1-.07,0v.1c0,.05,0,.11,0,.18a1.27,1.27,0,0,1,.12.23v0c0,.14.18.25.19.28h0a.36.36,0,0,0,.14.23s0,0,0,0a.23.23,0,0,0,.09.14h0l.11.11s.07,0,.11.07.1.11.15.08.1.11.13.14h0c0,.07.15.06.21.09s0,0,0,0,.2.13.24.12,0,0,.05,0,0,.08.09.08,0,0,0,0,.15-.08.18-.05h0c.08,0,.2,0,.21,0v0c.14,0,.06,0,.2,0h0c.06,0,.1,0,.13,0H18s.19,0,.22,0,0,0,0,0a.07.07,0,0,0,.11,0c0,.05,0,.1.14.07s0,0,0,0h0s0,0,0,0,.12,0,.22,0,0,0,0,0,.11-.1.1,0,.2-.11.29-.17a.54.54,0,0,0,.19-.15s.06,0,.09-.06h0c.1,0,.07,0,.18-.08-.05,0,0,0,0-.06l.09,0v0a.19.19,0,0,0,.07-.08s0,0,0,0,.13-.08.16-.09.07-.06.05-.11l0,0s0,0,0,0h0v0l.05-.06v0a.06.06,0,0,1,0,0h0a.09.09,0,0,1,0-.06.37.37,0,0,1,.09-.16.24.24,0,0,0,.07-.18s0,0,0,0,0-.21.08-.26h0a.56.56,0,0,0,.07-.19h0a.81.81,0,0,1,0-.19c0-.06,0-.13,0-.15m-4.9-.8h0s0,0,0,0m2.88,2.94h0s0,0,0,0h-.1l0,0h0l.05,0a0,0,0,0,1,0,0m1.07-.57.05,0s0,0,0,0h-.09m.32-3.17h0l0,0,0,0m.49.63s0,0,0,0h0M19.94,11v0a.26.26,0,0,1-.15.09.75.75,0,0,0,.07-.12l.13-.06-.06.06m.08-.4s0-.06,0-.08h0a.22.22,0,0,1,0-.08h0a1.41,1.41,0,0,1,0,.18H20m.07-.42s0-.06,0-.09h0l0,0,0,.06m0-.45a2.73,2.73,0,0,0-.1-.48h0a.64.64,0,0,0,.07.16s0-.07,0-.1l0,.06c0-.05,0-.08-.06-.15s0-.06.08,0a.14.14,0,0,1,0,.13.28.28,0,0,0,0,.16s0,0,0,.05a.24.24,0,0,1-.06.17"/><path class="cls-1" d="M10.76,10.14a1.71,1.71,0,0,0,.07-.18s0,0-.06,0a.35.35,0,0,1,.05-.08h0a.17.17,0,0,0,0-.1h0c.05,0,0-.16.05-.18s0-.09-.05-.11a.43.43,0,0,0,0-.05s0,0,0,0h0s0-.06,0-.08l0,0,0,0h0a.08.08,0,0,1,0-.07.34.34,0,0,1-.05-.17.3.3,0,0,0-.08-.18s0,0,0,.05-.12-.17-.14-.24h0a.68.68,0,0,0-.09-.17l0,0-.1-.16c0-.05-.08-.1-.12-.1s-.09-.08-.13-.12h0A.46.46,0,0,1,10,8l-.12-.07h.06l-.08,0,0,0a2.31,2.31,0,0,0-.19-.14h0l-.09-.07s0,0-.05,0a.19.19,0,0,0-.13,0l-.07,0c.07,0,0,0,0,0l0,0s0,0,0,0-.11,0-.13-.09h0c-.06,0,0,0,0,0s-.11,0-.17,0-.15,0-.1-.08,0,0-.08,0A.37.37,0,0,1,9,7.53H8.89c0,.06.12,0,.15,0s-.07,0-.07,0l0,0a.31.31,0,0,1,.18.09c-.05,0,.05,0,0,0h0s0,0,0,0L8.9,7.61h0l-.2,0s-.09-.06,0-.08,0,0-.1,0,.06,0,.08,0-.06,0-.06,0-.09.11,0,.13a.08.08,0,0,1,.1,0,2.34,2.34,0,0,0-2,.66l-.08.11c0-.05,0-.09,0-.08l0,0s-.1.1-.14.1a.59.59,0,0,0-.06.14s0,0,0,0,0,.05,0,0a5.12,5.12,0,0,1-.22.47A1.4,1.4,0,0,0,6,9.4s0,0,0,0,0,.06,0,.09l0,.1s0,0,0,0c0,.18,0,.34,0,.48s0,0,.05,0,0,0,0,.06,0,.09,0,.07.05.21.12.16,0,.07,0,0a.53.53,0,0,1,0,.21s0,.11.08.19a.49.49,0,0,0,.13.2c-.06,0,0,0,0,.06l0,0,.06.09v0s0,0,0,0a.15.15,0,0,1,0,.12h0l0,0s0-.12,0,0,0,.09,0,.1,0-.06,0,0l0,.07h0a2.74,2.74,0,0,0,.58.49s.15.1.16,0h0s0,0,.08,0,.06.09-.06,0l0,0h.29A2.57,2.57,0,0,0,10,10.69l.06,0a3.12,3.12,0,0,1-.92,1.53s.06-.05.09-.05,0,0,0,0,.23-.05.25-.08,0,0,0-.07,0,.08.11,0h0s.05-.17.1-.17v0c.08,0,.11-.17.16-.13v0c.08-.12.05,0,.14-.15h0s0-.08.11-.08l0,0a.63.63,0,0,0,.11-.12.08.08,0,0,0,0,0s.13-.14.15-.17,0,0,0,0,.06,0,.07-.09.09,0,.15,0l0,0s0,0,0,0,0,0,0,0,.07-.1.12-.18,0,0,0,0,0-.14.06-.08a2.25,2.25,0,0,1,.08-.33.54.54,0,0,0,0-.24s0-.07,0-.1Zm-4.52,1s0,0,0,0ZM8.65,7.57h0m.8.09h0m-.07.13h0a.47.47,0,0,0,.16.07.24.24,0,0,1-.08-.06l.06,0s-.09,0-.15-.06,0-.06,0-.07.09,0,.11.08a.26.26,0,0,0,.12.11s0,0,.06,0a.24.24,0,0,1,.08.16,2.26,2.26,0,0,0-.42-.26m.68.49h0s0,0,0,.07,0,0-.07-.08m.25,3v0h0l0,0h0l0,0s0,0,0,0h0l-.07.07m.06-2.56,0-.07,0,0,0,0-.05-.07h0s.13.1.14.1a.22.22,0,0,1-.07.06m.23.52a.5.5,0,0,0,0-.13,1.09,1.09,0,0,1,0-.14.28.28,0,0,0,0,.09h0a.35.35,0,0,1,0,.17m.1.79s0,0,0-.07h0L10.7,10"/><path class="cls-1" d="M15.49,2.5a.2.2,0,0,0,0-.16h0a.76.76,0,0,0,0-.15s0-.06,0-.13,0-.15-.05-.16a.4.4,0,0,0,0-.19h0c0-.07-.06-.15-.08-.21s0,0,0,0-.05-.23-.08-.25,0,0-.06,0,.07,0,0-.12,0,0,0,0-.16-.06-.17-.1h0c0-.08-.17-.11-.13-.16h0c-.11-.09,0-.06-.14-.14h0s-.08,0-.07-.1h0L14.65.53a.08.08,0,0,0,0,0s-.14-.13-.17-.14,0,0,0,0,0-.07-.08-.07a.22.22,0,0,0,0-.08l-.43,0A2.58,2.58,0,0,0,11.4,1.58l-.05,0A3.15,3.15,0,0,1,12.16.14l-.05,0h.07l0,0h0L12.32,0a.45.45,0,0,1-.11,0A.3.3,0,0,0,12,.11s0,0,.05,0-.17.12-.23.13v0a.6.6,0,0,0-.18.09l0,0-.15.11c-.06,0-.1.08-.1.12s-.09.09-.13.12v0a.47.47,0,0,1-.11.1.52.52,0,0,1-.07.11.43.43,0,0,0,0,0,.29.29,0,0,0,0,.08,0,0,0,0,0,0,0,1.33,1.33,0,0,0-.14.19h0a.39.39,0,0,0-.08.1s0,0,0,0a.29.29,0,0,0-.05.14l0,.07c.05-.07,0,0,.05,0s0,0,0,0,0,0,0,0,0,.12-.09.14v0h0a0,0,0,0,1,0,0c0,.06,0,0,0,0s0,.11,0,.17,0,.15-.07.1,0,0,0,.07a.31.31,0,0,1,.09-.18v.06s0-.13,0-.16,0,.07,0,.08l0,0a.44.44,0,0,1,.09-.18c0,.06.05-.05.06,0l0,0s0,0,0,0a2.17,2.17,0,0,0-.07.24v0a1.29,1.29,0,0,0,0,.19s-.07.09-.09.06,0,0,0,.1,0-.06,0-.08,0,0,0,0,.11.09.13,0a.11.11,0,0,1,0-.1,2.35,2.35,0,0,0,.66,2l.11.09s-.09,0-.08,0l0,0s.1.1.1.14l.14.06s0,0,0,0,.05,0,0,0a3.38,3.38,0,0,1,.47.22,1.44,1.44,0,0,0,.49.14s0,0,0,0,.06,0,.09,0l.1,0s0,0,0,0c.17,0,.33,0,.47,0s0,0,0,0,0,0,.05,0,.09,0,.07,0,.21,0,.17-.12.06,0,0,0a.86.86,0,0,1,.21,0l.2-.07a.51.51,0,0,0,.19-.13c0,.06,0,0,.06,0l0,.05.09-.06,0,0s0,0,0,0a.24.24,0,0,1,.12,0h0l0,0s-.13,0,0,0,.09,0,.1,0-.06,0-.05,0l.07-.06v0a2.46,2.46,0,0,0,.49-.57s.1-.16,0-.17v0c0,.05,0,0,0-.08s.09-.06,0,.06l.07-.08c.06,0,.09-.06.11-.14a1,1,0,0,1,.07-.24h0c.08-.13.05-.31.07-.33l0,0a.34.34,0,0,0,0-.26s0,0,0,0M11.81.29s0,0,0,.06l-.07,0,0,0,0,0-.06,0s0,0,0,0a.42.42,0,0,1,.11-.14M11.52.6l-.07.06h0a0,0,0,0,0,0,0l.07,0m-.7.68h0s0,0,0,0m-.09.8h0l0,0s0,0,0,0M11,1.35h0A.73.73,0,0,0,11,1.18a.1.1,0,0,1-.06.07s0,0,0-.06,0,.1-.06.16-.06,0-.07-.05a.17.17,0,0,1,.08-.12A.28.28,0,0,0,11,1.07s0,0,0-.06a.24.24,0,0,1,.16-.08,2.26,2.26,0,0,0-.26.42m3.39,3.14s0,0,0,0Zm0-4.07v0l0,0v0l0,0s0,0,0,0a0,0,0,0,1,0,0s0,0,0,0l.07.08h-.05"/><path class="cls-1" d="M15.39,16.88s0-.07,0,0a4.68,4.68,0,0,1-.18-.48,1.39,1.39,0,0,0-.24-.45s0,0,0,0,0-.05,0-.09l-.09,0s0,0,0,0-.26-.23-.34-.35,0,0-.07,0,0,0,0-.06-.07-.06,0-.06-.18-.11-.2,0,0-.06,0-.06a.74.74,0,0,1-.17-.12,1.27,1.27,0,0,1-.2-.09.39.39,0,0,0-.22,0c.06,0,0,0,0,0l.05,0-.1,0h0s0,0,0,0-.07,0-.11-.06h0s.12.05,0,.05-.06-.06-.1,0,.05,0,0,0h-.09l0,0a2.83,2.83,0,0,0-.76.07s-.17,0-.14.09h0c.06,0,0,.05-.05.05s-.11,0,0-.07h-.1s-.11,0-.18,0a1.64,1.64,0,0,1-.22.12h0c-.14,0-.24.18-.28.18v0a.35.35,0,0,0-.23.15s0,0,0,0a.23.23,0,0,0-.14.09h0l-.11.11s0,.07-.07.12-.1.1-.08.14a.6.6,0,0,0-.13.14h0c-.07,0-.06.16-.09.22s0,0,0,0-.13.2-.12.24,0,0,0,.05-.07,0-.07.09,0,0,0,0,.07.14.05.18v0c0,.08,0,.2,0,.21h0c0,.14,0,.06,0,.2h0c0,.06,0,.1,0,.13v0a1,1,0,0,0,0,.17s0,.05,0,.06,0,.19,0,.22,0,0,0,0,0,.07,0,.11a.11.11,0,0,0-.07.14s0,0,0,0,0,0,0,0,0,0,0,0,0,.12,0,.22,0,0,0,0,.1.11,0,.1.11.19.17.29a.59.59,0,0,0,.16.18s0,.07.05.09h0c0,.1,0,.06.08.17,0-.05,0,0,.06,0s0,.06,0,.09h0a.27.27,0,0,0,.08.07s0,0,0,0,.09.14.09.17.07.07.12,0a.05.05,0,0,0,0,0s0,0,0,0h0l0,0,.06.05.23,0a.43.43,0,0,0,0-.07l.12.06h.11a2.56,2.56,0,0,0,2.53-1.35h.06A3.29,3.29,0,0,1,14,19.35l.18-.09,0,0,0,0h0l.17-.11s.11,0,.1,0,0,0,.06-.08,0,.06,0,.09.06,0,.07,0,0-.15-.07-.13a.07.07,0,0,1-.08.06,2.34,2.34,0,0,0,.91-1.85c0-.05,0-.09,0-.14s.06.07.09,0v0s0-.14,0-.16,0-.1-.05-.14,0,0,0,0m-4.76.89v0l0,0v-.1l0,0v0h0s0,0,0,.05,0,0,0,0m.59,1.15s0-.05,0-.08l0,.05s0,0,0,0m2.31-4.06h0s0,0,0,0m.83,4.28,0,0h0Z"/><path class="cls-1" d="M4.89,17.08s0-.06,0,0c-.07-.16-.11-.32-.17-.49a1.34,1.34,0,0,0-.24-.44s0,0,0,0,0-.06,0-.09l-.09,0s0,0,0,0-.26-.23-.34-.34,0,0-.07,0,0,0,0-.06-.07-.07,0-.07-.18-.11-.2,0,0-.06,0,0l-.11-.08H3.31A2.57,2.57,0,0,0,.78,16.66H.73a3,3,0,0,1,.92-1.54.2.2,0,0,0-.14,0,1.27,1.27,0,0,1-.23.12h0c-.14,0-.25.18-.28.19v0a.33.33,0,0,0-.23.14s0,0,0,0a.19.19,0,0,0-.14.09h0l-.11.11s0,.06-.07.11-.1.11-.08.15a.6.6,0,0,0-.13.14h0c-.07,0-.06.16-.09.21s0,0,0,0-.13.2-.12.23,0,0,0,.06-.07,0-.07.09,0,0,0,0S.1,17,.08,17v0c0,.08,0,.2,0,.2H0c0,.15,0,.06,0,.21H0c0,.06,0,.09,0,.12v0a1,1,0,0,0,0,.17.15.15,0,0,0,0,.06s0,.18,0,.22,0,0,0,0,0,.06,0,.11a.11.11,0,0,0-.07.14s0,0,0,0,0,0,0,.05,0,0,0,0,0,.11.05.21,0,0,0,0,.1.11,0,.1.11.19.17.28a.55.55,0,0,0,.16.19s0,.06.05.09l0,0a.91.91,0,0,0,.08.18c0-.05,0-.05.06,0l0,.09,0,0a.13.13,0,0,0,.08.07s0,0,0,0,.09.14.09.17.07.06.12,0a.08.08,0,0,0,0,0s0,0,0,0h0l0,0,.07.05h0a.09.09,0,0,1,.06,0,.43.43,0,0,1,.16.09.24.24,0,0,0,.18.07s-.05,0-.05,0,.2,0,.26.07v0l.19.06v0l.18,0a.27.27,0,0,0,.16,0s.12,0,.17,0v0a.37.37,0,0,1,.15,0l.13,0,0,0,.09,0h0a1.6,1.6,0,0,0,.23,0h.12s0,0,.06,0a.39.39,0,0,0,.14-.05s.05,0,.07,0,0,0,0-.06h.06s0,0,0,0,.12,0,.16,0l0,0h0s0,0,0,0,.09-.06.11-.13c0,.09.13-.08.12,0s0,0,0-.07-.13.06-.19.08l0,0c-.06,0-.1.07-.14.08s.07,0,.06-.05v0a.3.3,0,0,1-.19.06s-.07,0-.05,0h0s0,0,0,0a1.19,1.19,0,0,0,.22-.12s0,0,0,0l0,0v0l.17-.11s.11,0,.1,0,0,0,.06-.08,0,.07,0,.09.06,0,.07,0,0-.14-.07-.12a.09.09,0,0,1-.08.06,2.35,2.35,0,0,0,.91-1.85c0-.05,0-.09,0-.14s.06.06.09,0v0s0-.14,0-.17a.69.69,0,0,0-.05-.13s0,0,0,0M.12,18v0s0,0,0,0v-.1l0,0v0h0a.06.06,0,0,0,0,0s0,0,0,0m.59,1.15s0-.06,0-.09l.05.06,0,0m.74.54h0a.24.24,0,0,1-.09-.15l.12.07a.67.67,0,0,0,.06.12.18.18,0,0,1-.07,0M2,19.8l-.18,0a.28.28,0,0,1,0-.08l.08,0v0H2s0,0,0,0m.33,0s0,0,0,0,0,0-.06,0h.08m.75,0a.28.28,0,0,0-.16,0s0,0-.05,0a.23.23,0,0,1-.17-.06,2.57,2.57,0,0,0,.48-.11h0c-.08,0-.15.05-.16.07a.15.15,0,0,1,.09,0l0,0s.07-.05.15-.06,0,0,0,.08a.14.14,0,0,1-.13,0m.15,0h0m.59-.48,0,0h0Z"/><path class="cls-2" d="M37.51,12.12c0-.1.16-.09.16,0,.08,1.44.79,2.34,2.06,2.34a1.76,1.76,0,0,0,2-1.73c0-1.23-.78-1.75-2.13-2.44a3,3,0,0,1-2-2.82,2.36,2.36,0,0,1,2.66-2.28,4.55,4.55,0,0,1,1.36.19.69.69,0,0,1,.52.84c0,.21-.11.79-.14,1.1,0,.12-.16.08-.16,0a1.76,1.76,0,0,0-1.76-1.78,1.51,1.51,0,0,0-1.68,1.6A2.41,2.41,0,0,0,40,9.26c1.84.94,2.6,1.72,2.55,3.13s-1.27,2.43-2.93,2.43A4.17,4.17,0,0,1,38,14.51a1,1,0,0,1-.6-.8,5.52,5.52,0,0,1,.13-1.59"/><path class="cls-2" d="M48.72,12.94c0,1.26.16,1.42,1,1.5a.08.08,0,1,1,0,.16c-.53,0-1.14,0-1.57,0s-1,0-1.52,0a.08.08,0,1,1,0-.16c.72-.11.91-.2.94-1.5,0-.5,0-2.16,0-2.67,0-1.15,0-2.58,0-3.08,0-1.54-.28-1.54-.94-1.63-.11,0-.14-.16,0-.16.4,0,1.09,0,1.52,0l1.35,0c.12,0,.1.14,0,.16-.64.12-.81.13-.84,1.63,0,.44,0,2,0,3.07,0,.52,0,2.18,0,2.68"/><path class="cls-2" d="M57,10.46c-.59.92-1.38,2.29-1.79,3.06-.33.6-.34.83.44.92.11,0,.14.16,0,.16-.44,0-1,0-1.32,0s-.87,0-1.39,0c-.1,0-.1-.15,0-.16a1.65,1.65,0,0,0,1.38-.86c.75-1.06,1.66-2.41,2.4-3.57C56,8.76,55.1,7.37,54.45,6.39c-.41-.62-.6-.77-1.18-.83-.11,0-.14-.16,0-.16.46,0,1,0,1.39,0s1,0,1.51,0c.13,0,.1.16,0,.16-.67.07-.67.29-.41.77.45.84,1,1.82,1.61,2.84.55-.88,1.07-1.79,1.48-2.62s.33-.9-.2-1c-.11,0-.14-.16,0-.16l1.27,0L61,5.4a.08.08,0,1,1,0,.16c-.43.06-.71.09-1.24.86C59,7.54,58.23,8.67,57.67,9.59c.74,1.18,1.89,3,2.59,4,.43.6.71.78,1.2.83a.08.08,0,1,1,0,.16c-.47,0-1,0-1.39,0s-.88,0-1.41,0a.08.08,0,1,1,0-.16c.58-.06.56-.3.3-.78-.39-.69-1.25-2-1.93-3.2"/><path class="cls-2" d="M70.85,12.12c0-.1.16-.09.16,0,.08,1.44.79,2.34,2.06,2.34a1.76,1.76,0,0,0,2-1.73c0-1.23-.78-1.75-2.13-2.44a3,3,0,0,1-2-2.82A2.36,2.36,0,0,1,73.6,5.19,4.58,4.58,0,0,1,75,5.38a.69.69,0,0,1,.52.84c0,.21-.11.79-.14,1.1,0,.12-.16.08-.16,0a1.76,1.76,0,0,0-1.76-1.78,1.51,1.51,0,0,0-1.68,1.6,2.41,2.41,0,0,0,1.63,2.12c1.84.94,2.6,1.72,2.55,3.13S74.66,14.82,73,14.82a4.17,4.17,0,0,1-1.68-.31,1,1,0,0,1-.6-.8,5.52,5.52,0,0,1,.13-1.59"/><path class="cls-2" d="M82,13.16c0,.89.21.93,1,.95h1.25c1.24,0,1.48-.82,1.66-1.75,0-.1.18-.12.18,0A12.33,12.33,0,0,1,86,14.17c-.06.32-.31.44-.87.44-.74,0-2.09-.06-3.5-.06L80,14.6a.08.08,0,0,1,0-.16c.79-.09,1-.23,1-1.5,0-1,0-2.08,0-3.13s0-1.7,0-2.64c0-1.22,0-1.49-1-1.61-.1,0-.13-.16,0-.16.49,0,1.25,0,1.73,0,.94,0,2.33,0,3.12,0,.43,0,.66,0,.63.37s-.09.91-.16,1.42c0,.1-.19.1-.18,0,0-.74-.25-1.23-1-1.29a19.08,19.08,0,0,0-2-.05c0,1.24,0,2.36,0,3.71a23.23,23.23,0,0,0,2.48,0c.43,0,.41-.16.52-.14s0,.07,0,.37a5.15,5.15,0,0,1-.15.9c0,.1-.17.1-.17,0,0-.59-.37-.59-1-.62-.27,0-1.2,0-1.68,0,0,.72,0,2.18,0,3.11"/><path class="cls-2" d="M98.77,14.44c0,.26,0,.31,0,.32s-.12,0-.33-.25c-1-1.08-1.94-2.17-3.75-4-1.42-1.44-2.56-2.62-3.18-3.2,0,1.14,0,4,.13,6,0,.59.28,1,1.19,1.07.1,0,.13.16,0,.16l-1.57,0c-.25,0-.77,0-1.17,0a.08.08,0,1,1,0-.16c.53-.11.72-.24.78-1,.12-1.64.15-4,.15-5.21,0-.81,0-1.78,0-2.64,0-.22,0-.28,0-.3s.11,0,.31.24c1.1,1.21,2.3,2.49,3.78,4,1.29,1.29,2.37,2.4,3.18,3.14,0-1.75,0-3.66-.08-5.72-.06-1.08-.18-1.24-1-1.36a.08.08,0,1,1,0-.16l1.35,0,1.11,0c.12,0,.09.16,0,.16-.56.09-.71.49-.74,1.17-.09,2.28-.15,4.46-.15,7.71"/><path class="cls-2" d="M104.16,12.12c0-.1.16-.09.16,0,.08,1.44.79,2.34,2.06,2.34a1.76,1.76,0,0,0,2-1.73c0-1.23-.78-1.75-2.13-2.44a3,3,0,0,1-2-2.82,2.36,2.36,0,0,1,2.65-2.28,4.58,4.58,0,0,1,1.37.19.69.69,0,0,1,.52.84c0,.21-.11.79-.14,1.1,0,.12-.16.08-.16,0a1.76,1.76,0,0,0-1.76-1.78,1.51,1.51,0,0,0-1.68,1.6,2.41,2.41,0,0,0,1.63,2.12c1.84.94,2.6,1.72,2.55,3.13s-1.27,2.43-2.93,2.43a4.17,4.17,0,0,1-1.68-.31,1,1,0,0,1-.6-.8,5.52,5.52,0,0,1,.13-1.59"/><path class="cls-2" d="M115.34,13.16c0,.89.2.93,1,.95h1.25c1.24,0,1.48-.82,1.66-1.75,0-.1.18-.12.18,0a12.33,12.33,0,0,1-.08,1.81c-.06.32-.31.44-.87.44-.74,0-2.09-.06-3.5-.06l-1.67,0a.08.08,0,1,1,0-.16c.78-.09.94-.23,1-1.5,0-1,0-2.08,0-3.13s0-1.7,0-2.64c0-1.22,0-1.49-1-1.61-.1,0-.13-.16,0-.16.49,0,1.25,0,1.74,0,.93,0,2.32,0,3.11,0,.43,0,.66,0,.63.37s-.08.91-.16,1.42c0,.1-.19.1-.18,0,0-.74-.25-1.23-1-1.29a19.34,19.34,0,0,0-2.05-.05c0,1.24,0,2.36,0,3.71a23,23,0,0,0,2.47,0c.43,0,.42-.16.52-.14s0,.07,0,.37a6.33,6.33,0,0,1-.15.9c0,.1-.18.1-.18,0,0-.59-.37-.59-1-.62-.27,0-1.2,0-1.67,0,0,.72,0,2.18,0,3.11"/><path class="cls-2" d="M123.59,12.12c0-.11.17-.09.17,0,.07,1.43.78,2.34,2.06,2.34a1.78,1.78,0,0,0,2-1.74c0-1.23-.79-1.74-2.14-2.44a3.05,3.05,0,0,1-2-2.82,2.35,2.35,0,0,1,2.65-2.28,4.44,4.44,0,0,1,1.36.19.7.7,0,0,1,.52.85c0,.21-.1.78-.13,1.09a.08.08,0,0,1-.16,0,1.77,1.77,0,0,0-1.77-1.77,1.5,1.5,0,0,0-1.67,1.6,2.41,2.41,0,0,0,1.63,2.12c1.83.93,2.59,1.72,2.55,3.12s-1.28,2.43-2.94,2.43a4,4,0,0,1-1.67-.31,1,1,0,0,1-.61-.8,5.82,5.82,0,0,1,.13-1.58"/><path class="cls-3" d="M245.92,5.66a.8.8,0,0,1,.6.86c0,.46-.08,1-.11,1.54a.1.1,0,0,1-.19,0c-.16-1.72-1.44-2.4-2.95-2.4-2.42,0-4,1.47-3.89,4.39.08,3.15,2,4.43,4.14,4.43,1.91,0,2.64-.9,2.85-2.33a.1.1,0,0,1,.19,0c0,.34,0,.77,0,1,0,1.06-.26,1.14-.75,1.36a6,6,0,0,1-2.35.37c-3.27,0-5.28-1.87-5.28-4.7,0-3,1.91-4.94,5.13-4.94A7.33,7.33,0,0,1,245.92,5.66Z"/><path class="cls-3" d="M253.91,14.89c-2.83,0-4.8-1.54-4.92-4.59a4.81,4.81,0,0,1,5.13-5,4.52,4.52,0,0,1,4.69,4.64A4.82,4.82,0,0,1,253.91,14.89Zm-3.72-4.83c0,2.61,1.46,4.45,3.8,4.45a3.61,3.61,0,0,0,3.66-3.94c0-2.44-1.24-4.94-4.08-4.87C251.29,5.76,250.19,7.53,250.19,10.06Z"/><path class="cls-3" d="M266.18,14.91c-2.88,0-3.9-1.32-3.9-4.33,0-1.25,0-2.82,0-3.32,0-1.47-.28-1.53-1.1-1.62-.1,0-.11-.16,0-.16.46,0,1.18,0,1.59,0l1.45,0c.12,0,.11.15,0,.16-.63.09-.81.18-.86,1.62,0,.44,0,2,0,3.25,0,2.38.43,4,2.9,4s2.92-2,2.92-4.16c0-.63,0-2.13,0-3.53,0-1-.27-1.11-.89-1.17a.08.08,0,1,1,0-.16l1.27,0,1.19,0a.08.08,0,1,1,0,.16c-.55.06-.74.33-.77,1.17,0,1.13-.05,2.61-.05,3.44C269.88,13.1,268.85,14.91,266.18,14.91Z"/><path class="cls-3" d="M274.51,9.81c0-1.1,0-1.84,0-3,0-.83-.27-1.11-1-1.19a.08.08,0,1,1,0-.16c.34,0,1.08,0,1.45,0s1.23-.07,1.86,0c2.59,0,2.93,1.54,2.93,2.43A2.75,2.75,0,0,1,278,10.42c.22.35.76,1.15,1.41,2a9.89,9.89,0,0,0,1.68,1.78,1.92,1.92,0,0,0,1.06.35.09.09,0,1,1,0,.17,7.27,7.27,0,0,1-1.39,0c-1-.17-1.45-.6-2.66-2.31-.46-.65-.8-1.17-1.09-1.66a6.43,6.43,0,0,1-1.52,0c0,1,0,1.82,0,2.25,0,1.4.18,1.52,1,1.6.12,0,.15.17,0,.17-.56,0-1.24-.08-1.54-.08s-1,.06-1.53.08c-.13,0-.1-.17,0-.17.77-.1.95-.13,1-1.58C274.52,11.87,274.51,10.86,274.51,9.81Zm2.16-3.94a11.2,11.2,0,0,0-1.14,0c0,.89,0,1.69,0,4.35a6.55,6.55,0,0,0,1.8.05c.95-.09,1.35-1.06,1.35-2C278.66,6.92,278.07,6,276.67,5.87Z"/><path class="cls-3" d="M291.07,5.66a.79.79,0,0,1,.59.86c0,.46-.07,1-.1,1.54,0,.12-.2.1-.2,0-.16-1.72-1.43-2.4-2.94-2.4-2.42,0-4,1.47-3.89,4.39.07,3.15,2,4.43,4.14,4.43,1.91,0,2.63-.9,2.84-2.33,0-.12.2-.13.2,0,0,.34,0,.77,0,1,0,1.06-.25,1.14-.74,1.36a6.11,6.11,0,0,1-2.36.37c-3.26,0-5.28-1.87-5.28-4.7,0-3,1.92-4.94,5.13-4.94A7.38,7.38,0,0,1,291.07,5.66Z"/><path class="cls-3" d="M303.89,14.52a.09.09,0,1,1,0,.17c-.47,0-1,0-1.42,0s-1,0-1.5,0c-.12,0-.1-.17,0-.17.74,0,.85-.32.88-1.63,0-.49,0-2.16,0-2.74H299.3c-.91,0-1.78,0-2.69,0,0,.59,0,2.22,0,2.71,0,1.31.16,1.58.91,1.63.1,0,.12.17,0,.17-.45,0-1,0-1.46,0s-1.08,0-1.46,0c-.12,0-.09-.17,0-.17.87-.11.87-.37.92-1.63,0-.5,0-2,0-2.53,0-1.16,0-2.61,0-3.12-.05-1.26-.08-1.48-.95-1.6-.12,0-.12-.16,0-.16.38,0,1,0,1.51,0s1,0,1.41,0a.08.08,0,1,1,0,.16c-.74.06-.85.3-.88,1.6,0,.38,0,1.4,0,2.41l2.7,0c.86,0,1.72,0,2.57,0,0-1.06,0-1.93,0-2.38,0-1.27-.17-1.57-.91-1.63a.08.08,0,1,1,0-.16c.49,0,1,0,1.49,0s1,0,1.43,0a.08.08,0,0,1,0,.16C303,5.76,303,6,303,7.27c0,.35-.05,2-.05,2.66s0,2.31.05,3C303,14.15,303,14.41,303.89,14.52Z"/><path class="cls-3" d="M309,13.25c0,.89.2.93,1,.95.62,0,.87,0,1.24,0,1.25,0,1.48-.82,1.66-1.75,0-.1.18-.12.18,0a12.33,12.33,0,0,1-.08,1.81c-.05.32-.3.44-.87.44-.74,0-2.09-.06-3.5-.06l-1.67,0a.09.09,0,1,1,0-.17c.78-.08.95-.22,1-1.49,0-1,0-2.08,0-3.13s0-1.71,0-2.64c0-1.23,0-1.5-1-1.62-.1,0-.13-.16,0-.16.49,0,1.25,0,1.74,0,.93,0,2.32,0,3.11,0,.43,0,.67,0,.64.37s-.09.92-.16,1.42c0,.11-.2.11-.18,0,0-.74-.26-1.23-1-1.29a17.1,17.1,0,0,0-2.05,0c0,1.23,0,2.36,0,3.71a23,23,0,0,0,2.47,0c.43,0,.42-.16.52-.15s0,.08,0,.37a6.27,6.27,0,0,1-.15.91c0,.1-.18.1-.18,0,0-.6-.37-.6-1-.62-.26,0-1.2,0-1.67,0C309,10.86,309,12.32,309,13.25Z"/><path class="cls-3" d="M317.32,9.77c-.57-1.32-1-2.26-1.48-3.31a1.11,1.11,0,0,0-1.08-.82.08.08,0,1,1,0-.16l1.41,0c.5,0,1.19,0,1.61,0,.15,0,.11.16,0,.16-.72.06-.88.3-.71.77.36,1,.74,1.86,1.26,3.07.4.94,1,2.32,1.63,3.65.46-1.08,1-2.46,1.47-3.75.37-1,.68-1.85.94-2.73s.17-1-.46-1a.08.08,0,1,1,0-.16l1.18,0c.3,0,.7,0,1.13,0,.15,0,.1.16,0,.16-.47.05-.76.37-1.14,1.25-.55,1.2-.8,1.85-1.2,2.82-1,2.41-1.86,4.52-2.05,5,0,.12-.09.15-.13.15s-.1-.05-.15-.15C318.85,13.18,318.18,11.74,317.32,9.77Z"/><path class="cls-3" d="M328.46,13.25c0,.89.21.93,1,.95s.87,0,1.24,0c1.25,0,1.49-.82,1.66-1.75,0-.1.18-.12.18,0a14.08,14.08,0,0,1-.07,1.81c-.06.32-.31.44-.88.44-.74,0-2.09-.06-3.5-.06l-1.67,0a.09.09,0,1,1,0-.17c.78-.08,1-.22,1-1.49,0-1,0-2.08,0-3.13s0-1.71,0-2.64c0-1.23-.05-1.5-1-1.62-.1,0-.13-.16,0-.16.49,0,1.25,0,1.74,0,.93,0,2.33,0,3.11,0,.43,0,.67,0,.64.37s-.09.92-.16,1.42c0,.11-.2.11-.18,0,0-.74-.25-1.23-1-1.29a17.1,17.1,0,0,0-2.05,0c0,1.23,0,2.36,0,3.71a23.23,23.23,0,0,0,2.48,0c.43,0,.41-.16.52-.15s0,.08,0,.37a5.13,5.13,0,0,1-.15.91c0,.1-.18.1-.18,0,0-.6-.37-.6-1-.62-.26,0-1.2,0-1.67,0C328.41,10.86,328.43,12.32,328.46,13.25Z"/><path class="cls-3" d="M341.37,12.45c0-.1.18-.13.18,0a16.17,16.17,0,0,1-.07,1.81c-.06.32-.31.44-.88.44s-1.7-.06-3.59-.06c-.38,0-1.12,0-1.61,0-.15,0-.11-.17,0-.17.78-.08.89-.28.92-1.49,0-.94,0-2.17,0-2.67,0-1.16,0-2.67,0-3.17,0-1.22-.12-1.43-.92-1.55-.12,0-.12-.16,0-.16.46,0,1.05,0,1.48,0s1.05,0,1.37,0c.14,0,.11.15,0,.16-.66.09-.82.28-.84,1.49l0,2.87c0,1.07,0,2.45,0,3.19,0,.93,0,1,.94,1,.71,0,1.08,0,1.33,0C340.93,14.15,341.2,13.38,341.37,12.45Z"/><path class="cls-4" d="M137.71,9.81c0-1.1,0-1.84,0-3,0-.83-.27-1.11-1-1.19a.08.08,0,1,1,0-.16c.35,0,1.09,0,1.46,0s1.23-.07,1.85-.06c2.6.06,2.94,1.55,2.94,2.44a2.77,2.77,0,0,1-1.66,2.52,23.94,23.94,0,0,0,1.4,2,10.26,10.26,0,0,0,1.68,1.78,2,2,0,0,0,1.07.35.09.09,0,1,1,0,.17,7.38,7.38,0,0,1-1.4,0c-1-.17-1.45-.6-2.65-2.31-.46-.65-.8-1.17-1.1-1.66a6.35,6.35,0,0,1-1.51,0c0,1,0,1.82,0,2.25,0,1.4.18,1.52,1,1.6.12,0,.15.17,0,.17-.57,0-1.25-.08-1.54-.08s-1,.06-1.53.08a.09.09,0,1,1,0-.17c.77-.1.95-.13,1-1.58C137.73,11.87,137.71,10.86,137.71,9.81Zm2.17-3.95c-.39,0-.85,0-1.14,0,0,.89,0,1.69,0,4.34a6.09,6.09,0,0,0,1.79.06c1-.08,1.35-1.06,1.35-2A2.08,2.08,0,0,0,139.88,5.86Z"/><path class="cls-4" d="M148.93,13.25c0,.89.21.93,1,.95s.88,0,1.25,0c1.25,0,1.48-.82,1.66-1.75,0-.11.18-.12.18,0a12.33,12.33,0,0,1-.08,1.81c-.06.32-.31.44-.87.44-.74,0-2.09-.06-3.5-.06l-1.68,0c-.11,0-.1-.17,0-.17.79-.08.95-.22,1-1.49,0-1,0-2.08,0-3.13s0-1.71,0-2.64c0-1.23,0-1.5-1-1.62-.1,0-.13-.16,0-.16.49,0,1.25,0,1.73,0,.94,0,2.33,0,3.12,0,.43,0,.67,0,.64.37s-.09.92-.17,1.42c0,.11-.19.11-.17,0,0-.74-.26-1.23-1-1.29a17.1,17.1,0,0,0-2.05,0c0,1.23,0,2.36,0,3.71a23,23,0,0,0,2.47,0c.43,0,.42-.16.52-.15s0,.08,0,.37a6.27,6.27,0,0,1-.15.91c0,.1-.18.1-.18,0,0-.59-.37-.59-1-.62-.27,0-1.2,0-1.67,0C148.89,10.86,148.91,12.31,148.93,13.25Z"/><path class="cls-4" d="M156.2,12.21c0-.1.16-.09.16,0,.08,1.44.79,2.34,2.06,2.34a1.77,1.77,0,0,0,2-1.73c0-1.23-.79-1.75-2.14-2.45a3,3,0,0,1-2-2.81A2.36,2.36,0,0,1,159,5.27a4.91,4.91,0,0,1,1.36.19.7.7,0,0,1,.52.85c0,.21-.1.79-.13,1.1,0,.12-.17.07-.17,0a1.76,1.76,0,0,0-1.76-1.78,1.51,1.51,0,0,0-1.68,1.6,2.42,2.42,0,0,0,1.63,2.12c1.84.93,2.6,1.72,2.56,3.13s-1.28,2.43-2.94,2.43a4.17,4.17,0,0,1-1.68-.31,1,1,0,0,1-.6-.8A5.52,5.52,0,0,1,156.2,12.21Z"/><path class="cls-4" d="M166.41,13c.05,1.26.17,1.42,1,1.49a.09.09,0,1,1,0,.17c-.53,0-1.14,0-1.57,0s-1,0-1.53,0c-.12,0-.1-.17,0-.17.73-.1.92-.19,1-1.49,0-.51,0-2.17,0-2.67,0-1.16,0-2.58,0-3.09,0-1.54-.28-1.54-1-1.63-.1,0-.13-.16,0-.16.4,0,1.1,0,1.53,0l1.35,0c.12,0,.1.15,0,.16-.64.12-.82.14-.85,1.63,0,.45,0,2.05,0,3.07C166.37,10.86,166.4,12.52,166.41,13Z"/><path class="cls-4" d="M174.62,14.78c-1.18,0-2.13-.14-2.66-.14l-1.74,0c-.12,0-.1-.15,0-.17,1.19-.11,1.17-.46,1.22-2,0-.51,0-2.14,0-2.64,0-1.16,0-2.33,0-2.83,0-1.1-.3-1.35-1.09-1.43a.08.08,0,0,1,0-.16l1.56,0,2.55,0c3.32,0,5.18,1.7,5.18,4.6A4.66,4.66,0,0,1,174.62,14.78Zm-.11-8.87a17.08,17.08,0,0,0-2,0v4.76c0,1.5.05,2.54.06,3,0,.31,0,.39.3.49a5.1,5.1,0,0,0,1.78.25c2.61,0,3.84-1.88,3.84-4.22A3.94,3.94,0,0,0,174.51,5.91Z"/><path class="cls-4" d="M184.48,13.25c0,.89.21.93,1,.95s.88,0,1.25,0c1.24,0,1.48-.82,1.66-1.75,0-.11.18-.12.18,0a12.33,12.33,0,0,1-.08,1.81c-.06.32-.31.44-.87.44-.74,0-2.09-.06-3.5-.06l-1.68,0c-.12,0-.1-.17,0-.17.79-.08,1-.22,1-1.49,0-1,0-2.08,0-3.13s0-1.71,0-2.64c0-1.23,0-1.5-1-1.62-.11,0-.14-.16,0-.16.49,0,1.24,0,1.73,0,.94,0,2.33,0,3.12,0,.43,0,.66,0,.63.37s-.08.92-.16,1.42c0,.11-.19.11-.18,0,0-.74-.25-1.23-1-1.29a16.88,16.88,0,0,0-2,0c0,1.23,0,2.36,0,3.71a23.23,23.23,0,0,0,2.48,0c.43,0,.42-.16.52-.15s0,.08,0,.37a6.58,6.58,0,0,1-.14.91c0,.1-.18.1-.18,0,0-.59-.37-.59-1-.62-.27,0-1.2,0-1.68,0C184.44,10.86,184.45,12.31,184.48,13.25Z"/><path class="cls-4" d="M200.24,14.52c0,.27,0,.32,0,.33s-.12,0-.33-.25c-1-1.08-1.94-2.17-3.75-4-1.42-1.44-2.56-2.62-3.19-3.2,0,1.14,0,4,.14,6.05,0,.59.28,1,1.18,1.06a.09.09,0,1,1,0,.17l-1.57,0c-.25,0-.77,0-1.17,0-.12,0-.1-.17,0-.17.53-.1.73-.23.79-1,.11-1.65.14-4,.14-5.22,0-.8,0-1.78,0-2.64,0-.22,0-.28.06-.29s.1,0,.31.23c1.1,1.22,2.3,2.49,3.78,4,1.29,1.29,2.37,2.4,3.17,3.14,0-1.75,0-3.66-.07-5.72-.06-1.09-.18-1.25-1-1.37a.08.08,0,1,1,0-.16l1.35,0,1.11,0c.12,0,.09.16,0,.16-.56.09-.71.49-.74,1.17C200.3,9.1,200.24,11.28,200.24,14.52Z"/><path class="cls-4" d="M211.74,5.66a.79.79,0,0,1,.59.86c0,.46-.08,1-.11,1.54a.1.1,0,0,1-.19,0c-.16-1.72-1.44-2.4-2.95-2.4-2.42,0-4,1.47-3.88,4.39.07,3.16,2,4.43,4.13,4.43,1.92,0,2.64-.9,2.85-2.33a.1.1,0,0,1,.19,0c0,.34,0,.77,0,1,0,1.06-.25,1.14-.74,1.36a6.11,6.11,0,0,1-2.36.37C206,14.91,204,13,204,10.21c0-3,1.91-4.94,5.13-4.94A7.42,7.42,0,0,1,211.74,5.66Z"/><path class="cls-4" d="M217.34,13.25c0,.89.21.93,1,.95s.87,0,1.24,0c1.25,0,1.49-.82,1.66-1.75,0-.11.18-.12.18,0a14.08,14.08,0,0,1-.07,1.81c-.06.32-.31.44-.88.44-.74,0-2.09-.06-3.5-.06l-1.67,0a.09.09,0,1,1,0-.17c.78-.08.95-.22,1-1.49,0-1,0-2.08,0-3.13s0-1.71,0-2.64c0-1.23,0-1.5-1-1.62-.1,0-.13-.16,0-.16.49,0,1.25,0,1.74,0,.93,0,2.33,0,3.11,0,.43,0,.67,0,.64.37s-.09.92-.16,1.42c0,.11-.2.11-.18,0,0-.74-.25-1.23-1-1.29a17.1,17.1,0,0,0-2.05,0c0,1.23,0,2.36,0,3.71a23.23,23.23,0,0,0,2.48,0c.43,0,.41-.16.52-.15s0,.08,0,.37a5.13,5.13,0,0,1-.15.91c0,.1-.18.1-.18,0,0-.59-.37-.59-1-.62-.26,0-1.2,0-1.67,0C217.29,10.86,217.31,12.31,217.34,13.25Z"/><path class="cls-4" d="M224.6,12.21c0-.1.16-.09.16,0,.08,1.44.79,2.34,2.07,2.34a1.77,1.77,0,0,0,2-1.73c0-1.23-.79-1.75-2.14-2.45a3.07,3.07,0,0,1-2-2.81,2.36,2.36,0,0,1,2.66-2.29,4.78,4.78,0,0,1,1.36.19.7.7,0,0,1,.52.85c0,.21-.1.79-.13,1.1a.08.08,0,0,1-.16,0,1.77,1.77,0,0,0-1.77-1.78,1.5,1.5,0,0,0-1.67,1.6,2.41,2.41,0,0,0,1.63,2.12c1.84.93,2.59,1.72,2.55,3.13s-1.28,2.43-2.94,2.43a4.11,4.11,0,0,1-1.67-.31,1,1,0,0,1-.61-.8A5.52,5.52,0,0,1,224.6,12.21Z"/></svg>