<svg id="Layer_1" data-name="Layer 1" xmlns="http://www.w3.org/2000/svg" viewBox="0 0 344.61 20"><defs><style>.cls-1{fill:#673065;}.cls-2{isolation:isolate;}.cls-3{fill:#666;}</style></defs><title>Artboard 1</title><path class="cls-1" d="M26.14,17.78v-.65s0-.21-.11-.17,0-.06,0,0a.74.74,0,0,1,0-.21l-.07-.2a.26.26,0,0,0-.14-.19c-.05,0,0,0,0-.06h.05a.41.41,0,0,0-.05-.09h0a.24.24,0,0,1,0-.12h0c-.05-.13,0-.09,0-.1v0a.18.18,0,0,0-.05-.07h.05a3,3,0,0,0-.57-.49s-.16-.1-.17,0H25c-.07,0-.06-.09,0,0h-.3A2.57,2.57,0,0,0,22,16.67H22a3,3,0,0,1,.91-1.53s-.06,0-.09,0h0s-.22,0-.25.08,0,0,0,.07,0-.08-.11,0h0s-.05.15-.1.16-.11.17-.16.13c-.09.12-.06,0-.14.15s-.05.09-.1.08L21.8,16h0a1.41,1.41,0,0,0-.14.17h0s-.06,0-.07.09-.09,0-.14.05h0s-.06.11-.12.2h0s0,.14-.06.08a1.87,1.87,0,0,1-.08.32.53.53,0,0,0,0,.25v.1a1.34,1.34,0,0,0-.07.18h.07a.22.22,0,0,0-.05.08.17.17,0,0,0,0,.1c-.06,0,0,.15-.06.18s0,.09.06.11a0,0,0,0,0,0,.05h0a.14.14,0,0,0,0,.09.09.09,0,0,1,0,.07.48.48,0,0,1,.05.17.25.25,0,0,0,.08.18h0a1,1,0,0,1,.13.24l.09.17.1.16c0,.05.09.1.13.1s.09.08.12.12l.1.1.11.08h0l.18.14.09.07h0a.17.17,0,0,0,.14,0h.07c-.08-.05,0,0,0-.05h0s.11.05.13.09.11,0,.17,0,.15,0,.1.08,0,0,.07,0a.46.46,0,0,1-.19-.08h0a.51.51,0,0,1-.18-.09c.05,0-.05,0,0,0h0l.24.08h.2s.09.07.06.09,0,0,.1,0h0s.09-.11,0-.13a.09.09,0,0,1-.1,0,2.32,2.32,0,0,0,2-.66l.09-.11v.08s.09-.1.14-.1l.06-.14h0a2.86,2.86,0,0,1,.22-.47,1.38,1.38,0,0,0,.14-.49h0v-.19h0M21,17.13H21l.06-.06v.07m.1,1v-.09a.34.34,0,0,1,.05-.17v.27m.29-2.31h0l.07-.07m0,2.72-.15-.1s0-.05.07-.06v.13h0m.22.25v-.08l.07.08m.63.49H22.3a.47.47,0,0,1,.15.06v.07a.15.15,0,0,1-.11-.08.29.29,0,0,0-.11-.11s0,.05-.06,0a.26.26,0,0,1-.09-.16,2.73,2.73,0,0,0,.43.26.46.46,0,0,0-.16-.07.16.16,0,0,1,.08.06m.82.24h0m2.4-3.63h0"/><path class="cls-1" d="M20.26,10.17V10a.38.38,0,0,1,0-.15V9.67h0a1,1,0,0,0,0-.24V9.25a.35.35,0,0,0-.06-.14V9s0,0-.06,0V9h0V8.84h0A.39.39,0,0,0,20,8.73c-.06,0-.08-.13,0-.12h-.07A.44.44,0,0,1,20,8.8H20s.08.09.08.13V8.87A.28.28,0,0,1,20,9h0l-.12-.22a.91.91,0,0,0-.11-.16V8.51l-.07-.06c-.07-.06.06,0,.08,0a.09.09,0,0,1,0-.07c-.06,0-.14,0-.12.07a.16.16,0,0,1,.06.08,2.4,2.4,0,0,0-.94-.73h-.06a2.57,2.57,0,0,0-2.53,1.36h-.06A3.24,3.24,0,0,1,17,7.67a1.28,1.28,0,0,0-.45.23h-.09l-.18.1h0a4.34,4.34,0,0,1-.35.33c-.12.09,0,0,0,.06s0,0-.06,0-.07.07-.06,0-.12.17,0,.2-.06,0,0,0-.08.12-.13.17,0,.1-.09.19a.59.59,0,0,0,0,.23h0v.15c0,.05,0,.07-.06.11s0-.12,0,0a.12.12,0,0,0,0,.1h0v.09a2.78,2.78,0,0,0,0,.76s0,.17.09.14,0,0,0,.06,0,.1-.07,0v.28a1,1,0,0,1,.12.23c0,.14.18.25.19.28a.43.43,0,0,0,.14.23h0a.19.19,0,0,0,.09.14l.11.11a.14.14,0,0,1,.11.07c0,.07.1.11.15.08s.1.11.13.14.15.06.21.09h0s.2.13.24.12h0c.05,0,0,.08.09.08h0s.15-.08.18,0h.8a.07.07,0,0,0,.1,0h0s0,.1.14.07h.22s.11-.1.1,0,.2-.11.29-.17a.55.55,0,0,0,.19-.15.11.11,0,0,0,.09-.06c.1,0,.07,0,.18-.08-.05,0,0,0,0-.06h.09a.27.27,0,0,0,.07-.08h0l.16-.09a.09.09,0,0,0,.05-.11h0L20,11.6h0a.06.06,0,0,1,0-.06.42.42,0,0,1,.09-.16.24.24,0,0,0,.07-.18h0s0-.21.08-.26a.62.62,0,0,0,.07-.19.61.61,0,0,1,0-.19v-.15m-4.9-.8h0m2.88,2.94H18.2M19.27,12h0M20,9.44ZM19.94,11a.24.24,0,0,1-.15.09.75.75,0,0,0,.07-.12l.13-.06-.06.06m.08-.4v0h0m.07-.42v0m0-.45a2.73,2.73,0,0,0-.1-.48.77.77,0,0,0,.07.16v0A.18.18,0,0,0,20,9.18c-.06-.07,0-.06.08,0a.15.15,0,0,1,0,.13.22.22,0,0,0,0,.16v0a.27.27,0,0,1-.06.17"/><path class="cls-1" d="M10.76,10.14a1.34,1.34,0,0,0,.07-.18h-.06a.22.22,0,0,1,.05-.08.17.17,0,0,0,0-.1s0-.16,0-.18,0-.09,0-.11V9.44h0V9.36a.09.09,0,0,1,0-.07.34.34,0,0,1-.05-.17.3.3,0,0,0-.08-.18V9s-.12-.17-.14-.24a.56.56,0,0,0-.09-.17l-.1-.16c0-.05-.08-.1-.12-.1s-.09-.08-.13-.12A.56.56,0,0,1,10,8l-.12-.07h0a1.33,1.33,0,0,0-.19-.14l-.09-.07H9.53a.15.15,0,0,0-.13,0H9.33s-.11,0-.13-.09H9c-.06,0-.15,0-.1-.08s0,0-.08,0a.39.39,0,0,1,.15,0H8.89c0,.06.12,0,.15,0H9a.31.31,0,0,1,.18.09H8.7s-.09-.06,0-.08,0,0-.1,0h0s-.09.11,0,.13a.09.09,0,0,1,.1,0,2.35,2.35,0,0,0-2,.66l-.08.11V8.35a.32.32,0,0,1-.14.1.35.35,0,0,0-.06.14h0c-.07.16-.14.32-.22.47A1.52,1.52,0,0,0,6,9.4H6v.19H6v.48h0s0,0,0,.06v.07s0,.21.12.16,0,.07,0,0a.74.74,0,0,1,0,.21.29.29,0,0,0,.08.19.46.46,0,0,0,.13.2c-.06,0,0,0,0,.06l.06.09h0a.13.13,0,0,1,0,.12h0v.1h0v.07a2.74,2.74,0,0,0,.58.49s.15.1.16,0,0,0,.08,0,.06.09-.06,0h.29A2.56,2.56,0,0,0,10,10.69h.06a3.1,3.1,0,0,1-.92,1.53s.06-.05.09-.05h0a1,1,0,0,0,.25-.08s0,0,0-.07,0,.08.11,0,.05-.17.1-.17.11-.17.16-.13c.08-.12.05,0,.14-.15s0-.08.11-.08l.11-.12h0l.15-.17h0s.06,0,.07-.09.09,0,.15,0h0l.12-.18h0s0-.14.06-.08c0-.11.05-.22.08-.33a.49.49,0,0,0,0-.24v-.1Zm-4.52,1ZM9.38,7.79a.46.46,0,0,0,.16.07.16.16,0,0,1-.08-.06h.06a.23.23,0,0,1-.15-.06c-.06-.06,0-.06,0-.07s.09,0,.11.08a.25.25,0,0,0,.12.11h.06A.25.25,0,0,1,9.74,8a2.26,2.26,0,0,0-.42-.26m.68.49v.07c0,.07,0,0-.07-.08m.25,3h0l-.07.07m.06-2.56V8.68l-.05-.07.14.1s0,0-.07.06m.23.52a.29.29,0,0,0,0-.13V9.11a.49.49,0,0,1,0,.17m.1.79V10h.18"/><path class="cls-1" d="M15.49,2.5a.22.22,0,0,0,0-.16V2.06c0-.07,0-.15-.05-.16a.31.31,0,0,0,0-.19.76.76,0,0,0-.08-.21h0a1,1,0,0,0-.08-.25s0,0-.06,0,.07,0,0-.12h0s-.16-.06-.17-.1-.17-.11-.13-.16,0-.06-.14-.14-.08,0-.07-.1l-.06-.1h0a1.41,1.41,0,0,0-.17-.14h0A.07.07,0,0,0,14.4.32V.24H14A2.58,2.58,0,0,0,11.4,1.58h-.05A3.23,3.23,0,0,1,12.16.14h0L12.32,0h-.11A.33.33,0,0,0,12,.11h.05s-.17.12-.23.13a.61.61,0,0,0-.18.09l-.15.11c-.06,0-.1.08-.1.12s-.09.09-.13.12a.52.52,0,0,1-.11.1.41.41,0,0,1-.07.11h0V1h0a1.33,1.33,0,0,0-.14.19.39.39,0,0,0-.08.1h0a.24.24,0,0,0,0,.14v.07c0-.07,0,0,0,0h0s0,.12-.09.14h0v.17c0,.06,0,.15-.07.1s0,0,0,.07a.31.31,0,0,1,.09-.18v0a.51.51,0,0,1,.09-.18c0,.06,0-.05.06,0h0a2.17,2.17,0,0,0-.07.24V2s-.07.09-.09.06,0,0,0,.1V2.08h0s.11.09.13,0a.09.09,0,0,1,0-.1,2.36,2.36,0,0,0,.66,2l.11.09H11.6a.32.32,0,0,1,.1.14l.14.06h0a2.86,2.86,0,0,1,.47.22,1.38,1.38,0,0,0,.49.14h.78s.21,0,.17-.12.06,0,0,0H14l.2-.07a.5.5,0,0,0,.19-.13c0,.06,0,0,.06,0v.05l.09-.06h.17l.07-.06a2.43,2.43,0,0,0,.49-.57s.1-.16,0-.17V3.42c0-.08.09-.06,0,.06l.07-.08c.06,0,.09-.06.11-.14A1.09,1.09,0,0,1,15.48,3c.08-.13,0-.31.07-.33a.39.39,0,0,0,0-.26h0M11.81.29V.35h-.13a.49.49,0,0,1,.11-.14M11.52.6l-.07.06h.07m-.7.68h0m-.09.8h0M11,1.35a.49.49,0,0,0,0-.17.11.11,0,0,1-.06.07V1.19c0-.06,0,.1-.06.16s-.06,0-.07-.05a.2.2,0,0,1,.08-.12A.29.29,0,0,0,11,1.07V1a.25.25,0,0,1,.16-.08,2.26,2.26,0,0,0-.26.42m3.39,3.14Zm0-4.07h0l.07.08h0"/><path class="cls-1" d="M15.39,16.88h0a4.68,4.68,0,0,1-.18-.48A1.31,1.31,0,0,0,15,16h0v-.09h-.09a2.89,2.89,0,0,1-.34-.35c-.08-.12,0,0-.07,0s0,0,0-.06-.07-.06,0-.06-.18-.11-.2,0,0-.06,0-.06a.66.66,0,0,1-.17-.12.72.72,0,0,1-.2-.09.41.41,0,0,0-.22,0h0a.14.14,0,0,1-.11-.06c0-.06.12,0,0,0s-.06-.06-.1,0,.05,0,0,0h-.09a2.76,2.76,0,0,0-.76.07s-.17,0-.14.09,0,.05,0,.05-.11,0,0-.07H12.1a.94.94,0,0,1-.22.12c-.14,0-.24.18-.28.18a.36.36,0,0,0-.23.15h0a.19.19,0,0,0-.14.09l-.11.11a.16.16,0,0,1-.07.12c-.07.05-.1.1-.08.14a.86.86,0,0,0-.13.14c-.07,0-.06.16-.09.22h0s-.13.2-.12.24,0,0,0,0-.07,0-.07.09h0s.07.14,0,.18v1h0v.11a.11.11,0,0,0-.07.14h0v.22h0s.1.11,0,.1.11.19.17.29a.55.55,0,0,0,.16.18s0,.07.05.09,0,.06.08.17c0-.05,0,0,.06,0s0,.06,0,.09a.27.27,0,0,0,.08.07h0a.87.87,0,0,1,.09.17s.07.07.12,0h0l.06.05h.23v-.07l.12.06h.11a2.57,2.57,0,0,0,2.53-1.35h.06a3.4,3.4,0,0,1-.46,1l.18-.09.17-.11h.1s0,0,.06-.08,0,.06,0,.09.06,0,.07,0,0-.15-.07-.13,0,.07-.08.06h0a2.35,2.35,0,0,0,.91-1.85V17.1c0-.05.06.07.09,0a.28.28,0,0,0,0-.16.18.18,0,0,0,0-.14h0m-4.76.89v-.05h0m.59,1.15v0h0m2.31-4.06h0"/><path class="cls-1" d="M4.89,17.08h0c-.07-.16-.11-.32-.17-.49a1.26,1.26,0,0,0-.24-.44h0v-.09H4.39a3.48,3.48,0,0,1-.34-.34c-.08-.11,0,0-.07,0s0,0,0-.06-.07-.07,0-.07-.18-.11-.2,0,0-.06,0,0l-.11-.08H3.31A2.55,2.55,0,0,0,.78,16.66H.73a3,3,0,0,1,.92-1.54.17.17,0,0,0-.14,0,1,1,0,0,1-.23.12c-.14,0-.25.18-.28.19a.31.31,0,0,0-.23.14h0a.19.19,0,0,0-.14.09l-.11.11a.15.15,0,0,1-.07.11c-.07,0-.1.11-.08.15a.86.86,0,0,0-.13.14c-.07,0-.06.16-.09.21h0s-.13.2-.12.23,0,0,0,.06-.07,0-.07.09H0A1.34,1.34,0,0,1,.08,17v.2H0V18H0v.11a.11.11,0,0,0-.07.14h0v.05h0a.53.53,0,0,0,.05.21H0s.1.11,0,.1.11.19.17.28a.58.58,0,0,0,.16.19.11.11,0,0,0,0,.09,1.42,1.42,0,0,0,.08.18s0,0,.06,0v.09a.14.14,0,0,0,.08.07h0a.87.87,0,0,1,.09.17s.07.06.12,0h0l.07.05a.06.06,0,0,1,.06,0,.51.51,0,0,1,.16.09.24.24,0,0,0,.18.07H1.21s.2,0,.26.07l.19.06h.18A.22.22,0,0,0,2,20h.17a.38.38,0,0,1,.15,0h.22a.89.89,0,0,0,.23,0H3A.34.34,0,0,0,3.09,20h.07s0,0,0-.06h.22a.3.3,0,0,0,.11-.13c0,.09.13-.08.12,0s0,0,0-.07-.13.06-.19.08-.1.07-.14.08.07,0,.06-.05a.31.31,0,0,1-.19.06h0a.94.94,0,0,0,.22-.12h0l.17-.11h.1s0,0,.06-.08,0,.07,0,.09.06,0,.07,0,0-.14-.07-.12a.09.09,0,0,1-.08.06,2.35,2.35,0,0,0,.91-1.85v-.14c0-.05.06.06.09,0s0-.14,0-.17a.69.69,0,0,0-.05-.13h0M.12,18h0v-.1h0m.59,1.15V19L.76,19m.74.54a.24.24,0,0,1-.09-.15l.12.07.06.12H1.52m.48.2H1.82v-.08H2m.33,0h0m.75,0a.22.22,0,0,0-.16,0h0a.27.27,0,0,1-.17-.06,2.77,2.77,0,0,0,.48-.11.22.22,0,0,0-.16.07.14.14,0,0,1,.09,0,.38.38,0,0,1,.15-.06c.08,0,0,0,0,.08a.15.15,0,0,1-.13,0"/><g class="cls-2"><g class="cls-2"><path class="cls-3" d="M37.4,13.7a4.6,4.6,0,0,1,0-.82,6.47,6.47,0,0,1,.12-.78s.05-.08.09-.08.07,0,.07.08a2.91,2.91,0,0,0,.59,1.73,1.81,1.81,0,0,0,1.49.63,2.06,2.06,0,0,0,1.5-.5,1.65,1.65,0,0,0,.52-1.25,1.94,1.94,0,0,0-.14-.8,1.83,1.83,0,0,0-.42-.63,3.15,3.15,0,0,0-.68-.53c-.27-.16-.57-.33-.91-.51a5.46,5.46,0,0,1-.77-.47,3.09,3.09,0,0,1-.65-.6,3,3,0,0,1-.44-.78,2.58,2.58,0,0,1-.15-1,2.23,2.23,0,0,1,.74-1.67,2.83,2.83,0,0,1,1.94-.64,5,5,0,0,1,.82.06,3.49,3.49,0,0,1,.56.14.89.89,0,0,1,.42.28.85.85,0,0,1,.1.57c0,.11,0,.28-.06.52s0,.43-.07.59,0,.08-.09.07-.08,0-.08-.07a2.6,2.6,0,0,0-.15-.67A1.83,1.83,0,0,0,41.44,6a1.9,1.9,0,0,0-2.52-.14,1.52,1.52,0,0,0-.47,1.21,1.77,1.77,0,0,0,.48,1.29,4.1,4.1,0,0,0,1.17.85,12.13,12.13,0,0,1,1.19.7,4.09,4.09,0,0,1,.81.7,2.24,2.24,0,0,1,.45.79,3,3,0,0,1,.12,1,2.26,2.26,0,0,1-.25,1,2.42,2.42,0,0,1-.62.77,2.8,2.8,0,0,1-.92.49,3.68,3.68,0,0,1-1.17.17,4.81,4.81,0,0,1-1-.09,5.14,5.14,0,0,1-.69-.22,1.14,1.14,0,0,1-.42-.33A.93.93,0,0,1,37.4,13.7Z"/><path class="cls-3" d="M48.21,10.21c0,.13,0,.32,0,.57s0,.51,0,.79,0,.53,0,.78,0,.44,0,.57a6.52,6.52,0,0,0,.06.77,1.34,1.34,0,0,0,.14.44.53.53,0,0,0,.31.21,2.23,2.23,0,0,0,.53.09.08.08,0,0,1,.09.09c0,.05,0,.08-.09.08l-.83,0-.75,0-.75,0-.8,0c-.06,0-.08,0-.08-.08s0-.09.08-.09a3.23,3.23,0,0,0,.45-.09.61.61,0,0,0,.3-.2,1.07,1.07,0,0,0,.15-.44,6.54,6.54,0,0,0,.06-.78c0-.13,0-.32,0-.57s0-.51,0-.77V8.43c0-.29,0-.55,0-.78s0-.41,0-.54a6,6,0,0,0-.07-.89,1.26,1.26,0,0,0-.17-.47.5.5,0,0,0-.29-.21,3.21,3.21,0,0,0-.43-.07.09.09,0,0,1-.09-.08q0-.09.09-.09h.36l.41,0h1.37l.39,0h.38c.06,0,.09,0,.08.08a.09.09,0,0,1-.08.09,2.58,2.58,0,0,0-.4.1.44.44,0,0,0-.25.2,1.19,1.19,0,0,0-.14.47,7.85,7.85,0,0,0-.06.87c0,.12,0,.29,0,.53s0,.51,0,.8v1.77Z"/><path class="cls-3" d="M58,13.66c-.1-.18-.22-.4-.37-.65s-.32-.51-.49-.8l-.55-.89-.54-.9c-.15.23-.3.49-.47.77l-.5.83-.46.81c-.15.26-.28.49-.38.68a1.1,1.1,0,0,0-.2.66c0,.14.25.23.65.26q.08,0,.09.09c0,.05,0,.08-.09.08l-.71,0-.62,0-.63,0-.78,0c-.05,0-.07,0-.07-.08s0-.07.07-.09a1.81,1.81,0,0,0,.71-.18,2.06,2.06,0,0,0,.68-.68l1.22-1.76c.43-.64.83-1.25,1.21-1.85q-.3-.46-.6-1c-.2-.33-.4-.65-.61-1L54,7.12l-.52-.81c-.11-.16-.2-.29-.28-.39a1.16,1.16,0,0,0-.26-.24,1,1,0,0,0-.28-.14,2.62,2.62,0,0,0-.38-.07.09.09,0,0,1-.09-.08q0-.09.09-.09l.74,0,.67,0,.73,0,.8,0q.11,0,.09.09a.09.09,0,0,1-.09.08q-.51.06-.57.24a.84.84,0,0,0,.15.54l.75,1.37.88,1.5c.28-.45.55-.9.8-1.35s.49-.88.7-1.3A3.54,3.54,0,0,0,58.12,6a.49.49,0,0,0,0-.28A.2.2,0,0,0,58,5.54a1.61,1.61,0,0,0-.31-.07.09.09,0,0,1-.09-.08q0-.09.09-.09H58l.38,0H59l.48,0,.65,0a.08.08,0,0,1,.09.09c0,.05,0,.08-.09.08l-.31,0a.86.86,0,0,0-.29.11,2.12,2.12,0,0,0-.3.26,3.2,3.2,0,0,0-.36.45c-.4.57-.78,1.12-1.15,1.67s-.7,1.06-1,1.53l.63,1L58,11.65l.69,1.06c.23.34.43.64.61.89a2.43,2.43,0,0,0,.58.63,1.15,1.15,0,0,0,.63.2s.08,0,.08.09,0,.08-.08.08l-.74,0-.67,0-.68,0-.74,0c-.06,0-.09,0-.08-.08s0-.09.08-.09c.29,0,.45-.1.47-.23A.83.83,0,0,0,58,13.66Z"/><path class="cls-3" d="M68.67,13.7a4.6,4.6,0,0,1,0-.82,6.47,6.47,0,0,1,.12-.78.11.11,0,0,1,.1-.08s.06,0,.06.08a2.91,2.91,0,0,0,.59,1.73,1.84,1.84,0,0,0,1.49.63,2.06,2.06,0,0,0,1.5-.5,1.65,1.65,0,0,0,.53-1.25,1.94,1.94,0,0,0-.15-.8,1.83,1.83,0,0,0-.42-.63,3.15,3.15,0,0,0-.68-.53c-.27-.16-.57-.33-.91-.51a5.46,5.46,0,0,1-.77-.47,2.82,2.82,0,0,1-.64-.6,2.74,2.74,0,0,1-.45-.78,2.58,2.58,0,0,1-.15-1,2.23,2.23,0,0,1,.74-1.67,2.85,2.85,0,0,1,1.94-.64,5,5,0,0,1,.82.06,3.49,3.49,0,0,1,.56.14.89.89,0,0,1,.42.28.85.85,0,0,1,.1.57c0,.11,0,.28,0,.52s-.06.43-.08.59,0,.08-.09.07-.07,0-.07-.07a2.6,2.6,0,0,0-.15-.67A1.85,1.85,0,0,0,72.71,6a1.81,1.81,0,0,0-.54-.4,1.78,1.78,0,0,0-.76-.15,1.84,1.84,0,0,0-1.22.41,1.52,1.52,0,0,0-.47,1.21,1.77,1.77,0,0,0,.48,1.29,4.1,4.1,0,0,0,1.17.85,12.13,12.13,0,0,1,1.19.7,4.17,4.17,0,0,1,.82.7,2.38,2.38,0,0,1,.44.79,3,3,0,0,1,.12,1,2.39,2.39,0,0,1-.24,1,2.52,2.52,0,0,1-1.55,1.26,3.68,3.68,0,0,1-1.17.17,4.81,4.81,0,0,1-1-.09,5.14,5.14,0,0,1-.69-.22,1.14,1.14,0,0,1-.42-.33A.93.93,0,0,1,68.67,13.7Z"/><path class="cls-3" d="M79.47,10v1.5c0,.29,0,.58,0,.86s0,.55,0,.79a3,3,0,0,0,.06.53.54.54,0,0,0,.15.28.68.68,0,0,0,.3.12,3,3,0,0,0,.48,0h1.25a2.05,2.05,0,0,0,.77-.16,1.31,1.31,0,0,0,.48-.38,1.92,1.92,0,0,0,.26-.56c.06-.21.12-.43.17-.67a.09.09,0,0,1,.1-.08s.08,0,.08.08v.47c0,.18,0,.35,0,.52s0,.33,0,.48a2.39,2.39,0,0,1,0,.36.47.47,0,0,1-.24.35,1.7,1.7,0,0,1-.64.09l-1.51,0c-.63,0-1.3,0-2,0h-.33l-.45,0h-.91c-.06,0-.09,0-.09-.08s0-.09.09-.09a1.78,1.78,0,0,0,.48-.09.48.48,0,0,0,.29-.21,1.13,1.13,0,0,0,.15-.44,6.52,6.52,0,0,0,.06-.77c0-.53,0-1.05,0-1.57V8.45q0-.63,0-1.35c0-.31,0-.56,0-.76a1.4,1.4,0,0,0-.12-.48A.59.59,0,0,0,78,5.6a2.18,2.18,0,0,0-.58-.13.09.09,0,0,1-.09-.08q0-.09.09-.09l.88,0,.87,0h1.63l.82,0h.7a1.61,1.61,0,0,1,.5.06c.11,0,.16.14.14.32s0,.42-.07.67,0,.51-.09.76c0,.06,0,.08-.11.08s-.08,0-.07-.08a1.75,1.75,0,0,0-.24-.91.93.93,0,0,0-.78-.39l-.51,0-.48,0H79.48c0,.63,0,1.24,0,1.82V9.51c.31,0,.69,0,1.13,0s.91,0,1.37,0l.25,0,.14-.05.06-.05h.07s0,0,0,.08,0,.14,0,.29,0,.36-.08.53-.05.3-.07.38a.12.12,0,0,1-.11.08s-.07,0-.07-.08a.75.75,0,0,0-.07-.34.47.47,0,0,0-.19-.18.94.94,0,0,0-.32-.08l-.41,0H79.47Z"/><path class="cls-3" d="M96,6.65,95.9,8.38c0,.57,0,1.17-.05,1.8s0,1.28,0,2,0,1.46,0,2.27v.27a.09.09,0,0,1,0,.06.08.08,0,0,1-.11,0,2.7,2.7,0,0,1-.22-.23l-.74-.83-.83-.91-1-1-1.23-1.25c-.72-.72-1.35-1.37-1.91-1.94s-1-1-1.31-1.29c0,.29,0,.67,0,1.15s0,1,0,1.55,0,1.14,0,1.74,0,1.15.07,1.67a1.17,1.17,0,0,0,.27.72,1.4,1.4,0,0,0,.93.35s.08,0,.09.09,0,.08-.09.08l-.92,0-.67,0-.54,0-.64,0c-.06,0-.09,0-.09-.08s0-.09.09-.09a1,1,0,0,0,.57-.25,1.25,1.25,0,0,0,.22-.75c0-.42.06-.87.08-1.35s0-1,0-1.45,0-.93,0-1.36,0-.8,0-1.11V6.85c0-.46,0-.91,0-1.35V5.27a.1.1,0,0,1,0-.07s0,0,.09,0l.23.21c.56.62,1.15,1.25,1.77,1.91s1.3,1.35,2.05,2.1l1.79,1.8c.53.54,1,1,1.41,1.37V9.85c0-.95,0-2-.07-3,0-.27,0-.49-.07-.66a1,1,0,0,0-.15-.4.81.81,0,0,0-.3-.21,3.21,3.21,0,0,0-.5-.11.07.07,0,0,1-.08-.08c0-.06,0-.09.08-.09h.34l.39,0h.63l.49,0,.63,0c.06,0,.09,0,.08.09a.07.07,0,0,1-.08.08.69.69,0,0,0-.57.37A2,2,0,0,0,96,6.65Z"/><path class="cls-3" d="M100.51,13.7a4.6,4.6,0,0,1,0-.82,6.47,6.47,0,0,1,.12-.78.11.11,0,0,1,.1-.08s.06,0,.06.08a2.91,2.91,0,0,0,.59,1.73,1.84,1.84,0,0,0,1.5.63,2.05,2.05,0,0,0,1.49-.5,1.65,1.65,0,0,0,.53-1.25,1.94,1.94,0,0,0-.15-.8,1.83,1.83,0,0,0-.42-.63,3.15,3.15,0,0,0-.68-.53c-.27-.16-.57-.33-.91-.51a5.46,5.46,0,0,1-.77-.47,2.82,2.82,0,0,1-.64-.6,2.74,2.74,0,0,1-.45-.78,2.58,2.58,0,0,1-.15-1,2.21,2.21,0,0,1,.75-1.67,2.81,2.81,0,0,1,1.93-.64,4.91,4.91,0,0,1,.82.06,3.49,3.49,0,0,1,.56.14.89.89,0,0,1,.42.28.85.85,0,0,1,.1.57,5,5,0,0,1,0,.52c0,.23-.06.43-.08.59s0,.08-.09.07-.07,0-.07-.07a2.6,2.6,0,0,0-.15-.67,1.85,1.85,0,0,0-.34-.58,1.81,1.81,0,0,0-.54-.4,1.78,1.78,0,0,0-.76-.15,1.84,1.84,0,0,0-1.22.41,1.52,1.52,0,0,0-.47,1.21A1.77,1.77,0,0,0,102,8.36a4.1,4.1,0,0,0,1.17.85,12.13,12.13,0,0,1,1.19.7,4.17,4.17,0,0,1,.82.7,2.38,2.38,0,0,1,.44.79,3,3,0,0,1,.12,1,2.39,2.39,0,0,1-.24,1,2.57,2.57,0,0,1-.62.77,2.75,2.75,0,0,1-.93.49,3.68,3.68,0,0,1-1.17.17,4.81,4.81,0,0,1-1-.09,5.14,5.14,0,0,1-.69-.22,1.14,1.14,0,0,1-.42-.33A.93.93,0,0,1,100.51,13.7Z"/><path class="cls-3" d="M111.31,10v1.5c0,.29,0,.58,0,.86s0,.55,0,.79a3,3,0,0,0,.06.53.49.49,0,0,0,.16.28.59.59,0,0,0,.29.12,3,3,0,0,0,.48,0h1.25a2.05,2.05,0,0,0,.77-.16,1.31,1.31,0,0,0,.48-.38,1.71,1.71,0,0,0,.27-.56c.06-.21.11-.43.16-.67a.09.09,0,0,1,.1-.08s.08,0,.08.08v.47c0,.18,0,.35,0,.52s0,.33,0,.48a2.6,2.6,0,0,1,0,.36.51.51,0,0,1-.25.35,1.7,1.7,0,0,1-.64.09l-1.51,0c-.63,0-1.3,0-2,0h-.33l-.45,0h-.91c-.06,0-.09,0-.08-.08s0-.09.08-.09a1.78,1.78,0,0,0,.48-.09.5.5,0,0,0,.3-.21,1.13,1.13,0,0,0,.15-.44,6.52,6.52,0,0,0,.06-.77c0-.53,0-1.05,0-1.57V8.45q0-.63,0-1.35c0-.31,0-.56,0-.76a1.4,1.4,0,0,0-.12-.48.59.59,0,0,0-.3-.26,2.18,2.18,0,0,0-.58-.13.09.09,0,0,1-.09-.08q0-.09.09-.09l.88,0,.87,0h1.63l.82,0h.7a1.61,1.61,0,0,1,.5.06c.11,0,.16.14.14.32s0,.42-.07.67-.05.51-.09.76c0,.06,0,.08-.11.08s-.08,0-.07-.08a1.75,1.75,0,0,0-.24-.91.93.93,0,0,0-.78-.39l-.51,0-.48,0h-1.08c0,.63,0,1.24,0,1.82V9.51q.47,0,1.14,0c.45,0,.9,0,1.36,0l.25,0,.14-.05.06-.05h.07s0,0,0,.08,0,.14,0,.29,0,.36-.08.53,0,.3-.07.38a.12.12,0,0,1-.11.08s-.07,0-.07-.08a.64.64,0,0,0-.07-.34.41.41,0,0,0-.19-.18.94.94,0,0,0-.32-.08L113,10h-1.69Z"/><path class="cls-3" d="M118.94,13.7a4.6,4.6,0,0,1,0-.82,6.47,6.47,0,0,1,.12-.78s0-.08.09-.08.07,0,.07.08a2.91,2.91,0,0,0,.59,1.73,1.81,1.81,0,0,0,1.49.63,2.06,2.06,0,0,0,1.5-.5,1.65,1.65,0,0,0,.52-1.25,1.94,1.94,0,0,0-.14-.8,1.83,1.83,0,0,0-.42-.63,3.15,3.15,0,0,0-.68-.53c-.27-.16-.57-.33-.91-.51a5.46,5.46,0,0,1-.77-.47,3.09,3.09,0,0,1-.65-.6,3,3,0,0,1-.44-.78,2.58,2.58,0,0,1-.15-1,2.23,2.23,0,0,1,.74-1.67,2.83,2.83,0,0,1,1.94-.64,5,5,0,0,1,.82.06,3.49,3.49,0,0,1,.56.14.89.89,0,0,1,.42.28.85.85,0,0,1,.1.57c0,.11,0,.28-.06.52s0,.43-.07.59,0,.08-.09.07-.08,0-.08-.07a2.6,2.6,0,0,0-.15-.67A1.83,1.83,0,0,0,123,6a1.9,1.9,0,0,0-2.52-.14A1.52,1.52,0,0,0,120,7.07a1.77,1.77,0,0,0,.48,1.29,4.1,4.1,0,0,0,1.17.85,12.13,12.13,0,0,1,1.19.7,4.09,4.09,0,0,1,.81.7,2.24,2.24,0,0,1,.45.79,3,3,0,0,1,.12,1,2.26,2.26,0,0,1-.25,1,2.42,2.42,0,0,1-.62.77,2.8,2.8,0,0,1-.92.49,3.68,3.68,0,0,1-1.17.17,4.81,4.81,0,0,1-1-.09,5.14,5.14,0,0,1-.69-.22,1.14,1.14,0,0,1-.42-.33A.93.93,0,0,1,118.94,13.7Z"/><path class="cls-3" d="M133.93,12.83c0-.54,0-1.06,0-1.58s0-1,0-1.57V7.47c0-.25,0-.51,0-.8a1.56,1.56,0,0,0-.24-.89,1.22,1.22,0,0,0-.81-.31c-.06,0-.09,0-.09-.08s0-.09.09-.09h.33l.39,0h.75c.24,0,.53,0,.88,0s.67,0,1,0a4.29,4.29,0,0,1,1.57.28,2.4,2.4,0,0,1,.9.63,2.08,2.08,0,0,1,.4.8,3.52,3.52,0,0,1,.1.74,2.57,2.57,0,0,1-.44,1.49,3.25,3.25,0,0,1-1.24,1.06c.11.18.29.45.55.81s.54.76.87,1.18.67.81.92,1.08a6.34,6.34,0,0,0,.77.72,1.36,1.36,0,0,0,.58.26,4.52,4.52,0,0,0,.5.09.09.09,0,0,1,.1.09c0,.05,0,.08-.1.08H141l-.39,0a1.06,1.06,0,0,1-.33,0,2.56,2.56,0,0,1-.69-.19A2.28,2.28,0,0,1,139,14a5.41,5.41,0,0,1-.62-.68c-.22-.28-.48-.63-.77-1.06l-.62-.9c-.18-.27-.34-.53-.49-.78a6.52,6.52,0,0,1-1.53,0c0,.51,0,1,0,1.36s0,.7,0,.92a7.57,7.57,0,0,0,.06.83,1.08,1.08,0,0,0,.16.47.48.48,0,0,0,.3.22,2.14,2.14,0,0,0,.53.09.09.09,0,0,1,.1.09c0,.05,0,.08-.1.08-.29,0-.59,0-.89,0l-.67,0-.71,0c-.29,0-.57,0-.83,0-.07,0-.1,0-.09-.08s0-.09.09-.09a2.31,2.31,0,0,0,.47-.09.42.42,0,0,0,.3-.2.94.94,0,0,0,.16-.45A7.63,7.63,0,0,0,133.93,12.83Zm4.2-4.73a2.82,2.82,0,0,0-.48-1.67,1.91,1.91,0,0,0-1.52-.74c-.2,0-.41,0-.62,0l-.53,0c0,.23,0,.46,0,.69s0,.5,0,.83v2.86a5.37,5.37,0,0,0,.84.1,5.43,5.43,0,0,0,1,0,1.24,1.24,0,0,0,.62-.21,1.58,1.58,0,0,0,.42-.47,1.93,1.93,0,0,0,.25-.63A3.35,3.35,0,0,0,138.13,8.1Z"/><path class="cls-3" d="M145.65,10v1.5c0,.29,0,.58,0,.86s0,.55,0,.79a3,3,0,0,0,.06.53.49.49,0,0,0,.16.28.59.59,0,0,0,.29.12,3,3,0,0,0,.48,0h1.25a2.05,2.05,0,0,0,.77-.16,1.31,1.31,0,0,0,.48-.38,1.71,1.71,0,0,0,.27-.56c.06-.21.11-.43.16-.67a.09.09,0,0,1,.1-.08c.05,0,.08,0,.08.08v.47c0,.18,0,.35,0,.52s0,.33,0,.48a2.6,2.6,0,0,1,0,.36.49.49,0,0,1-.25.35,1.7,1.7,0,0,1-.64.09l-1.51,0c-.63,0-1.3,0-2,0H145l-.45,0h-.91c-.06,0-.09,0-.08-.08s0-.09.08-.09a1.78,1.78,0,0,0,.48-.09.5.5,0,0,0,.3-.21,1.13,1.13,0,0,0,.15-.44,6.52,6.52,0,0,0,.06-.77c0-.53,0-1.05,0-1.57V8.45q0-.63,0-1.35c0-.31,0-.56,0-.76a1.4,1.4,0,0,0-.12-.48.59.59,0,0,0-.3-.26,2.18,2.18,0,0,0-.58-.13.09.09,0,0,1-.09-.08q0-.09.09-.09l.88,0,.87,0h1.63l.82,0h.7a1.61,1.61,0,0,1,.5.06c.11,0,.16.14.14.32s0,.42-.07.67-.05.51-.09.76c0,.06-.05.08-.11.08s-.08,0-.07-.08a1.85,1.85,0,0,0-.23-.91,1,1,0,0,0-.79-.39l-.51,0-.48,0h-1.08c0,.63,0,1.24,0,1.82V9.51q.47,0,1.14,0c.45,0,.9,0,1.36,0l.25,0,.14-.05.06-.05h.07s0,0,0,.08,0,.14,0,.29,0,.36-.08.53-.05.3-.07.38a.12.12,0,0,1-.11.08c-.05,0-.07,0-.07-.08a.64.64,0,0,0-.07-.34.41.41,0,0,0-.19-.18.94.94,0,0,0-.32-.08l-.41,0h-1.69Z"/><path class="cls-3" d="M153.28,13.7a4.6,4.6,0,0,1,0-.82,6.47,6.47,0,0,1,.12-.78.11.11,0,0,1,.1-.08s.06,0,.06.08a2.91,2.91,0,0,0,.59,1.73,1.82,1.82,0,0,0,1.49.63,2.06,2.06,0,0,0,1.5-.5,1.65,1.65,0,0,0,.52-1.25,1.94,1.94,0,0,0-.14-.8,1.83,1.83,0,0,0-.42-.63,3.15,3.15,0,0,0-.68-.53c-.27-.16-.57-.33-.91-.51a5.46,5.46,0,0,1-.77-.47,3.09,3.09,0,0,1-.65-.6,3,3,0,0,1-.44-.78,2.58,2.58,0,0,1-.15-1,2.23,2.23,0,0,1,.74-1.67,2.83,2.83,0,0,1,1.94-.64,5,5,0,0,1,.82.06,3.49,3.49,0,0,1,.56.14.89.89,0,0,1,.42.28.85.85,0,0,1,.1.57c0,.11,0,.28-.06.52s0,.43-.07.59,0,.08-.09.07-.08,0-.08-.07a2.6,2.6,0,0,0-.15-.67,1.83,1.83,0,0,0-.33-.58,1.9,1.9,0,0,0-2.52-.14,1.52,1.52,0,0,0-.47,1.21,1.77,1.77,0,0,0,.48,1.29,4.1,4.1,0,0,0,1.17.85,12.13,12.13,0,0,1,1.19.7,4.09,4.09,0,0,1,.81.7,2.24,2.24,0,0,1,.45.79,3,3,0,0,1,.12,1,2.39,2.39,0,0,1-.24,1,2.6,2.6,0,0,1-.63.77,2.7,2.7,0,0,1-.92.49,3.68,3.68,0,0,1-1.17.17,4.81,4.81,0,0,1-1-.09,5.14,5.14,0,0,1-.69-.22,1.14,1.14,0,0,1-.42-.33A.93.93,0,0,1,153.28,13.7Z"/><path class="cls-3" d="M164.09,10.21c0,.13,0,.32,0,.57s0,.51,0,.79,0,.53,0,.78,0,.44,0,.57a6.52,6.52,0,0,0,.06.77,1.13,1.13,0,0,0,.15.44.5.5,0,0,0,.3.21,2.23,2.23,0,0,0,.53.09.08.08,0,0,1,.09.09c0,.05,0,.08-.09.08l-.83,0-.75,0-.75,0-.79,0c-.06,0-.09,0-.09-.08s0-.09.09-.09a3.38,3.38,0,0,0,.44-.09.61.61,0,0,0,.3-.2,1.07,1.07,0,0,0,.15-.44,6.54,6.54,0,0,0,.06-.78c0-.13,0-.32,0-.57s0-.51,0-.77V8.43c0-.29,0-.55,0-.78s0-.41,0-.54a6,6,0,0,0-.07-.89,1.26,1.26,0,0,0-.17-.47.5.5,0,0,0-.29-.21,3,3,0,0,0-.42-.07.09.09,0,0,1-.09-.08q0-.09.09-.09h.35l.41,0h1.37l.39,0H165c.06,0,.09,0,.08.08a.09.09,0,0,1-.08.09,2.58,2.58,0,0,0-.4.1.44.44,0,0,0-.25.2,1.19,1.19,0,0,0-.14.47,7.85,7.85,0,0,0-.06.87c0,.12,0,.29,0,.53s0,.51,0,.8v1.77Z"/><path class="cls-3" d="M177.89,9.94a4.89,4.89,0,0,1-.36,1.89,4.19,4.19,0,0,1-1,1.5,4.58,4.58,0,0,1-1.6,1,5.76,5.76,0,0,1-2.09.36,15.12,15.12,0,0,1-1.59-.07c-.46,0-.83-.07-1.1-.07h-.29l-.44,0h-1c-.06,0-.09,0-.08-.08s0-.07.08-.09a2.13,2.13,0,0,0,.69-.14.7.7,0,0,0,.35-.33,1.64,1.64,0,0,0,.14-.58c0-.25,0-.56.05-1v-.56c0-.25,0-.5,0-.77s0-.53,0-.77V9.77c0-.59,0-1.15,0-1.68s0-.92,0-1.18a5.07,5.07,0,0,0-.08-.69.92.92,0,0,0-.19-.41.68.68,0,0,0-.33-.24,2,2,0,0,0-.5-.1c-.05,0-.07,0-.07-.08s0-.09.07-.09h.35l.43,0h2.07l.74,0h.56a5.61,5.61,0,0,1,3.88,1.22A4.42,4.42,0,0,1,177.89,9.94Zm-1.16.09a5,5,0,0,0-.3-1.79,3.72,3.72,0,0,0-.83-1.31,3.78,3.78,0,0,0-1.27-.83,5.19,5.19,0,0,0-1.62-.36c-.53,0-1-.06-1.31,0l-.71,0v4.81c0,.76,0,1.39,0,1.91s0,.88,0,1.11a1,1,0,0,0,.06.33c0,.06.1.12.24.17a3.21,3.21,0,0,0,.74.18,6.39,6.39,0,0,0,1.06.07,3.92,3.92,0,0,0,1.71-.34,3.49,3.49,0,0,0,1.22-.91,3.89,3.89,0,0,0,.72-1.35A6,6,0,0,0,176.73,10Z"/><path class="cls-3" d="M183.16,10v1.5c0,.29,0,.58,0,.86s0,.55,0,.79a3,3,0,0,0,.06.53.49.49,0,0,0,.16.28.64.64,0,0,0,.29.12,3,3,0,0,0,.48,0h1.26a2,2,0,0,0,.76-.16,1.31,1.31,0,0,0,.48-.38A1.71,1.71,0,0,0,187,13c.06-.21.12-.43.17-.67a.08.08,0,0,1,.09-.08c.06,0,.08,0,.08.08v1q0,.26,0,.48a2.6,2.6,0,0,1,0,.36.46.46,0,0,1-.25.35,1.61,1.61,0,0,1-.63.09l-1.51,0c-.63,0-1.31,0-2,0h-.33l-.44,0h-.92c-.06,0-.09,0-.08-.08s0-.09.08-.09a2,2,0,0,0,.49-.09.51.51,0,0,0,.29-.21,1.13,1.13,0,0,0,.15-.44,6.52,6.52,0,0,0,.06-.77c0-.53,0-1.05,0-1.57V8.45q0-.63,0-1.35c0-.31,0-.56,0-.76a1.06,1.06,0,0,0-.12-.48.52.52,0,0,0-.3-.26,2,2,0,0,0-.57-.13.09.09,0,0,1-.09-.08q0-.09.09-.09l.87,0,.88,0h1.62l.83,0H186a1.57,1.57,0,0,1,.5.06c.12,0,.17.14.15.32s-.05.42-.07.67-.06.51-.1.76c0,.06,0,.08-.1.08s-.09,0-.08-.08A1.85,1.85,0,0,0,186,6.2a1,1,0,0,0-.79-.39l-.5,0-.48,0h-1.08c0,.63,0,1.24,0,1.82V9.51q.47,0,1.14,0c.45,0,.9,0,1.36,0l.26,0,.13-.05.07-.05h.07s0,0,0,.08,0,.14-.05.29,0,.36-.07.53-.06.3-.08.38a.11.11,0,0,1-.1.08.07.07,0,0,1-.08-.08.77.77,0,0,0-.06-.34.44.44,0,0,0-.2-.18.88.88,0,0,0-.31-.08l-.42,0h-1.69Z"/><path class="cls-3" d="M199.66,6.65l-.06,1.73c0,.57,0,1.17,0,1.8s0,1.28,0,2,0,1.46,0,2.27a1.57,1.57,0,0,1,0,.27.05.05,0,0,1,0,.06.08.08,0,0,1-.11,0l-.21-.23-.75-.83c-.25-.29-.53-.59-.83-.91l-1-1-1.23-1.25c-.72-.72-1.36-1.37-1.91-1.94s-1-1-1.31-1.29c0,.29,0,.67,0,1.15s0,1,0,1.55,0,1.14,0,1.74,0,1.15.06,1.67a1.17,1.17,0,0,0,.27.72,1.4,1.4,0,0,0,.93.35s.08,0,.09.09,0,.08-.09.08l-.91,0-.67,0-.54,0-.65,0c-.06,0-.08,0-.08-.08s0-.09.08-.09a1.08,1.08,0,0,0,.58-.25,1.32,1.32,0,0,0,.22-.75c0-.42,0-.87.07-1.35s0-1,.05-1.45,0-.93,0-1.36,0-.8,0-1.11V6.85c0-.46,0-.91,0-1.35a1.29,1.29,0,0,1,0-.23.07.07,0,0,1,.05-.07s0,0,.09,0l.23.21c.55.62,1.14,1.25,1.76,1.91s1.3,1.35,2.05,2.1l1.79,1.8c.53.54,1,1,1.42,1.37V9.85c0-.95,0-2-.08-3,0-.27,0-.49-.07-.66a.76.76,0,0,0-.15-.4.68.68,0,0,0-.3-.21,3,3,0,0,0-.5-.11s-.07,0-.08-.08,0-.09.08-.09h.35l.39,0h.63l.49,0,.63,0c.06,0,.09,0,.08.09a.07.07,0,0,1-.08.08.73.73,0,0,0-.58.37A2.23,2.23,0,0,0,199.66,6.65Z"/><path class="cls-3" d="M208.9,5.09a10,10,0,0,1,1.35.09,5.24,5.24,0,0,1,1.27.3,1,1,0,0,1,.44.31.89.89,0,0,1,.16.56c0,.23,0,.48,0,.74s-.05.54-.07.82c0,.06,0,.09-.1.08s-.09,0-.09-.08a2.68,2.68,0,0,0-.33-1.11,2.32,2.32,0,0,0-.66-.76,2.63,2.63,0,0,0-.91-.42,4.2,4.2,0,0,0-1.08-.14,4.86,4.86,0,0,0-1.66.28,3.16,3.16,0,0,0-1.25.83A3.68,3.68,0,0,0,205.15,8a5.73,5.73,0,0,0-.24,1.93,5.85,5.85,0,0,0,.38,2.05,3.93,3.93,0,0,0,.92,1.38,3.58,3.58,0,0,0,1.32.8,4.72,4.72,0,0,0,1.56.25,4.5,4.5,0,0,0,1.24-.16,2.2,2.2,0,0,0,.85-.48,2.07,2.07,0,0,0,.52-.74,3.22,3.22,0,0,0,.26-1c0-.06,0-.09.1-.1s.1,0,.1.1,0,.35,0,.55v.48a2.8,2.8,0,0,1,0,.64,1.06,1.06,0,0,1-.14.37.66.66,0,0,1-.23.21l-.32.16a5.3,5.3,0,0,1-.86.25,7.84,7.84,0,0,1-1.52.12,7,7,0,0,1-2.23-.33,5,5,0,0,1-1.67-1,4,4,0,0,1-1.07-1.5,5.06,5.06,0,0,1-.36-1.95A5.6,5.6,0,0,1,204.07,8a4.19,4.19,0,0,1,1-1.57,4.4,4.4,0,0,1,1.63-1A6.19,6.19,0,0,1,208.9,5.09Z"/><path class="cls-3" d="M217.55,10v1.5c0,.29,0,.58,0,.86s0,.55,0,.79a3,3,0,0,0,.06.53.49.49,0,0,0,.16.28.59.59,0,0,0,.29.12,3,3,0,0,0,.48,0h1.25a2.05,2.05,0,0,0,.77-.16,1.31,1.31,0,0,0,.48-.38,1.71,1.71,0,0,0,.27-.56c.06-.21.11-.43.16-.67a.09.09,0,0,1,.1-.08c.05,0,.08,0,.08.08v.47c0,.18,0,.35,0,.52s0,.33,0,.48a2.6,2.6,0,0,1,0,.36.49.49,0,0,1-.25.35,1.7,1.7,0,0,1-.64.09l-1.51,0c-.63,0-1.3,0-2,0h-.33l-.45,0h-.91c-.06,0-.09,0-.08-.08s0-.09.08-.09a1.78,1.78,0,0,0,.48-.09.5.5,0,0,0,.3-.21,1.13,1.13,0,0,0,.15-.44,6.52,6.52,0,0,0,.06-.77c0-.53,0-1.05,0-1.57V8.45q0-.63,0-1.35c0-.31,0-.56,0-.76a1.4,1.4,0,0,0-.12-.48.59.59,0,0,0-.3-.26,2.18,2.18,0,0,0-.58-.13.09.09,0,0,1-.09-.08q0-.09.09-.09l.88,0,.88,0h1.62l.82,0h.7a1.57,1.57,0,0,1,.5.06c.11,0,.16.14.14.32s0,.42-.07.67,0,.51-.09.76c0,.06-.05.08-.11.08s-.08,0-.07-.08a1.85,1.85,0,0,0-.23-.91,1,1,0,0,0-.79-.39l-.51,0-.48,0h-1.08c0,.63,0,1.24,0,1.82V9.51q.47,0,1.14,0c.45,0,.9,0,1.36,0l.25,0,.14-.05.07-.05h.06s0,0,0,.08,0,.14,0,.29-.05.36-.08.53,0,.3-.07.38a.12.12,0,0,1-.11.08c-.05,0-.07,0-.07-.08a.64.64,0,0,0-.07-.34.41.41,0,0,0-.19-.18.94.94,0,0,0-.32-.08l-.41,0h-1.69Z"/><path class="cls-3" d="M225.18,13.7a4.6,4.6,0,0,1,0-.82,6.47,6.47,0,0,1,.12-.78.11.11,0,0,1,.1-.08s.06,0,.06.08a2.91,2.91,0,0,0,.59,1.73,1.84,1.84,0,0,0,1.49.63,2.06,2.06,0,0,0,1.5-.5,1.65,1.65,0,0,0,.52-1.25,1.94,1.94,0,0,0-.14-.8,1.83,1.83,0,0,0-.42-.63,3.15,3.15,0,0,0-.68-.53c-.27-.16-.57-.33-.91-.51a5.46,5.46,0,0,1-.77-.47,3.09,3.09,0,0,1-.65-.6,3,3,0,0,1-.44-.78,2.58,2.58,0,0,1-.15-1,2.23,2.23,0,0,1,.74-1.67,2.83,2.83,0,0,1,1.94-.64,5,5,0,0,1,.82.06,3.49,3.49,0,0,1,.56.14.89.89,0,0,1,.42.28.85.85,0,0,1,.1.57c0,.11,0,.28-.06.52s-.05.43-.07.59,0,.08-.09.07-.08,0-.08-.07a2.6,2.6,0,0,0-.15-.67,1.83,1.83,0,0,0-.33-.58,1.9,1.9,0,0,0-2.52-.14,1.52,1.52,0,0,0-.47,1.21,1.77,1.77,0,0,0,.48,1.29,4.1,4.1,0,0,0,1.17.85,12.13,12.13,0,0,1,1.19.7,4.09,4.09,0,0,1,.81.7,2.24,2.24,0,0,1,.45.79,3,3,0,0,1,.12,1,2.39,2.39,0,0,1-.24,1,2.59,2.59,0,0,1-1.55,1.26,3.68,3.68,0,0,1-1.17.17,4.81,4.81,0,0,1-1-.09,5.14,5.14,0,0,1-.69-.22,1.14,1.14,0,0,1-.42-.33A.93.93,0,0,1,225.18,13.7Z"/><path class="cls-3" d="M241.22,10.21v.58c0,.25,0,.52,0,.79s0,.54,0,.79,0,.44,0,.57a4.81,4.81,0,0,0,.07.8,1,1,0,0,0,.16.42.42.42,0,0,0,.27.18,2.09,2.09,0,0,0,.41.09c.06,0,.1,0,.1.09s0,.08-.1.08l-.73,0-.72,0-.79,0-.72,0c-.06,0-.09,0-.08-.08s0-.07.08-.09a2.19,2.19,0,0,0,.49-.1.46.46,0,0,0,.27-.22,1.05,1.05,0,0,0,.12-.42q0-.27.06-.75,0-.19,0-.57v-4c0-.3,0-.57,0-.81s0-.41,0-.54a7.1,7.1,0,0,0-.05-.78.89.89,0,0,0-.15-.45.57.57,0,0,0-.3-.22,3.3,3.3,0,0,0-.48-.1c-.06,0-.1,0-.1-.08s0-.09.1-.09l.8,0,.74,0,.66,0,.73,0c.08,0,.11,0,.1.09a.09.09,0,0,1-.1.08,1.44,1.44,0,0,0-.42.1.47.47,0,0,0-.25.23,1.22,1.22,0,0,0-.12.45c0,.2,0,.46-.05.77s0,.43,0,.69,0,.54,0,.82,0,.57,0,.86Zm4.89-4.86.53,0a5,5,0,0,1,.56,0c.07,0,.11,0,.11.09s0,.09-.11.09a3.4,3.4,0,0,0-.72.14,2.05,2.05,0,0,0-.74.43c-.22.18-.46.4-.72.65s-.57.56-.93.94l-.45.47-.48.51c-.16.16-.3.32-.44.47l-.31.36.59.65.78.83c.26.29.53.58.8.86l.69.71a14.55,14.55,0,0,0,1.16,1.07,5,5,0,0,0,1.24.75,1.67,1.67,0,0,0,.45.1c.19,0,.35,0,.49,0s.09,0,.09.06,0,.07-.09.08a3.71,3.71,0,0,1-.44.07,4.86,4.86,0,0,1-.56,0,4.29,4.29,0,0,1-.9-.09,3.92,3.92,0,0,1-.85-.33,6.16,6.16,0,0,1-.89-.63,11.71,11.71,0,0,1-1-1l-.57-.6-.63-.68-.6-.67c-.19-.21-.34-.4-.46-.55a1.06,1.06,0,0,0-.15-.15l-.12-.1c.22-.26.53-.6.9-1l1.13-1.26.4-.44.33-.38.32-.37.39-.45a.4.4,0,0,0,.13-.31c0-.09-.08-.15-.22-.17s-.12,0-.12-.09,0-.08.12-.08h1.33Z"/><path class="cls-3" d="M254.11,5.39a2.28,2.28,0,0,1,.1-.21.08.08,0,0,1,.08,0,.08.08,0,0,1,.07,0,1.23,1.23,0,0,1,.09.21c.1.31.26.77.48,1.37s.47,1.26.74,2,.56,1.51.87,2.31.6,1.56.89,2.27a5.17,5.17,0,0,0,.25.52,1,1,0,0,0,.27.31.76.76,0,0,0,.32.17,1.89,1.89,0,0,0,.45.09s.07,0,.08.09,0,.08-.08.08l-.79,0-.83,0-.66,0-.66,0c-.06,0-.09,0-.08-.08s0-.09.08-.09c.29,0,.47-.1.53-.21s.05-.34-.06-.68-.25-.75-.4-1.21-.32-.9-.49-1.35h-2.93c-.06.15-.13.32-.2.53s-.16.42-.24.65-.17.46-.24.69-.14.44-.2.64a1.21,1.21,0,0,0-.07.49.42.42,0,0,0,.12.27.5.5,0,0,0,.25.13,1.86,1.86,0,0,0,.34,0c.05,0,.08,0,.08.09s0,.08-.08.08l-.75,0-.6,0-.64,0-.74,0a.07.07,0,0,1-.08-.08c0-.06,0-.09.08-.09a1.6,1.6,0,0,0,.29,0,.94.94,0,0,0,.3-.12,1.24,1.24,0,0,0,.31-.24,1.9,1.9,0,0,0,.3-.42c.22-.4.45-.9.7-1.49s.49-1.2.74-1.81Zm1.1,5.14-.6-1.69c-.21-.56-.43-1.14-.67-1.74l-.31.76-.38.92-.67,1.75h2.63Z"/><path class="cls-3" d="M264.15,5.71q-.3,0-.63,0H263c0,.22,0,.54,0,1v3.55c0,.2,0,.43,0,.69s0,.5,0,.75,0,.48,0,.7,0,.37,0,.47a4.1,4.1,0,0,0,.08.82,1.08,1.08,0,0,0,.21.47.7.7,0,0,0,.37.22,3.63,3.63,0,0,0,.58.1.08.08,0,0,1,.09.09c0,.05,0,.08-.09.08l-.88,0-.8,0h-.29l-.36,0h-.68c-.07,0-.1,0-.09-.08s0-.09.09-.09a1.26,1.26,0,0,0,.32,0,.48.48,0,0,0,.21-.19,1.55,1.55,0,0,0,.11-.43c0-.19,0-.45.05-.79,0-.13,0-.32,0-.58V7.71c0-.22,0-.39,0-.52,0-.36,0-.65-.05-.86a1.35,1.35,0,0,0-.15-.5.61.61,0,0,0-.32-.25,4,4,0,0,0-.56-.11c-.05,0-.07,0-.07-.08s0-.09.07-.09h.31l.37,0h.7c.29,0,.59,0,.89,0a8.79,8.79,0,0,1,1,0,4.2,4.2,0,0,1,1.44.27,2.93,2.93,0,0,1,.95.57,2.17,2.17,0,0,1,.53.77,2.38,2.38,0,0,1,.16.86A2.84,2.84,0,0,1,267.11,9a2.54,2.54,0,0,1-.62.91,3,3,0,0,1-1,.58,3.73,3.73,0,0,1-1.23.2,3.29,3.29,0,0,1-.54-.05,2,2,0,0,1-.41-.13.1.1,0,0,1-.06-.12c0-.06.05-.08.11-.06l.19,0h.26a2.45,2.45,0,0,0,1.76-.61,2.42,2.42,0,0,0,.65-1.85,2,2,0,0,0-.54-1.47A2.51,2.51,0,0,0,264.15,5.71Z"/></g><g class="cls-2"><path class="cls-3" d="M275,14.11a1.87,1.87,0,0,0,.77-.17,1.46,1.46,0,0,0,.49-.38,1.66,1.66,0,0,0,.27-.55,5.92,5.92,0,0,0,.18-.67.11.11,0,0,1,.09-.09q.09,0,.09.09v.47c0,.18,0,.35,0,.52l0,.48q0,.22,0,.36a.46.46,0,0,1-.25.35,1.61,1.61,0,0,1-.63.09l-1.32,0q-.87,0-2.31,0l-.77,0-.86,0c-.08,0-.11,0-.09-.08s0-.09.09-.09a1.78,1.78,0,0,0,.48-.09.58.58,0,0,0,.28-.23,1.2,1.2,0,0,0,.13-.45c0-.18,0-.43,0-.74s0-.49,0-.75,0-.51,0-.76V9.31c0-.33,0-.64,0-.93s0-.56,0-.8,0-.43,0-.56c0-.3,0-.55,0-.74a1.2,1.2,0,0,0-.13-.45.6.6,0,0,0-.28-.24,2.08,2.08,0,0,0-.48-.12q-.09,0-.09-.09s0-.08.09-.08l.76,0,.74,0,.74,0,.64,0c.08,0,.11,0,.1.08a.11.11,0,0,1-.1.09,1.29,1.29,0,0,0-.41.1.49.49,0,0,0-.25.22,1.34,1.34,0,0,0-.14.44,5,5,0,0,0,0,.74l0,2.9v.85c0,.3,0,.6,0,.89s0,.56,0,.81,0,.48,0,.67,0,.42,0,.56a.59.59,0,0,0,.11.3.52.52,0,0,0,.28.13,3.6,3.6,0,0,0,.53,0H275Z"/></g><g class="cls-2"><path class="cls-3" d="M283.34,5.39a2.28,2.28,0,0,1,.1-.21.09.09,0,0,1,.08,0,.09.09,0,0,1,.07,0,1.23,1.23,0,0,1,.09.21c.1.31.26.77.48,1.37s.47,1.26.74,2,.56,1.51.87,2.31.6,1.56.89,2.27a5.17,5.17,0,0,0,.25.52,1,1,0,0,0,.27.31.76.76,0,0,0,.32.17,1.89,1.89,0,0,0,.45.09c.05,0,.07,0,.08.09s0,.08-.08.08l-.79,0-.83,0-.66,0-.66,0c-.06,0-.09,0-.08-.08s0-.09.08-.09c.29,0,.47-.1.53-.21s0-.34-.06-.68-.25-.75-.4-1.21-.32-.9-.49-1.35h-2.93c-.06.15-.13.32-.2.53s-.16.42-.24.65-.17.46-.24.69-.14.44-.2.64a1.21,1.21,0,0,0-.07.49.42.42,0,0,0,.12.27.5.5,0,0,0,.25.13,1.86,1.86,0,0,0,.34,0c.05,0,.08,0,.08.09s0,.08-.08.08l-.75,0-.6,0-.64,0-.73,0c-.07,0-.09,0-.09-.08s0-.09.09-.09a1.51,1.51,0,0,0,.28,0,.94.94,0,0,0,.3-.12,1.24,1.24,0,0,0,.31-.24,1.9,1.9,0,0,0,.3-.42c.22-.4.45-.9.7-1.49s.49-1.2.74-1.81Zm1.1,5.14-.6-1.69c-.21-.56-.43-1.14-.67-1.74l-.31.76-.38.92-.67,1.75h2.63Z"/><path class="cls-3" d="M299.31,6.65l-.06,1.73c0,.57,0,1.17-.05,1.8s0,1.28,0,2,0,1.46,0,2.27a1.57,1.57,0,0,1,0,.27.07.07,0,0,1,0,.06.08.08,0,0,1-.11,0l-.22-.23c-.24-.27-.48-.55-.74-.83s-.53-.59-.83-.91l-1-1c-.35-.37-.76-.79-1.22-1.25-.72-.72-1.36-1.37-1.91-1.94s-1-1-1.31-1.29c0,.29,0,.67,0,1.15s0,1,0,1.55,0,1.14,0,1.74,0,1.15.06,1.67a1.17,1.17,0,0,0,.27.72,1.4,1.4,0,0,0,.93.35q.08,0,.09.09c0,.05,0,.08-.09.08l-.91,0-.68,0-.53,0-.65,0c-.06,0-.09,0-.08-.08s0-.09.08-.09a1.08,1.08,0,0,0,.58-.25,1.34,1.34,0,0,0,.21-.75c0-.42.06-.87.08-1.35s0-1,0-1.45,0-.93,0-1.36V6.85c0-.46,0-.91,0-1.35a1.29,1.29,0,0,1,0-.23.07.07,0,0,1,.05-.07s.05,0,.09,0l.22.21c.56.62,1.15,1.25,1.77,1.91s1.3,1.35,2,2.1l1.79,1.8c.53.54,1,1,1.42,1.37V9.85c0-.95,0-2-.08-3,0-.27,0-.49-.07-.66a.76.76,0,0,0-.15-.4.68.68,0,0,0-.3-.21,3,3,0,0,0-.5-.11.07.07,0,0,1-.08-.08c0-.06,0-.09.08-.09h.35l.39,0h.62l.5,0,.63,0c.06,0,.08,0,.08.09s0,.08-.08.08a.73.73,0,0,0-.58.37A2.23,2.23,0,0,0,299.31,6.65Z"/><path class="cls-3" d="M305.7,10.21c0,.13,0,.33,0,.58s0,.52,0,.79,0,.54,0,.79,0,.44,0,.57a5,5,0,0,0,.06.8,1.19,1.19,0,0,0,.16.42.45.45,0,0,0,.28.18,1.93,1.93,0,0,0,.41.09.09.09,0,0,1,.1.09c0,.05,0,.08-.1.08l-.74,0-.71,0-.8,0-.72,0c-.06,0-.08,0-.08-.08a.11.11,0,0,1,.08-.09,2.3,2.3,0,0,0,.5-.1.46.46,0,0,0,.27-.22,1.05,1.05,0,0,0,.12-.42q0-.27.06-.75c0-.13,0-.32,0-.57s0-.51,0-.79V9.31c0-.33,0-.64,0-.94s0-.57,0-.81,0-.41,0-.54a6.72,6.72,0,0,0-.06-.78,1,1,0,0,0-.14-.45.65.65,0,0,0-.3-.22,3.47,3.47,0,0,0-.49-.1.09.09,0,0,1-.1-.08c0-.06,0-.09.1-.09l.8,0,.74,0,.67,0,.72,0c.08,0,.12,0,.11.09a.1.1,0,0,1-.11.08,1.29,1.29,0,0,0-.41.1.45.45,0,0,0-.26.23,1.22,1.22,0,0,0-.12.45,7.64,7.64,0,0,0,0,.77c0,.21,0,.43,0,.69s0,.54,0,.82,0,.57,0,.86S305.7,10,305.7,10.21Zm4.9-4.86.53,0a4.86,4.86,0,0,1,.56,0c.07,0,.1,0,.1.09s0,.09-.1.09a3.62,3.62,0,0,0-.73.14,2.14,2.14,0,0,0-.74.43c-.22.18-.46.4-.72.65s-.57.56-.92.94c-.15.14-.29.3-.45.47s-.32.34-.48.51-.31.32-.44.47-.24.27-.31.36l.59.65c.24.27.5.54.77.83l.8.86.7.71a13,13,0,0,0,1.16,1.07,4.73,4.73,0,0,0,1.23.75,1.66,1.66,0,0,0,.46.1,4.81,4.81,0,0,0,.49,0c.06,0,.09,0,.09.06s0,.07-.09.08a3.59,3.59,0,0,1-.45.07,4.86,4.86,0,0,1-.56,0,4.29,4.29,0,0,1-.9-.09,3.84,3.84,0,0,1-.84-.33,5.71,5.71,0,0,1-.9-.63c-.31-.27-.66-.6-1-1l-.57-.6-.63-.68-.6-.67c-.19-.21-.34-.4-.46-.55L306,10l-.13-.1.91-1,1.13-1.26.39-.44.33-.38.32-.37.39-.45a.41.41,0,0,0,.14-.31c0-.09-.09-.15-.23-.17s-.12,0-.12-.09,0-.08.12-.08h1.34Z"/></g><g class="cls-2"><path class="cls-3" d="M318.59,5.39a2.28,2.28,0,0,1,.1-.21.09.09,0,0,1,.08,0,.09.09,0,0,1,.07,0,1.23,1.23,0,0,1,.09.21c.1.31.26.77.48,1.37s.47,1.26.74,2,.56,1.51.87,2.31.6,1.56.89,2.27a5.17,5.17,0,0,0,.25.52,1,1,0,0,0,.27.31.76.76,0,0,0,.32.17,1.89,1.89,0,0,0,.45.09c.05,0,.07,0,.08.09s0,.08-.08.08l-.79,0-.83,0-.66,0-.66,0c-.06,0-.09,0-.08-.08s0-.09.08-.09c.29,0,.47-.1.53-.21s0-.34-.06-.68-.25-.75-.4-1.21-.32-.9-.49-1.35h-2.93c-.06.15-.13.32-.2.53s-.16.42-.24.65-.17.46-.24.69-.14.44-.2.64A1.21,1.21,0,0,0,316,14a.42.42,0,0,0,.12.27.5.5,0,0,0,.25.13,1.86,1.86,0,0,0,.34,0c.05,0,.08,0,.08.09s0,.08-.08.08l-.75,0-.6,0-.64,0-.73,0c-.07,0-.09,0-.09-.08s0-.09.09-.09a1.51,1.51,0,0,0,.28,0,.94.94,0,0,0,.3-.12,1.24,1.24,0,0,0,.31-.24,1.9,1.9,0,0,0,.3-.42c.22-.4.45-.9.7-1.49s.49-1.2.74-1.81Zm1.1,5.14-.6-1.69c-.21-.56-.43-1.14-.67-1.74l-.31.76-.38.92-.67,1.75h2.63Z"/></g><g class="cls-2"><path class="cls-3" d="M334.56,5.6c0,.05,0,.09,0,.12a.06.06,0,0,1-.08,0,1.36,1.36,0,0,0-.53-.09,2.29,2.29,0,0,0-1.34.52,5.9,5.9,0,0,0-1.26,1.32c-.21.3-.42.64-.64,1a12.38,12.38,0,0,0-.6,1.14,9.13,9.13,0,0,0-.42,1.21,4.55,4.55,0,0,0-.17,1.18v1.06a4.73,4.73,0,0,0,.05.77.71.71,0,0,0,.16.39.56.56,0,0,0,.33.14l.51.06a.08.08,0,0,1,.09.09c0,.05,0,.08-.09.08l-.9,0-.66,0-.62,0-.9,0c-.06,0-.09,0-.08-.08s0-.09.08-.09a2.2,2.2,0,0,0,.42-.09.48.48,0,0,0,.29-.17.79.79,0,0,0,.16-.38,3.32,3.32,0,0,0,.06-.72v-1a4.49,4.49,0,0,0-.12-1A7.25,7.25,0,0,0,328,10c-.13-.37-.28-.72-.44-1.07a7.17,7.17,0,0,0-.51-.92,7.64,7.64,0,0,0-1.52-1.76,2.47,2.47,0,0,0-1.44-.57,1.88,1.88,0,0,0-.4,0,2.68,2.68,0,0,0-.33.08c-.05,0-.09,0-.1,0s0-.07.05-.1a2.94,2.94,0,0,1,.5-.31,2.42,2.42,0,0,1,1-.16,2.79,2.79,0,0,1,1,.19,3.52,3.52,0,0,1,.86.5,4.69,4.69,0,0,1,.75.73,9.27,9.27,0,0,1,.6.84A11,11,0,0,1,328.78,9a13.14,13.14,0,0,1,.53,1.68,3.82,3.82,0,0,1,.1-.57,6.89,6.89,0,0,1,.25-.85c.12-.32.26-.66.43-1a7.45,7.45,0,0,1,.66-1.1,5.8,5.8,0,0,1,.8-1,4.7,4.7,0,0,1,.77-.58,2.6,2.6,0,0,1,.71-.29,3,3,0,0,1,.64-.08,1.74,1.74,0,0,1,.53.08A.66.66,0,0,1,334.56,5.6Z"/></g><g class="cls-2"><path class="cls-3" d="M339.13,5.39a2.28,2.28,0,0,1,.1-.21.09.09,0,0,1,.08,0,.09.09,0,0,1,.07,0,1.23,1.23,0,0,1,.09.21c.1.31.26.77.48,1.37s.47,1.26.74,2,.56,1.51.87,2.31.6,1.56.89,2.27a5.17,5.17,0,0,0,.25.52,1,1,0,0,0,.27.31.76.76,0,0,0,.32.17,1.89,1.89,0,0,0,.45.09c.05,0,.07,0,.08.09s0,.08-.08.08l-.79,0-.83,0-.66,0-.66,0c-.06,0-.09,0-.08-.08s0-.09.08-.09c.29,0,.47-.1.53-.21s.05-.34-.06-.68-.25-.75-.4-1.21-.32-.9-.49-1.35h-2.93c-.06.15-.13.32-.2.53s-.16.42-.24.65-.17.46-.24.69-.14.44-.2.64a1.21,1.21,0,0,0-.07.49.42.42,0,0,0,.12.27.5.5,0,0,0,.25.13,1.86,1.86,0,0,0,.34,0c.05,0,.08,0,.08.09s0,.08-.08.08l-.75,0-.6,0-.64,0-.73,0c-.07,0-.09,0-.09-.08s0-.09.09-.09a1.51,1.51,0,0,0,.28,0,.94.94,0,0,0,.3-.12,1.24,1.24,0,0,0,.31-.24,1.9,1.9,0,0,0,.3-.42c.22-.4.45-.9.7-1.49s.49-1.2.74-1.81Zm1.1,5.14-.6-1.69c-.21-.56-.43-1.14-.67-1.74l-.31.76-.38.92-.67,1.75h2.63Z"/></g></g></svg>