<svg id="Layer_1" data-name="Layer 1" xmlns="http://www.w3.org/2000/svg" viewBox="0 0 75 79"><defs><style>.cls-1{fill:#5d5e5e;}.cls-2{fill:#5c5e5e;}.cls-3{fill:#6d2158;}</style></defs><title>residences-courchevel-footer</title><path class="cls-1" d="M22.17,74.9a.28.28,0,0,1,.22.31c0,.17,0,.36,0,.57,0,0-.07,0-.07,0a1,1,0,0,0-1.08-.88c-.89,0-1.45.53-1.42,1.6a1.46,1.46,0,0,0,1.51,1.63.9.9,0,0,0,1-.86s.07,0,.07,0,0,.29,0,.38c0,.39-.09.42-.27.5a2.21,2.21,0,0,1-.86.13,1.77,1.77,0,1,1-.06-3.53A2.7,2.7,0,0,1,22.17,74.9Z"/><path class="cls-1" d="M25.1,78.28a1.65,1.65,0,0,1-1.81-1.68,1.77,1.77,0,0,1,1.88-1.85,1.66,1.66,0,0,1,1.72,1.7A1.77,1.77,0,0,1,25.1,78.28Zm-1.37-1.77a1.45,1.45,0,0,0,1.4,1.63,1.33,1.33,0,0,0,1.34-1.45c0-.89-.46-1.81-1.5-1.78C24.14,74.93,23.73,75.58,23.73,76.51Z"/><path class="cls-1" d="M29.59,78.28c-1.05,0-1.43-.48-1.43-1.58V75.48c0-.54-.11-.56-.41-.59,0,0,0-.06,0-.06l.58,0,.54,0s0,0,0,.06c-.24,0-.3.07-.32.59v1.19c0,.88.16,1.46,1.06,1.46s1.07-.73,1.07-1.52c0-.23,0-.78,0-1.29,0-.36-.1-.41-.33-.43,0,0,0-.06,0-.06l.47,0,.44,0a0,0,0,0,1,0,.06c-.21,0-.28.12-.29.43s0,1,0,1.26C31,77.62,30.57,78.28,29.59,78.28Z"/><path class="cls-1" d="M32.64,76.42c0-.41,0-.68,0-1.1s-.1-.4-.38-.43c0,0,0-.06,0-.06l.53,0c.17,0,.45,0,.68,0,.95,0,1.08.56,1.08.89a1,1,0,0,1-.61.92,7.73,7.73,0,0,0,.51.72,3.28,3.28,0,0,0,.62.65.65.65,0,0,0,.39.13s0,.06,0,.06a2.9,2.9,0,0,1-.51,0c-.39-.07-.54-.23-1-.85-.16-.24-.29-.43-.4-.61a2.52,2.52,0,0,1-.55,0c0,.37,0,.67,0,.83,0,.51.06.55.38.58,0,0,.05.06,0,.06l-.56,0-.56,0c-.05,0,0-.06,0-.06.28,0,.34,0,.35-.58S32.64,76.8,32.64,76.42ZM33.43,75A2.94,2.94,0,0,0,33,75v1.59a2.34,2.34,0,0,0,.66,0c.34,0,.49-.39.49-.73A.77.77,0,0,0,33.43,75Z"/><path class="cls-1" d="M38.71,74.9a.28.28,0,0,1,.21.31c0,.17,0,.36,0,.57,0,0-.07,0-.07,0a1,1,0,0,0-1.08-.88c-.88,0-1.45.53-1.42,1.6a1.47,1.47,0,0,0,1.52,1.63.9.9,0,0,0,1-.86s.07,0,.07,0,0,.29,0,.38c0,.39-.1.42-.28.5a2.21,2.21,0,0,1-.86.13,1.77,1.77,0,1,1-.05-3.53A2.7,2.7,0,0,1,38.71,74.9Z"/><path class="cls-1" d="M43.4,78.14s.05.06,0,.06H42.33a0,0,0,0,1,0-.06c.27,0,.31-.12.32-.59,0-.18,0-.8,0-1H40.74c0,.22,0,.82,0,1,0,.47.06.57.33.59a0,0,0,1,1,0,.06H40s0-.06,0-.06c.32,0,.32-.13.34-.59,0-.19,0-.75,0-.93,0-.43,0-1,0-1.14,0-.46,0-.55-.35-.59,0,0,0-.06,0-.06l.55,0,.52,0s0,0,0,.06c-.27,0-.31.11-.32.59,0,.13,0,.51,0,.88h1.92c0-.39,0-.71,0-.87,0-.47-.06-.58-.33-.6,0,0,0-.06,0-.06l.55,0,.52,0a0,0,0,0,1,0,.06c-.32,0-.32.14-.33.6,0,.12,0,.74,0,1s0,.85,0,1.09C43.07,78,43.08,78.1,43.4,78.14Z"/><path class="cls-1" d="M45.28,77.68c0,.32.07.34.35.34a3.45,3.45,0,0,0,.46,0c.46,0,.54-.29.61-.64,0,0,.06,0,.06,0,0,.21,0,.53,0,.67s-.12.16-.32.16l-1.28,0h-.62a0,0,0,1,1,0-.06c.29,0,.35-.08.36-.54s0-.77,0-1.15,0-.63,0-1,0-.55-.38-.59c0,0,0-.06,0-.06l.64,0,1.14,0c.16,0,.25,0,.23.14s0,.33-.06.52-.07,0-.06,0c0-.27-.09-.45-.37-.47a4.6,4.6,0,0,0-.75,0c0,.45,0,.86,0,1.36.23,0,.58,0,.91,0,.16,0,.15-.06.19,0s0,0,0,.13a1.51,1.51,0,0,1-.06.33s-.06,0-.06,0c0-.21-.14-.21-.36-.22s-.44,0-.62,0C45.26,76.8,45.26,77.33,45.28,77.68Z"/><path class="cls-1" d="M48.32,76.4c-.21-.48-.36-.83-.54-1.21a.42.42,0,0,0-.4-.3,0,0,0,0,1,0-.06l.52,0,.59,0c.06,0,0,.06,0,.06-.27,0-.32.11-.26.28.13.35.27.68.46,1.13s.37.84.6,1.33c.17-.39.36-.9.54-1.37s.25-.68.34-1,.06-.35-.17-.37a0,0,0,0,1,0-.06l.44,0,.41,0s0,.06,0,.06-.28.14-.42.46-.29.68-.44,1c-.36.88-.68,1.66-.75,1.85,0,0,0,0-.05,0s0,0,0,0Z"/><path class="cls-1" d="M52.4,77.68c0,.32.08.34.36.34a3.45,3.45,0,0,0,.46,0c.45,0,.54-.29.6-.64,0,0,.07,0,.07,0a4.51,4.51,0,0,1,0,.67c0,.12-.11.16-.32.16l-1.28,0h-.61s0-.06,0-.06c.28,0,.34-.08.35-.54s0-.77,0-1.15,0-.63,0-1,0-.55-.37-.59c0,0-.05-.06,0-.06l.63,0,1.15,0c.15,0,.24,0,.23.14s0,.33-.06.52-.07,0-.07,0c0-.27-.09-.45-.37-.47a4.54,4.54,0,0,0-.75,0v1.36c.22,0,.58,0,.91,0,.15,0,.15-.06.19,0s0,0,0,.13a3,3,0,0,1,0,.33s-.07,0-.07,0c0-.21-.13-.21-.36-.22s-.44,0-.61,0C52.38,76.8,52.39,77.33,52.4,77.68Z"/><path class="cls-1" d="M57.13,77.38s.07,0,.07,0a6.45,6.45,0,0,1,0,.67c0,.12-.12.16-.32.16s-.63,0-1.32,0h-.59s0-.06,0-.06c.29,0,.33-.1.34-.54s0-.8,0-1c0-.43,0-1,0-1.16,0-.45,0-.53-.34-.57,0,0,0-.06,0-.06l.54,0,.51,0s0,0,0,.06c-.24,0-.3.1-.31.54v1.06c0,.39,0,.89,0,1.17s0,.36.34.36a3.74,3.74,0,0,0,.49,0C57,78,57.07,77.73,57.13,77.38Z"/><path class="cls-2" d="M.3,52.3c0-.09.13-.08.13,0,.06,1.17.64,1.91,1.69,1.91a1.45,1.45,0,0,0,1.64-1.42c0-1-.65-1.43-1.75-2A2.5,2.5,0,0,1,.38,48.48a1.93,1.93,0,0,1,2.17-1.87,3.82,3.82,0,0,1,1.12.16.57.57,0,0,1,.43.69c0,.17-.09.64-.11.9,0,.1-.14.06-.14,0A1.44,1.44,0,0,0,2.41,46.9,1.24,1.24,0,0,0,1,48.21,2,2,0,0,0,2.37,50c1.51.77,2.13,1.41,2.09,2.56a2.15,2.15,0,0,1-2.4,2,3.47,3.47,0,0,1-1.38-.26.81.81,0,0,1-.49-.66A4.2,4.2,0,0,1,.3,52.3Z"/><path class="cls-2" d="M9.48,53c0,1,.13,1.17.85,1.23a.07.07,0,1,1,0,.13L9,54.29l-1.25,0c-.1,0-.08-.13,0-.13.6-.09.75-.16.78-1.23,0-.41,0-1.77,0-2.18,0-1,0-2.12,0-2.53,0-1.26-.23-1.26-.78-1.34-.08,0-.11-.13,0-.13.33,0,.9,0,1.25,0l1.11,0c.09,0,.08.12,0,.13-.53.1-.67.11-.7,1.34,0,.36,0,1.68,0,2.52C9.44,51.19,9.47,52.55,9.48,53Z"/><path class="cls-2" d="M16.29,50.93c-.48.76-1.13,1.88-1.47,2.51s-.28.68.37.75c.08,0,.11.13,0,.13l-1.08,0-1.15,0c-.08,0-.08-.12,0-.13a1.33,1.33,0,0,0,1.13-.7c.62-.87,1.36-2,2-2.93-.63-1-1.35-2.16-1.88-3-.34-.51-.5-.63-1-.68-.09,0-.11-.13,0-.13.37,0,.84,0,1.14,0s.8,0,1.24,0c.11,0,.08.13,0,.13-.55.07-.55.25-.34.64.37.69.82,1.49,1.32,2.33.45-.73.88-1.47,1.22-2.15s.26-.74-.17-.82c-.09,0-.11-.13,0-.13l1,0,.91,0a.07.07,0,1,1,0,.13c-.35.05-.58.08-1,.71-.64.92-1.27,1.85-1.73,2.6.6,1,1.55,2.49,2.12,3.29.35.5.58.64,1,.68a.07.07,0,1,1,0,.13l-1.14,0-1.15,0a.07.07,0,1,1,0-.13c.47,0,.46-.24.24-.63C17.56,53,16.85,51.88,16.29,50.93Z"/><path class="cls-2" d="M27.61,52.3c0-.09.14-.08.14,0,.06,1.17.64,1.91,1.69,1.91a1.45,1.45,0,0,0,1.64-1.42c0-1-.65-1.43-1.75-2a2.49,2.49,0,0,1-1.63-2.31,1.93,1.93,0,0,1,2.17-1.87,3.82,3.82,0,0,1,1.12.16.58.58,0,0,1,.43.69c0,.17-.09.64-.11.9a.07.07,0,0,1-.14,0,1.44,1.44,0,0,0-1.44-1.46,1.24,1.24,0,0,0-1.37,1.31A2,2,0,0,0,29.69,50c1.51.77,2.13,1.41,2.09,2.56a2.16,2.16,0,0,1-2.4,2A3.43,3.43,0,0,1,28,54.25a.84.84,0,0,1-.5-.66A4.93,4.93,0,0,1,27.61,52.3Z"/><path class="cls-2" d="M36.77,53.15c0,.72.17.76.8.77a8.66,8.66,0,0,0,1,0c1,0,1.21-.67,1.35-1.43,0-.09.15-.1.15,0A11,11,0,0,1,40,54c0,.27-.25.37-.72.37s-1.71-.05-2.86-.05l-1.37,0a.07.07,0,1,1,0-.13c.64-.07.77-.18.8-1.23,0-.85,0-1.7,0-2.56s0-1.4,0-2.16c0-1,0-1.23-.84-1.33-.09,0-.11-.13,0-.13.4,0,1,0,1.42,0,.76,0,1.91,0,2.55,0,.35,0,.55,0,.52.3s-.07.76-.13,1.17c0,.09-.16.09-.15,0,0-.61-.2-1-.82-1.06s-1,0-1.68,0c0,1,0,1.93,0,3a17.31,17.31,0,0,0,2,0c.35,0,.34-.13.42-.12s0,.06,0,.3a5.1,5.1,0,0,1-.12.75c0,.08-.15.08-.15,0,0-.49-.3-.49-.8-.52-.22,0-1,0-1.37,0C36.74,51.19,36.75,52.38,36.77,53.15Z"/><path class="cls-2" d="M50.5,54.19c0,.22,0,.25,0,.27s-.1,0-.27-.21c-.77-.89-1.59-1.77-3.07-3.27C46,49.81,45,48.83,44.51,48.36c0,.93,0,3.26.11,5,0,.48.23.8,1,.87.09,0,.11.13,0,.13l-1.29,0-1,0a.07.07,0,0,1,0-.13c.44-.09.6-.19.65-.81.1-1.35.12-3.28.12-4.28,0-.65,0-1.46,0-2.16,0-.18,0-.23,0-.24s.08,0,.25.19c.9,1,1.88,2,3.1,3.26,1,1.05,1.94,2,2.6,2.57,0-1.43,0-3-.06-4.69,0-.88-.15-1-.83-1.12-.08,0-.1-.13,0-.13l1.11,0,.91,0c.09,0,.07.13,0,.13-.46.08-.59.41-.61,1C50.55,49.74,50.5,51.53,50.5,54.19Z"/><path class="cls-2" d="M54.91,52.3c0-.09.13-.08.13,0,.06,1.17.65,1.91,1.69,1.91a1.45,1.45,0,0,0,1.64-1.42c0-1-.64-1.43-1.75-2A2.51,2.51,0,0,1,55,48.48a1.93,1.93,0,0,1,2.18-1.87,3.74,3.74,0,0,1,1.11.16.56.56,0,0,1,.43.69c0,.17-.09.64-.11.9,0,.1-.13.06-.13,0A1.45,1.45,0,0,0,57,46.9a1.24,1.24,0,0,0-1.37,1.31A2,2,0,0,0,57,50c1.5.77,2.12,1.41,2.08,2.56a2.15,2.15,0,0,1-2.4,2,3.37,3.37,0,0,1-1.37-.26.8.8,0,0,1-.5-.66A4.2,4.2,0,0,1,54.91,52.3Z"/><path class="cls-2" d="M64.07,53.15c0,.72.17.76.8.77a8.47,8.47,0,0,0,1,0c1,0,1.21-.67,1.36-1.43,0-.09.15-.1.15,0A9.4,9.4,0,0,1,67.33,54c0,.27-.25.37-.71.37-.61,0-1.71-.05-2.87-.05l-1.37,0a.07.07,0,1,1,0-.13c.64-.07.78-.18.8-1.23,0-.85,0-1.7,0-2.56s0-1.4,0-2.16c0-1,0-1.23-.84-1.33-.08,0-.11-.13,0-.13.4,0,1,0,1.42,0,.77,0,1.91,0,2.55,0,.36,0,.55,0,.53.3s-.08.76-.14,1.17c0,.09-.16.09-.14,0,0-.61-.21-1-.83-1.06s-1,0-1.67,0c0,1,0,1.93,0,3a17.31,17.31,0,0,0,2,0c.35,0,.34-.13.43-.12s0,.06,0,.3a4,4,0,0,1-.12.75c0,.08-.14.08-.14,0,0-.49-.31-.49-.81-.52-.21,0-1,0-1.37,0C64,51.19,64,52.38,64.07,53.15Z"/><path class="cls-2" d="M70.83,52.3c0-.09.14-.08.14,0,.06,1.17.64,1.91,1.68,1.91a1.45,1.45,0,0,0,1.64-1.42c0-1-.64-1.43-1.74-2a2.49,2.49,0,0,1-1.63-2.31,1.93,1.93,0,0,1,2.17-1.87,3.82,3.82,0,0,1,1.12.16.56.56,0,0,1,.42.69c0,.17-.08.64-.11.9,0,.1-.13.06-.13,0A1.44,1.44,0,0,0,73,46.9a1.24,1.24,0,0,0-1.38,1.31A2,2,0,0,0,72.91,50c1.51.77,2.13,1.41,2.09,2.56a2.16,2.16,0,0,1-2.41,2,3.37,3.37,0,0,1-1.37-.26.82.82,0,0,1-.5-.66A4.93,4.93,0,0,1,70.83,52.3Z"/><path class="cls-2" d="M.85,62.72c0-.81,0-1.35,0-2.19,0-.61-.2-.81-.76-.87-.09,0-.1-.12,0-.12.25,0,.79,0,1.06,0s.91-.06,1.36,0c1.91,0,2.16,1.13,2.16,1.79a2,2,0,0,1-1.22,1.85,16.1,16.1,0,0,0,1,1.44,7.69,7.69,0,0,0,1.23,1.31,1.53,1.53,0,0,0,.78.26c.09,0,.1.12,0,.12a5.06,5.06,0,0,1-1,0c-.77-.13-1.06-.44-1.94-1.69-.34-.48-.59-.86-.81-1.22a5.14,5.14,0,0,1-1.11,0c0,.73,0,1.34,0,1.65,0,1,.13,1.11.76,1.18.09,0,.11.12,0,.12-.41,0-.91-.06-1.13-.06s-.74.05-1.12.06c-.09,0-.07-.12,0-.12.57-.08.7-.1.72-1.17C.86,64.23.85,63.49.85,62.72Zm1.59-2.89a8,8,0,0,0-.84,0c0,.65,0,1.24,0,3.18a4.66,4.66,0,0,0,1.32,0c.69-.07,1-.79,1-1.47C3.9,60.6,3.46,59.9,2.44,59.83Z"/><path class="cls-2" d="M9.82,65.24c0,.65.15.69.71.7s.65,0,.92,0c.91,0,1.08-.6,1.21-1.28,0-.08.13-.09.13,0a10.47,10.47,0,0,1,0,1.32c0,.24-.23.33-.64.33s-1.53,0-2.57,0l-1.23,0c-.08,0-.07-.12,0-.12.58-.07.7-.17.72-1.1,0-.76,0-1.52,0-2.3s0-1.25,0-1.93c0-.9,0-1.1-.75-1.19-.07,0-.1-.12,0-.12.36,0,.92,0,1.27,0,.69,0,1.71,0,2.29,0,.31,0,.49,0,.47.28s-.07.67-.12,1c0,.08-.15.08-.14,0,0-.54-.18-.9-.73-1a14.65,14.65,0,0,0-1.5,0c0,.9,0,1.73,0,2.72.45,0,1.16,0,1.82,0,.32,0,.3-.12.38-.11s0,.05,0,.27a4.39,4.39,0,0,1-.11.67c0,.07-.13.07-.13,0,0-.44-.27-.44-.72-.46H9.79C9.78,63.49,9.79,64.56,9.82,65.24Z"/><path class="cls-2" d="M15.88,64.48c0-.07.12-.06.12,0,.05,1.06.57,1.72,1.51,1.72A1.3,1.3,0,0,0,19,64.93c0-.91-.57-1.29-1.56-1.8A2.24,2.24,0,0,1,16,61.07a1.73,1.73,0,0,1,1.95-1.68,3.58,3.58,0,0,1,1,.14.51.51,0,0,1,.38.62c0,.16-.08.58-.1.81,0,.08-.12,0-.12,0a1.29,1.29,0,0,0-1.29-1.31,1.11,1.11,0,0,0-1.23,1.18,1.76,1.76,0,0,0,1.19,1.55c1.35.69,1.91,1.26,1.88,2.3a1.94,1.94,0,0,1-2.16,1.78,3,3,0,0,1-1.23-.23.71.71,0,0,1-.44-.59A3.72,3.72,0,0,1,15.88,64.48Z"/><path class="cls-2" d="M24.1,65.08c0,.92.12,1,.76,1.1a.06.06,0,1,1,0,.12c-.39,0-.84,0-1.15,0s-.78,0-1.12,0a.06.06,0,1,1,0-.12c.53-.08.67-.14.69-1.1,0-.37,0-1.59,0-2,0-.85,0-1.89,0-2.26,0-1.13-.2-1.13-.69-1.2-.08,0-.1-.12,0-.12.29,0,.8,0,1.12,0l1,0c.08,0,.07.11,0,.12-.47.09-.6.1-.62,1.2,0,.33,0,1.5,0,2.25C24.07,63.49,24.09,64.71,24.1,65.08Z"/><path class="cls-2" d="M30.85,66.36c-.87,0-1.56-.1-2-.1l-1.28,0c-.08,0-.07-.11,0-.12.87-.09.86-.34.89-1.46,0-.37,0-1.57,0-1.94,0-.84,0-1.7,0-2.07,0-.81-.21-1-.79-1.05-.07,0-.07-.12,0-.12.27,0,.87,0,1.14,0l1.87,0c2.44,0,3.8,1.25,3.8,3.37A3.42,3.42,0,0,1,30.85,66.36Zm-.08-6.5a11.71,11.71,0,0,0-1.47,0v3.49c0,1.1,0,1.86,0,2.2s0,.28.22.35a3.71,3.71,0,0,0,1.3.19c1.92,0,2.82-1.38,2.82-3.1A2.88,2.88,0,0,0,30.77,59.86Z"/><path class="cls-2" d="M38.82,65.24c0,.65.15.69.71.7s.65,0,.92,0c.91,0,1.08-.6,1.22-1.28,0-.08.13-.09.13,0A8.74,8.74,0,0,1,41.74,66c0,.24-.23.33-.64.33s-1.53,0-2.57,0l-1.22,0a.06.06,0,1,1,0-.12c.57-.07.69-.17.71-1.1,0-.76,0-1.52,0-2.3s0-1.25,0-1.93c0-.9,0-1.1-.75-1.19-.07,0-.1-.12,0-.12.36,0,.92,0,1.27,0,.69,0,1.71,0,2.29,0,.31,0,.49,0,.47.28s-.07.67-.12,1c0,.08-.15.08-.13,0,0-.54-.19-.9-.74-1a14.65,14.65,0,0,0-1.5,0c0,.9,0,1.73,0,2.72.45,0,1.16,0,1.82,0,.32,0,.3-.12.38-.11s0,.05,0,.27a4.39,4.39,0,0,1-.11.67c0,.07-.13.07-.13,0,0-.44-.27-.44-.72-.46H38.79C38.78,63.49,38.79,64.56,38.82,65.24Z"/><path class="cls-2" d="M51.11,66.18c0,.19,0,.23,0,.24s-.08,0-.24-.19c-.69-.79-1.42-1.59-2.75-2.92-1-1.06-1.88-1.93-2.33-2.35,0,.84,0,2.91.09,4.43,0,.44.21.72.87.79.08,0,.1.12,0,.12l-1.15,0-.86,0c-.08,0-.07-.12,0-.12.39-.08.54-.18.58-.73.09-1.21.11-2.94.11-3.83,0-.59,0-1.3,0-1.93,0-.17,0-.21,0-.22s.08,0,.23.17c.8.89,1.68,1.83,2.77,2.92.95.94,1.74,1.76,2.33,2.3,0-1.28,0-2.68-.06-4.2,0-.79-.13-.91-.74-1-.07,0-.08-.12,0-.12l1,0,.82,0c.09,0,.06.12,0,.12-.41.07-.52.36-.54.86C51.15,62.2,51.11,63.8,51.11,66.18Z"/><path class="cls-2" d="M60.27,59.67a.59.59,0,0,1,.43.64c0,.33-.05.72-.07,1.13,0,.08-.15.07-.15,0a1.92,1.92,0,0,0-2.16-1.77c-1.77,0-2.9,1.08-2.85,3.22.06,2.32,1.45,3.25,3,3.25a1.8,1.8,0,0,0,2.09-1.7.07.07,0,1,1,.14,0c0,.25,0,.56,0,.75,0,.78-.19.83-.55,1a4.38,4.38,0,0,1-1.73.27c-2.39,0-3.87-1.37-3.87-3.45a3.42,3.42,0,0,1,3.76-3.62A5.66,5.66,0,0,1,60.27,59.67Z"/><path class="cls-2" d="M65.11,65.24c0,.65.15.69.72.7s.64,0,.91,0c.91,0,1.09-.6,1.22-1.28,0-.08.13-.09.13,0A8.74,8.74,0,0,1,68,66c0,.24-.22.33-.64.33s-1.53,0-2.56,0l-1.23,0a.06.06,0,1,1,0-.12c.57-.07.69-.17.72-1.1,0-.76,0-1.52,0-2.3s0-1.25,0-1.93c0-.9,0-1.1-.75-1.19-.08,0-.1-.12,0-.12.35,0,.91,0,1.27,0,.68,0,1.7,0,2.28,0,.32,0,.49,0,.47.28s-.07.67-.12,1c0,.08-.14.08-.13,0,0-.54-.19-.9-.74-1a14.53,14.53,0,0,0-1.5,0c0,.9,0,1.73,0,2.72.44,0,1.15,0,1.81,0,.32,0,.31-.12.38-.11s0,.05,0,.27a3.41,3.41,0,0,1-.11.67c0,.07-.13.07-.13,0,0-.44-.27-.44-.71-.46H65.09C65.08,63.49,65.09,64.56,65.11,65.24Z"/><path class="cls-2" d="M71.17,64.48c0-.07.12-.06.12,0,0,1.06.57,1.72,1.51,1.72a1.31,1.31,0,0,0,1.47-1.27c0-.91-.58-1.29-1.57-1.8a2.24,2.24,0,0,1-1.46-2.06,1.74,1.74,0,0,1,2-1.68,3.46,3.46,0,0,1,1,.14.51.51,0,0,1,.38.62c0,.16-.07.58-.1.81,0,.08-.12,0-.12,0a1.28,1.28,0,0,0-1.29-1.31,1.11,1.11,0,0,0-1.23,1.18A1.75,1.75,0,0,0,73,62.38c1.35.69,1.9,1.26,1.87,2.3a1.94,1.94,0,0,1-2.16,1.78,3,3,0,0,1-1.22-.23.73.73,0,0,1-.45-.59A4,4,0,0,1,71.17,64.48Z"/><path class="cls-3" d="M60.55,35.48s0,.06.06,0S60.57,35.45,60.55,35.48Z"/><polygon class="cls-3" points="59.88 35.88 59.99 35.85 59.96 35.85 59.88 35.88"/><path class="cls-3" d="M59.72,36c-.09.08-.27.09-.29.18.08-.07.25-.11.37-.19l-.08,0Z"/><path class="cls-3" d="M59.19,36.47l.06,0h0C59.11,36.48,59.2,36.44,59.19,36.47Z"/><path class="cls-3" d="M59.25,36.44s.07,0,0,0Z"/><path class="cls-3" d="M59,36.59s0,0,0-.05H59S58.9,36.61,59,36.59Z"/><path class="cls-3" d="M58.9,36.52h0Z"/><path class="cls-3" d="M58.94,36.51s0,0,0,0H59S58.93,36.49,58.94,36.51Z"/><path class="cls-3" d="M59.05,36.42c.09,0,0,0,0,.06C59.21,36.42,59.21,36.36,59.05,36.42Z"/><path class="cls-3" d="M59.41,36.08l0,.05s.07-.06.1-.06Z"/><path class="cls-3" d="M58.42,36.74s.06,0,.09-.06h-.07S58.41,36.73,58.42,36.74Z"/><path class="cls-3" d="M58.34,36.67h.1S58.43,36.65,58.34,36.67Z"/><path class="cls-3" d="M58.81,36.45h0Z"/><path class="cls-3" d="M58,36.8l.11.05-.06,0Z"/><path class="cls-3" d="M57.79,36.84a.34.34,0,0,1-.19,0,.48.48,0,0,0,.18,0S57.84,36.86,57.79,36.84Z"/><path class="cls-3" d="M58.11,36.77a.14.14,0,0,0,.07-.06h0Z"/><polygon class="cls-3" points="58.06 36.73 58.14 36.72 58.14 36.72 58.06 36.73"/><path class="cls-3" d="M58.5,36.49c-.1.07,0,.06.08.07C58.48,36.55,58.54,36.51,58.5,36.49Z"/><path class="cls-3" d="M58.32,36.61l-.1,0h.12S58.32,36.62,58.32,36.61Z"/><polygon class="cls-3" points="58.19 36.65 58.22 36.64 58.17 36.64 58.19 36.65"/><path class="cls-3" d="M57.71,36.74l-.17,0h.14C57.75,36.78,57.72,36.76,57.71,36.74Z"/><polygon class="cls-3" points="56.99 36.75 56.99 36.74 56.98 36.75 56.99 36.75"/><path class="cls-3" d="M57.72,36.74s0,0,0,0h.11A.11.11,0,0,0,57.72,36.74Z"/><path class="cls-3" d="M57.43,36.79l-.08,0S57.41,36.81,57.43,36.79Z"/><path class="cls-3" d="M57.9,36.75h-.08l.06,0S57.89,36.75,57.9,36.75Z"/><path class="cls-3" d="M57.08,36.81l.15-.05H57S57,36.78,57.08,36.81Z"/><path class="cls-3" d="M57.44,36.79h0s-.07,0,0,0h-.2l.21,0Z"/><path class="cls-3" d="M57.44,36.78s0,0,0,0h0l.11,0h-.11c.14,0-.12-.06.08,0-.07,0,0-.06-.16-.06s0,.07.08.11,0,0,0,0Z"/><path class="cls-3" d="M58.37,36.44v0S58.35,36.43,58.37,36.44Z"/><path class="cls-3" d="M58.3,36.47a.52.52,0,0,0-.07.12.67.67,0,0,1,.15-.11h0c.08-.05,0-.05,0-.05s0,0,0,0S58.32,36.47,58.3,36.47Z"/><path class="cls-3" d="M57.71,36.62h.16s0-.05-.09,0v0Z"/><path class="cls-3" d="M56.89,36.74l.09.08,0,0Z"/><polygon class="cls-3" points="56.69 36.75 56.75 36.78 56.75 36.74 56.69 36.75"/><path class="cls-3" d="M52.93,33.18s0,.08.08.14a.35.35,0,0,1,0-.12Z"/><path class="cls-3" d="M54.57,35.8a.49.49,0,0,0,.13.08C54.71,35.83,54.64,35.83,54.57,35.8Z"/><path class="cls-3" d="M56.2,28s0,0-.05,0S56.17,28,56.2,28Z"/><path class="cls-3" d="M54.57,35.8a.55.55,0,0,1-.11-.1h0A.2.2,0,0,0,54.57,35.8Z"/><path class="cls-3" d="M55.88,36.55Z"/><path class="cls-3" d="M56,36.58h0S56,36.59,56,36.58Z"/><path class="cls-3" d="M55.83,36.53l.05,0h0Z"/><path class="cls-3" d="M53.29,34.09l0,0Z"/><path class="cls-3" d="M56.34,36.68a.15.15,0,0,1-.09,0l.09,0S56.34,36.69,56.34,36.68Z"/><path class="cls-3" d="M57.27,36.55v0h0C57.17,36.52,57.21,36.54,57.27,36.55Z"/><path class="cls-3" d="M56.6,36.57h0c-.07,0-.12,0-.14,0S56.61,36.63,56.6,36.57Z"/><path class="cls-3" d="M56.69,36.59h-.06S56.69,36.61,56.69,36.59Z"/><path class="cls-3" d="M55.78,36.51s0,0,0,0S55.79,36.58,55.78,36.51Z"/><polygon class="cls-3" points="56.49 36.44 56.52 36.48 56.55 36.44 56.49 36.44"/><path class="cls-3" d="M56.14,36.36l-.1,0s.06,0,.13,0Z"/><path class="cls-3" d="M56.17,36.38l.07,0S56.2,36.39,56.17,36.38Z"/><path class="cls-3" d="M54.91,35.76l.09.08s0,0,0-.06S54.91,35.74,54.91,35.76Z"/><polygon class="cls-3" points="60.7 35.36 60.75 35.27 60.72 35.29 60.7 35.36"/><path class="cls-3" d="M60.57,35.35s0,0,0,.06h.08Z"/><path class="cls-3" d="M46.83,14.36s0,0,0,0S46.79,14.37,46.83,14.36Z"/><polygon class="cls-3" points="47.58 14.57 47.49 14.51 47.5 14.53 47.58 14.57"/><path class="cls-3" d="M47.78,14.6c.11,0,.25.13.33.08a3.15,3.15,0,0,1-.39-.14l0,.08Z"/><path class="cls-3" d="M48.48,14.65l-.06,0h0C48.54,14.7,48.45,14.67,48.48,14.65Z"/><path class="cls-3" d="M48.42,14.63s-.06,0,0,0Z"/><path class="cls-3" d="M48.71,14.71s-.05,0-.08,0l.07.06C48.77,14.77,48.79,14.76,48.71,14.71Z"/><path class="cls-3" d="M48.76,14.85s0,0,0,0Z"/><path class="cls-3" d="M48.68,14.8s0,0,0,0l-.08-.07S48.68,14.82,48.68,14.8Z"/><path class="cls-3" d="M48.59,14.75c-.16-.08-.2,0-.05,0C48.47,14.73,48.53,14.74,48.59,14.75Z"/><path class="cls-3" d="M48,14.73l0,0h.07S48,14.75,48,14.73Z"/><path class="cls-3" d="M49.21,15s-.07,0-.11,0l0,0S49.21,15,49.21,15Z"/><path class="cls-3" d="M49.22,15.12,49.15,15S49.14,15.08,49.22,15.12Z"/><path class="cls-3" d="M48.76,15l-.14-.13.11.12Z"/><path class="cls-3" d="M49.55,15.27s0-.07,0-.1l0,.06Z"/><path class="cls-3" d="M49.88,15.51a.7.7,0,0,0-.1-.16c0,.05-.07,0-.06.05A.5.5,0,0,1,49.88,15.51Z"/><path class="cls-3" d="M49.45,15.22a.1.1,0,0,0-.09,0l0,0Z"/><polygon class="cls-3" points="49.46 15.28 49.39 15.23 49.39 15.23 49.46 15.28"/><path class="cls-3" d="M49,15.13c.12,0,0-.05,0-.11S49,15.09,49,15.13Z"/><path class="cls-3" d="M49.19,15.17l.09.05-.08-.09S49.2,15.16,49.19,15.17Z"/><polygon class="cls-3" points="49.31 15.24 49.28 15.22 49.31 15.26 49.31 15.24"/><path class="cls-3" d="M49.71,15.52l.14.11a.58.58,0,0,1-.1-.12S49.71,15.5,49.71,15.52Z"/><polygon class="cls-3" points="50.22 16.03 50.21 16.03 50.22 16.04 50.22 16.03"/><path class="cls-3" d="M49.7,15.51h0a.6.6,0,0,1-.08-.08A.1.1,0,0,0,49.7,15.51Z"/><path class="cls-3" d="M49.94,15.69l.07,0Z"/><path class="cls-3" d="M49.6,15.38Z"/><path class="cls-3" d="M49.59,15.38a.21.21,0,0,0,0,.06.09.09,0,0,0,0-.06Z"/><path class="cls-3" d="M50.19,15.93l-.14-.08,0,0v0l.15.16A.19.19,0,0,0,50.19,15.93Z"/><path class="cls-3" d="M49.94,15.69l-.09-.06a.71.71,0,0,1,.07.09c-.12-.09,0,.12-.1,0,0,.07,0,.06.07.15s0-.07,0-.13v0h0s0,.06,0,0l.12.14a.83.83,0,0,0-.12-.16Z"/><path class="cls-3" d="M49,15.26h0S49,15.28,49,15.26Z"/><path class="cls-3" d="M49,15.26s0,0,0,0a.18.18,0,0,1,.05.06.29.29,0,0,0,.14,0s-.11,0-.18,0v0C49,15.18,49,15.24,49,15.26Z"/><path class="cls-3" d="M49.55,15.57l0,0,.09,0-.1-.12S49.48,15.52,49.55,15.57Z"/><path class="cls-3" d="M50.28,16l0,0,0,.07Z"/><polygon class="cls-3" points="50.41 16.18 50.38 16.21 50.42 16.25 50.41 16.18"/><path class="cls-3" d="M50.49,21.43s0-.07,0-.15a.18.18,0,0,1-.06.1Z"/><path class="cls-3" d="M51.23,18.43a.65.65,0,0,0,0-.15S51.19,18.36,51.23,18.43Z"/><path class="cls-3" d="M44.49,22.7s0,0,0,0S44.52,22.72,44.49,22.7Z"/><path class="cls-3" d="M51.23,18.43v.15a0,0,0,0,0,0,0A.23.23,0,0,0,51.23,18.43Z"/><path class="cls-3" d="M50.84,17Z"/><path class="cls-3" d="M50.79,16.87l0,0S50.8,16.87,50.79,16.87Z"/><path class="cls-3" d="M50.87,17l0-.07h0A.43.43,0,0,1,50.87,17Z"/><path class="cls-3" d="M50.68,16.62l0-.09s0,0,0,0Z"/><path class="cls-3" d="M50.45,16.54c0-.08-.05-.15-.09-.1h0C50.38,16.49,50.4,16.55,50.45,16.54Z"/><path class="cls-3" d="M50.31,16.36a.21.21,0,0,0,0,.06S50.32,16.34,50.31,16.36Z"/><path class="cls-3" d="M50.89,17.07s0,0,0,.05S50.93,17,50.89,17.07Z"/><polygon class="cls-3" points="50.35 16.56 50.3 16.57 50.34 16.61 50.35 16.56"/><path class="cls-3" d="M50.53,16.92l.06.08s0-.06-.06-.12S50.54,16.91,50.53,16.92Z"/><path class="cls-3" d="M50.53,16.88l0-.08A.16.16,0,0,0,50.53,16.88Z"/><path class="cls-3" d="M50.92,18.15c0,.05,0,.08,0,.06s0-.08,0-.12S50.93,18.12,50.92,18.15Z"/><polygon class="cls-3" points="46.63 14.34 46.54 14.37 46.58 14.38 46.63 14.34"/><path class="cls-3" d="M46.8,14.43l-.06-.06,0,.07Z"/><path class="cls-3" d="M26.7,15.51s0-.06-.06,0S26.67,15.54,26.7,15.51Z"/><polygon class="cls-3" points="27.37 15.11 27.27 15.14 27.29 15.14 27.37 15.11"/><path class="cls-3" d="M27.53,15c.08-.08.27-.08.29-.18a2.51,2.51,0,0,1-.37.19l.08,0Z"/><path class="cls-3" d="M28.06,14.52l-.06,0h0C28.14,14.51,28.05,14.56,28.06,14.52Z"/><path class="cls-3" d="M28,14.55s-.06,0,0,0Z"/><path class="cls-3" d="M28.26,14.4s0,0-.06,0h.1S28.35,14.38,28.26,14.4Z"/><path class="cls-3" d="M28.35,14.47h0Z"/><path class="cls-3" d="M28.31,14.48s0,0,0,0l-.1,0S28.32,14.5,28.31,14.48Z"/><path class="cls-3" d="M28.2,14.58c-.09,0,0,0,0-.06C28,14.57,28,14.63,28.2,14.58Z"/><path class="cls-3" d="M27.84,14.92l0-.05s-.07.05-.1.05Z"/><path class="cls-3" d="M28.83,14.25s-.06.05-.09.07h.07S28.84,14.26,28.83,14.25Z"/><path class="cls-3" d="M28.91,14.32h-.1S28.82,14.35,28.91,14.32Z"/><path class="cls-3" d="M28.44,14.54h0Z"/><path class="cls-3" d="M29.25,14.19l-.11,0,.06,0Z"/><path class="cls-3" d="M29.46,14.15a.33.33,0,0,1,.19,0,.48.48,0,0,0-.19-.05C29.51,14.1,29.41,14.13,29.46,14.15Z"/><path class="cls-3" d="M29.14,14.23a.1.1,0,0,0-.07,0h0Z"/><polygon class="cls-3" points="29.19 14.26 29.11 14.28 29.11 14.28 29.19 14.26"/><path class="cls-3" d="M28.75,14.5c.1-.07,0-.06-.08-.07S28.7,14.48,28.75,14.5Z"/><path class="cls-3" d="M28.92,14.38l.1,0h-.11S28.92,14.37,28.92,14.38Z"/><polygon class="cls-3" points="29.06 14.34 29.02 14.35 29.08 14.35 29.06 14.34"/><path class="cls-3" d="M29.54,14.24h.17a.77.77,0,0,1-.15,0C29.5,14.21,29.53,14.23,29.54,14.24Z"/><polygon class="cls-3" points="30.25 14.24 30.25 14.25 30.26 14.24 30.25 14.24"/><path class="cls-3" d="M29.52,14.26s0,0,0,0h-.11A.13.13,0,0,0,29.52,14.26Z"/><path class="cls-3" d="M29.82,14.2l.08,0S29.84,14.19,29.82,14.2Z"/><path class="cls-3" d="M29.35,14.24h.08l-.07,0Z"/><path class="cls-3" d="M30.17,14.18a.43.43,0,0,1-.15.05h.23S30.23,14.21,30.17,14.18Z"/><path class="cls-3" d="M29.81,14.21h0s.06,0,0,0v0h0l-.11,0h.11c-.14,0,.12.07-.08.06.07,0,0,.05.16.05s0-.07-.08-.11H30l-.21,0Z"/><path class="cls-3" d="M28.88,14.56h0S28.89,14.56,28.88,14.56Z"/><path class="cls-3" d="M29,14.53A.56.56,0,0,0,29,14.4a.45.45,0,0,1-.15.11h0c-.08,0,0,0,0,.05s0,0,0,0A.1.1,0,0,1,29,14.53Z"/><path class="cls-3" d="M29.54,14.37h-.16s0,0,.08,0v0Z"/><path class="cls-3" d="M30.36,14.24l-.09-.07v.05Z"/><polygon class="cls-3" points="30.55 14.24 30.5 14.21 30.5 14.25 30.55 14.24"/><path class="cls-3" d="M34.23,17.68a.18.18,0,0,1,0,.11l0,0S34.29,17.74,34.23,17.68Z"/><path class="cls-3" d="M32.68,15.19a.37.37,0,0,0-.14-.07S32.61,15.16,32.68,15.19Z"/><path class="cls-3" d="M31.05,23s0,0,.05,0S31.08,23,31.05,23Z"/><path class="cls-3" d="M32.68,15.19a.55.55,0,0,1,.11.1l0,0A.19.19,0,0,0,32.68,15.19Z"/><path class="cls-3" d="M31.36,14.44Z"/><path class="cls-3" d="M31.27,14.41h0Z"/><path class="cls-3" d="M31.42,14.47l-.06,0s0,0,0,0Z"/><path class="cls-3" d="M30.91,14.32H31l-.09,0S30.92,14.31,30.91,14.32Z"/><path class="cls-3" d="M30,14.45v0h0C30.08,14.47,30,14.45,30,14.45Z"/><path class="cls-3" d="M30.65,14.42h0c.06,0,.12.05.14,0S30.64,14.36,30.65,14.42Z"/><path class="cls-3" d="M30.56,14.41h.06S30.56,14.38,30.56,14.41Z"/><path class="cls-3" d="M31.47,14.48s0,0,0,0S31.46,14.41,31.47,14.48Z"/><polygon class="cls-3" points="30.76 14.56 30.73 14.51 30.7 14.55 30.76 14.56"/><path class="cls-3" d="M31.11,14.63l.1,0s-.06,0-.12,0Z"/><path class="cls-3" d="M31.09,14.61l-.08,0Z"/><path class="cls-3" d="M32.34,15.23l-.09-.08s0,0,0,.07S32.34,15.25,32.34,15.23Z"/><polygon class="cls-3" points="26.55 15.63 26.5 15.72 26.53 15.7 26.55 15.63"/><path class="cls-3" d="M26.68,15.64s0-.05.05-.06h-.09Z"/><path class="cls-3" d="M35.11,8.4s0,0,0-.05S35.07,8.35,35.11,8.4Z"/><polygon class="cls-3" points="34.75 7.78 34.75 7.76 34.73 7.68 34.75 7.78"/><path class="cls-3" d="M34.42,7.23a1.6,1.6,0,0,1,.18.37l0-.08h0C34.52,7.43,34.52,7.24,34.42,7.23Z"/><path class="cls-3" d="M34.13,7l0,.06h0C34.12,6.91,34.16,7,34.13,7Z"/><path class="cls-3" d="M34.16,7.05s0,.06,0,0Z"/><path class="cls-3" d="M34,6.79s0,0,.05,0V6.75C34,6.71,34,6.7,34,6.79Z"/><path class="cls-3" d="M34.08,6.7v0S34.07,6.69,34.08,6.7Z"/><path class="cls-3" d="M34.08,6.7l0,.1s0-.07,0-.06S34.1,6.71,34.08,6.7Z"/><path class="cls-3" d="M34.13,6.85c0,.16.11.16,0,0C34.19,6.94,34.16,6.89,34.13,6.85Z"/><path class="cls-3" d="M34.53,7.21l-.06,0s.06.08.06.11Z"/><path class="cls-3" d="M33.92,6.31V6.24s-.06,0-.07,0S33.9,6.28,33.92,6.31Z"/><path class="cls-3" d="M33.93,6.24s0,0,0-.1Z"/><path class="cls-3" d="M34.15,6.61v0c0,.06,0,.13,0,.2Z"/><path class="cls-3" d="M33.79,5.84v0a.76.76,0,0,0,0,.11Z"/><path class="cls-3" d="M33.73,5.4a.48.48,0,0,0,0,.18s.05,0,.07,0A.35.35,0,0,1,33.73,5.4Z"/><path class="cls-3" d="M33.89,6v0l-.05,0A.14.14,0,0,0,33.89,6Z"/><polygon class="cls-3" points="33.87 5.86 33.88 5.94 33.89 5.94 33.87 5.86"/><path class="cls-3" d="M34,6.38c0-.1.05,0,.07-.08S34,6.31,34,6.38Z"/><path class="cls-3" d="M34,6.14s0,0,0,0L34,6Z"/><polygon class="cls-3" points="33.95 5.99 33.96 6.02 33.96 5.97 33.95 5.99"/><path class="cls-3" d="M33.85,5.51a1.1,1.1,0,0,0,0-.18.66.66,0,0,1,0,.15C33.82,5.55,33.84,5.52,33.85,5.51Z"/><polygon class="cls-3" points="33.85 4.79 33.86 4.79 33.85 4.78 33.85 4.79"/><path class="cls-3" d="M33.86,5.52h0a.45.45,0,0,1,0,.11A.11.11,0,0,0,33.86,5.52Z"/><path class="cls-3" d="M33.81,5.23a.31.31,0,0,1,0-.08S33.79,5.21,33.81,5.23Z"/><path class="cls-3" d="M33.85,5.7a.22.22,0,0,1,0-.08.14.14,0,0,0,0,.06Z"/><path class="cls-3" d="M33.79,4.88a.65.65,0,0,1,.05.15V5h0a1.48,1.48,0,0,1,0-.21S33.82,4.81,33.79,4.88Z"/><path class="cls-3" d="M33.81,5.23s0,.07,0,.1,0-.07,0-.11c0,.15.06-.11,0,.09,0-.07.06,0,.06-.16s-.07,0-.11.07h0s0,0,0,0h0s0-.06,0,0V5l0,.2Z"/><path class="cls-3" d="M34.16,6.17h0S34.17,6.16,34.16,6.17Z"/><path class="cls-3" d="M34.16,6.17s0,0,0,0,0-.07,0-.08L34,6s.07.07.11.15h0C34.16,6.27,34.16,6.2,34.16,6.17Z"/><path class="cls-3" d="M34,5.5a1,1,0,0,1,0,.17s.05,0,0-.09h0Z"/><path class="cls-3" d="M33.85,4.69l-.07.09,0,0Z"/><polygon class="cls-3" points="33.85 4.49 33.82 4.55 33.86 4.55 33.85 4.49"/><path class="cls-3" d="M37.42.73s-.07,0-.14.08a.35.35,0,0,1,.12,0Z"/><path class="cls-3" d="M34.8,2.36a.91.91,0,0,0-.07.14S34.77,2.44,34.8,2.36Z"/><path class="cls-3" d="M42.6,4s0,0,0-.05S42.59,4,42.6,4Z"/><path class="cls-3" d="M34.8,2.36l.1-.1,0,0A.19.19,0,0,0,34.8,2.36Z"/><path class="cls-3" d="M34.05,3.68s0,0,0,0Z"/><path class="cls-3" d="M34,3.78v0S34,3.78,34,3.78Z"/><path class="cls-3" d="M34.08,3.62l0,.06s0,0,0,0A.12.12,0,0,1,34.08,3.62Z"/><path class="cls-3" d="M33.92,4.14a.31.31,0,0,1,0-.09l0,.09S33.91,4.13,33.92,4.14Z"/><path class="cls-3" d="M34.06,5.07h0a.06.06,0,0,1,0,0C34.08,5,34.06,5,34.06,5.07Z"/><path class="cls-3" d="M34,4.27c0,.07-.07.14,0,.13h0C34.05,4.34,34.08,4.29,34,4.27Z"/><path class="cls-3" d="M34,4.42s0,.07,0,.06A.14.14,0,0,1,34,4.42Z"/><path class="cls-3" d="M34.14,3.55c.09-.16-.12,0,0,0S34.14,3.59,34.14,3.55Z"/><polygon class="cls-3" points="34.16 4.35 34.16 4.29 34.12 4.32 34.16 4.35"/><path class="cls-3" d="M34.26,3.83s0,.07,0,.13,0,0,0,0S34.25,3.87,34.26,3.83Z"/><path class="cls-3" d="M34.19,4a.34.34,0,0,0,0-.08A.13.13,0,0,0,34.19,4Z"/><path class="cls-3" d="M34.82,2.78s0-.07,0-.07l-.08.09S34.8,2.79,34.82,2.78Z"/><polygon class="cls-3" points="35.24 8.5 35.33 8.55 35.31 8.51 35.24 8.5"/><path class="cls-3" d="M35.19,8.32V8.4l.06,0S35.2,8.33,35.19,8.32Z"/><path class="cls-3" d="M42.61,32s0,0,0,0S42.61,31.91,42.61,32Z"/><polygon class="cls-3" points="42.41 32.7 42.48 32.61 42.46 32.62 42.41 32.7"/><path class="cls-3" d="M42.39,32.9c0,.11-.13.25-.08.33a3.15,3.15,0,0,1,.14-.39l-.08,0Z"/><path class="cls-3" d="M42.35,33.6s0,0,0-.06h0C42.3,33.67,42.33,33.57,42.35,33.6Z"/><path class="cls-3" d="M42.37,33.54c0,.05,0-.06,0,0Z"/><path class="cls-3" d="M42.3,33.76l-.06.07c0,.06,0,.08.06,0S42.31,33.78,42.3,33.76Z"/><path class="cls-3" d="M42.18,33.84l0,0A0,0,0,0,0,42.18,33.84Z"/><path class="cls-3" d="M42.21,33.81c-.06,0,0,0,0,0l.06-.08S42.18,33.8,42.21,33.81Z"/><path class="cls-3" d="M42.25,33.71c.08-.16,0-.2,0,0C42.27,33.59,42.26,33.66,42.25,33.71Z"/><path class="cls-3" d="M42.27,33.12l0,.05v.07S42.25,33.15,42.27,33.12Z"/><path class="cls-3" d="M42,34.28s0,0,0,.06,0-.08,0-.11Z"/><path class="cls-3" d="M41.89,34.35l.08-.07S41.93,34.27,41.89,34.35Z"/><path class="cls-3" d="M42.07,33.86l0,0,.14-.15Z"/><path class="cls-3" d="M41.74,34.68l.11,0-.07,0Z"/><path class="cls-3" d="M41.62,34.85a.34.34,0,0,1-.11.16.49.49,0,0,0,.15-.1S41.67,34.84,41.62,34.85Z"/><path class="cls-3" d="M41.79,34.58s0-.08,0-.09l0,0Z"/><polygon class="cls-3" points="41.74 34.59 41.78 34.52 41.78 34.52 41.74 34.59"/><path class="cls-3" d="M42,34.1c-.08.06-.07,0-.11,0S41.93,34.14,42,34.1Z"/><path class="cls-3" d="M41.84,34.32l-.05.09.09-.08S41.85,34.32,41.84,34.32Z"/><polygon class="cls-3" points="41.77 34.44 41.79 34.41 41.75 34.44 41.77 34.44"/><path class="cls-3" d="M41.5,34.84l-.11.14a.54.54,0,0,1,.12-.09S41.52,34.84,41.5,34.84Z"/><polygon class="cls-3" points="41 35.35 40.99 35.35 40.99 35.36 41 35.35"/><path class="cls-3" d="M41.5,34.83s0,0,0,0l.08-.08A.17.17,0,0,0,41.5,34.83Z"/><path class="cls-3" d="M41.33,35.07a.3.3,0,0,1,0,.08S41.32,35.1,41.33,35.07Z"/><path class="cls-3" d="M41.64,34.73h0S41.64,34.75,41.64,34.73Z"/><path class="cls-3" d="M41.63,34.72l-.05,0,.05,0Z"/><path class="cls-3" d="M41.1,35.33a.91.91,0,0,1,.07-.14l0,0h0l-.15.14S41,35.37,41.1,35.33Z"/><path class="cls-3" d="M41.33,35.07h0s0,0,0,0h0s0,0,0,0h0l.06-.09a.27.27,0,0,1-.08.07c.08-.12-.12,0,0-.09-.07,0-.07,0-.15.07s.07,0,.13,0l-.14.13.16-.12Z"/><path class="cls-3" d="M41.74,34.16h0S41.74,34.16,41.74,34.16Z"/><path class="cls-3" d="M41.72,34.23a.29.29,0,0,0,0,.14s0-.11,0-.18h0c0-.09,0,0-.06,0s0,0,0,0S41.74,34.22,41.72,34.23Z"/><path class="cls-3" d="M41.44,34.69v0l0,.09.13-.11S41.5,34.61,41.44,34.69Z"/><path class="cls-3" d="M40.92,35.42H41l0,0Z"/><polygon class="cls-3" points="40.78 35.57 40.84 35.55 40.81 35.52 40.78 35.57"/><path class="cls-3" d="M35.6,35.71s.07,0,.15,0a.27.27,0,0,1-.1-.06Z"/><path class="cls-3" d="M38.61,36.4l.15,0S38.68,36.37,38.61,36.4Z"/><path class="cls-3" d="M34.25,29.73l0,0S34.22,29.76,34.25,29.73Z"/><path class="cls-3" d="M38.61,36.4h-.15l0,0A.22.22,0,0,0,38.61,36.4Z"/><path class="cls-3" d="M40.07,36s0,0,0,0Z"/><path class="cls-3" d="M40.16,36l0,0C40.17,36,40.17,36,40.16,36Z"/><path class="cls-3" d="M40,36l.06,0h0Z"/><path class="cls-3" d="M40.48,35.76s0,0-.07.07l.09,0S40.49,35.77,40.48,35.76Z"/><path class="cls-3" d="M41.05,35h0l0,0S41,35.05,41.05,35Z"/><path class="cls-3" d="M40.49,35.59c.07,0,.15-.05.1-.09h0C40.54,35.53,40.48,35.55,40.49,35.59Z"/><path class="cls-3" d="M40.66,35.46l0,0S40.69,35.47,40.66,35.46Z"/><path class="cls-3" d="M39.91,36c-.17,0,.11,0,.06,0S39.94,36,39.91,36Z"/><polygon class="cls-3" points="40.47 35.5 40.46 35.44 40.42 35.49 40.47 35.5"/><path class="cls-3" d="M40.15,35.68h0l-.09.06S40.09,35.71,40.15,35.68Z"/><path class="cls-3" d="M38.88,36.1s-.07,0-.06,0h.12S38.91,36.1,38.88,36.1Z"/><polygon class="cls-3" points="42.61 31.66 42.59 31.69 42.63 31.75 42.61 31.66"/><path class="cls-3" d="M42.54,31.91l.06-.05-.06,0S42.54,31.89,42.54,31.91Z"/><path class="cls-3" d="M23.73,32.32s0,0,.05,0S23.73,32.28,23.73,32.32Z"/><polygon class="cls-3" points="23.54 33.07 23.59 32.98 23.58 32.99 23.54 33.07"/><path class="cls-3" d="M23.51,33.27c0,.11-.13.25-.08.33,0-.1.1-.26.13-.39l-.07,0Z"/><path class="cls-3" d="M23.47,34s0-.06,0-.07h0C23.42,34,23.45,33.94,23.47,34Z"/><path class="cls-3" d="M23.49,33.91c0,.05,0-.06,0,0Z"/><path class="cls-3" d="M23.42,34.12l-.07.08c0,.06,0,.08.07,0S23.42,34.15,23.42,34.12Z"/><path class="cls-3" d="M23.3,34.21l0,0A0,0,0,0,0,23.3,34.21Z"/><path class="cls-3" d="M23.33,34.18c-.06,0,0,0,0,0l.06-.07S23.3,34.18,23.33,34.18Z"/><path class="cls-3" d="M23.37,34.08c.08-.16,0-.2,0,0C23.39,34,23.38,34,23.37,34.08Z"/><path class="cls-3" d="M23.39,33.49l0,0v.06S23.37,33.52,23.39,33.49Z"/><path class="cls-3" d="M23.08,34.65s0,.06,0,.06,0-.07,0-.11Z"/><path class="cls-3" d="M23,34.71l.07-.06S23.05,34.64,23,34.71Z"/><path class="cls-3" d="M23.19,34.23l0,0,.14-.14Z"/><path class="cls-3" d="M22.86,35.05,23,35l-.07,0Z"/><path class="cls-3" d="M22.74,35.22a.3.3,0,0,1-.12.16.5.5,0,0,0,.17-.1C22.74,35.3,22.79,35.21,22.74,35.22Z"/><path class="cls-3" d="M22.91,35c0-.05,0-.08,0-.09l0,0Z"/><polygon class="cls-3" points="22.85 34.96 22.9 34.89 22.9 34.89 22.85 34.96"/><path class="cls-3" d="M23.1,34.47c-.07.06-.06,0-.1,0S23.05,34.51,23.1,34.47Z"/><path class="cls-3" d="M23,34.69l-.05.09L23,34.7S23,34.7,23,34.69Z"/><polygon class="cls-3" points="22.89 34.81 22.91 34.78 22.87 34.81 22.89 34.81"/><path class="cls-3" d="M22.62,35.21l-.11.14.12-.09S22.64,35.22,22.62,35.21Z"/><polygon class="cls-3" points="22.12 35.73 22.11 35.72 22.11 35.73 22.12 35.73"/><path class="cls-3" d="M22.62,35.2s0,0,0,0l.08-.08S22.64,35.16,22.62,35.2Z"/><path class="cls-3" d="M22.45,35.44a.3.3,0,0,1,0,.08S22.45,35.47,22.45,35.44Z"/><path class="cls-3" d="M22.76,35.1h0S22.76,35.12,22.76,35.1Z"/><path class="cls-3" d="M22.75,35.09l-.05,0a.05.05,0,0,0,.05,0Z"/><path class="cls-3" d="M22.22,35.7a.46.46,0,0,1,.07-.14l0,0h0l-.15.15Z"/><path class="cls-3" d="M22.45,35.44h0s-.06,0,0,0h0s0,0,0,0h0l.06-.09a.27.27,0,0,1-.08.07c.08-.11-.13,0,0-.09-.07,0-.06,0-.15.07s.07,0,.13,0l-.14.13.16-.12Z"/><path class="cls-3" d="M22.86,34.53h0S22.85,34.53,22.86,34.53Z"/><path class="cls-3" d="M22.84,34.6a.39.39,0,0,0,0,.14.46.46,0,0,1,0-.18h0c0-.09,0,0-.06,0s0,0,0,0S22.85,34.59,22.84,34.6Z"/><path class="cls-3" d="M22.56,35.06v0l0,.09.12-.11S22.61,35,22.56,35.06Z"/><path class="cls-3" d="M22,35.79h.12l-.05,0Z"/><polygon class="cls-3" points="21.9 35.93 21.97 35.92 21.93 35.89 21.9 35.93"/><path class="cls-3" d="M16.72,36.08s.07,0,.15,0a.27.27,0,0,1-.1-.06Z"/><path class="cls-3" d="M19.73,36.77l.15,0S19.8,36.74,19.73,36.77Z"/><path class="cls-3" d="M15.37,30.11s0,0,0,0S15.35,30.13,15.37,30.11Z"/><path class="cls-3" d="M19.73,36.77h-.15l0,0A.23.23,0,0,0,19.73,36.77Z"/><path class="cls-3" d="M23.63,31.61s0,.07,0,.08S23.64,31.62,23.63,31.61Z"/><path class="cls-3" d="M21.19,36.37Z"/><path class="cls-3" d="M21.28,36.32l0,0C21.29,36.33,21.29,36.32,21.28,36.32Z"/><path class="cls-3" d="M21.13,36.39l.06,0h0Z"/><path class="cls-3" d="M21.6,36.14l-.07.06.1-.05S21.61,36.15,21.6,36.14Z"/><path class="cls-3" d="M21.61,36c.08,0,.15-.05.1-.08h0C21.66,35.9,21.6,35.92,21.61,36Z"/><path class="cls-3" d="M21.78,35.83l-.05,0S21.8,35.84,21.78,35.83Z"/><path class="cls-3" d="M21,36.4c-.18,0,.1.05.05,0S21.06,36.37,21,36.4Z"/><polygon class="cls-3" points="21.59 35.87 21.58 35.81 21.53 35.86 21.59 35.87"/><path class="cls-3" d="M21.14,36.11s.07,0,.13-.06,0,0,0,0Z"/><path class="cls-3" d="M21.27,36.05a.19.19,0,0,0,.08,0S21.3,36,21.27,36.05Z"/><path class="cls-3" d="M20,36.46s-.07,0-.06,0h.12S20,36.47,20,36.46Z"/><polygon class="cls-3" points="23.73 32.03 23.71 32.06 23.75 32.12 23.73 32.03"/><path class="cls-3" d="M23.66,32.28l.06-.05-.07,0S23.66,32.26,23.66,32.28Z"/><path class="cls-3" d="M34.18,19.14c.09-.17,0-.13.13-.33-.06.09-.08.05-.11,0l.08-.13-.06,0a.28.28,0,0,0,0-.18s0,0,0,0,0-.28.09-.32,0-.18-.09-.2,0-.05,0-.08.09,0,.06,0v0h-.06c0-.06,0-.12,0-.15s0,0,0,.05a.16.16,0,0,0,0-.07h0a.12.12,0,0,1,0-.12.67.67,0,0,1-.1-.32.46.46,0,0,0-.13-.31s0,.07,0,.09c-.07-.18-.22-.31-.24-.43h0a1.19,1.19,0,0,0-.15-.32l0,0a2.43,2.43,0,0,1-.19-.27c-.07-.1-.15-.18-.22-.18s-.16-.16-.22-.23H33a1,1,0,0,1-.18-.19c-.24-.09-.37-.29-.55-.39h0l-.17-.13c0,.06,0,0-.08-.07a.5.5,0,0,0-.25-.09l-.12-.06c.13.09,0,0-.06.09l-.07-.06s0,.05,0,0-.21-.1-.24-.17h.06v0c-.11,0-.07,0-.06,0-.14,0-.19,0-.3,0,.14-.06-.28-.06-.18-.13-.11.06-.06,0-.13.05a.63.63,0,0,1,.33.15l-.1,0c0,.09.22,0,.26.06s-.12,0-.13,0l.05-.06a.65.65,0,0,1,.32.16c-.1,0,.09.08,0,.1l-.07,0a0,0,0,0,0,0,0l-.35-.11h-.06a2.21,2.21,0,0,0-.37-.08c0-.06-.16-.11-.11-.14s0,0-.17,0,.11-.06.14-.07-.09-.05-.1-.07-.16.2-.07.24a.22.22,0,0,1,.18,0,4.27,4.27,0,0,0-3.5,1.21l-.17.18c0-.07,0-.15-.07-.13l.06,0c-.07,0-.17.18-.25.18a1.73,1.73,0,0,0-.1.24s-.07,0-.06-.05-.07.1-.05,0c-.11.3-.26.56-.39.84a2.32,2.32,0,0,0-.27.87s0,0,0,0-.05.1-.07.16l.06.17c0,.06-.05,0-.07,0a8.4,8.4,0,0,0,0,.86c0,.08.07,0,.09.08-.05-.07-.06,0-.06.09s0,.17,0,.13.09.37.22.3c0,.12,0,.11-.06.08a1,1,0,0,1,.06.37s.07.2.14.36a.74.74,0,0,0,.23.34c-.1,0,0,0,0,.11l-.09,0L26,21l0,0s0,0,.08,0a.46.46,0,0,1,.07.21h0l.05.08c0,.05-.09-.22.06-.07,0,0,0,.16.07.18s0-.1,0-.08l.1.12h-.1a4.9,4.9,0,0,0,1,.87c0-.05.28.17.29.07h0c-.09-.07.07-.06.14,0-.1,0,.1.17-.11.06l.05.05.53,0c1.33,0,3.68-.32,4.55-2.44l.09,0a5.37,5.37,0,0,1-1.62,2.73.61.61,0,0,1,.14-.07c.08,0,.06,0,0,.06s.41-.1.44-.15,0-.07,0-.12.05.14.21,0H32.1c.07-.06.09-.29.18-.3l0,.05c.15-.05.21-.31.29-.24l0,.05c.15-.21.1-.05.25-.27h0c.08-.07.08-.16.18-.14l0,0a2.19,2.19,0,0,0,.2-.22s.07,0,.07-.07.23-.25.25-.3-.06,0-.07,0,.12-.06.14-.16.16.07.26-.09c0,0-.06,0-.06,0s0-.06,0-.07,0,0-.06,0,.11-.18.21-.34c-.05,0,0,0-.06,0s0-.26.11-.15c0-.18.1-.39.14-.58a.88.88,0,0,0,0-.43s0-.13,0-.2ZM26.05,21s0-.05,0,0Zm4.34-6.5h0Zm1.43.17Zm.1.33L32,15a.24.24,0,0,1-.14-.1L32,15a1.61,1.61,0,0,1-.28-.1s0-.12.09-.13a.25.25,0,0,1,.2.14.57.57,0,0,0,.21.2s0-.1.11,0a.53.53,0,0,1,.16.29A4.07,4.07,0,0,0,31.92,15Zm1,.81h0a.36.36,0,0,1,0,.11Zm.42,5.33v-.08l0,0,0,0h0a.25.25,0,0,1,0-.07s0,0,0,0l0,0s.06,0,.06,0A.8.8,0,0,1,33.37,21.15Zm.12-4.6a.83.83,0,0,0-.07-.13l.06-.06-.07,0-.09-.12h0a1.63,1.63,0,0,1,.26.18A.25.25,0,0,1,33.49,16.55Zm.41.9a1.8,1.8,0,0,0-.08-.21L33.9,17a.78.78,0,0,1,0,.14l0,0A.52.52,0,0,1,33.9,17.45Zm.18,1.44s0-.07,0-.1a.33.33,0,0,0,.1,0Z"/><path class="cls-3" d="M42.72,5.42s0,0,0,0a.36.36,0,0,0,.07-.29h0V4.86c-.08,0-.06-.1-.06-.23s0-.27-.09-.29,0-.26,0-.35,0,0,0,0-.12-.28-.15-.39,0,0,.07,0c-.12-.11-.1-.41-.15-.45s-.07,0-.12,0c-.06-.16.14-.05,0-.21,0,0,0,.07,0,.06s-.29-.1-.3-.18l.05,0c-.05-.15-.31-.21-.24-.29l.05,0c-.21-.16-.05-.1-.27-.26h0c-.07-.09-.16-.08-.14-.18l0,0a2,2,0,0,0-.21-.2s-.06-.07-.08-.07-.25-.23-.31-.26c.09.07,0,.07,0,.07s-.06-.11-.16-.13a.19.19,0,0,0,0-.13c-.16,0-.43,0-.76,0-1.32,0-3.67.31-4.54,2.43l-.1,0a5.59,5.59,0,0,1,1.43-2.57l-.06,0h.1L36.92,1l-.14,0a.52.52,0,0,0-.31.14s.06-.05.08,0c-.17.06-.3.21-.42.24V1.28a1.36,1.36,0,0,0-.32.16l0,0c-.06.05-.18.11-.27.19s-.18.15-.18.22-.16.16-.24.22l0,0a1.13,1.13,0,0,1-.19.19c-.09.23-.29.36-.4.55h0L34.38,3c.06,0-.05,0-.07.09a.47.47,0,0,0-.1.24.5.5,0,0,1-.05.13c.09-.13.05,0,.09.06l-.06.06s.05,0,0,0-.09.2-.16.24a.56.56,0,0,1,0-.07h0l0,0c0,.11,0,.06-.05.06s0,.19,0,.3c-.07-.15-.06.27-.13.18.05.1,0,.06,0,.13a.72.72,0,0,1,.15-.33l0,.11c.1-.05,0-.23.07-.28s0,.13,0,.13l-.06,0a.61.61,0,0,1,.16-.32c0,.1.08-.09.09,0l0,.06s0,0,0,0-.08.23-.11.35v0l0,.07h0c0,.12-.05.25-.07.37s-.11.17-.15.11.05,0,0,.18-.06-.11-.07-.15,0,.1-.07.1.2.17.24.07a.2.2,0,0,1,0-.17,4.28,4.28,0,0,0,1.21,3.5l.18.16c-.07,0-.15,0-.13.08l0-.07c0,.07.18.17.17.26l.25.1s0,.07-.05,0,.09.07,0,.06c.3.11.56.26.84.39a2.3,2.3,0,0,0,.87.26s0,0,0,0c.13,0,.1.05.16.07l.18-.07c.06,0,0,.06,0,.08.31.06.61,0,.86,0,.07,0,0-.07.08-.09-.07.05,0,.06.09.06s.17,0,.13,0,.37-.08.3-.21c.11,0,.11,0,.07.06a1.4,1.4,0,0,1,.38-.07L40,9.26A.8.8,0,0,0,40.36,9c0,.1,0,0,.11,0l0,.09L40.6,9l0,0s0,0,0-.08a.29.29,0,0,1,.21-.07v0l.08,0s-.22.09-.07-.06c0,0,.16,0,.18-.07s-.1,0-.08,0l.12-.1v.1a5.52,5.52,0,0,0,.87-1c-.06,0,.17-.28.06-.29v0c-.06.09,0-.07,0-.14,0,.1.16-.11.06.1l.13-.13c.11,0,.16-.12.2-.26a2,2,0,0,1,.13-.43h0c.14-.22.09-.54.12-.59l0,0A.69.69,0,0,0,42.72,5.42Zm-6.66-4s.06.05.1.11L36,1.63,36,1.57l0,.07-.12.08s0,0,0,0A1,1,0,0,1,36.06,1.44ZM35.53,2l-.1.1s0-.05,0-.06ZM34.29,3.23h0S34.31,3.15,34.29,3.23Zm-.17,1.42h0v0Zm.5-1.53a.19.19,0,0,0,0-.09.27.27,0,0,1-.1.15l0-.11c0,.08,0,.17-.11.27s-.11,0-.12-.09a.27.27,0,0,1,.14-.2.41.41,0,0,0,.19-.2s-.09,0,0-.11A.53.53,0,0,1,35,2.58,4,4,0,0,0,34.62,3.12Zm6,5.87s0,0,0,0Zm.07-7.31,0,0,0,0v0l-.07,0s0,0,0,0l0,0s0-.07,0-.07l.13.14A.11.11,0,0,0,40.68,1.68Z"/><path class="cls-3" d="M61.81,32.85c.06-.3,0-.61,0-.86,0-.07-.07,0-.09-.07.05.06.06,0,.06-.1s0-.17,0-.13-.09-.37-.22-.3c0-.11,0-.1.06-.07a1,1,0,0,1-.06-.38s-.07-.19-.14-.35a.78.78,0,0,0-.24-.35c.11.05,0,0,0-.11l.09,0-.1-.16s0-.05,0,0,0,0-.08,0,0-.13-.07-.21h0l0-.07c0-.06.09.22-.06.06,0,0,0-.16-.07-.18s0,.1,0,.08a.52.52,0,0,0-.1-.11h.1a4.67,4.67,0,0,0-1-.88c0,.06-.28-.17-.29-.06h0c.09.06-.07.05-.14,0,.1,0-.1-.17.11-.07l-.06,0-.52,0c-1.33,0-3.68.32-4.55,2.44l-.09,0a5.44,5.44,0,0,1,1.61-2.73.38.38,0,0,1-.13.08c-.08,0-.06,0,0-.07-.11.12-.41.1-.45.15s0,.08,0,.12,0-.14-.21,0c0,0,.07,0,.06,0s-.1.29-.18.29l0-.05c-.15.05-.21.31-.29.24l0-.05c-.16.22-.1.05-.25.27h0c-.09.07-.08.16-.18.14l0,0a2.09,2.09,0,0,0-.2.22s-.07.05-.07.08-.23.24-.26.3.07,0,.07,0a.17.17,0,0,0-.13.16c-.07,0-.16-.06-.26.1,0,0,0-.06.06,0s0,.05,0,.06,0,0,.06,0-.11.19-.21.34c.05,0,0,0,.06,0s0,.26-.11.15c0,.18-.1.39-.14.59a1,1,0,0,0,0,.43s0,.13,0,.19h0c-.09.17,0,.13-.13.33.06-.08.08,0,.11,0s0,.09-.08.14l.06,0a.28.28,0,0,0,0,.18s0,0,0,0,0,.28-.09.33,0,.17.09.2,0,.05,0,.08-.09,0-.06,0v0H53a.76.76,0,0,0,0,.16.1.1,0,0,0,0,0l.05.06v0h0a.13.13,0,0,1,0,.11.67.67,0,0,1,.1.32.52.52,0,0,0,.1.27s0,0,0,0c.06.17.21.3.24.42h-.05a2.56,2.56,0,0,0,.16.33l0,0a2.43,2.43,0,0,1,.19.27c.07.1.15.19.22.19s.16.15.22.23l0,0a1.12,1.12,0,0,1,.19.19c.23.09.36.29.55.4h0l.17.13c0-.06,0,0,.08.07a.47.47,0,0,0,.25.1l.12,0c-.13-.08,0,0,.06-.09l.06.07s0-.06,0,0,.2.1.24.16H56l0,0c.11,0,.06,0,.06.05s.19,0,.3,0c-.14.07.28.06.18.13.11,0,.06,0,.13,0a.72.72,0,0,1-.33-.15l.11,0c0-.1-.23,0-.28-.07a.19.19,0,0,0,.14,0l0,.05a.65.65,0,0,1-.32-.16c.1,0-.09-.07,0-.1l.06,0s0,0,0,0a2.35,2.35,0,0,0,.35.11h.05l.37.08c0,.06.17.11.12.15s0,0,.17,0-.1.06-.14.07.09.06.09.07.17-.19.08-.23a.21.21,0,0,1-.18,0,4.22,4.22,0,0,0,3.5-1.21l.16-.18c0,.08,0,.15.08.14l-.06,0c.06,0,.17-.19.25-.19a1.73,1.73,0,0,0,.1-.24s.07,0,0,0,.08-.09.06,0a7.38,7.38,0,0,1,.4-.85,2.28,2.28,0,0,0,.25-.87s0,0,0,0,.05-.1.07-.16a.87.87,0,0,0-.07-.17C61.77,32.8,61.8,32.86,61.81,32.85Zm-8.65-.64h-.09l.1-.11A.41.41,0,0,0,53.16,32.21ZM53.34,34s0-.09,0-.14l0,0a.44.44,0,0,1,.07-.27c0,.07,0,.14.07.22A2.32,2.32,0,0,1,53.34,34Zm.54-4.14a.14.14,0,0,0,0,.09l0,0,0,0h0a.16.16,0,0,1,0,.07s0,0,0,0l0,0s-.06,0-.06,0A.8.8,0,0,1,53.88,29.84Zm0,4.88a1,1,0,0,1-.26-.18s.06-.06.11-.1l.08.13-.06.07.07,0,.09.12S53.91,34.73,53.9,34.72Zm.34.47a.24.24,0,0,1,0-.12l.09.1S54.25,35.17,54.24,35.19Zm1.19,1.12Zm0-.06a.27.27,0,0,1-.21-.14.45.45,0,0,0-.2-.19s0,.09-.11,0a.5.5,0,0,1-.16-.29,4.07,4.07,0,0,0,.55.37l-.09,0a.28.28,0,0,1,.14.1l-.11,0c.08,0,.17,0,.28.11S55.57,36.24,55.46,36.25Zm1.37.23h0ZM61.16,30l0,0S61.19,30,61.16,30Z"/><path class="cls-3" d="M51.25,19.18s0-.22,0-.31l0,0a1.1,1.1,0,0,1,0-.27,3.3,3.3,0,0,1-.1-.67h0l0-.21c0,.06,0-.05,0-.11a.51.51,0,0,0-.09-.25.61.61,0,0,1-.05-.12c0,.15-.07,0-.11,0v-.1s0,.07,0,0-.07-.21-.05-.28a.07.07,0,0,1,.06,0h0v0c0-.09,0-.06,0-.07s-.11-.15-.23-.19c.15.05-.15-.24,0-.23-.11,0,0-.05-.12-.06a.64.64,0,0,1,.12.34l-.09-.06c0,.1.14.18.14.24s-.06-.11-.07-.1h.06a.59.59,0,0,1,.11.34c-.06-.07,0,.12-.06.08l0-.07s0,0,0,0-.11-.22-.17-.33l0,0,0-.06h0l-.2-.31s0-.2,0-.18-.07,0-.14-.12.12,0,.16,0,0-.1,0-.12-.26,0-.22.12L49.88,16s0,0,0-.05h0l0,0a4.39,4.39,0,0,0-1.41-1h-.18c-1.32,0-3.67.32-4.54,2.44l-.1,0a5.51,5.51,0,0,1,1.57-2.68h0a2.24,2.24,0,0,0-.81.42s0,0,0,0-.11,0-.17.06-.05.11-.08.17,0,0-.06-.05c-.26.17-.42.45-.62.59,0,.08.07,0,0,.12,0-.08-.05,0-.11,0s-.12.12-.12.07c0,.14-.2.31-.06.35-.06.11-.1.06-.09,0a1.31,1.31,0,0,1-.23.31s-.09.18-.16.34a.79.79,0,0,0-.08.41c0-.1,0,0-.09.07l0-.09c0,.06,0,.12,0,.18s0,0,0,0,0,0,0,.09a.31.31,0,0,1-.11.19v0l0,.08c0,.07.1-.21.09,0,0,0-.12.11-.08.18,0-.11.05-.09.06-.05a.77.77,0,0,1,0,.15l-.06-.06a4.75,4.75,0,0,0,.09,1.35c.06,0,.07.32.15.26v0c0-.11.09,0,.1.1-.06-.08,0,.2-.12,0v.19c-.07.08,0,.2,0,.33a1.28,1.28,0,0,1,.21.4s0,0,0,0c.06.26.32.46.33.52h.06a.57.57,0,0,0,.25.41s0,0,0,0a.37.37,0,0,0,.15.26v0l.19.19c.05-.06.12,0,.2.13s.19.19.27.14.17.19.23.26h0c0,.13.28.12.38.17s0,.06,0,.07c.16,0,.35.23.41.22s.06,0,.1-.07-.07.13.16.13c0,0-.07,0,0,0s.27-.13.33-.08l-.05,0c.14.07.36-.07.37,0l0,.05c.26,0,.1,0,.37,0h0c.11,0,.17-.05.22,0h0a1.53,1.53,0,0,0,.3,0s.09,0,.11,0,.33,0,.39,0c-.11,0-.07,0,0-.06s.12,0,.21,0,.06.16.25.12c0,0-.08,0-.06,0s.06,0,.07,0,0,0,0-.05.21,0,.39-.09c-.06,0,0,0,0-.07s.2-.16.19,0c.15-.1.34-.2.51-.3a.87.87,0,0,0,.34-.27c0-.05.12-.07.17-.1l0,0a2.08,2.08,0,0,0,.32-.14c-.1,0-.09,0,0-.1l.16,0,0-.06a.4.4,0,0,0,.13-.13s0,0,0,0,.24-.15.3-.16.11-.12.07-.21a.1.1,0,0,0,.07,0c0,.05,0,.08.06,0h0l0-.05a.94.94,0,0,0,.09-.12s0,0,0,.07a.64.64,0,0,1,0-.07v0h0a.2.2,0,0,1,.06-.11.59.59,0,0,1,.17-.28.49.49,0,0,0,.12-.32s0,.08,0,.08c.08-.17.06-.37.13-.47l0,0a1.21,1.21,0,0,0,.12-.33h.06a1.79,1.79,0,0,1,.07-.33A.38.38,0,0,0,51.25,19.18Zm-8.81-1.42v0S42.47,17.7,42.44,17.76Zm5.17,5.32h-.18l.06-.06h.08l0,0,.08,0s0,0,0,.05h0S47.63,23.07,47.61,23.08ZM49.55,22l.08-.08a.18.18,0,0,0,.06.08ZM50,16.15a.21.21,0,0,1,.11.14Zm.13.16h0v0A0,0,0,0,1,50.12,16.31ZM51,17.45c0,.05,0,.08,0,0Zm-.31,3.24v0a.48.48,0,0,1-.24.14,1.24,1.24,0,0,0,.1-.2l.23-.11Zm.14-.73s0-.09,0-.14h.08l-.08,0,0-.15h0A1,1,0,0,1,51,20S50.88,20,50.82,20ZM51,19.2a.66.66,0,0,0,0-.14s0,0,0,0A.6.6,0,0,1,51,19.2Zm0-.79a5.86,5.86,0,0,0-.12-.63.24.24,0,0,0,0,.07.52.52,0,0,1,0-.18l.06.1c0-.09-.1-.14-.11-.26s.06-.11.15,0a.25.25,0,0,1,0,.24A.68.68,0,0,0,51,18s.05-.08.06.08A.62.62,0,0,1,51,18.41Z"/><path class="cls-3" d="M40.43,35.59c-.1,0-.18.14-.24.14s.11-.06.1-.07v.06a.59.59,0,0,1-.34.12c0-.05,0,0-.06,0a2.87,2.87,0,0,1-.55.44.12.12,0,0,0,.1,0,.39.39,0,0,0,.24-.1l.13,0c-.15,0,0-.06,0-.1h.09s-.06,0,0-.05a2.8,2.8,0,0,1,.28-.06.09.09,0,0,1,0,.06h0c.09-.06.07,0,.07,0s.16-.11.2-.23c-.06.15.23-.15.22,0,0-.12.05,0,.06-.13a.65.65,0,0,1-.34.13Zm-.85.56Z"/><path class="cls-3" d="M42.44,31.24s.05,0,.07,0,0-.12,0,0c-.13-.29-.21-.59-.31-.88a2.41,2.41,0,0,0-.44-.8s0,0,0,0,0-.1-.06-.16l-.17-.07c0-.08,0-.05,0-.07-.18-.26-.45-.41-.6-.61-.09,0,0,.06-.13,0,.09,0,0-.05,0-.11s-.13-.11-.07-.11c-.14,0-.32-.2-.36-.06-.11-.06-.06-.1,0-.1a1.16,1.16,0,0,1-.31-.22s-.18-.09-.35-.15a.68.68,0,0,0-.4-.08c.1,0,0,0-.07-.09l.09,0-.19-.05h0s0,0-.08,0a.32.32,0,0,1-.2-.1h0l-.08,0c-.07,0,.21.1,0,.09,0,0-.11-.12-.18-.08.11,0,.1.05.05.06h-.15l.06-.07a5.2,5.2,0,0,0-1.35.11c0,.07-.32.08-.25.17v0c.11,0,0,.08-.09.1.08-.06-.2-.05,0-.13h-.19c-.07-.07-.19,0-.32,0A1.75,1.75,0,0,1,36,28h0c-.25.05-.44.32-.5.33v.05a.68.68,0,0,0-.41.27s0,0,0,0a.37.37,0,0,0-.26.15h0l-.19.19c.06.05,0,.12-.13.21s-.19.18-.14.26-.18.18-.24.24,0,0,0,0-.12.28-.17.38-.06,0-.08,0c0,.16-.22.35-.2.42s0,.06.07.1-.14-.07-.13.16c0,0,0-.07,0-.05s.14.27.09.34l0-.06c-.07.14.07.36,0,.37l0,0c0,.26,0,.11,0,.37h0c0,.11.05.17,0,.23l0,0a2.83,2.83,0,0,0,0,.29.21.21,0,0,0,0,.11c-.06,0,0,.34,0,.4,0-.12,0-.07.06,0s0,.12,0,.2-.17.07-.12.26c0,0,0-.08,0-.07s0,.06,0,.08,0-.05.05,0,.06.21.09.39c0-.06,0,0,.08,0s.17.19,0,.18c.1.15.2.34.31.51a.89.89,0,0,0,.28.33s.06.12.1.17l0,0a2.08,2.08,0,0,0,.14.32c0-.1,0-.08.1-.05a.75.75,0,0,1,0,.16l.07,0a.26.26,0,0,0,.13.12s0,0,0,0,.16.24.17.3.12.12.2.07a.18.18,0,0,0,0,.07s-.08,0,0,.06h0l.05,0a.44.44,0,0,0,.11.09l.39,0a.6.6,0,0,1-.06-.11l.21.1a0,0,0,0,0,0,0h.2c1.32,0,3.67-.32,4.54-2.44l.1,0A5.77,5.77,0,0,1,40,35.7l.27-.14,0,0,.06,0h0a2.92,2.92,0,0,0,.32-.21s.19,0,.18,0,0-.07.11-.14,0,.12-.05.16.11,0,.12,0,0-.26-.12-.22a.22.22,0,0,1-.13.11,4.22,4.22,0,0,0,1.62-3.33c0-.08,0-.16,0-.24s.1.1.15,0l0,.08c.07,0,0-.25.06-.3ZM34,32.85a0,0,0,0,0,0,0s0,0-.06,0v-.18l.06.07a0,0,0,0,1,0,0v0l0,.08S34,32.88,34,32.85Zm1,2.07v-.15l.07.08A.16.16,0,0,0,35,34.92Zm4.15-7.31h0S39.21,27.64,39.15,27.61Zm1.54,7.67h0Z"/><polygon class="cls-3" points="39.95 35.75 39.95 35.76 39.96 35.75 39.95 35.75"/><path class="cls-3" d="M23.56,31.61s.05,0,.07,0,0-.12,0,0c-.13-.29-.21-.59-.31-.88a2.41,2.41,0,0,0-.44-.8s0,0,0,0,0-.11-.06-.17l-.17-.08c0-.06,0,0,.05-.06-.18-.25-.46-.41-.6-.61-.09,0,0,.07-.13,0,.09,0,0-.05,0-.11s-.13-.11-.07-.11c-.14,0-.32-.2-.36-.06-.11-.06-.06-.1,0-.1l-.22-.14-.55,0c-1.32,0-3.67.32-4.54,2.44l-.1,0a5.39,5.39,0,0,1,1.67-2.77.35.35,0,0,0-.27.08,2.19,2.19,0,0,1-.4.21s0,0,0,0c-.26.06-.45.32-.51.33v.06a.62.62,0,0,0-.41.26s0,0,0,0a.36.36,0,0,0-.26.15h0a1.7,1.7,0,0,0-.19.19c.06.05,0,.12-.13.2s-.19.2-.13.28-.19.17-.25.24v0c-.12,0-.11.27-.16.37s-.06,0-.07,0c0,.16-.23.36-.22.42S15,31,15,31s-.14-.07-.13.16c0,0,0-.07,0-.05s.14.27.09.34l0-.06c-.07.14.07.36,0,.37h0c0,.25,0,.1,0,.36h0c0,.11,0,.17,0,.23v0a1.56,1.56,0,0,0,0,.3.17.17,0,0,0,0,.1c-.07,0,0,.34,0,.4,0-.12,0-.07.06,0a.17.17,0,0,0,0,.2c-.07,0-.16.07-.11.26,0,0,0-.08,0-.07s0,.06,0,.08,0,0,.05,0,.06.21.1.39c0-.06,0,0,.06,0s.17.19,0,.18c.1.15.2.34.31.51a1.06,1.06,0,0,0,.27.34c.06,0,.07.11.11.16l0,0c.06.18.07.12.15.32,0-.1,0-.09.1,0a.83.83,0,0,1,0,.15l.06,0a.37.37,0,0,0,.13.12s0,0,0,0,.16.24.16.3.13.11.21.07l.05.07c-.05,0-.08,0,0,.06h0l0,0,.12.1h-.06l.08,0h0a.17.17,0,0,1,.11.06.65.65,0,0,1,.29.16.5.5,0,0,0,.32.12s-.08,0-.09,0c.17.07.37.05.47.12l0,0a1.39,1.39,0,0,0,.34.12v.05l.33.07a.38.38,0,0,0,.29,0s.22,0,.31,0l0,0a2.36,2.36,0,0,1,.27,0,3.3,3.3,0,0,1,.67-.1v0l.21,0c-.06,0,.05,0,.11,0a.44.44,0,0,0,.24-.09l.13-.06c-.15,0,0-.06,0-.1H21s-.07,0,0,0,.21-.07.28-.05a.09.09,0,0,1,0,.05h0c.09-.06.06,0,.07,0s.16-.11.19-.23c-.05.15.24-.15.22,0,0-.12.06,0,.07-.13a.65.65,0,0,1-.34.13l.06-.09c-.1,0-.18.14-.24.14s.11-.06.1-.08v.07a.61.61,0,0,1-.34.12c.08-.06-.12,0-.08-.06l.07,0s0,0,0,0l.33-.17,0,0,.06,0h0l.32-.2s.19,0,.18,0,0-.07.11-.14,0,.12-.05.16.11,0,.12,0,0-.26-.12-.22a.17.17,0,0,1-.14.11L22,35.5l.12-.11s0,0,.05,0v0s0,0,0,0a4.21,4.21,0,0,0,1.37-3.11,1.94,1.94,0,0,0,0-.24c.06.05.11.1.15,0v.08c.06,0,0-.25.05-.3Zm-8.49,1.61s0,0,0,0,0,.05-.05,0a1.07,1.07,0,0,1,0-.18l.05.05a.08.08,0,0,1,0,0v0l0,.09S15.09,33.25,15.07,33.22Zm1.05,2.07v-.14l.07.07Zm1.34,1h-.05a.53.53,0,0,1-.14-.24l.2.1.11.22Zm1,.22a1.32,1.32,0,0,1-.31.05.43.43,0,0,1,0-.15l.14,0v.09l0-.08.15,0Zm.57.08a.24.24,0,0,1-.1-.05h.13S19.06,36.55,19.06,36.56Zm1.38-.05a.46.46,0,0,0-.29,0s.08.05-.09.07a.5.5,0,0,1-.31-.09,4.7,4.7,0,0,0,.63-.13.14.14,0,0,0-.07,0,.26.26,0,0,1,.17,0l-.1.05c.09,0,.14-.09.27-.11s.1.06,0,.15A.28.28,0,0,1,20.44,36.51Zm.26,0Zm1.11-.87,0,0h0Z"/></svg>