<svg id="Layer_1" data-name="Layer 1" xmlns="http://www.w3.org/2000/svg" viewBox="0 0 204.09 20"><defs><style>.cls-1{fill:#673065;}.cls-2{isolation:isolate;}.cls-3{fill:#666;}</style></defs><title>Artboard 1</title><path class="cls-1" d="M26.38,17.78V17.3c0-.14,0,0-.05-.05s0,0,0-.05v-.07s0-.21-.12-.17,0-.06,0,0a.74.74,0,0,1,0-.21,1.67,1.67,0,0,1-.08-.2.5.5,0,0,0-.13-.19c.06,0,0,0,0-.06h.05L26,16.21h0A.16.16,0,0,1,26,16h0V16L26,15.88H26a2.74,2.74,0,0,0-.58-.49s-.15-.1-.16,0h-.08c-.08,0-.06-.09.06,0H25a2.57,2.57,0,0,0-2.53,1.36h-.06a3.1,3.1,0,0,1,.92-1.53s-.06,0-.09,0h0s-.23,0-.25.08,0,0,0,.07,0-.08-.11,0h0s0,.15-.1.16h0c-.08,0-.11.17-.16.13h0c-.08.12-.05,0-.14.15h0c-.05,0-.05.09-.11.08h0l-.11.12h0l-.15.17h0s-.06,0-.07.09-.09,0-.15.05h0l-.12.2h0s0,.14-.06.08a1.25,1.25,0,0,1-.08.32,1,1,0,0,0,0,.25v.1h0a1.34,1.34,0,0,0-.07.18h.06c.06,0,0,0,0,.08h0a.17.17,0,0,0,0,.1h0c-.05,0,0,.15-.05.18s0,.09.05.11V18h0v.09h0a.09.09,0,0,1,0,.07.34.34,0,0,1,.05.17.3.3,0,0,0,.08.18h0c0,.1.12.17.14.24h0a.56.56,0,0,0,.09.17h0l.1.16s.08.1.13.1.08.08.12.12h0a.47.47,0,0,1,.1.1l.12.08h0a1.33,1.33,0,0,0,.19.14h0l.1.07h0a.15.15,0,0,0,.13,0H23c-.07-.05,0,0,0-.05h0s.11.05.13.09h.17c.06,0,.16,0,.1.08s0,0,.07,0a.37.37,0,0,1-.18-.08h0a.51.51,0,0,1-.18-.09s-.05,0,0-.05h0l.24.08h.19s.1.07.07.09,0,0,.09,0h0s.09-.11,0-.13a.11.11,0,0,1-.11,0,2.31,2.31,0,0,0,2-.66l.09-.11V19h0s.09-.1.14-.1,0-.09.05-.14h0c.07-.16.14-.32.22-.47a1.4,1.4,0,0,0,.15-.49h0v-.19h.05m-4.82-.36h0l.06-.06v.07m.1,1v-.09h0a.25.25,0,0,1,0-.17v.13a.78.78,0,0,1-.05.14M22,16.1h0m0,2.72a.71.71,0,0,1-.14-.1l.07-.06v.07h0v.06h0m.23.25h0V19a.27.27,0,0,1,.07.08h0m.62.63h0m0-.14h-.06a.47.47,0,0,1,.15.06s0,.06-.05.07a.15.15,0,0,1-.11-.08.25.25,0,0,0-.12-.11s0,.05-.06,0a.25.25,0,0,1-.08-.16,2.34,2.34,0,0,0,.43.26h0a.46.46,0,0,0-.16-.07.16.16,0,0,1,.08.06m.82.24h0M26,16.17h0"/><path class="cls-1" d="M20.5,10.17V10h0a.38.38,0,0,1,0-.15V9.67h0a1,1,0,0,0,0-.24h0V9.25a.33.33,0,0,0,0-.14V9c0,.09,0,0-.06,0V9h0V8.83h0a.3.3,0,0,0-.13-.11c.09,0-.08-.13,0-.12h-.07a.44.44,0,0,1,.07.19h0a.6.6,0,0,1,.08.13s0-.06-.05-.06h0a.31.31,0,0,1,.06.19h0A1.52,1.52,0,0,0,20,8.79h0c0-.06-.07-.11-.1-.16a.13.13,0,0,1,0-.11l-.08-.06c-.08-.06.07,0,.09,0s0-.06,0-.07-.15,0-.13.07a.09.09,0,0,1,.06.08,2.3,2.3,0,0,0-.93-.73h-.07a2.59,2.59,0,0,0-2.53,1.36h0a3,3,0,0,1,.88-1.49h0a1.28,1.28,0,0,0-.45.23h-.1V8h0a4.34,4.34,0,0,1-.35.33c-.12.09,0,0,0,.06s0,0-.06,0-.06.07-.06,0-.11.17,0,.2-.05,0-.05,0a.66.66,0,0,1-.12.17L15.73,9a.37.37,0,0,0-.05.23h0v.1h0v.05a.24.24,0,0,1-.06.11h0s.06-.12.06,0-.07.06,0,.1,0-.05,0,0v.09h0a2.78,2.78,0,0,0,0,.76s0,.17.09.14h0v.06c0,.06,0,.1-.07,0v.28a1.63,1.63,0,0,1,.11.23h0c0,.14.18.25.18.28h0a.43.43,0,0,0,.14.23h0a.19.19,0,0,0,.09.14h0l.1.11a.16.16,0,0,1,.12.07c0,.07.1.11.15.08s.09.11.13.14h0c0,.07.16.06.21.09h0s.2.13.23.12h.06c.06,0,0,.08.08.08h0s.15-.08.19-.05h1.07c.05,0,0,.1.14.07h.21s.11-.1.1,0,.19-.11.29-.17.17-.11.18-.15.07,0,.1-.06h0c.1,0,.06,0,.18-.08-.06,0-.05,0,0-.06h.09a.18.18,0,0,0,.07-.08h0l.17-.09s.06-.06,0-.11h0l.06-.06h0v-.06a.42.42,0,0,1,.09-.16.29.29,0,0,0,.07-.18h0s0-.21.07-.26h0a.6.6,0,0,0,.06-.19h0v-.19a.19.19,0,0,0,0-.15m-4.9-.8h0m2.87,2.94h-.1M19.38,12h0m.32-3.17h0m.49.63h0m0,1.51h0a.29.29,0,0,1-.15.09L20.1,11l.13-.06-.05.06m.07-.4v-.08h0v-.08h0a.54.54,0,0,1,0,.18h-.09m.07-.42v-.09h0v.06m0-.45a2.73,2.73,0,0,0-.1-.48h0a.44.44,0,0,0,.06.16.17.17,0,0,1,0-.1v.06s-.06-.08-.07-.15,0-.06.09,0a.15.15,0,0,1,0,.13.22.22,0,0,0,0,.16v.05a.27.27,0,0,1-.06.17"/><path class="cls-1" d="M11,10.14l.06-.18H11a.22.22,0,0,0,.05-.08h0a.17.17,0,0,0,0-.1h0s0-.16,0-.18,0-.09,0-.11a0,0,0,0,0,0-.05h0a.11.11,0,0,0,0-.08h0a.09.09,0,0,1,0-.07A.48.48,0,0,1,11,9.12a.25.25,0,0,0-.08-.18V9s-.12-.17-.13-.24h0a.89.89,0,0,0-.08-.17h0l-.11-.16c0-.05-.08-.1-.12-.1s-.09-.08-.12-.12h0a.47.47,0,0,1-.1-.1A.41.41,0,0,1,10.15,8h0a1.33,1.33,0,0,0-.19-.14h0l-.09-.07H9.79a.17.17,0,0,0-.14,0,.09.09,0,0,0-.07,0h0s-.11,0-.13-.09H9.28c-.06,0-.15,0-.1-.08s0,0-.07,0a.46.46,0,0,1,.19.08H9.13c0,.06.12,0,.15,0H9.2a.31.31,0,0,1,.18.09h0l-.24-.07H9s-.09-.06-.06-.08,0,0-.1,0h.08s-.09.11,0,.13a.09.09,0,0,1,.1,0,2.31,2.31,0,0,0-2,.66l-.09.11V8.49h0s-.09.1-.14.1l-.06.14h0a2.86,2.86,0,0,1-.22.47,1.38,1.38,0,0,0-.14.49h0v.19h0v.48h0v.13s0,.21.12.16,0,.07,0,0a.74.74,0,0,1,0,.21l.07.19a.46.46,0,0,0,.13.2v.06h0v.09h0a.24.24,0,0,1,0,.12h0v.1h0v.07h0a3,3,0,0,0,.57.49s.16.1.17,0H7.5c.07,0,.06.09-.06,0h.3a2.59,2.59,0,0,0,2.53-1.36h.05a3.08,3.08,0,0,1-.91,1.53s.06,0,.09,0h0a1,1,0,0,0,.24-.08s0,0,0-.07,0,.08.12,0h0S9.91,12,10,12h0c.08,0,.11-.17.16-.13h0c.09-.12.06,0,.14-.15h0s0-.08.1-.08h0l.11-.12h0a1.41,1.41,0,0,0,.14-.17h0s.06,0,.07-.09.09,0,.14,0h0l.12-.18h0s0-.14.06-.08a2.25,2.25,0,0,1,.08-.33.49.49,0,0,0,0-.24v-.1Zm-4.53,1ZM8.88,7.57h0m.8.09h0m-.07.13h0a.46.46,0,0,0,.16.07.16.16,0,0,1-.08-.06h.06a.23.23,0,0,1-.15-.06c-.06-.06,0-.06.05-.07s.09,0,.11.08a.29.29,0,0,0,.11.11h.06A.25.25,0,0,1,10,8a2.26,2.26,0,0,0-.42-.26m.69.49h0a.09.09,0,0,1,0,.07l-.06-.08m.25,3h0l-.07.07m.06-2.56V8.68h0V8.61h0l.15.1s0,0-.07.06m.22.52V9.11h0a.34.34,0,0,1,0,.17m.11.79V9.94H11l-.06.07"/><path class="cls-1" d="M15.73,2.5a.22.22,0,0,0,0-.16h0V2.06c0-.07,0-.15-.05-.16s0-.14,0-.19h0a.76.76,0,0,0-.08-.21h0s0-.23-.08-.25,0,0-.07,0,.08,0,0-.12h0s-.16-.06-.17-.1h0c0-.08-.17-.11-.13-.16h0C15,.78,15.15.81,15,.73h0V.63h0l-.11-.1h-.05c-.05,0-.13-.13-.16-.14h0s0-.07-.09-.07a.11.11,0,0,0,0-.08h-.42A2.57,2.57,0,0,0,11.64,1.6h-.06A3.3,3.3,0,0,1,12.39.14h.07l.1-.09h-.11a.3.3,0,0,0-.17.08h.05c.05,0-.17.12-.24.13h0a.76.76,0,0,0-.18.09h0l-.15.11s-.1.08-.1.12-.09.09-.13.12h0a.47.47,0,0,1-.1.1.44.44,0,0,1-.08.11h0a.11.11,0,0,0,0,.08h0a.85.85,0,0,0-.14.19h0l-.08.1h0a.35.35,0,0,0-.06.14v.07h0a.63.63,0,0,1-.09.14h0V1.8c0,.06,0,.15-.08.1s0,0,0,.07A.37.37,0,0,1,11,1.79v.06s0-.13,0-.16a.11.11,0,0,0,0,.08h0a.22.22,0,0,1,0-.21c0,.05,0-.06.05,0h0S11,1.72,11,1.8v0A1.23,1.23,0,0,0,11,2s-.06.09-.08.06,0,0,0,.1,0-.06-.05-.08h0s.12.09.14,0A.09.09,0,0,1,11,2a2.32,2.32,0,0,0,.66,2,.31.31,0,0,0,.11.09h-.09s.1.1.1.14l.13.06h0a4,4,0,0,1,.47.22,1.33,1.33,0,0,0,.48.14h.79s.2,0,.16-.12.06,0,0,0h.21l.19-.07a.24.24,0,0,0,.19-.13s0,0,.07,0v.05l.1-.06h.22l.06-.06h0a3,3,0,0,0,.49-.57s.09-.16,0-.17h0V3.42c0-.08.1-.06,0,.06l.07-.08c.06,0,.09-.06.11-.14A2.25,2.25,0,0,1,15.66,3h0c.08-.13,0-.31.07-.33h0a.34.34,0,0,0,.06-.26h0M12,.29l.06.06L12,.39h0v0h0a.38.38,0,0,1,0-.15M11.76.6l-.08.06h.08m-.7.68h0m-.09.8h0m.21-.73h0c0-.08.07-.14.07-.16a.13.13,0,0,1-.06.07V1.26c0-.06,0,.1-.06.16s-.07,0-.07,0a.14.14,0,0,1,.07-.12.2.2,0,0,0,.11-.11V1.08A.23.23,0,0,1,11.41,1a3,3,0,0,0-.27.42m3.4,3.14Zm0-4.07h0l.07.08h0"/><path class="cls-1" d="M15.63,16.88h0c-.07-.17-.12-.33-.18-.49a1.22,1.22,0,0,0-.24-.45h0v-.09l-.1,0h0a3.72,3.72,0,0,1-.33-.34c-.08-.11,0,0-.07,0s0,0,0-.06-.07-.06-.05-.06-.17-.11-.19,0,0-.06,0-.06a.57.57,0,0,1-.18-.12L14.12,15a.37.37,0,0,0-.23-.05h-.06a.13.13,0,0,1-.11-.06h0s.12,0,0,0-.06-.06-.09,0h-.08a2.38,2.38,0,0,0-.75.06s-.18,0-.14.09h0c.06,0,0,.05-.06.05s-.11,0,0-.07h-.29a.94.94,0,0,1-.22.12h0c-.14,0-.25.18-.28.18h0a.34.34,0,0,0-.22.15h0a.24.24,0,0,0-.15.09h0l-.1.1a.16.16,0,0,1-.07.12c-.07.05-.11.1-.08.15s-.1.09-.14.13h0c-.07,0-.07.16-.1.22h0s-.12.2-.11.24,0,0,0,.05-.08,0-.08.09h0s.08.14.05.18h0v.21h0v.2h0v.13h0v.44h0a.08.08,0,0,0,0,.11s-.09,0-.06.14h0v.22h0s.09.11,0,.1l.17.29a.65.65,0,0,0,.15.18.12.12,0,0,0,.06.1h0a1.42,1.42,0,0,0,.08.18c0-.06,0,0,.06,0s0,.06,0,.08h0a.23.23,0,0,0,.07.07h0a1.58,1.58,0,0,1,.1.16s.06.07.11,0h0l.06.06h.23v-.07l.11.06h.12A2.57,2.57,0,0,0,14.6,18.2h.05A3.17,3.17,0,0,1,14,19.49l.17-.09h0l.16-.11h.11l.06-.08c.06-.08,0,.07,0,.09s.06,0,.07,0,0-.15-.07-.13a.09.09,0,0,1-.08.06,2.35,2.35,0,0,0,.91-1.85v-.14s.07.07.09,0h0v-.16l-.06-.14h0m-4.76.9h0v-.1h0v.05h0m.58,1.15v-.09l.05,0h-.05m2.31-4.07h0m.83,4.28Z"/><path class="cls-1" d="M5.12,17.08h0c-.07-.16-.12-.32-.18-.49a1.26,1.26,0,0,0-.24-.44h0v-.09H4.6a3.72,3.72,0,0,1-.33-.34c-.08-.11,0,0-.07,0s0,0,0-.06-.07-.07,0-.07-.18-.11-.21,0,0-.06,0,0l-.11-.08H3.54A2.56,2.56,0,0,0,1,16.66H1a3.08,3.08,0,0,1,.93-1.54.2.2,0,0,0-.15,0,.94.94,0,0,1-.22.12h0c-.14,0-.25.18-.28.19h0a.43.43,0,0,0-.23.14h0a.19.19,0,0,0-.14.09h0a.52.52,0,0,0-.1.11.15.15,0,0,1-.07.11c-.07,0-.11.11-.08.15s-.1.1-.14.14h0c-.08,0-.07.16-.1.21h0a1.61,1.61,0,0,0-.12.23v.06c0,.06-.08,0-.08.09h0s.08.15,0,.19h0v.2h0v.21h0v.12h0v.17a.06.06,0,0,0,0,.06v.22h0V18c0,.05-.09,0-.06.14h0v.05h0a.46.46,0,0,0,.06.21h0s.09.11,0,.1.12.19.18.28A.4.4,0,0,0,.55,19a.11.11,0,0,0,.06.09h0c0,.1,0,.07.08.18,0-.05,0-.05.06,0v.09h0a.12.12,0,0,0,.07.07h0a1.94,1.94,0,0,1,.1.17s.06.06.11,0H1l.06.05h0a.06.06,0,0,1,.06,0,.42.42,0,0,1,.16.09.24.24,0,0,0,.18.07H1.44a.35.35,0,0,1,.27.07h0a.64.64,0,0,0,.18.06h.18a.22.22,0,0,0,.16,0H3.42a.29.29,0,0,0,.13-.05h.07c-.08,0,0,0,0-.06h.21a.3.3,0,0,0,.11-.13c0,.09.13-.08.12,0s0,0,0-.07-.13.06-.19.08h0a.6.6,0,0,1-.13.08.1.1,0,0,0,.06-.05h0a.31.31,0,0,1-.19.06h0a.94.94,0,0,0,.22-.12h0L4,19.58h.1s0,0,.07-.08,0,.07,0,.09.06,0,.06,0,0-.14-.06-.12a.11.11,0,0,1-.09.06A2.33,2.33,0,0,0,5,17.46v-.14s.07.06.09,0h0v-.17L5,17H5M.36,18h0v-.1h0m.58,1.15v0h0m.75.54h0a.38.38,0,0,1-.09-.15l.12.07.06.12H1.72m.57.13H2.12v-.08h.14m.34,0h0m.74,0a.22.22,0,0,0-.16,0h0a.25.25,0,0,1-.18.1,2.68,2.68,0,0,0,.49-.11h0l-.16.07h0a.47.47,0,0,1,.15-.06c.07,0,.06,0,0,.08a.17.17,0,0,1-.14,0m.15,0h0m.59-.48Z"/><g class="cls-2"><g class="cls-2"><path class="cls-3" d="M36.71,12.06a2.84,2.84,0,0,1,0-.5,4.12,4.12,0,0,1,.07-.46.06.06,0,0,1,.06,0s0,0,0,0a1.75,1.75,0,0,0,.35,1,1.11,1.11,0,0,0,.9.38,1.25,1.25,0,0,0,.9-.3,1,1,0,0,0,.31-.75,1.23,1.23,0,0,0-.08-.49A1.32,1.32,0,0,0,39,10.6a1.92,1.92,0,0,0-.41-.31L38.06,10a3.52,3.52,0,0,1-.46-.28,2,2,0,0,1-.39-.37,1.8,1.8,0,0,1-.27-.47,1.78,1.78,0,0,1-.09-.59,1.31,1.31,0,0,1,.45-1,1.64,1.64,0,0,1,1.16-.38,3.48,3.48,0,0,1,.49,0,1.55,1.55,0,0,1,.34.08.48.48,0,0,1,.25.17.5.5,0,0,1,.07.35c0,.06,0,.17,0,.31s0,.26,0,.35,0,.05-.06.05,0,0,0-.05a1.79,1.79,0,0,0-.09-.4,1,1,0,0,0-.21-.35.87.87,0,0,0-.32-.24,1.06,1.06,0,0,0-.45-.09,1.12,1.12,0,0,0-.74.24.92.92,0,0,0-.28.73,1.09,1.09,0,0,0,.29.78,2.48,2.48,0,0,0,.7.51,6.35,6.35,0,0,1,.71.42,2.13,2.13,0,0,1,.5.42,1.64,1.64,0,0,1,.27.48,2,2,0,0,1,.07.58,1.48,1.48,0,0,1-.15.61,1.3,1.3,0,0,1-.38.46,1.62,1.62,0,0,1-.55.3,2.28,2.28,0,0,1-.7.1,3.28,3.28,0,0,1-.6-.05,3.6,3.6,0,0,1-.42-.13.71.71,0,0,1-.25-.2A.53.53,0,0,1,36.71,12.06Z"/><path class="cls-3" d="M43.21,10v.35c0,.15,0,.3,0,.47s0,.32,0,.47v.34a4.14,4.14,0,0,0,0,.46.77.77,0,0,0,.09.27.35.35,0,0,0,.18.13,2.16,2.16,0,0,0,.32.05s.06,0,.06.05,0,0-.06,0l-.5,0h-.9l-.48,0a0,0,0,0,1,0,0s0-.05,0-.05l.27-.06a.36.36,0,0,0,.18-.12.71.71,0,0,0,.09-.26,4.13,4.13,0,0,0,0-.47v-.34c0-.15,0-.31,0-.47s0-.32,0-.47V9.43c0-.19,0-.37,0-.54s0-.33,0-.47V8.1a3.31,3.31,0,0,0-.05-.54.57.57,0,0,0-.1-.28.27.27,0,0,0-.17-.13l-.26,0a0,0,0,0,1,0-.05s0,0,0,0h1.75a0,0,0,0,1,.05,0s0,0-.05.05l-.24.06a.29.29,0,0,0-.15.12.84.84,0,0,0-.09.28,3.6,3.6,0,0,0,0,.53c0,.07,0,.17,0,.32V10Z"/><path class="cls-3" d="M49.09,12l-.22-.38-.29-.49-.33-.53-.33-.54-.29.46c-.1.17-.2.33-.29.5l-.28.49-.23.4a.67.67,0,0,0-.12.4c0,.08.15.14.39.16a.06.06,0,0,1,.06.05s0,0-.06,0l-.42,0h-.76l-.46,0a0,0,0,0,1-.05,0s0,0,.05-.05a1.19,1.19,0,0,0,.42-.11,1.21,1.21,0,0,0,.41-.41L47,10.92c.26-.38.5-.75.73-1.11l-.36-.58L47,8.65l-.36-.55-.31-.49-.17-.23A.52.52,0,0,0,46,7.24a.56.56,0,0,0-.17-.09l-.22,0a.06.06,0,0,1-.06-.05s0,0,.06,0l.44,0h.84l.48,0s.06,0,.05,0a0,0,0,0,1-.05.05c-.2,0-.32.07-.34.14a.49.49,0,0,0,.09.33l.45.82.53.91q.25-.41.48-.81c.15-.27.29-.53.42-.79a1.38,1.38,0,0,0,.13-.31.27.27,0,0,0,0-.17s0-.06-.09-.08l-.19,0s0,0,0-.05,0,0,0,0H50l.38,0s.06,0,.06,0,0,.05-.06.05l-.18,0a.36.36,0,0,0-.17.07,1.12,1.12,0,0,0-.19.15,2.33,2.33,0,0,0-.21.27l-.7,1c-.22.33-.42.64-.59.92l.38.6.42.67.41.64.36.53a1.67,1.67,0,0,0,.36.38.71.71,0,0,0,.37.12,0,0,0,0,1,0,.05s0,0,0,0l-.44,0h-.81l-.45,0a0,0,0,0,1,0,0s0-.05,0-.05c.18,0,.27-.06.29-.14A.56.56,0,0,0,49.09,12Z"/><path class="cls-3" d="M55.51,12.06a2.84,2.84,0,0,1,0-.5,4.12,4.12,0,0,1,.07-.46.06.06,0,0,1,.06,0s0,0,0,0a1.75,1.75,0,0,0,.35,1,1.11,1.11,0,0,0,.9.38,1.25,1.25,0,0,0,.9-.3,1,1,0,0,0,.32-.75,1.22,1.22,0,0,0-.09-.49,1.32,1.32,0,0,0-.25-.38,1.92,1.92,0,0,0-.41-.31L56.86,10a3.52,3.52,0,0,1-.46-.28A2,2,0,0,1,56,9.33a1.8,1.8,0,0,1-.27-.47,1.78,1.78,0,0,1-.09-.59,1.34,1.34,0,0,1,.45-1,1.64,1.64,0,0,1,1.16-.38,3.73,3.73,0,0,1,.5,0,1.59,1.59,0,0,1,.33.08.48.48,0,0,1,.25.17.5.5,0,0,1,.07.35c0,.06,0,.17,0,.31s0,.26,0,.35,0,.05-.06.05,0,0,0-.05a1.37,1.37,0,0,0-.09-.4,1.19,1.19,0,0,0-.2-.35,1,1,0,0,0-.33-.24,1.06,1.06,0,0,0-.45-.09,1.12,1.12,0,0,0-.74.24.92.92,0,0,0-.28.73,1.09,1.09,0,0,0,.29.78,2.48,2.48,0,0,0,.7.51,6.55,6.55,0,0,1,.72.42,2.29,2.29,0,0,1,.49.42,1.64,1.64,0,0,1,.27.48,2,2,0,0,1,.07.58,1.48,1.48,0,0,1-.15.61,1.39,1.39,0,0,1-.37.46,1.77,1.77,0,0,1-.56.3,2.28,2.28,0,0,1-.7.1,3.28,3.28,0,0,1-.6-.05,3.6,3.6,0,0,1-.42-.13.71.71,0,0,1-.25-.2A.53.53,0,0,1,55.51,12.06Z"/><path class="cls-3" d="M62,9.84v1.41c0,.17,0,.33,0,.48a1.39,1.39,0,0,0,0,.32.26.26,0,0,0,.1.16.29.29,0,0,0,.17.07,1.19,1.19,0,0,0,.29,0h.76a1,1,0,0,0,.46-.09.81.81,0,0,0,.28-.23,1,1,0,0,0,.17-.33l.09-.41a.06.06,0,0,1,.06-.05s0,0,0,.05v.59a2.48,2.48,0,0,1,0,.29,1.27,1.27,0,0,1,0,.22.28.28,0,0,1-.15.21.91.91,0,0,1-.38.06l-.91,0-1.22,0h-1s-.06,0-.05,0a0,0,0,0,1,.05-.05,1.72,1.72,0,0,0,.29-.05.37.37,0,0,0,.17-.13.51.51,0,0,0,.09-.27,4.14,4.14,0,0,0,0-.46c0-.32,0-.63,0-.94V8.9c0-.25,0-.52,0-.81s0-.34,0-.46a1,1,0,0,0-.07-.29.32.32,0,0,0-.19-.15,1.13,1.13,0,0,0-.34-.08.06.06,0,0,1-.06-.05s0,0,.06,0l.53,0h2.41A1.15,1.15,0,0,1,64,7c.07,0,.1.09.09.2s0,.25,0,.4L64,8.1a.06.06,0,0,1-.06.05s0,0,0-.05a1,1,0,0,0-.14-.55.55.55,0,0,0-.47-.23l-.31,0H62c0,.38,0,.74,0,1.1V9.54l.68,0c.27,0,.55,0,.82,0l.15,0,.09,0,0,0h0a0,0,0,0,1,0,.05s0,.09,0,.18,0,.21-.05.32,0,.18,0,.23a.07.07,0,0,1-.07,0s0,0,0,0a.41.41,0,0,0,0-.21.25.25,0,0,0-.12-.11.74.74,0,0,0-.19-.05H62Z"/><path class="cls-3" d="M71.92,7.82c0,.35,0,.7,0,1l0,1.08c0,.38,0,.77,0,1.19V12.5c0,.08,0,.14,0,.16a.05.05,0,0,1,0,0,.06.06,0,0,1-.07,0l-.13-.14c-.14-.17-.29-.33-.44-.5l-.5-.55-.6-.62c-.21-.23-.46-.48-.74-.75L68.18,9c-.34-.35-.6-.61-.79-.78v.69c0,.28,0,.6,0,.94s0,.68,0,1,0,.69,0,1a.75.75,0,0,0,.16.44.86.86,0,0,0,.56.21,0,0,0,0,1,0,.05s0,0,0,0l-.55,0h-.73l-.38,0s-.06,0,0,0a0,0,0,0,1,0-.05.63.63,0,0,0,.34-.15A.77.77,0,0,0,67,11.9c0-.25,0-.53,0-.82s0-.58,0-.86,0-.57,0-.82V7.94c0-.28,0-.55,0-.81a.49.49,0,0,1,0-.14s0,0,0,0,0,0,0,0a.89.89,0,0,1,.14.12c.33.37.69.76,1.06,1.15s.78.81,1.23,1.26l1.08,1.08c.32.33.6.6.85.83V9.75c0-.58,0-1.18,0-1.81a3.35,3.35,0,0,0,0-.4.43.43,0,0,0-.09-.24.34.34,0,0,0-.18-.12,1.33,1.33,0,0,0-.3-.07s0,0-.05-.05a0,0,0,0,1,.05,0H72l.38,0a0,0,0,0,1,0,0s0,.05,0,.05a.43.43,0,0,0-.35.22A1.24,1.24,0,0,0,71.92,7.82Z"/><path class="cls-3" d="M74.65,12.06a2.84,2.84,0,0,1,0-.5,4.12,4.12,0,0,1,.07-.46s0,0,.06,0,0,0,0,0a1.82,1.82,0,0,0,.35,1,1.11,1.11,0,0,0,.9.38,1.25,1.25,0,0,0,.9-.3,1,1,0,0,0,.32-.75,1.22,1.22,0,0,0-.09-.49A1.14,1.14,0,0,0,77,10.6a1.92,1.92,0,0,0-.41-.31L76,10a4.34,4.34,0,0,1-.46-.28,2,2,0,0,1-.39-.37,1.54,1.54,0,0,1-.26-.47,1.38,1.38,0,0,1-.09-.59,1.33,1.33,0,0,1,.44-1,1.68,1.68,0,0,1,1.17-.38,3.58,3.58,0,0,1,.49,0,1.9,1.9,0,0,1,.34.08.58.58,0,0,1,.25.17.56.56,0,0,1,.06.35c0,.06,0,.17,0,.31s0,.26,0,.35,0,.05,0,.05,0,0,0-.05a1.37,1.37,0,0,0-.09-.4,1.19,1.19,0,0,0-.2-.35,1,1,0,0,0-.33-.24,1.21,1.21,0,0,0-1.18.15.93.93,0,0,0-.29.73,1.09,1.09,0,0,0,.29.78,2.63,2.63,0,0,0,.7.51,5.73,5.73,0,0,1,.72.42,2.29,2.29,0,0,1,.49.42,1.64,1.64,0,0,1,.27.48,1.74,1.74,0,0,1,.07.58,1.48,1.48,0,0,1-.15.61,1.39,1.39,0,0,1-.37.46,1.67,1.67,0,0,1-.56.3,2.28,2.28,0,0,1-.7.1,3.28,3.28,0,0,1-.6-.05,4.33,4.33,0,0,1-.42-.13.82.82,0,0,1-.25-.2A.53.53,0,0,1,74.65,12.06Z"/><path class="cls-3" d="M81.14,9.84v.9c0,.17,0,.34,0,.51s0,.33,0,.48a2.13,2.13,0,0,0,0,.32.22.22,0,0,0,.09.16.3.3,0,0,0,.18.07,1.1,1.1,0,0,0,.28,0h.76a1,1,0,0,0,.46-.09,1,1,0,0,0,.29-.23,1.26,1.26,0,0,0,.16-.33c0-.13.07-.27.1-.41s0-.05.06-.05,0,0,0,.05v.59c0,.11,0,.2,0,.29s0,.16,0,.22a.28.28,0,0,1-.15.21.91.91,0,0,1-.38.06l-.91,0-1.21,0h-1s0,0,0,0a0,0,0,0,1,0-.05,1.55,1.55,0,0,0,.29-.05.4.4,0,0,0,.18-.13.77.77,0,0,0,.09-.27,4.59,4.59,0,0,0,0-.46c0-.32,0-.63,0-.94V8.9c0-.25,0-.52,0-.81s0-.34,0-.46a.77.77,0,0,0-.07-.29.34.34,0,0,0-.18-.15,1.21,1.21,0,0,0-.35-.08,0,0,0,0,1,0-.05s0,0,0,0l.53,0h2.41a1.19,1.19,0,0,1,.31,0c.06,0,.09.09.08.2s0,.25,0,.4a3.87,3.87,0,0,1-.06.46.06.06,0,0,1-.06.05s0,0,0-.05a1,1,0,0,0-.14-.55.55.55,0,0,0-.47-.23l-.3,0h-.94c0,.38,0,.74,0,1.1V9.54l.69,0q.4,0,.81,0l.16,0,.08,0,0,0h0s0,0,0,.05a1.06,1.06,0,0,0,0,.18c0,.1,0,.21,0,.32l0,.23a.05.05,0,0,1-.06,0s0,0,0,0a.41.41,0,0,0,0-.21.22.22,0,0,0-.12-.11l-.18-.05H81.14Z"/><path class="cls-3" d="M85.73,12.06a2.84,2.84,0,0,1,0-.5,4.12,4.12,0,0,1,.07-.46.06.06,0,0,1,.06,0s0,0,0,0a1.82,1.82,0,0,0,.35,1,1.11,1.11,0,0,0,.9.38,1.25,1.25,0,0,0,.9-.3,1,1,0,0,0,.32-.75,1.22,1.22,0,0,0-.09-.49A1.32,1.32,0,0,0,88,10.6a1.92,1.92,0,0,0-.41-.31L87.08,10a3.52,3.52,0,0,1-.46-.28,2,2,0,0,1-.39-.37A1.8,1.8,0,0,1,86,8.86a1.56,1.56,0,0,1-.08-.59,1.33,1.33,0,0,1,.44-1,1.67,1.67,0,0,1,1.17-.38,3.58,3.58,0,0,1,.49,0,1.59,1.59,0,0,1,.33.08.56.56,0,0,1,.26.17.56.56,0,0,1,.06.35c0,.06,0,.17,0,.31s0,.26,0,.35,0,.05-.06.05,0,0,0-.05a1.37,1.37,0,0,0-.09-.4,1.19,1.19,0,0,0-.2-.35,1,1,0,0,0-.33-.24,1.06,1.06,0,0,0-.45-.09,1.12,1.12,0,0,0-.74.24,1,1,0,0,0-.28.73,1.09,1.09,0,0,0,.29.78,2.48,2.48,0,0,0,.7.51,5.73,5.73,0,0,1,.72.42,2.29,2.29,0,0,1,.49.42,1.64,1.64,0,0,1,.27.48,2,2,0,0,1,.07.58,1.48,1.48,0,0,1-.15.61,1.39,1.39,0,0,1-.37.46,1.67,1.67,0,0,1-.56.3,2.28,2.28,0,0,1-.7.1,3.28,3.28,0,0,1-.6-.05,3.6,3.6,0,0,1-.42-.13.71.71,0,0,1-.25-.2A.53.53,0,0,1,85.73,12.06Z"/><path class="cls-3" d="M94.74,11.54c0-.33,0-.64,0-.95V8.74c0-.14,0-.28,0-.43s0-.31,0-.48a.86.86,0,0,0-.15-.53.69.69,0,0,0-.48-.19s0,0-.06-.05,0,0,.06,0H95l.53,0c.21,0,.41,0,.6,0a2.59,2.59,0,0,1,.94.17,1.33,1.33,0,0,1,.54.38,1.21,1.21,0,0,1,.24.48,2,2,0,0,1,.06.45,1.55,1.55,0,0,1-.26.89,1.91,1.91,0,0,1-.75.64l.33.49c.15.22.33.45.53.71s.4.48.55.65a3.5,3.5,0,0,0,.46.42.94.94,0,0,0,.35.17l.3.05s.06,0,.06.05,0,0-.06,0h-.65l-.19,0a1.42,1.42,0,0,1-.42-.11,1.56,1.56,0,0,1-.35-.24,3.11,3.11,0,0,1-.38-.41c-.13-.17-.29-.38-.46-.64s-.27-.38-.37-.54-.21-.32-.3-.47a3.54,3.54,0,0,1-.92,0c0,.31,0,.58,0,.82s0,.42,0,.55a4.81,4.81,0,0,0,0,.5.52.52,0,0,0,.09.28.36.36,0,0,0,.18.14,2,2,0,0,0,.32.05s.06,0,.06.05,0,0-.06,0l-.53,0-.41,0-.42,0-.5,0c-.05,0-.06,0-.06,0a.06.06,0,0,1,.06-.05l.28-.05a.36.36,0,0,0,.18-.12.66.66,0,0,0,.09-.28A4.8,4.8,0,0,0,94.74,11.54Zm2.53-2.85a1.69,1.69,0,0,0-.29-1,1.16,1.16,0,0,0-.92-.45h-.69v.41c0,.14,0,.3,0,.5V9.87a4,4,0,0,0,.51.06,3.88,3.88,0,0,0,.58,0,.75.75,0,0,0,.37-.13,1,1,0,0,0,.26-.29,1.35,1.35,0,0,0,.14-.37A2,2,0,0,0,97.27,8.69Z"/><path class="cls-3" d="M101.79,9.84v1.41c0,.17,0,.33,0,.48a2.13,2.13,0,0,0,0,.32.26.26,0,0,0,.1.16.29.29,0,0,0,.17.07,1.19,1.19,0,0,0,.29,0h.76a1,1,0,0,0,.45-.09.85.85,0,0,0,.29-.23,1,1,0,0,0,.16-.33c0-.13.07-.27.1-.41a.06.06,0,0,1,.06-.05,0,0,0,0,1,0,.05v.59c0,.11,0,.2,0,.29a1.27,1.27,0,0,1,0,.22.28.28,0,0,1-.15.21.91.91,0,0,1-.38.06l-.91,0-1.22,0h-1a0,0,0,0,1,0,0s0-.05,0-.05a1.86,1.86,0,0,0,.3-.05.37.37,0,0,0,.17-.13.77.77,0,0,0,.09-.27,4.14,4.14,0,0,0,0-.46c0-.32,0-.63,0-.94V8.9c0-.25,0-.52,0-.81s0-.34,0-.46a.62.62,0,0,0-.07-.29.34.34,0,0,0-.18-.15,1.13,1.13,0,0,0-.34-.08.06.06,0,0,1-.06-.05s0,0,.06,0l.52,0h2.42a1.15,1.15,0,0,1,.3,0c.07,0,.1.09.09.2s0,.25,0,.4l-.06.46a.06.06,0,0,1-.06.05s-.06,0,0-.05a1.09,1.09,0,0,0-.14-.55.57.57,0,0,0-.47-.23l-.31,0h-.93c0,.38,0,.74,0,1.1V9.54l.68,0,.82,0,.15,0,.08,0s0,0,0,0h0s0,0,0,.05,0,.09,0,.18,0,.21,0,.32,0,.18,0,.23a.08.08,0,0,1-.07,0s0,0,0,0a.56.56,0,0,0,0-.21.25.25,0,0,0-.12-.11.74.74,0,0,0-.19-.05h-1.26Z"/><path class="cls-3" d="M106.38,12.06a2.84,2.84,0,0,1,0-.5,2.63,2.63,0,0,1,.07-.46.06.06,0,0,1,.06,0,0,0,0,0,1,0,0,1.75,1.75,0,0,0,.35,1,1.11,1.11,0,0,0,.9.38,1.25,1.25,0,0,0,.9-.3,1,1,0,0,0,.31-.75,1.23,1.23,0,0,0-.08-.49,1.32,1.32,0,0,0-.25-.38,2.2,2.2,0,0,0-.41-.31l-.55-.31a4.48,4.48,0,0,1-.47-.28,2.22,2.22,0,0,1-.38-.37,1.8,1.8,0,0,1-.27-.47,1.56,1.56,0,0,1-.09-.59,1.31,1.31,0,0,1,.45-1,1.64,1.64,0,0,1,1.16-.38,3.48,3.48,0,0,1,.49,0A1.71,1.71,0,0,1,109,7a.53.53,0,0,1,.25.17.5.5,0,0,1,.07.35c0,.06,0,.17,0,.31s0,.26,0,.35,0,.05,0,.05,0,0,0-.05a1.37,1.37,0,0,0-.09-.4,1,1,0,0,0-.52-.59,1.23,1.23,0,0,0-1.19.15.92.92,0,0,0-.28.73,1.08,1.08,0,0,0,.28.78,2.69,2.69,0,0,0,.71.51,6.35,6.35,0,0,1,.71.42,2.07,2.07,0,0,1,.49.42,1.29,1.29,0,0,1,.27.48,1.52,1.52,0,0,1,.07.58,1.34,1.34,0,0,1-.14.61,1.42,1.42,0,0,1-.38.46,1.58,1.58,0,0,1-.56.3,2.19,2.19,0,0,1-.7.1,3.25,3.25,0,0,1-.59-.05,3.6,3.6,0,0,1-.42-.13.75.75,0,0,1-.26-.2A.61.61,0,0,1,106.38,12.06Z"/><path class="cls-3" d="M112.88,10v.35c0,.15,0,.3,0,.47s0,.32,0,.47v.34a4.14,4.14,0,0,0,0,.46.77.77,0,0,0,.09.27.35.35,0,0,0,.18.13,2,2,0,0,0,.32.05s.06,0,.06.05,0,0-.06,0l-.5,0h-.9l-.48,0a.05.05,0,1,1,0-.1l.27-.06a.36.36,0,0,0,.18-.12.71.71,0,0,0,.09-.26,4.13,4.13,0,0,0,0-.47v-.34c0-.15,0-.31,0-.47s0-.32,0-.47V9.43c0-.19,0-.37,0-.54s0-.33,0-.47V8.1a3.31,3.31,0,0,0,0-.54.69.69,0,0,0-.1-.28.3.3,0,0,0-.17-.13l-.26,0a0,0,0,0,1-.05-.05s0,0,.05,0h1.75a0,0,0,0,1,0,0,.06.06,0,0,1,0,.05l-.24.06a.26.26,0,0,0-.15.12.84.84,0,0,0-.09.28,5.28,5.28,0,0,0,0,.53V10Z"/><path class="cls-3" d="M121.17,9.8a3,3,0,0,1-.21,1.14,2.79,2.79,0,0,1-.62.9,3,3,0,0,1-1,.6,3.62,3.62,0,0,1-1.26.21,9.21,9.21,0,0,1-1,0l-.66,0h-1.05s0,0,0,0,0,0,0-.05a1.49,1.49,0,0,0,.41-.09.39.39,0,0,0,.21-.19.85.85,0,0,0,.09-.35c0-.15,0-.34,0-.58V11c0-.15,0-.3,0-.47V8.69c0-.32,0-.56,0-.72a3.53,3.53,0,0,0,0-.41.64.64,0,0,0-.11-.25.48.48,0,0,0-.2-.14,1.13,1.13,0,0,0-.3-.06.05.05,0,0,1,0-.1H118a3.39,3.39,0,0,1,2.33.73A2.64,2.64,0,0,1,121.17,9.8Zm-.7,0a3.06,3.06,0,0,0-.18-1.08,2.23,2.23,0,0,0-.5-.78,2.19,2.19,0,0,0-.76-.5,3.28,3.28,0,0,0-1-.22l-.79,0-.43,0v2.89c0,.46,0,.84,0,1.15s0,.53,0,.67a1.46,1.46,0,0,0,0,.2.32.32,0,0,0,.15.1,3.13,3.13,0,0,0,.44.11,3.9,3.9,0,0,0,.64,0,2.49,2.49,0,0,0,1-.2,2.1,2.1,0,0,0,1.16-1.37A3.55,3.55,0,0,0,120.47,9.85Z"/><path class="cls-3" d="M124.34,9.84v1.41c0,.17,0,.33,0,.48a2.33,2.33,0,0,0,0,.32.26.26,0,0,0,.1.16.3.3,0,0,0,.18.07,1.1,1.1,0,0,0,.28,0h.76a1,1,0,0,0,.46-.09,1,1,0,0,0,.29-.23,1.26,1.26,0,0,0,.16-.33c0-.13.07-.27.1-.41s0-.05.06-.05,0,0,0,.05v.59c0,.11,0,.2,0,.29s0,.16,0,.22a.28.28,0,0,1-.15.21.91.91,0,0,1-.38.06l-.91,0-1.22,0h-1s-.06,0,0,0a0,0,0,0,1,0-.05,1.55,1.55,0,0,0,.29-.05.46.46,0,0,0,.18-.13.77.77,0,0,0,.09-.27,4.59,4.59,0,0,0,0-.46c0-.32,0-.63,0-.94V8.9c0-.25,0-.52,0-.81s0-.34,0-.46a.77.77,0,0,0-.07-.29.34.34,0,0,0-.18-.15,1.21,1.21,0,0,0-.35-.08,0,0,0,0,1,0-.05s0,0,0,0l.53,0H126a1.19,1.19,0,0,1,.31,0c.06,0,.09.09.08.2s0,.25,0,.4a3.87,3.87,0,0,1-.06.46.06.06,0,0,1-.06.05s0,0,0-.05a1,1,0,0,0-.14-.55.55.55,0,0,0-.47-.23l-.3,0h-.94c0,.38,0,.74,0,1.1V9.54l.68,0c.27,0,.55,0,.82,0l.16,0,.08,0,0,0h0s0,0,0,.05a1.06,1.06,0,0,0,0,.18c0,.1,0,.21-.05.32a2.07,2.07,0,0,1,0,.23.05.05,0,0,1-.06,0s0,0,0,0a.41.41,0,0,0,0-.21.25.25,0,0,0-.12-.11l-.18-.05h-1.27Z"/><path class="cls-3" d="M134.26,7.82c0,.35,0,.7,0,1s0,.71,0,1.08,0,.77,0,1.19V12.5a.58.58,0,0,1,0,.16.05.05,0,0,1,0,0,.06.06,0,0,1-.07,0l-.13-.14c-.14-.17-.29-.33-.44-.5l-.5-.55-.59-.62-.74-.75L130.52,9c-.33-.35-.6-.61-.79-.78,0,.17,0,.4,0,.69s0,.6,0,.94,0,.68,0,1,0,.69,0,1a.83.83,0,0,0,.16.44.89.89,0,0,0,.56.21.06.06,0,0,1,.06.05s0,0-.06,0l-.55,0h-.73l-.38,0s-.05,0-.05,0a0,0,0,0,1,.05-.05.6.6,0,0,0,.34-.15.7.7,0,0,0,.13-.45c0-.25,0-.53,0-.82l0-.86c0-.29,0-.57,0-.82V7s0,0,0,0,0,0,.06,0l.13.12c.34.37.69.76,1.06,1.15s.79.81,1.24,1.26L133,10.58c.32.33.61.6.85.83V9.75c0-.58,0-1.18,0-1.81,0-.16,0-.3,0-.4a.67.67,0,0,0-.09-.24.44.44,0,0,0-.18-.12,1.61,1.61,0,0,0-.31-.07s0,0,0-.05,0,0,0,0h1.12l.38,0s0,0,0,0,0,.05,0,.05a.45.45,0,0,0-.35.22A1.45,1.45,0,0,0,134.26,7.82Z"/><path class="cls-3" d="M139.81,6.89a5.56,5.56,0,0,1,.82.05,3.24,3.24,0,0,1,.76.18.71.71,0,0,1,.27.18.55.55,0,0,1,.09.34,3.64,3.64,0,0,1,0,.45c0,.16,0,.32,0,.49s0,.05-.06.05-.05,0-.05-.05a1.7,1.7,0,0,0-.2-.67,1.31,1.31,0,0,0-.39-.45,1.55,1.55,0,0,0-.55-.26,2.82,2.82,0,0,0-.65-.08,2.66,2.66,0,0,0-1,.17,1.85,1.85,0,0,0-.75.49,2.36,2.36,0,0,0-.47.84,3.45,3.45,0,0,0-.14,1.16,3.42,3.42,0,0,0,.22,1.23,2.17,2.17,0,0,0,.56.83,2.08,2.08,0,0,0,.79.48,2.94,2.94,0,0,0,.94.15,2.68,2.68,0,0,0,.74-.09,1.39,1.39,0,0,0,.51-.29,1.28,1.28,0,0,0,.32-.44,2.54,2.54,0,0,0,.16-.59s0-.06.05-.06a.05.05,0,0,1,.06.06c0,.1,0,.21,0,.33v.29a1.87,1.87,0,0,1,0,.38.68.68,0,0,1-.08.22.43.43,0,0,1-.14.13l-.2.1a2.72,2.72,0,0,1-.51.15,4.65,4.65,0,0,1-.92.07,4,4,0,0,1-1.34-.2,2.81,2.81,0,0,1-1-.57,2.4,2.4,0,0,1-.64-.9,3,3,0,0,1-.22-1.18,3.41,3.41,0,0,1,.21-1.23,2.55,2.55,0,0,1,.61-1,2.78,2.78,0,0,1,1-.6A3.87,3.87,0,0,1,139.81,6.89Z"/><path class="cls-3" d="M145,9.84v.9c0,.17,0,.34,0,.51s0,.33,0,.48a2.13,2.13,0,0,0,0,.32.31.31,0,0,0,.09.16.36.36,0,0,0,.18.07,1.19,1.19,0,0,0,.29,0h.75a1,1,0,0,0,.46-.09.85.85,0,0,0,.29-.23,1.26,1.26,0,0,0,.16-.33c0-.13.07-.27.1-.41a.06.06,0,0,1,.06-.05,0,0,0,0,1,.05.05v.28c0,.11,0,.21,0,.31a2.62,2.62,0,0,1,0,.29c0,.09,0,.16,0,.22a.28.28,0,0,1-.15.21.88.88,0,0,1-.38.06l-.91,0-1.21,0h-1s-.05,0-.05,0a0,0,0,0,1,.05-.05,1.55,1.55,0,0,0,.29-.05.35.35,0,0,0,.18-.13.77.77,0,0,0,.09-.27,2.77,2.77,0,0,0,0-.46c0-.32,0-.63,0-.94V8.9c0-.25,0-.52,0-.81s0-.34,0-.46a.77.77,0,0,0-.07-.29.34.34,0,0,0-.18-.15,1.21,1.21,0,0,0-.35-.08s0,0-.05-.05,0,0,.05,0l.53,0h2.42a1.15,1.15,0,0,1,.3,0c.07,0,.1.09.08.2s0,.25,0,.4a3.87,3.87,0,0,1-.06.46s0,.05-.06.05,0,0,0-.05a1.2,1.2,0,0,0-.14-.55.59.59,0,0,0-.48-.23l-.3,0H145c0,.38,0,.74,0,1.1V9.54l.69,0,.82,0,.15,0,.08,0,0,0h0s0,0,0,.05a1.06,1.06,0,0,0,0,.18c0,.1,0,.21,0,.32l-.05.23a.05.05,0,0,1-.06,0s0,0,0,0a.41.41,0,0,0,0-.21.2.2,0,0,0-.11-.11l-.19-.05H145Z"/><path class="cls-3" d="M149.6,12.06a2.84,2.84,0,0,1,0-.5,4.12,4.12,0,0,1,.07-.46s0,0,.06,0,0,0,0,0a1.82,1.82,0,0,0,.35,1,1.11,1.11,0,0,0,.9.38,1.25,1.25,0,0,0,.9-.3,1,1,0,0,0,.32-.75,1.22,1.22,0,0,0-.09-.49,1.14,1.14,0,0,0-.25-.38,1.92,1.92,0,0,0-.41-.31L151,10a4.34,4.34,0,0,1-.46-.28,2,2,0,0,1-.39-.37,1.54,1.54,0,0,1-.26-.47,1.38,1.38,0,0,1-.09-.59,1.33,1.33,0,0,1,.44-1,1.68,1.68,0,0,1,1.17-.38,3.58,3.58,0,0,1,.49,0,1.9,1.9,0,0,1,.34.08.58.58,0,0,1,.25.17.56.56,0,0,1,.06.35c0,.06,0,.17,0,.31s0,.26,0,.35,0,.05,0,.05-.05,0-.05-.05a1.37,1.37,0,0,0-.09-.4,1,1,0,0,0-.2-.35,1.08,1.08,0,0,0-.32-.24,1.11,1.11,0,0,0-.46-.09,1.09,1.09,0,0,0-.73.24.93.93,0,0,0-.29.73,1.09,1.09,0,0,0,.29.78,2.63,2.63,0,0,0,.7.51,5.73,5.73,0,0,1,.72.42,2.29,2.29,0,0,1,.49.42,1.29,1.29,0,0,1,.27.48,1.74,1.74,0,0,1,.07.58,1.23,1.23,0,0,1-.15.61,1.28,1.28,0,0,1-.37.46,1.67,1.67,0,0,1-.56.3,2.24,2.24,0,0,1-.7.1,3.37,3.37,0,0,1-.6-.05l-.42-.13a.82.82,0,0,1-.25-.2A.62.62,0,0,1,149.6,12.06Z"/></g><g class="cls-2"><path class="cls-3" d="M161,6.89a5.51,5.51,0,0,1,.81.05,3.13,3.13,0,0,1,.76.18.71.71,0,0,1,.27.18.55.55,0,0,1,.09.34c0,.14,0,.29,0,.45s0,.32,0,.49a.07.07,0,0,1-.07.05s0,0,0-.05a1.7,1.7,0,0,0-.19-.67,1.46,1.46,0,0,0-.4-.45,1.47,1.47,0,0,0-.55-.26,2.69,2.69,0,0,0-.65-.08,2.57,2.57,0,0,0-1,.17,2,2,0,0,0-.76.49,2.2,2.2,0,0,0-.46.84,3.44,3.44,0,0,0-.15,1.16,3.41,3.41,0,0,0,.23,1.23,2.16,2.16,0,0,0,.55.83,2.08,2.08,0,0,0,.79.48,2.94,2.94,0,0,0,.94.15,2.75,2.75,0,0,0,.75-.09,1.58,1.58,0,0,0,.51-.29,1.25,1.25,0,0,0,.31-.44,2.13,2.13,0,0,0,.16-.59.06.06,0,0,1,.12,0c0,.1,0,.21,0,.33v.29a1.87,1.87,0,0,1,0,.38.66.66,0,0,1-.09.22.35.35,0,0,1-.14.13l-.19.1a2.64,2.64,0,0,1-.52.15,4.54,4.54,0,0,1-.91.07,4,4,0,0,1-1.34-.2,2.86,2.86,0,0,1-1-.57,2.51,2.51,0,0,1-.64-.9,3.18,3.18,0,0,1-.22-1.18,3.41,3.41,0,0,1,.21-1.23,2.57,2.57,0,0,1,.62-1,2.62,2.62,0,0,1,1-.6A3.79,3.79,0,0,1,161,6.89Z"/></g><g class="cls-2"><path class="cls-3" d="M170.62,9.7a3.17,3.17,0,0,1-.23,1.2,3,3,0,0,1-.62,1,2.91,2.91,0,0,1-2.12.87,3.65,3.65,0,0,1-1.18-.18,2.51,2.51,0,0,1-.93-.53,2.42,2.42,0,0,1-.62-.87,3.42,3.42,0,0,1-.26-1.21,2.88,2.88,0,0,1,.2-1.22,2.69,2.69,0,0,1,.64-1,3.23,3.23,0,0,1,1-.64,3.51,3.51,0,0,1,1.28-.22,2.9,2.9,0,0,1,1.21.23,2.69,2.69,0,0,1,1.45,1.54A3,3,0,0,1,170.62,9.7Zm-3.18-2.55a2.06,2.06,0,0,0-.9.21,1.79,1.79,0,0,0-.64.55,2.3,2.3,0,0,0-.38.82,4,4,0,0,0-.13,1.06,3.72,3.72,0,0,0,.16,1.09,2.62,2.62,0,0,0,.46.86,2,2,0,0,0,.73.55,2.12,2.12,0,0,0,1,.2,2.29,2.29,0,0,0,.92-.18,2.16,2.16,0,0,0,.7-.49,2.2,2.2,0,0,0,.44-.76,2.69,2.69,0,0,0,.16-1A4,4,0,0,0,169.77,9a2.65,2.65,0,0,0-.45-1,2.27,2.27,0,0,0-.77-.67A2,2,0,0,0,167.44,7.15Z"/><path class="cls-3" d="M178,7.82l0,1c0,.35,0,.71,0,1.08s0,.77,0,1.19,0,.88,0,1.37v.16s0,0,0,0a0,0,0,0,1-.06,0l-.13-.14-.45-.5-.5-.55-.59-.62-.74-.75L174.25,9a10.94,10.94,0,0,0-.79-.78c0,.17,0,.4,0,.69s0,.6,0,.94,0,.68,0,1,0,.69,0,1a.76.76,0,0,0,.17.44.84.84,0,0,0,.56.21s0,0,0,.05,0,0,0,0l-.55,0H173l-.39,0s0,0,0,0a0,0,0,0,1,0-.05.67.67,0,0,0,.35-.15.77.77,0,0,0,.13-.45c0-.25,0-.53,0-.82l0-.86c0-.29,0-.57,0-.82s0-.48,0-.67V7.94c0-.28,0-.55,0-.81V7s0,0,0,0,0,0,.06,0l.13.12c.34.37.69.76,1.07,1.15s.78.81,1.23,1.26l1.07,1.08.85.83V9.75c0-.58,0-1.18,0-1.81,0-.16,0-.3,0-.4a.67.67,0,0,0-.09-.24.44.44,0,0,0-.18-.12,1.67,1.67,0,0,0-.3-.07,0,0,0,0,1,0-.05s0,0,0,0h1.11l.38,0s.05,0,.05,0a0,0,0,0,1-.05.05.45.45,0,0,0-.35.22A1.45,1.45,0,0,0,178,7.82Z"/><path class="cls-3" d="M189.32,9.8a3,3,0,0,1-.21,1.14,2.79,2.79,0,0,1-.62.9,3,3,0,0,1-1,.6,3.62,3.62,0,0,1-1.26.21,9.21,9.21,0,0,1-1,0l-.66,0h-1s-.06,0-.05,0,0,0,.05-.05a1.58,1.58,0,0,0,.41-.09.39.39,0,0,0,.21-.19.85.85,0,0,0,.09-.35c0-.15,0-.34,0-.58,0-.07,0-.19,0-.33s0-.3,0-.47V8.69c0-.32,0-.56,0-.72a2.27,2.27,0,0,0,0-.41.64.64,0,0,0-.11-.25.48.48,0,0,0-.2-.14,1.13,1.13,0,0,0-.3-.06,0,0,0,0,1,0-.1h2.49a3.39,3.39,0,0,1,2.33.73A2.64,2.64,0,0,1,189.32,9.8Zm-.7,0a3.06,3.06,0,0,0-.18-1.08,2.23,2.23,0,0,0-.5-.78,2.19,2.19,0,0,0-.76-.5,3.28,3.28,0,0,0-1-.22l-.79,0-.43,0v2.89c0,.46,0,.84,0,1.15s0,.53,0,.67a1.46,1.46,0,0,0,0,.2.27.27,0,0,0,.15.1,3.13,3.13,0,0,0,.44.11,3.9,3.9,0,0,0,.64,0,2.49,2.49,0,0,0,1-.2,2.1,2.1,0,0,0,1.16-1.37A3.55,3.55,0,0,0,188.62,9.85Z"/><path class="cls-3" d="M193.47,7.06l.06-.12s0,0,.05,0,0,0,0,0a.64.64,0,0,1,.06.12c.06.19.15.46.29.82l.44,1.21c.17.44.34.91.52,1.39s.36.94.54,1.36a1.8,1.8,0,0,0,.15.31.52.52,0,0,0,.16.19.64.64,0,0,0,.2.11l.26.05a0,0,0,0,1,0,.05s0,0,0,0l-.47,0h-.89l-.4,0s0,0,0,0a0,0,0,0,1,0-.05c.17,0,.28-.06.32-.13s0-.2,0-.41l-.24-.72c-.09-.28-.19-.55-.29-.82h-1.77c0,.09-.07.2-.12.32l-.14.39-.15.42-.12.38a.94.94,0,0,0,0,.3.29.29,0,0,0,.07.16.34.34,0,0,0,.16.08,1.2,1.2,0,0,0,.2,0,0,0,0,0,1,.05.05s0,0-.05,0l-.45,0h-.75l-.44,0a0,0,0,1,1,0-.1,1,1,0,0,0,.17,0l.18-.07a1.12,1.12,0,0,0,.19-.15,1.35,1.35,0,0,0,.18-.25q.19-.36.42-.9c.15-.36.3-.72.44-1.08Zm.67,3.09c-.12-.34-.24-.68-.37-1s-.25-.69-.4-1.05l-.19.46L193,9.1l-.41,1.05h1.59Z"/><path class="cls-3" d="M203.41,9.7a3.17,3.17,0,0,1-.23,1.2,3,3,0,0,1-.63,1,3,3,0,0,1-.94.64,3,3,0,0,1-1.17.23,3.72,3.72,0,0,1-1.19-.18,2.55,2.55,0,0,1-.92-.53,2.42,2.42,0,0,1-.62-.87,3.21,3.21,0,0,1-.26-1.21,2.88,2.88,0,0,1,.2-1.22,2.69,2.69,0,0,1,.64-1,3.12,3.12,0,0,1,1-.64,3.49,3.49,0,0,1,1.27-.22,3,3,0,0,1,1.22.23,2.64,2.64,0,0,1,.89.64,2.46,2.46,0,0,1,.55.9A2.82,2.82,0,0,1,203.41,9.7Zm-3.18-2.55a2.06,2.06,0,0,0-.9.21,1.79,1.79,0,0,0-.64.55,2.5,2.5,0,0,0-.39.82,4.47,4.47,0,0,0-.12,1.06,3.42,3.42,0,0,0,.16,1.09,2.62,2.62,0,0,0,.46.86,2,2,0,0,0,.72.55,2.17,2.17,0,0,0,1,.2,2.25,2.25,0,0,0,.92-.18,2,2,0,0,0,.7-.49,2.39,2.39,0,0,0,.45-.76,2.93,2.93,0,0,0,.16-1A4,4,0,0,0,202.56,9a3,3,0,0,0-.45-1,2.27,2.27,0,0,0-.77-.67A2.07,2.07,0,0,0,200.23,7.15Z"/></g></g></svg>