<svg id="Layer_1" data-name="Layer 1" xmlns="http://www.w3.org/2000/svg" viewBox="0 0 227.5 20"><defs><style>.cls-1{fill:#673065;}.cls-2{fill:#666;}</style></defs><title>Artboard 1</title><path class="cls-1" d="M26.4,17.8v-.5h0v-.1s0-.2-.1-.2,0-.1,0,0v-.2c0-.1-.1-.1-.1-.2s-.1-.1-.1-.2,0,0,0-.1h0l-.1-.1h0c0-.1,0-.2.1-.2h0v-.1h0a2.65,2.65,0,0,0-.6-.5.14.14,0,0,0-.2,0h-.1c-.1,0-.1-.1.1,0H25a2.5,2.5,0,0,0-2.5,1.4h-.1a2.9,2.9,0,0,1,.9-1.5l-.1.1h0s-.2,0-.2.1v.1c0,.1,0-.1-.1,0h0a.31.31,0,0,1-.1.2h0c-.1,0-.1.2-.2.1h0l-.1.1h0a.1.1,0,0,1-.1.1h0l-.1.1h0a.35.35,0,0,0-.1.2h0a.1.1,0,0,0-.1.1c0,.1-.1,0-.1,0h0a.35.35,0,0,0-.1.2h0a.1.1,0,0,1-.1.1.37.37,0,0,1-.1.3v.3h0c0,.1-.1.1-.1.2h.1c.1,0,0,0,0,.1h0v.1h0v.3h0v.1h0v.3c0,.1,0,.1.1.2h0a.35.35,0,0,0,.1.2h0c0,.1.1.1.1.2h0l.1.2.1.1.1.1h0l.1.1a.1.1,0,0,1,.1.1h0c.1,0,.1.1.2.1h0l.1.1H23a.1.1,0,0,1,.1.1h.2c.1,0,.2,0,.1.1s0,0,.1,0c-.1,0-.1,0-.2-.1h.1c-.1,0-.1,0-.2-.1h0l.2.1h.2l.1.1h.1c.1,0,.1-.1,0-.1h-.1a2.28,2.28,0,0,0,2-.7l.1-.1v.1h0l.1-.1v-.1h0c.1-.2.1-.3.2-.5a.9.9,0,0,0,.1-.5h0v-.2h0m-4.8-.7h0m.1,1h0v0m.5-2.1h0m0,2.7-.1-.1.1-.1c-.1.1-.1.1,0,.2h0m.2.2h0m.7.7h0m0-.2h0c-.1,0,0,.1,0,0,.1.1.1.1,0,.1s-.1,0,0-.1c-.1,0-.1,0-.2-.1h-.1a.35.35,0,0,1-.1-.2c.1.1.3.2.4.3h0m.8.3h0M26,16.2h0"/><path class="cls-1" d="M20.5,10.2V10h0V9.8h0V9.6h0V9c0,.1,0,0-.1,0V8.9h0V8.7h0l-.1-.1c.1,0-.1-.1,0-.1h-.1c0,.1.1.1.1.2h0l.1.1V8.7h0c0,.1.1.1.1.2h0a1.38,1.38,0,0,0-.4-.3h0c0-.1-.1-.1-.1-.2V8.3l-.1-.1c-.1-.1.1,0,.1,0V8.1a.1.1,0,0,0-.1.1.1.1,0,0,1,.1.1,2,2,0,0,0-.9-.7H19A2.5,2.5,0,0,0,16.5,9h0a2.37,2.37,0,0,1,.9-1.5h0c-.2,0-.3.1-.5.2h-.1V8h0a1.87,1.87,0,0,1-.4.3c-.2.1,0,0,0,.1s0,0-.1,0-.1.1-.1,0-.1.2,0,.2h0c0,.1-.1.1-.1.2l-.4.2c0,.1-.1.1-.1.2h0v.1h0v.1a.1.1,0,0,1-.1.1h0s.1-.1.1,0a.1.1,0,0,1-.1.1h0v.1h0a2.2,2.2,0,0,0,.1.8s0,.2.1.1h0v.1c0,.1,0,.1-.1,0V11c0,.1.1.1.1.2h0c0,.1.2.2.2.3h0a.35.35,0,0,0,.1.2h0c0,.1,0,.1.1.1h0l.1.1a.1.1,0,0,1,.1.1.1.1,0,0,0,.1.1l.1.1h0c0,.1.2.1.2.1h0l.2.1H17c.1,0,0,.1.1.1h0a.35.35,0,0,1,.2-.1h1a.1.1,0,0,0,.1.1h.2s.1-.1.1,0,.2-.1.3-.2a.31.31,0,0,1,.2-.1.1.1,0,0,0,.1-.1h0c.1,0,.1,0,.2-.1-.1,0,0,0,0-.1h.1a.1.1,0,0,0,.1-.1h0a.35.35,0,0,1,.2-.1c.1,0,.1-.1,0-.1h0l.1-.1h0v-.1c0-.1,0-.1.1-.2s.1-.1.1-.2h0a.49.49,0,0,1,.1-.3h0c0-.1,0-.1.1-.2h0v-.3m-4.9-.5h0m2.9,2.9h-.1m1.1-.6h0m.3-3.1h0m.4.6h0m.1,1.5h0l-.1.1.1-.1h0m0-.4h0v-.2h0c.1.1.1.2,0,.2h0m0-.4h0m0-.5c0-.2-.1-.3-.1-.5h0c0,.1,0,.1.1.2v0a.1.1,0,0,0-.1-.1s0-.1.1,0v.4h0"/><path class="cls-1" d="M11,10.1c0-.1,0-.1.1-.2H11a.1.1,0,0,1,.1-.1h0V9.7h0c.1,0,0-.2.1-.2s0-.1-.1-.1V9.3h0V9.2h0V9.1c0-.1,0-.1-.1-.2s0-.1-.1-.2v.1c0,.1-.1-.2-.1-.2h0c0-.1,0-.1-.1-.2h0l-.1-.2a.1.1,0,0,0-.1-.1L10.4,8h0l-.1-.1a.1.1,0,0,1-.1-.1h0c-.1.2-.2.1-.3.1h0l-.1-.1H9.5a.1.1,0,0,1-.1-.1H9.2c-.1,0-.1,0-.1-.1s0,0-.1,0c.1,0,.1,0,.2.1H9.1c0,.1.1,0,.1,0H9.1c.1,0,.1,0,.2.1h0l-.2-.1H9l-.1-.1h0s-.1.1,0,.1H9a2.57,2.57,0,0,0-2,.8l-.1.1V8.5h0l-.1.1-.1.1h0c0,.2-.1.3-.2.5a.9.9,0,0,0-.1.5h0v.2h0v.5h0v.2s0,.2.1.2,0,.1,0,0V11l.1.2c0,.1.1.1.1.2v.1h0v.1h0v.1h0v.1h0v.1h0c.2,0,.3.1.6.3,0,0,.2.1.2,0h.1c.1,0,.1.1-.1,0h.3a2.5,2.5,0,0,0,2.5-1.4h.1a2.9,2.9,0,0,1-.9,1.5l.1-.1h0l.2-.1V12c0-.1,0,.1.1,0h0l.1-.2h0c.1,0,.1-.2.2-.1h0c.1-.1.1,0,.1-.1h0a.1.1,0,0,1,.1-.1h0l.1-.1h0a.35.35,0,0,0,.1-.2h0a.1.1,0,0,0,.1-.1c0-.1.1,0,.1,0h0a.35.35,0,0,0,.1-.2h0a.1.1,0,0,1,.1-.1c0-.1.1-.2.1-.3v-.3Zm-4.5,1ZM8.9,7.6h0m.8.1h0m-.1.1h0a.35.35,0,0,0,.2.1c-.1-.1-.1-.1-.2-.1h0c-.1-.1,0-.1,0-.1a.1.1,0,0,1,.1.1l.1.1h.1A.1.1,0,0,1,10,8a.76.76,0,0,0-.4-.2m.7.4h0m.2,3h0m0-2.4h0V8.7h0a.1.1,0,0,1,.1.1c0-.1,0,0-.1,0m.3.5V9.2h0s-.1,0,0,.1m0,.8V9.9H11l-.1.1"/><path class="cls-1" d="M15.7,2.5V2.3h0V2.1a.31.31,0,0,0-.1-.2c-.1-.1,0-.1,0-.2h0c0-.1-.1-.1-.1-.2h0s0-.2-.1-.2h-.1c-.1,0,.1,0,0-.1h0V1h0c0-.1-.2-.1-.1-.2h0c-.1-.1,0-.1-.1-.1h0V.6h0L15,.5h-.1c-.1,0-.1-.1-.2-.1h0a.1.1,0,0,0-.1-.1V.2h-.4a2.5,2.5,0,0,0-2.5,1.4h-.1A3.15,3.15,0,0,1,12.4.1h.1l.1-.1h-.1c-.1,0-.1,0-.2.1h.1c.1,0-.2.1-.2.1h0c-.1,0-.1.1-.2.1h0l-.1.1a.1.1,0,0,0-.1.1l-.1.1h0l-.1.1a.1.1,0,0,1-.1.1h0V.9h0c-.1.1-.1.1-.1.2h0l-.1.1h0l-.1.1v.1h0l-.1.1h0v.2c0,.1,0,.1-.1.1s0,0,0,.1c0-.1,0-.1.1-.2v.1c.1,0,0-.1,0-.2v.1h0V1.5s0-.1.1,0h0l-.1.2h0V2l-.1.1v.1c0,.1,0-.1-.1-.1h0s.1.1.1,0V2a2.2,2.2,0,0,0,.7,2l.1.1h-.1l.1.1.1.1h0c.2.1.3.1.5.2a.75.75,0,0,0,.5.1h.9s.2,0,.2-.1.1,0,.1,0h.2l.2-.1a.35.35,0,0,0,.2-.1h.1v.1l.1-.1h.2l.1-.1h0a2.65,2.65,0,0,0,.5-.6s.1-.2,0-.2h0V3.3c0-.1.1-.1,0,.1l.1-.1a.1.1,0,0,0,.1-.1c0-.1,0-.2.1-.2h0c.1-.1,0-.3.1-.3h0c-.3-.1-.3-.2-.4-.2h0M12,.3h0V.5h0V.3m-.2.3h0m-.7.7h0m-.1.8h0m.2-.7h0c0-.1.1-.1.1-.2-.1.1-.1.1-.1.2v0c-.1.1-.1,0-.1,0a.1.1,0,0,1,.1-.1l.1-.1V1.1a.35.35,0,0,1,.2-.1.54.54,0,0,0-.3.4m3.3,3.2Zm0-4.1h0"/><path class="cls-1" d="M15.6,16.9h0c-.1-.2-.1-.3-.2-.5a.52.52,0,0,0-.2-.4h0v-.1l-.1-.1h0l-.3-.3c-.1-.1,0,0-.1,0s0,0,0-.1a.1.1,0,0,0-.1-.1s-.2-.1-.2,0v-.1c-.1,0-.1-.1-.2-.1l-.1-.1c-.1,0-.1-.1-.2-.1h0a.1.1,0,0,1-.1-.1h0s.1.1,0,.1-.1-.1-.1,0h-.1a2.2,2.2,0,0,0-.8.1s-.2,0-.1.1h0c.1,0,0,.1-.1.1s-.1,0,0-.1h-.3c-.1,0-.1.1-.2.1h0c-.1,0-.2.2-.3.2h0a.35.35,0,0,0-.2.1h0c-.1,0-.1,0-.1.1h0l-.1.1a.1.1,0,0,1-.1.1.1.1,0,0,0-.1.1l-.1.1h0c-.1,0-.1.2-.1.2h0l-.1.2h0a.1.1,0,0,0-.1.1h0a.35.35,0,0,1,.1.2h0v.2h0v.2h0v.1h0v.5h0v.1a.1.1,0,0,0-.1.1h0v.2h0s.1.1,0,.1l.2.3c0,.1.1.1.1.2a.1.1,0,0,0,.1.1h0c0,.1,0,.1.1.2,0-.1,0,0,.1,0s0,.1,0,.1h0a.1.1,0,0,0,.1.1h0a.35.35,0,0,1,.1.2c0,.1.1.1.1,0h0l.1.1H12v-.1l.1.1h.1a2.5,2.5,0,0,0,2.5-1.4h.1a2.39,2.39,0,0,1-.7,1.3l.2-.1h0l.2-.1h.1l.1-.1c.1-.1,0,.1,0,.1h.1a.1.1,0,0,0-.1-.1.1.1,0,0,1-.1.1,2.2,2.2,0,0,0,.9-1.9v-.1s.1.1.1,0h0V17l-.1-.1h0m-4.9.9h0v-.1h0v.1h0m.6,1.1h0m2.3-4.1h0m.8,4.3Z"/><path class="cls-1" d="M5.1,17.1h0c-.1-.2-.1-.3-.2-.5a.52.52,0,0,0-.2-.4h0v-.1H4.6l-.3-.3c-.1-.1,0,0-.1,0s0,0,0-.1-.1-.1,0-.1-.2-.1-.2,0H4l-.1-.1H3.5A2.35,2.35,0,0,0,1,16.7H1a2.9,2.9,0,0,1,.9-1.5H1.8c-.1,0-.1.1-.2.1h0c-.1,0-.2.2-.3.2h0a.35.35,0,0,0-.2.1h0c-.1,0-.1,0-.1.1H1l-.1.1a.1.1,0,0,1-.1.1c-.1,0-.2.1-.1.1l-.1.1h0c-.1,0-.1.2-.1.2h0l-.1.2v.1c0,.1-.1,0-.1.1h0a.14.14,0,0,1,0,.2h0v.2h0v.2h0v.1h0v.5h0V18a.1.1,0,0,0-.1.1h0a.31.31,0,0,0,.1.2h0s.1.1,0,.1.1.2.2.3.1.1.1.2a.1.1,0,0,0,.1.1h0c0,.1,0,.1.1.2H.9v.1h0a.1.1,0,0,0,.1.1H1a.35.35,0,0,1,.1.2c0,.1.1.1.1,0h.2c.1,0,.1,0,.2.1a.35.35,0,0,0,.2.1h0a.37.37,0,0,1,.3.1h0c.1,0,.1,0,.2.1H3.6c-.1,0,0,0,0-.1h.2l.1-.1c0,.1.1-.1.1,0v-.1c0-.1-.1.1-.2.1h0l-.1.1h.1c-.1,0-.1.1-.2.1h0a.35.35,0,0,0,.2-.1h0l.2-.3h.1l.1-.1c.1-.1,0,.1,0,.1h.1a.1.1,0,0,0-.1-.1l-.1.1A2.43,2.43,0,0,0,5,17.5v-.1s.1.1.1,0h0v-.3h0M.4,18h0v-.1h0M.9,19h0m.8.6h0l-.1-.1.1.1h0m.6.2H2.1v-.1h.1l.1.1h0m.3-.1h0m.7,0H3.1c0,.1-.1.1-.2.1.2,0,.3-.1.5-.1H3.3c0,.1.1.1,0,0h0c0,.1.1,0,.2,0s.1,0,0,.1a.31.31,0,0,1-.2-.1m.2.1h0m.6-.5Z"/><path class="cls-2" d="M159.19,7.12V9.41h1.52l.15,0,.09,0H161a.19.19,0,0,1,0,.14.87.87,0,0,0,0,.22c0,.08,0,.12,0,.17v.26s0,0-.05,0h0s0,0,0,0a.41.41,0,0,0-.05-.21.22.22,0,0,0-.12-.11.58.58,0,0,0-.19,0h-1.29v1.89a1.57,1.57,0,0,0,.05.37.48.48,0,0,0,.12.22.44.44,0,0,0,.19.1h.26a.06.06,0,0,1,.06.06c0,.05,0,.05-.06.05H158s0,0,0-.05,0,0,0-.06a1.26,1.26,0,0,0,.27,0,.31.31,0,0,0,.16-.12.52.52,0,0,0,.1-.23,1.72,1.72,0,0,0,0-.39V7.46a.68.68,0,0,0-.07-.28A.33.33,0,0,0,158.3,7a1.28,1.28,0,0,0-.34-.07,0,0,0,0,1,0,0h0s0-.06,0-.06h3.19a.18.18,0,0,1,.12,0,.15.15,0,0,1,0,.13V7.3l0,.37a2.53,2.53,0,0,1,0,.32.06.06,0,0,1-.06,0h0s0,0,0,0V7.73a1.14,1.14,0,0,0-.06-.25.46.46,0,0,0-.18-.21.85.85,0,0,0-.35-.11,4.41,4.41,0,0,1-.6,0A4.2,4.2,0,0,0,159.19,7.12Z"/><path class="cls-2" d="M169,9.52a3,3,0,0,1-.86,2.16,3,3,0,0,1-.94.64,3.13,3.13,0,0,1-1.17.23,4.06,4.06,0,0,1-1.2-.18,2.62,2.62,0,0,1-.93-.53,2.51,2.51,0,0,1-.6-.87,3.3,3.3,0,0,1-.25-1.2,2.89,2.89,0,0,1,.2-1.2,2.83,2.83,0,0,1,.64-1,3,3,0,0,1,1-.6,3.22,3.22,0,0,1,1.27-.23,2.92,2.92,0,0,1,1.2.24,3,3,0,0,1,.9.63,2.69,2.69,0,0,1,.55.82A3,3,0,0,1,169,9.52ZM165.8,7a2.13,2.13,0,0,0-.9.22,1.76,1.76,0,0,0-.64.54,2.53,2.53,0,0,0-.39.83,4.13,4.13,0,0,0-.12,1,3.35,3.35,0,0,0,.16,1.09,2.51,2.51,0,0,0,.46.85,1.88,1.88,0,0,0,.72.56,2.12,2.12,0,0,0,1,.2,2.07,2.07,0,0,0,.92-.18,2,2,0,0,0,.7-.49,2.08,2.08,0,0,0,.44-.76,2.85,2.85,0,0,0,.16-1,4.46,4.46,0,0,0-.14-1.09,3.12,3.12,0,0,0-.45-1,2.44,2.44,0,0,0-.77-.66A2.17,2.17,0,0,0,165.8,7Z"/><path class="cls-2" d="M171.5,11.36V7.66a.93.93,0,0,0-.14-.54.7.7,0,0,0-.48-.18s-.06,0-.06-.05,0-.06.06-.06h2a2.75,2.75,0,0,1,1,.17,1.22,1.22,0,0,1,.78.86,1.74,1.74,0,0,1,.06.45,1.68,1.68,0,0,1-.26.89,2,2,0,0,1-.75.64,4.26,4.26,0,0,0,.33.48c.15.22.33.46.52.71a6.78,6.78,0,0,0,.56.65,3.12,3.12,0,0,0,.46.43.76.76,0,0,0,.34.16l.3.05s.06,0,.06.06,0,0-.06,0h-.84a1.66,1.66,0,0,1-.42-.12,1.31,1.31,0,0,1-.34-.24,2.46,2.46,0,0,1-.38-.41l-.47-.63-.37-.54-.29-.47a4.71,4.71,0,0,1-.92,0v1.37a4.32,4.32,0,0,0,0,.5.73.73,0,0,0,.1.28.33.33,0,0,0,.19.13,1.06,1.06,0,0,0,.31,0,.07.07,0,0,1,.07.06h0s0,.05-.07.05h-1.86s-.06,0-.06-.05,0-.06.06-.06a.92.92,0,0,0,.28,0,.28.28,0,0,0,.18-.12.63.63,0,0,0,.1-.27A5.07,5.07,0,0,0,171.5,11.36ZM174,8.52a1.73,1.73,0,0,0-.29-1,1.2,1.2,0,0,0-.92-.44,2.16,2.16,0,0,0-.36,0h-.33V9.7l.51.06a3,3,0,0,0,.6,0,.72.72,0,0,0,.37-.13.84.84,0,0,0,.25-.28A1,1,0,0,0,174,9,1.7,1.7,0,0,0,174,8.52Z"/><path class="cls-2" d="M181.81,9.86l-.33.66c-.1.21-.2.4-.29.6s-.19.39-.27.6-.17.4-.26.6a.09.09,0,0,1-.07.09s-.05,0-.07-.09-.13-.28-.24-.5l-.37-.73c-.14-.26-.29-.53-.44-.82s-.3-.57-.44-.82-.27-.5-.39-.71l-.27-.49c0,.25,0,.52-.06.8s0,.56-.06.85l-.06.87c0,.3,0,.57-.05.84a1.09,1.09,0,0,0,0,.36.37.37,0,0,0,.11.19.34.34,0,0,0,.2.09,1.4,1.4,0,0,0,.28.06s.06,0,.06,0,0,.05-.06.05h-1.62s-.06,0-.05-.05,0,0,.05,0l.26-.05a.34.34,0,0,0,.17-.11.54.54,0,0,0,.1-.2c0-.11.05-.23.07-.34.09-.8.18-1.58.27-2.35s.15-1.55.22-2.35c0-.12,0-.18.08-.18s.06,0,.08.06l0,.12.22.45c.09.19.2.42.33.66l.42.8c.15.28.31.6.47.87s.31.6.46.85l.42.75.36-.69c.15-.31.33-.67.53-1.06l.33-.69.35-.71.33-.68.28-.6.06-.12s0,0,.06,0h0a.38.38,0,0,1,0,.15c0,.21,0,.45.06.72s.06.55.09.86.07.6.11.93.08.6.11.9l.1.8c0,.24.07.44.1.6a1.4,1.4,0,0,0,.06.28.56.56,0,0,0,.09.17.33.33,0,0,0,.14.1,1.06,1.06,0,0,0,.23,0,.05.05,0,0,1,.06.05h0s0,0-.06,0h-1.39c-.05,0-.07,0-.07,0a.05.05,0,0,1,.06-.05h0a.24.24,0,0,0,.16-.07.54.54,0,0,0,0-.35c0-.2,0-.47-.07-.8s-.07-.66-.11-1l-.12-1c0-.34-.06-.53-.06-.75l-.13.29-.2.39-.23.45Z"/><path class="cls-2" d="M191.89,9.52a3.11,3.11,0,0,1-.24,1.21,2.88,2.88,0,0,1-.6.95,3,3,0,0,1-.93.64,3.18,3.18,0,0,1-1.18.23,4.11,4.11,0,0,1-1.2-.18,2.62,2.62,0,0,1-.93-.53,2.51,2.51,0,0,1-.6-.87,3.3,3.3,0,0,1-.25-1.2,2.89,2.89,0,0,1,.2-1.2,2.65,2.65,0,0,1,.64-1,3,3,0,0,1,1-.6,3.22,3.22,0,0,1,1.27-.23,2.92,2.92,0,0,1,1.2.24,2.7,2.7,0,0,1,1.43,1.45A3,3,0,0,1,191.89,9.52ZM188.71,7a2.17,2.17,0,0,0-.9.22,1.85,1.85,0,0,0-.64.54,2.26,2.26,0,0,0-.35.83,4.14,4.14,0,0,0-.13,1,3.64,3.64,0,0,0,.16,1.09,2.69,2.69,0,0,0,.46.85,2,2,0,0,0,.73.56,2.08,2.08,0,0,0,1,.2,2.14,2.14,0,0,0,.93-.18,2,2,0,0,0,.69-.49,2.17,2.17,0,0,0,.41-.78,2.89,2.89,0,0,0,.16-1A4.33,4.33,0,0,0,191,8.83a2.91,2.91,0,0,0-.45-1,2.27,2.27,0,0,0-.75-.66A2.15,2.15,0,0,0,188.71,7Z"/><path class="cls-2" d="M193.92,11.88a4,4,0,0,1,0-.49,3.55,3.55,0,0,1,.08-.47.06.06,0,0,1,.06-.05s0,0,0,.05a1.73,1.73,0,0,0,.36,1,1.14,1.14,0,0,0,.89.38,1.28,1.28,0,0,0,.9-.3,1,1,0,0,0,.31-.76,1.16,1.16,0,0,0-.08-.48,1.05,1.05,0,0,0-.25-.37,1.57,1.57,0,0,0-.41-.32l-.55-.31a3.14,3.14,0,0,1-.46-.28,1.68,1.68,0,0,1-.65-.83,1.54,1.54,0,0,1-.09-.6,1.29,1.29,0,0,1,.45-1,1.66,1.66,0,0,1,1.15-.39,2.81,2.81,0,0,1,.5,0,2,2,0,0,1,.33.08.56.56,0,0,1,.26.17.5.5,0,0,1,.06.34,1,1,0,0,1,0,.31,1.78,1.78,0,0,0,0,.36c0,.1,0,.05-.06,0s0,0,0,0a1.37,1.37,0,0,0-.09-.4.94.94,0,0,0-.2-.35,1.15,1.15,0,0,0-1.52-.09,1,1,0,0,0-.28.73,1.07,1.07,0,0,0,.29.78,2.52,2.52,0,0,0,.7.51,5.2,5.2,0,0,1,.72.42,2.41,2.41,0,0,1,.48.42,1.18,1.18,0,0,1,.27.47,1.77,1.77,0,0,1,.08.6,1.52,1.52,0,0,1-.15.6,1.53,1.53,0,0,1-.93.76,2.08,2.08,0,0,1-.7.1,3,3,0,0,1-.6-.05l-.42-.13a.82.82,0,0,1-.25-.2A.65.65,0,0,1,193.92,11.88Z"/><path class="cls-2" d="M201.39,6.89l.06-.13h.09a.5.5,0,0,1,.05.13c.06.18.16.46.29.82s.28.76.45,1.2l.52,1.39c.18.49.36.94.53,1.36.05.11.1.21.16.32a.55.55,0,0,0,.16.18.35.35,0,0,0,.19.1l.27.06a0,0,0,0,1,.05,0c0,.06,0,.05-.05.05H202.4s-.06,0-.06-.05,0,0,.06,0a.37.37,0,0,0,.32-.13.58.58,0,0,0-.05-.41q-.09-.31-.24-.72c-.09-.28-.18-.54-.28-.81h-1.77l-.12.31-.14.39-.15.42-.12.38a1,1,0,0,0,0,.3.33.33,0,0,0,.07.16.35.35,0,0,0,.16.08h.2a.05.05,0,0,1,0,.05c0,.06,0,.05,0,.05H198.6s0,0,0-.05,0-.05,0-.05h.17l.18-.07a.9.9,0,0,0,.19-.15,1.14,1.14,0,0,0,.18-.25,7.36,7.36,0,0,0,.42-.9l.44-1.08Zm.67,3.09c-.12-.35-.24-.68-.37-1l-.4-1-.19.45-.22.55L200.47,10Z"/><path class="cls-2" d="M209.29,9.8V7.46a.6.6,0,0,0-.08-.29A.45.45,0,0,0,209,7a1,1,0,0,0-.35-.07s0,0,0-.05,0-.06,0-.06h1.94a2.62,2.62,0,0,1,.68.12,1.24,1.24,0,0,1,.46.26,1.19,1.19,0,0,1,.27.39,1.38,1.38,0,0,1,.08.45,1.62,1.62,0,0,1-.08.49,1.3,1.3,0,0,1-.22.38,1.15,1.15,0,0,1-.3.28,1.29,1.29,0,0,1-.35.18,1.83,1.83,0,0,1,1.12.52,1.41,1.41,0,0,1,.37,1,1.34,1.34,0,0,1-.59,1.2,1.63,1.63,0,0,1-.6.31,2.84,2.84,0,0,1-.72.09,5,5,0,0,1-.66,0,4.19,4.19,0,0,0-.56,0h-.84s-.06,0,0-.05,0-.06,0-.06a1.12,1.12,0,0,0,.31,0,.37.37,0,0,0,.17-.16.9.9,0,0,0,.08-.28v-2Zm2.15-1.4a1.43,1.43,0,0,0-.26-1,1.07,1.07,0,0,0-.87-.39.81.81,0,0,0-.31,0,.19.19,0,0,0-.05.12v2.2h.42a1.51,1.51,0,0,0,.52-.06.81.81,0,0,0,.38-.33A1.06,1.06,0,0,0,211.44,8.4Zm.53,2.69a1.52,1.52,0,0,0-.11-.6,1.14,1.14,0,0,0-.31-.47,1.32,1.32,0,0,0-.51-.3,2.25,2.25,0,0,0-.68-.11H210v2.24a.33.33,0,0,0,0,.17.34.34,0,0,0,.12.12,1.46,1.46,0,0,0,.68.11,1.18,1.18,0,0,0,.82-.29,1.22,1.22,0,0,0,.32-.87Z"/><path class="cls-2" d="M216.75,6.89a.52.52,0,0,1,.06-.13h.09a.5.5,0,0,1,0,.13c.06.18.16.46.29.82l.44,1.2.53,1.39c.18.49.36.94.53,1.36,0,.11.1.21.16.32a.65.65,0,0,0,.15.18.42.42,0,0,0,.2.1l.27.06s0,0,0,0,0,.05,0,.05h-1.76s-.06,0-.06-.05,0,0,.06,0a.34.34,0,0,0,.31-.13.58.58,0,0,0,0-.41q-.09-.31-.24-.72c-.09-.28-.18-.54-.29-.81h-1.76l-.12.31a3.86,3.86,0,0,1-.15.39l-.14.42-.12.38a.78.78,0,0,0,0,.3.33.33,0,0,0,.07.16.3.3,0,0,0,.16.08h.19s0,0,.06.05,0,.05-.06.05H214s-.05,0-.05-.05,0-.05.05-.05h.17l.18-.07a.65.65,0,0,0,.18-.15.92.92,0,0,0,.19-.25,9.23,9.23,0,0,0,.42-.9l.44-1.08Zm.66,3.09-.36-1-.4-1-.19.45-.22.55L215.83,10Z"/><path class="cls-2" d="M226.34,7a.06.06,0,0,1,0,.08h-.05A.85.85,0,0,0,226,7a1.47,1.47,0,0,0-.81.31,3.35,3.35,0,0,0-.75.8q-.19.27-.39.6a6.33,6.33,0,0,0-.36.68,6.34,6.34,0,0,0-.26.73,2.82,2.82,0,0,0-.09.71v.63a3.69,3.69,0,0,0,0,.47.4.4,0,0,0,.1.23.34.34,0,0,0,.19.09l.31,0a.07.07,0,0,1,.06,0v0s0,0-.06,0h-1.85s-.06,0,0,0,0-.06,0-.06l.25-.05a.27.27,0,0,0,.17-.1.54.54,0,0,0,.11-.23,3.23,3.23,0,0,0,0-.44v-.6a4.09,4.09,0,0,0-.07-.6,5.31,5.31,0,0,0-.19-.65c-.07-.22-.16-.43-.25-.64a4.29,4.29,0,0,0-.31-.55,4.86,4.86,0,0,0-.91-1.06,1.54,1.54,0,0,0-.87-.34h-.24l-.2,0h-.06s0,0,0-.06a1.66,1.66,0,0,1,.3-.19,1.37,1.37,0,0,1,.6-.09,1.61,1.61,0,0,1,.61.11,2.7,2.7,0,0,1,.52.3,3.05,3.05,0,0,1,.44.44,5.86,5.86,0,0,1,.37.5,6,6,0,0,1,.8,2,.87.87,0,0,1,.06-.35,5,5,0,0,1,.16-.51,5.18,5.18,0,0,1,.26-.6A4.4,4.4,0,0,1,224,8a4,4,0,0,1,.48-.6A3.1,3.1,0,0,1,225,7a1.61,1.61,0,0,1,.43-.17,1.58,1.58,0,0,1,.38,0,1.13,1.13,0,0,1,.32,0A.38.38,0,0,1,226.34,7Z"/><path class="cls-2" d="M94.66,11.4V7.7a.86.86,0,0,0-.15-.53A.71.71,0,0,0,94,7S94,7,94,6.94s0-.06.06-.06h2a2.74,2.74,0,0,1,.94.17,1.3,1.3,0,0,1,.54.38,1.09,1.09,0,0,1,.24.48,1.61,1.61,0,0,1,.06.44,1.53,1.53,0,0,1-.26.9,2.07,2.07,0,0,1-.74.64,5.43,5.43,0,0,0,.33.48c.15.22.32.46.52.71s.4.49.55.65a3.72,3.72,0,0,0,.46.43.93.93,0,0,0,.35.16l.3,0a.06.06,0,0,1,.06.05h0s0,0-.06,0h-.86a1.19,1.19,0,0,1-.41-.11,1.45,1.45,0,0,1-.36-.25,3.6,3.6,0,0,1-.37-.41c-.13-.17-.29-.38-.46-.64l-.37-.54c-.11-.16-.21-.32-.3-.47a3.54,3.54,0,0,1-.92,0v1.37c0,.17,0,.34,0,.5a.56.56,0,0,0,.1.28.28.28,0,0,0,.18.14,1.12,1.12,0,0,0,.31.05.06.06,0,0,1,.06,0h0s0,.05-.06.05H94.05s-.06,0,0-.05,0,0,0,0l.28-.05a.27.27,0,0,0,.18-.12.56.56,0,0,0,.1-.27A4.89,4.89,0,0,0,94.66,11.4Zm2.52-2.84a1.72,1.72,0,0,0-.29-1A1.12,1.12,0,0,0,96,7.12h-.69V9.75a4.26,4.26,0,0,0,.5.06,3,3,0,0,0,.6,0,.72.72,0,0,0,.38-.13A1.12,1.12,0,0,0,97,9.4,1.37,1.37,0,0,0,97.17,9a2.34,2.34,0,0,0,0-.46Z"/><path class="cls-2" d="M101.7,9.7v1.9a1.82,1.82,0,0,0,0,.32.34.34,0,0,0,.1.16.38.38,0,0,0,.17.08h1a1.52,1.52,0,0,0,.47-.1.7.7,0,0,0,.28-.23,1,1,0,0,0,.17-.34c0-.12.06-.25.09-.4a.06.06,0,0,1,.06-.05h0s0,0,0,.05V12a.74.74,0,0,1,0,.21.27.27,0,0,1-.15.21,1.21,1.21,0,0,1-.38.06h-3.14s0,0,0-.05,0-.06,0-.06a.93.93,0,0,0,.29,0,.29.29,0,0,0,.18-.13.62.62,0,0,0,.09-.26c0-.15,0-.31,0-.46V7.51a1,1,0,0,0-.08-.29.35.35,0,0,0-.18-.16,1.37,1.37,0,0,0-.35-.08s0,0,0,0,0-.06,0-.06h3a1,1,0,0,1,.3,0c.06,0,.09.08.08.19a2.07,2.07,0,0,1,0,.4,3.59,3.59,0,0,0,0,.46s0,0-.07,0-.05,0,0,0a1.18,1.18,0,0,0-.14-.55.61.61,0,0,0-.47-.23h-1.25V9.41h1.65l.09,0,0,0h0v.22a.74.74,0,0,1,0,.32.58.58,0,0,0,0,.23.08.08,0,0,1-.07.05s0,0,0-.05a.45.45,0,0,0,0-.2.25.25,0,0,0-.12-.11.41.41,0,0,0-.19-.05h-1.26Z"/><path class="cls-2" d="M106.28,11.93a4.17,4.17,0,0,1,0-.5c0-.15,0-.31.07-.46a.06.06,0,0,1,.06-.05s0,0,0,.05a1.78,1.78,0,0,0,.35,1,1.14,1.14,0,0,0,.9.37,1.19,1.19,0,0,0,.9-.3,1,1,0,0,0,.31-.75,1.13,1.13,0,0,0-.08-.48,1.39,1.39,0,0,0-.25-.38,2,2,0,0,0-.41-.31l-.55-.31a3.52,3.52,0,0,1-.46-.28,1.92,1.92,0,0,1-.39-.36,2.2,2.2,0,0,1-.27-.47,1.54,1.54,0,0,1-.09-.6,1.34,1.34,0,0,1,.45-1A1.73,1.73,0,0,1,108,6.75a2.81,2.81,0,0,1,.5,0,1.32,1.32,0,0,1,.33.08.49.49,0,0,1,.25.17.5.5,0,0,1,.06.34,1.36,1.36,0,0,1,0,.31c0,.15,0,.26,0,.36s0,0-.06,0,0,0,0,0a1.43,1.43,0,0,0-.09-.41,1.14,1.14,0,0,0-.19-.34,1.15,1.15,0,0,0-1.52-.09.91.91,0,0,0-.28.73,1,1,0,0,0,.29.77,2.33,2.33,0,0,0,.7.51q.38.19.72.42a2.18,2.18,0,0,1,.48.43,1.16,1.16,0,0,1,.27.47,1.73,1.73,0,0,1,.07.6,1.39,1.39,0,0,1-.14.6,1.42,1.42,0,0,1-.38.46,1.48,1.48,0,0,1-.55.3,2.42,2.42,0,0,1-.7.1,3.83,3.83,0,0,1-.6,0,3,3,0,0,1-.42-.14.67.67,0,0,1-.25-.19A.65.65,0,0,1,106.28,11.93Z"/><path class="cls-2" d="M112.77,9.83v1.63c0,.15,0,.31,0,.46a.72.72,0,0,0,.09.27.32.32,0,0,0,.18.12,1.65,1.65,0,0,0,.32.06s0,0,0,0h0s0,.05,0,.05h-1.88s0,0,0-.05,0-.05,0-.05l.27-.06a.36.36,0,0,0,.18-.12.62.62,0,0,0,.09-.26,3.71,3.71,0,0,0,0-.47V8a3.27,3.27,0,0,0,0-.54.73.73,0,0,0-.1-.28.3.3,0,0,0-.17-.12l-.26,0s0,0,0,0,0-.06,0-.06h1.8s.05,0,.05,0a0,0,0,0,1-.05.05l-.24.06a.3.3,0,0,0-.15.12.6.6,0,0,0-.08.29,3,3,0,0,0,0,.52V9.83Z"/><path class="cls-2" d="M121.06,9.67a2.91,2.91,0,0,1-.21,1.13,2.77,2.77,0,0,1-.6.91,3,3,0,0,1-1,.6,3.53,3.53,0,0,1-1.25.21c-.32,0-.64,0-1,0s-.49,0-.66,0h-1s-.05,0,0,0,0,0,0-.05a1.43,1.43,0,0,0,.42-.09.45.45,0,0,0,.21-.2.81.81,0,0,0,.08-.34,5,5,0,0,1,0-.61V7.85a2,2,0,0,0,0-.42.44.44,0,0,0-.11-.24.43.43,0,0,0-.2-.15,1.45,1.45,0,0,0-.3-.06s0,0,0,0,0-.06,0-.06h2.49a3.45,3.45,0,0,1,2.34.73A2.67,2.67,0,0,1,121.06,9.67Zm-.69.05a3.25,3.25,0,0,0-.18-1.07,2.26,2.26,0,0,0-.5-.79,2.49,2.49,0,0,0-.77-.5,3.24,3.24,0,0,0-1-.21,5.13,5.13,0,0,0-.79,0h-.42v4.7a.69.69,0,0,0,0,.2s.06.07.15.1a2.18,2.18,0,0,0,.44.11,4.58,4.58,0,0,0,.64,0,2.46,2.46,0,0,0,1-.2,2.2,2.2,0,0,0,.73-.55,2.35,2.35,0,0,0,.43-.81,3.6,3.6,0,0,0,.18-1Z"/><path class="cls-2" d="M124.23,9.7v1.9a1.82,1.82,0,0,0,0,.32.34.34,0,0,0,.1.16.38.38,0,0,0,.17.08h1a1.46,1.46,0,0,0,.46-.1.7.7,0,0,0,.28-.23,1,1,0,0,0,.21-.32,4.11,4.11,0,0,0,.1-.41.07.07,0,0,1,.06,0s0,0,0,0v1.11a.27.27,0,0,1-.15.21,1,1,0,0,1-.38.05h-3.13s0,0,0,0,0-.06,0-.06a.93.93,0,0,0,.29,0,.3.3,0,0,0,.18-.13.62.62,0,0,0,.09-.26,3.71,3.71,0,0,0,0-.47v-4a.59.59,0,0,0-.07-.29.29.29,0,0,0-.18-.16,1.3,1.3,0,0,0-.34-.08,0,0,0,0,1,0,0s0-.06,0-.06h2.85a1,1,0,0,1,.3,0c.08,0,.11.08.09.19s0,.25,0,.4a3.62,3.62,0,0,1-.06.46s0,0-.06,0,0,0,0,0a1.09,1.09,0,0,0-.18-.55.61.61,0,0,0-.47-.23h-1.24V9.41h1.66l.08,0,0,0h0V9.4a.43.43,0,0,1,0,.17c0,.09,0,.22,0,.32a1,1,0,0,0,0,.23.06.06,0,0,1-.06.05.05.05,0,0,1,0,0h0a.34.34,0,0,0,0-.2.2.2,0,0,0-.11-.11.41.41,0,0,0-.19-.05H124.2Z"/><path class="cls-2" d="M134.14,7.69l0,1v3.65a.43.43,0,0,1,0,.16,0,0,0,0,1,0,0H134l-.13-.14-.45-.5-.5-.55-.6-.6-.74-.75-1.15-1.16c-.33-.35-.6-.6-.78-.78v2.67c0,.36,0,.69,0,1a.68.68,0,0,0,.17.43.81.81,0,0,0,.55.21.06.06,0,0,1,.06.06s0,0-.06,0h-1.66s-.05,0-.05,0,0-.06.05-.06a.58.58,0,0,0,.35-.15.79.79,0,0,0,.13-.45,5.77,5.77,0,0,1,0-.81c0-.29,0-.6,0-.87a7.48,7.48,0,0,0,0-.82V6.86s0,0,0,0h.06l.13.13,1.06,1.15q.55.59,1.23,1.26l1.08,1.08c.32.32.6.6.85.82V9.61c0-.57,0-1.2-.05-1.8a1.11,1.11,0,0,0,0-.39.5.5,0,0,0-.09-.24.38.38,0,0,0-.18-.13l-.3-.07a.05.05,0,0,1-.05,0c0-.05,0-.06.05-.06h1.5s0,0,0,.06,0,0,0,0h0a.46.46,0,0,0-.35.23A1.31,1.31,0,0,0,134.14,7.69Z"/><path class="cls-2" d="M139.69,6.76a5.51,5.51,0,0,1,.81,0,3.24,3.24,0,0,1,.76.18.64.64,0,0,1,.27.19.53.53,0,0,1,.09.33V8c0,.15,0,.32,0,.49s0,.05-.06.05-.05,0-.05-.05a1.79,1.79,0,0,0-.2-.67,1.44,1.44,0,0,0-.4-.45,1.55,1.55,0,0,0-.55-.26,2.8,2.8,0,0,0-.64-.08,2.84,2.84,0,0,0-1,.17,1.74,1.74,0,0,0-.75.5,2.19,2.19,0,0,0-.5.84,3.52,3.52,0,0,0-.14,1.16,3.44,3.44,0,0,0,.23,1.23,2.23,2.23,0,0,0,.55.83,2.16,2.16,0,0,0,.79.48,2.54,2.54,0,0,0,.94.15,2.75,2.75,0,0,0,.75-.09,1.44,1.44,0,0,0,.51-.29,1.29,1.29,0,0,0,.31-.45,2,2,0,0,0,.16-.6s0-.05.06-.06.06,0,.06.06v.62a2.54,2.54,0,0,1,0,.39.85.85,0,0,1-.09.22.35.35,0,0,1-.14.13l-.19.09a2.38,2.38,0,0,1-.52.15,4,4,0,0,1-.91.07,4.34,4.34,0,0,1-1.34-.19,3.17,3.17,0,0,1-1-.6,2.43,2.43,0,0,1-.64-.91,2.93,2.93,0,0,1-.22-1.17,3.42,3.42,0,0,1,.19-1.22,2.48,2.48,0,0,1,.6-.94,2.68,2.68,0,0,1,1-.6A3.48,3.48,0,0,1,139.69,6.76Z"/><path class="cls-2" d="M144.88,9.7v1.9c0,.1,0,.21,0,.32a.26.26,0,0,0,.09.16.48.48,0,0,0,.18.08h1a1.46,1.46,0,0,0,.46-.1.8.8,0,0,0,.29-.23,1,1,0,0,0,.16-.34,3.33,3.33,0,0,0,.1-.4.06.06,0,0,1,.06-.05h0s0,0,0,.05v1.1a.31.31,0,0,1-.16.21,1.21,1.21,0,0,1-.38.06h-3.12s-.06,0-.05-.05,0-.06.05-.06a1,1,0,0,0,.29,0,.32.32,0,0,0,.18-.13,1.14,1.14,0,0,0,.09-.26,3.55,3.55,0,0,0,0-.46V7.51a.73.73,0,0,0-.07-.29.35.35,0,0,0-.18-.16,1.37,1.37,0,0,0-.35-.08,0,0,0,0,1-.05,0s0-.06.05-.06h2.94a1,1,0,0,1,.3,0c.07,0,.1.08.09.19a2.07,2.07,0,0,1,0,.4c-.05.15,0,.31-.06.46s0,0-.06,0,0,0,0,0a1.06,1.06,0,0,0-.13-.55.63.63,0,0,0-.48-.23H145V9.41h1.65l.08,0,0,0h0v.22a1.92,1.92,0,0,1,0,.32c0,.1,0,.18,0,.23a.06.06,0,0,1-.06.05s-.05,0-.05-.05a.34.34,0,0,0,0-.2.2.2,0,0,0-.11-.11.45.45,0,0,0-.19-.05H145Z"/><path class="cls-2" d="M149.47,11.93a2.09,2.09,0,0,1,0-.5,2.44,2.44,0,0,1,.07-.46.06.06,0,0,1,.06-.05s0,0,0,.05a1.79,1.79,0,0,0,.36,1,1.1,1.1,0,0,0,.89.37,1.18,1.18,0,0,0,.9-.3,1,1,0,0,0,.32-.75,1.32,1.32,0,0,0-.09-.48,1,1,0,0,0-.25-.38,1.77,1.77,0,0,0-.41-.31l-.55-.31a4.34,4.34,0,0,1-.46-.28,2.22,2.22,0,0,1-.39-.36,1.81,1.81,0,0,1-.26-.47,1.54,1.54,0,0,1-.09-.6,1.37,1.37,0,0,1,.44-1,1.75,1.75,0,0,1,1.17-.38,2.7,2.7,0,0,1,.49,0,1.4,1.4,0,0,1,.34.08.59.59,0,0,1,.25.17.5.5,0,0,1,.06.34,1,1,0,0,1,0,.31,3,3,0,0,0,0,.36c0,.09,0,0-.05,0s-.05,0-.05,0a1.43,1.43,0,0,0-.09-.41,1.17,1.17,0,0,0-.2-.34,1.13,1.13,0,0,0-1.51-.09.92.92,0,0,0-.29.73,1.07,1.07,0,0,0,.29.77,2.33,2.33,0,0,0,.7.51q.38.19.72.42a2.48,2.48,0,0,1,.49.43,1.29,1.29,0,0,1,.27.47,2,2,0,0,1,.07.6,1.4,1.4,0,0,1-.15.6,1.53,1.53,0,0,1-.93.76,2.32,2.32,0,0,1-.7.1,4,4,0,0,1-.6,0,2.83,2.83,0,0,1-.41-.14.7.7,0,0,1-.26-.19A.53.53,0,0,1,149.47,11.93Z"/><path class="cls-2" d="M36.71,11.91a4,4,0,0,1,0-.49c0-.16,0-.32.07-.47,0,0,0,0,.06,0s0,0,0,0a1.78,1.78,0,0,0,.35,1,1.11,1.11,0,0,0,.9.38,1.28,1.28,0,0,0,.9-.3,1,1,0,0,0,.31-.76,1.16,1.16,0,0,0-.08-.48,1.21,1.21,0,0,0-.25-.37,1.75,1.75,0,0,0-.41-.32l-.55-.31a2.69,2.69,0,0,1-.46-.28,1.67,1.67,0,0,1-.39-.36,2,2,0,0,1-.27-.47,1.54,1.54,0,0,1-.09-.6,1.32,1.32,0,0,1,.45-1,1.69,1.69,0,0,1,1.16-.39,2.81,2.81,0,0,1,.5,0,2,2,0,0,1,.33.08.49.49,0,0,1,.25.17.5.5,0,0,1,.06.34,1.36,1.36,0,0,1,0,.31c0,.15,0,.26,0,.36s0,.05-.06,0-.05,0-.05,0a1.37,1.37,0,0,0-.09-.4,1.16,1.16,0,0,0-.18-.35,1.16,1.16,0,0,0-1.52-.08.94.94,0,0,0-.28.73,1.06,1.06,0,0,0,.29.77,2.33,2.33,0,0,0,.7.51q.38.19.72.42a2.41,2.41,0,0,1,.48.42,1.15,1.15,0,0,1,.27.48,1.74,1.74,0,0,1,.08.6,1.56,1.56,0,0,1-.15.6,1.4,1.4,0,0,1-.38.46,1.83,1.83,0,0,1-.55.3,2.37,2.37,0,0,1-.7.1,3.05,3.05,0,0,1-.6-.06,2.25,2.25,0,0,1-.42-.13.6.6,0,0,1-.25-.2A.5.5,0,0,1,36.71,11.91Z"/><path class="cls-2" d="M43.2,9.81v1.63c0,.16,0,.31,0,.46a.84.84,0,0,0,.08.27.3.3,0,0,0,.19.12,1.65,1.65,0,0,0,.32.06s.05,0,.05,0h0s0,0-.05,0H42s-.05,0-.05,0,0-.05.05-.05a1.31,1.31,0,0,0,.27-.06.36.36,0,0,0,.18-.12.62.62,0,0,0,.09-.26,3.71,3.71,0,0,0,0-.47V8a3.08,3.08,0,0,0,0-.53.77.77,0,0,0-.1-.29A.3.3,0,0,0,42.21,7,1.17,1.17,0,0,0,42,7a.06.06,0,0,1-.06,0A.05.05,0,0,1,42,6.86H43.7s0,0,0,0a.07.07,0,0,1,0,.06.84.84,0,0,0-.24.06.23.23,0,0,0-.15.12.66.66,0,0,0-.09.28,4.53,4.53,0,0,0,0,.52V9.81Z"/><path class="cls-2" d="M49.08,11.89c-.06-.11-.13-.25-.22-.4s-.19-.3-.29-.48l-.33-.53-.33-.54-.28.46-.3.5-.28.49c-.09.15-.16.29-.22.41a.55.55,0,0,0-.12.39c0,.09.15.14.39.16a0,0,0,0,1,0,.05s0,0,0,0H45.45s0,0,0,0,0,0,0-.05a1.3,1.3,0,0,0,.43-.11,1.21,1.21,0,0,0,.4-.41L47,10.77q.39-.57.72-1.11-.18-.27-.36-.6c-.12-.2-.24-.39-.36-.6L46.68,8l-.31-.49-.17-.23A.57.57,0,0,0,46,7.09L45.88,7a.93.93,0,0,0-.23,0,.06.06,0,0,1-.06,0,.05.05,0,0,1,.06-.06h1.76q.08,0,.06.06a.06.06,0,0,1-.06,0c-.2,0-.31.07-.34.14a.5.5,0,0,0,.09.32l.45.83.53.9q.26-.4.48-.81c.15-.27.3-.53.42-.78a2.52,2.52,0,0,0,.12-.29.43.43,0,0,0,0-.16A.12.12,0,0,0,49.08,7a.58.58,0,0,0-.18,0,.06.06,0,0,1-.06,0,.05.05,0,0,1,.06-.06h1.46a.06.06,0,0,1,.06,0h0s0,0-.06,0h-.18A.64.64,0,0,0,50,7l-.18.16a1.39,1.39,0,0,0-.21.27c-.24.34-.47.67-.69,1s-.42.64-.61.92l.38.6.39.7.42.63.36.54a2.11,2.11,0,0,0,.35.38.74.74,0,0,0,.38.12,0,0,0,0,1,0,.05c0,.06,0,0,0,0h-1.7s0,0,0,0,0-.05,0-.05.27-.06.28-.14A.45.45,0,0,0,49.08,11.89Z"/><path class="cls-2" d="M55.49,11.91a4,4,0,0,1,0-.49c0-.16,0-.32.07-.47a.07.07,0,0,1,.06,0s0,0,0,0A1.78,1.78,0,0,0,56,12a1.18,1.18,0,0,0,.9.38,1.28,1.28,0,0,0,.9-.3,1,1,0,0,0,.32-.76,1.36,1.36,0,0,0-.09-.48,1.05,1.05,0,0,0-.25-.37,1.57,1.57,0,0,0-.41-.32l-.55-.31a3.14,3.14,0,0,1-.46-.28A1.67,1.67,0,0,1,56,9.19a2,2,0,0,1-.27-.47,1.75,1.75,0,0,1-.09-.6,1.32,1.32,0,0,1,.45-1,1.7,1.7,0,0,1,1.16-.39,2.81,2.81,0,0,1,.5,0,2,2,0,0,1,.33.08.56.56,0,0,1,.26.17.56.56,0,0,1,.06.34v.31a2.6,2.6,0,0,1-.05.36c0,.1,0,.05-.06,0s0,0,0,0a1.37,1.37,0,0,0-.09-.4,1.15,1.15,0,0,0-.22-.35A1,1,0,0,0,57.59,7,1.17,1.17,0,0,0,57.14,7a1.12,1.12,0,0,0-.73.25.91.91,0,0,0-.29.73,1.06,1.06,0,0,0,.29.77,2.33,2.33,0,0,0,.7.51q.38.19.72.42a2.47,2.47,0,0,1,.49.42,1.42,1.42,0,0,1,.27.48,2,2,0,0,1,.07.6,1.56,1.56,0,0,1-.15.6,1.53,1.53,0,0,1-.93.76,2.32,2.32,0,0,1-.7.1,3.05,3.05,0,0,1-.6-.06,2.25,2.25,0,0,1-.42-.13.67.67,0,0,1-.25-.2A.5.5,0,0,1,55.49,11.91Z"/><path class="cls-2" d="M62,9.69v1.89a1.17,1.17,0,0,0,0,.32.32.32,0,0,0,.09.17.48.48,0,0,0,.18.07h1a1.28,1.28,0,0,0,.47-.1.8.8,0,0,0,.29-.23,1,1,0,0,0,.15-.33,4.11,4.11,0,0,0,.1-.41s0-.05.06,0h0s0,0,0,0V12a.74.74,0,0,1,0,.21.26.26,0,0,1-.14.21,1.06,1.06,0,0,1-.39.06H60.79s0,0,0,0,0-.05,0-.05a1.5,1.5,0,0,0,.29-.06.3.3,0,0,0,.17-.12.72.72,0,0,0,.09-.27,3.57,3.57,0,0,0,0-.46V7.49a1,1,0,0,0-.07-.29A.41.41,0,0,0,61.1,7,1.45,1.45,0,0,0,60.75,7a.06.06,0,0,1-.06,0,.05.05,0,0,1,.06-.06h2.94a1,1,0,0,1,.3,0c.07,0,.1.08.09.19a2.17,2.17,0,0,1,0,.4c0,.15,0,.31-.05.46s0,0-.07,0,0,0,0,0a1.18,1.18,0,0,0-.14-.55.58.58,0,0,0-.47-.23H62V9.39h1.65l.08,0,0,0h0v.22a.74.74,0,0,1,0,.32.6.6,0,0,0,0,.23.08.08,0,0,1-.07.05s0,0,0-.05a.45.45,0,0,0,0-.2.25.25,0,0,0-.12-.11.59.59,0,0,0-.19,0H62Z"/><path class="cls-2" d="M71.91,7.67l-.06,1c0,.35,0,.71,0,1.09s0,.76,0,1.2v1.56a0,0,0,0,1-.07,0l-.13-.14-.45-.5-.49-.55-.6-.6L69.34,10c-.44-.43-.81-.82-1.15-1.16l-.79-.78v2.67a8,8,0,0,0,0,1,.8.8,0,0,0,.17.44.86.86,0,0,0,.56.21.05.05,0,0,1,0,0c0,.05,0,.05,0,.05H66.5s0,0,0-.05,0,0,0,0a.66.66,0,0,0,.34-.15A.75.75,0,0,0,67,11.8c0-.26,0-.53,0-.82s0-.6,0-.87V6.8h.06l.14.13c.33.37.69.75,1.06,1.15s.78.81,1.23,1.26l1.08,1.08c.31.32.6.6.84.82V9.6c0-.57,0-1.2,0-1.81a1.11,1.11,0,0,0,0-.39.5.5,0,0,0-.09-.24A.46.46,0,0,0,71.08,7a1.59,1.59,0,0,0-.3-.06s0,0,0,0h0s0-.06,0-.06h1.49s0,0,0,.06a.07.07,0,0,1,0,0h0a.38.38,0,0,0-.34.22A1.11,1.11,0,0,0,71.91,7.67Z"/><path class="cls-2" d="M74.62,11.91a2,2,0,0,1,0-.49,2.42,2.42,0,0,1,.07-.47.06.06,0,0,1,.06,0s0,0,0,0a1.79,1.79,0,0,0,.36,1,1.1,1.1,0,0,0,.9.38,1.24,1.24,0,0,0,.89-.3,1,1,0,0,0,.32-.76,1,1,0,0,0-.09-.48.94.94,0,0,0-.25-.37,1.57,1.57,0,0,0-.41-.32L76,9.83a2.78,2.78,0,0,1-.47-.28,1.85,1.85,0,0,1-.38-.36,1.47,1.47,0,0,1-.27-.47,1.54,1.54,0,0,1-.09-.6,1.32,1.32,0,0,1,.45-1,1.69,1.69,0,0,1,1.16-.39,2.7,2.7,0,0,1,.49,0,2.09,2.09,0,0,1,.34.08.53.53,0,0,1,.25.17.5.5,0,0,1,.06.34v.31a2.84,2.84,0,0,1,0,.36c0,.1,0,.05,0,0s-.05,0-.05,0a1.37,1.37,0,0,0-.09-.4.94.94,0,0,0-.2-.35A1.08,1.08,0,0,0,76.74,7,1.05,1.05,0,0,0,76.28,7a1.11,1.11,0,0,0-.73.24,1,1,0,0,0-.29.73,1.11,1.11,0,0,0,.25.78,2.33,2.33,0,0,0,.7.51q.38.19.72.42a2.47,2.47,0,0,1,.49.42,1.42,1.42,0,0,1,.27.48,2,2,0,0,1,.07.6,1.56,1.56,0,0,1-.15.6,1.5,1.5,0,0,1-.37.46,1.77,1.77,0,0,1-.56.3,2.32,2.32,0,0,1-.7.1,3.05,3.05,0,0,1-.6-.06A2.25,2.25,0,0,1,75,12.4a.67.67,0,0,1-.25-.2A.5.5,0,0,1,74.62,11.91Z"/><path class="cls-2" d="M81.1,9.69v1.89c0,.11,0,.21,0,.32a.32.32,0,0,0,.09.17.67.67,0,0,0,.18.07h1a1.23,1.23,0,0,0,.46-.1.8.8,0,0,0,.29-.23,1,1,0,0,0,.16-.33,4.11,4.11,0,0,0,.1-.41,0,0,0,0,1,.06,0h0s0,0,0,0v1.1a.33.33,0,0,1-.15.21,1.06,1.06,0,0,1-.39.06H79.91s-.06,0,0,0,0-.05,0-.05a1.5,1.5,0,0,0,.29-.06.36.36,0,0,0,.18-.12,1.43,1.43,0,0,0,.09-.27,3.55,3.55,0,0,0,0-.46V7.49a.73.73,0,0,0-.07-.29A.35.35,0,0,0,80.25,7,1.36,1.36,0,0,0,79.9,7a0,0,0,0,1-.05,0s0-.06.05-.06h2.94a1,1,0,0,1,.3,0c.07,0,.1.08.09.19a2.07,2.07,0,0,1,0,.4,3.62,3.62,0,0,0-.06.46s0,0-.06,0,0,0,0,0a1,1,0,0,0-.14-.55.57.57,0,0,0-.47-.23H81.17V9.39h1.65l.08,0,0,0h0v.22a.74.74,0,0,1,0,.32c0,.11,0,.18,0,.23a.06.06,0,0,1-.06.05,0,0,0,0,1,0-.05.28.28,0,0,0,0-.2.2.2,0,0,0-.11-.11.67.67,0,0,0-.19,0l-.32-.05Z"/><path class="cls-2" d="M85.69,11.91a2,2,0,0,1,0-.49,2.42,2.42,0,0,1,.07-.47,0,0,0,0,1,0,0c.06,0,0,0,0,0a1.79,1.79,0,0,0,.36,1,1.08,1.08,0,0,0,.89.38,1.26,1.26,0,0,0,.9-.3,1,1,0,0,0,.32-.76,1.36,1.36,0,0,0-.09-.48.94.94,0,0,0-.25-.37,1.57,1.57,0,0,0-.41-.32L87,9.83a3.14,3.14,0,0,1-.46-.28,1.9,1.9,0,0,1-.39-.36,1.66,1.66,0,0,1-.26-.47,1.54,1.54,0,0,1-.09-.6,1.35,1.35,0,0,1,.44-1,1.71,1.71,0,0,1,1.17-.39,2.7,2.7,0,0,1,.49,0,2.09,2.09,0,0,1,.34.08.59.59,0,0,1,.25.17.5.5,0,0,1,.06.34,1,1,0,0,1,0,.31,2.8,2.8,0,0,1,0,.36c0,.1,0,.05,0,0s0,0,0,0a1.37,1.37,0,0,0-.09-.4,1.16,1.16,0,0,0-.18-.35,1.14,1.14,0,0,0-1.51-.08.91.91,0,0,0-.29.73,1.06,1.06,0,0,0,.29.77,2.33,2.33,0,0,0,.7.51q.38.19.72.42a2.41,2.41,0,0,1,.48.42,1.15,1.15,0,0,1,.27.48,1.74,1.74,0,0,1,.08.6,1.56,1.56,0,0,1-.15.6,1.4,1.4,0,0,1-.38.46,1.83,1.83,0,0,1-.55.3,2.37,2.37,0,0,1-.7.1,3.05,3.05,0,0,1-.6-.06,2.25,2.25,0,0,1-.42-.13.67.67,0,0,1-.25-.2A.5.5,0,0,1,85.69,11.91Z"/></svg>