<svg viewBox="0 0 26 26" xmlns="http://www.w3.org/2000/svg"><path d="m23.88 15.21c0 1-.06 2-.08 3a56.8 56.8 0 0 0 -9.65 2c-3.9 1-7.95 2.13-12.08 2.09 0-1.38 0-2.76 0-4.14-.07-3.16-.07-6.48-.02-9.7a17.15 17.15 0 0 0 2 .12 23.48 23.48 0 0 0 8.66-1.87l.83-.33c3.46-1.38 6.67-2.62 10.3-2.64.26 3.82.15 7.71 0 11.47m.87-13.08a.85.85 0 0 0 -.41-.13c-3.7-.1-7.16 1.19-10.5 2.44-3.15 1.18-6.42 2.4-9.8 2.4a14.22 14.22 0 0 1 -2.45-.21.87.87 0 0 0 -.75.2.83.83 0 0 0 -.43.73c-.12 3.5-.08 7.06 0 10.51v4.86a.81.81 0 0 0 .39.72.83.83 0 0 0 .66.34h1c4.1 0 8.07-1.07 11.9-2.11a52.43 52.43 0 0 1 10.44-2 .85.85 0 0 0 .63-.31 1 1 0 0 0 .21-.71.89.89 0 0 0 0-.22q0-1.74.09-3.48a110.11 110.11 0 0 0 -.15-12.16.89.89 0 0 0 -.79-.82"/><path d="m4.62 18.49a1.82 1.82 0 0 1 -.35.11l-.47.11a.54.54 0 0 0 -.38.67.55.55 0 0 0 .67.38 4.64 4.64 0 0 0 1.08-.33.55.55 0 0 0 .2-.75.56.56 0 0 0 -.75-.19"/><path d="m7.49 17.26a3.41 3.41 0 0 1 -.83.42.57.57 0 0 0 -.38.67.53.53 0 0 0 .67.38 4.78 4.78 0 0 0 1.05-.53.55.55 0 0 0 .19-.75.54.54 0 0 0 -.74-.19"/><path d="m10.29 15.21a.56.56 0 0 0 -.75.2v.07l-.11.13-.3.3a.54.54 0 1 0 .77.77 4.91 4.91 0 0 0 .64-.72.56.56 0 0 0 -.2-.75"/><path d="m10.15 12.61a.55.55 0 0 0 -.54.55v.55a.54.54 0 0 0 .54.54.55.55 0 0 0 .55-.54v-.55a.55.55 0 0 0 -.55-.55"/><path d="m10.14 9a1.85 1.85 0 0 0 -1.23 1.05 1.72 1.72 0 0 0 .36 1.52.56.56 0 0 0 .75.2.54.54 0 0 0 .19-.75c-.11-.16-.31-.42-.27-.61s.33-.3.49-.36c.65-.25.37-1.3-.29-1.05"/><path d="m12.26 8.27-.62.2a.56.56 0 0 0 -.38.67.54.54 0 0 0 .67.38l.62-.2a.55.55 0 0 0 .38-.67.54.54 0 0 0 -.67-.38"/><path d="m15.62 8.06a3.49 3.49 0 0 0 -1.24-.22.55.55 0 0 0 0 1.09 2.6 2.6 0 0 1 .95.19.55.55 0 0 0 .67-.39.57.57 0 0 0 -.38-.67"/><path d="m17.45 11.11a.55.55 0 0 0 .2-.75c-.17-.26-.36-.5-.55-.75a.54.54 0 1 0 -.94.55c.19.25.37.49.55.75a.55.55 0 0 0 .74.2"/><path d="m18.13 12.41a.55.55 0 1 0 -1.09 0 3.1 3.1 0 0 0 1.05 2c.52.47 1.3-.3.77-.77a2.06 2.06 0 0 1 -.73-1.25"/><path d="m22.78 16.3-.84-.53c.19-.38.38-.77.54-1.17.27-.65-.79-.93-1.05-.29-.12.3-.26.59-.41.88l-.84-.52c-.6-.37-1.15.57-.55.94.29.17.57.35.85.53q-.27.42-.57.84c-.41.57.53 1.11.95.55q.29-.41.54-.81c.28.17.55.35.82.53.59.39 1.14-.56.56-.95"/></svg>