<svg viewBox="0 0 26 26" xmlns="http://www.w3.org/2000/svg"><path d="m20 13.34a30 30 0 0 0 -8-1.25 8.21 8.21 0 0 0 -1.06.1 33.58 33.58 0 0 1 3-5.94 6.67 6.67 0 0 1 3.58-2.73c1.81-.54 3.58.1 5.27.74a31.91 31.91 0 0 0 -2.79 9.08m-8.61 3.34a2.24 2.24 0 0 1 -.51-.41 1.28 1.28 0 0 0 -.14-.21c-1.73-2 0-2.45 1.75-2.47-.42 1-.77 2.05-1.1 3.09m-9.13-.19a25.54 25.54 0 0 1 3.48-8.95 23.53 23.53 0 0 0 5.26.55c-.87 1.91-1.56 3.91-2.42 5.67a.76.76 0 0 0 -.06.18 3 3 0 0 0 .9 2.88.83.83 0 0 0 .16.29l.23.24a14.18 14.18 0 0 1 -7.59-.86m21.7-14.36c-.18.27-.35.55-.51.83a11.26 11.26 0 0 0 -5.71-.96 7.3 7.3 0 0 0 -4.21 2.37 12.17 12.17 0 0 0 -1.66 2.26 21.71 21.71 0 0 1 -6.12-.63.79.79 0 0 0 -.34 0 .72.72 0 0 0 -.65.35 27 27 0 0 0 -4 10.19 1 1 0 0 0 0 .24.62.62 0 0 0 .34.82 16 16 0 0 0 10.87.81.7.7 0 0 0 .57-.51 36.4 36.4 0 0 1 1.4-4 .82.82 0 0 0 .06-.19h.41a42.39 42.39 0 0 1 5.33 1.11c-.42 2.84-.68 5.71-1.07 8.47-.14.94 1.29 1.34 1.43.4 1-7 1.1-14.72 5.11-20.81.53-.8-.75-1.54-1.28-.74"/></svg>