<svg viewBox="0 0 26 26" xmlns="http://www.w3.org/2000/svg"><path d="m14.18 22.89a.55.55 0 0 0 -.26 0c-7.12 1-12-6.54-10-12.93a10.53 10.53 0 0 1 11.35-6.96c4.48.69 7.13 4.69 7.5 9 .46 5.26-3.73 9.79-8.59 11m-1.95-22.56c-6.71 1.07-12.23 6.56-11.43 13.56.57 5 5.2 12.33 10.86 11.56 6.52 1.14 13.15-5.31 13.58-11.64.5-7.35-5.24-14.71-13.01-13.48"/><path d="m13.19 12c.16-.86.23-1.74.32-2.61a10.06 10.06 0 0 0 .23-2.43c-.09-.51-.73-.44-1-.12-.37.48-.24 1.5-.27 2.07l-.15 3a1 1 0 0 0 -.3.1.56.56 0 0 0 -.26.38c-2.57.14-5.14.2-7.7.36a.42.42 0 0 0 0 .83 31.47 31.47 0 0 0 7.45 0 1.09 1.09 0 0 0 .08.15 1 1 0 0 0 1.42.09 1.33 1.33 0 0 0 .7-1.27.75.75 0 0 0 -.55-.59"/></svg>