<svg viewBox="0 0 12 25" xmlns="http://www.w3.org/2000/svg"><path d="m1 24a1.32 1.32 0 0 1 -.41.59.43.43 0 0 1 -.32.08c-.09 0-.15-.1-.2-.25a.83.83 0 0 1 .1-.58c.23-.66.63-1.58 1.16-2.84s1.12-2.56 1.74-4 1.28-3 1.93-4.6 1.29-3 1.84-4.34 1-2.43 1.42-3.31.6-1.4.64-1.53l.63-1.63c.15-.38.27-.67.35-.85a1.89 1.89 0 0 1 .18-.32.21.21 0 0 1 .09 0 .32.32 0 0 0 .28.1h.49.53a1.22 1.22 0 0 1 .42.07q.12.06.06.3a9.76 9.76 0 0 1 -.51 1.11c-.1.17-.29.57-.57 1.19s-.66 1.39-1.1 2.31-.95 2-1.49 3.1l-1.68 3.55c-.58 1.21-1.15 2.42-1.73 3.64s-1.13 2.36-1.64 3.42-1 2-1.34 2.83z" fill="#bbb"/></svg>