<svg id="Layer_1" data-name="Layer 1" xmlns="http://www.w3.org/2000/svg" viewBox="0 0 147 20"><defs><style>.cls-1{fill:#673065;}.cls-2{fill:#666;}.cls-3{fill:#5d5e5e;}</style></defs><title>shaharut-mobile</title><path class="cls-1" d="M26.38,17.78c0-.18,0-.34,0-.48s0,0-.05-.05,0,0,0-.05,0-.09,0-.07-.05-.21-.12-.17,0-.06,0,0a.53.53,0,0,1,0-.21,2,2,0,0,1-.08-.2.51.51,0,0,0-.13-.19c.06,0,0,0,0-.06l.05,0-.06-.09v0s0,0-.05,0A.15.15,0,0,1,26,16h0l0,0s0,.13,0,0,0-.09,0-.1,0,.06,0,.05l-.05-.07h.05a2.74,2.74,0,0,0-.58-.49s-.15-.1-.16,0h0c.05,0,0,0-.08,0s-.06-.09.06,0l0,0h-.29a2.57,2.57,0,0,0-2.53,1.36l-.06,0a3.07,3.07,0,0,1,.92-1.53s-.06.05-.09.05,0,0,0,0-.23,0-.25.08,0,0,0,.07,0-.08-.11,0,0,0,0,0-.05.15-.1.16v0c-.08,0-.11.17-.16.13v0c-.08.12-.05,0-.14.15h0c-.05,0-.05.09-.11.08l0,0a.63.63,0,0,0-.11.12l0,0s-.13.14-.15.17,0,0,0,0-.06,0-.07.09-.09,0-.15.05,0,0,0,0,0,0,0,0,0,0,0,0-.07.11-.12.2,0,0,0,0,0,.14-.06.08c0,.1-.05.22-.08.32a.83.83,0,0,0,0,.25s0,.07,0,.1h0a1.71,1.71,0,0,0-.07.18s0,0,.06,0,0,0,0,.08h0a.17.17,0,0,0,0,.1h0c-.05,0,0,.15-.05.18s0,.09.05.11a.43.43,0,0,0,0,.05s0,0,0,0h0s0,.07,0,.09l0,0s0,0,0,0h0a.15.15,0,0,1,0,.07.34.34,0,0,1,.05.17.3.3,0,0,0,.08.18l0,0c0,.1.12.17.14.24h0a.68.68,0,0,0,.09.17l0,0,.1.16c0,.05.08.1.13.1s.08.08.12.12h0a.46.46,0,0,1,.1.1.5.5,0,0,1,.12.08l-.06,0,.08,0a0,0,0,0,0,0,0,2.31,2.31,0,0,0,.19.14h0l.1.07s0,0,0,0a.19.19,0,0,0,.13,0l.07,0c-.07-.05,0,0,0-.05l0,0s0,0,0,0,.11.05.13.09h0c.06,0,0,0,0,0s.11,0,.17,0,.16,0,.1.08,0,0,.07,0a.37.37,0,0,1-.18-.08l.06,0s-.12,0-.15,0,.07,0,.07,0l0,0a.44.44,0,0,1-.18-.09s-.05,0,0-.05h0s0,0,0,0l.24.08h0l.19,0s.1.07.07.09,0,0,.09,0-.06,0-.08,0,.05,0,.06,0,.09-.11,0-.13a.1.1,0,0,1-.11,0,2.32,2.32,0,0,0,1.95-.66l.09-.11c0,.05,0,.09,0,.08l0,0s.09-.1.14-.1,0-.09.05-.14,0,0,0,0,0-.05,0,0a5.12,5.12,0,0,1,.22-.47,1.27,1.27,0,0,0,.15-.49s0,0,0,0,0-.06,0-.09a.42.42,0,0,0,0-.1s0,0,.05,0m-4.82-.36h0l.06-.06s0,0,0,.07m.1,1a.28.28,0,0,0,0-.09h0a.27.27,0,0,1,0-.17c0,.05,0,.09,0,.13a1.09,1.09,0,0,1-.05.14M22,16.1v0h0l0,0h0l0,0s0,0,0,0h0A.46.46,0,0,1,22,16.1m0,2.72a1,1,0,0,1-.14-.1s0,0,.07-.06a.25.25,0,0,0,0,.07l0,0,0,0,0,.06s0,0,0,0m.23.25h0a.41.41,0,0,1,0-.08.27.27,0,0,1,.07.08h0m.62.63h0m0-.14-.06,0a.77.77,0,0,1,.15.06s0,.06-.05.07a.17.17,0,0,1-.11-.08.26.26,0,0,0-.12-.11s0,.05-.06,0a.24.24,0,0,1-.08-.16,2.34,2.34,0,0,0,.43.26h0a.47.47,0,0,0-.16-.07.24.24,0,0,1,.08.06m.82.24h0M26,16.17h0s0,0,0,0"/><path class="cls-1" d="M20.5,10.17s0-.13,0-.18h0a.74.74,0,0,1,0-.15.69.69,0,0,1,0-.13.17.17,0,0,0,0,.05.37.37,0,0,0,0-.09s0,0,0,0a1.57,1.57,0,0,0,0-.24h0s0-.08,0-.12,0,0,0-.06a.27.27,0,0,0,0-.14l0-.07c0,.09,0,0-.06,0a.43.43,0,0,0,0-.05s0,0,0,0,0-.12,0-.16l0,0v0c0-.05,0,0,0,0s-.06-.09-.13-.11c.09,0-.08-.13,0-.12s0,0-.07,0a.49.49,0,0,1,.07.19l-.05,0s.07.09.08.13,0-.06-.05-.06h0a.29.29,0,0,1,.06.19s0,.07,0,0l0,0s0,0,0,0A1.51,1.51,0,0,0,20,8.79l0,0,0,0h0c0-.06-.07-.11-.1-.16s0-.11,0-.11,0,0-.08-.06.07,0,.09,0,0-.06,0-.07-.15,0-.13.07a.09.09,0,0,1,.06.08,2.39,2.39,0,0,0-.93-.73h-.07a2.58,2.58,0,0,0-2.53,1.36l-.05,0a3,3,0,0,1,.88-1.49h0a1.28,1.28,0,0,0-.45.23s0,0,0,0-.06,0-.1,0l0,.09s0,0,0,0-.23.24-.35.33,0,0,0,.06,0,0-.06,0-.06.07-.06,0-.11.17,0,.2-.05,0-.05,0a1,1,0,0,1-.12.17L15.73,9a.37.37,0,0,0-.05.23c0-.06,0,0,0,0l0,0,0,.1v0s0,0,0,.05a.23.23,0,0,1-.06.11v0s.06-.12.06,0-.07.06-.05.1,0-.05,0,0a.28.28,0,0,0,0,.09l0,0a2.81,2.81,0,0,0,.05.76s0,.17.09.14h0c0-.06,0,0,0,.06s0,.1-.07,0c0,0,0,.07,0,.1s0,.11,0,.18a1.2,1.2,0,0,1,.11.23v0c0,.14.18.25.18.28h0a.36.36,0,0,0,.14.23s0,0,0,0a.19.19,0,0,0,.09.14h0l.1.11s.07,0,.12.07.1.11.15.08.09.11.13.14h0c0,.07.16.06.21.09s0,0,0,0,.2.13.23.12,0,0,.06,0,0,.08.08.08,0,0,0,0,.15-.08.19-.05h0c.07,0,.2,0,.2,0v0c.15,0,.06,0,.21,0h0c.06,0,.09,0,.12,0h.21s.18,0,.21,0,0,0,0,0,.07,0,.12,0,0,.1.14.07h0s0,0,0,0,.11,0,.21,0,0,0,0,0,.11-.1.1,0,.19-.11.29-.17.17-.11.18-.15.07,0,.1-.06h0c.1,0,.06,0,.18-.08-.06,0-.05,0,0-.06l.09,0,0,0a.14.14,0,0,0,.07-.08s0,0,0,0,.14-.08.17-.09.06-.06,0-.11l0,0s0,0,0,0h0l0,0,.06-.06v0a.06.06,0,0,0,0,0h0l0-.06a.37.37,0,0,1,.09-.16.29.29,0,0,0,.07-.18s0,0,0,0,0-.21.07-.26h0a.82.82,0,0,0,.06-.19h0s0-.12,0-.19a.23.23,0,0,0,0-.15m-4.9-.8h0s0,0,0,0m2.87,2.94h0s0,0,0,0h-.1l0,0h0l0,0s0,0,0,0m1.07-.57.05,0,0,0h-.09m.32-3.17h0v0l0,0m.49.63s0,0,0,0h0M20.18,11v0a.29.29,0,0,1-.15.09L20.1,11l.13-.06-.05.06m.07-.4,0-.08h0a.22.22,0,0,0,0-.08h0a.67.67,0,0,1,0,.18h-.09m.07-.42a.28.28,0,0,0,0-.09h0l0,0s0,0,0,.06m0-.45a2.73,2.73,0,0,0-.1-.48h0a.78.78,0,0,0,.06.16.16.16,0,0,1,0-.1l0,.06c0-.05-.06-.08-.07-.15s0-.06.09,0a.13.13,0,0,1,0,.13.28.28,0,0,0,0,.16s0,0,0,.05a.24.24,0,0,1-.06.17"/><path class="cls-1" d="M11,10.14a1.89,1.89,0,0,0,.06-.18s0,0-.06,0a.35.35,0,0,0,.05-.08h0a.16.16,0,0,0,0-.1h0c.05,0,0-.16.05-.18s0-.09-.05-.11a.07.07,0,0,0,0-.05s.05,0,0,0h0a.19.19,0,0,0,0-.08l0,0,0,0h0a.14.14,0,0,1,0-.07.48.48,0,0,1-.05-.17.25.25,0,0,0-.08-.18s0,0,0,.05-.12-.17-.13-.24h0a.67.67,0,0,0-.08-.17l0,0-.11-.16c0-.05-.08-.1-.12-.1s-.09-.08-.12-.12h0a.93.93,0,0,1-.1-.1.52.52,0,0,1-.11-.07h.05l-.08,0,0,0a1.33,1.33,0,0,0-.19-.14h0l-.09-.07s0,0-.05,0a.22.22,0,0,0-.14,0,.15.15,0,0,0-.07,0c.07,0,0,0,0,0l0,0s0,0,0,0-.11,0-.13-.09h0c-.06,0,0,0,0,0s-.11,0-.17,0-.15,0-.1-.08,0,0-.07,0a.41.41,0,0,1,.19.08H9.13c0,.06.12,0,.15,0s-.07,0-.08,0l0,0a.34.34,0,0,1,.18.09c-.06,0,.05,0,0,0h0s0,0,0,0l-.24-.07h0l-.19,0s-.09-.06-.06-.08,0,0-.1,0,.06,0,.08,0,0,0,0,0-.09.11,0,.13a.09.09,0,0,1,.1,0,2.32,2.32,0,0,0-1.95.66l-.09.11c0-.05,0-.09,0-.08l0,0s-.09.1-.14.1l-.06.14s0,0,0,0,0,.05,0,0a3.38,3.38,0,0,1-.22.47,1.38,1.38,0,0,0-.14.49s0,0,0,0,0,.06,0,.09a.42.42,0,0,1,0,.1s0,0,0,0c0,.18,0,.34,0,.48s0,0,0,0,0,0,0,.06,0,.09,0,.07,0,.21.12.16,0,.07,0,0a.86.86,0,0,1,0,.21l.07.19a.49.49,0,0,0,.13.2s0,0,0,.06l0,0,0,.09,0,0s0,0,0,0a.21.21,0,0,1,0,.12h0l0,0s0-.12,0,0,0,.09,0,.1,0-.06,0,0a.18.18,0,0,0,0,.07h0a2.68,2.68,0,0,0,.57.49s.16.1.17,0h0s0,0,.07,0,.06.09-.06,0l0,0h.3a2.59,2.59,0,0,0,2.53-1.36l.05,0a3.06,3.06,0,0,1-.91,1.53s.06-.05.09-.05,0,0,0,0,.22-.05.24-.08,0,0,0-.07,0,.08.12,0h0s.05-.17.1-.17l0,0c.08,0,.11-.17.16-.13v0c.09-.12.06,0,.14-.15h0s0-.08.1-.08v0a.63.63,0,0,0,.11-.12.08.08,0,0,0,0,0s.13-.14.14-.17,0,0,0,0,.06,0,.07-.09.09,0,.14,0l0,0s0,0,0,0,0,0,0,0,.06-.1.12-.18,0,0,0,0,0-.14.06-.08c0-.1.06-.22.08-.33a.42.42,0,0,0,0-.24s0-.07,0-.1Zm-4.53,1s0,0,0,0ZM8.88,7.57h0m.8.09h0m-.07.13h0a.47.47,0,0,0,.16.07.17.17,0,0,1-.08-.06l.06,0s-.09,0-.15-.06,0-.06.05-.07.09,0,.11.08a.28.28,0,0,0,.11.11s0,0,.06,0a.24.24,0,0,1,.08.16,2.26,2.26,0,0,0-.42-.26m.69.49h0a.12.12,0,0,1,0,.07l-.06-.08m.25,3v0h0l0,0h0l0,0s0,0,0,0h0l-.07.07m.06-2.56a.25.25,0,0,1,0-.07l0,0,0,0a.43.43,0,0,1,0-.07,0,0,0,0,1,0,0,1.28,1.28,0,0,1,.15.1.22.22,0,0,1-.07.06m.22.52,0-.13a1.27,1.27,0,0,1,0-.14s0,.06,0,.09h0a.37.37,0,0,1-.05.17m.11.79V9.94H11l-.06.07"/><path class="cls-1" d="M15.73,2.5a.21.21,0,0,0,0-.16h0V2.19s0-.06,0-.13,0-.15-.05-.16,0-.14,0-.19h0c0-.07-.06-.15-.08-.21s0,0,0,0,0-.23-.08-.25,0,0-.07,0,.08,0,0-.12,0,0,0,0-.16-.06-.17-.1h0c0-.08-.17-.11-.13-.16h0c-.12-.09,0-.06-.15-.14h0S15,.68,15,.63h0L14.89.53s0,0-.05,0-.13-.13-.16-.14,0,0,0,0,0-.07-.09-.07a.11.11,0,0,0,0-.08l-.42,0a2.57,2.57,0,0,0-2.53,1.36l-.06,0A3.26,3.26,0,0,1,12.39.14l0,0h.07l0,0h0l.1-.09a.35.35,0,0,1-.11,0,.27.27,0,0,0-.17.08s0,0,.05,0-.17.12-.24.13v0a.76.76,0,0,0-.18.09l0,0-.15.11c-.05,0-.1.08-.1.12s-.09.09-.13.12v0a.46.46,0,0,1-.1.1.31.31,0,0,1-.08.11s0,0,0,0a.15.15,0,0,0,0,.08s0,0,0,0a.85.85,0,0,0-.14.19h0l-.08.1s0,0,0,0a.3.3,0,0,0-.06.14l0,.07c0-.07,0,0,0,0l0,0s0,0,0,0-.06.12-.09.14,0,0,0,0h0c0,.06,0,0,0,0s0,.11,0,.17,0,.15-.08.1,0,0,0,.07a.37.37,0,0,1,.08-.18v.06c.05,0,0-.13,0-.16a.08.08,0,0,0,0,.08l0,0A.24.24,0,0,1,11,1.56c0,.05,0-.06.05,0l0,0s0,0,0,0-.05.16-.07.24a.43.43,0,0,0,0-.05v.06A1.29,1.29,0,0,0,11,2s-.06.09-.08.06,0,0,0,.1,0-.06-.05-.08,0,0,0,0,.12.09.14,0a.09.09,0,0,1,0-.1,2.32,2.32,0,0,0,.66,2,.48.48,0,0,0,.11.09c-.05,0-.09,0-.09,0l0,0s.1.1.1.14l.13.06s0,0,0,0,.06,0,0,0a4,4,0,0,1,.47.22,1.33,1.33,0,0,0,.48.14s0,0,0,0,.05,0,.09,0l.09,0s0,0,0,0c.17,0,.34,0,.48,0s0,0,0,0,0,0,.05,0,.1,0,.08,0,.2,0,.16-.12.06,0,.05,0a.78.78,0,0,1,.21,0l.19-.07c.09,0,.18-.09.19-.13s0,0,.07,0l0,.05.1-.06,0,0s0,0,0,0a.21.21,0,0,1,.12,0h0l0,0s-.12,0,0,0,.09,0,.1,0-.05,0,0,0l.06-.06v0a2.72,2.72,0,0,0,.49-.57s.09-.16,0-.17v0c0,.05,0,0,0-.08s.1-.06,0,.06l.07-.08c.06,0,.09-.06.11-.14a1.69,1.69,0,0,1,.08-.24h0c.08-.13,0-.31.07-.33l0,0a.34.34,0,0,0,.06-.26s0,0,0,0M12,.29s0,0,.06.06L12,.39l0,0,0,0L12,.44a0,0,0,0,1,0,0A.42.42,0,0,1,12,.29M11.76.6l-.08.06h0a0,0,0,0,0,0,0l.08,0m-.7.68h0s0,0,0,0m-.09.8h0l0,0v0m.21-.73h0c0-.08.07-.14.07-.16a.2.2,0,0,1-.06.07s0,0,0-.06,0,.1-.06.16-.07,0-.07-.05a.14.14,0,0,1,.07-.12.23.23,0,0,0,.11-.11s0,0,0-.06a.26.26,0,0,1,.17-.08,3,3,0,0,0-.27.42m3.4,3.14s0,0,0,0Zm0-4.07,0,0v0l0,0s0,0,0,0h0s0,0,0,0l.07.08h-.05"/><path class="cls-1" d="M15.63,16.88s0-.07,0,0c-.07-.17-.12-.33-.18-.49a1.16,1.16,0,0,0-.24-.45s0,0,0,0,0-.06,0-.09l-.1-.05s0,0,0,0-.25-.23-.33-.34,0,0-.07,0,0,0,0-.06-.07-.06-.05-.06-.17-.11-.19,0,0-.06,0-.06a.81.81,0,0,1-.18-.12L14.12,15a.37.37,0,0,0-.23-.05c.06,0,0,0,0,0l.05,0-.11,0h0s0,0,0,0a.13.13,0,0,1-.11-.06h0s.12.05,0,.05-.06-.06-.09,0,0,0,0,0h-.08l0,0a2.4,2.4,0,0,0-.75.06s-.18,0-.14.09h0c.06,0,0,.05-.06.05s-.11,0,0-.07h-.11s-.11,0-.18,0a.94.94,0,0,1-.22.12h0c-.14,0-.25.18-.28.18v0a.33.33,0,0,0-.22.15s0,0,0,0a.27.27,0,0,0-.15.09h0l-.1.1s0,.07-.07.12-.11.1-.08.15-.1.09-.14.13a0,0,0,0,1,0,0c-.07,0-.07.16-.1.22s0,0,0,0-.12.2-.11.24,0,0,0,.05-.08,0-.08.09,0,0,0,0,.08.14.05.18v0c0,.08,0,.2,0,.21h0c0,.14,0,.06,0,.2h0c0,.06,0,.1,0,.13v0a.92.92,0,0,0,0,.16s0,.05,0,.06,0,.19,0,.22,0,0,0,0a.09.09,0,0,0,0,.11s-.09,0-.06.14,0,0,0,0a.06.06,0,0,1,0,0s0,0,0,0,0,.12,0,.22,0,0,0,0,.09.11,0,.1l.17.29a.6.6,0,0,0,.15.18s0,.07.06.1l0,0a1.26,1.26,0,0,0,.08.18c0-.06,0,0,.06,0s0,.06,0,.08h0a.16.16,0,0,0,.07.07s0,0,0,0,.09.13.1.16.06.07.11,0l0,0s-.05,0,0,0h0l0,0a.34.34,0,0,0,.06.06h.23s0,0,0-.07l.11.06h.12a2.57,2.57,0,0,0,2.53-1.35h.05a3.2,3.2,0,0,1-.66,1.29l.17-.09,0,0,0,0h0l.16-.11s.11,0,.11,0,0,0,.06-.08,0,.07,0,.09.06,0,.07,0,0-.15-.07-.13a.09.09,0,0,1-.08.06,2.34,2.34,0,0,0,.91-1.85.68.68,0,0,0,0-.14s.07.07.09,0v0s0-.14,0-.16l-.06-.14s0,0,0,0m-4.76.9v0s0,0,0,0v-.1l0,0v0a.09.09,0,0,1,0,.05h0m.58,1.15v-.09l.05.05a.1.1,0,0,0-.05,0m2.31-4.07h0s0,0,0,0m.83,4.28,0,0h0Z"/><path class="cls-1" d="M5.12,17.08s0-.06,0,0c-.07-.16-.12-.32-.18-.49a1.18,1.18,0,0,0-.24-.44s0,0,0,0,0-.06,0-.09l-.1,0s0,0,0,0-.25-.23-.33-.34,0,0-.07,0,0,0,0-.06-.07-.07,0-.07-.18-.11-.21,0,0-.06,0,0l-.11-.08H3.54A2.55,2.55,0,0,0,1,16.66H1a3.06,3.06,0,0,1,.93-1.54.23.23,0,0,0-.15,0,.94.94,0,0,1-.22.12h0c-.14,0-.25.18-.28.19v0a.36.36,0,0,0-.23.14s0,0,0,0a.23.23,0,0,0-.14.09h0a.52.52,0,0,0-.1.11s0,.06-.07.11-.11.11-.08.15-.1.1-.14.14a0,0,0,0,1,0,0c-.08,0-.07.16-.1.21s0,0,0,0-.12.2-.12.23,0,0,0,.06-.08,0-.08.09l0,0c0,.05.08.15,0,.19v0c0,.08,0,.2,0,.2h0c0,.15,0,.06,0,.21h0c0,.06,0,.09,0,.12v0a1,1,0,0,0,0,.17.06.06,0,0,0,0,.06s0,.18,0,.22,0,0,0,0,0,.06,0,.11-.09,0-.06.14,0,0,0,0,0,0,0,.05,0,0,0,0,0,.11.06.21,0,0,0,0,.09.11,0,.1.12.19.18.28a.46.46,0,0,0,.15.19s0,.06.06.09v0c0,.1,0,.07.08.18,0-.05,0-.05.06,0l0,.09,0,0a.1.1,0,0,0,.07.07s0,0,0,0,.09.14.1.17.06.06.11,0l0,0s-.05,0,0,0h0l0,0,.06.05h0a.07.07,0,0,1,.06,0,.37.37,0,0,1,.16.09.26.26,0,0,0,.18.07l-.05,0c.1,0,.21,0,.27.07v0a.64.64,0,0,0,.18.06v0l.18,0a.26.26,0,0,0,.16,0s.12,0,.18,0v0a.38.38,0,0,1,.15,0,.61.61,0,0,1,.13,0l0,0,.08,0H3a2,2,0,0,0,.24,0h.12s0,0,.06,0a.35.35,0,0,0,.13-.05l.07,0c-.08,0,0,0,0-.06h.05s0,0,0,0,.13,0,.16,0a0,0,0,0,1,0,0h0s0,0,0,0,.09-.06.11-.13c0,.09.13-.08.12,0s0,0,0-.07-.13.06-.19.08l0,0s-.09.07-.13.08a.1.1,0,0,0,.06-.05v0a.29.29,0,0,1-.19.06s-.07,0,0,0h0s0,0,0,0a.94.94,0,0,0,.22-.12.08.08,0,0,1,0,0l0,0v0l.16-.11s.11,0,.1,0,0,0,.07-.08,0,.07,0,.09.06,0,.06,0,0-.14-.06-.12a.11.11,0,0,1-.09.06A2.33,2.33,0,0,0,5,17.46a.68.68,0,0,0,0-.14s.07.06.09,0v0s0-.14,0-.17l-.06-.13s0,0,0,0M.36,18v0s0,0,0,0v-.1l0,0v0h0s0,0,0,0,0,0,0,0m.58,1.15V19a.21.21,0,0,1,0,.06l0,0m.75.54h0a.38.38,0,0,1-.09-.15l.12.07.06.12-.06,0m.57.13-.17,0s0-.05,0-.08l.07,0v0h.07a0,0,0,0,1,0,0m.34,0s0,0,0,0a.13.13,0,0,1-.07,0H2.6m.74,0a.27.27,0,0,0-.16,0s0,0,0,0A.25.25,0,0,1,3,19.79a2.68,2.68,0,0,0,.49-.11h0a.89.89,0,0,0-.16.07s.07,0,.1,0l-.06,0s.08-.05.15-.06.06,0,0,.08a.16.16,0,0,1-.14,0m.15,0h0m.59-.48,0,0h0Z"/><path class="cls-2" d="M36.64,11.4c0-.06.1-.05.1,0,0,.87.47,1.42,1.24,1.42a1.07,1.07,0,0,0,1.21-1.05c0-.74-.47-1.06-1.29-1.48a1.85,1.85,0,0,1-1.2-1.7,1.43,1.43,0,0,1,1.61-1.38,2.53,2.53,0,0,1,.82.12.42.42,0,0,1,.32.51c0,.12-.07.47-.09.66s-.09,0-.09,0A1.07,1.07,0,0,0,38.2,7.42a.91.91,0,0,0-1,1,1.46,1.46,0,0,0,1,1.28c1.11.57,1.57,1,1.54,1.89A1.58,1.58,0,0,1,37.94,13a2.4,2.4,0,0,1-1-.19.58.58,0,0,1-.37-.48,3.34,3.34,0,0,1,.08-1"/><path class="cls-2" d="M43.42,11.89c0,.77.09.86.62.91.08,0,.08.1,0,.1l-.95,0-.92,0c-.07,0-.06-.1,0-.1.44-.06.56-.12.57-.91,0-.3,0-1.3,0-1.61,0-.7,0-1.56,0-1.86,0-.93-.17-.93-.57-1-.06,0-.08-.1,0-.1l.92,0,.82,0c.07,0,.06.09,0,.1-.39.07-.49.08-.51,1,0,.27,0,1.23,0,1.85,0,.32,0,1.32,0,1.62"/><path class="cls-2" d="M48.44,10.4c-.36.55-.83,1.38-1.08,1.84s-.21.51.27.56c.06,0,.08.1,0,.1l-.8,0-.84,0c-.06,0-.06-.09,0-.1a1,1,0,0,0,.83-.52c.46-.64,1-1.45,1.45-2.16-.46-.75-1-1.59-1.39-2.19-.25-.37-.36-.46-.71-.5a.05.05,0,1,1,0-.1l.84,0,.91,0a.05.05,0,1,1,0,.1c-.4.05-.4.18-.25.47.28.51.61,1.1,1,1.72.33-.54.64-1.09.9-1.59s.19-.54-.13-.6c-.06,0-.08-.1,0-.1l.77,0,.67,0a.05.05,0,1,1,0,.1c-.26,0-.43.06-.75.52-.47.68-.94,1.36-1.28,1.92.45.72,1.15,1.84,1.57,2.43.26.36.43.47.72.5.06,0,.07.1,0,.1l-.84,0-.85,0c-.07,0-.06-.1,0-.1.35,0,.34-.18.18-.47s-.75-1.23-1.17-1.93"/><path class="cls-2" d="M56.8,11.4c0-.06.1-.05.1,0,0,.87.47,1.42,1.24,1.42a1.07,1.07,0,0,0,1.21-1.05c0-.74-.47-1.06-1.29-1.48a1.83,1.83,0,0,1-1.2-1.7,1.42,1.42,0,0,1,1.6-1.38,2.56,2.56,0,0,1,.83.12.41.41,0,0,1,.31.51c0,.12-.06.47-.08.66s-.1,0-.1,0a1.06,1.06,0,0,0-1.06-1.08.92.92,0,0,0-1,1c0,.64.44,1,1,1.28,1.11.57,1.57,1,1.54,1.89A1.59,1.59,0,0,1,58.1,13a2.49,2.49,0,0,1-1-.19.59.59,0,0,1-.36-.48,3.34,3.34,0,0,1,.08-1"/><path class="cls-2" d="M63.56,12c0,.54.12.56.59.57h.75c.75,0,.9-.49,1-1.06,0-.06.11-.07.11,0a9.06,9.06,0,0,1,0,1.1c0,.2-.19.27-.53.27s-1.27,0-2.12,0l-1,0c-.07,0-.06-.1,0-.1.47-.05.57-.14.59-.91s0-1.25,0-1.89,0-1,0-1.59c0-.74,0-.91-.62-1-.06,0-.08-.09,0-.09l1,0,1.88,0c.26,0,.41,0,.39.22s-.06.55-.1.86c0,.06-.12.06-.11,0,0-.45-.15-.75-.61-.78a9.81,9.81,0,0,0-1.23,0c0,.75,0,1.43,0,2.24a12.49,12.49,0,0,0,1.49,0c.26,0,.25-.1.32-.09s0,.05,0,.23a3.3,3.3,0,0,1-.09.54c0,.07-.11.07-.11,0,0-.35-.22-.35-.59-.37h-1c0,.44,0,1.31,0,1.88"/><path class="cls-2" d="M73.68,12.8c0,.16,0,.19,0,.2s-.08,0-.2-.15c-.58-.66-1.17-1.31-2.27-2.42-.86-.87-1.55-1.58-1.92-1.93,0,.69,0,2.4.08,3.65,0,.36.17.6.71.65a.05.05,0,1,1,0,.1l-1,0-.7,0a.05.05,0,1,1,0-.1c.32-.06.43-.14.47-.6.07-1,.09-2.42.09-3.15,0-.49,0-1.08,0-1.6,0-.13,0-.17,0-.18s.06,0,.18.15c.67.73,1.39,1.5,2.29,2.4s1.43,1.45,1.92,1.9c0-1.06,0-2.22,0-3.46,0-.66-.11-.76-.61-.83-.06,0-.07-.1,0-.1l.82,0,.67,0c.07,0,0,.1,0,.1-.34.06-.43.3-.45.71,0,1.38-.09,2.7-.09,4.66"/><path class="cls-2" d="M76.94,11.4c0-.06.1-.05.1,0,0,.87.47,1.42,1.24,1.42a1.07,1.07,0,0,0,1.21-1.05c0-.74-.47-1.06-1.29-1.48A1.83,1.83,0,0,1,77,8.59a1.42,1.42,0,0,1,1.6-1.38,2.56,2.56,0,0,1,.83.12.41.41,0,0,1,.31.51c0,.12-.06.47-.08.66s-.1,0-.1,0A1.06,1.06,0,0,0,78.5,7.42a.92.92,0,0,0-1,1c0,.64.44,1,1,1.28,1.11.57,1.57,1,1.54,1.89A1.59,1.59,0,0,1,78.24,13a2.49,2.49,0,0,1-1-.19.59.59,0,0,1-.36-.48,3.34,3.34,0,0,1,.08-1"/><path class="cls-2" d="M83.7,12c0,.54.12.56.59.57H85c.75,0,.9-.49,1-1.06,0-.06.11-.07.11,0a9.06,9.06,0,0,1,0,1.1c0,.2-.19.27-.53.27s-1.27,0-2.12,0l-1,0c-.07,0-.06-.1,0-.1.48-.05.57-.14.59-.91s0-1.25,0-1.89,0-1,0-1.59c0-.74,0-.91-.62-1-.06,0-.08-.09,0-.09l1,0,1.88,0c.26,0,.41,0,.39.22s0,.55-.1.86c0,.06-.12.06-.11,0,0-.45-.15-.75-.61-.78a9.81,9.81,0,0,0-1.23,0c0,.75,0,1.43,0,2.24a12.49,12.49,0,0,0,1.49,0c.26,0,.26-.1.32-.09s0,.05,0,.23a3.3,3.3,0,0,1-.09.54c0,.07-.11.07-.11,0,0-.35-.22-.35-.59-.37h-1c0,.44,0,1.31,0,1.88"/><path class="cls-2" d="M88.69,11.4c0-.07.1-.06.1,0,0,.87.47,1.41,1.24,1.41a1.07,1.07,0,0,0,1.21-1c0-.75-.47-1.06-1.29-1.48a1.85,1.85,0,0,1-1.2-1.71A1.43,1.43,0,0,1,90.36,7.2a2.85,2.85,0,0,1,.82.12.42.42,0,0,1,.31.51c0,.13-.06.48-.08.66a.05.05,0,0,1-.1,0,1.06,1.06,0,0,0-1.06-1.07.91.91,0,0,0-1,1,1.45,1.45,0,0,0,1,1.28c1.11.56,1.57,1,1.54,1.89A1.59,1.59,0,0,1,90,13a2.4,2.4,0,0,1-1-.19.61.61,0,0,1-.37-.48,3.34,3.34,0,0,1,.08-1"/><path class="cls-3" d="M96.68,11.4c0-.06.1-.05.1,0,0,.87.48,1.42,1.25,1.42a1.07,1.07,0,0,0,1.21-1.05c0-.75-.48-1.06-1.29-1.48a1.83,1.83,0,0,1-1.2-1.71,1.43,1.43,0,0,1,1.6-1.38,2.87,2.87,0,0,1,.83.12.42.42,0,0,1,.31.51c0,.13-.06.48-.08.67s-.1,0-.1,0a1.06,1.06,0,0,0-1.07-1.08.91.91,0,0,0-1,1,1.47,1.47,0,0,0,1,1.28c1.11.57,1.57,1,1.54,1.89A1.59,1.59,0,0,1,98,13a2.47,2.47,0,0,1-1-.19.61.61,0,0,1-.37-.48A3.74,3.74,0,0,1,96.68,11.4Z"/><path class="cls-3" d="M107.21,12.8c.06,0,.07.1,0,.1l-.86,0c-.32,0-.61,0-.91,0-.07,0-.06-.1,0-.1.45,0,.51-.2.53-1,0-.29,0-1.31,0-1.66h-1.55c-.55,0-1.08,0-1.63,0,0,.36,0,1.35,0,1.64,0,.79.1.95.55,1,.06,0,.07.1,0,.1l-.88,0-.89,0c-.07,0,0-.1,0-.1.53-.07.53-.23.56-1,0-.3,0-1.23,0-1.53,0-.7,0-1.58,0-1.88,0-.77,0-.9-.57-1-.08,0-.08-.1,0-.1l.91,0c.3,0,.61,0,.85,0,.07,0,.07.09,0,.1-.45,0-.51.18-.53,1,0,.22,0,.84,0,1.45l1.64,0,1.55,0c0-.64,0-1.17,0-1.44,0-.77-.1-1-.55-1a.05.05,0,0,1,0-.1c.3,0,.59,0,.9,0l.87,0s.06.09,0,.1c-.53.07-.53.22-.56,1,0,.21,0,1.23,0,1.61s0,1.4,0,1.79C106.66,12.57,106.68,12.73,107.21,12.8Z"/><path class="cls-3" d="M111.25,7.38c.06-.13.08-.15.11-.15s.06,0,.1.15c.25.75,1.1,3.06,1.79,4.76.2.52.35.61.77.66.06,0,.07.1,0,.1-.34,0-.6,0-1,0l-.79,0c-.07,0-.06-.1,0-.1.34,0,.4-.13.28-.54s-.33-1-.53-1.53h-1.76c-.13.36-.39,1-.53,1.5s.09.53.39.57c.06,0,.07.1,0,.1l-.81,0-.82,0c-.08,0-.06-.1,0-.1a.82.82,0,0,0,.71-.5,21.41,21.41,0,0,0,.86-2Zm-.09,1-.42,1-.4,1.05h1.58C111.68,9.78,111.44,9.12,111.16,8.41Z"/><path class="cls-3" d="M120.76,12.8c.06,0,.07.1,0,.1l-.87,0c-.31,0-.61,0-.9,0-.07,0-.06-.1,0-.1.45,0,.51-.2.53-1,0-.29,0-1.31,0-1.66H118c-.55,0-1.08,0-1.63,0,0,.36,0,1.35,0,1.64,0,.79.1.95.55,1,.06,0,.07.1,0,.1l-.88,0-.89,0c-.07,0-.05-.1,0-.1.53-.07.53-.23.56-1,0-.3,0-1.23,0-1.53,0-.7,0-1.58,0-1.88,0-.77,0-.9-.58-1-.07,0-.07-.1,0-.1l.92,0c.29,0,.61,0,.85,0a.05.05,0,0,1,0,.1c-.45,0-.51.18-.53,1,0,.22,0,.84,0,1.45l1.63,0,1.56,0c0-.64,0-1.17,0-1.44,0-.77-.1-1-.55-1a.05.05,0,0,1,0-.1c.3,0,.58,0,.9,0l.87,0c.05,0,.06.09,0,.1-.53.07-.53.22-.56,1,0,.21,0,1.23,0,1.61s0,1.4,0,1.79C120.21,12.57,120.23,12.73,120.76,12.8Z"/><path class="cls-3" d="M124.8,7.38c.06-.13.07-.15.11-.15s0,0,.1.15c.25.75,1.1,3.06,1.78,4.76.21.52.36.61.77.66a.05.05,0,1,1,0,.1c-.33,0-.59,0-1,0l-.79,0a.05.05,0,1,1,0-.1c.34,0,.4-.13.28-.54s-.34-1-.53-1.53H123.8c-.14.36-.4,1-.53,1.5s.09.53.38.57a.05.05,0,1,1,0,.1l-.8,0-.83,0c-.07,0,0-.1,0-.1a.83.83,0,0,0,.72-.5,21.41,21.41,0,0,0,.86-2Zm-.1,1c-.1.26-.26.61-.41,1l-.4,1.05h1.58C125.23,9.78,125,9.12,124.7,8.41Z"/><path class="cls-3" d="M129.27,10c0-.67,0-1.11,0-1.8,0-.51-.16-.68-.62-.72a.05.05,0,1,1,0-.1l.88,0c.28,0,.74-.05,1.12,0,1.57,0,1.77.93,1.77,1.47a1.69,1.69,0,0,1-1,1.53,13.38,13.38,0,0,0,.85,1.19,6,6,0,0,0,1,1.07,1.28,1.28,0,0,0,.65.22.05.05,0,1,1,0,.1,4.08,4.08,0,0,1-.85,0c-.63-.11-.87-.37-1.6-1.4-.28-.39-.48-.71-.66-1a4.71,4.71,0,0,1-.92,0c0,.6,0,1.1,0,1.36,0,.84.11.92.63,1,.07,0,.09.1,0,.1l-.93-.05c-.22,0-.61,0-.93.05-.08,0-.06-.1,0-.1.47-.06.58-.08.59-1C129.28,11.19,129.27,10.58,129.27,10Zm1.31-2.39a5.41,5.41,0,0,0-.69,0c0,.54,0,1,0,2.63a3.83,3.83,0,0,0,1.09,0c.57-.06.81-.65.81-1.21C131.78,8.2,131.43,7.63,130.58,7.56Z"/><path class="cls-3" d="M137.51,13c-1.74,0-2.36-.8-2.36-2.62,0-.75,0-1.7,0-2,0-.89-.17-.93-.66-1-.07,0-.07-.1,0-.1l1,0,.87,0c.08,0,.07.09,0,.1-.38.05-.49.11-.52,1v2c0,1.44.27,2.41,1.75,2.41s1.77-1.21,1.77-2.51c0-.39,0-1.29,0-2.13,0-.6-.16-.68-.54-.71-.06,0-.07-.1,0-.1l.77,0,.72,0c.08,0,.08.1,0,.1-.33,0-.45.2-.46.71,0,.68,0,1.57,0,2.08C139.75,11.94,139.12,13,137.51,13Z"/><path class="cls-3" d="M146.42,8.53c0,.06-.1.05-.1,0,0-.69-.27-.84-.7-.87s-.83,0-1.35,0c0,.11,0,.5,0,.72,0,1.29,0,2.78,0,3.53s.16.87.69.92c.06,0,.08.1,0,.1l-1,0-1,0a.05.05,0,1,1,0-.1c.33-.06.61,0,.62-.86s0-2.67,0-3.62a6.87,6.87,0,0,0,0-.69c-.42,0-.92,0-1.19,0-.71,0-.82.21-.89.86,0,.06-.1.06-.1,0s0-.74,0-.87c0-.31,0-.39.08-.39a1.33,1.33,0,0,0,.27.07c.31,0,1,.06,2.24.06,1.05,0,1.87,0,2.22-.06.12,0,.18-.08.23-.08s0,0,0,.28S146.43,8.32,146.42,8.53Z"/></svg>