<svg id="Layer_1" data-name="Layer 1" xmlns="http://www.w3.org/2000/svg" viewBox="0 0 13.72 14.55"><title>share</title><path d="M4.47,7l-2.29.13.51-.47L2,13.5l-.29-.31,9.78-.26-.54.55.32-6.69.21.23L8.67,6.94a.32.32,0,0,1,0-.63h0l2.76.26a.24.24,0,0,1,.21.22L12,13.48a.52.52,0,0,1-.5.55h-.05l-9.78-.26a.3.3,0,0,1-.29-.3h0l.3-6.87v0a.48.48,0,0,1,.5-.46h0l2.29.14a.38.38,0,0,1,0,.75Z"/><path d="M7.19,1.55l.18,7.73a.55.55,0,0,1-1.1,0v0l.17-7.73a.38.38,0,0,1,.39-.36A.36.36,0,0,1,7.19,1.55Z"/><path d="M3.85,4.09l2.54-3A.5.5,0,0,1,7.1,1l0,0,2.68,2.8a.24.24,0,0,1,0,.34.26.26,0,0,1-.31,0L6.41,1.9l.76,0-3,2.53a.23.23,0,0,1-.32,0A.24.24,0,0,1,3.85,4.09Z"/></svg>