<svg id="Layer_1" data-name="Layer 1" xmlns="http://www.w3.org/2000/svg" viewBox="0 0 24 24"><defs><style>.cls-1{fill-rule:evenodd;}</style></defs><title>social-youku</title><path d="M22.34,15.4,19,12l3.35-3.35A1.24,1.24,0,0,0,22.43,7a1.21,1.21,0,0,0-1.71-.17l-.09.08-3.84,3.84a1.77,1.77,0,0,0,0,2.52h0l3.84,3.84a1.33,1.33,0,0,0,.3.23,1.22,1.22,0,0,0,1.42-1.94Z"/><path d="M15.75,7.77a1.22,1.22,0,0,0-2.43-.07v8.57a1.22,1.22,0,0,0,2.43,0Z"/><path class="cls-1" d="M7.68,12.22v4a1.22,1.22,0,0,1-2.43,0v-4L1.66,8.63A1.21,1.21,0,1,1,3.35,6.89l0,0L6.46,10,9.54,6.91a1.22,1.22,0,1,1,1.74,1.7l0,0Z"/></svg>