<svg id="Layer_1" data-name="Layer 1" xmlns="http://www.w3.org/2000/svg" viewBox="0 0 24 24"><defs><style>.cls-1{fill:#231f20;}</style></defs><title>social-youtube</title><path class="cls-1" d="M1.59,18.44A2,2,0,0,0,3.23,19.7q.9.12,1.8.15l7.53.15c2.16-.06,4.77-.13,7.39-.22a2.67,2.67,0,0,0,2.85-2.19c.09-.29.17-.58.23-.87a29.17,29.17,0,0,0,.16-8.6,6.69,6.69,0,0,0-.87-2.82,2.07,2.07,0,0,0-1.6-1.08c-.77-.07-1.54-.16-2.31-.16C15,4,11.6,4,8.2,4c-1.53,0-3.06.11-4.59.18a2.1,2.1,0,0,0-2,1.22A8.42,8.42,0,0,0,.93,7.5,28,28,0,0,0,.86,16,9.79,9.79,0,0,0,1.59,18.44ZM9.78,7.84,16.15,12,9.78,16.08Z"/></svg>