<svg id="Layer_1" data-name="Layer 1" xmlns="http://www.w3.org/2000/svg" viewBox="0 0 24 24"><title>social-wechat</title><path d="M11.81,7.29a.87.87,0,0,0-.85.87.86.86,0,1,0,.85-.87m-4.53.88a.86.86,0,0,0-.83-.88A.86.86,0,0,0,6.39,9a.87.87,0,0,0,.89-.83M16,9a7.11,7.11,0,0,0-4.85,2,5.91,5.91,0,0,0-1.79,5c-.74-.09-1.41-.19-2.08-.25a1.32,1.32,0,0,0-.71.12c-.65.38-1.28.8-2,1.28.13-.63.22-1.18.38-1.71a.66.66,0,0,0-.29-.86A5.89,5.89,0,0,1,2.08,7.93,6.46,6.46,0,0,1,6.57,3.47a7.45,7.45,0,0,1,8.21,2.45A5.76,5.76,0,0,1,16,9"/><path d="M17.77,12.79a.71.71,0,1,0,.69.74.71.71,0,0,0-.69-.74m-4.38,1.42a.71.71,0,0,0,0-1.42.72.72,0,0,0-.71.74.7.7,0,0,0,.7.68m6.8,6.7a6.4,6.4,0,0,0-1.73-.74,10,10,0,0,0-1.8.34,5.92,5.92,0,0,1-4.87-1.62,5.07,5.07,0,0,1,.78-8.2A6.47,6.47,0,0,1,21,12a5,5,0,0,1-.55,6.84c-.58.52-.79,1-.42,1.65a1.84,1.84,0,0,1,.12.45"/></svg>