<svg id="Layer_1" data-name="Layer 1" xmlns="http://www.w3.org/2000/svg" viewBox="0 0 24 24"><title>social-pinterest</title><path d="M12.45,2.5c-5.19,0-7.8,3.72-7.8,6.82,0,1.88.71,3.55,2.23,4.17a.38.38,0,0,0,.55-.28l.22-.87a.54.54,0,0,0-.16-.61,3.15,3.15,0,0,1-.72-2.14,5.18,5.18,0,0,1,5.38-5.23c2.93,0,4.54,1.79,4.54,4.19,0,3.14-1.4,5.8-3.46,5.8a1.69,1.69,0,0,1-1.73-2.1,23.51,23.51,0,0,0,1-3.88A1.46,1.46,0,0,0,11,6.73c-1.17,0-2.11,1.21-2.11,2.83a4.2,4.2,0,0,0,.35,1.73L7.83,17.23a12.43,12.43,0,0,0,0,4.15.14.14,0,0,0,.26.06,11.45,11.45,0,0,0,2-3.57c.14-.48.77-3,.77-3a3.12,3.12,0,0,0,2.67,1.36c3.5,0,5.88-3.2,5.88-7.48,0-3.23-2.74-6.25-6.9-6.25"/></svg>