<svg id="Layer_1" data-name="Layer 1" xmlns="http://www.w3.org/2000/svg" viewBox="0 0 24 24"><title>social-instagram</title><path d="M12,4.27c-2.1,0-2.36,0-3.19.05a5.48,5.48,0,0,0-1.87.36A3.93,3.93,0,0,0,4.68,6.94a5.48,5.48,0,0,0-.36,1.87c0,.83-.05,1.09-.05,3.19s0,2.36.05,3.19a5.48,5.48,0,0,0,.36,1.87,3.93,3.93,0,0,0,2.26,2.26,5.25,5.25,0,0,0,1.87.36c.83,0,1.09.05,3.19.05s2.36,0,3.19-.05a5.25,5.25,0,0,0,1.87-.36,3.93,3.93,0,0,0,2.26-2.26,5.48,5.48,0,0,0,.36-1.87c0-.83.05-1.09.05-3.19s0-2.36-.05-3.19a5.48,5.48,0,0,0-.36-1.87,3.93,3.93,0,0,0-2.26-2.26,5.48,5.48,0,0,0-1.87-.36c-.83,0-1.09-.05-3.19-.05m0,1.39c2.06,0,2.31,0,3.12,0A4.34,4.34,0,0,1,16.56,6a2.54,2.54,0,0,1,.89.58,2.41,2.41,0,0,1,.58.89,4.34,4.34,0,0,1,.26,1.44c0,.81.05,1.06.05,3.12s0,2.31-.05,3.12A4.34,4.34,0,0,1,18,16.56,2.57,2.57,0,0,1,16.56,18a4.34,4.34,0,0,1-1.44.26c-.81,0-1.06.05-3.12.05s-2.31,0-3.12-.05A4.34,4.34,0,0,1,7.44,18,2.57,2.57,0,0,1,6,16.56a4.34,4.34,0,0,1-.26-1.44c0-.81,0-1.06,0-3.12s0-2.31,0-3.12A4.34,4.34,0,0,1,6,7.44a2.41,2.41,0,0,1,.58-.89A2.54,2.54,0,0,1,7.44,6a4.34,4.34,0,0,1,1.44-.26c.81,0,1.06,0,3.12,0"/><path d="M12,14.58A2.58,2.58,0,1,1,14.58,12,2.59,2.59,0,0,1,12,14.58M12,8a4,4,0,1,0,4,4,4,4,0,0,0-4-4"/><path d="M17.05,7.87A.93.93,0,1,1,16.13,7a.92.92,0,0,1,.92.92"/></svg>