<svg id="Layer_1" data-name="Layer 1" xmlns="http://www.w3.org/2000/svg" viewBox="0 0 24 24"><title>social-twitter</title><path d="M21.5,6.11a7.66,7.66,0,0,1-2.24.61A3.94,3.94,0,0,0,21,4.56a7.69,7.69,0,0,1-2.48,1,3.9,3.9,0,0,0-6.74,2.67,3.8,3.8,0,0,0,.1.89A11.1,11.1,0,0,1,3.82,5,4,4,0,0,0,3.3,7,3.88,3.88,0,0,0,5,10.2a3.94,3.94,0,0,1-1.77-.49v0a3.9,3.9,0,0,0,3.13,3.82,3.88,3.88,0,0,1-1,.14,4.4,4.4,0,0,1-.73-.07,3.89,3.89,0,0,0,3.64,2.7A7.78,7.78,0,0,1,3.43,18,7.25,7.25,0,0,1,2.5,18,11.09,11.09,0,0,0,19.57,8.63c0-.17,0-.34,0-.5a7.8,7.8,0,0,0,1.95-2"/></svg>