<svg id="Layer_1" data-name="Layer 1" xmlns="http://www.w3.org/2000/svg" viewBox="0 0 24 24"><title>social-weibo</title><path d="M21.49,5.8a4.81,4.81,0,0,1,1.39,2.42,4.51,4.51,0,0,1-.17,2.63.73.73,0,0,1-.42.44.88.88,0,0,1-.64,0,.81.81,0,0,1-.49-.37.69.69,0,0,1-.06-.56,3.16,3.16,0,0,0,.12-1.88,3.37,3.37,0,0,0-1-1.72,4,4,0,0,0-1.81-1,4.79,4.79,0,0,0-2.13-.09.86.86,0,0,1-.63-.11.72.72,0,0,1-.37-.47.66.66,0,0,1,.11-.56A.84.84,0,0,1,16,4.21a6.57,6.57,0,0,1,3,.12A5.73,5.73,0,0,1,21.49,5.8M19.27,7.57a2.38,2.38,0,0,1,.67,1.19A2.15,2.15,0,0,1,19.86,10a.65.65,0,0,1-.36.37.8.8,0,0,1-.55,0,.7.7,0,0,1-.41-.32.57.57,0,0,1-.05-.49,1.06,1.06,0,0,0-.3-1.2,1.42,1.42,0,0,0-1.31-.39A.8.8,0,0,1,16.33,8,.58.58,0,0,1,16,7.56a.56.56,0,0,1,.1-.48.72.72,0,0,1,.45-.28A3.27,3.27,0,0,1,18,6.86a2.79,2.79,0,0,1,1.24.71m.91,6.8a3,3,0,0,1-.45,1.52,5.75,5.75,0,0,1-1.34,1.5,10.88,10.88,0,0,1-2.07,1.28,12.51,12.51,0,0,1-2.77.9,15.64,15.64,0,0,1-3.32.34,15.16,15.16,0,0,1-3.38-.37,12.94,12.94,0,0,1-2.95-1,6,6,0,0,1-2.1-1.65A3.39,3.39,0,0,1,1,14.71,5.23,5.23,0,0,1,1.85,12,12.47,12.47,0,0,1,4.28,9.23,12.54,12.54,0,0,1,8.47,6.66c1.41-.49,2.42-.46,3,.08S12.11,8,11.74,9c0,.1,0,.18,0,.22a.15.15,0,0,0,.12.08H12l.16,0,.08,0a8.62,8.62,0,0,1,3-.64,2.34,2.34,0,0,1,1.88.66,1.8,1.8,0,0,1,0,1.94.8.8,0,0,1-.05.22.12.12,0,0,0,.05.14l.15.08.21.06a5.74,5.74,0,0,1,1.26.52,2.93,2.93,0,0,1,1,.88,2.13,2.13,0,0,1,.42,1.27m-3.78,0a2.75,2.75,0,0,0-1.09-1.85,6.27,6.27,0,0,0-2.56-1.19,10.64,10.64,0,0,0-3.37-.23A9.08,9.08,0,0,0,4.85,12.6a3.15,3.15,0,0,0-1.63,2.88,2.77,2.77,0,0,0,1.09,1.86,6.4,6.4,0,0,0,2.56,1.18,10.38,10.38,0,0,0,3.37.23,9,9,0,0,0,4.54-1.54,3.14,3.14,0,0,0,1.62-2.88m-3.83,1.74a3.38,3.38,0,0,1-1.94,1.64,4.26,4.26,0,0,1-2.75.13,2.75,2.75,0,0,1-1.81-1.38,2.09,2.09,0,0,1,.08-2A3.57,3.57,0,0,1,8,12.9a4.35,4.35,0,0,1,2.59-.2A2.88,2.88,0,0,1,12.54,14a2,2,0,0,1,0,2.07m-2.13-1.16a.31.31,0,0,0,0-.29.32.32,0,0,0-.21-.2.53.53,0,0,0-.35,0,.51.51,0,0,0-.27.2.3.3,0,0,0,.16.49.55.55,0,0,0,.36,0,.51.51,0,0,0,.27-.2M9.28,16.23a.82.82,0,0,0,.14-.76.87.87,0,0,0-.55-.54,1.38,1.38,0,0,0-.9,0,1.35,1.35,0,0,0-.74.5.84.84,0,0,0-.16.75.87.87,0,0,0,.53.55,1.38,1.38,0,0,0,.92,0,1.43,1.43,0,0,0,.76-.51"/></svg>