<svg id="Layer_1" data-name="Layer 1" xmlns="http://www.w3.org/2000/svg" viewBox="0 0 24 24"><title>social-tripadvisor</title><path d="M5.31,13a1,1,0,1,0,1-1,1,1,0,0,0-1,1"/><path d="M16.78,13a1,1,0,1,0,1-1,1,1,0,0,0-1,1"/><path d="M4.88,14.36a2,2,0,1,1,1.38.57,1.94,1.94,0,0,1-1.38-.57M4.27,11a2.82,2.82,0,0,0-.82,2,2.78,2.78,0,0,0,.82,2,2.81,2.81,0,1,0,0-4"/><path d="M16.36,14.36a2,2,0,0,1,0-2.76A2,2,0,0,1,19.69,13a2,2,0,0,1-3.33,1.38M15.75,11a2.83,2.83,0,0,0-.83,2,2.83,2.83,0,0,0,2.82,2.82,2.82,2.82,0,1,0-2-4.81"/><path d="M17.74,17.69A4.71,4.71,0,1,1,22.44,13a4.71,4.71,0,0,1-4.7,4.71M6.34,7.51s1.51-1.67,5.52-1.67h.4c4,0,5.52,1.67,5.52,1.67s-4.29-.72-5.72,4.56C10.63,6.79,6.34,7.51,6.34,7.51M6.26,17.69A4.71,4.71,0,1,1,11,13a4.71,4.71,0,0,1-4.71,4.71m16-8.41a5.16,5.16,0,0,1,1-1.89H19.45l-.19,0C19.05,7,17.62,5.16,11.9,5.16c-6.27,0-7.38,2.23-7.38,2.23h-4A5.44,5.44,0,0,1,1.59,9.47,5.79,5.79,0,0,0,.41,13a5.85,5.85,0,0,0,10.32,3.78l1.33,1.86,1.15-1.93a5.85,5.85,0,0,0,9.06-7.41"/></svg>