<svg version="1.1" id="el_4jWqtF4K5" xmlns="http://www.w3.org/2000/svg" xmlns:xlink="http://www.w3.org/1999/xlink" x="0px" y="0px" viewBox="0 0 338 260" style="enable-background:new 0 0 338.4 260.7;" xml:space="preserve"><style>@-webkit-keyframes kf_el_eKU339Ei-A_an__DEKbbd9r{72.46%{opacity: 0;}82.61%{opacity: 1;}86.96%{opacity: 1;}97.10%{opacity: 0;}0%{opacity: 0;}100%{opacity: 0;}}@keyframes kf_el_eKU339Ei-A_an__DEKbbd9r{72.46%{opacity: 0;}82.61%{opacity: 1;}86.96%{opacity: 1;}97.10%{opacity: 0;}0%{opacity: 0;}100%{opacity: 0;}}@-webkit-keyframes kf_el_Xs23mpfiBy_an_RlQEqZ2iM{57.97%{opacity: 0;}68.12%{opacity: 1;}86.96%{opacity: 1;}97.10%{opacity: 0;}0%{opacity: 0;}100%{opacity: 0;}}@keyframes kf_el_Xs23mpfiBy_an_RlQEqZ2iM{57.97%{opacity: 0;}68.12%{opacity: 1;}86.96%{opacity: 1;}97.10%{opacity: 0;}0%{opacity: 0;}100%{opacity: 0;}}@-webkit-keyframes kf_el_ZPusIDd5oS_an_yoirSv5EM{43.48%{opacity: 0;}53.62%{opacity: 1;}86.96%{opacity: 1;}97.10%{opacity: 0;}0%{opacity: 0;}100%{opacity: 0;}}@keyframes kf_el_ZPusIDd5oS_an_yoirSv5EM{43.48%{opacity: 0;}53.62%{opacity: 1;}86.96%{opacity: 1;}97.10%{opacity: 0;}0%{opacity: 0;}100%{opacity: 0;}}@-webkit-keyframes kf_el_XpkL_r9phn_an_pCih2D7Zx{28.99%{opacity: 0;}39.13%{opacity: 1;}86.96%{opacity: 1;}97.10%{opacity: 0;}0%{opacity: 0;}100%{opacity: 0;}}@keyframes kf_el_XpkL_r9phn_an_pCih2D7Zx{28.99%{opacity: 0;}39.13%{opacity: 1;}86.96%{opacity: 1;}97.10%{opacity: 0;}0%{opacity: 0;}100%{opacity: 0;}}@-webkit-keyframes kf_el_OsE0RPVCQR_an_TX6z1XqVG{14.49%{opacity: 0;}24.64%{opacity: 1;}86.96%{opacity: 1;}97.10%{opacity: 0;}0%{opacity: 0;}100%{opacity: 0;}}@keyframes kf_el_OsE0RPVCQR_an_TX6z1XqVG{14.49%{opacity: 0;}24.64%{opacity: 1;}86.96%{opacity: 1;}97.10%{opacity: 0;}0%{opacity: 0;}100%{opacity: 0;}}@-webkit-keyframes kf_el_7Lq_9o2WyY_an_CciFXa1gS{0%{opacity: 0;}10.14%{opacity: 1;}86.96%{opacity: 1;}97.10%{opacity: 0;}100%{opacity: 0;}}@keyframes kf_el_7Lq_9o2WyY_an_CciFXa1gS{0%{opacity: 0;}10.14%{opacity: 1;}86.96%{opacity: 1;}97.10%{opacity: 0;}100%{opacity: 0;}}#el_4jWqtF4K5 *{-webkit-animation-duration: 2.3s;animation-duration: 2.3s;-webkit-animation-iteration-count: infinite;animation-iteration-count: infinite;-webkit-animation-timing-function: cubic-bezier(0, 0, 1, 1);animation-timing-function: cubic-bezier(0, 0, 1, 1);}#el_rpYRKis64R{fill: #702052;visibility: hidden;}#el_8YqhM9Vve9{fill: #702052;visibility: hidden;}#el_DuP2M1twuJ{fill: #702052;visibility: hidden;}#el_Ng46ry2VwW{fill: #702052;visibility: hidden;}#el_HvSmHXl0Jo{fill: #702052;visibility: hidden;}#el_Xs23mpfiBy{fill: #702052;-webkit-animation-fill-mode: backwards;animation-fill-mode: backwards;opacity: 0;-webkit-animation-name: kf_el_Xs23mpfiBy_an_RlQEqZ2iM;animation-name: kf_el_Xs23mpfiBy_an_RlQEqZ2iM;-webkit-animation-timing-function: cubic-bezier(0, 0, 1, 1);animation-timing-function: cubic-bezier(0, 0, 1, 1);}#el_ZPusIDd5oS{fill: #702052;-webkit-animation-fill-mode: backwards;animation-fill-mode: backwards;opacity: 0;-webkit-animation-name: kf_el_ZPusIDd5oS_an_yoirSv5EM;animation-name: kf_el_ZPusIDd5oS_an_yoirSv5EM;-webkit-animation-timing-function: cubic-bezier(0, 0, 1, 1);animation-timing-function: cubic-bezier(0, 0, 1, 1);}#el_OsE0RPVCQR{fill: #702052;-webkit-animation-fill-mode: backwards;animation-fill-mode: backwards;opacity: 0;-webkit-animation-name: kf_el_OsE0RPVCQR_an_TX6z1XqVG;animation-name: kf_el_OsE0RPVCQR_an_TX6z1XqVG;-webkit-animation-timing-function: cubic-bezier(0, 0, 1, 1);animation-timing-function: cubic-bezier(0, 0, 1, 1);}#el_XpkL_r9phn{fill: #702052;-webkit-animation-fill-mode: backwards;animation-fill-mode: backwards;opacity: 0;-webkit-animation-name: kf_el_XpkL_r9phn_an_pCih2D7Zx;animation-name: kf_el_XpkL_r9phn_an_pCih2D7Zx;-webkit-animation-timing-function: cubic-bezier(0, 0, 1, 1);animation-timing-function: cubic-bezier(0, 0, 1, 1);}#el_7Lq_9o2WyY{fill: #702052;-webkit-animation-fill-mode: backwards;animation-fill-mode: backwards;opacity: 0;-webkit-animation-name: kf_el_7Lq_9o2WyY_an_CciFXa1gS;animation-name: kf_el_7Lq_9o2WyY_an_CciFXa1gS;-webkit-animation-timing-function: cubic-bezier(0, 0, 1, 1);animation-timing-function: cubic-bezier(0, 0, 1, 1);}#el_eKU339Ei-A{fill: #702052;-webkit-animation-fill-mode: backwards;animation-fill-mode: backwards;opacity: 0;-webkit-animation-name: kf_el_eKU339Ei-A_an__DEKbbd9r;animation-name: kf_el_eKU339Ei-A_an__DEKbbd9r;-webkit-animation-timing-function: cubic-bezier(0, 0, 1, 1);animation-timing-function: cubic-bezier(0, 0, 1, 1);}</style>






<path d="M139.2,132.7c0.6-1.2,0.3-0.9,0.9-2.4c-0.4,0.6-0.5,0.3-0.8-0.3c0.2-0.3,0.4-0.7,0.6-1l-0.5-0.2&#10;&#9;c0.1-0.4,0.1-0.9,0-1.3c0,0.2,0,0.1-0.1,0.1c0.6-0.3,0.4-2,0.6-2.4c-0.7-0.4,0-1.2-0.7-1.4c0.1-0.2,0.1-0.4,0.1-0.6&#10;&#9;c0.3,0.1,0.6,0.2,0.4-0.2l0-0.1l-0.4-0.1c0-0.4-0.1-0.9-0.1-1.1c0.1,0.1,0.2,0.2,0.3,0.4c-0.1-0.2-0.2-0.3-0.3-0.4&#10;&#9;c0-0.1,0-0.1,0-0.1c0,0,0,0.1,0,0.1c-0.1-0.2-0.2-0.5-0.2-0.9c-0.4-0.6-0.5-1.4-0.6-2.3c-0.1-0.8-0.3-1.7-1-2.3&#10;&#9;c0.2,0.2,0.3,0.5,0.3,0.6c-0.5-1.3-1.6-2.2-1.7-3.1l0.3-0.1c-0.3-0.9-0.7-1.7-1.1-2.3l0.3-0.2c-0.4-0.4-0.8-1.3-1.3-2&#10;&#9;c-0.5-0.7-1.1-1.3-1.6-1.3c0-0.4-1.2-1.1-1.6-1.6l-0.3,0.1c-0.7-0.5-1-1-1.3-1.4c-1.7-0.6-2.6-2.1-3.9-2.8l-0.1,0.1&#10;&#9;c-0.4-0.3-0.8-0.6-1.2-1c0.2,0.4-0.2-0.3-0.6-0.5c-0.4-0.3-1.1-0.6-1.7-0.7c-0.3-0.1-0.6-0.3-0.9-0.4c0.9,0.6-0.2,0.4-0.4,0.6&#10;&#9;c-0.1-0.1-0.3-0.3-0.5-0.5c-0.3,0.1,0.3,0.4-0.2,0.3c-0.3-0.3-1.5-0.7-1.7-1.2c0.1-0.1,0.2-0.1,0.4-0.1c0,0,0,0,0,0l0,0h-0.1&#10;&#9;c0,0-0.1-0.1-0.1-0.2c-0.8-0.2-0.4-0.2-0.4-0.3c-1,0.2-1.4-0.2-2.2,0.2c1-0.5-2-0.4-1.3-1c-0.8,0.4-0.5-0.1-0.9,0.3&#10;&#9;c0.9,0,1.7,0.7,2.4,1.1l-0.8,0.1c0.3,0.7,1.6,0.2,2,0.5c-0.2-0.2-0.9-0.2-0.9-0.1l0.3-0.4c1,0.1,1.7,0.7,2.3,1.2&#10;&#9;c-0.7-0.1,0.7,0.5,0.1,0.7l-0.5-0.2c-0.1,0-0.1,0.1-0.1,0.2c-0.8-0.3-1.7-0.5-2.5-0.8c0,0,0.1,0,0.1,0l-0.5-0.1l0,0&#10;&#9;c-0.9-0.2-1.8-0.4-2.7-0.5c0-0.4-1.2-0.8-0.8-1.1c-0.5,0.1-0.3,0.4-1.3,0.1c-0.6-0.3,0.8-0.4,1.1-0.5c-0.7-0.3-0.7-0.4-0.7-0.5&#10;&#9;c-0.7,0.5-1.2,1.4-0.5,1.7c0.5-0.2,1-0.1,1.3,0.1c-9-1.1-18.3,1.8-25.2,8.7c-0.4,0.4-0.8,0.9-1.2,1.3c0-0.6,0-1.1-0.6-1l0.5-0.4&#10;&#9;c-0.5-0.2-1.2,1.3-1.8,1.3c-0.2,0.6-0.5,1.2-0.7,1.8c-0.1-0.2-0.5-0.1-0.4-0.3c-0.3,0.4-0.5,0.7-0.4,0c-0.8,2.2-1.9,4.1-2.8,6.1&#10;&#9;c-0.9,2-1.8,4.1-1.9,6.3c-0.1,0.3-0.2,0.1-0.3-0.1c0.3,0.9-0.4,0.7-0.5,1.1c0.2,0.4,0.3,0.9,0.5,1.3c-0.3,0.5-0.4,0.1-0.5,0.1&#10;&#9;c-0.4,2.2,0.2,4.4-0.1,6.2c0.3,0.5,0.5-0.2,0.7,0.6c-0.4-0.5-0.4,0.1-0.4,0.7c0,0.6,0.1,1.2-0.2,1c0.8,0.6,0.6,2.6,1.5,2.1&#10;&#9;c0.2,0.8-0.2,0.8-0.4,0.6c0.3,1,0.5,1.8,0.5,2.7c0.2,0.2,0.5,1.4,1,2.5c0.5,1.1,1.1,2.3,1.7,2.5c-0.7-0.3-0.2,0.2-0.1,0.8l-0.6-0.3&#10;&#9;c0.2,0.4,0.5,0.8,0.7,1.2c0.1,0.3,0.2,0.3,0.2,0.3c0.1,0.2,0.2-0.2,0.6,0.3c0.5,0.8,0.4,0.9,0.5,1.5l-0.1-0.1l0.3,0.6&#10;&#9;c0.3,0.4-0.6-1.6,0.5-0.5c-0.1,0.1,0,1.2,0.5,1.3c-0.5-0.6-0.2-0.7,0.1-0.6c0.2,0.3,0.5,0.6,0.7,0.8l-0.6,0.1c2,2.5,4.7,4.4,7.4,6.3&#10;&#9;c0.2-0.4,2,1.2,2.1,0.4h-0.1c-0.6-0.5,0.5-0.4,1,0c-0.7-0.1,0.8,1.2-0.8,0.5c0.1,0.1,0.2,0.2,0.4,0.4c1.1,0.1,2.4,0.1,3.8,0.1&#10;&#9;c9.5,0,26.5-2.3,32.7-17.6l0.7,0.2c0,0.2-3,12.9-11.7,19.6c0.4-0.2,0.7-0.4,1-0.5c0.6-0.1,0.4,0.2,0.3,0.5c0.8-0.8,2.9-0.7,3.2-1.1&#10;&#9;c0.7-0.4,0.1-0.5,0.1-0.9c1.1-0.5,0.3,1,1.5-0.2c-0.2,0.1-0.5,0.2-0.4,0.1c0.5-0.4,0.7-2.1,1.3-2.2l-0.2,0.4&#10;&#9;c1.1-0.4,1.5-2.2,2.1-1.7l0.1,0.3c1.1-1.5,0.7-0.4,1.8-1.9l0,0c0.6-0.5,0.6-1.1,1.3-1l-0.1,0.2c0.7-0.7,0.8-0.8,1.4-1.6&#10;&#9;c0.1,0,0.5-0.4,0.5-0.6c0.4,0.3,1.7-1.8,1.9-2.2c-0.5,0.6-0.5,0.2-0.5-0.1c0.6-0.2,0.8-0.4,0.9-1.1c0.6,0.2,1.2,0.5,1.9-0.7&#10;&#9;c-0.2,0.1-0.4,0.4-0.4,0.2c0-0.2,0.2-0.4,0.3-0.5c0-0.2-0.3,0.2-0.4-0.1c0.9-0.5,0.8-1.3,1.5-2.5c-0.3,0.3-0.3-0.1-0.4-0.3&#10;&#9;c0.7,0.2,0.1-1.9,0.8-1.1c0.2-1.3,0.7-2.8,1-4.2c0.3-1.4,0.5-2.6,0.3-3.1c-0.2-0.3,0.3-0.9,0.3-1.4L139.2,132.7z M80.7,146.1&#10;&#9;c0-0.2,0-0.3,0.2,0.1L80.7,146.1z M111.9,99.4C111.9,99.3,111.9,99.3,111.9,99.4l0.2,0C112,99.4,112,99.4,111.9,99.4z M122.2,100.6&#10;&#9;L122.2,100.6C122.5,100.7,122.7,100.7,122.2,100.6z M122.9,103c0.2,0.1,0.5,0.2,0.6,0.2c-0.4-0.1-0.8-0.5-1-0.7&#10;&#9;c0.2,0.1,0.5,0.1,0.8,0.2c-0.6-0.3-1.2-0.2-2-0.7c0.3-0.2-0.2-0.9,0.7-0.9c0.9,0.2,1.2,0.6,1.4,1c0.3,0.4,0.5,0.9,1.5,1.4&#10;&#9;c0.1,0.2-0.1-0.7,0.8,0.1c0.7,0.7,1.1,1.5,1.2,2C125.6,104.6,124.3,103.8,122.9,103z M130.3,108.8c0.1,0,0.3,0,0.4-0.1&#10;&#9;c0.1,0.2,0.2,0.5,0.3,0.8C130.8,109.3,130.5,109,130.3,108.8z M133.4,147.2c0-0.1,0-0.4,0-0.6c0-0.1,0.1-0.1,0.2-0.2l0.3-0.2&#10;&#9;l-0.2,0.1c0.1-0.2,0.2-0.3,0.3-0.5c0.1,0,0.2,0.1,0.1,0.3c-0.1,0-0.1,0.1-0.2,0.1c0.3-0.1,0.5-0.1,0.5,0.1&#10;&#9;C134,146.6,133.7,146.9,133.4,147.2z M134.3,114c-0.2-0.3-0.3-0.6-0.5-0.9l0.4-0.4l-0.5,0.3c-0.2-0.3-0.4-0.6-0.6-0.9&#10;&#9;c0,0,0.1-0.1,0.2-0.1c0.4,0.1,1.8,1.2,1.8,1.3C135,113.6,134.7,113.8,134.3,114z M137.2,120.6c-0.2-0.5-0.4-1-0.5-1.5&#10;&#9;c0.2-0.7,0.4-1.3,0.6-1.7c0,0.4,0.1,0.7,0.1,1.1l0.3,0.2C137.7,119.2,137.5,120,137.2,120.6z M138.5,130.9c0-0.2,0-0.5,0-0.8&#10;&#9;c0.3,0,0.5,0.1,0.7,0C139,130.4,138.7,130.7,138.5,130.9z" id="el_Xs23mpfiBy"/>
<path d="M200.7,33.9c-0.1,0-0.2,0.2-0.2-0.1c0.3-0.4,0.6-0.8,0.5-2.1l-0.1,0.1c0-0.7,0-1.3,0-2&#10;&#9;c-0.6,0.1-0.5-0.8-0.4-1.7c0-0.9,0-1.9-0.7-2.1c0.3-0.4,0.1-1.8,0-2.5c0,0-0.1,0-0.2-0.1c0.4-0.9-0.8-2-1.1-2.8&#10;&#9;c0-0.5,0.2-0.4,0.5-0.3c-0.8-0.8-0.7-3-1.1-3.2c-0.4-0.7-0.5,0-0.8-0.1c-0.5-1.1,1-0.3-0.2-1.5c0,0.2,0.2,0.5,0.1,0.4&#10;&#9;c-0.4-0.5-2.1-0.7-2.2-1.3l0.4,0.2c-0.3-1.1-2.2-1.5-1.7-2.1l0.4-0.1c-1.5-1.1-0.4-0.7-1.9-1.8l0,0.1c-0.5-0.7-1.1-0.6-1-1.3&#10;&#9;l0.2,0.1c-0.7-0.7-0.8-0.8-1.6-1.4c-0.1-0.1-0.4-0.5-0.6-0.5c0.3-0.4-1.8-1.7-2.2-1.9c0.6,0.5,0.2,0.5-0.1,0.5&#10;&#9;c-0.2-0.6-0.4-0.8-1.1-1c0.1-0.3,0.2-0.6,0.2-0.9c-1.2-0.1-3.1-0.3-5.5-0.3c-9.5,0-26.5,2.3-32.7,17.6l-0.7-0.2&#10;&#9;c0-0.1,2.7-11.6,10.3-18.5c-0.1,0-0.3-0.1-0.4-0.1c0.2,0,0.5-0.1,0.7-0.1c0.5-0.4,1-0.8,1.5-1.2c-0.3,0.1-0.6,0.1-1,0.2&#10;&#9;c-0.8,0.1-1.7,0.3-2.3,1c0.2-0.2,0.5-0.3,0.6-0.2c-1.3,0.5-2.2,1.6-3,1.7l-0.1-0.3c-0.9,0.3-1.6,0.7-2.3,1.1l-0.3-0.3&#10;&#9;c-0.4,0.4-1.3,0.8-2,1.3c-0.7,0.5-1.3,1.1-1.3,1.6c-0.4,0-1.1,1.2-1.6,1.5l0.1,0.3c-0.5,0.7-0.9,1-1.4,1.3c-0.7,1.7-2.1,2.6-2.8,4&#10;&#9;l0.1,0.1c-0.3,0.4-0.7,0.8-1,1.2c0.4-0.2-0.3,0.2-0.5,0.6c-0.4,0.4-0.7,1.1-0.7,1.7c-0.1,0.3-0.3,0.6-0.4,0.9&#10;&#9;c0.6-0.9,0.4,0.2,0.6,0.4c-0.2,0.1-0.3,0.3-0.5,0.5c0,0.3,0.4-0.3,0.3,0.2c-0.3,0.3-0.7,1.5-1.2,1.7c-0.1-0.1-0.1-0.2-0.1-0.4&#10;&#9;c0,0,0,0,0,0v-0.1V22c-0.1,0-0.1,0.1-0.2,0.1c-0.2,0.8-0.2,0.5-0.3,0.4c0.2,1-0.2,1.4,0.2,2.2c-0.5-1.1-0.4,2-1,1.3&#10;&#9;c0.4,0.7-0.1,0.4,0.3,0.9c0-0.9,0.7-1.7,1.1-2.4l0.1,0.8c0.7-0.3,0.2-1.6,0.5-2c-0.2,0.2-0.3,0.9-0.1,1l-0.4-0.3&#10;&#9;c0.1-1,0.7-1.7,1.1-2.3c-0.1,0.7,0.6-0.7,0.7-0.1l-0.2,0.5c0,0.1,0.1,0.1,0.2,0c-0.3,0.9-0.6,1.7-0.8,2.6c0,0,0-0.1,0-0.2l-0.1,0.5&#10;&#9;v0c-0.2,0.9-0.4,1.8-0.5,2.7c-0.4,0-0.8,1.2-1.1,0.8c0.1,0.5,0.4,0.3,0.1,1.3c-0.3,0.6-0.4-0.8-0.5-1.1c-0.3,0.7-0.4,0.7-0.5,0.7&#10;&#9;c0.5,0.7,1.5,1.2,1.7,0.5c-0.2-0.5,0-1,0.1-1.3c-1.1,9,1.8,18.3,8.7,25.2c0.4,0.4,0.9,0.8,1.3,1.2c-0.5,0-1.1,0-1,0.6l-0.4-0.5&#10;&#9;c-0.2,0.5,1.3,1.2,1.3,1.8c0.6,0.3,1.2,0.5,1.8,0.7c-0.2,0.1-0.1,0.5-0.3,0.4c0.4,0.3,0.7,0.5,0,0.4c2.2,0.8,4.1,1.9,6.1,2.9&#10;&#9;c2,0.9,4.1,1.8,6.3,1.9c0.3,0.1,0.1,0.2-0.1,0.3c0.9-0.3,0.7,0.4,1.1,0.5c0.4-0.2,0.8-0.3,1.2-0.5c0.4,0.2,0,0.4,0.1,0.5&#10;&#9;c2.2,0.4,4.4-0.2,6.2,0.1c0.6-0.3-0.2-0.5,0.6-0.7c-0.5,0.4,0.1,0.4,0.7,0.4c0.6,0,1.2-0.1,0.9,0.2c0.6-0.8,2.6-0.6,2.1-1.5&#10;&#9;c0.8-0.2,0.8,0.2,0.6,0.4c1-0.3,1.8-0.5,2.7-0.5c0.2-0.2,1.4-0.5,2.5-1c1.2-0.5,2.3-1.1,2.5-1.7c-0.3,0.7,0.1,0.2,0.8,0.1l-0.3,0.7&#10;&#9;c0.4-0.2,0.8-0.5,1.2-0.7c0.3-0.1,0.3-0.2,0.3-0.2c0.2-0.1-0.2-0.2,0.3-0.6c0.8-0.5,0.9-0.4,1.5-0.5l-0.1,0.1l0.5-0.3&#10;&#9;c0.4-0.3-1.6,0.6-0.5-0.4c0.1,0.1,1.1,0,1.3-0.5c-0.6,0.5-0.7,0.2-0.6-0.1c0.3-0.2,0.6-0.5,0.8-0.7l0.1,0.7c2.5-2,4.4-4.7,6.3-7.4&#10;&#9;c-0.4-0.2,1.3-2,0.5-2.1v0.1c-0.5,0.7-0.4-0.5,0-1c-0.1,0.7,1.2-0.8,0.5,0.8c0.3-0.3,0.6-0.6,0.9-1c0.8,0,1.2-0.8,1.4-1.9&#10;&#9;c0.3-1,0.4-2.2,0.9-3.1c-0.1,0.1-0.2,0.1-0.2,0.1c1-1.6,0.6-3.9,0.9-4.3l-0.3-0.2C200.7,35.9,200.8,35.7,200.7,33.9z M152.7,5.2&#10;&#9;c0.2,0,0.5,0.4,0.7,0.8c-0.3,0.2-0.6,0.4-0.9,0.6l-0.4-0.4l0.3,0.5c-0.3,0.2-0.6,0.4-0.9,0.6c0-0.1-0.1-0.1-0.1-0.2&#10;&#9;C151.5,6.6,152.6,5.3,152.7,5.2z M148.9,9.3c-0.2,0.2-0.5,0.4-0.7,0.7c0-0.1,0-0.3-0.1-0.4C148.3,9.4,148.6,9.3,148.9,9.3z&#10;&#9; M140,18.1C140,18.1,140,18.1,140,18.1C140.1,17.7,140.1,17.5,140,18.1z M138.7,28.4C138.7,28.4,138.7,28.4,138.7,28.4l0-0.2&#10;&#9;C138.8,28.2,138.8,28.3,138.7,28.4z M142.4,17.4c0.1-0.3,0.2-0.5,0.2-0.6c-0.1,0.4-0.5,0.8-0.7,1.1c0.1-0.3,0.1-0.5,0.2-0.8&#10;&#9;c-0.3,0.6-0.2,1.2-0.8,2c-0.2-0.3-0.8,0.2-0.9-0.7c0.2-0.9,0.6-1.2,1-1.4c0.4-0.3,0.9-0.5,1.4-1.5c0.2-0.1-0.6,0.1,0.1-0.8&#10;&#9;c0.7-0.7,1.5-1.1,2.1-1.2C144,14.7,143.1,16,142.4,17.4z M185.5,59.6c-0.2,0-0.3,0,0.1-0.2L185.5,59.6z M186,6.9&#10;&#9;c-0.1-0.1-0.1-0.1-0.2-0.2l-0.2-0.3l0,0.2c-0.1-0.1-0.3-0.2-0.5-0.3c0-0.1,0.1-0.2,0.3-0.1c0,0.1,0.1,0.1,0.1,0.2&#10;&#9;c-0.1-0.3-0.1-0.5,0.1-0.5c0.3,0.3,0.6,0.6,0.9,0.9C186.5,6.9,186.2,6.9,186,6.9z" id="el_ZPusIDd5oS"/>
<path d="M338.2,231.5c0.4-2.2-0.2-4.4,0.1-6.2c-0.3-0.6-0.5,0.2-0.7-0.6c0.4,0.5,0.4-0.1,0.4-0.7c0-0.6-0.1-1.2,0.2-0.9&#10;&#9;c-0.8-0.6-0.6-2.7-1.5-2.1c-0.2-0.8,0.2-0.8,0.4-0.6c-0.3-1-0.5-1.8-0.5-2.7c-0.2-0.2-0.5-1.4-1-2.5c-0.5-1.1-1.1-2.3-1.7-2.5&#10;&#9;c0.7,0.3,0.2-0.2,0.1-0.8l0.6,0.3c-0.2-0.4-0.5-0.8-0.7-1.2c-0.1-0.3-0.2-0.3-0.2-0.3c-0.1-0.2-0.2,0.2-0.6-0.3&#10;&#9;c-0.5-0.8-0.3-0.9-0.4-1.5l0.1,0.1l-0.3-0.6c-0.3-0.4,0.6,1.6-0.4,0.5c0.1-0.1,0-1.2-0.5-1.3c0.5,0.6,0.2,0.7-0.1,0.6&#10;&#9;c-0.2-0.3-0.5-0.5-0.7-0.8l0.6,0c-2-2.5-4.7-4.4-7.4-6.3c-0.2,0.4-2-1.2-2.1-0.5l0.1,0c0.7,0.5-0.5,0.4-1,0c0.7,0.1-0.7-1.2,0.8-0.5&#10;&#9;c-0.1-0.1-0.2-0.2-0.4-0.3c-1.1-0.1-2.4-0.1-3.8-0.1c-9.5,0-26.4,2.3-32.7,17.6l-0.7-0.2c0-0.2,3-12.9,11.7-19.6&#10;&#9;c-0.3,0.2-0.7,0.5-1,0.5c-0.5,0.1-0.4-0.2-0.3-0.5c-0.8,0.8-2.9,0.7-3.2,1.1c-0.7,0.4,0,0.5-0.1,0.9c-1.1,0.4-0.3-1-1.5,0.2&#10;&#9;c0.2-0.1,0.5-0.2,0.4-0.1c-0.5,0.4-0.7,2.1-1.3,2.2l0.2-0.4c-1.1,0.3-1.5,2.2-2.1,1.7l-0.1-0.3c-1.1,1.5-0.7,0.4-1.8,1.9l0.1,0&#10;&#9;c-0.6,0.5-0.6,1.1-1.3,1l0.1-0.3c-0.7,0.7-0.8,0.8-1.4,1.6c-0.1,0-0.5,0.4-0.5,0.6c-0.4-0.3-1.7,1.8-1.9,2.2&#10;&#9;c0.5-0.7,0.5-0.2,0.5,0.1c-0.6,0.2-0.8,0.4-0.9,1.2c-0.5-0.2-1.2-0.5-1.9,0.7c0.2-0.1,0.4-0.4,0.4-0.2c0,0.2-0.2,0.4-0.3,0.5&#10;&#9;c0,0.2,0.3-0.2,0.4,0.1c-0.9,0.5-0.8,1.3-1.5,2.5c0.3-0.3,0.3,0.1,0.4,0.3c-0.7-0.2-0.1,1.9-0.8,1.1c-0.2,1.3-0.7,2.8-1,4.2&#10;&#9;c-0.3,1.4-0.5,2.6-0.3,3.1c0.2,0.3-0.3,0.9-0.3,1.4l0.3,0c-0.6,1.2-0.3,0.9-0.9,2.4c0.4-0.6,0.5-0.3,0.8,0.3c-0.2,0.3-0.4,0.7-0.6,1&#10;&#9;l0.5,0.2c-0.2,0.4-0.1,0.9,0,1.3c0-0.2,0-0.1,0.1-0.1c-0.6,0.2-0.4,2-0.6,2.3c0.7,0.4,0,1.2,0.6,1.5c0,0.1-0.1,0.4-0.1,0.6&#10;&#9;c-0.3-0.2-0.6-0.2-0.4,0.2l0,0.1l0.4,0.1c0,0.4,0.1,0.8,0.1,1.1c-0.1-0.1-0.2-0.2-0.3-0.4c0.1,0.2,0.2,0.3,0.3,0.5c0,0,0,0.1,0,0.1&#10;&#9;c0,0,0,0,0-0.1c0.1,0.2,0.2,0.5,0.2,0.9c0.5,0.6,0.5,1.4,0.6,2.3c0.1,0.7,0.3,1.4,0.8,1.9c0-0.1-0.1-0.2,0-0.3&#10;&#9;c0.5,1.3,1.6,2.2,1.8,3.1l-0.3,0.1c0.4,0.9,0.7,1.7,1.1,2.3l-0.3,0.3c0.4,0.4,0.8,1.3,1.3,2c0.5,0.7,1.1,1.3,1.6,1.3&#10;&#9;c-0.1,0.4,1.1,1.1,1.5,1.7l0.3-0.1c0.7,0.5,1,1,1.3,1.4c1.7,0.7,2.6,2.1,3.9,2.8l0.1-0.1c0.4,0.3,0.8,0.7,1.2,1&#10;&#9;c-0.2-0.4,0.2,0.3,0.6,0.5c0.4,0.4,1.1,0.6,1.7,0.7c0.3,0.1,0.6,0.3,0.9,0.4c-0.9-0.6,0.2-0.4,0.4-0.7c0.2,0.2,0.3,0.3,0.5,0.5&#10;&#9;c0.3,0-0.3-0.4,0.2-0.3c0.3,0.3,1.5,0.7,1.7,1.2c-0.1,0-0.2,0.1-0.4,0.1c-0.1,0-0.1,0,0,0h0l0.1,0c0,0,0.1,0.1,0.1,0.2&#10;&#9;c0.8,0.2,0.4,0.2,0.4,0.3c1-0.2,1.4,0.2,2.2-0.2c-1,0.5,2,0.4,1.3,1c0.8-0.4,0.5,0.1,1-0.3c-0.9,0-1.7-0.7-2.4-1.1l0.8-0.1&#10;&#9;c-0.3-0.7-1.6-0.2-2-0.5c0.2,0.2,0.9,0.2,0.9,0.1l-0.3,0.4c-1-0.1-1.7-0.7-2.3-1.1c0.7,0.1-0.7-0.5-0.1-0.7l0.5,0.2&#10;&#9;c0.1,0,0.1-0.1,0.1-0.2c0.8,0.3,1.7,0.6,2.5,0.8c0,0-0.1,0-0.2,0l0.5,0.1h0c0.9,0.2,1.8,0.4,2.7,0.5c0,0.4,1.2,0.8,0.8,1.1&#10;&#9;c0.5-0.1,0.3-0.4,1.3-0.1c0.6,0.3-0.8,0.4-1.1,0.5c0.7,0.3,0.7,0.4,0.7,0.5c0.7-0.5,1.2-1.4,0.5-1.7c-0.5,0.2-1,0.1-1.3-0.1&#10;&#9;c9,1.1,18.3-1.8,25.2-8.7c0.4-0.4,0.8-0.9,1.2-1.3c0,0.6,0,1.1,0.5,1l-0.4,0.4c0.5,0.2,1.2-1.3,1.8-1.3c0.3-0.6,0.5-1.2,0.7-1.8&#10;&#9;c0.1,0.2,0.5,0.1,0.4,0.3c0.3-0.4,0.5-0.7,0.4,0c0.8-2.2,1.9-4.1,2.8-6.1c0.9-2,1.8-4.1,1.9-6.3c0.1-0.3,0.2-0.1,0.3,0&#10;&#9;c-0.3-0.9,0.4-0.7,0.5-1.1c-0.2-0.4-0.3-0.8-0.5-1.3C337.9,231.1,338.1,231.5,338.2,231.5z M275.9,226.8c-0.3,0-0.5-0.1-0.7,0&#10;&#9;c0.2-0.3,0.5-0.5,0.7-0.8C275.9,226.3,275.9,226.6,275.9,226.8z M277.2,239.6c0-0.3-0.1-0.7-0.1-1.1l-0.3-0.2&#10;&#9;c-0.1-0.7,0.2-1.4,0.5-2c0.1,0.5,0.3,1,0.5,1.5C277.6,238.6,277.4,239.3,277.2,239.6z M281.1,209.8c0,0.1,0,0.4,0,0.6&#10;&#9;c-0.1,0.1-0.1,0.1-0.2,0.2l-0.3,0.2l0.2,0c-0.1,0.2-0.2,0.3-0.3,0.5c-0.1,0-0.2-0.1-0.1-0.3c0,0,0.1-0.1,0.2-0.1&#10;&#9;c-0.3,0.1-0.5,0.1-0.5-0.1C280.4,210.4,280.8,210.1,281.1,209.8z M281.2,245c-0.4-0.1-1.8-1.2-1.8-1.3c0.1-0.2,0.4-0.5,0.8-0.7&#10;&#9;c0.2,0.3,0.3,0.6,0.5,0.9l-0.4,0.4l0.5-0.3c0.2,0.3,0.4,0.6,0.6,0.9C281.4,244.9,281.3,245,281.2,245z M283.7,248.3&#10;&#9;c-0.1-0.2-0.2-0.5-0.3-0.9c0.2,0.2,0.4,0.5,0.7,0.7C284,248.2,283.8,248.2,283.7,248.3z M292.3,256.4L292.3,256.4&#10;&#9;C291.9,256.3,291.7,256.3,292.3,256.4z M292.4,256c-0.9-0.2-1.2-0.6-1.4-1c-0.3-0.4-0.5-0.9-1.5-1.4c-0.1-0.2,0.1,0.7-0.8-0.1&#10;&#9;c-0.7-0.7-1.1-1.5-1.2-2.1c1.3,1,2.6,1.9,3.9,2.6c-0.2-0.1-0.5-0.2-0.6-0.2c0.4,0.1,0.8,0.5,1,0.7c-0.2-0.1-0.5-0.1-0.8-0.2&#10;&#9;c0.6,0.3,1.2,0.2,2,0.8C292.8,255.3,293.3,255.9,292.4,256z M302.3,257.6c0.1,0,0.1,0,0.2,0c0,0,0,0,0,0L302.3,257.6z M333.6,210.7&#10;&#9;l0.2,0.1C333.7,211,333.7,211.2,333.6,210.7z" id="el_OsE0RPVCQR"/>
<path d="M262.1,133c0.3-0.3,0-1.6,0.1-2.3l-0.3-0.2c-0.1-0.9,0-1.4,0-1.9c-0.7-1.7-0.4-3.3-0.7-4.8h-0.1&#10;&#9;c0-0.5-0.1-1-0.2-1.6c-0.1,0.5,0.1-0.3-0.1-0.8c0-0.5-0.3-1.3-0.7-1.8c-0.1-0.3-0.2-0.6-0.3-0.9c0.2,1.1-0.4,0.1-0.8,0.2&#10;&#9;c0-0.2,0-0.5,0-0.7c-0.2-0.2-0.1,0.5-0.3,0.1c0-0.5-0.5-1.5-0.4-2.1c0.1,0,0.2,0.1,0.4,0.3c0,0.1,0,0,0,0l0,0l0,0c0-0.1,0-0.2,0-0.2&#10;&#9;c-0.4-0.7-0.2-0.5,0-0.5c-0.9-0.5-0.8-1.2-1.7-1.4c1.1,0.4-1-1.7-0.2-1.6c-0.8-0.3-0.3-0.4-0.9-0.5c0.7,0.7,0.7,1.7,0.9,2.5&#10;&#9;l-0.6-0.4c-0.3,0.7,1,1.3,1,1.7c0-0.3-0.4-0.8-0.6-0.8l0.5-0.1c0.7,0.8,0.7,1.7,0.8,2.5c-0.4-0.5,0.1,0.9-0.4,0.6l-0.1-0.5&#10;&#9;c-0.1-0.1-0.1,0-0.1,0.1c-0.4-0.8-0.8-1.6-1.2-2.4c0,0,0.1,0.1,0.1,0.1l-0.3-0.4l0,0c-0.4-0.8-1-1.5-1.5-2.3&#10;&#9;c0.3-0.3-0.3-1.4,0.2-1.3c-0.4-0.3-0.5,0-1-0.8c-0.2-0.6,0.8,0.3,1.1,0.4c-0.3-0.7-0.2-0.8-0.1-0.9c-0.8-0.1-1.8,0.2-1.6,0.8&#10;&#9;c-0.2-0.3-0.5-0.6-0.8-0.9c0.3,0.3,0.2,0,0-0.4l-0.1,0.1c0,0.1,0.1,0.1,0.2,0.2c-2.8-3.1-6.3-5.7-10.2-7.4c-0.4,0-0.8,0-1.3,0&#10;&#9;c-9.5,0-26.4,2.3-32.7,17.6l-0.7-0.2c0-0.2,2.9-12.5,11.3-19.3c0,0-0.1,0-0.1,0c-2.1,0.7-4.2,1.6-5.8,3c-0.3,0.1-0.2-0.1-0.2-0.3&#10;&#9;c-0.4,0.8-0.8,0.2-1.2,0.4c-0.2,0.4-0.4,0.8-0.6,1.2c-0.5,0.1-0.3-0.3-0.4-0.3c-1.9,1.2-3,3.2-4.5,4.3c-0.2,0.6,0.5,0.3,0.1,0.9&#10;&#9;c0.1-0.6-0.3-0.3-0.8,0.2c-0.4,0.4-0.8,0.9-0.8,0.5c0.1,1-1.5,2.3-0.5,2.6c-0.4,0.8-0.8,0.4-0.7,0.1c-0.5,0.9-0.9,1.6-1.6,2.2&#10;&#9;c0,0.3-0.6,1.3-1.1,2.5c-0.5,1.1-0.8,2.4-0.6,2.9c-0.3-0.8-0.3,0-0.6,0.5l-0.2-0.7c-0.1,0.4-0.2,0.9-0.3,1.3&#10;&#9;c-0.1,0.3-0.1,0.4-0.1,0.4c0,0.2,0.2,0,0.2,0.6c-0.2,0.9-0.4,0.9-0.7,1.4l0-0.2l-0.2,0.6c-0.1,0.5,0.7-1.6,0.7,0&#10;&#9;c-0.1,0-0.8,0.8-0.6,1.3c0.1-0.8,0.4-0.6,0.5-0.3c0,0.4-0.1,0.7-0.1,1.1l-0.5-0.4c-0.3,3.2,0.1,6.5,0.7,9.7c0.4-0.1,0.5,2.3,1.2,1.8&#10;&#9;l-0.1-0.1c-0.1-0.8,0.6,0.1,0.7,0.7c-0.4-0.6-0.3,1.4-0.9-0.2c0,0.4,0,0.9,0,1.3c-0.6,0.6-0.2,1.4,0.2,2.3c0.5,0.9,1.2,1.9,1.5,2.9&#10;&#9;c0-0.2,0-0.2,0-0.2c0.4,1.8,2.3,3.3,2.4,3.7l0.4-0.1c0.4,1.5,0.5,1.8,1.8,3c0-0.1,0-0.3,0.2-0.1c0.1,0.5,0.1,1,1.1,1.9l0-0.1&#10;&#9;c0.4,0.5,0.9,0.9,1.4,1.4c0.4-0.4,0.9,0.2,1.5,0.9c0.6,0.7,1.3,1.4,1.9,1c0.1,0.5,1.3,1.4,1.7,1.8c0-0.1,0.1-0.1,0.2-0.1&#10;&#9;c0.3,0.9,2,0.9,2.7,1.3c0.4,0.4,0.1,0.4-0.1,0.5c1.2,0,2.6,1.6,3,1.6c0.8,0.2,0.4-0.3,0.7-0.5c1.1,0.5-0.5,0.9,1.2,0.9&#10;&#9;c-0.2-0.1-0.5-0.2-0.3-0.2c0.6,0.1,1.9-1,2.4-0.6l-0.4,0.1c1,0.5,2.6-0.5,2.7,0.3l-0.1,0.4c1.9-0.3,0.8,0.2,2.7,0l0-0.1&#10;&#9;c0.8,0.1,1.2-0.3,1.7,0.2l-0.3,0.1c1,0,1.1,0,2.1-0.1c0.1,0,0.6,0.1,0.8,0c0.1,0.5,2.4,0,2.8-0.2c-0.8,0.1-0.4-0.2-0.3-0.4&#10;&#9;c0.5,0.3,0.9,0.3,1.5-0.1c0.2,0.6,0.5,1.2,1.8,0.9c-0.2,0-0.6,0-0.5-0.1c0.1-0.2,0.4-0.1,0.6-0.1c0.1-0.2-0.3-0.1-0.3-0.4&#10;&#9;c1,0.3,1.5-0.4,2.8-0.6c-0.5,0-0.2-0.3-0.1-0.5c0.4,0.6,1.4-1.2,1.3-0.2c1.1-0.7,2.5-1.4,3.7-2.2c1.2-0.7,2.2-1.5,2.4-2&#10;&#9;c0.1-0.3,0.9-0.5,1.2-0.7l-0.2-0.2c1.3-0.4,0.9-0.4,2.3-1c-0.7,0.1-0.6-0.1-0.4-0.8c0.4-0.1,0.8-0.2,1.2-0.2l-0.2-0.5&#10;&#9;c0.4-0.2,0.7-0.5,0.9-0.9c-0.1,0.1-0.1,0.1-0.1,0c0.6,0.3,1.8-1.1,2.1-1.2c-0.2-0.7,0.9-0.8,0.6-1.5c0.1-0.1,0.3-0.2,0.5-0.3&#10;&#9;c0.1,0.3,0.3,0.6,0.4,0.1l0.1-0.1l-0.2-0.3c0.3-0.3,0.5-0.6,0.7-0.9c0,0.1-0.1,0.3-0.1,0.4c0-0.2,0.1-0.4,0.1-0.5&#10;&#9;c0,0,0.1-0.1,0.1-0.1c0,0,0,0-0.1,0.1c0.1-0.3,0.2-0.5,0.5-0.7c0.1-0.8,0.7-1.4,1.2-2.1c0.5-0.7,1-1.4,0.9-2.3&#10;&#9;c0,0.3-0.1,0.6-0.3,0.6c0.6-1.2,0.5-2.7,1-3.4l0.3,0.1c0.4-0.9,0.7-1.6,0.9-2.4l0.4,0c0.1-0.6,0.3-1.5,0.5-2.3&#10;&#9;C262.5,134.2,262.5,133.4,262.1,133z M198.7,122.8l0-0.2C198.8,122.5,198.9,122.3,198.7,122.8z M235.9,161.1c-0.4,0-0.9,0-1.3,0&#10;&#9;c0.1-0.1,0.3-0.2,0.4-0.4c0.1,0,0.2,0,0.2,0l0.3,0.1l-0.2-0.1c0.2,0,0.4-0.1,0.6-0.1c0,0.1,0,0.2-0.2,0.3c-0.1,0-0.2,0-0.2-0.1&#10;&#9;C235.9,160.9,236.1,161,235.9,161.1z M249.9,153.4c0.2-0.2,0.4-0.3,0.6-0.5c0.2,0.2,0.3,0.4,0.5,0.5&#10;&#9;C250.6,153.5,250.2,153.4,249.9,153.4z M253.1,111.2c0.5,0.2,0.7,0.7,0.8,1C253.6,111.8,253.3,111.5,253.1,111.2z M254,112.4&#10;&#9;C254,112.4,254,112.3,254,112.4l0.1,0.1C254.1,112.5,254,112.4,254,112.4z M260.3,120.6C260.5,120.9,260.6,121.1,260.3,120.6&#10;&#9;C260.3,120.6,260.3,120.6,260.3,120.6z M258,143.9l0.1,0.3c-0.4,0.5-1.1,0.8-1.8,1c0.2-0.5,0.5-1,0.7-1.5c0.6-0.3,1.2-0.6,1.6-0.8&#10;&#9;C258.5,143.3,258.3,143.6,258,143.9z M259,138.6c0.1-0.4,0.2-0.7,0.3-1.1h0.6l-0.6-0.1c0.1-0.4,0.1-0.7,0.2-1.1c0.1,0,0.1,0,0.2,0.1&#10;&#9;c0.2,0.4,0.4,2.1,0.3,2.2C259.9,138.8,259.5,138.8,259,138.6z M260,133.1c0-0.3,0.1-0.6,0.1-1c0.1,0.1,0.2,0.2,0.4,0.2&#10;&#9;C260.3,132.6,260.2,132.9,260,133.1z M259.9,127.5c-0.1-1.6-0.4-3.1-0.8-4.5c0.1,0.2,0.2,0.4,0.3,0.5c-0.2-0.3-0.3-0.9-0.2-1.2&#10;&#9;c0.1,0.2,0.3,0.5,0.4,0.7c-0.1-0.6-0.7-1-0.8-1.9c0.3,0.1,0.5-0.7,1.1-0.2c0.5,0.8,0.4,1.2,0.3,1.7c-0.1,0.5-0.2,1,0,2.1&#10;&#9;c-0.1,0.2,0.4-0.5,0.4,0.6C260.6,126.2,260.3,127,259.9,127.5z" id="el_XpkL_r9phn"/>
<path d="M198.7,225.9c0.2,0,0.4-0.3,0.5,0c-0.1-0.5-0.1-0.9,0.2-0.3c-1-2.1-1.5-4.2-2.3-6.3c-0.7-2.1-1.7-4.2-3.1-5.8&#10;&#9;c-0.1-0.3,0.1-0.2,0.3-0.2c-0.8-0.4-0.2-0.8-0.4-1.2c-0.4-0.2-0.8-0.4-1.2-0.5c-0.1-0.5,0.2-0.3,0.3-0.4c-1.3-1.9-3.2-3-4.3-4.4&#10;&#9;c-0.6-0.2-0.2,0.5-0.9,0.1c0.6,0,0.3-0.4-0.2-0.8c-0.4-0.4-0.9-0.8-0.5-0.8c-1,0.1-2.3-1.4-2.6-0.4c-0.8-0.4-0.4-0.8-0.1-0.7&#10;&#9;c-0.9-0.5-1.6-0.9-2.2-1.6c-0.3,0-1.3-0.6-2.5-1.1c-1.2-0.5-2.4-0.8-2.9-0.6c0.7-0.3,0-0.3-0.5-0.6l0.6-0.3&#10;&#9;c-0.4-0.1-0.9-0.2-1.3-0.3c-0.3-0.1-0.4-0.1-0.4-0.1c-0.2,0,0,0.3-0.6,0.2c-0.9-0.2-0.9-0.4-1.4-0.7l0.1,0l-0.6-0.1&#10;&#9;c-0.5-0.1,1.6,0.7,0,0.7c0-0.1-0.8-0.8-1.3-0.6c0.8,0.1,0.6,0.4,0.3,0.5c-0.4,0-0.7-0.1-1.1-0.1l0.4-0.5c-3.2-0.3-6.5,0.2-9.7,0.8&#10;&#9;c0.1,0.4-2.3,0.5-1.8,1.2l0.1-0.1c0.8-0.1-0.1,0.6-0.7,0.7c0.6-0.4-1.4-0.3,0.2-0.9c-0.4,0-0.9,0-1.3,0.1c-0.6-0.5-1.4-0.2-2.3,0.3&#10;&#9;c-0.9,0.5-1.9,1.3-2.9,1.5c0.1,0,0.2,0,0.2,0c-1.8,0.4-3.2,2.4-3.7,2.4l0.1,0.4c-1.5,0.4-1.8,0.5-2.9,1.9c0,0,0.3,0,0.1,0.2&#10;&#9;c-0.5,0.1-1,0.2-1.8,1.1l0.1,0c-0.5,0.5-0.9,0.9-1.4,1.4c0.4,0.4-0.2,0.9-0.9,1.5c-0.7,0.6-1.4,1.3-1,1.9c-0.5,0.1-1.3,1.3-1.8,1.7&#10;&#9;c0,0,0.1,0.1,0.1,0.2c-0.9,0.4-0.8,2-1.2,2.7c-0.4,0.4-0.4,0.1-0.5-0.1c0,1.2-1.6,2.6-1.5,3c-0.2,0.8,0.3,0.4,0.5,0.7&#10;&#9;c-0.4,1.1-1-0.5-0.9,1.2c0.1-0.2,0.2-0.5,0.3-0.3c-0.1,0.6,1,1.9,0.6,2.4l-0.1-0.4c-0.5,1,0.5,2.6-0.3,2.7l-0.3-0.1&#10;&#9;c0.3,1.9-0.2,0.8,0.1,2.7l0.1,0c-0.1,0.8,0.4,1.3-0.2,1.6l-0.1-0.3c0,1,0,1.1,0.1,2.1c0,0.1-0.1,0.6,0,0.8c-0.5,0.1,0.1,2.4,0.2,2.9&#10;&#9;c-0.1-0.8,0.2-0.5,0.4-0.3c-0.3,0.5-0.3,0.9,0.1,1.5c-0.5,0.2-1.2,0.5-0.8,1.8c0-0.2,0-0.6,0.1-0.5c0.2,0.1,0.1,0.5,0.1,0.6&#10;&#9;c0.2,0.1,0.1-0.4,0.4-0.3c-0.3,1,0.4,1.5,0.7,2.8c0-0.5,0.3-0.2,0.5-0.1c-0.6,0.4,1.2,1.4,0.2,1.3c0.7,1.1,1.5,2.5,2.2,3.7&#10;&#9;c0.7,1.2,1.5,2.2,2,2.4c0.3,0.1,0.4,0.9,0.7,1.2l0.2-0.2c0.4,1.3,0.4,0.8,1,2.3c-0.1-0.7,0.1-0.6,0.7-0.4c0.1,0.4,0.2,0.8,0.3,1.2&#10;&#9;l0.5-0.2c0.1,0.4,0.5,0.7,0.9,0.9c-0.1-0.1,0-0.1,0-0.2c-0.3,0.6,1.2,1.7,1.2,2.1c0.7-0.2,0.9,0.9,1.5,0.6c0.1,0.2,0.2,0.3,0.3,0.5&#10;&#9;c-0.3,0.1-0.6,0.3-0.1,0.4l0.1,0.1l0.3-0.2c0.3,0.3,0.6,0.5,0.8,0.7c0.7,0.1,1.6,0.1,2.8,0.2c-0.1-0.2-0.3-0.5-0.3-0.8&#10;&#9;c0.5,0.3,1,0.5,1.5,0.7c0,0,0,0.1,0.1,0.1c0.4,0,0.9,0,1.4,0c9.5,0,26.4-2.3,32.7-17.6l0.7,0.2c0,0.2-2.3,9.9-8.6,16.8&#10;&#9;c0.7-0.3,1.3-0.7,1.9-1c0,0-0.1,0.1-0.1,0.1l0.5-0.3l0,0c0.8-0.5,1.5-1,2.3-1.5c0.3,0.3,1.4-0.3,1.3,0.2c0.3-0.4,0-0.5,0.8-1&#10;&#9;c0.6-0.2-0.2,0.9-0.4,1.2c0.7-0.3,0.8-0.2,0.9-0.2c0.1-0.8-0.2-1.9-0.9-1.6c-0.2,0.5-0.6,0.7-1,0.8c7.1-5.6,11.7-14.2,11.7-24&#10;&#9;c0-0.6,0-1.2-0.1-1.8c0.4,0.4,0.8,0.7,1.1,0.3l-0.1,0.6c0.5-0.2-0.1-1.8,0.4-2.2C199.2,227.1,198.9,226.5,198.7,225.9z M137.5,237.5&#10;&#9;c0-0.1,0-0.2,0.1-0.3c-0.1,0.2-0.3,0.4-0.4,0.3c0-0.4,0-0.9,0-1.3c0.1,0.1,0.2,0.3,0.4,0.4c0,0.1,0,0.2,0,0.3l-0.1,0.3l0.1-0.2&#10;&#9;c0,0.2,0.1,0.4,0.1,0.6C137.8,237.7,137.7,237.7,137.5,237.5z M145.1,252.4c0-0.4,0-0.7,0-1c0.2,0.2,0.3,0.4,0.5,0.6&#10;&#9;C145.4,252,145.2,252.2,145.1,252.4z M175,199.7l0.2,0C175.3,199.8,175.5,199.9,175,199.7z M186.1,255c0,0,0.1-0.1,0.1-0.1&#10;&#9;c0,0,0.1,0,0.1,0L186.1,255z" id="el_7Lq_9o2WyY"/>
<path d="M62.7,222.6c0.2,0,0.4-0.3,0.5,0c0-0.5-0.1-0.9,0.3-0.3c-1-2.1-1.5-4.2-2.3-6.3c-0.7-2.1-1.7-4.1-3.1-5.8&#10;&#9;c-0.1-0.3,0.1-0.2,0.3-0.2c-0.8-0.4-0.2-0.8-0.4-1.2c-0.4-0.2-0.8-0.4-1.2-0.5c-0.1-0.5,0.2-0.3,0.3-0.4c-1.3-1.9-3.3-3-4.3-4.4&#10;&#9;c-0.6-0.2-0.2,0.5-0.9,0.1c0.6,0.1,0.2-0.4-0.2-0.8c-0.4-0.4-0.9-0.8-0.5-0.8c-1,0.1-2.3-1.4-2.6-0.4c-0.8-0.4-0.4-0.8-0.1-0.7&#10;&#9;c-0.6-0.4-1.1-0.7-1.6-1c-1.1-0.1-2.4-0.1-4-0.1c-9.5,0-26.5,2.3-32.7,17.6l-0.7-0.2c0-0.2,3.1-13.3,12-19.9c-0.5-0.2-1.2,0.1-2,0.5&#10;&#9;c-0.9,0.5-1.9,1.3-2.9,1.6c0.2,0,0.2,0,0.3,0c-1.8,0.4-3.2,2.4-3.7,2.4l0.1,0.4c-1.5,0.4-1.7,0.5-2.9,1.9c0,0,0.3,0,0.1,0.2&#10;&#9;c-0.5,0.1-1,0.2-1.8,1.1l0.1,0c-0.5,0.4-0.9,0.9-1.4,1.4c0.4,0.4-0.2,0.9-0.9,1.5c-0.7,0.6-1.4,1.4-1,1.9c-0.5,0.1-1.3,1.2-1.8,1.7&#10;&#9;c0,0,0,0.1,0,0.2c-0.9,0.3-0.8,2-1.2,2.7c-0.3,0.4-0.4,0.1-0.5-0.2c0,1.2-1.6,2.6-1.5,3c-0.2,0.8,0.3,0.4,0.5,0.7&#10;&#9;c-0.4,1.1-1-0.5-0.9,1.2c0.1-0.2,0.2-0.5,0.3-0.3c-0.1,0.6,1,1.9,0.6,2.4l-0.1-0.4c-0.5,1,0.5,2.6-0.3,2.7l-0.3-0.1&#10;&#9;c0.3,1.9-0.2,0.8,0.1,2.7l0,0c-0.1,0.8,0.4,1.2-0.2,1.6l-0.1-0.3c0,1,0,1.1,0.1,2.1c-0.1,0.1-0.1,0.6,0,0.8&#10;&#9;c-0.5,0.1,0.1,2.4,0.2,2.9c-0.1-0.8,0.2-0.5,0.4-0.3c-0.3,0.5-0.3,0.9,0.1,1.4c-0.5,0.2-1.2,0.5-0.8,1.9c0-0.2,0-0.6,0.2-0.5&#10;&#9;c0.1,0.1,0.1,0.4,0.1,0.6c0.2,0.1,0.1-0.4,0.4-0.3c-0.3,1,0.4,1.5,0.7,2.8c0-0.4,0.3-0.2,0.5-0.1c-0.6,0.4,1.2,1.4,0.2,1.3&#10;&#9;c0.7,1.1,1.5,2.5,2.2,3.7c0.8,1.2,1.5,2.2,2,2.4c0.3,0.1,0.5,0.9,0.7,1.2l0.2-0.2c0.4,1.3,0.4,0.9,1,2.3c-0.2-0.7,0.1-0.6,0.7-0.4&#10;&#9;c0.1,0.4,0.2,0.8,0.3,1.1l0.5-0.2c0.2,0.4,0.5,0.7,0.9,0.9c-0.1-0.1,0-0.1,0-0.1c-0.3,0.6,1.1,1.7,1.2,2.1c0.7-0.2,0.9,0.9,1.5,0.6&#10;&#9;c0.1,0.1,0.2,0.3,0.3,0.5c-0.3,0.1-0.6,0.3-0.1,0.4l0.1,0.1l0.3-0.2c0.3,0.3,0.7,0.6,0.9,0.7c-0.1,0-0.3-0.1-0.4-0.1&#10;&#9;c0.2,0,0.3,0.1,0.5,0.1c0,0,0.1,0,0.1,0.1c0,0,0,0-0.1,0c0.2,0,0.5,0.2,0.8,0.4c0.8,0.1,1.4,0.7,2.1,1.2c0.7,0.5,1.4,1,2.3,0.9&#10;&#9;c-0.3,0-0.6-0.1-0.6-0.3c1.3,0.5,2.7,0.4,3.4,0.9l-0.1,0.3c0.9,0.4,1.6,0.7,2.4,0.8l0,0.4c0.6,0,1.5,0.3,2.3,0.5&#10;&#9;c0.9,0.1,1.7,0.1,2.1-0.2c0.3,0.3,1.6,0,2.3,0.1l0.1-0.3c0.9-0.1,1.4,0,1.9,0c1.7-0.7,3.3-0.4,4.8-0.8l0-0.1c0.5,0,1-0.1,1.6-0.2&#10;&#9;c-0.5-0.1,0.3,0.1,0.8-0.1c0.5,0,1.3-0.3,1.7-0.7c0.3-0.1,0.6-0.2,0.9-0.4c-1.1,0.2-0.1-0.4-0.2-0.8c0.2,0,0.4,0,0.7,0&#10;&#9;c0.2-0.3-0.5-0.1-0.1-0.3c0.4,0,1.5-0.5,2-0.4c0,0.1-0.1,0.2-0.2,0.4c0,0,0,0,0,0l0,0l0,0c0.1,0,0.2,0,0.2,0c0.7-0.4,0.5-0.2,0.5,0&#10;&#9;c0.5-0.9,1.1-0.8,1.4-1.7c-0.4,1.1,1.7-1.1,1.6-0.2c0.2-0.8,0.4-0.3,0.4-0.9c-0.7,0.7-1.7,0.7-2.5,0.9l0.4-0.6c-0.7-0.3-1.2,1-1.7,1&#10;&#9;c0.3,0,0.8-0.4,0.8-0.6l0.1,0.5c-0.8,0.7-1.7,0.7-2.5,0.8c0.5-0.4-0.9,0.1-0.5-0.4l0.5-0.2c0.1-0.1,0-0.1-0.1-0.2&#10;&#9;c0.8-0.4,1.6-0.8,2.4-1.3c0,0-0.1,0.1-0.1,0.1l0.4-0.3l0,0c0.8-0.5,1.5-1,2.3-1.5c0.3,0.3,1.4-0.3,1.3,0.2c0.3-0.4,0-0.5,0.8-1&#10;&#9;c0.6-0.2-0.2,0.9-0.3,1.1c0.7-0.3,0.7-0.2,0.9-0.2c0.1-0.8-0.2-1.9-0.9-1.6c-0.2,0.5-0.7,0.8-1,0.8c0.3-0.3,0.7-0.5,1-0.8&#10;&#9;c0.3-0.3,0.6-0.5,0.9-0.8c-0.3,0.3,0,0.2,0.4,0l-0.1-0.1c-0.1,0-0.1,0.1-0.2,0.2c6-5.6,9.8-13.5,9.8-22.4c0-0.6,0-1.2-0.1-1.8&#10;&#9;c0.4,0.4,0.8,0.8,1.1,0.3l-0.1,0.6c0.5-0.2-0.1-1.8,0.4-2.2C63.2,223.7,62.9,223.1,62.7,222.6z M1.5,234.1c0-0.1,0-0.2,0.1-0.3&#10;&#9;c-0.1,0.2-0.3,0.4-0.4,0.3c0-0.4,0-0.9,0-1.3c0.1,0.1,0.2,0.3,0.4,0.4c0,0.1,0,0.2,0,0.3l-0.1,0.3l0.1-0.2c0,0.2,0.1,0.4,0.2,0.6&#10;&#9;C1.8,234.3,1.7,234.3,1.5,234.1z M9.1,249c0-0.4,0-0.7,0-1c0.2,0.2,0.3,0.4,0.5,0.6C9.4,248.7,9.2,248.9,9.1,249z M18.8,256&#10;&#9;l-0.3,0.1c-0.5-0.4-0.8-1.1-1.1-1.7c0.5,0.2,1,0.5,1.5,0.7c0.3,0.6,0.6,1.2,0.8,1.6C19.3,256.5,19,256.2,18.8,256z M26.2,257.6&#10;&#9;c-0.4,0.2-2.1,0.4-2.2,0.4c-0.1-0.2,0-0.6,0-1.1c0.4,0.1,0.7,0.2,1.1,0.3l0,0.6l0.1-0.6c0.3,0.1,0.7,0.1,1,0.2&#10;&#9;C26.3,257.5,26.3,257.6,26.2,257.6z M30.3,258.2c-0.2,0-0.5-0.2-0.8-0.4c0.3,0,0.7,0,1,0.1C30.4,257.9,30.3,258.1,30.3,258.2z&#10;&#9; M40.2,257.8c-0.5-0.1-1-0.3-2,0c-0.2,0,0.5,0.4-0.6,0.5c-1,0-1.8-0.3-2.3-0.6c1.6-0.2,3.1-0.5,4.5-0.9c-0.2,0.1-0.4,0.2-0.5,0.3&#10;&#9;c0.3-0.2,0.9-0.3,1.3-0.2c-0.2,0.1-0.5,0.3-0.7,0.4c0.6-0.2,1-0.7,1.9-0.9c-0.1,0.4,0.7,0.5,0.2,1.1C41.1,258,40.7,257.9,40.2,257.8&#10;&#9;z M42.1,257.9C42.1,257.9,42.1,257.9,42.1,257.9C41.8,258.1,41.6,258.2,42.1,257.9z M50.1,251.6c0,0,0.1-0.1,0.1-0.1&#10;&#9;c0,0,0.1,0,0.1,0L50.1,251.6z" id="el_eKU339Ei-A"/>
</svg>