<svg id="Layer_1" data-name="Layer 1" xmlns="http://www.w3.org/2000/svg" viewBox="0 0 36 36"><defs><style>.cls-1{fill:none;}</style></defs><title>tick-circle</title><path d="M18,0A18,18,0,1,0,36,18,18,18,0,0,0,18,0Zm6.72,12.13a6.65,6.65,0,0,1-1.11,2Q20.49,19,17.36,23.86A1.42,1.42,0,0,1,15,24q-1.69-2-3.38-3.94A1.42,1.42,0,0,1,12,17.91a1.4,1.4,0,0,1,1.69.14c.44.46.84,1,1.26,1.44l1,1.21.1.1,1-1.22q3-3.64,6.05-7.31a2.37,2.37,0,0,1,.77-.71.8.8,0,0,1,.37-.11c.28,0,.4.18.47.41Z"/><rect class="cls-1" width="36" height="36"/></svg>