<svg id="Layer_1" data-name="Layer 1" xmlns="http://www.w3.org/2000/svg" viewBox="0 0 75 65"><defs><style>.cls-1{fill:#5d5e5e;}.cls-2{fill:#6d2158;}</style></defs><title>uluwatu-footer</title><path class="cls-1" d="M16.33,64.42c-1.14,0-1.55-.52-1.55-1.71V61.39c0-.58-.11-.6-.43-.64,0,0,0-.06,0-.06l.62,0,.58,0a0,0,0,0,1,0,.06c-.26,0-.33.07-.34.64,0,.18,0,.78,0,1.29,0,.94.17,1.57,1.14,1.57s1.15-.79,1.15-1.64c0-.25,0-.84,0-1.39,0-.4-.1-.44-.35-.47,0,0-.05-.06,0-.06l.5,0,.47,0c.05,0,.05.06,0,.06-.21,0-.29.13-.3.47s0,1,0,1.36C17.79,63.7,17.38,64.42,16.33,64.42Z"/><path class="cls-1" d="M21.61,63.44s.07,0,.07,0c0,.23,0,.57,0,.72s-.13.17-.35.17-.67,0-1.42,0l-.63,0c-.06,0-.05-.06,0-.06.3,0,.35-.12.36-.6s0-.85,0-1.05c0-.46,0-1.06,0-1.26,0-.48-.05-.56-.36-.61-.05,0-.05-.06,0-.06l.58,0,.54,0c.06,0,.05.06,0,.06-.26,0-.32.12-.33.59v1.14c0,.42,0,1,0,1.26s0,.39.37.4h.53C21.43,64.12,21.54,63.81,21.61,63.44Z"/><path class="cls-1" d="M24.27,64.42c-1.14,0-1.54-.52-1.54-1.71,0-.5,0-1.12,0-1.32,0-.58-.11-.6-.44-.64a0,0,0,0,1,0-.06l.63,0,.58,0a0,0,0,1,1,0,.06c-.26,0-.32.07-.34.64,0,.18,0,.78,0,1.29,0,.94.17,1.57,1.14,1.57s1.15-.79,1.15-1.64c0-.25,0-.84,0-1.39,0-.4-.1-.44-.35-.47,0,0,0-.06,0-.06l.5,0,.47,0c.05,0,.05.06,0,.06-.21,0-.29.13-.3.47s0,1,0,1.36C25.73,63.7,25.32,64.42,24.27,64.42Z"/><path class="cls-1" d="M29.93,62.84l-.49-1.3L29,62.67c-.18.46-.42,1.06-.63,1.64,0,.07,0,.09-.06.09s0,0-.07-.09c-.2-.61-.39-1.18-.63-1.93-.17-.52-.35-1.06-.44-1.3s-.19-.3-.37-.33-.05-.06,0-.06l.55,0,.57,0a0,0,0,0,1,0,.06c-.26,0-.33.07-.27.31s.21.74.35,1.21.29.92.42,1.3l.5-1.28c.33-.86.45-1.2.56-1.5,0-.08,0-.1.07-.1s0,0,.06.09c.15.45.33.95.53,1.49l.52,1.31c.12-.32.27-.82.43-1.32s.21-.73.29-1.08,0-.4-.18-.43a0,0,0,0,1,0-.06l.47,0,.47,0s0,.06,0,.06c-.27,0-.34.22-.41.37-.12.3-.32.85-.46,1.27l-.65,1.93c0,.07,0,.08-.06.08s0,0-.07-.08C30.31,63.84,30.15,63.41,29.93,62.84Z"/><path class="cls-1" d="M34.19,60.72c0-.08.05-.09.07-.09s0,0,.07.09c.16.49.72,2,1.16,3.12.14.33.24.39.51.43,0,0,0,.06,0,.06l-.63,0-.52,0c-.05,0,0-.06,0-.06.22,0,.26-.09.18-.36s-.21-.65-.34-1H33.54c-.09.24-.26.67-.35,1s.06.34.25.37.05.06,0,.06l-.52,0-.54,0c-.05,0,0-.06,0-.06a.58.58,0,0,0,.47-.33c.17-.31.37-.82.56-1.29Zm-.06.67-.27.66-.26.68h1C34.47,62.29,34.32,61.86,34.13,61.39Z"/><path class="cls-1" d="M39.53,61.47c0,.05-.06,0-.06,0,0-.45-.18-.55-.46-.56a8.75,8.75,0,0,0-.88,0c0,.07,0,.32,0,.47,0,.84,0,1.81,0,2.31s.1.56.45.6c0,0,0,.06,0,.06l-.66,0-.63,0c-.05,0,0-.06,0-.06.22,0,.4,0,.41-.57s0-1.74,0-2.36c0-.12,0-.38,0-.45-.28,0-.6,0-.78,0-.46,0-.54.13-.58.56,0,0-.07,0-.07,0V60.9c0-.2,0-.26.05-.26a1.18,1.18,0,0,0,.18,0c.2,0,.63,0,1.46,0s1.23,0,1.45,0,.12,0,.15,0,0,0,0,.18S39.54,61.33,39.53,61.47Z"/><path class="cls-1" d="M42.2,64.42c-1.13,0-1.54-.52-1.54-1.71V61.39c0-.58-.11-.6-.44-.64a0,0,0,0,1,0-.06l.63,0,.58,0a0,0,0,1,1,0,.06c-.26,0-.33.07-.34.64,0,.18,0,.78,0,1.29,0,.94.16,1.57,1.14,1.57s1.15-.79,1.15-1.64c0-.25,0-.84,0-1.39,0-.4-.1-.44-.35-.47,0,0-.05-.06,0-.06l.5,0,.47,0s0,.06,0,.06c-.21,0-.29.13-.3.47s0,1,0,1.36C43.67,63.7,43.26,64.42,42.2,64.42Z"/><path class="cls-1" d="M45.25,63.8c.15,0,.28.11.28.33a1,1,0,0,1-.65.86s-.06,0,0,0a.91.91,0,0,0,.41-.6c-.16,0-.29-.07-.29-.26A.28.28,0,0,1,45.25,63.8Z"/><path class="cls-1" d="M48.91,61.39c0-.46,0-.61-.43-.64,0,0,0-.06,0-.06H49c.23,0,.45,0,.71,0,.68,0,1,.37,1,.79a.88.88,0,0,1-.62.86c.66.12,1,.48,1,1,0,.68-.53,1-1.19,1-.27,0-.63,0-.8,0l-.55,0c-.05,0,0-.06,0-.06.34,0,.37-.15.38-.64,0-.28,0-.81,0-1C48.93,62.2,48.93,61.82,48.91,61.39Zm.66-.56c-.23,0-.23,0-.23.08v1.44h.28a.88.88,0,0,0,.33,0,.61.61,0,0,0,.36-.6C50.33,61.19,50.09,60.85,49.57,60.83Zm0,1.66h-.27v1c0,.17,0,.37,0,.48a.18.18,0,0,0,.1.19,1.06,1.06,0,0,0,.45.07.71.71,0,0,0,.75-.75A.93.93,0,0,0,49.61,62.49Z"/><path class="cls-1" d="M53.63,60.72c0-.08,0-.09.07-.09s0,0,.06.09c.17.49.72,2,1.17,3.12.13.33.23.39.5.43,0,0,0,.06,0,.06l-.63,0-.52,0a0,0,0,0,1,0-.06c.23,0,.27-.09.18-.36s-.21-.65-.34-1H53c-.09.24-.26.67-.35,1s.06.34.26.37a0,0,0,1,1,0,.06l-.53,0-.54,0c-.05,0,0-.06,0-.06a.57.57,0,0,0,.47-.33c.17-.31.37-.82.56-1.29Zm-.07.67-.27.66-.26.68h1C53.91,62.29,53.75,61.86,53.56,61.39Z"/><path class="cls-1" d="M58.54,63.44s.07,0,.07,0c0,.23,0,.57,0,.72s-.12.17-.35.17-.67,0-1.42,0l-.63,0c-.06,0,0-.06,0-.06.31,0,.35-.12.36-.6s0-.85,0-1.05c0-.46,0-1.06,0-1.26,0-.48,0-.56-.36-.61,0,0,0-.06,0-.06l.58,0,.54,0c.06,0,.05.06,0,.06-.26,0-.32.12-.33.59v1.14c0,.42,0,1,0,1.26s0,.39.37.4h.53C58.36,64.12,58.47,63.81,58.54,63.44Z"/><path class="cls-1" d="M60.24,63.67c0,.5.07.56.41.6.05,0,.05.06,0,.06l-.62,0-.6,0s0-.06,0-.06c.28,0,.36-.08.37-.6,0-.2,0-.85,0-1.05,0-.46,0-1,0-1.22,0-.61-.11-.61-.37-.65,0,0-.06-.06,0-.06l.6,0,.53,0s0,.06,0,.06c-.25,0-.32.06-.33.65,0,.17,0,.81,0,1.21C60.22,62.82,60.24,63.47,60.24,63.67Z"/><path class="cls-1" d="M.12,49.68c0-.08.13-.07.13,0C.32,50.86.9,51.61,2,51.61a1.46,1.46,0,0,0,1.64-1.43c0-1-.65-1.43-1.75-2A2.48,2.48,0,0,1,.21,45.86,1.93,1.93,0,0,1,2.38,44a3.89,3.89,0,0,1,1.12.15.57.57,0,0,1,.43.7c0,.17-.09.64-.11.9,0,.1-.13.06-.13,0a1.45,1.45,0,0,0-1.45-1.46A1.24,1.24,0,0,0,.86,45.59,2,2,0,0,0,2.2,47.33c1.51.77,2.13,1.42,2.09,2.57a2.15,2.15,0,0,1-2.41,2,3.21,3.21,0,0,1-1.37-.26A.8.8,0,0,1,0,51,4.33,4.33,0,0,1,.12,49.68Z"/><path class="cls-1" d="M9.32,50.35c0,1,.14,1.17.86,1.23a.07.07,0,0,1,0,.14c-.44,0-.94,0-1.29,0s-.87,0-1.26,0c-.09,0-.08-.14,0-.14.6-.08.76-.16.78-1.23,0-.41,0-1.77,0-2.19,0-.95,0-2.12,0-2.53,0-1.27-.23-1.27-.78-1.34-.08,0-.11-.13,0-.13l1.26,0,1.1,0c.1,0,.09.12,0,.13-.52.1-.67.11-.69,1.34,0,.36,0,1.68,0,2.52C9.29,48.58,9.31,49.94,9.32,50.35Z"/><path class="cls-1" d="M16.15,48.32c-.48.76-1.13,1.87-1.47,2.51s-.28.68.37.75c.08,0,.11.14,0,.14l-1.09,0-1.14,0a.07.07,0,0,1,0-.14,1.31,1.31,0,0,0,1.13-.7c.62-.87,1.36-2,2-2.94-.63-1-1.35-2.16-1.88-3-.34-.51-.5-.63-1-.68-.08,0-.11-.13,0-.13l1.15,0,1.24,0c.11,0,.08.13,0,.13-.55.06-.55.25-.34.63.37.7.83,1.5,1.32,2.34.45-.73.88-1.47,1.22-2.15s.27-.75-.17-.82c-.08,0-.11-.13,0-.13l1.05,0,.91,0a.07.07,0,1,1,0,.13c-.35.05-.58.07-1,.71-.65.92-1.28,1.85-1.74,2.6.61,1,1.56,2.5,2.13,3.3.35.5.58.65,1,.68a.07.07,0,1,1,0,.14c-.39,0-.84,0-1.14,0s-.72,0-1.16,0c-.09,0-.08-.14,0-.14.48,0,.47-.24.25-.63C17.42,50.38,16.72,49.27,16.15,48.32Z"/><path class="cls-1" d="M27.5,49.68c0-.08.14-.07.14,0,.06,1.18.64,1.93,1.69,1.93A1.46,1.46,0,0,0,31,50.18c0-1-.64-1.43-1.75-2a2.48,2.48,0,0,1-1.63-2.31A1.93,1.93,0,0,1,29.77,44a3.89,3.89,0,0,1,1.12.15.57.57,0,0,1,.42.7c0,.17-.08.64-.11.9,0,.1-.13.06-.13,0a1.44,1.44,0,0,0-1.45-1.46,1.24,1.24,0,0,0-1.37,1.31,2,2,0,0,0,1.33,1.74c1.51.77,2.13,1.42,2.1,2.57a2.16,2.16,0,0,1-2.41,2,3.26,3.26,0,0,1-1.38-.26.84.84,0,0,1-.5-.65A5.08,5.08,0,0,1,27.5,49.68Z"/><path class="cls-1" d="M36.68,50.54c0,.73.17.76.81.77a8.49,8.49,0,0,0,1,0c1,0,1.21-.67,1.36-1.43,0-.09.15-.1.15,0A11,11,0,0,1,40,51.36c-.05.27-.26.37-.72.37s-1.72,0-2.87,0l-1.38,0c-.1,0-.08-.14,0-.14.65-.07.78-.18.8-1.23,0-.85,0-1.7,0-2.57s0-1.39,0-2.16c0-1,0-1.23-.84-1.33-.08,0-.1-.13,0-.13l1.43,0,2.55,0c.36,0,.55,0,.53.3s-.07.76-.14,1.17c0,.09-.15.09-.14,0,0-.61-.21-1-.83-1.06a13.17,13.17,0,0,0-1.68,0c0,1,0,1.93,0,3a20.16,20.16,0,0,0,2,0c.35,0,.34-.13.43-.12s0,.06,0,.31a3.89,3.89,0,0,1-.12.74c0,.09-.14.09-.14,0,0-.49-.31-.49-.81-.51H36.66C36.65,48.58,36.66,49.77,36.68,50.54Z"/><path class="cls-1" d="M50.44,51.58c0,.22,0,.26,0,.27s-.09,0-.27-.21c-.77-.89-1.59-1.77-3.08-3.27-1.16-1.18-2.1-2.16-2.61-2.63,0,.94,0,3.26.11,5,0,.48.23.8,1,.87a.07.07,0,1,1,0,.14l-1.29,0-1,0c-.1,0-.08-.14,0-.14.44-.08.6-.19.65-.81.09-1.36.12-3.29.12-4.29,0-.66,0-1.46,0-2.16,0-.19,0-.24,0-.25s.09,0,.26.2c.9,1,1.88,2,3.1,3.26,1.06,1.06,2,2,2.61,2.58,0-1.44,0-3-.06-4.7,0-.89-.15-1-.83-1.12a.07.07,0,1,1,0-.13l1.11,0,.91,0c.1,0,.07.13,0,.13-.46.07-.59.4-.61,1C50.49,47.13,50.44,48.92,50.44,51.58Z"/><path class="cls-1" d="M54.86,49.68c0-.08.14-.07.14,0,.06,1.18.64,1.93,1.69,1.93a1.46,1.46,0,0,0,1.64-1.43c0-1-.64-1.43-1.75-2A2.48,2.48,0,0,1,55,45.86,1.93,1.93,0,0,1,57.12,44a3.91,3.91,0,0,1,1.13.15.57.57,0,0,1,.42.7c0,.17-.08.64-.11.9,0,.1-.13.06-.13,0A1.44,1.44,0,0,0,57,44.28a1.24,1.24,0,0,0-1.38,1.31,2,2,0,0,0,1.34,1.74c1.51.77,2.13,1.42,2.1,2.57a2.16,2.16,0,0,1-2.41,2,3.26,3.26,0,0,1-1.38-.26.82.82,0,0,1-.5-.65A5.08,5.08,0,0,1,54.86,49.68Z"/><path class="cls-1" d="M64,50.54c0,.73.17.76.81.77a8.49,8.49,0,0,0,1,0c1,0,1.21-.67,1.36-1.43,0-.09.15-.1.15,0a11,11,0,0,1-.06,1.48c0,.27-.26.37-.72.37s-1.72,0-2.88,0l-1.37,0a.07.07,0,1,1,0-.14c.64-.07.78-.18.8-1.23,0-.85,0-1.7,0-2.57s0-1.39,0-2.16c0-1,0-1.23-.84-1.33-.08,0-.11-.13,0-.13l1.43,0,2.55,0c.36,0,.55,0,.53.3s-.08.76-.14,1.17c0,.09-.16.09-.14,0,0-.61-.21-1-.83-1.06a13.17,13.17,0,0,0-1.68,0c0,1,0,1.93,0,3a20.16,20.16,0,0,0,2,0c.35,0,.34-.13.43-.12s0,.06,0,.31a3.89,3.89,0,0,1-.12.74c0,.09-.14.09-.14,0,0-.49-.31-.49-.81-.51H64C64,48.58,64,49.77,64,50.54Z"/><path class="cls-1" d="M70.82,49.68c0-.08.14-.07.14,0,.06,1.18.64,1.93,1.69,1.93a1.45,1.45,0,0,0,1.64-1.43c0-1-.64-1.43-1.75-2a2.49,2.49,0,0,1-1.63-2.31A1.93,1.93,0,0,1,73.09,44a3.89,3.89,0,0,1,1.12.15.57.57,0,0,1,.42.7c0,.17-.08.64-.11.9,0,.1-.13.06-.13,0a1.44,1.44,0,0,0-1.45-1.46,1.24,1.24,0,0,0-1.37,1.31,2,2,0,0,0,1.33,1.74c1.51.77,2.14,1.42,2.1,2.57a2.16,2.16,0,0,1-2.41,2,3.3,3.3,0,0,1-1.38-.26.81.81,0,0,1-.49-.65A4.68,4.68,0,0,1,70.82,49.68Z"/><path class="cls-2" d="M59.22,34s0,0,.05,0S59.24,34,59.22,34Z"/><polygon class="cls-2" points="58.56 34.41 58.67 34.38 58.65 34.38 58.56 34.41"/><path class="cls-2" d="M58.4,34.52c-.08.09-.26.09-.27.18.07-.06.24-.11.35-.18l-.07,0Z"/><path class="cls-2" d="M57.89,35,58,35h0C57.81,35,57.9,35,57.89,35Z"/><path class="cls-2" d="M58,35s.06,0,0,0Z"/><path class="cls-2" d="M57.69,35.11s.05,0,.06,0h-.1S57.61,35.13,57.69,35.11Z"/><path class="cls-2" d="M57.61,35h0A0,0,0,0,0,57.61,35Z"/><path class="cls-2" d="M57.65,35s0,0,0,0h.09S57.64,35,57.65,35Z"/><path class="cls-2" d="M57.76,34.94c.09,0,0,0,0,.05C57.91,34.94,57.91,34.88,57.76,34.94Z"/><path class="cls-2" d="M58.11,34.6l0,0s.08,0,.11,0Z"/><path class="cls-2" d="M57.14,35.25s.06,0,.09-.06h-.07S57.13,35.24,57.14,35.25Z"/><path class="cls-2" d="M57.06,35.18h.1S57.14,35.16,57.06,35.18Z"/><path class="cls-2" d="M57.52,35h0Z"/><path class="cls-2" d="M56.72,35.31l.11,0-.06,0Z"/><path class="cls-2" d="M56.52,35.35a.32.32,0,0,1-.19,0,.61.61,0,0,0,.18.05S56.56,35.37,56.52,35.35Z"/><path class="cls-2" d="M56.83,35.28c.05,0,.07-.05.07-.06h0Z"/><polygon class="cls-2" points="56.78 35.24 56.86 35.23 56.86 35.23 56.78 35.24"/><path class="cls-2" d="M57.21,35c-.1.06,0,.06.08.07S57.26,35,57.21,35Z"/><path class="cls-2" d="M57,35.13l-.09,0h.11S57,35.14,57,35.13Z"/><polygon class="cls-2" points="56.91 35.17 56.95 35.16 56.9 35.15 56.91 35.17"/><path class="cls-2" d="M56.45,35.26l-.18,0h.15C56.48,35.29,56.45,35.27,56.45,35.26Z"/><polygon class="cls-2" points="55.74 35.26 55.74 35.26 55.73 35.26 55.74 35.26"/><path class="cls-2" d="M56.45,35.25s0,0,0,0h.1S56.5,35.24,56.45,35.25Z"/><path class="cls-2" d="M56.17,35.3l-.08,0S56.15,35.32,56.17,35.3Z"/><path class="cls-2" d="M56.63,35.26h-.08l.06,0S56.62,35.26,56.63,35.26Z"/><path class="cls-2" d="M55.83,35.32l.15,0h-.24S55.76,35.29,55.83,35.32Z"/><path class="cls-2" d="M56.17,35.3h0s-.06,0,0,0H56l.19,0Z"/><path class="cls-2" d="M56.18,35.29h0l.1,0h-.11c.15,0-.1-.06.09-.05-.07,0,0,0-.16-.06s0,.07.07.11v0Z"/><path class="cls-2" d="M57.09,35h0S57.07,35,57.09,35Z"/><path class="cls-2" d="M57,35a.42.42,0,0,0-.07.13S57,35,57.09,35h0c.08,0,0,0,0,0s0,0,0,0A.08.08,0,0,1,57,35Z"/><path class="cls-2" d="M56.44,35.13h.16s0,0-.09,0v0Z"/><path class="cls-2" d="M55.64,35.26l.09.07,0,0Z"/><polygon class="cls-2" points="55.45 35.26 55.5 35.29 55.5 35.25 55.45 35.26"/><path class="cls-2" d="M51.77,31.77c-.05,0,0,.07.08.13a.18.18,0,0,1,0-.11Z"/><path class="cls-2" d="M53.37,34.33a.49.49,0,0,0,.13.08S53.44,34.36,53.37,34.33Z"/><path class="cls-2" d="M55,26.71s0,0,0,0S54.93,26.71,55,26.71Z"/><path class="cls-2" d="M53.37,34.33a.36.36,0,0,1-.11-.1h0A.22.22,0,0,0,53.37,34.33Z"/><path class="cls-2" d="M54.66,35.06Z"/><path class="cls-2" d="M54.75,35.09h0Z"/><path class="cls-2" d="M54.6,35l.06,0h0Z"/><path class="cls-2" d="M52.12,32.66l0,0Z"/><path class="cls-2" d="M55.1,35.19a.16.16,0,0,1-.09,0l.1,0S55.1,35.2,55.1,35.19Z"/><path class="cls-2" d="M56,35.06v0h0C55.91,35,56,35.06,56,35.06Z"/><path class="cls-2" d="M55.35,35.08h0c-.07,0-.12,0-.14,0S55.36,35.15,55.35,35.08Z"/><path class="cls-2" d="M55.44,35.1h-.06S55.45,35.13,55.44,35.1Z"/><path class="cls-2" d="M54.55,35s0-.05,0-.05S54.57,35.09,54.55,35Z"/><polygon class="cls-2" points="55.25 34.95 55.28 35 55.31 34.95 55.25 34.95"/><path class="cls-2" d="M54.91,34.88l-.11,0,.13,0S54.9,34.89,54.91,34.88Z"/><path class="cls-2" d="M54.93,34.9a.13.13,0,0,0,.08,0Z"/><path class="cls-2" d="M53.71,34.29a.3.3,0,0,0,.08.08s0,0,0-.06S53.71,34.27,53.71,34.29Z"/><polygon class="cls-2" points="59.37 33.9 59.41 33.82 59.38 33.83 59.37 33.9"/><path class="cls-2" d="M59.24,33.89s0,0-.05.06h.08Z"/><path class="cls-2" d="M45.8,13.36s0,0,0,0S45.76,13.37,45.8,13.36Z"/><polygon class="cls-2" points="46.53 13.56 46.44 13.51 46.45 13.53 46.53 13.56"/><path class="cls-2" d="M46.73,13.6c.11,0,.24.13.32.08-.1,0-.25-.1-.38-.14l0,.07Z"/><path class="cls-2" d="M47.42,13.64l-.06,0h0C47.48,13.69,47.39,13.66,47.42,13.64Z"/><path class="cls-2" d="M47.36,13.62s-.07,0,0,0Z"/><path class="cls-2" d="M47.64,13.7s0,0-.07,0l.06.06C47.69,13.76,47.72,13.75,47.64,13.7Z"/><path class="cls-2" d="M47.69,13.84s0,0,0,0Z"/><path class="cls-2" d="M47.61,13.79c0,.05,0,0,0,0l-.08-.07S47.61,13.81,47.61,13.79Z"/><path class="cls-2" d="M47.52,13.74c-.15-.08-.19,0-.05,0C47.4,13.72,47.47,13.73,47.52,13.74Z"/><path class="cls-2" d="M46.94,13.72l.05,0h.06S47,13.74,46.94,13.72Z"/><path class="cls-2" d="M48.13,14s-.07,0-.11,0l0,0Z"/><path class="cls-2" d="M48.13,14.1,48.07,14S48.06,14.06,48.13,14.1Z"/><path class="cls-2" d="M47.69,13.94l-.14-.13a1.14,1.14,0,0,1,.11.11Z"/><path class="cls-2" d="M48.46,14.25l0-.1,0,.06Z"/><path class="cls-2" d="M48.78,14.49a.47.47,0,0,0-.1-.16s-.07,0,0,0A.38.38,0,0,1,48.78,14.49Z"/><path class="cls-2" d="M48.36,14.2a.16.16,0,0,0-.09,0l0,0Z"/><polygon class="cls-2" points="48.37 14.26 48.3 14.21 48.3 14.21 48.37 14.26"/><path class="cls-2" d="M47.9,14.12c.12,0,0-.06,0-.11S47.88,14.07,47.9,14.12Z"/><path class="cls-2" d="M48.11,14.15l.09,0-.08-.08S48.12,14.14,48.11,14.15Z"/><polygon class="cls-2" points="48.23 14.22 48.2 14.2 48.23 14.24 48.23 14.22"/><path class="cls-2" d="M48.61,14.49l.14.11a.54.54,0,0,1-.09-.12S48.62,14.48,48.61,14.49Z"/><polygon class="cls-2" points="49.11 14.99 49.1 15 49.12 15 49.11 14.99"/><path class="cls-2" d="M48.6,14.49h0l-.07-.08A.13.13,0,0,0,48.6,14.49Z"/><path class="cls-2" d="M48.84,14.66l.07,0Z"/><path class="cls-2" d="M48.51,14.35h0S48.53,14.35,48.51,14.35Z"/><path class="cls-2" d="M48.49,14.36l0,.06s0,0,0-.06Z"/><path class="cls-2" d="M49.09,14.89,49,14.82l0,0h0l.14.15S49.12,15,49.09,14.89Z"/><path class="cls-2" d="M48.84,14.66l-.09-.06a.22.22,0,0,1,.07.09c-.12-.09,0,.12-.09,0,0,.06,0,.06.07.15s0-.07,0-.13h0s0,.05,0,0l.12.14a.91.91,0,0,0-.11-.16Z"/><path class="cls-2" d="M48,14.24h0S48,14.25,48,14.24Z"/><path class="cls-2" d="M48,14.24s0,0,0,0a.09.09,0,0,1,.05.06l.14,0a.46.46,0,0,1-.18,0v0C47.89,14.17,47.93,14.22,48,14.24Z"/><path class="cls-2" d="M48.47,14.55h0l.08,0-.1-.12S48.39,14.49,48.47,14.55Z"/><path class="cls-2" d="M49.17,15l0,.05,0,.07A.49.49,0,0,1,49.17,15Z"/><polygon class="cls-2" points="49.3 15.14 49.27 15.18 49.31 15.2 49.3 15.14"/><path class="cls-2" d="M49.38,20.27s0-.06,0-.14a.22.22,0,0,1-.06.1Z"/><path class="cls-2" d="M50.1,17.34s0-.09,0-.15S50.07,17.27,50.1,17.34Z"/><path class="cls-2" d="M43.52,21.52s0,0,0,0S43.54,21.54,43.52,21.52Z"/><path class="cls-2" d="M50.1,17.34a.75.75,0,0,1,0,.15s0,0,0,0A.22.22,0,0,0,50.1,17.34Z"/><path class="cls-2" d="M49.72,15.91Z"/><path class="cls-2" d="M49.68,15.82l0,0S49.68,15.81,49.68,15.82Z"/><path class="cls-2" d="M49.75,16l0-.06h0A.16.16,0,0,1,49.75,16Z"/><path class="cls-2" d="M49.56,15.57l0-.09s0,0,0,0A.22.22,0,0,1,49.56,15.57Z"/><path class="cls-2" d="M49.34,15.49c0-.07-.05-.14-.09-.09h0S49.3,15.5,49.34,15.49Z"/><path class="cls-2" d="M49.2,15.32l0,0S49.22,15.3,49.2,15.32Z"/><path class="cls-2" d="M49.77,16s0,0,0,0S49.81,16,49.77,16Z"/><polygon class="cls-2" points="49.25 15.51 49.19 15.52 49.23 15.56 49.25 15.51"/><path class="cls-2" d="M49.42,15.86l.06.09s0-.07-.06-.12Z"/><path class="cls-2" d="M49.42,15.83l0-.08A.16.16,0,0,0,49.42,15.83Z"/><path class="cls-2" d="M49.8,17.07s0,.07,0,.06V17S49.81,17,49.8,17.07Z"/><polygon class="cls-2" points="45.61 13.34 45.52 13.37 45.55 13.38 45.61 13.34"/><path class="cls-2" d="M45.77,13.43l-.06-.06,0,.07Z"/><path class="cls-2" d="M26.11,14.48s0-.05-.05,0S26.09,14.51,26.11,14.48Z"/><polygon class="cls-2" points="26.77 14.1 26.66 14.12 26.68 14.13 26.77 14.1"/><path class="cls-2" d="M26.92,14c.09-.08.27-.09.28-.18a4,4,0,0,1-.36.18l.08,0Z"/><path class="cls-2" d="M27.44,13.52l-.06,0s0,0,0,0C27.52,13.51,27.43,13.55,27.44,13.52Z"/><path class="cls-2" d="M27.38,13.54s-.06,0,0,0Z"/><path class="cls-2" d="M27.63,13.4s0,0-.05,0h.09S27.73,13.38,27.63,13.4Z"/><path class="cls-2" d="M27.73,13.47h0Z"/><path class="cls-2" d="M27.68,13.48s0,0,.05,0h-.11C27.67,13.48,27.69,13.5,27.68,13.48Z"/><path class="cls-2" d="M27.57,13.57c-.09,0,0,0,0-.06C27.42,13.57,27.42,13.62,27.57,13.57Z"/><path class="cls-2" d="M27.22,13.9l.05,0s-.08.05-.11.05Z"/><path class="cls-2" d="M28.19,13.25s-.06.05-.09.07h.07S28.2,13.27,28.19,13.25Z"/><path class="cls-2" d="M28.27,13.32h-.1S28.19,13.35,28.27,13.32Z"/><path class="cls-2" d="M27.81,13.54h0Z"/><path class="cls-2" d="M28.61,13.19l-.11,0,.06,0Z"/><path class="cls-2" d="M28.81,13.16a.33.33,0,0,1,.19,0,.58.58,0,0,0-.19,0C28.86,13.1,28.76,13.13,28.81,13.16Z"/><path class="cls-2" d="M28.5,13.23c-.05,0-.07,0-.07,0h0Z"/><polygon class="cls-2" points="28.55 13.26 28.47 13.28 28.47 13.28 28.55 13.26"/><path class="cls-2" d="M28.12,13.5c.1-.07,0-.06-.08-.07C28.13,13.44,28.07,13.48,28.12,13.5Z"/><path class="cls-2" d="M28.29,13.38l.09,0h-.11S28.29,13.37,28.29,13.38Z"/><polygon class="cls-2" points="28.42 13.34 28.38 13.35 28.43 13.35 28.42 13.34"/><path class="cls-2" d="M28.88,13.25l.18,0a.68.68,0,0,1-.15,0C28.85,13.21,28.88,13.24,28.88,13.25Z"/><polygon class="cls-2" points="29.58 13.24 29.59 13.25 29.59 13.24 29.58 13.24"/><path class="cls-2" d="M28.87,13.26s0,0,0,0h-.1A.13.13,0,0,0,28.87,13.26Z"/><path class="cls-2" d="M29.16,13.2l.08,0S29.18,13.19,29.16,13.2Z"/><path class="cls-2" d="M28.71,13.24h.07l-.06,0Z"/><path class="cls-2" d="M29.5,13.19l-.15.05h.23S29.57,13.21,29.5,13.19Z"/><path class="cls-2" d="M29.15,13.21h0s.06,0,0,0h0s0,0,0,0h0a.29.29,0,0,1-.1,0h.1c-.14,0,.11.06-.08,0,.07,0,0,.05.16.05s0-.07-.07-.11h.18a1.25,1.25,0,0,0-.19,0Z"/><path class="cls-2" d="M28.24,13.55h0S28.26,13.56,28.24,13.55Z"/><path class="cls-2" d="M28.31,13.52a.52.52,0,0,0,.07-.12.67.67,0,0,1-.15.11h0c-.08,0,0,.05,0,.05s0,0,0,0S28.29,13.52,28.31,13.52Z"/><path class="cls-2" d="M28.89,13.37h-.16s0,0,.08,0v0Z"/><path class="cls-2" d="M29.69,13.25l-.09-.08,0,.05Z"/><polygon class="cls-2" points="29.88 13.24 29.82 13.21 29.83 13.25 29.88 13.24"/><path class="cls-2" d="M33.48,16.6a.21.21,0,0,1,0,.12h.05S33.53,16.66,33.48,16.6Z"/><path class="cls-2" d="M32,14.17a.32.32,0,0,0-.13-.07S31.89,14.14,32,14.17Z"/><path class="cls-2" d="M30.37,21.8h0S30.4,21.8,30.37,21.8Z"/><path class="cls-2" d="M32,14.17a.55.55,0,0,1,.11.1h0A.22.22,0,0,0,32,14.17Z"/><path class="cls-2" d="M30.67,13.44Z"/><path class="cls-2" d="M30.58,13.41h0Z"/><path class="cls-2" d="M30.73,13.46l-.06,0h0Z"/><path class="cls-2" d="M30.23,13.32h.09l-.1,0S30.23,13.3,30.23,13.32Z"/><path class="cls-2" d="M29.32,13.45v0h0C29.42,13.47,29.38,13.45,29.32,13.45Z"/><path class="cls-2" d="M30,13.42h0c.07,0,.12.05.14,0S30,13.36,30,13.42Z"/><path class="cls-2" d="M29.89,13.4l.06,0S29.88,13.38,29.89,13.4Z"/><path class="cls-2" d="M30.77,13.48s0,0,0,0S30.76,13.41,30.77,13.48Z"/><polygon class="cls-2" points="30.08 13.55 30.05 13.5 30.02 13.55 30.08 13.55"/><path class="cls-2" d="M30.42,13.63l.1,0s-.06,0-.12-.05S30.43,13.62,30.42,13.63Z"/><path class="cls-2" d="M30.4,13.6l-.08,0Z"/><path class="cls-2" d="M31.62,14.21l-.08-.08s0,0,0,.06S31.62,14.23,31.62,14.21Z"/><polygon class="cls-2" points="25.96 14.6 25.91 14.69 25.95 14.67 25.96 14.6"/><path class="cls-2" d="M26.09,14.61s0,0,.05,0h-.08Z"/><path class="cls-2" d="M34.33,7.53s0,0,0-.06S34.29,7.47,34.33,7.53Z"/><polygon class="cls-2" points="33.98 6.93 33.99 6.91 33.96 6.82 33.98 6.93"/><path class="cls-2" d="M33.66,6.38a2.41,2.41,0,0,1,.18.36l0-.07h0C33.76,6.58,33.75,6.4,33.66,6.38Z"/><path class="cls-2" d="M33.38,6.15s0,0,0,.06h0C33.37,6.07,33.41,6.16,33.38,6.15Z"/><path class="cls-2" d="M33.4,6.21s0,.06,0,0Z"/><path class="cls-2" d="M33.26,6s0,0,.05.06V5.92S33.24,5.86,33.26,6Z"/><path class="cls-2" d="M33.33,5.87v0S33.32,5.86,33.33,5.87Z"/><path class="cls-2" d="M33.33,5.87V6s0-.07,0,0S33.34,5.87,33.33,5.87Z"/><path class="cls-2" d="M33.37,6c.06.16.11.16.06,0C33.44,6.1,33.4,6.05,33.37,6Z"/><path class="cls-2" d="M33.76,6.37l0,0s.05.08.05.1Z"/><path class="cls-2" d="M33.18,5.49V5.42s0,0-.07,0S33.16,5.45,33.18,5.49Z"/><path class="cls-2" d="M33.18,5.42s0,0,0-.1Z"/><path class="cls-2" d="M33.4,5.78v0a1.21,1.21,0,0,0,0,.19Z"/><path class="cls-2" d="M33,5V5a.49.49,0,0,1,0,.11Z"/><path class="cls-2" d="M33,4.59a.48.48,0,0,0,0,.18s0,.05.07,0A.33.33,0,0,1,33,4.59Z"/><path class="cls-2" d="M33.15,5.16v0l0,0A.14.14,0,0,0,33.15,5.16Z"/><polygon class="cls-2" points="33.12 5.04 33.14 5.12 33.14 5.12 33.12 5.04"/><path class="cls-2" d="M33.29,5.55c0-.09.05,0,.07-.08S33.29,5.49,33.29,5.55Z"/><path class="cls-2" d="M33.2,5.32s0,0,0,0l0-.1Z"/><polygon class="cls-2" points="33.2 5.17 33.21 5.2 33.21 5.15 33.2 5.17"/><path class="cls-2" d="M33.11,4.7a1.11,1.11,0,0,0,0-.17.77.77,0,0,1,0,.15C33.07,4.74,33.1,4.71,33.11,4.7Z"/><polygon class="cls-2" points="33.1 4 33.11 4 33.1 3.99 33.1 4"/><path class="cls-2" d="M33.12,4.71h0v.11A.16.16,0,0,0,33.12,4.71Z"/><path class="cls-2" d="M33.07,4.43l0-.08S33.05,4.4,33.07,4.43Z"/><path class="cls-2" d="M33.1,4.88a.15.15,0,0,0,0-.07.14.14,0,0,0,0,.06Z"/><path class="cls-2" d="M33.05,4.09a.51.51,0,0,1,0,.14v0a1.48,1.48,0,0,0,0-.21A.15.15,0,0,0,33.05,4.09Z"/><path class="cls-2" d="M33.07,4.43a.36.36,0,0,0,0,.1.45.45,0,0,1,0-.11c0,.14.06-.11,0,.09,0-.08.05,0,.05-.16s-.06,0-.11.07h0s0,0,0,0h0s0-.06,0,0a.59.59,0,0,0,0-.19,1.5,1.5,0,0,0,0,.2Z"/><path class="cls-2" d="M33.41,5.34h0S33.42,5.33,33.41,5.34Z"/><path class="cls-2" d="M33.41,5.34s0,0,0,0a.15.15,0,0,1,0-.07.52.52,0,0,0-.12-.07.51.51,0,0,1,.11.14v0C33.4,5.45,33.41,5.38,33.41,5.34Z"/><path class="cls-2" d="M33.23,4.7v.16s0,0,0-.09h0Z"/><path class="cls-2" d="M33.11,3.9,33,4l0,0Z"/><polygon class="cls-2" points="33.1 3.71 33.07 3.76 33.11 3.76 33.1 3.71"/><path class="cls-2" d="M36.59,0s-.07,0-.13.08a.21.21,0,0,1,.12,0Z"/><path class="cls-2" d="M34,1.63a.5.5,0,0,0-.07.13S34,1.7,34,1.63Z"/><path class="cls-2" d="M41.66,3.22s0,0,0-.05S41.66,3.19,41.66,3.22Z"/><path class="cls-2" d="M34,1.63a.55.55,0,0,1,.1-.11l0,0A.19.19,0,0,0,34,1.63Z"/><path class="cls-2" d="M33.3,2.92s0,0,0,0Z"/><path class="cls-2" d="M33.27,3V3S33.26,3,33.27,3Z"/><path class="cls-2" d="M33.32,2.86l0,.06h0S33.31,2.88,33.32,2.86Z"/><path class="cls-2" d="M33.18,3.36s0,0,0-.09l0,.09S33.17,3.36,33.18,3.36Z"/><path class="cls-2" d="M33.3,4.27h0a.06.06,0,0,1,0,0C33.33,4.17,33.31,4.21,33.3,4.27Z"/><path class="cls-2" d="M33.29,3.49c0,.07-.07.13,0,.12h0C33.3,3.56,33.33,3.5,33.29,3.49Z"/><path class="cls-2" d="M33.28,3.64s0,.07,0,.06A.14.14,0,0,1,33.28,3.64Z"/><path class="cls-2" d="M33.38,2.79c.1-.16-.11,0,0,0S33.38,2.82,33.38,2.79Z"/><polygon class="cls-2" points="33.41 3.57 33.41 3.51 33.37 3.54 33.41 3.57"/><path class="cls-2" d="M33.51,3.06s0,.07,0,.13,0,0,0,0S33.5,3.1,33.51,3.06Z"/><path class="cls-2" d="M33.43,3.27s0,0,0-.08Z"/><path class="cls-2" d="M34.05,2s0-.07,0-.07L34,2.05S34,2,34.05,2Z"/><polygon class="cls-2" points="34.47 7.63 34.55 7.67 34.53 7.64 34.47 7.63"/><path class="cls-2" d="M34.41,7.45v.08l.06,0S34.43,7.47,34.41,7.45Z"/><path class="cls-2" d="M41.67,30.56s0,0,0,0S41.67,30.52,41.67,30.56Z"/><polygon class="cls-2" points="41.48 31.3 41.54 31.21 41.52 31.21 41.48 31.3"/><path class="cls-2" d="M41.46,31.49c0,.11-.13.25-.08.33a2.87,2.87,0,0,1,.13-.38l-.07,0Z"/><path class="cls-2" d="M41.42,32.18a.39.39,0,0,0,0-.06h0C41.37,32.24,41.4,32.15,41.42,32.18Z"/><path class="cls-2" d="M41.44,32.12c0,.05,0-.06,0,0Z"/><path class="cls-2" d="M41.37,32.33l-.06.07c0,.06,0,.08.06,0S41.37,32.36,41.37,32.33Z"/><path class="cls-2" d="M41.25,32.42l0,0S41.25,32.43,41.25,32.42Z"/><path class="cls-2" d="M41.28,32.38c-.05,0,0,0,0,0l.06-.08S41.25,32.38,41.28,32.38Z"/><path class="cls-2" d="M41.32,32.28c.08-.15,0-.19,0,0C41.34,32.17,41.33,32.23,41.32,32.28Z"/><path class="cls-2" d="M41.34,31.71l0,.05v.06S41.32,31.73,41.34,31.71Z"/><path class="cls-2" d="M41,32.84s0,.06,0,.06,0-.07,0-.1Z"/><path class="cls-2" d="M41,32.91l.07-.07S41,32.83,41,32.91Z"/><path class="cls-2" d="M41.14,32.43v0l.13-.15Z"/><path class="cls-2" d="M40.83,33.24l.1-.05-.06,0Z"/><path class="cls-2" d="M40.71,33.4a.35.35,0,0,1-.12.16.7.7,0,0,0,.16-.1S40.75,33.39,40.71,33.4Z"/><path class="cls-2" d="M40.88,33.14s0-.08,0-.09l0,0Z"/><polygon class="cls-2" points="40.81 33.15 40.86 33.08 40.86 33.08 40.81 33.15"/><path class="cls-2" d="M41.06,32.67c-.07,0-.06,0-.1,0S41,32.71,41.06,32.67Z"/><path class="cls-2" d="M40.92,32.88l-.05.09.09-.08S40.93,32.89,40.92,32.88Z"/><polygon class="cls-2" points="40.85 33 40.87 32.97 40.83 33 40.85 33"/><path class="cls-2" d="M40.59,33.39a1.34,1.34,0,0,0-.11.14.87.87,0,0,1,.11-.09S40.6,33.4,40.59,33.39Z"/><polygon class="cls-2" points="40.1 33.89 40.09 33.89 40.09 33.9 40.1 33.89"/><path class="cls-2" d="M40.59,33.38s0,0,0,0a.46.46,0,0,1,.07-.07A.13.13,0,0,0,40.59,33.38Z"/><path class="cls-2" d="M40.42,33.62l0,.07S40.42,33.65,40.42,33.62Z"/><path class="cls-2" d="M40.72,33.29Z"/><path class="cls-2" d="M40.72,33.27l-.06,0,.06,0Z"/><path class="cls-2" d="M40.19,33.88a.68.68,0,0,1,.08-.15l0,0h0l-.15.14S40.13,33.91,40.19,33.88Z"/><path class="cls-2" d="M40.42,33.61h0s-.05,0,0,0h0l.06-.09a.27.27,0,0,1-.08.07c.08-.12-.12,0,0-.09-.06,0-.06,0-.15.07s.08,0,.13,0a.83.83,0,0,0-.13.12l.15-.11Z"/><path class="cls-2" d="M40.83,32.72h0S40.82,32.73,40.83,32.72Z"/><path class="cls-2" d="M40.8,32.8a.4.4,0,0,0,0,.13.39.39,0,0,1,0-.18h0c0-.08,0,0-.05,0s0,0,0,0A.09.09,0,0,1,40.8,32.8Z"/><path class="cls-2" d="M40.53,33.24v0l0,.09.12-.1S40.58,33.17,40.53,33.24Z"/><path class="cls-2" d="M40,34h.11l0,0Z"/><polygon class="cls-2" points="39.89 34.1 39.95 34.09 39.91 34.06 39.89 34.1"/><path class="cls-2" d="M34.82,34.24s.06,0,.15,0a.2.2,0,0,1-.11-.06Z"/><path class="cls-2" d="M37.76,34.92l.15-.05S37.83,34.89,37.76,34.92Z"/><path class="cls-2" d="M33.49,28.4s0,0,0,0S33.47,28.42,33.49,28.4Z"/><path class="cls-2" d="M37.76,34.92h-.18A.22.22,0,0,0,37.76,34.92Z"/><path class="cls-2" d="M39.19,34.52Z"/><path class="cls-2" d="M39.28,34.47l0,0S39.28,34.48,39.28,34.47Z"/><path class="cls-2" d="M39.13,34.55l.06,0s0,0,0,0Z"/><path class="cls-2" d="M39.59,34.29a.22.22,0,0,1-.07.06l.09,0S39.6,34.31,39.59,34.29Z"/><path class="cls-2" d="M40.14,33.56h0s0,0,0,0S40.1,33.6,40.14,33.56Z"/><path class="cls-2" d="M39.6,34.13c.07,0,.14-.05.09-.09h0C39.64,34.07,39.59,34.09,39.6,34.13Z"/><path class="cls-2" d="M39.77,34l-.05,0S39.79,34,39.77,34Z"/><path class="cls-2" d="M39,34.55c-.18.05.1.06.05,0S39.06,34.53,39,34.55Z"/><polygon class="cls-2" points="39.58 34.04 39.57 33.98 39.53 34.02 39.58 34.04"/><path class="cls-2" d="M39.26,34.22h0l-.08.06S39.21,34.25,39.26,34.22Z"/><path class="cls-2" d="M38,34.62c-.05,0-.08,0-.06,0h.11S38.06,34.63,38,34.62Z"/><polygon class="cls-2" points="41.67 30.28 41.66 30.31 41.69 30.37 41.67 30.28"/><path class="cls-2" d="M41.6,30.53l.06-.05-.06,0A.08.08,0,0,1,41.6,30.53Z"/><path class="cls-2" d="M23.21,30.92s0,0,0,0S23.2,30.88,23.21,30.92Z"/><polygon class="cls-2" points="23.01 31.66 23.07 31.57 23.05 31.58 23.01 31.66"/><path class="cls-2" d="M23,31.85c0,.12-.13.25-.08.33,0-.1.1-.25.13-.38l-.07,0Z"/><path class="cls-2" d="M23,32.55a.41.41,0,0,0,0-.07h0C22.9,32.61,22.93,32.51,23,32.55Z"/><path class="cls-2" d="M23,32.48c0,.05,0-.06,0,0Z"/><path class="cls-2" d="M22.9,32.69l-.06.07c0,.06,0,.09.06,0S22.9,32.72,22.9,32.69Z"/><path class="cls-2" d="M22.78,32.78l0,0S22.78,32.79,22.78,32.78Z"/><path class="cls-2" d="M22.81,32.74s0,0,0,0l.06-.08S22.78,32.74,22.81,32.74Z"/><path class="cls-2" d="M22.85,32.64c.08-.14,0-.18,0,0C22.88,32.53,22.86,32.6,22.85,32.64Z"/><path class="cls-2" d="M22.87,32.07l0,0v.06S22.85,32.1,22.87,32.07Z"/><path class="cls-2" d="M22.57,33.2s0,.06,0,.06,0-.07,0-.1Z"/><path class="cls-2" d="M22.5,33.27l.07-.07S22.54,33.2,22.5,33.27Z"/><path class="cls-2" d="M22.67,32.79v0l.13-.14Z"/><path class="cls-2" d="M22.36,33.6l.1-.05-.06,0Z"/><path class="cls-2" d="M22.24,33.77a.31.31,0,0,1-.12.15.47.47,0,0,0,.16-.1S22.29,33.75,22.24,33.77Z"/><path class="cls-2" d="M22.41,33.5a.16.16,0,0,0,0-.09l0,0Z"/><polygon class="cls-2" points="22.35 33.51 22.39 33.44 22.39 33.44 22.35 33.51"/><path class="cls-2" d="M22.59,33c-.07.06-.06,0-.1,0S22.54,33.07,22.59,33Z"/><path class="cls-2" d="M22.45,33.24l-.05.09.09-.07S22.46,33.25,22.45,33.24Z"/><polygon class="cls-2" points="22.38 33.37 22.4 33.33 22.36 33.37 22.38 33.37"/><path class="cls-2" d="M22.12,33.75,22,33.9a.53.53,0,0,1,.12-.1S22.13,33.76,22.12,33.75Z"/><polygon class="cls-2" points="21.63 34.26 21.62 34.25 21.62 34.27 21.63 34.26"/><path class="cls-2" d="M22.12,33.74s0,0,0,0l.07-.07A.13.13,0,0,0,22.12,33.74Z"/><path class="cls-2" d="M22,34l0,.07S22,34,22,34Z"/><path class="cls-2" d="M22.26,33.65h0Z"/><path class="cls-2" d="M22.25,33.63l-.06,0,.06,0Z"/><path class="cls-2" d="M21.73,34.24a.37.37,0,0,1,.07-.14l0,0h0l-.15.14S21.66,34.27,21.73,34.24Z"/><path class="cls-2" d="M22,34h0s-.05.05,0,0h0s0,0,0,0h0L22,33.9l-.08.06c.08-.11-.12,0,0-.09-.06,0-.06,0-.15.07s.08,0,.13,0l-.13.13L22,34Z"/><path class="cls-2" d="M22.36,33.09h0S22.35,33.09,22.36,33.09Z"/><path class="cls-2" d="M22.34,33.16a.25.25,0,0,0,0,.13.39.39,0,0,1,0-.18h0c0-.09,0,0-.05,0s0,0,0,0S22.35,33.15,22.34,33.16Z"/><path class="cls-2" d="M22.06,33.61v0l0,.08.11-.1S22.12,33.53,22.06,33.61Z"/><path class="cls-2" d="M21.55,34.32h.12l-.05,0Z"/><polygon class="cls-2" points="21.42 34.46 21.48 34.45 21.45 34.42 21.42 34.46"/><path class="cls-2" d="M16.35,34.6s.07,0,.15,0a.21.21,0,0,1-.11-.05Z"/><path class="cls-2" d="M19.29,35.28l.15,0S19.36,35.25,19.29,35.28Z"/><path class="cls-2" d="M15,28.76a.06.06,0,0,0,0,0S15,28.78,15,28.76Z"/><path class="cls-2" d="M19.29,35.28h-.14l0,0A.22.22,0,0,0,19.29,35.28Z"/><path class="cls-2" d="M23.1,30.23a.28.28,0,0,1,0,.08A.17.17,0,0,0,23.1,30.23Z"/><path class="cls-2" d="M20.72,34.89Z"/><path class="cls-2" d="M20.81,34.84l0,0Z"/><path class="cls-2" d="M20.66,34.91l.06,0v0Z"/><path class="cls-2" d="M21.12,34.66a.11.11,0,0,1-.07.06l.1,0S21.13,34.67,21.12,34.66Z"/><path class="cls-2" d="M21.13,34.49c.07,0,.14-.05.1-.08h0C21.18,34.43,21.12,34.45,21.13,34.49Z"/><path class="cls-2" d="M21.3,34.36l-.05,0S21.32,34.37,21.3,34.36Z"/><path class="cls-2" d="M20.57,34.92c-.18,0,.1,0,.05,0S20.59,34.89,20.57,34.92Z"/><polygon class="cls-2" points="21.11 34.4 21.1 34.35 21.06 34.39 21.11 34.4"/><path class="cls-2" d="M20.68,34.64l.12-.06h0Z"/><path class="cls-2" d="M20.8,34.58l.08,0A.13.13,0,0,0,20.8,34.58Z"/><path class="cls-2" d="M19.56,35s-.07,0-.06,0h.12S19.59,35,19.56,35Z"/><polygon class="cls-2" points="23.2 30.64 23.19 30.67 23.23 30.73 23.2 30.64"/><path class="cls-2" d="M23.14,30.89l.06-.05-.07,0S23.14,30.87,23.14,30.89Z"/><path class="cls-2" d="M33.43,18a1.83,1.83,0,0,0,.12-.31c0,.08-.07,0-.11,0l.09-.14-.07,0a.37.37,0,0,0,0-.18s0,0,0,0,.06-.27.09-.32,0-.16-.09-.19,0-.05,0-.08.08,0,0,0h0a.7.7,0,0,0,0-.16l0,.05,0-.06s0,0,0,0v0a.21.21,0,0,1,0-.12.8.8,0,0,1-.09-.31.46.46,0,0,0-.13-.31s0,.07,0,.09c-.06-.17-.21-.3-.23-.42h0a1.28,1.28,0,0,0-.15-.31l0,0a2.43,2.43,0,0,1-.19-.27c-.07-.09-.14-.17-.22-.17s-.15-.16-.21-.23l0,0a1,1,0,0,1-.18-.19c-.24-.09-.36-.28-.54-.39h0l-.17-.13c0,.06,0,0-.08-.06a.44.44,0,0,0-.23-.1l-.13,0c.13.08,0,0-.06.08l-.06-.06s0,0,0,0-.19-.1-.23-.16h.06v0c-.11,0-.07,0-.06,0s-.19,0-.29,0c.14-.06-.27-.06-.18-.13-.1.06-.06,0-.13,0a.84.84,0,0,1,.33.15l-.11,0c.05.1.22,0,.27.07a.16.16,0,0,0-.13,0l0,0a.49.49,0,0,1,.31.16c-.09,0,.1.07,0,.09l-.06,0s0,0,0,0l-.34-.11h0l-.07,0h0l-.37-.07c0-.06-.16-.11-.11-.14s0,0-.17,0,.1-.06.14-.07-.09-.05-.09-.07-.17.2-.07.23a.2.2,0,0,1,.17,0,4.15,4.15,0,0,0-3.42,1.18l-.17.18c0-.07,0-.15-.07-.13l.06-.05c-.06,0-.16.18-.25.17l-.09.24s-.07,0-.06-.05-.07.09-.05,0c-.11.29-.26.55-.39.82a2.42,2.42,0,0,0-.25.86s0,0-.05,0-.05.1-.07.16A1.11,1.11,0,0,1,25,17c0,.07-.06,0-.07,0-.06.31,0,.6,0,.85,0,.07.08,0,.09.07-.05-.06-.05,0-.05.09s0,.17,0,.13.08.36.21.29c0,.12,0,.11-.06.08a1.27,1.27,0,0,1,.07.37s.07.19.13.34.15.31.23.34c-.1,0,0,0,0,.11l-.08,0a1.4,1.4,0,0,0,.1.16s0,.05,0,0,0,0,.08,0a.4.4,0,0,1,.07.2h0l0,.08s-.09-.22.06-.07c0,0,0,.16.06.18s0-.1,0-.08l.09.11h-.09a5,5,0,0,0,1,.86c0-.06.27.16.29.06h0c-.09-.07.07-.05.13,0s.11.17-.1.07l0,0a4,4,0,0,0,.52,0c1.29,0,3.59-.31,4.44-2.38l.1,0a5.34,5.34,0,0,1-1.59,2.66l.14-.07c.07,0,0,0,0,.06s.4-.09.44-.14,0-.08,0-.12,0,.14.2,0h-.06c.07-.06.09-.29.18-.3l0,.06c.14-.05.2-.31.28-.24l0,0c.15-.21.1,0,.25-.26h0c.09-.06.09-.15.18-.13l0,0a1.9,1.9,0,0,0,.19-.21s.07-.05.07-.08.23-.24.26-.29-.07,0-.07,0,.11-.06.12-.15.17.06.26-.1c0,0,0,.06-.06,0s0-.05.05-.06-.05,0-.06,0,.1-.18.2-.34c0,.05,0,0-.06,0s0-.26.11-.15c0-.18.09-.38.14-.57a.93.93,0,0,0,0-.42s0-.13,0-.19Zm-7.95,1.83s0-.05,0,0Zm4.24-6.35h0Zm1.4.17h0S31.19,13.69,31.12,13.68Zm.1.32.09,0a.4.4,0,0,1-.15-.1l.11,0c-.08-.05-.16,0-.27-.1s0-.12.09-.13a.29.29,0,0,1,.2.13.47.47,0,0,0,.2.2s0-.09.1,0a.46.46,0,0,1,.16.27A3.74,3.74,0,0,0,31.22,14Zm1,.79h.06a.2.2,0,0,1,0,.11ZM32.64,20v-.08l0,0,0,0h0l0-.06s0,0,0,0l0,0s.07,0,.06,0Zm.12-4.5-.08-.13.06-.06-.07,0a.76.76,0,0,0-.08-.11s0,0,0,0a1.35,1.35,0,0,1,.25.17A.27.27,0,0,1,32.76,15.5Zm.39.89a1.87,1.87,0,0,0-.07-.22l.08-.22c0,.05,0,.1,0,.14l0,0A.55.55,0,0,1,33.15,16.39Zm.18,1.4s0-.07,0-.1h.09A.47.47,0,0,1,33.33,17.79Z"/><path class="cls-2" d="M41.78,4.62s0,0,0,0a.38.38,0,0,0,.07-.29h0V4.07c-.08,0-.06-.11-.06-.23s0-.26-.09-.28,0-.25,0-.34h0c.06-.13-.11-.27-.14-.38s0-.06.06,0-.09-.41-.14-.44-.07,0-.12,0,.14,0,0-.2c0,0,0,.07,0,.06S41,2.1,41,2l.05,0c0-.15-.29-.2-.23-.28l.05,0c-.21-.15-.05-.1-.26-.25h0c-.06-.09-.15-.09-.13-.18l0,0a2,2,0,0,0-.21-.2s-.05-.06-.08-.06S40,.86,39.9.83s0,.06,0,.07-.06-.11-.15-.13a.25.25,0,0,0,0-.12,6.44,6.44,0,0,0-.75,0C37.71.61,35.41.92,34.56,3l-.1,0A5.61,5.61,0,0,1,35.86.45l0,0h.09l.2-.17L36,.27a.52.52,0,0,0-.31.14s.07,0,.09,0c-.17.06-.3.21-.41.23l0,0A1.12,1.12,0,0,0,35,.72l0,0c-.06.06-.17.11-.26.18s-.18.15-.18.23-.16.15-.23.2v.05a.76.76,0,0,1-.18.18c-.09.23-.28.36-.39.54h0l-.13.16c.06,0,0,0-.06.09a.44.44,0,0,0-.1.23.5.5,0,0,0-.05.13c.08-.13.05,0,.09.06s0,0-.07.06,0,0,0,0-.1.2-.16.24,0,0,0-.06h0l0,0c0,.11,0,.06,0,.05s0,.19,0,.3c-.06-.14-.06.27-.13.18.06.1,0,.06,0,.13a.84.84,0,0,1,.15-.33l0,.11c.1-.05,0-.22.07-.27a.16.16,0,0,0,0,.13l-.05,0A.57.57,0,0,1,33.48,3c0,.09.08-.09.1,0l0,.06s0,0,0,0-.07.23-.11.34a0,0,0,0,1,0,0l0,.07h0c0,.12-.05.24-.07.37s-.11.16-.15.11.06,0,0,.17-.06-.11-.07-.15,0,.1-.07.1.2.16.23.07a.24.24,0,0,1,0-.17,4.15,4.15,0,0,0,1.18,3.42l.18.16c-.07,0-.15,0-.13.08l-.05-.07c0,.07.18.17.17.25l.24.1s0,.07-.05,0,.1.08,0,.06c.29.11.55.25.82.38a2.44,2.44,0,0,0,.86.26s0,0,0,0,.1,0,.16.07l.17-.06c.06,0,0,0,0,.07a7.83,7.83,0,0,0,.83,0c.08,0,0-.07.08-.09-.06.06,0,.06.1.06s.16,0,.12,0c.09-.11.36-.09.29-.21.12,0,.11,0,.08.05a1.77,1.77,0,0,1,.37-.06l.34-.13a.76.76,0,0,0,.34-.23c0,.1,0,0,.11,0l0,.09.16-.1s0,0,0,0,0,0,0-.08A.3.3,0,0,1,40,8V8l.07,0c.06,0-.21.08-.06-.06s.16,0,.17-.07-.09,0-.07,0l.11-.09V7.8a4.94,4.94,0,0,0,.86-1c-.06,0,.17-.28.06-.29v0c-.07.09,0-.07,0-.14,0,.1.16-.1.07.11l.12-.14c.11,0,.16-.11.2-.25a2.11,2.11,0,0,1,.12-.43s0,0,0,0c.14-.21.09-.53.12-.58l0,0A.59.59,0,0,0,41.78,4.62ZM35.26.72a.27.27,0,0,1,.1.11L35.23.9,35.17.85l0,.07A.5.5,0,0,0,35.1,1s0,0,0,0A1.08,1.08,0,0,1,35.26.72Zm-.51.55-.1.09s0,0,0-.05A.42.42,0,0,1,34.75,1.27Zm-1.22,1.2h0C33.54,2.42,33.55,2.39,33.53,2.47Zm-.16,1.39h0v0Zm.49-1.49a.92.92,0,0,0,0-.09.3.3,0,0,1-.1.14l0-.1c0,.07,0,.16-.1.26s-.12,0-.13-.09a.25.25,0,0,1,.14-.19.52.52,0,0,0,.19-.2s-.09,0,0-.11a.61.61,0,0,1,.29-.16A3.17,3.17,0,0,0,33.86,2.37Zm5.86,5.74s0,0,0,0ZM39.78,1l0,0,0,0v0l-.07,0s0,0,.05,0,0,0,0,0,0-.07,0-.07l.12.13Z"/><path class="cls-2" d="M60.46,31.45c0-.3,0-.6,0-.84,0-.08-.07,0-.09-.08.06.07.06,0,.06-.09s0-.17,0-.13-.08-.36-.21-.29c0-.11,0-.11.06-.08a1.21,1.21,0,0,1-.07-.36s-.07-.19-.13-.35a.63.63,0,0,0-.23-.33c.1,0,0,0,0-.11l.09,0-.1-.16,0,0s0,0-.09,0a.52.52,0,0,1-.06-.21l0,0,0-.08c0-.05.09.22-.06.07,0,0,0-.16-.06-.18s0,.1,0,.08l-.09-.12h.09a4.94,4.94,0,0,0-1-.86c0,.05-.28-.17-.29-.06h0c.09.06-.07.05-.14,0,.1,0-.1-.17.11-.07,0,0,0,0,0-.05l-.52,0c-1.3,0-3.59.31-4.44,2.39l-.1,0a5.31,5.31,0,0,1,1.59-2.67l-.14.08c-.07,0,0,0,0-.07-.11.11-.41.1-.44.15s0,.07,0,.12,0-.14-.2,0c0,0,.07,0,.06,0s-.09.28-.18.29l0-.05c-.15.05-.2.3-.28.23l0,0c-.15.2-.1.05-.25.26h0c-.09.07-.09.15-.18.14l0,0a2.09,2.09,0,0,0-.2.22.13.13,0,0,0-.06.08c-.06,0-.23.23-.26.29s.06,0,.07,0a.17.17,0,0,0-.13.16c-.07,0-.16-.07-.25.09,0,0,.05-.05.05,0s0,.06,0,.07,0,0,.06,0-.1.18-.2.33c0,0,0,0,0,0s0,.25-.1.15c0,.17-.09.38-.14.57a1,1,0,0,0,0,.42s0,.13,0,.19h0c-.09.16,0,.13-.12.32,0-.08.07,0,.11,0L51.8,31l.07,0a.28.28,0,0,0,0,.18s0,0,0,0-.06.28-.09.32,0,.17.09.2a.19.19,0,0,0,0,.08s-.08,0,0,0v0h0a.61.61,0,0,0,0,.15l0-.05s0,0,0,.06v0h0a.19.19,0,0,1,0,.12.58.58,0,0,1,.08.3.64.64,0,0,0,.11.27s0,0,0,0c.06.17.21.29.23.41l0,0a1.79,1.79,0,0,0,.15.31l0,0a2.43,2.43,0,0,1,.19.27c.06.1.14.18.22.18s.15.15.21.22h0a1,1,0,0,1,.18.18c.24.09.36.28.54.39h0l.16.13c0-.05,0,0,.09.07a.37.37,0,0,0,.24.09l.12.06c-.13-.09,0-.05.06-.09l.06.06s0,0,0,0,.2.09.24.16h-.06s0,0,0,0,.06,0,.06,0,.19,0,.29,0c-.14.07.27.06.18.13.1-.05.06,0,.13,0a.72.72,0,0,1-.33-.15l.11,0c0-.09-.22,0-.27-.07s.12,0,.13,0L55,35a.74.74,0,0,1-.32-.16c.1,0-.09-.07,0-.09l.06,0s0,0,0,0l.34.1h.06l.36.08c0,.06.16.1.11.14s0-.05.17,0-.11.06-.14.08.09.05.09.07.16-.2.07-.24a.17.17,0,0,1-.17,0,4.09,4.09,0,0,0,3.42-1.18c.06,0,.11-.12.16-.17s0,.14.08.13l-.06,0c.06,0,.16-.18.24-.18a1.73,1.73,0,0,0,.1-.24s.07,0,.05.05.08-.09.06,0c.11-.29.26-.55.39-.82a2.59,2.59,0,0,0,.25-.85s0,0,0,0,.06-.09.08-.15l-.07-.17C60.41,31.4,60.44,31.45,60.46,31.45ZM52,30.82a.14.14,0,0,0-.09,0l.1-.11S52,30.78,52,30.82Zm.18,1.74a.77.77,0,0,0,0-.15l0,0a.44.44,0,0,1,.07-.27,1.72,1.72,0,0,0,.07.21Zm.52-4.06v.09l0,0,0,0h0l0,.07a.05.05,0,0,1,0,0l0,0s-.07,0-.06,0Zm0,4.78a1.48,1.48,0,0,1-.25-.18s.06-.06.11-.1l.08.13-.06.06.07,0,.08.12Zm.34.45a.2.2,0,0,1,0-.11l.09.09S53.06,33.71,53.05,33.73Zm1.16,1.1Zm0-.06c-.13,0-.17-.07-.2-.13a.46.46,0,0,0-.2-.19s0,.09-.1,0a.51.51,0,0,1-.16-.28,6.18,6.18,0,0,0,.53.36l-.09,0a.31.31,0,0,1,.15.1l-.11,0c.07,0,.16,0,.27.1S54.35,34.77,54.24,34.77Zm1.34.23h0Zm4.24-6.37,0,0S59.85,28.69,59.82,28.63Z"/><path class="cls-2" d="M50.12,18.08c.05,0,0-.22,0-.31l0,0a.74.74,0,0,1,0-.26,3.2,3.2,0,0,1-.1-.66h0a1.49,1.49,0,0,0,0-.21c0,.06,0-.05,0-.1a.42.42,0,0,0-.1-.24l0-.13c0,.15-.06,0-.11,0v-.1s0,.07,0,0-.07-.21-.05-.28l.05,0h0v0c-.06-.09,0-.06,0-.07s-.11-.16-.23-.2c.14.06-.14-.23,0-.21-.11,0,0-.05-.12-.06a.61.61,0,0,1,.12.33l-.09-.06c0,.1.14.17.14.24a.14.14,0,0,0-.08-.11h.07a.65.65,0,0,1,.11.33c-.06-.07,0,.12-.06.08l0-.07s0,0,0,0a3.24,3.24,0,0,0-.17-.32l0,0,0-.06h0l-.2-.31s0-.19,0-.17-.06,0-.13-.12.12,0,.15,0,0-.1,0-.11-.25,0-.21.11L48.78,15s0,0,0-.05l0,0,0,0a4.07,4.07,0,0,0-1.38-1h-.17c-1.29,0-3.59.31-4.44,2.39l-.1,0a5.44,5.44,0,0,1,1.53-2.62h0a2.21,2.21,0,0,0-.79.41s0,0,0,0-.11,0-.16.06,0,.11-.08.17,0,0-.06-.05c-.25.17-.41.43-.61.58,0,.08.07,0,0,.12,0-.09-.05,0-.11,0s-.11.12-.11.07c0,.14-.2.31-.06.35-.06.1-.1.05-.09,0a1.11,1.11,0,0,1-.22.29s-.09.19-.16.34a.74.74,0,0,0-.08.4c0-.1,0,0-.09.07l0-.09c0,.06,0,.12,0,.18a.28.28,0,0,0,0,.05s0,0,0,.08a.26.26,0,0,1-.1.19v0l0,.08c0,.06.1-.21.1,0,0,0-.12.11-.09.17,0-.11.06-.09.07,0s0,.09,0,.14l-.07-.06a5.48,5.48,0,0,0,.09,1.33c.06,0,.07.31.16.24h0c0-.11.08,0,.09.1-.06-.08-.05.19-.12,0a1.09,1.09,0,0,0,0,.18c-.08.08,0,.2,0,.32a1.66,1.66,0,0,1,.2.4s0,0,0,0c.06.25.32.44.32.5h.06a.54.54,0,0,0,.25.4s0,0,0,0a.37.37,0,0,0,.14.25h0l.19.18c.05-.06.11,0,.2.13s.17.19.25.14.17.18.24.25,0,0,0,0,.26.12.36.18,0,.05,0,.07c.16,0,.34.22.41.21s.06-.05.09-.07-.06.13.16.13c0,0-.07,0,0,0s.26-.13.33-.08l-.06,0c.14.07.36-.07.36,0l0,.05c.26,0,.11,0,.36,0h0c.11,0,.17,0,.22,0H46s.08,0,.1,0,.33,0,.38,0-.06,0,0-.06a.15.15,0,0,0,.2,0c0,.08.06.16.25.12,0,0-.08,0-.07,0s.06,0,.08,0,0,0,0-.05.21-.05.39-.09c-.07,0,0,0,0-.07s.2-.16.18,0c.15-.1.34-.2.51-.3a1,1,0,0,0,.33-.27c0-.05.11-.06.16-.1l0,0a2,2,0,0,0,.31-.14c-.09,0-.08,0,0-.1l.16,0,0-.07a.24.24,0,0,0,.13-.13s0,0,0,0,.24-.15.29-.16.12-.11.08-.2l.07,0s0,.08.05,0h0l0-.05.09-.11a.35.35,0,0,0,0,.06.64.64,0,0,1,0-.07v0h0a.15.15,0,0,1,.06-.1.66.66,0,0,1,.16-.28.56.56,0,0,0,.13-.32s0,.08,0,.09c.08-.17.06-.36.13-.46l0,0a1.21,1.21,0,0,0,.12-.33h0c0-.07.05-.2.07-.31A.35.35,0,0,0,50.12,18.08Zm-8.61-1.39v0S41.54,16.63,41.51,16.69Zm5.05,5.2h-.17l.06-.06h.08l0,0,.08,0s0,0,0,.05h0S46.58,21.88,46.56,21.89Zm1.9-1a.46.46,0,0,1,.07-.07.45.45,0,0,0,.07.07Zm.43-5.74a.21.21,0,0,1,.11.14Zm.13.16h0v0Zm.85,1.12Zm-.31,3.16,0,.05a.53.53,0,0,1-.24.14,1.24,1.24,0,0,0,.1-.2l.22-.1Zm.14-.71c0-.05,0-.09,0-.14h.08l-.08,0a.8.8,0,0,0,0-.15l0,0a.86.86,0,0,1,0,.3A.24.24,0,0,1,49.7,18.84Zm.13-.75s0-.08,0-.13a.09.09,0,0,0,0,0A.53.53,0,0,1,49.83,18.09Zm0-.77a4.23,4.23,0,0,0-.11-.62s0,.06,0,.07a.25.25,0,0,1,0-.17.47.47,0,0,0,.05.1c0-.09-.09-.14-.11-.26s.06-.1.15,0a.28.28,0,0,1,0,.24.5.5,0,0,0,0,.28s.06-.08.06.08A.5.5,0,0,1,49.82,17.32Z"/><path class="cls-2" d="M39.54,34.13c-.1,0-.17.13-.24.14a.14.14,0,0,0,.11-.08v.07a.68.68,0,0,1-.34.11c.05,0,0,0-.06,0a3.34,3.34,0,0,1-.54.44.18.18,0,0,0,.1,0,.48.48,0,0,0,.24-.09l.12-.05c-.15,0,0-.06,0-.11a.27.27,0,0,0,.09,0s-.06,0,0,0,.21-.07.28-.06,0,0,0,.06h0c.09,0,.06,0,.07,0s.15-.11.19-.23c-.06.15.23-.15.21,0,0-.11,0,0,.06-.12a.61.61,0,0,1-.33.12Zm-.83.54Z"/><path class="cls-2" d="M41.51,29.87s.05,0,.07,0,0-.12,0,0c-.13-.29-.21-.57-.31-.86a2.29,2.29,0,0,0-.43-.78s0,0,0,0,0-.1-.06-.16l-.17-.07c0-.07,0,0,0-.06-.17-.26-.44-.4-.59-.6-.08,0,0,.06-.12,0,.09,0,0-.05,0-.11s-.13-.11-.07-.11c-.14,0-.31-.2-.35-.06-.11-.05-.06-.1,0-.09a1,1,0,0,1-.3-.22,2.45,2.45,0,0,1-.34-.14.68.68,0,0,0-.4-.08c.1,0,0,0-.07-.09l.09,0-.18-.05h0s0,0-.08,0a.26.26,0,0,1-.19-.1h0l-.09,0c-.06,0,.22.1,0,.09,0,0-.1-.11-.17-.08.11,0,.09.05.05.07l-.15,0,.06-.07a5,5,0,0,0-1.32.11c0,.06-.31.07-.25.16h0c.1,0,0,.08-.1.1.08-.06-.19-.05,0-.13H36c-.07-.08-.19,0-.31,0a2.48,2.48,0,0,1-.39.21h0c-.25,0-.44.32-.5.32v.06a.57.57,0,0,0-.39.25s0,0,0,0a.4.4,0,0,0-.25.15h0a1.7,1.7,0,0,0-.19.19c.06.05,0,.12-.12.2s-.19.18-.14.26-.18.17-.24.24,0,0,0,0-.11.27-.16.36-.06,0-.08,0c0,.16-.21.35-.2.42s0,0,.07.09-.13-.07-.13.16c0,0,0-.06,0-.05s.13.27.08.33v0c-.07.13.07.35,0,.36l0,0c0,.26,0,.11,0,.36h0c0,.11.05.17,0,.22v0a2.81,2.81,0,0,0,0,.29s0,.09,0,.11,0,.32,0,.38c0-.11,0-.06.06,0a.15.15,0,0,0,0,.2c-.08,0-.16.07-.12.24,0,0,0-.07,0-.06a.12.12,0,0,1,0,.08s0-.05.05,0,0,.21.09.38c0-.06,0,0,.07,0s.16.19,0,.18c.1.14.2.34.3.5a.84.84,0,0,0,.28.32s.06.12.09.16l0,0a2.08,2.08,0,0,0,.14.32c0-.1,0-.09.1-.06s0,.11,0,.16l.06,0c0,.06.08.09.13.13s0,0,0,0,.16.24.17.29.11.12.2.08l0,.07s-.08,0,0,.05h0l0,0,.11.09.38,0a.37.37,0,0,1,0-.11l.2.1v0h.19c1.3,0,3.6-.31,4.44-2.38l.1,0a5.63,5.63,0,0,1-1.17,2.28l.26-.14h0l.06,0h0l.3-.21c.05,0,.19,0,.18,0s0-.07.11-.14,0,.12-.05.16.11,0,.12,0,0-.25-.12-.21a.16.16,0,0,1-.13.1,4.13,4.13,0,0,0,1.59-3.25,1.94,1.94,0,0,0,0-.24c.06.05.11.1.15,0v.08c.07,0,0-.25.05-.3ZM33.2,31.45a.06.06,0,0,0,0,0s0,.06-.05,0v-.18l.05.06a.08.08,0,0,1,0,0v0l0,0a.24.24,0,0,0,0,.08S33.22,31.47,33.2,31.45Zm1,2v-.14l.07.07Zm4.06-7.15h0S38.35,26.35,38.29,26.32Zm1.5,7.5h0Z"/><polygon class="cls-2" points="39.07 34.28 39.07 34.29 39.08 34.29 39.07 34.28"/><path class="cls-2" d="M23,30.24s.06,0,.07,0,0-.11,0,0a8.82,8.82,0,0,1-.31-.86,2.29,2.29,0,0,0-.43-.78s0,0,0,0,0-.11-.06-.17l-.16-.07c0-.07,0,0,0-.06-.17-.25-.44-.4-.59-.6-.08,0,0,.07-.11,0,.08,0,0-.05,0-.1s-.12-.12-.07-.12c-.14,0-.31-.19-.35-.05-.11-.06-.05-.1,0-.1l-.21-.14-.54,0c-1.29,0-3.59.31-4.44,2.39l-.1,0a5.28,5.28,0,0,1,1.63-2.71.35.35,0,0,0-.26.07,2.48,2.48,0,0,1-.39.21h0c-.24.06-.43.32-.5.33l0,.05a.58.58,0,0,0-.4.26s0,0,0,0a.43.43,0,0,0-.25.16h0l-.18.19c.05.05,0,.12-.13.2s-.18.19-.13.27-.18.16-.24.23v0c-.12.05-.11.27-.16.37s-.06,0-.07,0c0,.15-.22.35-.21.41s.05.06.07.09-.13-.06-.12.16c0,0,0-.06,0,0s.14.26.09.33l0-.06c-.07.14.07.35,0,.36l0,0c0,.26,0,.11,0,.36h0c0,.11,0,.17,0,.23v0a1.46,1.46,0,0,0,0,.29.12.12,0,0,0,0,.1c-.07,0,0,.33,0,.39,0-.11,0-.07.06,0a.15.15,0,0,0,0,.2c-.08,0-.16.07-.12.25,0,0,0-.08,0-.07s0,.06,0,.08,0,0,.05,0,0,.21.09.38c0-.06,0,0,.07,0s.16.19,0,.18c.1.14.2.33.3.5s.21.3.28.32.06.12.1.17l0,0a2.56,2.56,0,0,0,.14.31c0-.09,0-.08.11,0l0,.15.06,0a.37.37,0,0,0,.13.12s0,0,0,0,.15.23.16.29.12.11.2.07a.25.25,0,0,0,0,.07s-.07,0,0,.06h0l.05,0a.74.74,0,0,0,.12.09H16.5l.07,0h0a.18.18,0,0,1,.1.06.62.62,0,0,1,.28.16.5.5,0,0,0,.32.12.11.11,0,0,1-.09,0c.17.07.36.06.46.13l0,0a1.6,1.6,0,0,0,.33.11v.05l.31.06a.35.35,0,0,0,.29,0s.22,0,.3,0l0,0h.27a3.11,3.11,0,0,1,.65-.1h0l.21,0c-.06,0,0,0,.1,0a.43.43,0,0,0,.24-.1l.12-.05c-.14,0,0-.06,0-.1h.09s-.06,0,0-.05.21-.07.28,0a.09.09,0,0,1,0,0h0c.09-.06.06,0,.07,0s.15-.11.19-.23c-.06.15.23-.15.21,0,0-.11,0,0,.06-.12a.72.72,0,0,1-.33.13l.06-.09c-.1,0-.17.14-.24.14a.14.14,0,0,0,.11-.08v.07a.68.68,0,0,1-.34.11c.08-.06-.11,0-.07-.06l.06,0s0,0,0,0l.33-.17h0l.05,0h0l.3-.2s.19,0,.18,0,0-.07.11-.13,0,.11,0,.15.1,0,.11,0,0-.25-.11-.21a.21.21,0,0,1-.14.11l.14-.11.11-.11s0,0,.05,0h0s0,0,0,0a4.17,4.17,0,0,0,1.33-3c0-.08,0-.16,0-.24s.1.1.14.05v.07c.06,0,0-.24,0-.29A1.73,1.73,0,0,0,23,30.24Zm-8.3,1.57s0,0,0,0,0,.06-.05,0v-.17l.06.06v.07l0,0a.19.19,0,0,0,0,.08S14.75,31.83,14.73,31.81Zm1,2v-.14l.07.08A.22.22,0,0,0,15.76,33.83Zm1.31,1h0a.41.41,0,0,1-.15-.23l.2.09a2.22,2.22,0,0,0,.11.22Zm1,.22a1.25,1.25,0,0,1-.3,0,.2.2,0,0,1,0-.15l.14,0V35L18,35l.14,0A0,0,0,0,1,18.08,35Zm.56.08L18.53,35h.14A.09.09,0,0,0,18.64,35.08ZM20,35a.54.54,0,0,0-.28,0s.08,0-.08.06a.5.5,0,0,1-.31-.09,3.14,3.14,0,0,0,.61-.12l-.07,0a.29.29,0,0,1,.18,0l-.1,0c.09,0,.13-.09.26-.11s.1.06,0,.15A.23.23,0,0,1,20,35Zm.26,0Zm1.08-.86h0Z"/></svg>