<svg id="Layer_1" data-name="Layer 1" xmlns="http://www.w3.org/2000/svg" viewBox="0 0 227 20"><defs><style>.cls-1{fill:#673065;}.cls-2{fill:#666;}</style></defs><title>yangshuo-sticky</title><path class="cls-1" d="M26.14,17.78c0-.18,0-.34,0-.48s0,0,0-.05,0,0,0-.05,0-.09,0-.07,0-.21-.11-.17,0-.06,0,0a.56.56,0,0,1,0-.21l-.07-.2c0-.08-.09-.17-.14-.19s0,0,0-.06l.05,0a.41.41,0,0,0-.05-.09l0,0s0,0,0,0a.24.24,0,0,1,0-.12h0l0,0s.05.13,0,0,0-.09,0-.1,0,.06,0,.05a.18.18,0,0,0-.05-.07h.05a2.68,2.68,0,0,0-.57-.49s-.16-.1-.17,0h0c.05,0,0,0-.07,0s-.06-.09.05,0l0,0h-.3A2.58,2.58,0,0,0,22,16.67l-.05,0a3,3,0,0,1,.91-1.53s-.06.05-.09.05,0,0,0,0-.22,0-.25.08,0,0,0,.07,0-.08-.11,0,0,0,0,0-.05.15-.1.16l0,0c-.08,0-.11.17-.16.13v0c-.09.12-.06,0-.14.15h0c-.05,0-.05.09-.1.08v0a.63.63,0,0,0-.11.12.08.08,0,0,0,0,0s-.13.14-.14.17,0,0,0,0-.06,0-.07.09-.09,0-.14.05,0,0,0,0,0,0,0,0,0,0,0,0-.06.11-.12.2,0,0,0,0,0,.14-.06.08c0,.1-.06.22-.08.32a.65.65,0,0,0,0,.25s0,.07,0,.1h0a1.71,1.71,0,0,0-.07.18s.05,0,.07,0a.35.35,0,0,0-.05.08h0a.16.16,0,0,0,0,.1h0c-.06,0,0,.15-.06.18s0,.09.06.11a.07.07,0,0,0,0,.05s-.05,0,0,0h0a.22.22,0,0,0,0,.09l0,0,0,0h0a.14.14,0,0,1,0,.07.48.48,0,0,1,.05.17.25.25,0,0,0,.08.18s0,0,0,0,.12.17.13.24h0a1.31,1.31,0,0,0,.09.17l0,0,.1.16c0,.05.09.1.13.1s.09.08.12.12h0a.93.93,0,0,1,.1.1l.11.08-.05,0,.08,0a0,0,0,0,0,0,0l.18.14h0l.09.07s0,0,.05,0a.22.22,0,0,0,.14,0l.07,0c-.08-.05,0,0,0-.05l0,0s0,0,0,0,.11.05.13.09h0c.06,0,0,0,0,0s.11,0,.17,0,.15,0,.1.08,0,0,.07,0a.41.41,0,0,1-.19-.08l.06,0s-.12,0-.15,0,.07,0,.08,0l0,0a.44.44,0,0,1-.18-.09c.05,0-.05,0,0-.05h0s0,0,0,0l.24.08h0l.2,0s.09.07.06.09,0,0,.1,0-.06,0-.09,0,.06,0,.06,0,.09-.11,0-.13a.08.08,0,0,1-.1,0,2.33,2.33,0,0,0,2-.66l.09-.11c0,.05,0,.09,0,.08l0,0s.09-.1.14-.1l.06-.14s0,0,0,0,0-.05,0,0a3.38,3.38,0,0,1,.22-.47,1.44,1.44,0,0,0,.14-.49s0,0,0,0,0-.06,0-.09a.42.42,0,0,1,0-.1s0,0,0,0m-4.81-.36h-.06l.06-.06v.07m.1,1a.28.28,0,0,1,0-.09h0a.37.37,0,0,1,.05-.17l0,.13a1.27,1.27,0,0,1,0,.14m.29-2.31v0h0l0,0h0l0,0a0,0,0,0,1,0,0h0l.07-.07m0,2.72a1.28,1.28,0,0,1-.15-.1.22.22,0,0,1,.07-.06.25.25,0,0,0,0,.07l0,0,0,0,0,.06s0,0,0,0m.22.25h0a.31.31,0,0,1,0-.08l.07.08h0m.63.63h0m0-.14-.06,0a.77.77,0,0,1,.15.06s0,.06,0,.07a.17.17,0,0,1-.11-.08.28.28,0,0,0-.11-.11s0,.05-.06,0a.26.26,0,0,1-.09-.16,2.73,2.73,0,0,0,.43.26h0a.47.47,0,0,0-.16-.07.17.17,0,0,1,.08.06m.82.24h0s0,0,0,0m2.4-3.63h0s0,0,0,0"/><path class="cls-1" d="M20.26,10.17s0-.13,0-.18h0a.37.37,0,0,1,0-.15.79.79,0,0,1,0-.13l0,.05s0-.05,0-.09,0,0,0,0a1.57,1.57,0,0,0,0-.24h0s0-.08,0-.12,0,0,0-.06a.28.28,0,0,0-.06-.14s0-.05,0-.07,0,0-.06,0V9s0,0,0,0,0-.12,0-.16l0,0v0c0-.05,0,0,0,0s-.07-.09-.13-.11-.08-.13,0-.12,0,0-.07,0a.37.37,0,0,1,.07.19l-.05,0s.08.09.08.13,0-.06,0-.06h0A.3.3,0,0,1,20,9s0,.07,0,0V9s0,0,0,0l-.12-.22,0,0,0,0h0a.91.91,0,0,0-.11-.16s0-.11,0-.11,0,0-.07-.06.06,0,.08,0a.1.1,0,0,1,0-.07c-.06,0-.14,0-.12.07a.11.11,0,0,1,.06.08,2.49,2.49,0,0,0-.94-.73h-.06a2.57,2.57,0,0,0-2.53,1.36l-.06,0a3.21,3.21,0,0,1,.88-1.49h0a1.28,1.28,0,0,0-.45.23s0,0,0,0-.06,0-.09,0L16.29,8s0,0,0,0-.23.24-.35.33,0,0,0,.06,0,0-.06,0-.07.07-.06,0-.12.17,0,.2-.06,0,0,0-.08.12-.13.17-.05.1-.09.19a.6.6,0,0,0-.05.23c0-.06,0,0,0,0v0l0,.1v0s0,0,0,.05,0,.07-.06.11v0s.05-.12.05,0a.12.12,0,0,0-.05.1c0-.06,0-.05,0,0s0,.06,0,.09l0,0a2.81,2.81,0,0,0,.05.76s0,.17.09.14h0c0-.06,0,0,.05.06s0,.1-.07,0v.1c0,.05,0,.11,0,.18a1.27,1.27,0,0,1,.12.23v0c0,.14.18.25.19.28h0a.36.36,0,0,0,.14.23s0,0,0,0a.23.23,0,0,0,.09.14h0l.11.11s.07,0,.11.07.1.11.15.08.1.11.13.14h0c0,.07.15.06.21.09s0,0,0,0,.2.13.24.12,0,0,.05,0,0,.08.09.08,0,0,0,0,.15-.08.18-.05h0c.08,0,.2,0,.21,0v0c.14,0,.06,0,.2,0h0c.06,0,.1,0,.13,0H18s.19,0,.22,0,0,0,0,0a.07.07,0,0,0,.11,0c0,.05,0,.1.14.07s0,0,0,0h0s0,0,0,0,.12,0,.22,0,0,0,0,0,.11-.1.1,0,.2-.11.29-.17a.54.54,0,0,0,.19-.15s.06,0,.09-.06h0c.1,0,.07,0,.18-.08-.05,0,0,0,0-.06l.09,0v0a.19.19,0,0,0,.07-.08s0,0,0,0,.13-.08.16-.09.07-.06.05-.11l0,0s0,0,0,0h0v0l.05-.06v0a.06.06,0,0,1,0,0h0a.09.09,0,0,1,0-.06.37.37,0,0,1,.09-.16.24.24,0,0,0,.07-.18s0,0,0,0,0-.21.08-.26h0a.56.56,0,0,0,.07-.19h0a.81.81,0,0,1,0-.19c0-.06,0-.13,0-.15m-4.9-.8h0s0,0,0,0m2.88,2.94h0s0,0,0,0h-.1l0,0h0l.05,0a0,0,0,0,1,0,0m1.07-.57.05,0s0,0,0,0h-.09m.32-3.17h0l0,0,0,0m.49.63s0,0,0,0h0M19.94,11v0a.26.26,0,0,1-.15.09.75.75,0,0,0,.07-.12l.13-.06-.06.06m.08-.4s0-.06,0-.08h0a.22.22,0,0,1,0-.08h0a1.41,1.41,0,0,1,0,.18H20m.07-.42s0-.06,0-.09h0l0,0,0,.06m0-.45a2.73,2.73,0,0,0-.1-.48h0a.64.64,0,0,0,.07.16s0-.07,0-.1l0,.06c0-.05,0-.08-.06-.15s0-.06.08,0a.14.14,0,0,1,0,.13.28.28,0,0,0,0,.16s0,0,0,.05a.24.24,0,0,1-.06.17"/><path class="cls-1" d="M10.76,10.14a1.71,1.71,0,0,0,.07-.18s0,0-.06,0a.35.35,0,0,1,.05-.08h0a.17.17,0,0,0,0-.1h0c.05,0,0-.16.05-.18s0-.09-.05-.11a.43.43,0,0,0,0-.05s0,0,0,0h0s0-.06,0-.08l0,0,0,0h0a.08.08,0,0,1,0-.07.34.34,0,0,1-.05-.17.3.3,0,0,0-.08-.18s0,0,0,.05-.12-.17-.14-.24h0a.68.68,0,0,0-.09-.17l0,0-.1-.16c0-.05-.08-.1-.12-.1s-.09-.08-.13-.12h0A.46.46,0,0,1,10,8l-.12-.07h.06l-.08,0,0,0a2.31,2.31,0,0,0-.19-.14h0l-.09-.07s0,0-.05,0a.19.19,0,0,0-.13,0l-.07,0c.07,0,0,0,0,0l0,0s0,0,0,0-.11,0-.13-.09h0c-.06,0,0,0,0,0s-.11,0-.17,0-.15,0-.1-.08,0,0-.08,0A.37.37,0,0,1,9,7.53H8.89c0,.06.12,0,.15,0s-.07,0-.07,0l0,0a.31.31,0,0,1,.18.09c-.05,0,.05,0,0,0h0s0,0,0,0L8.9,7.61h0l-.2,0s-.09-.06,0-.08,0,0-.1,0,.06,0,.08,0-.06,0-.06,0-.09.11,0,.13a.08.08,0,0,1,.1,0,2.34,2.34,0,0,0-2,.66l-.08.11c0-.05,0-.09,0-.08l0,0s-.1.1-.14.1a.59.59,0,0,0-.06.14s0,0,0,0,0,.05,0,0a5.12,5.12,0,0,1-.22.47A1.4,1.4,0,0,0,6,9.4s0,0,0,0,0,.06,0,.09l0,.1s0,0,0,0c0,.18,0,.34,0,.48s0,0,.05,0,0,0,0,.06,0,.09,0,.07.05.21.12.16,0,.07,0,0a.53.53,0,0,1,0,.21s0,.11.08.19a.49.49,0,0,0,.13.2c-.06,0,0,0,0,.06l0,0,.06.09v0s0,0,0,0a.15.15,0,0,1,0,.12h0l0,0s0-.12,0,0,0,.09,0,.1,0-.06,0,0l0,.07h0a2.74,2.74,0,0,0,.58.49s.15.1.16,0h0s0,0,.08,0,.06.09-.06,0l0,0h.29A2.57,2.57,0,0,0,10,10.69l.06,0a3.12,3.12,0,0,1-.92,1.53s.06-.05.09-.05,0,0,0,0,.23-.05.25-.08,0,0,0-.07,0,.08.11,0h0s.05-.17.1-.17v0c.08,0,.11-.17.16-.13v0c.08-.12.05,0,.14-.15h0s0-.08.11-.08l0,0a.63.63,0,0,0,.11-.12.08.08,0,0,0,0,0s.13-.14.15-.17,0,0,0,0,.06,0,.07-.09.09,0,.15,0l0,0s0,0,0,0,0,0,0,0,.07-.1.12-.18,0,0,0,0,0-.14.06-.08a2.25,2.25,0,0,1,.08-.33.54.54,0,0,0,0-.24s0-.07,0-.1Zm-4.52,1s0,0,0,0ZM8.65,7.57h0m.8.09h0m-.07.13h0a.47.47,0,0,0,.16.07.24.24,0,0,1-.08-.06l.06,0s-.09,0-.15-.06,0-.06,0-.07.09,0,.11.08a.26.26,0,0,0,.12.11s0,0,.06,0a.24.24,0,0,1,.08.16,2.26,2.26,0,0,0-.42-.26m.68.49h0s0,0,0,.07,0,0-.07-.08m.25,3v0h0l0,0h0l0,0s0,0,0,0h0l-.07.07m.06-2.56,0-.07,0,0,0,0-.05-.07h0s.13.1.14.1a.22.22,0,0,1-.07.06m.23.52a.5.5,0,0,0,0-.13,1.09,1.09,0,0,1,0-.14.28.28,0,0,0,0,.09h0a.35.35,0,0,1,0,.17m.1.79s0,0,0-.07h0L10.7,10"/><path class="cls-1" d="M15.49,2.5a.2.2,0,0,0,0-.16h0a.76.76,0,0,0,0-.15s0-.06,0-.13,0-.15-.05-.16a.4.4,0,0,0,0-.19h0c0-.07-.06-.15-.08-.21s0,0,0,0-.05-.23-.08-.25,0,0-.06,0,.07,0,0-.12,0,0,0,0-.16-.06-.17-.1h0c0-.08-.17-.11-.13-.16h0c-.11-.09,0-.06-.14-.14h0s-.08,0-.07-.1h0L14.65.53a.08.08,0,0,0,0,0s-.14-.13-.17-.14,0,0,0,0,0-.07-.08-.07a.22.22,0,0,0,0-.08l-.43,0A2.58,2.58,0,0,0,11.4,1.58l-.05,0A3.15,3.15,0,0,1,12.16.14l-.05,0h.07l0,0h0L12.32,0a.45.45,0,0,1-.11,0A.3.3,0,0,0,12,.11s0,0,.05,0-.17.12-.23.13v0a.6.6,0,0,0-.18.09l0,0-.15.11c-.06,0-.1.08-.1.12s-.09.09-.13.12v0a.47.47,0,0,1-.11.1.52.52,0,0,1-.07.11.43.43,0,0,0,0,0,.29.29,0,0,0,0,.08,0,0,0,0,0,0,0,1.33,1.33,0,0,0-.14.19h0a.39.39,0,0,0-.08.1s0,0,0,0a.29.29,0,0,0-.05.14l0,.07c.05-.07,0,0,.05,0s0,0,0,0,0,0,0,0,0,.12-.09.14v0h0a0,0,0,0,1,0,0c0,.06,0,0,0,0s0,.11,0,.17,0,.15-.07.1,0,0,0,.07a.31.31,0,0,1,.09-.18v.06s0-.13,0-.16,0,.07,0,.08l0,0a.44.44,0,0,1,.09-.18c0,.06.05-.05.06,0l0,0s0,0,0,0a2.17,2.17,0,0,0-.07.24v0a1.29,1.29,0,0,0,0,.19s-.07.09-.09.06,0,0,0,.1,0-.06,0-.08,0,0,0,0,.11.09.13,0a.11.11,0,0,1,0-.1,2.35,2.35,0,0,0,.66,2l.11.09s-.09,0-.08,0l0,0s.1.1.1.14l.14.06s0,0,0,0,.05,0,0,0a3.38,3.38,0,0,1,.47.22,1.44,1.44,0,0,0,.49.14s0,0,0,0,.06,0,.09,0l.1,0s0,0,0,0c.17,0,.33,0,.47,0s0,0,0,0,0,0,.05,0,.09,0,.07,0,.21,0,.17-.12.06,0,0,0a.86.86,0,0,1,.21,0l.2-.07a.51.51,0,0,0,.19-.13c0,.06,0,0,.06,0l0,.05.09-.06,0,0s0,0,0,0a.24.24,0,0,1,.12,0h0l0,0s-.13,0,0,0,.09,0,.1,0-.06,0-.05,0l.07-.06v0a2.46,2.46,0,0,0,.49-.57s.1-.16,0-.17v0c0,.05,0,0,0-.08s.09-.06,0,.06l.07-.08c.06,0,.09-.06.11-.14a1,1,0,0,1,.07-.24h0c.08-.13.05-.31.07-.33l0,0a.34.34,0,0,0,0-.26s0,0,0,0M11.81.29s0,0,0,.06l-.07,0,0,0,0,0-.06,0s0,0,0,0a.42.42,0,0,1,.11-.14M11.52.6l-.07.06h0a0,0,0,0,0,0,0l.07,0m-.7.68h0s0,0,0,0m-.09.8h0l0,0s0,0,0,0M11,1.35h0A.73.73,0,0,0,11,1.18a.1.1,0,0,1-.06.07s0,0,0-.06,0,.1-.06.16-.06,0-.07-.05a.17.17,0,0,1,.08-.12A.28.28,0,0,0,11,1.07s0,0,0-.06a.24.24,0,0,1,.16-.08,2.26,2.26,0,0,0-.26.42m3.39,3.14s0,0,0,0Zm0-4.07v0l0,0v0l0,0s0,0,0,0a0,0,0,0,1,0,0s0,0,0,0l.07.08h-.05"/><path class="cls-1" d="M15.39,16.88s0-.07,0,0a4.68,4.68,0,0,1-.18-.48,1.39,1.39,0,0,0-.24-.45s0,0,0,0,0-.05,0-.09l-.09,0s0,0,0,0-.26-.23-.34-.35,0,0-.07,0,0,0,0-.06-.07-.06,0-.06-.18-.11-.2,0,0-.06,0-.06a.74.74,0,0,1-.17-.12,1.27,1.27,0,0,1-.2-.09.39.39,0,0,0-.22,0c.06,0,0,0,0,0l.05,0-.1,0h0s0,0,0,0-.07,0-.11-.06h0s.12.05,0,.05-.06-.06-.1,0,.05,0,0,0h-.09l0,0a2.83,2.83,0,0,0-.76.07s-.17,0-.14.09h0c.06,0,0,.05-.05.05s-.11,0,0-.07h-.1s-.11,0-.18,0a1.64,1.64,0,0,1-.22.12h0c-.14,0-.24.18-.28.18v0a.35.35,0,0,0-.23.15s0,0,0,0a.23.23,0,0,0-.14.09h0l-.11.11s0,.07-.07.12-.1.1-.08.14a.6.6,0,0,0-.13.14h0c-.07,0-.06.16-.09.22s0,0,0,0-.13.2-.12.24,0,0,0,.05-.07,0-.07.09,0,0,0,0,.07.14.05.18v0c0,.08,0,.2,0,.21h0c0,.14,0,.06,0,.2h0c0,.06,0,.1,0,.13v0a1,1,0,0,0,0,.17s0,.05,0,.06,0,.19,0,.22,0,0,0,0,0,.07,0,.11a.11.11,0,0,0-.07.14s0,0,0,0,0,0,0,0,0,0,0,0,0,.12,0,.22,0,0,0,0,.1.11,0,.1.11.19.17.29a.59.59,0,0,0,.16.18s0,.07.05.09h0c0,.1,0,.06.08.17,0-.05,0,0,.06,0s0,.06,0,.09h0a.27.27,0,0,0,.08.07s0,0,0,0,.09.14.09.17.07.07.12,0a.05.05,0,0,0,0,0s0,0,0,0h0l0,0,.06.05.23,0a.43.43,0,0,0,0-.07l.12.06h.11a2.56,2.56,0,0,0,2.53-1.35h.06A3.29,3.29,0,0,1,14,19.35l.18-.09,0,0,0,0h0l.17-.11s.11,0,.1,0,0,0,.06-.08,0,.06,0,.09.06,0,.07,0,0-.15-.07-.13a.07.07,0,0,1-.08.06,2.34,2.34,0,0,0,.91-1.85c0-.05,0-.09,0-.14s.06.07.09,0v0s0-.14,0-.16,0-.1-.05-.14,0,0,0,0m-4.76.89v0l0,0v-.1l0,0v0h0s0,0,0,.05,0,0,0,0m.59,1.15s0-.05,0-.08l0,.05s0,0,0,0m2.31-4.06h0s0,0,0,0m.83,4.28,0,0h0Z"/><path class="cls-1" d="M4.89,17.08s0-.06,0,0c-.07-.16-.11-.32-.17-.49a1.34,1.34,0,0,0-.24-.44s0,0,0,0,0-.06,0-.09l-.09,0s0,0,0,0-.26-.23-.34-.34,0,0-.07,0,0,0,0-.06-.07-.07,0-.07-.18-.11-.2,0,0-.06,0,0l-.11-.08H3.31A2.57,2.57,0,0,0,.78,16.66H.73a3,3,0,0,1,.92-1.54.2.2,0,0,0-.14,0,1.27,1.27,0,0,1-.23.12h0c-.14,0-.25.18-.28.19v0a.33.33,0,0,0-.23.14s0,0,0,0a.19.19,0,0,0-.14.09h0l-.11.11s0,.06-.07.11-.1.11-.08.15a.6.6,0,0,0-.13.14h0c-.07,0-.06.16-.09.21s0,0,0,0-.13.2-.12.23,0,0,0,.06-.07,0-.07.09,0,0,0,0S.1,17,.08,17v0c0,.08,0,.2,0,.2H0c0,.15,0,.06,0,.21H0c0,.06,0,.09,0,.12v0a1,1,0,0,0,0,.17.15.15,0,0,0,0,.06s0,.18,0,.22,0,0,0,0,0,.06,0,.11a.11.11,0,0,0-.07.14s0,0,0,0,0,0,0,.05,0,0,0,0,0,.11.05.21,0,0,0,0,.1.11,0,.1.11.19.17.28a.55.55,0,0,0,.16.19s0,.06.05.09l0,0a.91.91,0,0,0,.08.18c0-.05,0-.05.06,0l0,.09,0,0a.13.13,0,0,0,.08.07s0,0,0,0,.09.14.09.17.07.06.12,0a.08.08,0,0,0,0,0s0,0,0,0h0l0,0,.07.05h0a.09.09,0,0,1,.06,0,.43.43,0,0,1,.16.09.24.24,0,0,0,.18.07s-.05,0-.05,0,.2,0,.26.07v0l.19.06v0l.18,0a.27.27,0,0,0,.16,0s.12,0,.17,0v0a.37.37,0,0,1,.15,0l.13,0,0,0,.09,0h0a1.6,1.6,0,0,0,.23,0h.12s0,0,.06,0a.39.39,0,0,0,.14-.05s.05,0,.07,0,0,0,0-.06h.06s0,0,0,0,.12,0,.16,0l0,0h0s0,0,0,0,.09-.06.11-.13c0,.09.13-.08.12,0s0,0,0-.07-.13.06-.19.08l0,0c-.06,0-.1.07-.14.08s.07,0,.06-.05v0a.3.3,0,0,1-.19.06s-.07,0-.05,0h0s0,0,0,0a1.19,1.19,0,0,0,.22-.12s0,0,0,0l0,0v0l.17-.11s.11,0,.1,0,0,0,.06-.08,0,.07,0,.09.06,0,.07,0,0-.14-.07-.12a.09.09,0,0,1-.08.06,2.35,2.35,0,0,0,.91-1.85c0-.05,0-.09,0-.14s.06.06.09,0v0s0-.14,0-.17a.69.69,0,0,0-.05-.13s0,0,0,0M.12,18v0s0,0,0,0v-.1l0,0v0h0a.06.06,0,0,0,0,0s0,0,0,0m.59,1.15s0-.06,0-.09l.05.06,0,0m.74.54h0a.24.24,0,0,1-.09-.15l.12.07a.67.67,0,0,0,.06.12.18.18,0,0,1-.07,0M2,19.8l-.18,0a.28.28,0,0,1,0-.08l.08,0v0H2s0,0,0,0m.33,0s0,0,0,0,0,0-.06,0h.08m.75,0a.28.28,0,0,0-.16,0s0,0-.05,0a.23.23,0,0,1-.17-.06,2.57,2.57,0,0,0,.48-.11h0c-.08,0-.15.05-.16.07a.15.15,0,0,1,.09,0l0,0s.07-.05.15-.06,0,0,0,.08a.14.14,0,0,1-.13,0m.15,0h0m.59-.48,0,0h0Z"/><path class="cls-2" d="M37.51,12.12c0-.1.16-.09.16,0,.08,1.44.79,2.34,2.06,2.34a1.76,1.76,0,0,0,2-1.73c0-1.23-.78-1.75-2.13-2.44a3,3,0,0,1-2-2.82,2.36,2.36,0,0,1,2.66-2.28,4.55,4.55,0,0,1,1.36.19.69.69,0,0,1,.52.84c0,.21-.11.79-.14,1.1,0,.12-.16.08-.16,0a1.76,1.76,0,0,0-1.76-1.78,1.51,1.51,0,0,0-1.68,1.6A2.41,2.41,0,0,0,40,9.26c1.84.94,2.6,1.72,2.55,3.13s-1.27,2.43-2.93,2.43A4.17,4.17,0,0,1,38,14.51a1,1,0,0,1-.6-.8,5.52,5.52,0,0,1,.13-1.59"/><path class="cls-2" d="M48.72,12.94c0,1.26.16,1.42,1,1.5a.08.08,0,1,1,0,.16c-.53,0-1.14,0-1.57,0s-1,0-1.52,0a.08.08,0,1,1,0-.16c.72-.11.91-.2.94-1.5,0-.5,0-2.16,0-2.67,0-1.15,0-2.58,0-3.08,0-1.54-.28-1.54-.94-1.63-.11,0-.14-.16,0-.16.4,0,1.09,0,1.52,0l1.35,0c.12,0,.1.14,0,.16-.64.12-.81.13-.84,1.63,0,.44,0,2,0,3.07,0,.52,0,2.18,0,2.68"/><path class="cls-2" d="M57,10.46c-.59.92-1.38,2.29-1.79,3.06-.33.6-.34.83.44.92.11,0,.14.16,0,.16-.44,0-1,0-1.32,0s-.87,0-1.39,0c-.1,0-.1-.15,0-.16a1.65,1.65,0,0,0,1.38-.86c.75-1.06,1.66-2.41,2.4-3.57C56,8.76,55.1,7.37,54.45,6.39c-.41-.62-.6-.77-1.18-.83-.11,0-.14-.16,0-.16.46,0,1,0,1.39,0s1,0,1.51,0c.13,0,.1.16,0,.16-.67.07-.67.29-.41.77.45.84,1,1.82,1.61,2.84.55-.88,1.07-1.79,1.48-2.62s.33-.9-.2-1c-.11,0-.14-.16,0-.16l1.27,0L61,5.4a.08.08,0,1,1,0,.16c-.43.06-.71.09-1.24.86C59,7.54,58.23,8.67,57.67,9.59c.74,1.18,1.89,3,2.59,4,.43.6.71.78,1.2.83a.08.08,0,1,1,0,.16c-.47,0-1,0-1.39,0s-.88,0-1.41,0a.08.08,0,1,1,0-.16c.58-.06.56-.3.3-.78-.39-.69-1.25-2-1.93-3.2"/><path class="cls-2" d="M70.85,12.12c0-.1.16-.09.16,0,.08,1.44.79,2.34,2.06,2.34a1.76,1.76,0,0,0,2-1.73c0-1.23-.78-1.75-2.13-2.44a3,3,0,0,1-2-2.82A2.36,2.36,0,0,1,73.6,5.19,4.58,4.58,0,0,1,75,5.38a.69.69,0,0,1,.52.84c0,.21-.11.79-.14,1.1,0,.12-.16.08-.16,0a1.76,1.76,0,0,0-1.76-1.78,1.51,1.51,0,0,0-1.68,1.6,2.41,2.41,0,0,0,1.63,2.12c1.84.94,2.6,1.72,2.55,3.13S74.66,14.82,73,14.82a4.17,4.17,0,0,1-1.68-.31,1,1,0,0,1-.6-.8,5.52,5.52,0,0,1,.13-1.59"/><path class="cls-2" d="M82,13.16c0,.89.21.93,1,.95h1.25c1.24,0,1.48-.82,1.66-1.75,0-.1.18-.12.18,0A12.33,12.33,0,0,1,86,14.17c-.06.32-.31.44-.87.44-.74,0-2.09-.06-3.5-.06L80,14.6a.08.08,0,0,1,0-.16c.79-.09,1-.23,1-1.5,0-1,0-2.08,0-3.13s0-1.7,0-2.64c0-1.22,0-1.49-1-1.61-.1,0-.13-.16,0-.16.49,0,1.25,0,1.73,0,.94,0,2.33,0,3.12,0,.43,0,.66,0,.63.37s-.09.91-.16,1.42c0,.1-.19.1-.18,0,0-.74-.25-1.23-1-1.29a19.08,19.08,0,0,0-2-.05c0,1.24,0,2.36,0,3.71a23.23,23.23,0,0,0,2.48,0c.43,0,.41-.16.52-.14s0,.07,0,.37a5.15,5.15,0,0,1-.15.9c0,.1-.17.1-.17,0,0-.59-.37-.59-1-.62-.27,0-1.2,0-1.68,0,0,.72,0,2.18,0,3.11"/><path class="cls-2" d="M98.77,14.44c0,.26,0,.31,0,.32s-.12,0-.33-.25c-1-1.08-1.94-2.17-3.75-4-1.42-1.44-2.56-2.62-3.18-3.2,0,1.14,0,4,.13,6,0,.59.28,1,1.19,1.07.1,0,.13.16,0,.16l-1.57,0c-.25,0-.77,0-1.17,0a.08.08,0,1,1,0-.16c.53-.11.72-.24.78-1,.12-1.64.15-4,.15-5.21,0-.81,0-1.78,0-2.64,0-.22,0-.28,0-.3s.11,0,.31.24c1.1,1.21,2.3,2.49,3.78,4,1.29,1.29,2.37,2.4,3.18,3.14,0-1.75,0-3.66-.08-5.72-.06-1.08-.18-1.24-1-1.36a.08.08,0,1,1,0-.16l1.35,0,1.11,0c.12,0,.09.16,0,.16-.56.09-.71.49-.74,1.17-.09,2.28-.15,4.46-.15,7.71"/><path class="cls-2" d="M104.16,12.12c0-.1.16-.09.16,0,.08,1.44.79,2.34,2.06,2.34a1.76,1.76,0,0,0,2-1.73c0-1.23-.78-1.75-2.13-2.44a3,3,0,0,1-2-2.82,2.36,2.36,0,0,1,2.65-2.28,4.58,4.58,0,0,1,1.37.19.69.69,0,0,1,.52.84c0,.21-.11.79-.14,1.1,0,.12-.16.08-.16,0a1.76,1.76,0,0,0-1.76-1.78,1.51,1.51,0,0,0-1.68,1.6,2.41,2.41,0,0,0,1.63,2.12c1.84.94,2.6,1.72,2.55,3.13s-1.27,2.43-2.93,2.43a4.17,4.17,0,0,1-1.68-.31,1,1,0,0,1-.6-.8,5.52,5.52,0,0,1,.13-1.59"/><path class="cls-2" d="M115.34,13.16c0,.89.2.93,1,.95h1.25c1.24,0,1.48-.82,1.66-1.75,0-.1.18-.12.18,0a12.33,12.33,0,0,1-.08,1.81c-.06.32-.31.44-.87.44-.74,0-2.09-.06-3.5-.06l-1.67,0a.08.08,0,1,1,0-.16c.78-.09.94-.23,1-1.5,0-1,0-2.08,0-3.13s0-1.7,0-2.64c0-1.22,0-1.49-1-1.61-.1,0-.13-.16,0-.16.49,0,1.25,0,1.74,0,.93,0,2.32,0,3.11,0,.43,0,.66,0,.63.37s-.08.91-.16,1.42c0,.1-.19.1-.18,0,0-.74-.25-1.23-1-1.29a19.34,19.34,0,0,0-2.05-.05c0,1.24,0,2.36,0,3.71a23,23,0,0,0,2.47,0c.43,0,.42-.16.52-.14s0,.07,0,.37a6.33,6.33,0,0,1-.15.9c0,.1-.18.1-.18,0,0-.59-.37-.59-1-.62-.27,0-1.2,0-1.67,0,0,.72,0,2.18,0,3.11"/><path class="cls-2" d="M123.59,12.12c0-.11.17-.09.17,0,.07,1.43.78,2.34,2.06,2.34a1.78,1.78,0,0,0,2-1.74c0-1.23-.79-1.74-2.14-2.44a3.05,3.05,0,0,1-2-2.82,2.35,2.35,0,0,1,2.65-2.28,4.44,4.44,0,0,1,1.36.19.7.7,0,0,1,.52.85c0,.21-.1.78-.13,1.09a.08.08,0,0,1-.16,0,1.77,1.77,0,0,0-1.77-1.77,1.5,1.5,0,0,0-1.67,1.6,2.41,2.41,0,0,0,1.63,2.12c1.83.93,2.59,1.72,2.55,3.12s-1.28,2.43-2.94,2.43a4,4,0,0,1-1.67-.31,1,1,0,0,1-.61-.8,5.82,5.82,0,0,1,.13-1.58"/><path class="cls-2" d="M146.08,5.42s0,.09,0,.11-.05,0-.08,0a1.31,1.31,0,0,0-.52-.09,2.25,2.25,0,0,0-1.34.51,5.78,5.78,0,0,0-1.24,1.31c-.21.3-.42.63-.64,1a11,11,0,0,0-.59,1.13,8.87,8.87,0,0,0-.42,1.19,4.5,4.5,0,0,0-.16,1.17v1.06a4.92,4.92,0,0,0,0,.76.71.71,0,0,0,.17.38.48.48,0,0,0,.32.14l.51.07c.06,0,.09,0,.09.08s0,.08-.09.08l-.89,0H140l-.89,0c-.06,0-.08,0-.08-.08s0-.08.08-.08l.42-.09a.61.61,0,0,0,.29-.17.84.84,0,0,0,.16-.38,4.25,4.25,0,0,0,.05-.71v-1a5,5,0,0,0-.11-1,7.25,7.25,0,0,0-.3-1.08c-.13-.36-.28-.71-.43-1.05a6.41,6.41,0,0,0-.51-.91,7.14,7.14,0,0,0-1.5-1.75,2.47,2.47,0,0,0-1.43-.57,1.88,1.88,0,0,0-.4,0l-.33.09c-.05,0-.08,0-.1,0a.1.1,0,0,1,.06-.11,2.09,2.09,0,0,1,.49-.3,2.21,2.21,0,0,1,1-.16,2.54,2.54,0,0,1,1,.19,3.89,3.89,0,0,1,.86.49,5,5,0,0,1,.73.72q.33.42.6.84a9.76,9.76,0,0,1,.75,1.52,13.51,13.51,0,0,1,.53,1.67A4.76,4.76,0,0,1,141,9.9a7.11,7.11,0,0,1,.26-.85,9,9,0,0,1,.43-1A6.87,6.87,0,0,1,142.3,7a6.2,6.2,0,0,1,.79-1,4.47,4.47,0,0,1,.77-.57,2.27,2.27,0,0,1,.7-.29,2.86,2.86,0,0,1,.63-.08,1.74,1.74,0,0,1,.53.08A.66.66,0,0,1,146.08,5.42Z"/><path class="cls-2" d="M150.6,5.21a1.65,1.65,0,0,1,.11-.21.08.08,0,0,1,.07,0,.09.09,0,0,1,.08,0,1.23,1.23,0,0,1,.09.21c.09.31.25.76.47,1.35l.73,2c.28.73.56,1.49.86,2.29s.6,1.54.89,2.25c.09.2.17.37.25.51a1.16,1.16,0,0,0,.26.31,1.09,1.09,0,0,0,.32.17,2.43,2.43,0,0,0,.44.09c.05,0,.08,0,.08.08s0,.08-.08.08l-.78,0h-1.47l-.65,0c-.06,0-.09,0-.09-.08a.08.08,0,0,1,.09-.08c.28,0,.46-.1.52-.22s0-.34-.07-.67-.23-.75-.39-1.2-.31-.89-.48-1.34h-2.91c-.06.15-.12.33-.2.53l-.23.64q-.13.35-.24.69l-.2.63a1.42,1.42,0,0,0-.07.49.49.49,0,0,0,.12.26.51.51,0,0,0,.25.14l.34.05s.07,0,.08.08,0,.08-.08.08l-.75,0h-1.23l-.72,0c-.06,0-.09,0-.08-.08s0-.08.08-.08l.28-.05a1.88,1.88,0,0,0,.3-.12,2,2,0,0,0,.3-.24,1.82,1.82,0,0,0,.3-.42,14.21,14.21,0,0,0,.69-1.48c.25-.59.49-1.18.74-1.79Zm1.1,5.09q-.3-.86-.6-1.68c-.2-.55-.42-1.13-.66-1.72l-.31.76c-.12.28-.24.59-.37.9l-.67,1.74h2.61Z"/><path class="cls-2" d="M166.43,6.46l-.06,1.71c0,.57,0,1.16-.05,1.78s0,1.27,0,2,0,1.45,0,2.26a1.5,1.5,0,0,1,0,.26.07.07,0,0,1,0,.06.08.08,0,0,1-.11,0l-.21-.23-.74-.82-.82-.9-1-1c-.35-.37-.76-.78-1.21-1.24-.72-.72-1.35-1.36-1.89-1.93s-1-1-1.3-1.27c0,.29,0,.66,0,1.13s0,1,0,1.55,0,1.13,0,1.72,0,1.14.07,1.65a1.17,1.17,0,0,0,.27.72,1.42,1.42,0,0,0,.92.35.08.08,0,0,1,.09.08c0,.05,0,.08-.09.08l-.91,0h-1.2l-.64,0c-.06,0-.08,0-.08-.08s0-.08.08-.08a1.16,1.16,0,0,0,.58-.25,1.34,1.34,0,0,0,.21-.75c0-.41,0-.86.07-1.34s0-.95,0-1.43,0-.92,0-1.35,0-.79,0-1.1V6.66c0-.46,0-.91,0-1.35,0-.1,0-.18,0-.22s0-.06.05-.07,0,0,.09,0a1.77,1.77,0,0,1,.22.21l1.75,1.89c.62.64,1.29,1.34,2,2.08L164.39,11c.53.53,1,1,1.4,1.36V9.63c0-1,0-1.94-.08-3,0-.27,0-.49-.06-.65a1,1,0,0,0-.15-.4.59.59,0,0,0-.3-.2,2.19,2.19,0,0,0-.49-.12.08.08,0,0,1-.09-.08s0-.08.09-.08h.72l.36,0h.27l.49,0,.62,0c.06,0,.08,0,.08.08s0,.08-.08.08a.72.72,0,0,0-.57.37A2,2,0,0,0,166.43,6.46Z"/><path class="cls-2" d="M175.5,4.91a9.88,9.88,0,0,1,1.4.09,6.81,6.81,0,0,1,1.23.28,1.09,1.09,0,0,1,.46.3.8.8,0,0,1,.17.56q0,.35,0,.75c0,.28,0,.55-.07.83,0,0,0,.07-.1.07s-.09,0-.09-.07a2.69,2.69,0,0,0-.31-1.09,2.3,2.3,0,0,0-.63-.75,2.85,2.85,0,0,0-.91-.44,4.35,4.35,0,0,0-1.12-.14,4.46,4.46,0,0,0-1.76.32,3.12,3.12,0,0,0-1.23.9,3.49,3.49,0,0,0-.69,1.39,6,6,0,0,0-.19,1.79A4.71,4.71,0,0,0,172.84,13,4.16,4.16,0,0,0,176,14.14a6.28,6.28,0,0,0,.83,0,3.7,3.7,0,0,0,.57-.1.74.74,0,0,0,.32-.13c.07-.06.1-.19.1-.39v-1c0-.3,0-.6,0-.91a1.66,1.66,0,0,0-.12-.62.81.81,0,0,0-.26-.33.77.77,0,0,0-.36-.15l-.41-.08c-.05,0-.07,0-.07-.09s0-.08.07-.08l.79,0,.83,0,.64,0,.64,0a.07.07,0,0,1,.08.08.09.09,0,0,1-.08.09,1.73,1.73,0,0,0-.35.13.56.56,0,0,0-.21.24,1.7,1.7,0,0,0-.12.44c0,.19,0,.44-.05.74s0,.43,0,.66,0,.44,0,.63,0,.26,0,.41,0,.29,0,.39a2.51,2.51,0,0,1-.57.23,6.36,6.36,0,0,1-.72.17c-.26,0-.52.07-.79.09l-.81,0a7.74,7.74,0,0,1-2.14-.29,5.16,5.16,0,0,1-1.73-.89,4.07,4.07,0,0,1-1.17-1.46,4.64,4.64,0,0,1-.43-2.07,5.69,5.69,0,0,1,.32-2,4.29,4.29,0,0,1,1-1.55,4.53,4.53,0,0,1,1.59-1A6.05,6.05,0,0,1,175.5,4.91Z"/><path class="cls-2" d="M182.86,13.44a4.54,4.54,0,0,1,0-.82,6.61,6.61,0,0,1,.12-.77.1.1,0,0,1,.1-.07s.06,0,.06.07a2.92,2.92,0,0,0,.58,1.72,1.82,1.82,0,0,0,1.48.63,2.08,2.08,0,0,0,1.49-.5,1.66,1.66,0,0,0,.52-1.24,2.2,2.2,0,0,0-.14-.8,2.12,2.12,0,0,0-.42-.62,3.3,3.3,0,0,0-.67-.52c-.27-.16-.57-.33-.91-.5a6.45,6.45,0,0,1-.76-.47,3.67,3.67,0,0,1-.64-.6,3.08,3.08,0,0,1-.44-.77,2.56,2.56,0,0,1-.15-1,2.23,2.23,0,0,1,.74-1.66,2.78,2.78,0,0,1,1.92-.63,4.87,4.87,0,0,1,.81.06,3.33,3.33,0,0,1,.55.14.89.89,0,0,1,.42.28.83.83,0,0,1,.1.56q0,.16-.06.51c0,.24,0,.43-.07.59s0,.08-.09.07-.08,0-.08-.07a2.23,2.23,0,0,0-.14-.67,1.67,1.67,0,0,0-.87-1,1.73,1.73,0,0,0-.75-.15,1.78,1.78,0,0,0-1.21.4,1.5,1.5,0,0,0-.46,1.2,1.74,1.74,0,0,0,.47,1.28,4,4,0,0,0,1.16.84c.45.24.84.47,1.18.69a3.75,3.75,0,0,1,.8.7,2.2,2.2,0,0,1,.45.78,2.91,2.91,0,0,1,.12,1,2.35,2.35,0,0,1-.25,1,2.38,2.38,0,0,1-.61.76,2.62,2.62,0,0,1-.92.49,3.62,3.62,0,0,1-1.16.17,4.78,4.78,0,0,1-1-.09,5.14,5.14,0,0,1-.69-.22,1.3,1.3,0,0,1-.41-.32A.92.92,0,0,1,182.86,13.44Z"/><path class="cls-2" d="M199.9,12.54a7.64,7.64,0,0,0,0,.77,1.34,1.34,0,0,0,.12.47.53.53,0,0,0,.27.26,1.88,1.88,0,0,0,.51.13.08.08,0,0,1,.09.08c0,.05,0,.08-.09.08l-.72,0h-1.46l-.74,0c-.06,0-.08,0-.08-.08s0-.08.08-.08a1.27,1.27,0,0,0,.45-.09.62.62,0,0,0,.26-.25,1.46,1.46,0,0,0,.12-.49c0-.21,0-.48.05-.8V12c0-.25,0-.51,0-.79V9.79h-2.56c-.89,0-1.79,0-2.69,0v.61c0,.26,0,.52,0,.79s0,.53,0,.77v.55c0,.32,0,.59,0,.8a1.43,1.43,0,0,0,.14.49.57.57,0,0,0,.26.25,1.39,1.39,0,0,0,.46.09c.05,0,.07,0,.08.08s0,.08-.08.08l-.72,0h-1.5l-.7,0c-.06,0-.09,0-.09-.08a.08.08,0,0,1,.09-.08,1.71,1.71,0,0,0,.5-.13.53.53,0,0,0,.27-.26,1.35,1.35,0,0,0,.11-.47c0-.2,0-.46,0-.77V12c0-.23,0-.47,0-.72s0-.5,0-.73V9.1c0-.32,0-.62,0-.9s0-.54,0-.77V6.89c0-.32,0-.57-.05-.77a1.34,1.34,0,0,0-.12-.46.6.6,0,0,0-.27-.25,2.34,2.34,0,0,0-.51-.13c-.06,0-.09,0-.09-.08s0-.08.09-.08l.73,0,.78,0,.74,0,.67,0c.05,0,.07,0,.08.08s0,.07-.08.08a1.9,1.9,0,0,0-.45.1.6.6,0,0,0-.26.24,1.28,1.28,0,0,0-.12.47c0,.21,0,.47,0,.8v.38c0,.17,0,.36,0,.58s0,.45,0,.7v.74l1.36,0h2.63l1.28,0c0-.54,0-1,0-1.42s0-.73,0-1,0-.58-.05-.79a1.37,1.37,0,0,0-.14-.49.53.53,0,0,0-.26-.25,1.63,1.63,0,0,0-.46-.11c-.06,0-.08,0-.08-.08s0-.08.08-.08l.74,0,.75,0,.71,0,.72,0a.07.07,0,0,1,.08.08s0,.07-.08.08a2.1,2.1,0,0,0-.5.13.57.57,0,0,0-.27.26,1.41,1.41,0,0,0-.11.47c0,.2,0,.46,0,.78,0,.08,0,.24,0,.47s0,.48,0,.75,0,.54,0,.8,0,.47,0,.63,0,.4,0,.67,0,.55,0,.84,0,.55,0,.82S199.9,12.38,199.9,12.54Z"/><path class="cls-2" d="M212.71,9.9a8.06,8.06,0,0,1-.21,1.92,4.13,4.13,0,0,1-.65,1.47,2.93,2.93,0,0,1-1.15.94,4.16,4.16,0,0,1-1.7.32,5.63,5.63,0,0,1-1.82-.25,2.69,2.69,0,0,1-1.21-.79,3.3,3.3,0,0,1-.66-1.34,8,8,0,0,1-.21-1.95V8.28c0-.31,0-.58,0-.82s0-.43,0-.56A4.7,4.7,0,0,0,205,6a1.15,1.15,0,0,0-.18-.47.63.63,0,0,0-.33-.2,2.64,2.64,0,0,0-.51-.09c-.05,0-.08,0-.08-.08s0-.08.08-.08l.81,0,.77,0h.26l.38,0H207c.06,0,.08,0,.08.08a.09.09,0,0,1-.08.08,1.83,1.83,0,0,0-.4.09.48.48,0,0,0-.25.22,1.13,1.13,0,0,0-.15.47,7.59,7.59,0,0,0-.06.84v3.25a11.69,11.69,0,0,0,.1,1.63,3.35,3.35,0,0,0,.42,1.26,2,2,0,0,0,.88.81,3.35,3.35,0,0,0,1.49.29,2.73,2.73,0,0,0,1.45-.35,2.48,2.48,0,0,0,.89-.93,3.89,3.89,0,0,0,.45-1.32A8.76,8.76,0,0,0,212,10V8.5c0-.31,0-.65,0-1s0-.7,0-1a2.91,2.91,0,0,0-.07-.6.72.72,0,0,0-.15-.34.53.53,0,0,0-.27-.16,2.81,2.81,0,0,0-.4-.08c-.05,0-.08,0-.08-.08s0-.08.08-.08l.7,0,.58,0,.54,0,.64,0c.06,0,.09,0,.09.08s0,.08-.09.08a.77.77,0,0,0-.58.29,2,2,0,0,0-.19.89c0,.28,0,.58,0,.89l0,.94V9.9Z"/><path class="cls-2" d="M226.3,9.56a4.95,4.95,0,0,1-1.4,3.55,4.73,4.73,0,0,1-1.55,1.05,5,5,0,0,1-1.94.38,6.33,6.33,0,0,1-1.95-.29,4.13,4.13,0,0,1-1.53-.87,4,4,0,0,1-1-1.44,5.51,5.51,0,0,1-.42-2,4.94,4.94,0,0,1,.32-2,4.62,4.62,0,0,1,1.06-1.59,4.85,4.85,0,0,1,1.65-1,5.72,5.72,0,0,1,2.1-.38,4.86,4.86,0,0,1,2,.4,4.54,4.54,0,0,1,1.48,1,4.37,4.37,0,0,1,.9,1.49A5,5,0,0,1,226.3,9.56Zm-5.23-4.22a3.45,3.45,0,0,0-1.49.36,3,3,0,0,0-1.05.9A4,4,0,0,0,217.9,8a6.8,6.8,0,0,0-.21,1.74,5.71,5.71,0,0,0,.27,1.8,4.32,4.32,0,0,0,.75,1.41,3.5,3.5,0,0,0,1.2.92,3.81,3.81,0,0,0,1.58.32,3.89,3.89,0,0,0,1.52-.29,3.27,3.27,0,0,0,1.14-.82,3.55,3.55,0,0,0,.74-1.25,4.72,4.72,0,0,0,.26-1.58,7,7,0,0,0-.24-1.8,4.69,4.69,0,0,0-.74-1.58,3.85,3.85,0,0,0-1.27-1.1A3.54,3.54,0,0,0,221.07,5.34Z"/></svg>