<svg id="Layer_1" data-name="Layer 1" xmlns="http://www.w3.org/2000/svg" viewBox="0 0 75 65"><defs><style>.cls-1{fill:#5c5e5e;}.cls-2{fill:#673065;}.cls-3{fill:#666;}</style></defs><title>yangshuo-footer</title><path class="cls-1" d="M.12,49.74c0-.08.13-.07.13,0C.32,50.93.9,51.67,2,51.67a1.46,1.46,0,0,0,1.64-1.43c0-1-.65-1.43-1.75-2A2.49,2.49,0,0,1,.21,45.92a1.93,1.93,0,0,1,2.17-1.87,3.5,3.5,0,0,1,1.12.16.56.56,0,0,1,.43.69c0,.17-.09.65-.11.9s-.13.06-.13,0a1.45,1.45,0,0,0-1.45-1.46A1.24,1.24,0,0,0,.86,45.66,2,2,0,0,0,2.2,47.4c1.51.76,2.13,1.41,2.09,2.56a2.15,2.15,0,0,1-2.41,2,3.4,3.4,0,0,1-1.37-.25.85.85,0,0,1-.5-.66,4.71,4.71,0,0,1,.11-1.31"/><path class="cls-1" d="M9.33,50.42c0,1,.13,1.17.85,1.23a.07.07,0,1,1,0,.13l-1.29,0-1.26,0a.07.07,0,0,1,0-.13c.6-.09.76-.16.78-1.23,0-.41,0-1.78,0-2.19,0-.95,0-2.12,0-2.53,0-1.27-.23-1.27-.78-1.34-.08,0-.11-.13,0-.13l1.26,0,1.11,0c.09,0,.08.12,0,.13-.53.1-.67.11-.7,1.34,0,.36,0,1.68,0,2.52,0,.42,0,1.79,0,2.2"/><path class="cls-1" d="M16.15,48.39c-.48.75-1.13,1.87-1.47,2.5s-.28.69.37.76c.08,0,.11.13,0,.13l-1.09,0-1.14,0a.07.07,0,1,1,0-.13A1.33,1.33,0,0,0,14,50.94c.62-.86,1.36-2,2-2.93-.63-1-1.35-2.17-1.88-3-.34-.51-.5-.63-1-.68-.08,0-.11-.13,0-.13l1.15,0,1.24,0c.11,0,.08.13,0,.13-.55.06-.55.24-.34.63.37.7.82,1.5,1.32,2.34.45-.73.88-1.48,1.22-2.16s.27-.74-.17-.81c-.09,0-.11-.13,0-.13l1.05,0,.91,0a.07.07,0,1,1,0,.13c-.35,0-.58.07-1,.71-.65.92-1.28,1.84-1.74,2.6.61,1,1.56,2.49,2.13,3.3.35.5.58.64,1,.68a.07.07,0,1,1,0,.13l-1.14,0-1.16,0c-.1,0-.08-.13,0-.13.48,0,.46-.24.25-.63-.32-.58-1-1.68-1.59-2.63"/><path class="cls-1" d="M27.5,49.75c0-.09.14-.07.14,0,.06,1.18.64,1.92,1.69,1.92A1.45,1.45,0,0,0,31,50.25c0-1-.64-1.44-1.75-2a2.49,2.49,0,0,1-1.63-2.31,1.94,1.94,0,0,1,2.18-1.88,3.82,3.82,0,0,1,1.12.16.57.57,0,0,1,.42.7c0,.17-.08.64-.11.9,0,.09-.13.06-.13,0a1.44,1.44,0,0,0-1.45-1.46,1.23,1.23,0,0,0-1.37,1.31,2,2,0,0,0,1.33,1.74c1.51.77,2.13,1.41,2.1,2.57a2.16,2.16,0,0,1-2.41,2,3.46,3.46,0,0,1-1.38-.25.85.85,0,0,1-.5-.66,5,5,0,0,1,.11-1.3"/><path class="cls-1" d="M36.68,50.6c0,.73.17.77.8.78h1c1,0,1.22-.67,1.36-1.44,0-.08.15-.09.15,0A11,11,0,0,1,40,51.43c-.05.27-.26.37-.72.37s-1.72,0-2.87,0l-1.38,0a.07.07,0,1,1,0-.13c.65-.07.78-.18.8-1.23,0-.85,0-1.7,0-2.57s0-1.4,0-2.16c0-1,0-1.23-.84-1.33-.08,0-.11-.13,0-.13l1.43,0,2.55,0c.36,0,.55,0,.53.3s-.08.75-.14,1.17c0,.08-.15.08-.14,0,0-.61-.21-1-.83-1.06a15.2,15.2,0,0,0-1.68,0c0,1,0,1.94,0,3a17.31,17.31,0,0,0,2,0c.35,0,.34-.13.43-.12s0,.06,0,.31a3.89,3.89,0,0,1-.12.74c0,.08-.14.08-.14,0,0-.49-.31-.49-.81-.51-.22,0-1,0-1.37,0,0,.59,0,1.79,0,2.55"/><path class="cls-1" d="M50.44,51.65c0,.22,0,.26,0,.27s-.09,0-.27-.21c-.77-.89-1.59-1.78-3.08-3.27-1.16-1.18-2.1-2.16-2.61-2.63,0,.93,0,3.26.11,5,0,.49.23.81,1,.88.09,0,.11.13,0,.13l-1.29,0-1,0a.07.07,0,1,1,0-.13c.44-.09.6-.2.65-.82.09-1.35.12-3.28.12-4.28,0-.66,0-1.46,0-2.17,0-.18,0-.23,0-.24s.09,0,.26.19c.9,1,1.89,2.05,3.1,3.27,1.06,1,2,2,2.61,2.58,0-1.44,0-3-.06-4.7,0-.89-.15-1-.83-1.12a.07.07,0,1,1,0-.13l1.11,0,.91,0c.1,0,.07.13,0,.13-.46.07-.59.4-.61,1-.07,1.88-.12,3.66-.12,6.33"/><path class="cls-1" d="M54.86,49.75c0-.09.14-.07.14,0,.06,1.18.64,1.92,1.69,1.92a1.45,1.45,0,0,0,1.64-1.42c0-1-.64-1.44-1.75-2A2.49,2.49,0,0,1,55,45.93a1.93,1.93,0,0,1,2.17-1.88,3.9,3.9,0,0,1,1.13.16.57.57,0,0,1,.42.7c0,.17-.08.64-.11.9,0,.09-.13.06-.13,0A1.45,1.45,0,0,0,57,44.35a1.24,1.24,0,0,0-1.38,1.31,2,2,0,0,0,1.34,1.74c1.51.77,2.13,1.41,2.1,2.57a2.16,2.16,0,0,1-2.41,2,3.46,3.46,0,0,1-1.38-.25.83.83,0,0,1-.5-.66,5,5,0,0,1,.11-1.3"/><path class="cls-1" d="M64,50.6c0,.73.17.77.81.78h1c1,0,1.21-.67,1.36-1.44,0-.08.15-.09.15,0a11,11,0,0,1-.06,1.49c0,.27-.26.37-.72.37s-1.72,0-2.87,0l-1.38,0a.07.07,0,1,1,0-.13c.65-.07.78-.18.8-1.23,0-.85,0-1.7,0-2.57s0-1.4,0-2.16c0-1,0-1.23-.84-1.33-.08,0-.11-.13,0-.13l1.43,0,2.55,0c.36,0,.55,0,.53.3s-.08.75-.14,1.17c0,.08-.15.08-.14,0,0-.61-.21-1-.83-1.06a15.2,15.2,0,0,0-1.68,0c0,1,0,1.94,0,3a17.31,17.31,0,0,0,2,0c.35,0,.34-.13.43-.12s0,.06,0,.31a3.89,3.89,0,0,1-.12.74c0,.08-.14.08-.14,0,0-.49-.31-.49-.81-.51-.22,0-1,0-1.37,0,0,.59,0,1.79,0,2.55"/><path class="cls-1" d="M70.82,49.75c0-.09.14-.07.14,0,.06,1.18.64,1.92,1.69,1.92a1.45,1.45,0,0,0,1.64-1.42c0-1-.64-1.44-1.75-2a2.5,2.5,0,0,1-1.63-2.31,1.94,1.94,0,0,1,2.18-1.88,3.82,3.82,0,0,1,1.12.16.57.57,0,0,1,.42.7c0,.17-.08.64-.11.9,0,.09-.13.06-.13,0a1.44,1.44,0,0,0-1.45-1.46,1.23,1.23,0,0,0-1.37,1.31,2,2,0,0,0,1.34,1.74C74.41,48.17,75,48.81,75,50a2.16,2.16,0,0,1-2.41,2,3.49,3.49,0,0,1-1.38-.25.85.85,0,0,1-.5-.66,5,5,0,0,1,.11-1.3"/><path class="cls-2" d="M59.55,34.09s0,0,.05,0,0,0-.05,0"/><polygon class="cls-2" points="58.89 34.47 59 34.45 58.98 34.45 58.89 34.47"/><path class="cls-2" d="M58.73,34.59c-.08.08-.26.09-.28.18.08-.06.25-.11.36-.18l-.07,0Z"/><path class="cls-2" d="M58.22,35.05l.06,0h0c-.15,0-.06,0-.07,0"/><path class="cls-2" d="M58.28,35s.06,0,0,0"/><path class="cls-2" d="M58,35.18s0,0,.06-.06H58s0,.06,0,0"/><path class="cls-2" d="M57.93,35.1h0s0,0,0,0"/><path class="cls-2" d="M58,35.09s0,0,0,0H58s-.06,0-.05,0"/><path class="cls-2" d="M58.09,35c.08,0,0,0,0,.06.16-.05.16-.11,0-.06"/><path class="cls-2" d="M58.44,34.67l0,0s.08,0,.11-.06Z"/><path class="cls-2" d="M57.47,35.32s.06,0,.09-.06h-.07s0,.06,0,.07"/><path class="cls-2" d="M57.39,35.25h.1s0,0-.1,0"/><path class="cls-2" d="M57.85,35h0Z"/><path class="cls-2" d="M57.05,35.38l.11,0-.06,0Z"/><path class="cls-2" d="M56.85,35.41a.27.27,0,0,1-.19,0,.58.58,0,0,0,.18,0s0,0,0-.07"/><path class="cls-2" d="M57.16,35.34c.05,0,.07,0,.07-.05h0Z"/><polygon class="cls-2" points="57.11 35.31 57.19 35.3 57.19 35.29 57.11 35.31"/><path class="cls-2" d="M57.54,35.07c-.1.07,0,.07.08.07s0,0-.08-.07"/><path class="cls-2" d="M57.37,35.19l-.09,0h.11s0,0,0,0"/><polygon class="cls-2" points="57.24 35.23 57.28 35.22 57.23 35.22 57.24 35.23"/><path class="cls-2" d="M56.78,35.32l-.18,0a.68.68,0,0,1,.15,0c.06,0,0,0,0,0"/><polygon class="cls-2" points="56.06 35.33 56.07 35.33 56.07 35.32 56.06 35.33"/><path class="cls-2" d="M56.78,35.31s0,0,0,0h.1a.16.16,0,0,0-.1,0"/><path class="cls-2" d="M56.5,35.37l-.08,0s.06,0,.08,0"/><path class="cls-2" d="M57,35.33h-.07l.06,0a0,0,0,0,0,0,0"/><path class="cls-2" d="M56.16,35.38a.48.48,0,0,1,.15,0h-.24a.15.15,0,0,0,.09.05"/><path class="cls-2" d="M56.5,35.36h0s-.06,0,0,0a1,1,0,0,0-.18,0l.19,0"/><path class="cls-2" d="M56.51,35.36h0l.1,0h-.11c.15,0-.1-.06.09-.06-.07,0,0-.05-.16-.05s0,.07.07.11v0Z"/><path class="cls-2" d="M57.42,35h0s0,0,0,0"/><path class="cls-2" d="M57.35,35.05a.52.52,0,0,0-.07.12.39.39,0,0,1,.14-.1h0c.08,0,0,0,0,0s0,0,0,0-.05,0-.07,0"/><path class="cls-2" d="M56.77,35.2h.16s0-.05-.09,0v0Z"/><path class="cls-2" d="M56,35.32l.09.08,0,0Z"/><polygon class="cls-2" points="55.78 35.33 55.83 35.36 55.83 35.32 55.78 35.33"/><path class="cls-2" d="M52.1,31.84c-.05,0,0,.07.08.13a.21.21,0,0,1,0-.12Z"/><path class="cls-2" d="M53.7,34.4a.32.32,0,0,0,.13.07s-.06,0-.13-.07"/><path class="cls-2" d="M55.29,26.77h0s0,0,0,0"/><path class="cls-2" d="M53.7,34.4a.36.36,0,0,1-.11-.1h0a.22.22,0,0,0,.14.11"/><path class="cls-2" d="M55,35.13h0"/><path class="cls-2" d="M55.08,35.16h0s.05,0,0,0"/><path class="cls-2" d="M54.93,35.11l.06,0h0l-.07,0"/><path class="cls-2" d="M52.45,32.72l0,.05,0-.05"/><path class="cls-2" d="M55.43,35.26a.16.16,0,0,1-.09,0l.1,0s0,0,0,0"/><path class="cls-2" d="M56.34,35.13v0h0c-.06,0,0,0,0,0"/><path class="cls-2" d="M55.68,35.15h0c-.07,0-.12,0-.14,0s.13.06.12,0"/><path class="cls-2" d="M55.77,35.17h-.06s.07,0,.06,0"/><path class="cls-2" d="M54.88,35.09s0,0,0,0,0,.11,0,0"/><polygon class="cls-2" points="55.61 35.07 55.64 35.02 55.58 35.02 55.61 35.07"/><polygon class="cls-2" points="59.71 33.9 59.7 33.97 59.74 33.89 59.71 33.9"/><polygon class="cls-2" points="46.78 13.59 46.86 13.63 46.77 13.57 46.78 13.59"/><polygon class="cls-2" points="48.63 14.28 48.7 14.33 48.63 14.28 48.63 14.28"/><polygon class="cls-2" points="48.56 14.31 48.56 14.29 48.53 14.27 48.56 14.31"/><polygon class="cls-2" points="49.43 15.06 49.45 15.07 49.44 15.06 49.43 15.06"/><polygon class="cls-2" points="49.6 15.24 49.64 15.27 49.63 15.21 49.6 15.24"/><polygon class="cls-2" points="49.52 15.58 49.56 15.63 49.58 15.58 49.52 15.58"/><polygon class="cls-2" points="45.84 13.43 45.88 13.45 45.94 13.41 45.84 13.43"/><polygon class="cls-2" points="26.99 14.19 27.01 14.2 27.1 14.17 26.99 14.19"/><polygon class="cls-2" points="28.8 13.35 28.8 13.35 28.88 13.33 28.8 13.35"/><polygon class="cls-2" points="28.71 13.41 28.77 13.42 28.75 13.4 28.71 13.41"/><polygon class="cls-2" points="29.91 13.31 29.91 13.32 29.92 13.31 29.91 13.31"/><polygon class="cls-2" points="30.16 13.32 30.21 13.31 30.16 13.28 30.16 13.32"/><polygon class="cls-2" points="30.35 13.62 30.41 13.62 30.38 13.57 30.35 13.62"/><polygon class="cls-2" points="26.24 14.76 26.27 14.74 26.29 14.67 26.24 14.76"/><polygon class="cls-2" points="34.31 6.99 34.32 6.97 34.29 6.89 34.31 6.99"/><path class="cls-2" d="M33.47,5.19l0-.08Z"/><polygon class="cls-2" points="33.53 5.23 33.54 5.27 33.54 5.22 33.53 5.23"/><polygon class="cls-2" points="33.43 4.07 33.44 4.07 33.43 4.06 33.43 4.07"/><polygon class="cls-2" points="33.4 3.83 33.44 3.83 33.44 3.77 33.4 3.83"/><polygon class="cls-2" points="33.7 3.6 33.74 3.64 33.74 3.58 33.7 3.6"/><polygon class="cls-2" points="34.88 7.74 34.86 7.71 34.79 7.69 34.88 7.74"/><polygon class="cls-2" points="41.85 31.28 41.81 31.36 41.87 31.28 41.85 31.28"/><polygon class="cls-2" points="41.15 33.21 41.19 33.15 41.19 33.15 41.15 33.21"/><polygon class="cls-2" points="41.16 33.07 41.18 33.07 41.2 33.04 41.16 33.07"/><polygon class="cls-2" points="40.42 33.97 40.43 33.96 40.42 33.96 40.42 33.97"/><polygon class="cls-2" points="40.22 34.17 40.28 34.16 40.24 34.13 40.22 34.17"/><polygon class="cls-2" points="39.86 34.09 39.91 34.1 39.9 34.05 39.86 34.09"/><polygon class="cls-2" points="41.99 30.38 42.02 30.44 42 30.35 41.99 30.38"/><polygon class="cls-2" points="23.39 31.65 23.34 31.73 23.4 31.64 23.39 31.65"/><polygon class="cls-2" points="22.68 33.58 22.72 33.51 22.72 33.51 22.68 33.58"/><polygon class="cls-2" points="22.69 33.43 22.71 33.43 22.73 33.4 22.69 33.43"/><polygon class="cls-2" points="21.95 34.33 21.96 34.32 21.95 34.32 21.95 34.33"/><polygon class="cls-2" points="21.75 34.53 21.81 34.52 21.78 34.49 21.75 34.53"/><polygon class="cls-2" points="21.39 34.45 21.44 34.47 21.43 34.41 21.39 34.45"/><polygon class="cls-2" points="23.52 30.74 23.55 30.8 23.53 30.71 23.52 30.74"/><path class="cls-2" d="M23.47,31l.06-.05-.07,0a.22.22,0,0,1,0,.08"/><path class="cls-2" d="M33.76,18.1a2.76,2.76,0,0,0,.12-.32c-.05.08-.07,0-.11,0l.09-.13-.07,0a.33.33,0,0,0,0-.17s0,0,0,0,.06-.28.09-.32,0-.17-.09-.19,0-.05,0-.08.08,0,.05,0h0l-.05,0a.68.68,0,0,0,0-.15l0,.05,0-.06s0,0,0,0h0a.18.18,0,0,1,0-.11.8.8,0,0,1-.09-.31.46.46,0,0,0-.13-.31s0,.07,0,.09c-.06-.17-.21-.3-.23-.42h0a1.6,1.6,0,0,0-.15-.32l0,0a2.43,2.43,0,0,1-.19-.27c-.07-.1-.14-.17-.22-.18s-.15-.15-.21-.22h0a1,1,0,0,1-.18-.18c-.24-.09-.36-.28-.54-.39h0l-.17-.13c0,.06,0-.05-.08-.07a.52.52,0,0,0-.24-.09l-.12-.05c.13.08,0,0-.06.08l-.06-.06s0,0,0,0-.19-.1-.23-.16h.06v0c-.11,0-.07,0-.06-.05s-.19,0-.29,0c.14-.06-.27-.06-.18-.13-.1.06-.06,0-.13,0a.72.72,0,0,1,.33.15l-.11,0c.05.09.22,0,.27.07s-.12,0-.13,0l0-.05a.57.57,0,0,1,.31.15c-.09,0,.1.08,0,.09l-.06,0s0,0,0,0l-.34-.11h-.05l-.37-.07c0-.06-.16-.11-.11-.15s0,.05-.17,0,.1-.06.14-.07-.09-.05-.09-.07-.17.19-.07.23a.2.2,0,0,1,.17,0,4.12,4.12,0,0,0-3.43,1.18l-.16.18c0-.08,0-.15-.07-.14l.06,0c-.07,0-.16.19-.25.18a2.34,2.34,0,0,0-.09.24s-.07,0-.06-.05-.07.09-.05,0c-.11.29-.26.55-.39.82a2.37,2.37,0,0,0-.25.86s0,0,0,0-.05.09-.07.15.05.12.07.17-.06,0-.07,0c-.06.31,0,.6,0,.85,0,.07.08,0,.09.07-.05-.06-.05,0-.05.09s0,.17,0,.13.08.36.21.29c0,.11,0,.11-.06.08a1.27,1.27,0,0,1,.07.37s.06.19.13.34.15.31.23.34c-.1-.05,0,0,0,.11l-.08,0a1.4,1.4,0,0,0,.1.16.11.11,0,0,0,0,0s0,0,.08,0a.43.43,0,0,1,.07.21h0l0,.07c0,.05-.08-.22.07-.06,0,0,0,.15.06.17s0-.09,0-.07l.09.11h-.09a4.65,4.65,0,0,0,1,.85c0-.05.27.17.29.07h0c-.09-.07.06,0,.13,0-.09,0,.11.16-.1.06l.05.05.52,0c1.29,0,3.59-.31,4.44-2.39l.1,0A5.31,5.31,0,0,1,31,21.77l.14-.07c.07,0,.05,0,0,.06.11-.11.4-.09.44-.15s0-.07,0-.11,0,.14.2,0c0,0-.07,0-.06,0s.09-.28.18-.29l0,0c.14,0,.2-.3.28-.23l0,0c.15-.21.1,0,.25-.26h0c.09-.07.08-.15.18-.13l0,0a1.37,1.37,0,0,0,.19-.22.12.12,0,0,0,.07-.07c.06,0,.23-.24.26-.3s-.07,0-.07,0,.11-.06.12-.16.17.07.26-.09c0,0,0,.05-.06,0s0-.05,0-.06,0,0-.06,0,.1-.19.2-.34c-.05,0,0,0-.06,0s0-.25.11-.14c0-.18.09-.38.14-.57a1,1,0,0,0,0-.43s0-.12,0-.18Zm-7.95,1.83s0-.05,0,0Zm4.24-6.36h0m1.4.17h0m.1.33s.07,0,.09,0a.29.29,0,0,1-.15-.09l.11,0c-.08,0-.16,0-.27-.11,0,0,0-.11.09-.12a.27.27,0,0,1,.2.13.53.53,0,0,0,.2.2s0-.1.1,0a.51.51,0,0,1,.16.28,3.74,3.74,0,0,0-.53-.35m1,.79s.05,0,.06,0a.35.35,0,0,1,0,.12l-.09-.1M33,20.07V20l0,0,0,0h0a.25.25,0,0,0,0-.07.06.06,0,0,1,0,.05h0s.06,0,.06,0l-.12.13m.12-4.5L33,15.44l.06-.06-.07,0-.08-.12h0a2.06,2.06,0,0,1,.25.18.27.27,0,0,1-.11.1m.39.88a1.72,1.72,0,0,0-.07-.21l.08-.22c0,.05,0,.09,0,.14l0,0a.52.52,0,0,1-.07.27m.18,1.41s0-.07,0-.1h.09l-.1.1"/><path class="cls-2" d="M42.11,4.69s0,0,0,0a.39.39,0,0,0,.07-.29h0V4.14c-.08,0-.06-.11-.06-.23s0-.26-.09-.28,0-.25,0-.34,0,0,0,0-.11-.27-.14-.37,0-.06.06,0-.09-.4-.14-.44-.08,0-.12,0,.14-.05,0-.2c0,0,0,.06,0,0s-.28-.09-.3-.17l0,0c0-.15-.29-.21-.23-.29l0,0c-.21-.15,0-.09-.26-.24h0c-.06-.08-.15-.08-.13-.17h0a1.9,1.9,0,0,0-.21-.19s-.05-.07-.08-.07S40.28.93,40.23.9s0,.06,0,.07a.15.15,0,0,0-.15-.13.25.25,0,0,0,0-.12,6.44,6.44,0,0,0-.75,0C38,.68,35.74,1,34.89,3.06l-.1,0A5.61,5.61,0,0,1,36.19.52l0,0h.09l.2-.17-.13,0A.47.47,0,0,0,36,.48s.07,0,.09,0c-.17.07-.3.22-.41.24l0,0a1.12,1.12,0,0,0-.31.15l0,0L35,.93c-.1.07-.18.15-.18.22s-.16.16-.23.21v0a1,1,0,0,1-.18.18c-.09.23-.28.35-.39.53h0L34,2.3c.06,0,0,0-.06.08a.51.51,0,0,0-.1.24.61.61,0,0,0,0,.12c.08-.12,0,0,.08.06l-.06.06c0,.05.05,0,0,0s-.1.2-.16.23,0,0,0-.06h0l0,0c0,.1,0,.06-.05,0,0,.14,0,.19,0,.3-.06-.14-.06.27-.13.18.06.1,0,.06,0,.12a.86.86,0,0,1,.15-.32l0,.1c.1,0,0-.21.07-.26a.16.16,0,0,0,0,.13l-.05,0A.57.57,0,0,1,33.81,3c0,.09.08-.09.1,0l0,.06s0,0,0,0-.08.24-.11.35,0,0,0,0l0,.07h0c0,.12-.05.24-.07.36s-.11.17-.15.11.06.05,0,.18S33.52,4,33.51,4s0,.1-.07.1.2.16.23.07a.22.22,0,0,1,0-.17,4.17,4.17,0,0,0,1.18,3.42l.18.16c-.07,0-.15,0-.13.08l-.05-.07c0,.07.18.17.17.25l.24.1s0,.07-.05,0,.09.07,0,0c.29.11.55.26.82.39a2.44,2.44,0,0,0,.86.26s0,0,0,0,.1.05.16.07l.17-.06c.06,0,0,0,0,.07.31.06.6,0,.84,0,.08,0,0-.07.08-.09-.06.05,0,.06.1.06s.16,0,.12,0,.36-.09.29-.21c.12,0,.11,0,.08.05a1,1,0,0,1,.37-.06s.19-.07.34-.14a.68.68,0,0,0,.34-.22c0,.1,0,0,.11,0l0,.09.16-.1,0,0s0,0,0-.08a.3.3,0,0,1,.2-.06v0L40.37,8c.06,0-.21.08-.06-.06s.16,0,.17-.07-.09,0-.07,0l.11-.1v.1a4.75,4.75,0,0,0,.86-1c-.06,0,.17-.27.06-.28h0c-.07.09-.05-.06,0-.13,0,.1.16-.1.07.1l.12-.13c.11,0,.16-.11.2-.25A1.94,1.94,0,0,1,42,5.74s0,0,0,0c.14-.21.09-.53.12-.58l0,0a.6.6,0,0,0,.1-.46M35.59.79a.22.22,0,0,1,.1.11L35.56,1,35.5.91l0,.07-.12.09s0,0,0,0a1.08,1.08,0,0,1,.17-.25m-.51.55-.1.09s0,0,0-.05l.12,0m-1.22,1.2h0s0-.08,0,0M33.7,3.93h0v0m.49-1.49a.92.92,0,0,0,0-.09.36.36,0,0,1-.1.14l0-.11c0,.08,0,.17-.1.27s-.12,0-.13-.09a.25.25,0,0,1,.14-.19.57.57,0,0,0,.19-.21s-.09,0,0-.1a.55.55,0,0,1,.28-.16,3.84,3.84,0,0,0-.35.54m5.86,5.74s0,0,0,0ZM40.11,1l0,0,0,0V1L40,.94a0,0,0,0,1,0,0l0,0s0-.07,0-.07l.12.13h-.08"/><path class="cls-2" d="M60.79,31.52c.05-.31,0-.6,0-.84,0-.08-.07,0-.09-.08.06.06.06,0,.06-.09s0-.17,0-.13-.08-.36-.21-.29c0-.11,0-.11.05-.08a1.59,1.59,0,0,1-.06-.37s-.07-.18-.13-.34-.15-.31-.23-.34c.1.05,0,0,0-.1l.09,0a1.4,1.4,0,0,0-.1-.16.11.11,0,0,0,0,0s0,0-.09,0a.45.45,0,0,1-.06-.2h0L60,28.39c0-.05.09.22-.06.06,0,0,0-.15-.07-.17s0,.09,0,.07l-.09-.11h.09a4.9,4.9,0,0,0-1-.85c0,.05-.28-.17-.29-.07h0c.09.07-.07.05-.14,0,.1,0-.1-.16.11-.06l-.05-.05-.52,0c-1.3,0-3.59.31-4.44,2.39l-.1,0A5.31,5.31,0,0,1,55,26.87l-.14.07c-.07,0,0,0,0-.06s-.4.09-.43.15,0,.07,0,.11,0-.14-.2,0c0,0,.07,0,.06,0s-.1.28-.18.29l0-.05c-.15.05-.2.3-.28.23l0-.05c-.16.21-.1.05-.25.26h0c-.09.07-.09.15-.18.14l0,0a2.09,2.09,0,0,0-.2.22s-.06,0-.06.07-.23.24-.26.3.06,0,.07,0-.11.06-.13.16-.16-.07-.25.09c0,0,0-.05,0,0s0,.05,0,.06,0,0,.06,0-.1.19-.2.34c0,0,0,0,0,0s0,.25-.1.14c0,.18-.1.39-.14.57a1,1,0,0,0,0,.43s0,.12,0,.18h0c-.09.16,0,.12-.12.32,0-.08.07-.05.11,0l-.09.13.07,0a.25.25,0,0,0,0,.17s0,0,0,0-.06.28-.09.32,0,.17.09.2a.19.19,0,0,0,0,.07s-.08,0-.05,0h0l.05,0a.68.68,0,0,0,0,.15l0-.05,0,.06v0h0a.18.18,0,0,1,0,.11.65.65,0,0,1,.08.31.6.6,0,0,0,.11.26.06.06,0,0,1,0,0c.07.17.22.3.24.42h0a1.28,1.28,0,0,0,.15.31l0,0c0,.06.12.17.19.27s.14.18.22.18.15.15.21.22h0a1,1,0,0,1,.18.18c.24.09.36.28.54.39h0l.16.13c0-.06,0,0,.09.06a.44.44,0,0,0,.23.1l.13.05c-.13-.08,0,0,.06-.08l.06.06s0,0,0,0,.2.1.24.16h-.06v0c.11,0,.06,0,.06.05s.19,0,.29,0c-.14.07.27.06.18.13.1-.05.06,0,.13,0a.84.84,0,0,1-.33-.15l.11,0c-.05-.09-.22,0-.27-.07s.12,0,.13,0l0,.05A.6.6,0,0,1,55,35c.1,0-.09-.08,0-.1l.06,0s0,0,0,0l.34.11h0l.37.07c0,.06.16.11.11.15s0-.05.17,0-.11.06-.14.07.09.06.09.07.16-.19.07-.23a.2.2,0,0,1-.17,0,4.12,4.12,0,0,0,3.42-1.18l.16-.18c0,.08,0,.15.08.13l-.06.06c.06,0,.16-.19.24-.18a2.44,2.44,0,0,0,.1-.24s.07,0,.05.05.08-.09.06,0a7.71,7.71,0,0,1,.39-.82,2.58,2.58,0,0,0,.25-.86s0,0,0,0,.06-.09.08-.15-.05-.12-.07-.17.06,0,.08,0m-8.47-.64h-.09l.1-.1s0,.07,0,.1m.18,1.74a.78.78,0,0,0,0-.14l0,0a.44.44,0,0,1,.07-.27,1.72,1.72,0,0,0,.07.21l-.08.22m.52-4v.08l0,0,0,0h0a.25.25,0,0,0,0,.07s0,0,0-.05h0s-.07,0-.06,0l.12-.13m0,4.77a1.08,1.08,0,0,1-.25-.17.27.27,0,0,1,.11-.1l.08.13-.06.06.07,0a.44.44,0,0,0,.08.11s0,0,0,0m.34.46a.21.21,0,0,1,0-.12l.08.1s0,0,0,0m1.16,1.1h0m0-.06a.27.27,0,0,1-.2-.13.53.53,0,0,0-.2-.2s0,.1-.1,0a.62.62,0,0,1-.17-.28,4.51,4.51,0,0,0,.54.35s-.07,0-.09,0a.28.28,0,0,1,.14.09l-.1,0c.07,0,.16,0,.27.11s0,.11-.09.12m1.34.22h0Zm4.24-6.36h0s0,.05,0,0"/><path class="cls-2" d="M50.45,18.14s0-.21,0-.3l0,0a.75.75,0,0,1,0-.26,3.11,3.11,0,0,1-.1-.65h0a1.49,1.49,0,0,0,0-.21c0,.06,0-.05,0-.11a.39.39,0,0,0-.1-.23l0-.13c0,.15-.06,0-.11,0v-.09s0,.06,0,0-.07-.21,0-.28l0,0h0s0,0,0,0,0-.07,0-.07-.11-.16-.23-.2c.14.06-.14-.23,0-.21-.11,0,0-.05-.12-.07a.67.67,0,0,1,.12.34l-.09-.06c0,.09.14.17.14.24s-.06-.12-.08-.11h.07a.68.68,0,0,1,.11.34c-.06-.08,0,.12-.06.07l0-.06s0,0,0,0a3.24,3.24,0,0,0-.17-.32h0l0-.06h0a3.21,3.21,0,0,0-.19-.31s0-.19,0-.18-.07,0-.13-.11.12,0,.15,0,0-.1,0-.12-.25,0-.21.12l-.11-.12s0,0,0-.05h0s0,0,0,0a4.07,4.07,0,0,0-1.38-1h-.17c-1.29,0-3.59.32-4.44,2.39l-.1,0a5.4,5.4,0,0,1,1.53-2.62h0a2.21,2.21,0,0,0-.79.41s0,0,0,0-.11,0-.16.06l-.08.16c-.07,0,0,0-.06,0-.25.16-.41.43-.61.57,0,.08.07,0,0,.12,0-.08,0,0-.11,0s-.11.12-.11.06c0,.14-.2.32-.06.36-.06.1-.1,0-.09,0a1.17,1.17,0,0,1-.22.3s-.09.18-.16.34a.74.74,0,0,0-.08.4c0-.11,0,0-.09.06l0-.09c0,.06,0,.13,0,.19s0,0,0,0,0,0,0,.08-.05.12-.1.19v0l0,.09c0,.06.1-.21.09,0,0,0-.11.11-.08.17,0-.11.06-.09.07,0s0,.1,0,.15l-.07-.06a5.37,5.37,0,0,0,.09,1.32c.06,0,.07.32.16.25h0c0-.11.08,0,.09.1-.06-.08-.05.18-.12,0a1.09,1.09,0,0,0,0,.18c-.08.08,0,.19,0,.32a1.6,1.6,0,0,1,.2.39,0,0,0,0,1,0,0c.06.25.32.44.32.5h.06a.54.54,0,0,0,.25.4s0,0,0,0a.37.37,0,0,0,.14.25v0l.19.19c.05-.06.11,0,.2.13s.17.18.25.13.17.19.24.25h0c0,.13.26.12.36.17s0,.06,0,.07c.16,0,.34.23.41.21s.06,0,.09-.06-.06.12.16.12c0,0-.07,0,0,0s.26-.13.33-.08l-.06,0c.14.07.35-.07.36,0l0,0c.26,0,.11,0,.36,0h0c.11,0,.17,0,.22,0h0a1.34,1.34,0,0,0,.28,0s.09,0,.11,0,.33,0,.38,0c-.1,0-.06,0,0-.06a.15.15,0,0,0,.2,0c0,.08.06.16.25.12,0,0-.08,0-.07,0s.06,0,.08,0-.05,0,0,0,.21-.06.39-.09c-.07,0,0,0,0-.07s.2-.16.18,0c.15-.1.34-.19.51-.29a1,1,0,0,0,.33-.27c0-.05.11-.06.16-.1l0,0c.17,0,.12-.06.31-.13-.09,0-.08,0-.05-.11l.16,0,0-.06a.27.27,0,0,0,.13-.13s0,0,0,0,.24-.15.29-.16.12-.12.08-.2l.06,0s0,.07.06,0h0l0-.05.09-.12s0,0,0,.06a.64.64,0,0,0,0-.07h0a.22.22,0,0,1,.06-.1.72.72,0,0,1,.16-.28.51.51,0,0,0,.13-.31s0,.08,0,.08c.08-.16.06-.36.13-.45l0,0a1.5,1.5,0,0,0,.12-.33h0c0-.08.05-.2.07-.31a.38.38,0,0,0,0-.29m-8.61-1.39v0s0,0,0,0m5,5.21h-.17l.06-.06h0l0,0,0,0,.08,0s0,0,0,0h0s0,0,0,.05m1.9-1,.07-.07a.45.45,0,0,0,.07.07.65.65,0,0,0-.14,0m.43-5.74a.22.22,0,0,1,.11.13l-.11-.13m.13.16h0v0m.85,1.11c0,.05,0,.07,0,0h0m-.31,3.17,0,.05a.53.53,0,0,1-.24.14l.1-.2L50,19.5l-.1.12m.14-.71c0-.05,0-.1,0-.15h.08l-.08,0,0-.14s0,0,0,0a.86.86,0,0,1,0,.3.37.37,0,0,1-.14,0m.13-.75s0-.09,0-.13a.09.09,0,0,0,0,0,.53.53,0,0,1-.06.1m0-.77a4.23,4.23,0,0,0-.11-.62s0,.06,0,.07a.26.26,0,0,1,0-.17.41.41,0,0,0,.05.09c0-.08-.09-.13-.11-.26s.06-.1.15,0a.26.26,0,0,1,0,.23.51.51,0,0,0,0,.28s0-.07.06.09a.52.52,0,0,1-.09.31"/><path class="cls-2" d="M39.87,34.19c-.1,0-.17.14-.24.14a.16.16,0,0,0,.11-.07v.06a.59.59,0,0,1-.34.11c.05,0,0,0-.06,0a2.84,2.84,0,0,1-.54.43.12.12,0,0,0,.1,0,.42.42,0,0,0,.24-.1l.12,0c-.15,0,0,0,0-.1h.09s-.06,0,0,0,.21-.08.28-.06a.09.09,0,0,1,0,.05s0,0,0,0h0c.09-.06.06,0,.07,0s.15-.11.19-.23c-.06.14.23-.15.21,0,0-.11.05,0,.06-.12a.61.61,0,0,1-.33.12Zm-.83.55h0"/><path class="cls-2" d="M41.84,29.94s0,0,.06,0,0-.12,0,0c-.13-.29-.21-.58-.31-.86a2.43,2.43,0,0,0-.43-.79s0,0,0,0,0-.11-.06-.16L41,28c0-.07,0-.05,0-.06-.17-.26-.44-.41-.59-.6-.08,0,0,.06-.12,0,.09,0,0-.05,0-.11s-.13-.11-.07-.11c-.14,0-.31-.2-.35-.06-.11-.06-.06-.1,0-.09a1.17,1.17,0,0,1-.3-.22,1.84,1.84,0,0,1-.34-.15.77.77,0,0,0-.4-.08c.1,0,0,0-.07-.08l.09,0-.18,0h0s0,0-.08,0a.26.26,0,0,1-.19-.1h0l-.09,0c-.06,0,.22.09,0,.09,0,0-.1-.11-.17-.08.11,0,.09,0,0,.06H38l.06-.07a5,5,0,0,0-1.32.11c0,.06-.31.07-.25.16h0c.1,0,0,.08-.1.09.08-.05-.19-.05,0-.12h-.18c-.07-.08-.19,0-.31,0a2.48,2.48,0,0,1-.39.21s0,0,0,0c-.25.06-.44.32-.5.33v.05a.56.56,0,0,0-.39.26s0,0,0,0a.36.36,0,0,0-.25.15h0l-.19.19c.06.05,0,.11-.12.2s-.19.18-.14.26-.18.17-.24.24v0c-.12.05-.11.27-.16.37s-.06,0-.08,0c0,.16-.21.35-.2.41s0,.06.07.1-.13-.07-.13.16c0,0,0-.07,0-.05s.13.26.08.33v-.05c-.07.13.07.35,0,.36l0,0c0,.25,0,.1,0,.36h0c0,.11.05.17,0,.22v0a2.81,2.81,0,0,0,0,.29s0,.08,0,.1,0,.33,0,.39c0-.11,0-.06.06,0a.15.15,0,0,0,0,.2c-.08,0-.16.07-.12.25,0,0,0-.07,0-.06s0,.06,0,.08,0,0,0,0,0,.2.09.38c0-.06,0,0,.07,0s.16.19,0,.17c.1.15.2.34.3.5a.81.81,0,0,0,.28.33s.06.12.09.16l0,0c0,.18.06.12.14.31,0-.09,0-.08.1-.05s0,.11,0,.16l.06,0c0,.06.08.09.13.13s0,0,0,0,.16.24.17.29.11.12.2.08l0,.06s-.08,0,0,.06h0l.05,0,.11.09.38,0a.37.37,0,0,1,0-.11l.2.1h.2c1.3,0,3.59-.31,4.44-2.39l.1,0a5.63,5.63,0,0,1-1.17,2.28l.26-.13h0l.06,0h0l.3-.21s.19,0,.18,0,0-.07.11-.14,0,.12-.05.16.11,0,.12,0,0-.25-.12-.22a.17.17,0,0,1-.13.11,4.11,4.11,0,0,0,1.59-3.25,1.94,1.94,0,0,0,0-.24c.06.05.11.1.15,0v.08c.07,0,0-.25,0-.3l-.09-.24m-8.31,1.57s0,0,0,0,0,.06,0,0v-.18l0,.06a0,0,0,0,1,0,0v.05l0,0a.31.31,0,0,0,0,.08s0,0,0,0m1,2V33.4a.46.46,0,0,0,.07.07.16.16,0,0,0-.07.07m4.06-7.15h0s0,0,0,0m1.5,7.5h0Z"/><polyline class="cls-2" points="39.4 34.35 39.4 34.35 39.41 34.35 39.4 34.35"/><path class="cls-2" d="M23.36,30.3s.06,0,.07,0,0-.12,0,0c-.13-.29-.21-.57-.31-.86a2.29,2.29,0,0,0-.43-.78s0,0,0,0,0-.1-.06-.16l-.16-.07c0-.07,0-.05,0-.06-.17-.25-.44-.4-.59-.6-.08,0,0,.06-.11,0,.08,0,0-.05,0-.11s-.12-.11-.07-.11c-.14,0-.32-.19-.35,0-.11-.06-.05-.11,0-.1a1.91,1.91,0,0,1-.21-.14l-.54,0c-1.3,0-3.59.31-4.44,2.39l-.1,0a5.28,5.28,0,0,1,1.63-2.71c-.07,0-.16,0-.26.07a2.48,2.48,0,0,1-.39.21s0,0,0,0c-.24.06-.44.32-.5.33l0,.05a.6.6,0,0,0-.4.25s0,0,0,0a.4.4,0,0,0-.25.15h0l-.18.19c.05.05,0,.12-.13.2s-.18.18-.13.26-.18.17-.24.24v0c-.12,0-.11.27-.16.36s-.06,0-.07,0c0,.16-.22.35-.21.42s.05.05.07.09-.13-.07-.12.16c0,0,0-.07,0-.05s.14.27.09.33l0,0c-.07.14.07.35,0,.36l0,0c0,.25,0,.11,0,.36h0c0,.11,0,.17,0,.22v0a1.37,1.37,0,0,0,0,.28s0,.09,0,.11,0,.33,0,.38c0-.11,0-.06.06,0s0,.11,0,.19-.16.07-.12.26c0,0,0-.08,0-.07s0,.06,0,.08,0,0,.05,0,0,.21.09.38c0-.06,0,0,.07,0s.16.19,0,.17c.1.15.2.34.3.51a1.22,1.22,0,0,0,.27.32s.07.12.11.17l0,0A2.08,2.08,0,0,0,16,34c0-.1,0-.08.11-.06l0,.16.06,0a.4.4,0,0,0,.13.13s0,0,0,0,.15.23.16.28.12.12.2.08l0,.06s-.07,0,0,.06h0l.05,0,.12.1h-.06l.07,0h0a.14.14,0,0,1,.1.06.7.7,0,0,1,.28.15.41.41,0,0,0,.32.12s-.08,0-.09,0c.17.07.36.06.46.12l0,0a1.6,1.6,0,0,0,.33.11v.05l.31.06a.38.38,0,0,0,.29,0s.22,0,.3,0l0,0a.69.69,0,0,1,.25,0,3.31,3.31,0,0,1,.66-.1v0l.21,0c-.06,0,.05,0,.1,0a.42.42,0,0,0,.24-.09l.12-.05c-.14,0,0-.06,0-.11h.09s-.06,0,0,0,.21-.07.28-.06a.05.05,0,0,1,0,0s0,0,0,0h0c.09-.06.06,0,.07,0s.15-.11.19-.23c-.06.15.23-.15.21,0,0-.11.05,0,.06-.12a.61.61,0,0,1-.33.12l.06-.08c-.1,0-.17.13-.24.14s.11-.06.11-.08v.06a.61.61,0,0,1-.34.12c.08-.06-.11,0-.07-.06l.06,0s0,0,0,0l.33-.17h0l.05,0h0l.3-.2c.05,0,.19,0,.18,0s0-.07.11-.13,0,.11-.05.15.11,0,.12,0,0-.25-.12-.22a.17.17,0,0,1-.13.12l.13-.12A.58.58,0,0,0,22,34s0,0,.05,0v0s0,0,0,0a4.17,4.17,0,0,0,1.33-3,1.94,1.94,0,0,0,0-.24c.06.05.11.1.15,0v.08c.06,0,0-.25,0-.3a2.44,2.44,0,0,0-.1-.24m-8.3,1.58a.06.06,0,0,0,0,0s0,.06-.05,0V31.7l.06.06v.08l0,0a.31.31,0,0,0,0,.08.06.06,0,0,1,0,0m1,2v-.14l.07.07-.07.07m1.31.94,0,0a.49.49,0,0,1-.15-.23l.2.09a2.22,2.22,0,0,0,.11.22l-.12-.1m1,.23a1.18,1.18,0,0,1-.3,0s0-.08,0-.14l.14,0v.08l0-.08.14,0a0,0,0,0,1,0,0m.56.07a.34.34,0,0,1-.11,0H19l0,0m1.34,0a.42.42,0,0,0-.28,0s.08.06-.08.07a.5.5,0,0,1-.31-.09,3.14,3.14,0,0,0,.61-.12l-.07,0a.29.29,0,0,1,.18,0l-.1,0c.09,0,.13-.09.26-.12s.1.07,0,.15a.27.27,0,0,1-.23.05m.26,0h0m1.08-.85h0Z"/><polygon class="cls-2" points="58.89 34.47 59 34.45 58.98 34.45 58.89 34.47"/><polygon class="cls-2" points="57.11 35.31 57.19 35.3 57.19 35.29 57.11 35.31"/><polygon class="cls-2" points="57.24 35.23 57.28 35.22 57.23 35.22 57.24 35.23"/><polygon class="cls-2" points="56.06 35.33 56.07 35.33 56.07 35.32 56.06 35.33"/><polygon class="cls-2" points="55.78 35.33 55.83 35.36 55.83 35.32 55.78 35.33"/><polygon class="cls-2" points="55.61 35.07 55.64 35.02 55.58 35.02 55.61 35.07"/><polygon class="cls-2" points="59.71 33.9 59.7 33.97 59.74 33.89 59.71 33.9"/><polygon class="cls-2" points="46.78 13.59 46.86 13.63 46.77 13.57 46.78 13.59"/><polygon class="cls-2" points="48.63 14.28 48.7 14.33 48.63 14.28 48.63 14.28"/><polygon class="cls-2" points="48.56 14.31 48.56 14.29 48.53 14.27 48.56 14.31"/><polygon class="cls-2" points="49.43 15.06 49.45 15.07 49.44 15.06 49.43 15.06"/><polygon class="cls-2" points="49.6 15.24 49.64 15.27 49.63 15.21 49.6 15.24"/><polygon class="cls-2" points="49.52 15.58 49.56 15.63 49.58 15.58 49.52 15.58"/><polygon class="cls-2" points="45.84 13.43 45.88 13.45 45.94 13.41 45.84 13.43"/><path class="cls-3" d="M23.88,60.92s0,0,0,0h0a.44.44,0,0,0-.21,0,.9.9,0,0,0-.52.2,2.22,2.22,0,0,0-.49.52c-.09.12-.17.25-.26.39s-.16.3-.23.45A4.34,4.34,0,0,0,22,63a1.56,1.56,0,0,0-.07.46v.42a2.11,2.11,0,0,0,0,.3.26.26,0,0,0,.06.15.31.31,0,0,0,.13.06l.2,0s0,0,0,0,0,0,0,0h-1.2s0,0,0,0,0,0,0,0l.16,0a.18.18,0,0,0,.11-.07.26.26,0,0,0,.07-.15,1.91,1.91,0,0,0,0-.28v-.39a2.9,2.9,0,0,0,0-.38,3.31,3.31,0,0,0-.12-.42l-.17-.42c-.07-.13-.13-.25-.2-.36a3.13,3.13,0,0,0-.6-.69,1,1,0,0,0-.56-.22h-.16l-.13,0s0,0,0,0,0,0,0,0a1.17,1.17,0,0,1,.2-.12.91.91,0,0,1,.38-.06,1.09,1.09,0,0,1,.4.07,1.12,1.12,0,0,1,.33.2,1.28,1.28,0,0,1,.29.28,3.43,3.43,0,0,1,.24.33,5.59,5.59,0,0,1,.3.6,4.6,4.6,0,0,1,.2.66l0-.22c0-.1.06-.21.1-.34s.1-.25.17-.4a2.9,2.9,0,0,1,.26-.43,2.42,2.42,0,0,1,.31-.37,2,2,0,0,1,.3-.23,1.24,1.24,0,0,1,.28-.11l.25,0a.71.71,0,0,1,.21,0A.3.3,0,0,1,23.88,60.92Z"/><path class="cls-3" d="M25.66,60.84a.54.54,0,0,0,0-.08s0,0,0,0,0,0,0,0l0,.08c0,.12.1.3.19.53s.18.5.29.78.22.59.33.91L27,64l.1.2a.63.63,0,0,0,.1.12l.13.07.18,0s0,0,0,0a0,0,0,0,1,0,0H26.32s0,0,0,0,0,0,0,0a.3.3,0,0,0,.21-.08.47.47,0,0,0,0-.27l-.15-.47c-.07-.18-.13-.35-.19-.53H25c0,.06-.05.13-.08.21l-.09.25c0,.09-.07.18-.1.27s0,.18-.08.25a.48.48,0,0,0,0,.19.18.18,0,0,0,0,.11.31.31,0,0,0,.1,0l.13,0s0,0,0,0,0,0,0,0H23.85a0,0,0,0,1,0,0s0,0,0,0l.11,0,.12,0,.12-.1a.74.74,0,0,0,.12-.16c.08-.16.17-.36.27-.59s.19-.46.29-.7Zm.44,2-.24-.67-.26-.67a2.85,2.85,0,0,0-.12.29l-.15.36-.26.69h1Z"/><path class="cls-3" d="M31.91,61.33l0,.68c0,.22,0,.45,0,.7s0,.5,0,.77v1l0,0a0,0,0,0,1,0,0,.7.7,0,0,1-.09-.09l-.29-.32-.32-.36-.39-.4-.48-.49-.74-.76c-.22-.23-.39-.39-.52-.51,0,.12,0,.27,0,.45s0,.39,0,.61,0,.45,0,.68,0,.45,0,.65a.46.46,0,0,0,.1.29.59.59,0,0,0,.37.13s0,0,0,0a0,0,0,0,1,0,0H28.4a0,0,0,0,1,0,0s0,0,0,0a.41.41,0,0,0,.23-.1.5.5,0,0,0,.08-.29c0-.16,0-.34,0-.53s0-.38,0-.56,0-.37,0-.54V60.79l0,0h0l.09.09.69.74c.24.26.51.53.8.82l.7.71c.21.21.4.39.56.53V62.58q0-.55,0-1.17c0-.11,0-.2,0-.26a.34.34,0,0,0-.06-.16.36.36,0,0,0-.12-.08.69.69,0,0,0-.19,0,0,0,0,0,1,0,0s0,0,0,0h1s0,0,0,0a0,0,0,0,1,0,0c-.11,0-.19.06-.22.14A.84.84,0,0,0,31.91,61.33Z"/><path class="cls-3" d="M35.49,60.72a4.56,4.56,0,0,1,.55,0,2.11,2.11,0,0,1,.48.12.4.4,0,0,1,.19.11.39.39,0,0,1,.07.23c0,.09,0,.18,0,.29s0,.22,0,.33a0,0,0,0,1-.05,0,0,0,0,0,1,0,0,1.28,1.28,0,0,0-.12-.43.91.91,0,0,0-.25-.3,1.09,1.09,0,0,0-.36-.17,1.51,1.51,0,0,0-.44-.06,1.86,1.86,0,0,0-.7.13,1.3,1.3,0,0,0-.48.35,1.35,1.35,0,0,0-.27.55,2.31,2.31,0,0,0-.08.71,1.84,1.84,0,0,0,.48,1.29,1.62,1.62,0,0,0,1.22.46H36l.22,0a.23.23,0,0,0,.12,0,.22.22,0,0,0,0-.16v-.75a.73.73,0,0,0-.05-.25.34.34,0,0,0-.1-.13.35.35,0,0,0-.14-.06l-.16,0a0,0,0,0,1,0-.06h1.14a0,0,0,0,1,0,0,0,0,0,0,1,0,0l-.14,0a.21.21,0,0,0-.08.1.58.58,0,0,0-.05.17c0,.08,0,.17,0,.29V64a.92.92,0,0,0,0,.16v.16a.63.63,0,0,1-.22.09l-.28.07c-.11,0-.21,0-.32,0h-.32a2.84,2.84,0,0,1-.84-.11,2.08,2.08,0,0,1-.68-.35,1.67,1.67,0,0,1-.47-.58,1.87,1.87,0,0,1-.17-.82,2.34,2.34,0,0,1,.13-.77,1.81,1.81,0,0,1,.39-.62,1.66,1.66,0,0,1,.62-.4A2.31,2.31,0,0,1,35.49,60.72Z"/><path class="cls-3" d="M38.39,64.09a1.87,1.87,0,0,1,0-.33,2.43,2.43,0,0,1,0-.3s0,0,0,0a0,0,0,0,1,0,0,1.11,1.11,0,0,0,.23.68.71.71,0,0,0,.58.24.82.82,0,0,0,.59-.19.68.68,0,0,0,.2-.49,1,1,0,0,0,0-.32.66.66,0,0,0-.17-.24,1.4,1.4,0,0,0-.26-.21l-.36-.2a1.49,1.49,0,0,1-.3-.18,1.32,1.32,0,0,1-.43-.54,1,1,0,0,1,0-.39.83.83,0,0,1,.29-.65,1,1,0,0,1,.75-.25l.32,0,.22.06a.3.3,0,0,1,.17.11.41.41,0,0,1,0,.22,1.78,1.78,0,0,0,0,.2c0,.09,0,.17,0,.23s0,0,0,0a0,0,0,0,1,0,0,1.22,1.22,0,0,0-.06-.26.65.65,0,0,0-.13-.23.8.8,0,0,0-.21-.15.7.7,0,0,0-.3-.06A.67.67,0,0,0,39,61a.56.56,0,0,0-.19.47A.69.69,0,0,0,39,62a1.59,1.59,0,0,0,.46.33,4.68,4.68,0,0,1,.46.27,1.49,1.49,0,0,1,.32.28.79.79,0,0,1,.17.31.9.9,0,0,1,.05.38.83.83,0,0,1-.09.39,1.09,1.09,0,0,1-.61.5,1.65,1.65,0,0,1-.46.06,2.21,2.21,0,0,1-.39,0l-.27-.09a.4.4,0,0,1-.16-.13A.3.3,0,0,1,38.39,64.09Z"/><path class="cls-3" d="M45.12,63.73c0,.12,0,.23,0,.3a.74.74,0,0,0,0,.19.18.18,0,0,0,.11.1.72.72,0,0,0,.2.05s0,0,0,0a0,0,0,0,1,0,0H44.34s0,0,0,0,0,0,0,0a.4.4,0,0,0,.17,0,.27.27,0,0,0,.11-.1.74.74,0,0,0,.05-.19c0-.09,0-.19,0-.32a2,2,0,0,1,0-.22v-.86h-1l-1.06,0v.55c0,.11,0,.21,0,.31v.21a2.73,2.73,0,0,0,0,.32.74.74,0,0,0,.05.19.27.27,0,0,0,.11.1.42.42,0,0,0,.18,0s0,0,0,0a0,0,0,0,1,0,0H41.83a0,0,0,0,1,0,0s0,0,0,0a.64.64,0,0,0,.2-.05.21.21,0,0,0,.11-.1.49.49,0,0,0,0-.19c0-.07,0-.18,0-.3v-.5c0-.1,0-.2,0-.29v-.57c0-.12,0-.24,0-.35V61.5c0-.13,0-.23,0-.3a.56.56,0,0,0,0-.18.18.18,0,0,0-.11-.1.72.72,0,0,0-.2-.05s0,0,0,0a0,0,0,0,1,0,0H43s0,0,0,0,0,0,0,0a.61.61,0,0,0-.17,0,.15.15,0,0,0-.1.09.33.33,0,0,0-.05.19,2.41,2.41,0,0,0,0,.31v.15a1.62,1.62,0,0,0,0,.23v.57h2.07v-.56c0-.16,0-.29,0-.38a2.54,2.54,0,0,0,0-.31.64.64,0,0,0,0-.19.21.21,0,0,0-.11-.1.61.61,0,0,0-.17,0s0,0,0,0,0,0,0,0h1.15a0,0,0,0,1,0,0s0,0,0,0a.72.72,0,0,0-.2.05.21.21,0,0,0-.11.1.78.78,0,0,0,0,.19,2.54,2.54,0,0,0,0,.3s0,.1,0,.19V62c0,.11,0,.22,0,.32v.51c0,.11,0,.22,0,.33v.33C45.11,63.58,45.12,63.67,45.12,63.73Z"/><path class="cls-3" d="M50.17,62.69a3.55,3.55,0,0,1-.08.76,1.54,1.54,0,0,1-.26.58,1.17,1.17,0,0,1-.45.37,1.71,1.71,0,0,1-.67.12,2.43,2.43,0,0,1-.72-.09,1,1,0,0,1-.47-.31,1.31,1.31,0,0,1-.27-.54,3.34,3.34,0,0,1-.08-.76v-1.1c0-.09,0-.16,0-.21a2.68,2.68,0,0,0,0-.34.49.49,0,0,0-.08-.19.2.2,0,0,0-.13-.08l-.2,0s0,0,0,0a0,0,0,0,1,0,0h1.2a0,0,0,0,1,0,0s0,0,0,0l-.15,0a.24.24,0,0,0-.11.09.93.93,0,0,0-.06.18c0,.08,0,.19,0,.34v1.28a6.1,6.1,0,0,0,0,.64,1.23,1.23,0,0,0,.17.5.88.88,0,0,0,.34.32,1.41,1.41,0,0,0,.59.11,1,1,0,0,0,.58-.14,1.1,1.1,0,0,0,.35-.36,1.94,1.94,0,0,0,.18-.53,4,4,0,0,0,0-.61v-.58c0-.13,0-.26,0-.4s0-.27,0-.41a1.21,1.21,0,0,0,0-.23.64.64,0,0,0-.06-.14.24.24,0,0,0-.11-.06.65.65,0,0,0-.16,0,0,0,0,0,1,0,0s0,0,0,0h1s0,0,0,0,0,0,0,0a.28.28,0,0,0-.22.11.69.69,0,0,0-.08.35c0,.11,0,.23,0,.35v.37c0,.13,0,.24,0,.35Z"/><path class="cls-3" d="M55.54,62.55a2,2,0,0,1-.15.78A2.08,2.08,0,0,1,55,64a1.87,1.87,0,0,1-.61.41,1.94,1.94,0,0,1-.76.15,2.65,2.65,0,0,1-.77-.11,1.84,1.84,0,0,1-.61-.35,1.72,1.72,0,0,1-.4-.57,2.25,2.25,0,0,1-.17-.79,2.08,2.08,0,0,1,.13-.79,1.93,1.93,0,0,1,.42-.63,2.06,2.06,0,0,1,.65-.41,2.23,2.23,0,0,1,.83-.15,1.8,1.8,0,0,1,.79.16,1.74,1.74,0,0,1,.58.41,1.76,1.76,0,0,1,.36.58A2,2,0,0,1,55.54,62.55Zm-2.07-1.66a1.55,1.55,0,0,0-.59.14,1.29,1.29,0,0,0-.41.36,1.63,1.63,0,0,0-.25.53,3,3,0,0,0-.08.69,2.3,2.3,0,0,0,.1.71,1.77,1.77,0,0,0,.3.56,1.51,1.51,0,0,0,.47.36,1.61,1.61,0,0,0,.63.13,1.39,1.39,0,0,0,1-.44,1.59,1.59,0,0,0,.29-.49,1.81,1.81,0,0,0,.1-.63A2.88,2.88,0,0,0,55,62.1a1.86,1.86,0,0,0-.29-.62,1.62,1.62,0,0,0-.5-.44A1.43,1.43,0,0,0,53.47,60.89Z"/></svg>