<svg id="Layer_1" data-name="Layer 1" xmlns="http://www.w3.org/2000/svg" viewBox="0 0 140 20"><defs><style>.cls-1{fill:#673065;}.cls-2{fill:#5c5e5e;}</style></defs><title>yaonoi-mobile</title><path class="cls-1" d="M26.38,17.78c0-.18,0-.34,0-.48s0,0-.05-.05,0,0,0-.05,0-.09,0-.07-.05-.21-.12-.17,0-.06,0,0a.53.53,0,0,1,0-.21,2,2,0,0,1-.08-.2.51.51,0,0,0-.13-.19c.06,0,0,0,0-.06l.05,0-.06-.09v0s0,0-.05,0A.15.15,0,0,1,26,16h0l0,0s0,.13,0,0,0-.09,0-.1,0,.06,0,.05l-.05-.07h.05a2.74,2.74,0,0,0-.58-.49s-.15-.1-.16,0h0c.05,0,0,0-.08,0s-.06-.09.06,0l0,0h-.29a2.57,2.57,0,0,0-2.53,1.36l-.06,0a3.07,3.07,0,0,1,.92-1.53s-.06.05-.09.05,0,0,0,0-.23,0-.25.08,0,0,0,.07,0-.08-.11,0,0,0,0,0-.05.15-.1.16v0c-.08,0-.11.17-.16.13v0c-.08.12-.05,0-.14.15h0c-.05,0-.05.09-.11.08l0,0a.63.63,0,0,0-.11.12l0,0s-.13.14-.15.17,0,0,0,0-.06,0-.07.09-.09,0-.15.05,0,0,0,0,0,0,0,0,0,0,0,0-.07.11-.12.2,0,0,0,0,0,.14-.06.08c0,.1-.05.22-.08.32a.83.83,0,0,0,0,.25s0,.07,0,.1h0a1.71,1.71,0,0,0-.07.18s0,0,.06,0,0,0,0,.08h0a.17.17,0,0,0,0,.1h0c-.05,0,0,.15-.05.18s0,.09.05.11a.43.43,0,0,0,0,.05s0,0,0,0h0s0,.07,0,.09l0,0s0,0,0,0h0a.15.15,0,0,1,0,.07.34.34,0,0,1,.05.17.3.3,0,0,0,.08.18l0,0c0,.1.12.17.14.24h0a.68.68,0,0,0,.09.17l0,0,.1.16c0,.05.08.1.13.1s.08.08.12.12h0a.46.46,0,0,1,.1.1.5.5,0,0,1,.12.08l-.06,0,.08,0a0,0,0,0,0,0,0,2.31,2.31,0,0,0,.19.14h0l.1.07s0,0,0,0a.19.19,0,0,0,.13,0l.07,0c-.07-.05,0,0,0-.05l0,0s0,0,0,0,.11.05.13.09h0c.06,0,0,0,0,0s.11,0,.17,0,.16,0,.1.08,0,0,.07,0a.37.37,0,0,1-.18-.08l.06,0s-.12,0-.15,0,.07,0,.07,0l0,0a.44.44,0,0,1-.18-.09s-.05,0,0-.05h0s0,0,0,0l.24.08h0l.19,0s.1.07.07.09,0,0,.09,0-.06,0-.08,0,.05,0,.06,0,.09-.11,0-.13a.1.1,0,0,1-.11,0,2.32,2.32,0,0,0,1.95-.66l.09-.11c0,.05,0,.09,0,.08l0,0s.09-.1.14-.1,0-.09.05-.14,0,0,0,0,0-.05,0,0a5.12,5.12,0,0,1,.22-.47,1.27,1.27,0,0,0,.15-.49s0,0,0,0,0-.06,0-.09a.42.42,0,0,0,0-.1s0,0,.05,0m-4.82-.36h0l.06-.06s0,0,0,.07m.1,1a.28.28,0,0,0,0-.09h0a.27.27,0,0,1,0-.17c0,.05,0,.09,0,.13a1.09,1.09,0,0,1-.05.14M22,16.1v0h0l0,0h0l0,0s0,0,0,0h0A.46.46,0,0,1,22,16.1m0,2.72a1,1,0,0,1-.14-.1s0,0,.07-.06a.25.25,0,0,0,0,.07l0,0,0,0,0,.06s0,0,0,0m.23.25h0a.41.41,0,0,1,0-.08.27.27,0,0,1,.07.08h0m.62.63h0m0-.14-.06,0a.77.77,0,0,1,.15.06s0,.06-.05.07a.17.17,0,0,1-.11-.08.26.26,0,0,0-.12-.11s0,.05-.06,0a.24.24,0,0,1-.08-.16,2.34,2.34,0,0,0,.43.26h0a.47.47,0,0,0-.16-.07.24.24,0,0,1,.08.06m.82.24h0M26,16.17h0s0,0,0,0"/><path class="cls-1" d="M20.5,10.17s0-.13,0-.18h0a.74.74,0,0,1,0-.15.69.69,0,0,1,0-.13.17.17,0,0,0,0,.05.37.37,0,0,0,0-.09s0,0,0,0a1.57,1.57,0,0,0,0-.24h0s0-.08,0-.12,0,0,0-.06a.27.27,0,0,0,0-.14l0-.07c0,.09,0,0-.06,0a.43.43,0,0,0,0-.05s0,0,0,0,0-.12,0-.16l0,0v0c0-.05,0,0,0,0s-.06-.09-.13-.11c.09,0-.08-.13,0-.12s0,0-.07,0a.49.49,0,0,1,.07.19l-.05,0s.07.09.08.13,0-.06-.05-.06h0a.29.29,0,0,1,.06.19s0,.07,0,0l0,0s0,0,0,0A1.51,1.51,0,0,0,20,8.79l0,0,0,0h0c0-.06-.07-.11-.1-.16s0-.11,0-.11,0,0-.08-.06.07,0,.09,0,0-.06,0-.07-.15,0-.13.07a.09.09,0,0,1,.06.08,2.39,2.39,0,0,0-.93-.73h-.07a2.58,2.58,0,0,0-2.53,1.36l-.05,0a3,3,0,0,1,.88-1.49h0a1.28,1.28,0,0,0-.45.23s0,0,0,0-.06,0-.1,0l0,.09s0,0,0,0-.23.24-.35.33,0,0,0,.06,0,0-.06,0-.06.07-.06,0-.11.17,0,.2-.05,0-.05,0a1,1,0,0,1-.12.17L15.73,9a.37.37,0,0,0-.05.23c0-.06,0,0,0,0l0,0,0,.1v0s0,0,0,.05a.23.23,0,0,1-.06.11v0s.06-.12.06,0-.07.06-.05.1,0-.05,0,0a.28.28,0,0,0,0,.09l0,0a2.81,2.81,0,0,0,.05.76s0,.17.09.14h0c0-.06,0,0,0,.06s0,.1-.07,0c0,0,0,.07,0,.1s0,.11,0,.18a1.2,1.2,0,0,1,.11.23v0c0,.14.18.25.18.28h0a.36.36,0,0,0,.14.23s0,0,0,0a.19.19,0,0,0,.09.14h0l.1.11s.07,0,.12.07.1.11.15.08.09.11.13.14h0c0,.07.16.06.21.09s0,0,0,0,.2.13.23.12,0,0,.06,0,0,.08.08.08,0,0,0,0,.15-.08.19-.05h0c.07,0,.2,0,.2,0v0c.15,0,.06,0,.21,0h0c.06,0,.09,0,.12,0h.21s.18,0,.21,0,0,0,0,0,.07,0,.12,0,0,.1.14.07h0s0,0,0,0,.11,0,.21,0,0,0,0,0,.11-.1.1,0,.19-.11.29-.17.17-.11.18-.15.07,0,.1-.06h0c.1,0,.06,0,.18-.08-.06,0-.05,0,0-.06l.09,0,0,0a.14.14,0,0,0,.07-.08s0,0,0,0,.14-.08.17-.09.06-.06,0-.11l0,0s0,0,0,0h0l0,0,.06-.06v0a.06.06,0,0,0,0,0h0l0-.06a.37.37,0,0,1,.09-.16.29.29,0,0,0,.07-.18s0,0,0,0,0-.21.07-.26h0a.82.82,0,0,0,.06-.19h0s0-.12,0-.19a.23.23,0,0,0,0-.15m-4.9-.8h0s0,0,0,0m2.87,2.94h0s0,0,0,0h-.1l0,0h0l0,0s0,0,0,0m1.07-.57.05,0,0,0h-.09m.32-3.17h0v0l0,0m.49.63s0,0,0,0h0M20.18,11v0a.29.29,0,0,1-.15.09L20.1,11l.13-.06-.05.06m.07-.4,0-.08h0a.22.22,0,0,0,0-.08h0a.67.67,0,0,1,0,.18h-.09m.07-.42a.28.28,0,0,0,0-.09h0l0,0s0,0,0,.06m0-.45a2.73,2.73,0,0,0-.1-.48h0a.78.78,0,0,0,.06.16.16.16,0,0,1,0-.1l0,.06c0-.05-.06-.08-.07-.15s0-.06.09,0a.13.13,0,0,1,0,.13.28.28,0,0,0,0,.16s0,0,0,.05a.24.24,0,0,1-.06.17"/><path class="cls-1" d="M11,10.14a1.89,1.89,0,0,0,.06-.18s0,0-.06,0a.35.35,0,0,0,.05-.08h0a.16.16,0,0,0,0-.1h0c.05,0,0-.16.05-.18s0-.09-.05-.11a.07.07,0,0,0,0-.05s.05,0,0,0h0a.19.19,0,0,0,0-.08l0,0,0,0h0a.14.14,0,0,1,0-.07.48.48,0,0,1-.05-.17.25.25,0,0,0-.08-.18s0,0,0,.05-.12-.17-.13-.24h0a.67.67,0,0,0-.08-.17l0,0-.11-.16c0-.05-.08-.1-.12-.1s-.09-.08-.12-.12h0a.93.93,0,0,1-.1-.1.52.52,0,0,1-.11-.07h.05l-.08,0,0,0a1.33,1.33,0,0,0-.19-.14h0l-.09-.07s0,0-.05,0a.22.22,0,0,0-.14,0,.15.15,0,0,0-.07,0c.07,0,0,0,0,0l0,0s0,0,0,0-.11,0-.13-.09h0c-.06,0,0,0,0,0s-.11,0-.17,0-.15,0-.1-.08,0,0-.07,0a.41.41,0,0,1,.19.08H9.13c0,.06.12,0,.15,0s-.07,0-.08,0l0,0a.34.34,0,0,1,.18.09c-.06,0,.05,0,0,0h0s0,0,0,0l-.24-.07h0l-.19,0s-.09-.06-.06-.08,0,0-.1,0,.06,0,.08,0,0,0,0,0-.09.11,0,.13a.09.09,0,0,1,.1,0,2.32,2.32,0,0,0-1.95.66l-.09.11c0-.05,0-.09,0-.08l0,0s-.09.1-.14.1l-.06.14s0,0,0,0,0,.05,0,0a3.38,3.38,0,0,1-.22.47,1.38,1.38,0,0,0-.14.49s0,0,0,0,0,.06,0,.09a.42.42,0,0,1,0,.1s0,0,0,0c0,.18,0,.34,0,.48s0,0,0,0,0,0,0,.06,0,.09,0,.07,0,.21.12.16,0,.07,0,0a.86.86,0,0,1,0,.21l.07.19a.49.49,0,0,0,.13.2s0,0,0,.06l0,0,0,.09,0,0s0,0,0,0a.21.21,0,0,1,0,.12h0l0,0s0-.12,0,0,0,.09,0,.1,0-.06,0,0a.18.18,0,0,0,0,.07h0a2.68,2.68,0,0,0,.57.49s.16.1.17,0h0s0,0,.07,0,.06.09-.06,0l0,0h.3a2.59,2.59,0,0,0,2.53-1.36l.05,0a3.06,3.06,0,0,1-.91,1.53s.06-.05.09-.05,0,0,0,0,.22-.05.24-.08,0,0,0-.07,0,.08.12,0h0s.05-.17.1-.17l0,0c.08,0,.11-.17.16-.13v0c.09-.12.06,0,.14-.15h0s0-.08.1-.08v0a.63.63,0,0,0,.11-.12.08.08,0,0,0,0,0s.13-.14.14-.17,0,0,0,0,.06,0,.07-.09.09,0,.14,0l0,0s0,0,0,0,0,0,0,0,.06-.1.12-.18,0,0,0,0,0-.14.06-.08c0-.1.06-.22.08-.33a.42.42,0,0,0,0-.24s0-.07,0-.1Zm-4.53,1s0,0,0,0ZM8.88,7.57h0m.8.09h0m-.07.13h0a.47.47,0,0,0,.16.07.17.17,0,0,1-.08-.06l.06,0s-.09,0-.15-.06,0-.06.05-.07.09,0,.11.08a.28.28,0,0,0,.11.11s0,0,.06,0a.24.24,0,0,1,.08.16,2.26,2.26,0,0,0-.42-.26m.69.49h0a.12.12,0,0,1,0,.07l-.06-.08m.25,3v0h0l0,0h0l0,0s0,0,0,0h0l-.07.07m.06-2.56a.25.25,0,0,1,0-.07l0,0,0,0a.43.43,0,0,1,0-.07,0,0,0,0,1,0,0,1.28,1.28,0,0,1,.15.1.22.22,0,0,1-.07.06m.22.52,0-.13a1.27,1.27,0,0,1,0-.14s0,.06,0,.09h0a.37.37,0,0,1-.05.17m.11.79V9.94H11l-.06.07"/><path class="cls-1" d="M15.73,2.5a.21.21,0,0,0,0-.16h0V2.19s0-.06,0-.13,0-.15-.05-.16,0-.14,0-.19h0c0-.07-.06-.15-.08-.21s0,0,0,0,0-.23-.08-.25,0,0-.07,0,.08,0,0-.12,0,0,0,0-.16-.06-.17-.1h0c0-.08-.17-.11-.13-.16h0c-.12-.09,0-.06-.15-.14h0S15,.68,15,.63h0L14.89.53s0,0-.05,0-.13-.13-.16-.14,0,0,0,0,0-.07-.09-.07a.11.11,0,0,0,0-.08l-.42,0a2.57,2.57,0,0,0-2.53,1.36l-.06,0A3.26,3.26,0,0,1,12.39.14l0,0h.07l0,0h0l.1-.09a.35.35,0,0,1-.11,0,.27.27,0,0,0-.17.08s0,0,.05,0-.17.12-.24.13v0a.76.76,0,0,0-.18.09l0,0-.15.11c-.05,0-.1.08-.1.12s-.09.09-.13.12v0a.46.46,0,0,1-.1.1.31.31,0,0,1-.08.11s0,0,0,0a.15.15,0,0,0,0,.08s0,0,0,0a.85.85,0,0,0-.14.19h0l-.08.1s0,0,0,0a.3.3,0,0,0-.06.14l0,.07c0-.07,0,0,0,0l0,0s0,0,0,0-.06.12-.09.14,0,0,0,0h0c0,.06,0,0,0,0s0,.11,0,.17,0,.15-.08.1,0,0,0,.07a.37.37,0,0,1,.08-.18v.06c.05,0,0-.13,0-.16a.08.08,0,0,0,0,.08l0,0A.24.24,0,0,1,11,1.56c0,.05,0-.06.05,0l0,0s0,0,0,0-.05.16-.07.24a.43.43,0,0,0,0-.05v.06A1.29,1.29,0,0,0,11,2s-.06.09-.08.06,0,0,0,.1,0-.06-.05-.08,0,0,0,0,.12.09.14,0a.09.09,0,0,1,0-.1,2.32,2.32,0,0,0,.66,2,.48.48,0,0,0,.11.09c-.05,0-.09,0-.09,0l0,0s.1.1.1.14l.13.06s0,0,0,0,.06,0,0,0a4,4,0,0,1,.47.22,1.33,1.33,0,0,0,.48.14s0,0,0,0,.05,0,.09,0l.09,0s0,0,0,0c.17,0,.34,0,.48,0s0,0,0,0,0,0,.05,0,.1,0,.08,0,.2,0,.16-.12.06,0,.05,0a.78.78,0,0,1,.21,0l.19-.07c.09,0,.18-.09.19-.13s0,0,.07,0l0,.05.1-.06,0,0s0,0,0,0a.21.21,0,0,1,.12,0h0l0,0s-.12,0,0,0,.09,0,.1,0-.05,0,0,0l.06-.06v0a2.72,2.72,0,0,0,.49-.57s.09-.16,0-.17v0c0,.05,0,0,0-.08s.1-.06,0,.06l.07-.08c.06,0,.09-.06.11-.14a1.69,1.69,0,0,1,.08-.24h0c.08-.13,0-.31.07-.33l0,0a.34.34,0,0,0,.06-.26s0,0,0,0M12,.29s0,0,.06.06L12,.39l0,0,0,0L12,.44a0,0,0,0,1,0,0A.42.42,0,0,1,12,.29M11.76.6l-.08.06h0a0,0,0,0,0,0,0l.08,0m-.7.68h0s0,0,0,0m-.09.8h0l0,0v0m.21-.73h0c0-.08.07-.14.07-.16a.2.2,0,0,1-.06.07s0,0,0-.06,0,.1-.06.16-.07,0-.07-.05a.14.14,0,0,1,.07-.12.23.23,0,0,0,.11-.11s0,0,0-.06a.26.26,0,0,1,.17-.08,3,3,0,0,0-.27.42m3.4,3.14s0,0,0,0Zm0-4.07,0,0v0l0,0s0,0,0,0h0s0,0,0,0l.07.08h-.05"/><path class="cls-1" d="M15.63,16.88s0-.07,0,0c-.07-.17-.12-.33-.18-.49a1.16,1.16,0,0,0-.24-.45s0,0,0,0,0-.06,0-.09l-.1-.05s0,0,0,0-.25-.23-.33-.34,0,0-.07,0,0,0,0-.06-.07-.06-.05-.06-.17-.11-.19,0,0-.06,0-.06a.81.81,0,0,1-.18-.12L14.12,15a.37.37,0,0,0-.23-.05c.06,0,0,0,0,0l.05,0-.11,0h0s0,0,0,0a.13.13,0,0,1-.11-.06h0s.12.05,0,.05-.06-.06-.09,0,0,0,0,0h-.08l0,0a2.4,2.4,0,0,0-.75.06s-.18,0-.14.09h0c.06,0,0,.05-.06.05s-.11,0,0-.07h-.11s-.11,0-.18,0a.94.94,0,0,1-.22.12h0c-.14,0-.25.18-.28.18v0a.33.33,0,0,0-.22.15s0,0,0,0a.27.27,0,0,0-.15.09h0l-.1.1s0,.07-.07.12-.11.1-.08.15-.1.09-.14.13a0,0,0,0,1,0,0c-.07,0-.07.16-.1.22s0,0,0,0-.12.2-.11.24,0,0,0,.05-.08,0-.08.09,0,0,0,0,.08.14.05.18v0c0,.08,0,.2,0,.21h0c0,.14,0,.06,0,.2h0c0,.06,0,.1,0,.13v0a.92.92,0,0,0,0,.16s0,.05,0,.06,0,.19,0,.22,0,0,0,0a.09.09,0,0,0,0,.11s-.09,0-.06.14,0,0,0,0a.06.06,0,0,1,0,0s0,0,0,0,0,.12,0,.22,0,0,0,0,.09.11,0,.1l.17.29a.6.6,0,0,0,.15.18s0,.07.06.1l0,0a1.26,1.26,0,0,0,.08.18c0-.06,0,0,.06,0s0,.06,0,.08h0a.16.16,0,0,0,.07.07s0,0,0,0,.09.13.1.16.06.07.11,0l0,0s-.05,0,0,0h0l0,0a.34.34,0,0,0,.06.06h.23s0,0,0-.07l.11.06h.12a2.57,2.57,0,0,0,2.53-1.35h.05a3.2,3.2,0,0,1-.66,1.29l.17-.09,0,0,0,0h0l.16-.11s.11,0,.11,0,0,0,.06-.08,0,.07,0,.09.06,0,.07,0,0-.15-.07-.13a.09.09,0,0,1-.08.06,2.34,2.34,0,0,0,.91-1.85.68.68,0,0,0,0-.14s.07.07.09,0v0s0-.14,0-.16l-.06-.14s0,0,0,0m-4.76.9v0s0,0,0,0v-.1l0,0v0a.09.09,0,0,1,0,.05h0m.58,1.15v-.09l.05.05a.1.1,0,0,0-.05,0m2.31-4.07h0s0,0,0,0m.83,4.28,0,0h0Z"/><path class="cls-1" d="M5.12,17.08s0-.06,0,0c-.07-.16-.12-.32-.18-.49a1.18,1.18,0,0,0-.24-.44s0,0,0,0,0-.06,0-.09l-.1,0s0,0,0,0-.25-.23-.33-.34,0,0-.07,0,0,0,0-.06-.07-.07,0-.07-.18-.11-.21,0,0-.06,0,0l-.11-.08H3.54A2.55,2.55,0,0,0,1,16.66H1a3.06,3.06,0,0,1,.93-1.54.23.23,0,0,0-.15,0,.94.94,0,0,1-.22.12h0c-.14,0-.25.18-.28.19v0a.36.36,0,0,0-.23.14s0,0,0,0a.23.23,0,0,0-.14.09h0a.52.52,0,0,0-.1.11s0,.06-.07.11-.11.11-.08.15-.1.1-.14.14a0,0,0,0,1,0,0c-.08,0-.07.16-.1.21s0,0,0,0-.12.2-.12.23,0,0,0,.06-.08,0-.08.09l0,0c0,.05.08.15,0,.19v0c0,.08,0,.2,0,.2h0c0,.15,0,.06,0,.21h0c0,.06,0,.09,0,.12v0a1,1,0,0,0,0,.17.06.06,0,0,0,0,.06s0,.18,0,.22,0,0,0,0,0,.06,0,.11-.09,0-.06.14,0,0,0,0,0,0,0,.05,0,0,0,0,0,.11.06.21,0,0,0,0,.09.11,0,.1.12.19.18.28a.46.46,0,0,0,.15.19s0,.06.06.09v0c0,.1,0,.07.08.18,0-.05,0-.05.06,0l0,.09,0,0a.1.1,0,0,0,.07.07s0,0,0,0,.09.14.1.17.06.06.11,0l0,0s-.05,0,0,0h0l0,0,.06.05h0a.07.07,0,0,1,.06,0,.37.37,0,0,1,.16.09.26.26,0,0,0,.18.07l-.05,0c.1,0,.21,0,.27.07v0a.64.64,0,0,0,.18.06v0l.18,0a.26.26,0,0,0,.16,0s.12,0,.18,0v0a.38.38,0,0,1,.15,0,.61.61,0,0,1,.13,0l0,0,.08,0H3a2,2,0,0,0,.24,0h.12s0,0,.06,0a.35.35,0,0,0,.13-.05l.07,0c-.08,0,0,0,0-.06h.05s0,0,0,0,.13,0,.16,0a0,0,0,0,1,0,0h0s0,0,0,0,.09-.06.11-.13c0,.09.13-.08.12,0s0,0,0-.07-.13.06-.19.08l0,0s-.09.07-.13.08a.1.1,0,0,0,.06-.05v0a.29.29,0,0,1-.19.06s-.07,0,0,0h0s0,0,0,0a.94.94,0,0,0,.22-.12.08.08,0,0,1,0,0l0,0v0l.16-.11s.11,0,.1,0,0,0,.07-.08,0,.07,0,.09.06,0,.06,0,0-.14-.06-.12a.11.11,0,0,1-.09.06A2.33,2.33,0,0,0,5,17.46a.68.68,0,0,0,0-.14s.07.06.09,0v0s0-.14,0-.17l-.06-.13s0,0,0,0M.36,18v0s0,0,0,0v-.1l0,0v0h0s0,0,0,0,0,0,0,0m.58,1.15V19a.21.21,0,0,1,0,.06l0,0m.75.54h0a.38.38,0,0,1-.09-.15l.12.07.06.12-.06,0m.57.13-.17,0s0-.05,0-.08l.07,0v0h.07a0,0,0,0,1,0,0m.34,0s0,0,0,0a.13.13,0,0,1-.07,0H2.6m.74,0a.27.27,0,0,0-.16,0s0,0,0,0A.25.25,0,0,1,3,19.79a2.68,2.68,0,0,0,.49-.11h0a.89.89,0,0,0-.16.07s.07,0,.1,0l-.06,0s.08-.05.15-.06.06,0,0,.08a.16.16,0,0,1-.14,0m.15,0h0m.59-.48,0,0h0Z"/><path class="cls-2" d="M105,7.39a.81.81,0,0,0-.33-.06A2.31,2.31,0,0,0,103,8.47a5.58,5.58,0,0,0-1.12,2.8v.65c0,.84.14.78.65.84a.06.06,0,0,1,0,.11l-1,0-.94,0c-.07,0-.06-.11,0-.11.4-.06.57-.08.57-.84v-.61a5.36,5.36,0,0,0-.84-2.49c-.67-1-1.21-1.41-1.83-1.44a1.49,1.49,0,0,0-.45.06s-.08,0,0-.08A1.3,1.3,0,0,1,99,7.07a2.49,2.49,0,0,1,2,1.4,6.91,6.91,0,0,1,.8,2,5.32,5.32,0,0,1,.89-2.19,2.22,2.22,0,0,1,1.8-1.17.63.63,0,0,1,.55.22c0,.06,0,.1,0,.08"/><path class="cls-2" d="M107.56,7.18c.06-.13.08-.15.11-.15s.06,0,.11.15c.25.77,1.13,3.15,1.83,4.91.22.53.37.62.8.68.06,0,.07.1,0,.1-.35,0-.61,0-1,0l-.81,0a.05.05,0,1,1,0-.1c.35,0,.41-.14.28-.56s-.34-1-.54-1.58h-1.81c-.14.37-.41,1.06-.55,1.55s.09.55.4.59c.06,0,.07.1,0,.1l-.83,0-.85,0c-.08,0-.06-.1,0-.1a.87.87,0,0,0,.74-.52c.27-.49.58-1.29.89-2Zm-.1,1.06c-.11.27-.27.63-.42,1l-.42,1.08h1.63c-.24-.7-.49-1.37-.79-2.11"/><path class="cls-2" d="M114.43,13a2.78,2.78,0,0,1-3.06-2.87A3,3,0,0,1,114.56,7a2.81,2.81,0,0,1,2.92,2.89,3,3,0,0,1-3,3.11m-2.31-3c0,1.63.9,2.78,2.36,2.78a2.25,2.25,0,0,0,2.28-2.46c0-1.52-.77-3.08-2.54-3-1.42,0-2.1,1.13-2.1,2.71"/><path class="cls-2" d="M127.64,12.77c0,.16,0,.19,0,.2s-.08,0-.21-.16c-.59-.67-1.21-1.35-2.33-2.48-.89-.9-1.6-1.64-2-2,0,.71,0,2.48.08,3.77,0,.37.18.61.74.67a.05.05,0,1,1,0,.1l-1,0-.73,0c-.07,0-.06-.1,0-.1.34-.07.46-.15.49-.62.08-1,.09-2.5.09-3.26V7.25c0-.14,0-.18,0-.19s.07,0,.2.15c.68.76,1.43,1.55,2.35,2.48s1.48,1.49,2,2c0-1.09,0-2.28,0-3.57,0-.67-.11-.77-.63-.85-.06,0-.07-.1,0-.1l.85,0,.69,0c.07,0,.05.1,0,.1-.35.06-.44.31-.46.73-.06,1.42-.09,2.78-.09,4.81"/><path class="cls-2" d="M133,13A2.8,2.8,0,0,1,130,10.13,3,3,0,0,1,133.15,7a2.81,2.81,0,0,1,2.92,2.89A3,3,0,0,1,133,13m-2.32-3c0,1.63.91,2.78,2.37,2.78a2.26,2.26,0,0,0,2.28-2.46c0-1.52-.78-3.08-2.54-3-1.42,0-2.11,1.13-2.11,2.71"/><path class="cls-2" d="M139.06,11.83c0,.79.1.89.65.93a.06.06,0,0,1,0,.11l-1,0-.95,0a.06.06,0,1,1,0-.11c.45-.06.57-.11.59-.93,0-.31,0-1.35,0-1.66,0-.72,0-1.61,0-1.92,0-1-.18-1-.59-1-.07,0-.09-.1,0-.1l.95,0,.84,0c.07,0,.06.09,0,.1-.4.07-.51.08-.53,1,0,.27,0,1.27,0,1.91,0,.32,0,1.36,0,1.67"/><path class="cls-2" d="M36.37,11.32c0-.06.1-.05.1,0,.05.9.49,1.46,1.29,1.46A1.1,1.1,0,0,0,39,11.7c0-.77-.49-1.09-1.33-1.52a1.89,1.89,0,0,1-1.23-1.75A1.47,1.47,0,0,1,38.09,7a3,3,0,0,1,.85.12.44.44,0,0,1,.32.53c0,.13-.07.49-.08.68s-.11.05-.11,0A1.08,1.08,0,0,0,38,7.23a.94.94,0,0,0-1,1,1.5,1.5,0,0,0,1,1.32c1.14.58,1.61,1.07,1.59,2A1.64,1.64,0,0,1,37.71,13a2.56,2.56,0,0,1-1-.19.63.63,0,0,1-.38-.5,3.55,3.55,0,0,1,.08-1"/><path class="cls-2" d="M43.35,11.83c0,.78.1.88.64.93.08,0,.08.1,0,.1l-1,0-1,0a.05.05,0,1,1,0-.1c.45-.06.57-.12.59-.93,0-.31,0-1.35,0-1.66,0-.72,0-1.61,0-1.92,0-1-.18-1-.59-1a.06.06,0,1,1,0-.11l1,0,.84,0c.07,0,.06.1,0,.11-.4.07-.51.08-.53,1,0,.28,0,1.27,0,1.91,0,.32,0,1.36,0,1.67"/><path class="cls-2" d="M48.52,10.29c-.36.57-.85,1.42-1.11,1.9s-.21.51.27.57c.07,0,.09.1,0,.1l-.82,0-.86,0c-.07,0-.07-.09,0-.1a1,1,0,0,0,.85-.53c.47-.66,1-1.5,1.5-2.23-.48-.77-1-1.64-1.43-2.25-.26-.39-.38-.48-.74-.51-.06,0-.08-.11,0-.11l.87,0,.94,0c.08,0,.06.11,0,.11-.42,0-.42.18-.26.47.29.53.63,1.14,1,1.78.34-.56.66-1.12.92-1.64s.2-.56-.13-.61a.06.06,0,1,1,0-.11l.79,0,.7,0a.06.06,0,0,1,0,.11c-.27,0-.45,0-.78.53-.49.7-1,1.4-1.32,2,.46.74,1.18,1.89,1.62,2.5.26.38.44.49.74.52a.05.05,0,1,1,0,.1l-.86,0-.88,0a.05.05,0,1,1,0-.1c.36,0,.35-.18.18-.48s-.77-1.27-1.2-2"/><path class="cls-2" d="M57.13,11.32c0-.06.1-.05.1,0,0,.9.49,1.46,1.28,1.46a1.11,1.11,0,0,0,1.25-1.08c0-.77-.49-1.09-1.33-1.52a1.88,1.88,0,0,1-1.24-1.75A1.47,1.47,0,0,1,58.84,7a3,3,0,0,1,.85.12.44.44,0,0,1,.32.53c0,.13-.06.49-.08.68a.05.05,0,0,1-.1,0,1.1,1.1,0,0,0-1.1-1.1.93.93,0,0,0-1,1,1.49,1.49,0,0,0,1,1.32c1.15.58,1.62,1.07,1.59,2A1.64,1.64,0,0,1,58.46,13a2.56,2.56,0,0,1-1-.19.65.65,0,0,1-.38-.5,3.55,3.55,0,0,1,.09-1"/><path class="cls-2" d="M64.08,12c0,.55.13.58.61.59h.78c.77,0,.92-.51,1-1.09,0-.07.11-.07.11,0a7.54,7.54,0,0,1,0,1.12c0,.21-.19.28-.54.28s-1.3,0-2.18,0l-1,0c-.07,0-.06-.1,0-.1.49,0,.59-.14.61-.93s0-1.29,0-1.95,0-1.06,0-1.64c0-.76,0-.93-.64-1-.06,0-.08-.1,0-.1l1.08,0,1.94,0c.27,0,.41,0,.4.23s-.06.58-.11.89c0,.06-.11.06-.11,0,0-.46-.15-.77-.62-.8a10.63,10.63,0,0,0-1.28,0c0,.77,0,1.47,0,2.31.38,0,1,0,1.55,0,.26,0,.25-.1.32-.1s0,.05,0,.24a5.05,5.05,0,0,1-.09.56c0,.06-.11.06-.11,0,0-.37-.24-.37-.61-.39h-1c0,.45,0,1.36,0,1.94"/><path class="cls-2" d="M74.51,12.76c0,.17,0,.19,0,.2s-.07,0-.2-.15c-.59-.68-1.21-1.35-2.34-2.49-.88-.89-1.59-1.63-2-2C70,9,70,10.8,70,12.1c0,.37.18.6.74.66.07,0,.09.1,0,.1l-1,0-.72,0a.05.05,0,1,1,0-.1c.33-.06.45-.15.49-.62.07-1,.09-2.49.09-3.25,0-.49,0-1.1,0-1.64,0-.14,0-.17,0-.18s.07,0,.2.15c.68.75,1.43,1.55,2.35,2.47s1.48,1.49,2,2c0-1.08,0-2.27,0-3.56,0-.67-.11-.77-.63-.85-.06,0-.07-.1,0-.1l.84,0,.69,0c.08,0,.06.1,0,.1-.35.06-.44.31-.46.73,0,1.42-.09,2.78-.09,4.8"/><path class="cls-2" d="M77.86,11.32c0-.06.1-.05.1,0,.05.9.49,1.46,1.29,1.46a1.1,1.1,0,0,0,1.24-1.08c0-.77-.49-1.09-1.33-1.52a1.89,1.89,0,0,1-1.23-1.75A1.47,1.47,0,0,1,79.58,7a3,3,0,0,1,.85.12.44.44,0,0,1,.32.53c0,.13-.07.49-.08.68s-.11.05-.11,0a1.08,1.08,0,0,0-1.09-1.1.93.93,0,0,0-1,1,1.49,1.49,0,0,0,1,1.32c1.14.58,1.61,1.07,1.59,2A1.64,1.64,0,0,1,79.2,13a2.56,2.56,0,0,1-1-.19.63.63,0,0,1-.38-.5,3.55,3.55,0,0,1,.08-1"/><path class="cls-2" d="M84.82,12c0,.55.13.58.61.59h.77c.78,0,.93-.51,1-1.09,0-.07.11-.07.11,0a7.54,7.54,0,0,1,0,1.12c0,.21-.19.28-.54.28s-1.3,0-2.18,0l-1,0a.05.05,0,1,1,0-.1c.49,0,.59-.14.61-.93s0-1.29,0-1.95,0-1.06,0-1.64c0-.76,0-.93-.64-1a.05.05,0,1,1,0-.1l1.08,0,1.94,0c.26,0,.41,0,.39.23s0,.58-.1.89c0,.06-.12.06-.11,0,0-.46-.16-.77-.63-.8a10.41,10.41,0,0,0-1.27,0c0,.77,0,1.47,0,2.31.38,0,1,0,1.54,0,.27,0,.26-.1.32-.1s0,.05,0,.24a3.21,3.21,0,0,1-.1.56c0,.06-.11.06-.11,0,0-.37-.23-.37-.61-.39h-1c0,.45,0,1.36,0,1.94"/><path class="cls-2" d="M90,11.32c0-.07.1-.06.1,0,0,.89.49,1.45,1.28,1.45a1.1,1.1,0,0,0,1.25-1.08c0-.76-.49-1.08-1.33-1.52A1.91,1.91,0,0,1,90,8.42,1.47,1.47,0,0,1,91.68,7a2.75,2.75,0,0,1,.85.12.42.42,0,0,1,.32.52c0,.13-.07.49-.09.69s-.1,0-.1,0a1.09,1.09,0,0,0-1.09-1.11.94.94,0,0,0-1,1,1.51,1.51,0,0,0,1,1.32c1.14.58,1.61,1.07,1.58,1.94A1.63,1.63,0,0,1,91.3,13a2.53,2.53,0,0,1-1-.2.6.6,0,0,1-.38-.5,3.48,3.48,0,0,1,.08-1"/></svg>