<?xml version="1.0" encoding="UTF-8"?>
<svg width="22px" height="19px" viewBox="0 0 22 19" version="1.1" xmlns="http://www.w3.org/2000/svg" xmlns:xlink="http://www.w3.org/1999/xlink" fill="#000018">
    <!-- Generator: Sketch 45.1 (43504) - http://www.bohemiancoding.com/sketch -->
    <title>Icon / Twitter</title>
    <desc>Created with Sketch.</desc>
    <defs></defs>
    <g id="Navigation" stroke="none" stroke-width="1" fill-rule="evenodd">
        <g id="Navigation-Desktop" transform="translate(-655.000000, -792.000000)">
            <g id="Desktop-Footer" transform="translate(0.000000, 597.000000)">
                <g id="Social-Icons" transform="translate(576.000000, 193.000000)">
                    <g id="Icon-/-Twitter" transform="translate(79.000000, 2.000000)">
                        <path d="M21.2000324,0.346106452 C20.3348973,0.8873 19.3787892,1.28078387 18.3578703,1.49223548 C17.5438703,0.573493548 16.3808432,-0.000183870968 15.0935459,-0.000183870968 C12.6247892,-0.000183870968 10.6221946,2.11678387 10.6221946,4.72713871 C10.6221946,5.09794516 10.6608432,5.45771935 10.7375459,5.80400968 C7.02014054,5.60665484 3.7248973,3.72626774 1.51776216,0.862783871 C1.13246486,1.56333226 0.912464865,2.37665484 0.912464865,3.24207419 C0.912464865,4.88159032 1.70208649,6.32926774 2.90257297,7.1769129 C2.17062703,7.15423548 1.47911351,6.93910645 0.875005405,6.5873 L0.875005405,6.64552581 C0.875005405,8.93717097 2.41738378,10.8482032 4.46457297,11.2809129 C4.08997838,11.3918484 3.69457297,11.4470097 3.28608649,11.4470097 C2.9983027,11.4470097 2.71705946,11.4188161 2.44414054,11.3636548 C3.01376216,13.2409774 4.66435676,14.6083645 6.62176216,14.6451387 C5.09187027,15.9138484 3.16181622,16.6695581 1.06705946,16.6695581 C0.706140541,16.6695581 0.349383784,16.6481065 -0.000237837838,16.6045903 C1.97976216,17.9437839 4.33138378,18.7270742 6.85603243,18.7270742 C15.084627,18.7270742 19.5821405,11.5242355 19.5821405,5.2763 C19.5821405,5.07097742 19.578573,4.86565484 19.5708432,4.66400968 C20.4448973,3.99717097 21.2036,3.16546129 21.8011676,2.2166871 C21.0002486,2.59300968 20.1374919,2.84736452 19.2331135,2.96075161 C20.1571135,2.37665484 20.8658703,1.44994516 21.2000324,0.346106452" id="Fill-1"></path>
                    </g>
                </g>
            </g>
        </g>
    </g>
</svg>