<?xml version="1.0" encoding="utf-8"?>
<!-- Generator: Adobe Illustrator 22.1.0, SVG Export Plug-In . SVG Version: 6.00 Build 0)  -->
<svg version="1.1" id="Layer_1" xmlns="http://www.w3.org/2000/svg" xmlns:xlink="http://www.w3.org/1999/xlink" x="0px" y="0px"
	 viewBox="0 0 22.8 15.8" style="enable-background:new 0 0 22.8 15.8;" xml:space="preserve">
<title>Shape</title>
<desc>Created with Sketch.</desc>
<g id="Navigation">
	<g id="Navigation-Desktop" transform="translate(-907.000000, -709.000000)">
		<g id="Desktop-Footer" transform="translate(0.000000, 597.000000)">
			<g id="Email-Input" transform="translate(468.000000, 46.000000)">
				<g id="CTA" transform="translate(415.000000, 49.000000)">
					<path id="Shape" d="M35.5,26.4L35.5,26.4c0.2,0,0.3,0,0.4-0.1l0,0c0,0,0,0,0,0l0.4-0.3l9.5-7.9c0,0-0.1,0-0.1,0H25
						c0,0,0,0-0.1,0l10,8.2C35.1,26.3,35.3,26.4,35.5,26.4z M24.9,19.1v11.6l7.2-5.8L24.9,19.1z M38.8,25l7.1,5.7V19.1L38.8,25z
						 M36.5,26.9c-0.3,0.2-0.7,0.4-1,0.4c-0.4,0-0.8-0.1-1-0.4l-1.6-1.3l-7.8,6.3v0c0,0.1,0.1,0.1,0.1,0.1h20.8
						c0.1,0,0.1-0.1,0.1-0.1v0l-7.8-6.3L36.5,26.9z"/>
				</g>
			</g>
		</g>
	</g>
</g>
</svg>
